G04 #@! TF.GenerationSoftware,KiCad,Pcbnew,5.1.5+dfsg1-2build2*
G04 #@! TF.CreationDate,2021-02-19T16:21:08+00:00*
G04 #@! TF.ProjectId,plate,706c6174-652e-46b6-9963-61645f706362,rev?*
G04 #@! TF.SameCoordinates,Original*
G04 #@! TF.FileFunction,Copper,L1,Top*
G04 #@! TF.FilePolarity,Positive*
%FSLAX46Y46*%
G04 Gerber Fmt 4.6, Leading zero omitted, Abs format (unit mm)*
G04 Created by KiCad (PCBNEW 5.1.5+dfsg1-2build2) date 2021-02-19 16:21:08*
%MOMM*%
%LPD*%
G04 APERTURE LIST*
%ADD10R,2.000000X2.000000*%
%ADD11C,2.000000*%
%ADD12R,2.000000X3.200000*%
%ADD13C,0.254000*%
G04 APERTURE END LIST*
D10*
X178765000Y-126670000D03*
D11*
X181265000Y-126670000D03*
X183765000Y-126670000D03*
D12*
X175665000Y-119170000D03*
X186865000Y-119170000D03*
D11*
X178765000Y-112170000D03*
X183765000Y-112170000D03*
D13*
G36*
X177130000Y-112008967D02*
G01*
X177130000Y-112331033D01*
X177192832Y-112646912D01*
X177316082Y-112944463D01*
X177495013Y-113212252D01*
X177722748Y-113439987D01*
X177990537Y-113618918D01*
X178288088Y-113742168D01*
X178603967Y-113805000D01*
X178926033Y-113805000D01*
X179241912Y-113742168D01*
X179539463Y-113618918D01*
X179807252Y-113439987D01*
X180034987Y-113212252D01*
X180213918Y-112944463D01*
X180337168Y-112646912D01*
X180400000Y-112331033D01*
X180400000Y-112008967D01*
X180360264Y-111809200D01*
X182169736Y-111809200D01*
X182130000Y-112008967D01*
X182130000Y-112331033D01*
X182192832Y-112646912D01*
X182316082Y-112944463D01*
X182495013Y-113212252D01*
X182722748Y-113439987D01*
X182990537Y-113618918D01*
X183288088Y-113742168D01*
X183603967Y-113805000D01*
X183926033Y-113805000D01*
X184241912Y-113742168D01*
X184539463Y-113618918D01*
X184807252Y-113439987D01*
X185034987Y-113212252D01*
X185213918Y-112944463D01*
X185337168Y-112646912D01*
X185400000Y-112331033D01*
X185400000Y-112008967D01*
X185360264Y-111809200D01*
X187987000Y-111809200D01*
X187987000Y-116943944D01*
X187865000Y-116931928D01*
X185865000Y-116931928D01*
X185740518Y-116944188D01*
X185620820Y-116980498D01*
X185510506Y-117039463D01*
X185413815Y-117118815D01*
X185334463Y-117215506D01*
X185275498Y-117325820D01*
X185239188Y-117445518D01*
X185226928Y-117570000D01*
X185226928Y-120770000D01*
X185239188Y-120894482D01*
X185275498Y-121014180D01*
X185334463Y-121124494D01*
X185413815Y-121221185D01*
X185510506Y-121300537D01*
X185620820Y-121359502D01*
X185740518Y-121395812D01*
X185865000Y-121408072D01*
X187865000Y-121408072D01*
X187987001Y-121396056D01*
X187987001Y-127154000D01*
X185334232Y-127154000D01*
X185337168Y-127146912D01*
X185400000Y-126831033D01*
X185400000Y-126508967D01*
X185337168Y-126193088D01*
X185213918Y-125895537D01*
X185034987Y-125627748D01*
X184807252Y-125400013D01*
X184539463Y-125221082D01*
X184241912Y-125097832D01*
X183926033Y-125035000D01*
X183603967Y-125035000D01*
X183288088Y-125097832D01*
X182990537Y-125221082D01*
X182722748Y-125400013D01*
X182495013Y-125627748D01*
X182430075Y-125724935D01*
X182400413Y-125714192D01*
X181444605Y-126670000D01*
X181458748Y-126684143D01*
X181279143Y-126863748D01*
X181265000Y-126849605D01*
X181250858Y-126863748D01*
X181071253Y-126684143D01*
X181085395Y-126670000D01*
X181071253Y-126655858D01*
X181250858Y-126476253D01*
X181265000Y-126490395D01*
X182220808Y-125534587D01*
X182125044Y-125270186D01*
X181835429Y-125129296D01*
X181523892Y-125047616D01*
X181202405Y-125028282D01*
X180883325Y-125072039D01*
X180578912Y-125177205D01*
X180404956Y-125270186D01*
X180350976Y-125419223D01*
X180295537Y-125315506D01*
X180216185Y-125218815D01*
X180119494Y-125139463D01*
X180009180Y-125080498D01*
X179889482Y-125044188D01*
X179765000Y-125031928D01*
X177765000Y-125031928D01*
X177640518Y-125044188D01*
X177520820Y-125080498D01*
X177410506Y-125139463D01*
X177313815Y-125218815D01*
X177234463Y-125315506D01*
X177175498Y-125425820D01*
X177139188Y-125545518D01*
X177126928Y-125670000D01*
X177126928Y-127154000D01*
X174598000Y-127154000D01*
X174598000Y-121401473D01*
X174665000Y-121408072D01*
X176665000Y-121408072D01*
X176789482Y-121395812D01*
X176909180Y-121359502D01*
X177019494Y-121300537D01*
X177116185Y-121221185D01*
X177195537Y-121124494D01*
X177254502Y-121014180D01*
X177290812Y-120894482D01*
X177303072Y-120770000D01*
X177303072Y-117570000D01*
X177290812Y-117445518D01*
X177254502Y-117325820D01*
X177195537Y-117215506D01*
X177116185Y-117118815D01*
X177019494Y-117039463D01*
X176909180Y-116980498D01*
X176789482Y-116944188D01*
X176665000Y-116931928D01*
X174665000Y-116931928D01*
X174598000Y-116938527D01*
X174598000Y-111809200D01*
X177169736Y-111809200D01*
X177130000Y-112008967D01*
G37*
X177130000Y-112008967D02*
X177130000Y-112331033D01*
X177192832Y-112646912D01*
X177316082Y-112944463D01*
X177495013Y-113212252D01*
X177722748Y-113439987D01*
X177990537Y-113618918D01*
X178288088Y-113742168D01*
X178603967Y-113805000D01*
X178926033Y-113805000D01*
X179241912Y-113742168D01*
X179539463Y-113618918D01*
X179807252Y-113439987D01*
X180034987Y-113212252D01*
X180213918Y-112944463D01*
X180337168Y-112646912D01*
X180400000Y-112331033D01*
X180400000Y-112008967D01*
X180360264Y-111809200D01*
X182169736Y-111809200D01*
X182130000Y-112008967D01*
X182130000Y-112331033D01*
X182192832Y-112646912D01*
X182316082Y-112944463D01*
X182495013Y-113212252D01*
X182722748Y-113439987D01*
X182990537Y-113618918D01*
X183288088Y-113742168D01*
X183603967Y-113805000D01*
X183926033Y-113805000D01*
X184241912Y-113742168D01*
X184539463Y-113618918D01*
X184807252Y-113439987D01*
X185034987Y-113212252D01*
X185213918Y-112944463D01*
X185337168Y-112646912D01*
X185400000Y-112331033D01*
X185400000Y-112008967D01*
X185360264Y-111809200D01*
X187987000Y-111809200D01*
X187987000Y-116943944D01*
X187865000Y-116931928D01*
X185865000Y-116931928D01*
X185740518Y-116944188D01*
X185620820Y-116980498D01*
X185510506Y-117039463D01*
X185413815Y-117118815D01*
X185334463Y-117215506D01*
X185275498Y-117325820D01*
X185239188Y-117445518D01*
X185226928Y-117570000D01*
X185226928Y-120770000D01*
X185239188Y-120894482D01*
X185275498Y-121014180D01*
X185334463Y-121124494D01*
X185413815Y-121221185D01*
X185510506Y-121300537D01*
X185620820Y-121359502D01*
X185740518Y-121395812D01*
X185865000Y-121408072D01*
X187865000Y-121408072D01*
X187987001Y-121396056D01*
X187987001Y-127154000D01*
X185334232Y-127154000D01*
X185337168Y-127146912D01*
X185400000Y-126831033D01*
X185400000Y-126508967D01*
X185337168Y-126193088D01*
X185213918Y-125895537D01*
X185034987Y-125627748D01*
X184807252Y-125400013D01*
X184539463Y-125221082D01*
X184241912Y-125097832D01*
X183926033Y-125035000D01*
X183603967Y-125035000D01*
X183288088Y-125097832D01*
X182990537Y-125221082D01*
X182722748Y-125400013D01*
X182495013Y-125627748D01*
X182430075Y-125724935D01*
X182400413Y-125714192D01*
X181444605Y-126670000D01*
X181458748Y-126684143D01*
X181279143Y-126863748D01*
X181265000Y-126849605D01*
X181250858Y-126863748D01*
X181071253Y-126684143D01*
X181085395Y-126670000D01*
X181071253Y-126655858D01*
X181250858Y-126476253D01*
X181265000Y-126490395D01*
X182220808Y-125534587D01*
X182125044Y-125270186D01*
X181835429Y-125129296D01*
X181523892Y-125047616D01*
X181202405Y-125028282D01*
X180883325Y-125072039D01*
X180578912Y-125177205D01*
X180404956Y-125270186D01*
X180350976Y-125419223D01*
X180295537Y-125315506D01*
X180216185Y-125218815D01*
X180119494Y-125139463D01*
X180009180Y-125080498D01*
X179889482Y-125044188D01*
X179765000Y-125031928D01*
X177765000Y-125031928D01*
X177640518Y-125044188D01*
X177520820Y-125080498D01*
X177410506Y-125139463D01*
X177313815Y-125218815D01*
X177234463Y-125315506D01*
X177175498Y-125425820D01*
X177139188Y-125545518D01*
X177126928Y-125670000D01*
X177126928Y-127154000D01*
X174598000Y-127154000D01*
X174598000Y-121401473D01*
X174665000Y-121408072D01*
X176665000Y-121408072D01*
X176789482Y-121395812D01*
X176909180Y-121359502D01*
X177019494Y-121300537D01*
X177116185Y-121221185D01*
X177195537Y-121124494D01*
X177254502Y-121014180D01*
X177290812Y-120894482D01*
X177303072Y-120770000D01*
X177303072Y-117570000D01*
X177290812Y-117445518D01*
X177254502Y-117325820D01*
X177195537Y-117215506D01*
X177116185Y-117118815D01*
X177019494Y-117039463D01*
X176909180Y-116980498D01*
X176789482Y-116944188D01*
X176665000Y-116931928D01*
X174665000Y-116931928D01*
X174598000Y-116938527D01*
X174598000Y-111809200D01*
X177169736Y-111809200D01*
X177130000Y-112008967D01*
M02*
