G04 #@! TF.GenerationSoftware,KiCad,Pcbnew,5.1.5+dfsg1-2build2*
G04 #@! TF.CreationDate,2021-02-19T16:21:08+00:00*
G04 #@! TF.ProjectId,plate,706c6174-652e-46b6-9963-61645f706362,rev?*
G04 #@! TF.SameCoordinates,Original*
G04 #@! TF.FileFunction,Legend,Top*
G04 #@! TF.FilePolarity,Positive*
%FSLAX46Y46*%
G04 Gerber Fmt 4.6, Leading zero omitted, Abs format (unit mm)*
G04 Created by KiCad (PCBNEW 5.1.5+dfsg1-2build2) date 2021-02-19 16:21:08*
%MOMM*%
%LPD*%
G04 APERTURE LIST*
%ADD10C,0.120000*%
%ADD11C,0.150000*%
G04 APERTURE END LIST*
D10*
X184265000Y-119170000D02*
G75*
G03X184265000Y-119170000I-3000000J0D01*
G01*
X175365000Y-117170000D02*
X175365000Y-113070000D01*
X187165000Y-113070000D02*
X187165000Y-117170000D01*
X187165000Y-121170000D02*
X187165000Y-125270000D01*
X175365000Y-121170000D02*
X175365000Y-125270000D01*
X175365000Y-125270000D02*
X187165000Y-125270000D01*
X177465000Y-126670000D02*
X177165000Y-126970000D01*
X177165000Y-126970000D02*
X177165000Y-126370000D01*
X177165000Y-126370000D02*
X177465000Y-126670000D01*
X175365000Y-113070000D02*
X177765000Y-113070000D01*
X179965000Y-113070000D02*
X182565000Y-113070000D01*
X184765000Y-113070000D02*
X187165000Y-113070000D01*
X180765000Y-119170000D02*
X181765000Y-119170000D01*
X181265000Y-119670000D02*
X181265000Y-118670000D01*
D11*
X174469761Y-125679523D02*
X174517380Y-125536666D01*
X174517380Y-125298571D01*
X174469761Y-125203333D01*
X174422142Y-125155714D01*
X174326904Y-125108095D01*
X174231666Y-125108095D01*
X174136428Y-125155714D01*
X174088809Y-125203333D01*
X174041190Y-125298571D01*
X173993571Y-125489047D01*
X173945952Y-125584285D01*
X173898333Y-125631904D01*
X173803095Y-125679523D01*
X173707857Y-125679523D01*
X173612619Y-125631904D01*
X173565000Y-125584285D01*
X173517380Y-125489047D01*
X173517380Y-125250952D01*
X173565000Y-125108095D01*
X173517380Y-124774761D02*
X174517380Y-124536666D01*
X173803095Y-124346190D01*
X174517380Y-124155714D01*
X173517380Y-123917619D01*
X173517380Y-123631904D02*
X173517380Y-123012857D01*
X173898333Y-123346190D01*
X173898333Y-123203333D01*
X173945952Y-123108095D01*
X173993571Y-123060476D01*
X174088809Y-123012857D01*
X174326904Y-123012857D01*
X174422142Y-123060476D01*
X174469761Y-123108095D01*
X174517380Y-123203333D01*
X174517380Y-123489047D01*
X174469761Y-123584285D01*
X174422142Y-123631904D01*
X173517380Y-122393809D02*
X173517380Y-122298571D01*
X173565000Y-122203333D01*
X173612619Y-122155714D01*
X173707857Y-122108095D01*
X173898333Y-122060476D01*
X174136428Y-122060476D01*
X174326904Y-122108095D01*
X174422142Y-122155714D01*
X174469761Y-122203333D01*
X174517380Y-122298571D01*
X174517380Y-122393809D01*
X174469761Y-122489047D01*
X174422142Y-122536666D01*
X174326904Y-122584285D01*
X174136428Y-122631904D01*
X173898333Y-122631904D01*
X173707857Y-122584285D01*
X173612619Y-122536666D01*
X173565000Y-122489047D01*
X173517380Y-122393809D01*
X63639866Y-63371361D02*
X63782723Y-63418980D01*
X64020819Y-63418980D01*
X64116057Y-63371361D01*
X64163676Y-63323742D01*
X64211295Y-63228504D01*
X64211295Y-63133266D01*
X64163676Y-63038028D01*
X64116057Y-62990409D01*
X64020819Y-62942790D01*
X63830342Y-62895171D01*
X63735104Y-62847552D01*
X63687485Y-62799933D01*
X63639866Y-62704695D01*
X63639866Y-62609457D01*
X63687485Y-62514219D01*
X63735104Y-62466600D01*
X63830342Y-62418980D01*
X64068438Y-62418980D01*
X64211295Y-62466600D01*
X64544628Y-62418980D02*
X64782723Y-63418980D01*
X64973200Y-62704695D01*
X65163676Y-63418980D01*
X65401771Y-62418980D01*
X66306533Y-63418980D02*
X65735104Y-63418980D01*
X66020819Y-63418980D02*
X66020819Y-62418980D01*
X65925580Y-62561838D01*
X65830342Y-62657076D01*
X65735104Y-62704695D01*
X175772572Y-146041474D02*
X175885240Y-145941566D01*
X176004287Y-145735369D01*
X176010667Y-145629081D01*
X175993237Y-145564032D01*
X175934568Y-145475174D01*
X175852089Y-145427555D01*
X175745801Y-145421175D01*
X175680752Y-145438605D01*
X175591894Y-145497274D01*
X175455417Y-145638422D01*
X175366558Y-145697091D01*
X175301510Y-145714520D01*
X175195221Y-145708141D01*
X175112743Y-145660522D01*
X175054074Y-145571663D01*
X175036644Y-145506614D01*
X175043024Y-145400326D01*
X175162071Y-145194130D01*
X175274739Y-145094221D01*
X175400167Y-144781737D02*
X176385240Y-145075540D01*
X175861888Y-144553440D01*
X176575716Y-144745626D01*
X175828738Y-144039429D01*
X176077883Y-143798373D02*
X176060453Y-143733324D01*
X176066833Y-143627036D01*
X176185881Y-143420840D01*
X176274739Y-143362171D01*
X176339788Y-143344741D01*
X176446076Y-143351121D01*
X176528555Y-143398740D01*
X176628463Y-143511408D01*
X176837621Y-144291993D01*
X177147144Y-143755882D01*
X177385240Y-143343489D02*
X177480478Y-143178532D01*
X177486857Y-143072244D01*
X177469428Y-143007195D01*
X177393329Y-142853288D01*
X177252181Y-142716811D01*
X176922267Y-142526334D01*
X176815978Y-142519955D01*
X176750930Y-142537385D01*
X176662071Y-142596054D01*
X176566833Y-142761011D01*
X176560453Y-142867299D01*
X176577883Y-142932348D01*
X176636552Y-143021206D01*
X176842749Y-143140254D01*
X176949037Y-143146634D01*
X177014086Y-143129204D01*
X177102944Y-143070535D01*
X177198182Y-142905577D01*
X177204562Y-142799289D01*
X177187132Y-142734240D01*
X177128463Y-142645382D01*
X144248480Y-138260392D02*
X144380898Y-138332094D01*
X144615376Y-138373439D01*
X144717436Y-138343081D01*
X144772601Y-138304455D01*
X144836034Y-138218932D01*
X144852572Y-138125141D01*
X144822215Y-138023081D01*
X144783588Y-137967916D01*
X144698066Y-137904483D01*
X144518752Y-137824511D01*
X144433230Y-137761078D01*
X144394603Y-137705913D01*
X144364246Y-137603853D01*
X144380784Y-137510062D01*
X144444217Y-137424540D01*
X144499382Y-137385913D01*
X144601442Y-137355555D01*
X144835920Y-137396900D01*
X144968338Y-137468603D01*
X145304876Y-137479590D02*
X145365706Y-138505742D01*
X145677323Y-137835384D01*
X145740871Y-138571894D01*
X146148997Y-137628431D01*
X146460728Y-137780105D02*
X146515893Y-137741478D01*
X146617953Y-137711121D01*
X146852431Y-137752465D01*
X146937953Y-137815899D01*
X146976580Y-137871064D01*
X147006938Y-137973124D01*
X146990400Y-138066915D01*
X146918697Y-138199333D01*
X146256722Y-138662853D01*
X146866365Y-138770349D01*
X147528340Y-138306829D02*
X147442818Y-138243396D01*
X147404191Y-138188231D01*
X147373834Y-138086171D01*
X147382102Y-138039275D01*
X147445536Y-137953753D01*
X147500701Y-137915127D01*
X147602761Y-137884769D01*
X147790343Y-137917845D01*
X147875865Y-137981278D01*
X147914492Y-138036443D01*
X147944850Y-138138503D01*
X147936581Y-138185399D01*
X147873147Y-138270921D01*
X147817983Y-138309547D01*
X147715923Y-138339905D01*
X147528340Y-138306829D01*
X147426280Y-138337187D01*
X147371115Y-138375814D01*
X147307682Y-138461336D01*
X147274606Y-138648918D01*
X147304964Y-138750978D01*
X147343590Y-138806143D01*
X147429113Y-138869577D01*
X147616695Y-138902652D01*
X147718755Y-138872295D01*
X147773920Y-138833668D01*
X147837353Y-138748146D01*
X147870429Y-138560563D01*
X147840071Y-138458503D01*
X147801445Y-138403339D01*
X147715923Y-138339905D01*
X120567676Y-136726561D02*
X120710533Y-136774180D01*
X120948628Y-136774180D01*
X121043866Y-136726561D01*
X121091485Y-136678942D01*
X121139104Y-136583704D01*
X121139104Y-136488466D01*
X121091485Y-136393228D01*
X121043866Y-136345609D01*
X120948628Y-136297990D01*
X120758152Y-136250371D01*
X120662914Y-136202752D01*
X120615295Y-136155133D01*
X120567676Y-136059895D01*
X120567676Y-135964657D01*
X120615295Y-135869419D01*
X120662914Y-135821800D01*
X120758152Y-135774180D01*
X120996247Y-135774180D01*
X121139104Y-135821800D01*
X121472438Y-135774180D02*
X121710533Y-136774180D01*
X121901009Y-136059895D01*
X122091485Y-136774180D01*
X122329580Y-135774180D01*
X122662914Y-135869419D02*
X122710533Y-135821800D01*
X122805771Y-135774180D01*
X123043866Y-135774180D01*
X123139104Y-135821800D01*
X123186723Y-135869419D01*
X123234342Y-135964657D01*
X123234342Y-136059895D01*
X123186723Y-136202752D01*
X122615295Y-136774180D01*
X123234342Y-136774180D01*
X123567676Y-135774180D02*
X124234342Y-135774180D01*
X123805771Y-136774180D01*
X101238276Y-134999361D02*
X101381133Y-135046980D01*
X101619228Y-135046980D01*
X101714466Y-134999361D01*
X101762085Y-134951742D01*
X101809704Y-134856504D01*
X101809704Y-134761266D01*
X101762085Y-134666028D01*
X101714466Y-134618409D01*
X101619228Y-134570790D01*
X101428752Y-134523171D01*
X101333514Y-134475552D01*
X101285895Y-134427933D01*
X101238276Y-134332695D01*
X101238276Y-134237457D01*
X101285895Y-134142219D01*
X101333514Y-134094600D01*
X101428752Y-134046980D01*
X101666847Y-134046980D01*
X101809704Y-134094600D01*
X102143038Y-134046980D02*
X102381133Y-135046980D01*
X102571609Y-134332695D01*
X102762085Y-135046980D01*
X103000180Y-134046980D01*
X103333514Y-134142219D02*
X103381133Y-134094600D01*
X103476371Y-134046980D01*
X103714466Y-134046980D01*
X103809704Y-134094600D01*
X103857323Y-134142219D01*
X103904942Y-134237457D01*
X103904942Y-134332695D01*
X103857323Y-134475552D01*
X103285895Y-135046980D01*
X103904942Y-135046980D01*
X104762085Y-134046980D02*
X104571609Y-134046980D01*
X104476371Y-134094600D01*
X104428752Y-134142219D01*
X104333514Y-134285076D01*
X104285895Y-134475552D01*
X104285895Y-134856504D01*
X104333514Y-134951742D01*
X104381133Y-134999361D01*
X104476371Y-135046980D01*
X104666847Y-135046980D01*
X104762085Y-134999361D01*
X104809704Y-134951742D01*
X104857323Y-134856504D01*
X104857323Y-134618409D01*
X104809704Y-134523171D01*
X104762085Y-134475552D01*
X104666847Y-134427933D01*
X104476371Y-134427933D01*
X104381133Y-134475552D01*
X104333514Y-134523171D01*
X104285895Y-134618409D01*
X82162876Y-139317361D02*
X82305733Y-139364980D01*
X82543828Y-139364980D01*
X82639066Y-139317361D01*
X82686685Y-139269742D01*
X82734304Y-139174504D01*
X82734304Y-139079266D01*
X82686685Y-138984028D01*
X82639066Y-138936409D01*
X82543828Y-138888790D01*
X82353352Y-138841171D01*
X82258114Y-138793552D01*
X82210495Y-138745933D01*
X82162876Y-138650695D01*
X82162876Y-138555457D01*
X82210495Y-138460219D01*
X82258114Y-138412600D01*
X82353352Y-138364980D01*
X82591447Y-138364980D01*
X82734304Y-138412600D01*
X83067638Y-138364980D02*
X83305733Y-139364980D01*
X83496209Y-138650695D01*
X83686685Y-139364980D01*
X83924780Y-138364980D01*
X84258114Y-138460219D02*
X84305733Y-138412600D01*
X84400971Y-138364980D01*
X84639066Y-138364980D01*
X84734304Y-138412600D01*
X84781923Y-138460219D01*
X84829542Y-138555457D01*
X84829542Y-138650695D01*
X84781923Y-138793552D01*
X84210495Y-139364980D01*
X84829542Y-139364980D01*
X85734304Y-138364980D02*
X85258114Y-138364980D01*
X85210495Y-138841171D01*
X85258114Y-138793552D01*
X85353352Y-138745933D01*
X85591447Y-138745933D01*
X85686685Y-138793552D01*
X85734304Y-138841171D01*
X85781923Y-138936409D01*
X85781923Y-139174504D01*
X85734304Y-139269742D01*
X85686685Y-139317361D01*
X85591447Y-139364980D01*
X85353352Y-139364980D01*
X85258114Y-139317361D01*
X85210495Y-139269742D01*
X158362876Y-119454561D02*
X158505733Y-119502180D01*
X158743828Y-119502180D01*
X158839066Y-119454561D01*
X158886685Y-119406942D01*
X158934304Y-119311704D01*
X158934304Y-119216466D01*
X158886685Y-119121228D01*
X158839066Y-119073609D01*
X158743828Y-119025990D01*
X158553352Y-118978371D01*
X158458114Y-118930752D01*
X158410495Y-118883133D01*
X158362876Y-118787895D01*
X158362876Y-118692657D01*
X158410495Y-118597419D01*
X158458114Y-118549800D01*
X158553352Y-118502180D01*
X158791447Y-118502180D01*
X158934304Y-118549800D01*
X159267638Y-118502180D02*
X159505733Y-119502180D01*
X159696209Y-118787895D01*
X159886685Y-119502180D01*
X160124780Y-118502180D01*
X160458114Y-118597419D02*
X160505733Y-118549800D01*
X160600971Y-118502180D01*
X160839066Y-118502180D01*
X160934304Y-118549800D01*
X160981923Y-118597419D01*
X161029542Y-118692657D01*
X161029542Y-118787895D01*
X160981923Y-118930752D01*
X160410495Y-119502180D01*
X161029542Y-119502180D01*
X161886685Y-118835514D02*
X161886685Y-119502180D01*
X161648590Y-118454561D02*
X161410495Y-119168847D01*
X162029542Y-119168847D01*
X139185876Y-117320961D02*
X139328733Y-117368580D01*
X139566828Y-117368580D01*
X139662066Y-117320961D01*
X139709685Y-117273342D01*
X139757304Y-117178104D01*
X139757304Y-117082866D01*
X139709685Y-116987628D01*
X139662066Y-116940009D01*
X139566828Y-116892390D01*
X139376352Y-116844771D01*
X139281114Y-116797152D01*
X139233495Y-116749533D01*
X139185876Y-116654295D01*
X139185876Y-116559057D01*
X139233495Y-116463819D01*
X139281114Y-116416200D01*
X139376352Y-116368580D01*
X139614447Y-116368580D01*
X139757304Y-116416200D01*
X140090638Y-116368580D02*
X140328733Y-117368580D01*
X140519209Y-116654295D01*
X140709685Y-117368580D01*
X140947780Y-116368580D01*
X141281114Y-116463819D02*
X141328733Y-116416200D01*
X141423971Y-116368580D01*
X141662066Y-116368580D01*
X141757304Y-116416200D01*
X141804923Y-116463819D01*
X141852542Y-116559057D01*
X141852542Y-116654295D01*
X141804923Y-116797152D01*
X141233495Y-117368580D01*
X141852542Y-117368580D01*
X142185876Y-116368580D02*
X142804923Y-116368580D01*
X142471590Y-116749533D01*
X142614447Y-116749533D01*
X142709685Y-116797152D01*
X142757304Y-116844771D01*
X142804923Y-116940009D01*
X142804923Y-117178104D01*
X142757304Y-117273342D01*
X142709685Y-117320961D01*
X142614447Y-117368580D01*
X142328733Y-117368580D01*
X142233495Y-117320961D01*
X142185876Y-117273342D01*
X120237476Y-114780961D02*
X120380333Y-114828580D01*
X120618428Y-114828580D01*
X120713666Y-114780961D01*
X120761285Y-114733342D01*
X120808904Y-114638104D01*
X120808904Y-114542866D01*
X120761285Y-114447628D01*
X120713666Y-114400009D01*
X120618428Y-114352390D01*
X120427952Y-114304771D01*
X120332714Y-114257152D01*
X120285095Y-114209533D01*
X120237476Y-114114295D01*
X120237476Y-114019057D01*
X120285095Y-113923819D01*
X120332714Y-113876200D01*
X120427952Y-113828580D01*
X120666047Y-113828580D01*
X120808904Y-113876200D01*
X121142238Y-113828580D02*
X121380333Y-114828580D01*
X121570809Y-114114295D01*
X121761285Y-114828580D01*
X121999380Y-113828580D01*
X122332714Y-113923819D02*
X122380333Y-113876200D01*
X122475571Y-113828580D01*
X122713666Y-113828580D01*
X122808904Y-113876200D01*
X122856523Y-113923819D01*
X122904142Y-114019057D01*
X122904142Y-114114295D01*
X122856523Y-114257152D01*
X122285095Y-114828580D01*
X122904142Y-114828580D01*
X123285095Y-113923819D02*
X123332714Y-113876200D01*
X123427952Y-113828580D01*
X123666047Y-113828580D01*
X123761285Y-113876200D01*
X123808904Y-113923819D01*
X123856523Y-114019057D01*
X123856523Y-114114295D01*
X123808904Y-114257152D01*
X123237476Y-114828580D01*
X123856523Y-114828580D01*
X102508276Y-115365161D02*
X102651133Y-115412780D01*
X102889228Y-115412780D01*
X102984466Y-115365161D01*
X103032085Y-115317542D01*
X103079704Y-115222304D01*
X103079704Y-115127066D01*
X103032085Y-115031828D01*
X102984466Y-114984209D01*
X102889228Y-114936590D01*
X102698752Y-114888971D01*
X102603514Y-114841352D01*
X102555895Y-114793733D01*
X102508276Y-114698495D01*
X102508276Y-114603257D01*
X102555895Y-114508019D01*
X102603514Y-114460400D01*
X102698752Y-114412780D01*
X102936847Y-114412780D01*
X103079704Y-114460400D01*
X103413038Y-114412780D02*
X103651133Y-115412780D01*
X103841609Y-114698495D01*
X104032085Y-115412780D01*
X104270180Y-114412780D01*
X104603514Y-114508019D02*
X104651133Y-114460400D01*
X104746371Y-114412780D01*
X104984466Y-114412780D01*
X105079704Y-114460400D01*
X105127323Y-114508019D01*
X105174942Y-114603257D01*
X105174942Y-114698495D01*
X105127323Y-114841352D01*
X104555895Y-115412780D01*
X105174942Y-115412780D01*
X106127323Y-115412780D02*
X105555895Y-115412780D01*
X105841609Y-115412780D02*
X105841609Y-114412780D01*
X105746371Y-114555638D01*
X105651133Y-114650876D01*
X105555895Y-114698495D01*
X82391476Y-117676561D02*
X82534333Y-117724180D01*
X82772428Y-117724180D01*
X82867666Y-117676561D01*
X82915285Y-117628942D01*
X82962904Y-117533704D01*
X82962904Y-117438466D01*
X82915285Y-117343228D01*
X82867666Y-117295609D01*
X82772428Y-117247990D01*
X82581952Y-117200371D01*
X82486714Y-117152752D01*
X82439095Y-117105133D01*
X82391476Y-117009895D01*
X82391476Y-116914657D01*
X82439095Y-116819419D01*
X82486714Y-116771800D01*
X82581952Y-116724180D01*
X82820047Y-116724180D01*
X82962904Y-116771800D01*
X83296238Y-116724180D02*
X83534333Y-117724180D01*
X83724809Y-117009895D01*
X83915285Y-117724180D01*
X84153380Y-116724180D01*
X84486714Y-116819419D02*
X84534333Y-116771800D01*
X84629571Y-116724180D01*
X84867666Y-116724180D01*
X84962904Y-116771800D01*
X85010523Y-116819419D01*
X85058142Y-116914657D01*
X85058142Y-117009895D01*
X85010523Y-117152752D01*
X84439095Y-117724180D01*
X85058142Y-117724180D01*
X85677190Y-116724180D02*
X85772428Y-116724180D01*
X85867666Y-116771800D01*
X85915285Y-116819419D01*
X85962904Y-116914657D01*
X86010523Y-117105133D01*
X86010523Y-117343228D01*
X85962904Y-117533704D01*
X85915285Y-117628942D01*
X85867666Y-117676561D01*
X85772428Y-117724180D01*
X85677190Y-117724180D01*
X85581952Y-117676561D01*
X85534333Y-117628942D01*
X85486714Y-117533704D01*
X85439095Y-117343228D01*
X85439095Y-117105133D01*
X85486714Y-116914657D01*
X85534333Y-116819419D01*
X85581952Y-116771800D01*
X85677190Y-116724180D01*
X62985876Y-120114961D02*
X63128733Y-120162580D01*
X63366828Y-120162580D01*
X63462066Y-120114961D01*
X63509685Y-120067342D01*
X63557304Y-119972104D01*
X63557304Y-119876866D01*
X63509685Y-119781628D01*
X63462066Y-119734009D01*
X63366828Y-119686390D01*
X63176352Y-119638771D01*
X63081114Y-119591152D01*
X63033495Y-119543533D01*
X62985876Y-119448295D01*
X62985876Y-119353057D01*
X63033495Y-119257819D01*
X63081114Y-119210200D01*
X63176352Y-119162580D01*
X63414447Y-119162580D01*
X63557304Y-119210200D01*
X63890638Y-119162580D02*
X64128733Y-120162580D01*
X64319209Y-119448295D01*
X64509685Y-120162580D01*
X64747780Y-119162580D01*
X65652542Y-120162580D02*
X65081114Y-120162580D01*
X65366828Y-120162580D02*
X65366828Y-119162580D01*
X65271590Y-119305438D01*
X65176352Y-119400676D01*
X65081114Y-119448295D01*
X66128733Y-120162580D02*
X66319209Y-120162580D01*
X66414447Y-120114961D01*
X66462066Y-120067342D01*
X66557304Y-119924485D01*
X66604923Y-119734009D01*
X66604923Y-119353057D01*
X66557304Y-119257819D01*
X66509685Y-119210200D01*
X66414447Y-119162580D01*
X66223971Y-119162580D01*
X66128733Y-119210200D01*
X66081114Y-119257819D01*
X66033495Y-119353057D01*
X66033495Y-119591152D01*
X66081114Y-119686390D01*
X66128733Y-119734009D01*
X66223971Y-119781628D01*
X66414447Y-119781628D01*
X66509685Y-119734009D01*
X66557304Y-119686390D01*
X66604923Y-119591152D01*
X158642276Y-100810961D02*
X158785133Y-100858580D01*
X159023228Y-100858580D01*
X159118466Y-100810961D01*
X159166085Y-100763342D01*
X159213704Y-100668104D01*
X159213704Y-100572866D01*
X159166085Y-100477628D01*
X159118466Y-100430009D01*
X159023228Y-100382390D01*
X158832752Y-100334771D01*
X158737514Y-100287152D01*
X158689895Y-100239533D01*
X158642276Y-100144295D01*
X158642276Y-100049057D01*
X158689895Y-99953819D01*
X158737514Y-99906200D01*
X158832752Y-99858580D01*
X159070847Y-99858580D01*
X159213704Y-99906200D01*
X159547038Y-99858580D02*
X159785133Y-100858580D01*
X159975609Y-100144295D01*
X160166085Y-100858580D01*
X160404180Y-99858580D01*
X161308942Y-100858580D02*
X160737514Y-100858580D01*
X161023228Y-100858580D02*
X161023228Y-99858580D01*
X160927990Y-100001438D01*
X160832752Y-100096676D01*
X160737514Y-100144295D01*
X161880371Y-100287152D02*
X161785133Y-100239533D01*
X161737514Y-100191914D01*
X161689895Y-100096676D01*
X161689895Y-100049057D01*
X161737514Y-99953819D01*
X161785133Y-99906200D01*
X161880371Y-99858580D01*
X162070847Y-99858580D01*
X162166085Y-99906200D01*
X162213704Y-99953819D01*
X162261323Y-100049057D01*
X162261323Y-100096676D01*
X162213704Y-100191914D01*
X162166085Y-100239533D01*
X162070847Y-100287152D01*
X161880371Y-100287152D01*
X161785133Y-100334771D01*
X161737514Y-100382390D01*
X161689895Y-100477628D01*
X161689895Y-100668104D01*
X161737514Y-100763342D01*
X161785133Y-100810961D01*
X161880371Y-100858580D01*
X162070847Y-100858580D01*
X162166085Y-100810961D01*
X162213704Y-100763342D01*
X162261323Y-100668104D01*
X162261323Y-100477628D01*
X162213704Y-100382390D01*
X162166085Y-100334771D01*
X162070847Y-100287152D01*
X139719276Y-98829761D02*
X139862133Y-98877380D01*
X140100228Y-98877380D01*
X140195466Y-98829761D01*
X140243085Y-98782142D01*
X140290704Y-98686904D01*
X140290704Y-98591666D01*
X140243085Y-98496428D01*
X140195466Y-98448809D01*
X140100228Y-98401190D01*
X139909752Y-98353571D01*
X139814514Y-98305952D01*
X139766895Y-98258333D01*
X139719276Y-98163095D01*
X139719276Y-98067857D01*
X139766895Y-97972619D01*
X139814514Y-97925000D01*
X139909752Y-97877380D01*
X140147847Y-97877380D01*
X140290704Y-97925000D01*
X140624038Y-97877380D02*
X140862133Y-98877380D01*
X141052609Y-98163095D01*
X141243085Y-98877380D01*
X141481180Y-97877380D01*
X142385942Y-98877380D02*
X141814514Y-98877380D01*
X142100228Y-98877380D02*
X142100228Y-97877380D01*
X142004990Y-98020238D01*
X141909752Y-98115476D01*
X141814514Y-98163095D01*
X142719276Y-97877380D02*
X143385942Y-97877380D01*
X142957371Y-98877380D01*
X120593076Y-96467561D02*
X120735933Y-96515180D01*
X120974028Y-96515180D01*
X121069266Y-96467561D01*
X121116885Y-96419942D01*
X121164504Y-96324704D01*
X121164504Y-96229466D01*
X121116885Y-96134228D01*
X121069266Y-96086609D01*
X120974028Y-96038990D01*
X120783552Y-95991371D01*
X120688314Y-95943752D01*
X120640695Y-95896133D01*
X120593076Y-95800895D01*
X120593076Y-95705657D01*
X120640695Y-95610419D01*
X120688314Y-95562800D01*
X120783552Y-95515180D01*
X121021647Y-95515180D01*
X121164504Y-95562800D01*
X121497838Y-95515180D02*
X121735933Y-96515180D01*
X121926409Y-95800895D01*
X122116885Y-96515180D01*
X122354980Y-95515180D01*
X123259742Y-96515180D02*
X122688314Y-96515180D01*
X122974028Y-96515180D02*
X122974028Y-95515180D01*
X122878790Y-95658038D01*
X122783552Y-95753276D01*
X122688314Y-95800895D01*
X124116885Y-95515180D02*
X123926409Y-95515180D01*
X123831171Y-95562800D01*
X123783552Y-95610419D01*
X123688314Y-95753276D01*
X123640695Y-95943752D01*
X123640695Y-96324704D01*
X123688314Y-96419942D01*
X123735933Y-96467561D01*
X123831171Y-96515180D01*
X124021647Y-96515180D01*
X124116885Y-96467561D01*
X124164504Y-96419942D01*
X124212123Y-96324704D01*
X124212123Y-96086609D01*
X124164504Y-95991371D01*
X124116885Y-95943752D01*
X124021647Y-95896133D01*
X123831171Y-95896133D01*
X123735933Y-95943752D01*
X123688314Y-95991371D01*
X123640695Y-96086609D01*
X101339876Y-96569161D02*
X101482733Y-96616780D01*
X101720828Y-96616780D01*
X101816066Y-96569161D01*
X101863685Y-96521542D01*
X101911304Y-96426304D01*
X101911304Y-96331066D01*
X101863685Y-96235828D01*
X101816066Y-96188209D01*
X101720828Y-96140590D01*
X101530352Y-96092971D01*
X101435114Y-96045352D01*
X101387495Y-95997733D01*
X101339876Y-95902495D01*
X101339876Y-95807257D01*
X101387495Y-95712019D01*
X101435114Y-95664400D01*
X101530352Y-95616780D01*
X101768447Y-95616780D01*
X101911304Y-95664400D01*
X102244638Y-95616780D02*
X102482733Y-96616780D01*
X102673209Y-95902495D01*
X102863685Y-96616780D01*
X103101780Y-95616780D01*
X104006542Y-96616780D02*
X103435114Y-96616780D01*
X103720828Y-96616780D02*
X103720828Y-95616780D01*
X103625590Y-95759638D01*
X103530352Y-95854876D01*
X103435114Y-95902495D01*
X104911304Y-95616780D02*
X104435114Y-95616780D01*
X104387495Y-96092971D01*
X104435114Y-96045352D01*
X104530352Y-95997733D01*
X104768447Y-95997733D01*
X104863685Y-96045352D01*
X104911304Y-96092971D01*
X104958923Y-96188209D01*
X104958923Y-96426304D01*
X104911304Y-96521542D01*
X104863685Y-96569161D01*
X104768447Y-96616780D01*
X104530352Y-96616780D01*
X104435114Y-96569161D01*
X104387495Y-96521542D01*
X82518476Y-98931361D02*
X82661333Y-98978980D01*
X82899428Y-98978980D01*
X82994666Y-98931361D01*
X83042285Y-98883742D01*
X83089904Y-98788504D01*
X83089904Y-98693266D01*
X83042285Y-98598028D01*
X82994666Y-98550409D01*
X82899428Y-98502790D01*
X82708952Y-98455171D01*
X82613714Y-98407552D01*
X82566095Y-98359933D01*
X82518476Y-98264695D01*
X82518476Y-98169457D01*
X82566095Y-98074219D01*
X82613714Y-98026600D01*
X82708952Y-97978980D01*
X82947047Y-97978980D01*
X83089904Y-98026600D01*
X83423238Y-97978980D02*
X83661333Y-98978980D01*
X83851809Y-98264695D01*
X84042285Y-98978980D01*
X84280380Y-97978980D01*
X85185142Y-98978980D02*
X84613714Y-98978980D01*
X84899428Y-98978980D02*
X84899428Y-97978980D01*
X84804190Y-98121838D01*
X84708952Y-98217076D01*
X84613714Y-98264695D01*
X86042285Y-98312314D02*
X86042285Y-98978980D01*
X85804190Y-97931361D02*
X85566095Y-98645647D01*
X86185142Y-98645647D01*
X63620876Y-101623761D02*
X63763733Y-101671380D01*
X64001828Y-101671380D01*
X64097066Y-101623761D01*
X64144685Y-101576142D01*
X64192304Y-101480904D01*
X64192304Y-101385666D01*
X64144685Y-101290428D01*
X64097066Y-101242809D01*
X64001828Y-101195190D01*
X63811352Y-101147571D01*
X63716114Y-101099952D01*
X63668495Y-101052333D01*
X63620876Y-100957095D01*
X63620876Y-100861857D01*
X63668495Y-100766619D01*
X63716114Y-100719000D01*
X63811352Y-100671380D01*
X64049447Y-100671380D01*
X64192304Y-100719000D01*
X64525638Y-100671380D02*
X64763733Y-101671380D01*
X64954209Y-100957095D01*
X65144685Y-101671380D01*
X65382780Y-100671380D01*
X66287542Y-101671380D02*
X65716114Y-101671380D01*
X66001828Y-101671380D02*
X66001828Y-100671380D01*
X65906590Y-100814238D01*
X65811352Y-100909476D01*
X65716114Y-100957095D01*
X66620876Y-100671380D02*
X67239923Y-100671380D01*
X66906590Y-101052333D01*
X67049447Y-101052333D01*
X67144685Y-101099952D01*
X67192304Y-101147571D01*
X67239923Y-101242809D01*
X67239923Y-101480904D01*
X67192304Y-101576142D01*
X67144685Y-101623761D01*
X67049447Y-101671380D01*
X66763733Y-101671380D01*
X66668495Y-101623761D01*
X66620876Y-101576142D01*
X158235876Y-81735561D02*
X158378733Y-81783180D01*
X158616828Y-81783180D01*
X158712066Y-81735561D01*
X158759685Y-81687942D01*
X158807304Y-81592704D01*
X158807304Y-81497466D01*
X158759685Y-81402228D01*
X158712066Y-81354609D01*
X158616828Y-81306990D01*
X158426352Y-81259371D01*
X158331114Y-81211752D01*
X158283495Y-81164133D01*
X158235876Y-81068895D01*
X158235876Y-80973657D01*
X158283495Y-80878419D01*
X158331114Y-80830800D01*
X158426352Y-80783180D01*
X158664447Y-80783180D01*
X158807304Y-80830800D01*
X159140638Y-80783180D02*
X159378733Y-81783180D01*
X159569209Y-81068895D01*
X159759685Y-81783180D01*
X159997780Y-80783180D01*
X160902542Y-81783180D02*
X160331114Y-81783180D01*
X160616828Y-81783180D02*
X160616828Y-80783180D01*
X160521590Y-80926038D01*
X160426352Y-81021276D01*
X160331114Y-81068895D01*
X161283495Y-80878419D02*
X161331114Y-80830800D01*
X161426352Y-80783180D01*
X161664447Y-80783180D01*
X161759685Y-80830800D01*
X161807304Y-80878419D01*
X161854923Y-80973657D01*
X161854923Y-81068895D01*
X161807304Y-81211752D01*
X161235876Y-81783180D01*
X161854923Y-81783180D01*
X139287476Y-79322561D02*
X139430333Y-79370180D01*
X139668428Y-79370180D01*
X139763666Y-79322561D01*
X139811285Y-79274942D01*
X139858904Y-79179704D01*
X139858904Y-79084466D01*
X139811285Y-78989228D01*
X139763666Y-78941609D01*
X139668428Y-78893990D01*
X139477952Y-78846371D01*
X139382714Y-78798752D01*
X139335095Y-78751133D01*
X139287476Y-78655895D01*
X139287476Y-78560657D01*
X139335095Y-78465419D01*
X139382714Y-78417800D01*
X139477952Y-78370180D01*
X139716047Y-78370180D01*
X139858904Y-78417800D01*
X140192238Y-78370180D02*
X140430333Y-79370180D01*
X140620809Y-78655895D01*
X140811285Y-79370180D01*
X141049380Y-78370180D01*
X141954142Y-79370180D02*
X141382714Y-79370180D01*
X141668428Y-79370180D02*
X141668428Y-78370180D01*
X141573190Y-78513038D01*
X141477952Y-78608276D01*
X141382714Y-78655895D01*
X142906523Y-79370180D02*
X142335095Y-79370180D01*
X142620809Y-79370180D02*
X142620809Y-78370180D01*
X142525571Y-78513038D01*
X142430333Y-78608276D01*
X142335095Y-78655895D01*
X117779476Y-70763361D02*
X117922333Y-70810980D01*
X118160428Y-70810980D01*
X118255666Y-70763361D01*
X118303285Y-70715742D01*
X118350904Y-70620504D01*
X118350904Y-70525266D01*
X118303285Y-70430028D01*
X118255666Y-70382409D01*
X118160428Y-70334790D01*
X117969952Y-70287171D01*
X117874714Y-70239552D01*
X117827095Y-70191933D01*
X117779476Y-70096695D01*
X117779476Y-70001457D01*
X117827095Y-69906219D01*
X117874714Y-69858600D01*
X117969952Y-69810980D01*
X118208047Y-69810980D01*
X118350904Y-69858600D01*
X118684238Y-69810980D02*
X118922333Y-70810980D01*
X119112809Y-70096695D01*
X119303285Y-70810980D01*
X119541380Y-69810980D01*
X120446142Y-70810980D02*
X119874714Y-70810980D01*
X120160428Y-70810980D02*
X120160428Y-69810980D01*
X120065190Y-69953838D01*
X119969952Y-70049076D01*
X119874714Y-70096695D01*
X121065190Y-69810980D02*
X121160428Y-69810980D01*
X121255666Y-69858600D01*
X121303285Y-69906219D01*
X121350904Y-70001457D01*
X121398523Y-70191933D01*
X121398523Y-70430028D01*
X121350904Y-70620504D01*
X121303285Y-70715742D01*
X121255666Y-70763361D01*
X121160428Y-70810980D01*
X121065190Y-70810980D01*
X120969952Y-70763361D01*
X120922333Y-70715742D01*
X120874714Y-70620504D01*
X120827095Y-70430028D01*
X120827095Y-70191933D01*
X120874714Y-70001457D01*
X120922333Y-69906219D01*
X120969952Y-69858600D01*
X121065190Y-69810980D01*
X99215666Y-70763361D02*
X99358523Y-70810980D01*
X99596619Y-70810980D01*
X99691857Y-70763361D01*
X99739476Y-70715742D01*
X99787095Y-70620504D01*
X99787095Y-70525266D01*
X99739476Y-70430028D01*
X99691857Y-70382409D01*
X99596619Y-70334790D01*
X99406142Y-70287171D01*
X99310904Y-70239552D01*
X99263285Y-70191933D01*
X99215666Y-70096695D01*
X99215666Y-70001457D01*
X99263285Y-69906219D01*
X99310904Y-69858600D01*
X99406142Y-69810980D01*
X99644238Y-69810980D01*
X99787095Y-69858600D01*
X100120428Y-69810980D02*
X100358523Y-70810980D01*
X100549000Y-70096695D01*
X100739476Y-70810980D01*
X100977571Y-69810980D01*
X101406142Y-70810980D02*
X101596619Y-70810980D01*
X101691857Y-70763361D01*
X101739476Y-70715742D01*
X101834714Y-70572885D01*
X101882333Y-70382409D01*
X101882333Y-70001457D01*
X101834714Y-69906219D01*
X101787095Y-69858600D01*
X101691857Y-69810980D01*
X101501380Y-69810980D01*
X101406142Y-69858600D01*
X101358523Y-69906219D01*
X101310904Y-70001457D01*
X101310904Y-70239552D01*
X101358523Y-70334790D01*
X101406142Y-70382409D01*
X101501380Y-70430028D01*
X101691857Y-70430028D01*
X101787095Y-70382409D01*
X101834714Y-70334790D01*
X101882333Y-70239552D01*
X80175666Y-73143361D02*
X80318523Y-73190980D01*
X80556619Y-73190980D01*
X80651857Y-73143361D01*
X80699476Y-73095742D01*
X80747095Y-73000504D01*
X80747095Y-72905266D01*
X80699476Y-72810028D01*
X80651857Y-72762409D01*
X80556619Y-72714790D01*
X80366142Y-72667171D01*
X80270904Y-72619552D01*
X80223285Y-72571933D01*
X80175666Y-72476695D01*
X80175666Y-72381457D01*
X80223285Y-72286219D01*
X80270904Y-72238600D01*
X80366142Y-72190980D01*
X80604238Y-72190980D01*
X80747095Y-72238600D01*
X81080428Y-72190980D02*
X81318523Y-73190980D01*
X81509000Y-72476695D01*
X81699476Y-73190980D01*
X81937571Y-72190980D01*
X82461380Y-72619552D02*
X82366142Y-72571933D01*
X82318523Y-72524314D01*
X82270904Y-72429076D01*
X82270904Y-72381457D01*
X82318523Y-72286219D01*
X82366142Y-72238600D01*
X82461380Y-72190980D01*
X82651857Y-72190980D01*
X82747095Y-72238600D01*
X82794714Y-72286219D01*
X82842333Y-72381457D01*
X82842333Y-72429076D01*
X82794714Y-72524314D01*
X82747095Y-72571933D01*
X82651857Y-72619552D01*
X82461380Y-72619552D01*
X82366142Y-72667171D01*
X82318523Y-72714790D01*
X82270904Y-72810028D01*
X82270904Y-73000504D01*
X82318523Y-73095742D01*
X82366142Y-73143361D01*
X82461380Y-73190980D01*
X82651857Y-73190980D01*
X82747095Y-73143361D01*
X82794714Y-73095742D01*
X82842333Y-73000504D01*
X82842333Y-72810028D01*
X82794714Y-72714790D01*
X82747095Y-72667171D01*
X82651857Y-72619552D01*
X61135666Y-75523361D02*
X61278523Y-75570980D01*
X61516619Y-75570980D01*
X61611857Y-75523361D01*
X61659476Y-75475742D01*
X61707095Y-75380504D01*
X61707095Y-75285266D01*
X61659476Y-75190028D01*
X61611857Y-75142409D01*
X61516619Y-75094790D01*
X61326142Y-75047171D01*
X61230904Y-74999552D01*
X61183285Y-74951933D01*
X61135666Y-74856695D01*
X61135666Y-74761457D01*
X61183285Y-74666219D01*
X61230904Y-74618600D01*
X61326142Y-74570980D01*
X61564238Y-74570980D01*
X61707095Y-74618600D01*
X62040428Y-74570980D02*
X62278523Y-75570980D01*
X62469000Y-74856695D01*
X62659476Y-75570980D01*
X62897571Y-74570980D01*
X63183285Y-74570980D02*
X63849952Y-74570980D01*
X63421380Y-75570980D01*
X159143866Y-63371361D02*
X159286723Y-63418980D01*
X159524819Y-63418980D01*
X159620057Y-63371361D01*
X159667676Y-63323742D01*
X159715295Y-63228504D01*
X159715295Y-63133266D01*
X159667676Y-63038028D01*
X159620057Y-62990409D01*
X159524819Y-62942790D01*
X159334342Y-62895171D01*
X159239104Y-62847552D01*
X159191485Y-62799933D01*
X159143866Y-62704695D01*
X159143866Y-62609457D01*
X159191485Y-62514219D01*
X159239104Y-62466600D01*
X159334342Y-62418980D01*
X159572438Y-62418980D01*
X159715295Y-62466600D01*
X160048628Y-62418980D02*
X160286723Y-63418980D01*
X160477200Y-62704695D01*
X160667676Y-63418980D01*
X160905771Y-62418980D01*
X161715295Y-62418980D02*
X161524819Y-62418980D01*
X161429580Y-62466600D01*
X161381961Y-62514219D01*
X161286723Y-62657076D01*
X161239104Y-62847552D01*
X161239104Y-63228504D01*
X161286723Y-63323742D01*
X161334342Y-63371361D01*
X161429580Y-63418980D01*
X161620057Y-63418980D01*
X161715295Y-63371361D01*
X161762914Y-63323742D01*
X161810533Y-63228504D01*
X161810533Y-62990409D01*
X161762914Y-62895171D01*
X161715295Y-62847552D01*
X161620057Y-62799933D01*
X161429580Y-62799933D01*
X161334342Y-62847552D01*
X161286723Y-62895171D01*
X161239104Y-62990409D01*
X139789066Y-61212361D02*
X139931923Y-61259980D01*
X140170019Y-61259980D01*
X140265257Y-61212361D01*
X140312876Y-61164742D01*
X140360495Y-61069504D01*
X140360495Y-60974266D01*
X140312876Y-60879028D01*
X140265257Y-60831409D01*
X140170019Y-60783790D01*
X139979542Y-60736171D01*
X139884304Y-60688552D01*
X139836685Y-60640933D01*
X139789066Y-60545695D01*
X139789066Y-60450457D01*
X139836685Y-60355219D01*
X139884304Y-60307600D01*
X139979542Y-60259980D01*
X140217638Y-60259980D01*
X140360495Y-60307600D01*
X140693828Y-60259980D02*
X140931923Y-61259980D01*
X141122400Y-60545695D01*
X141312876Y-61259980D01*
X141550971Y-60259980D01*
X142408114Y-60259980D02*
X141931923Y-60259980D01*
X141884304Y-60736171D01*
X141931923Y-60688552D01*
X142027161Y-60640933D01*
X142265257Y-60640933D01*
X142360495Y-60688552D01*
X142408114Y-60736171D01*
X142455733Y-60831409D01*
X142455733Y-61069504D01*
X142408114Y-61164742D01*
X142360495Y-61212361D01*
X142265257Y-61259980D01*
X142027161Y-61259980D01*
X141931923Y-61212361D01*
X141884304Y-61164742D01*
X120866066Y-58697761D02*
X121008923Y-58745380D01*
X121247019Y-58745380D01*
X121342257Y-58697761D01*
X121389876Y-58650142D01*
X121437495Y-58554904D01*
X121437495Y-58459666D01*
X121389876Y-58364428D01*
X121342257Y-58316809D01*
X121247019Y-58269190D01*
X121056542Y-58221571D01*
X120961304Y-58173952D01*
X120913685Y-58126333D01*
X120866066Y-58031095D01*
X120866066Y-57935857D01*
X120913685Y-57840619D01*
X120961304Y-57793000D01*
X121056542Y-57745380D01*
X121294638Y-57745380D01*
X121437495Y-57793000D01*
X121770828Y-57745380D02*
X122008923Y-58745380D01*
X122199400Y-58031095D01*
X122389876Y-58745380D01*
X122627971Y-57745380D01*
X123437495Y-58078714D02*
X123437495Y-58745380D01*
X123199400Y-57697761D02*
X122961304Y-58412047D01*
X123580352Y-58412047D01*
X101689066Y-58697761D02*
X101831923Y-58745380D01*
X102070019Y-58745380D01*
X102165257Y-58697761D01*
X102212876Y-58650142D01*
X102260495Y-58554904D01*
X102260495Y-58459666D01*
X102212876Y-58364428D01*
X102165257Y-58316809D01*
X102070019Y-58269190D01*
X101879542Y-58221571D01*
X101784304Y-58173952D01*
X101736685Y-58126333D01*
X101689066Y-58031095D01*
X101689066Y-57935857D01*
X101736685Y-57840619D01*
X101784304Y-57793000D01*
X101879542Y-57745380D01*
X102117638Y-57745380D01*
X102260495Y-57793000D01*
X102593828Y-57745380D02*
X102831923Y-58745380D01*
X103022400Y-58031095D01*
X103212876Y-58745380D01*
X103450971Y-57745380D01*
X103736685Y-57745380D02*
X104355733Y-57745380D01*
X104022400Y-58126333D01*
X104165257Y-58126333D01*
X104260495Y-58173952D01*
X104308114Y-58221571D01*
X104355733Y-58316809D01*
X104355733Y-58554904D01*
X104308114Y-58650142D01*
X104260495Y-58697761D01*
X104165257Y-58745380D01*
X103879542Y-58745380D01*
X103784304Y-58697761D01*
X103736685Y-58650142D01*
X82740666Y-61034561D02*
X82883523Y-61082180D01*
X83121619Y-61082180D01*
X83216857Y-61034561D01*
X83264476Y-60986942D01*
X83312095Y-60891704D01*
X83312095Y-60796466D01*
X83264476Y-60701228D01*
X83216857Y-60653609D01*
X83121619Y-60605990D01*
X82931142Y-60558371D01*
X82835904Y-60510752D01*
X82788285Y-60463133D01*
X82740666Y-60367895D01*
X82740666Y-60272657D01*
X82788285Y-60177419D01*
X82835904Y-60129800D01*
X82931142Y-60082180D01*
X83169238Y-60082180D01*
X83312095Y-60129800D01*
X83645428Y-60082180D02*
X83883523Y-61082180D01*
X84074000Y-60367895D01*
X84264476Y-61082180D01*
X84502571Y-60082180D01*
X84835904Y-60177419D02*
X84883523Y-60129800D01*
X84978761Y-60082180D01*
X85216857Y-60082180D01*
X85312095Y-60129800D01*
X85359714Y-60177419D01*
X85407333Y-60272657D01*
X85407333Y-60367895D01*
X85359714Y-60510752D01*
X84788285Y-61082180D01*
X85407333Y-61082180D01*
X187477095Y-128561380D02*
X187477095Y-127561380D01*
X187477095Y-128037571D02*
X188048523Y-128037571D01*
X188048523Y-128561380D02*
X188048523Y-127561380D01*
X188572333Y-128561380D02*
X188762809Y-128561380D01*
X188858047Y-128513761D01*
X188905666Y-128466142D01*
X189000904Y-128323285D01*
X189048523Y-128132809D01*
X189048523Y-127751857D01*
X189000904Y-127656619D01*
X188953285Y-127609000D01*
X188858047Y-127561380D01*
X188667571Y-127561380D01*
X188572333Y-127609000D01*
X188524714Y-127656619D01*
X188477095Y-127751857D01*
X188477095Y-127989952D01*
X188524714Y-128085190D01*
X188572333Y-128132809D01*
X188667571Y-128180428D01*
X188858047Y-128180428D01*
X188953285Y-128132809D01*
X189000904Y-128085190D01*
X189048523Y-127989952D01*
M02*
