G04 #@! TF.GenerationSoftware,KiCad,Pcbnew,5.1.5+dfsg1-2build2*
G04 #@! TF.CreationDate,2021-02-19T16:21:08+00:00*
G04 #@! TF.ProjectId,plate,706c6174-652e-46b6-9963-61645f706362,rev?*
G04 #@! TF.SameCoordinates,Original*
G04 #@! TF.FileFunction,Profile,NP*
%FSLAX46Y46*%
G04 Gerber Fmt 4.6, Leading zero omitted, Abs format (unit mm)*
G04 Created by KiCad (PCBNEW 5.1.5+dfsg1-2build2) date 2021-02-19 16:21:08*
%MOMM*%
%LPD*%
G04 APERTURE LIST*
%ADD10C,0.200000*%
%ADD11C,0.120000*%
G04 APERTURE END LIST*
D10*
X173863000Y-127889000D02*
X173863000Y-111074200D01*
X188722000Y-127889000D02*
X173863000Y-127889000D01*
X188722000Y-111074200D02*
X188722000Y-127889000D01*
X173863000Y-111074200D02*
X188722000Y-111074200D01*
X201672506Y-127760993D02*
X201676000Y-115976400D01*
X191795400Y-106959400D02*
X201676000Y-115976400D01*
X170789600Y-106984800D02*
X191820800Y-106984800D01*
X170764200Y-50317400D02*
X170789600Y-106984800D01*
X157324591Y-155128964D02*
X159565748Y-155792258D01*
X157324591Y-155128963D02*
G75*
G03X101269800Y-147955000I-54239879J-201228008D01*
G01*
X51895970Y-117576772D02*
G75*
G03X68227825Y-143322947I26548599J-1212205D01*
G01*
X159565748Y-155792258D02*
G75*
G03X163258027Y-156392223I5054084J19442203D01*
G01*
X200077682Y-135809680D02*
G75*
G03X201672506Y-127760993I-19938998J8133205D01*
G01*
X68227825Y-143322947D02*
G75*
G03X101269800Y-147955000I27116862J73267868D01*
G01*
X51843849Y-55400295D02*
X51841450Y-57348630D01*
X170509523Y-48121159D02*
G75*
G03X63930991Y-46063662I-57454457J-214728554D01*
G01*
X51840900Y-74679805D02*
X51841400Y-64770000D01*
X163258027Y-156392222D02*
G75*
G03X200077681Y-135809680I2085705J39493130D01*
G01*
X51840900Y-74679805D02*
X51895970Y-117576772D01*
X56080891Y-48407782D02*
G75*
G03X51843849Y-55400295I3427946J-6857081D01*
G01*
X170764200Y-50317400D02*
X170509523Y-48121159D01*
X63930991Y-46063662D02*
X56080891Y-48407781D01*
X51841400Y-64770000D02*
X51841450Y-57348630D01*
D11*
X72009000Y-51872600D02*
X58009000Y-51872600D01*
X72009000Y-65872600D02*
X72009000Y-51872600D01*
X58009000Y-65872600D02*
X72009000Y-65872600D01*
X58009000Y-51872600D02*
X58009000Y-65872600D01*
X170919822Y-132550822D02*
X163919822Y-144675178D01*
X183044178Y-139550822D02*
X170919822Y-132550822D01*
X176044178Y-151675178D02*
X183044178Y-139550822D01*
X163919822Y-144675178D02*
X176044178Y-151675178D01*
X155124192Y-128992883D02*
X141336883Y-126561808D01*
X152693117Y-142780192D02*
X155124192Y-128992883D01*
X138905808Y-140349117D02*
X152693117Y-142780192D01*
X141336883Y-126561808D02*
X138905808Y-140349117D01*
X129129000Y-125973000D02*
X115129000Y-125973000D01*
X129129000Y-139973000D02*
X129129000Y-125973000D01*
X115129000Y-139973000D02*
X129129000Y-139973000D01*
X115129000Y-125973000D02*
X115129000Y-139973000D01*
X110089000Y-123593000D02*
X96089000Y-123593000D01*
X110089000Y-137593000D02*
X110089000Y-123593000D01*
X96089000Y-137593000D02*
X110089000Y-137593000D01*
X96089000Y-123593000D02*
X96089000Y-137593000D01*
X91049000Y-128033000D02*
X77049000Y-128033000D01*
X91049000Y-142033000D02*
X91049000Y-128033000D01*
X77049000Y-142033000D02*
X91049000Y-142033000D01*
X77049000Y-128033000D02*
X77049000Y-142033000D01*
X167209000Y-108993000D02*
X153209000Y-108993000D01*
X167209000Y-122993000D02*
X167209000Y-108993000D01*
X153209000Y-122993000D02*
X167209000Y-122993000D01*
X153209000Y-108993000D02*
X153209000Y-122993000D01*
X148169000Y-106613000D02*
X134169000Y-106613000D01*
X148169000Y-120613000D02*
X148169000Y-106613000D01*
X134169000Y-120613000D02*
X148169000Y-120613000D01*
X134169000Y-106613000D02*
X134169000Y-120613000D01*
X129129000Y-104233000D02*
X115129000Y-104233000D01*
X129129000Y-118233000D02*
X129129000Y-104233000D01*
X115129000Y-118233000D02*
X129129000Y-118233000D01*
X115129000Y-104233000D02*
X115129000Y-118233000D01*
X110089000Y-104233000D02*
X96089000Y-104233000D01*
X110089000Y-118233000D02*
X110089000Y-104233000D01*
X96089000Y-118233000D02*
X110089000Y-118233000D01*
X96089000Y-104233000D02*
X96089000Y-118233000D01*
X91049000Y-106613000D02*
X77049000Y-106613000D01*
X91049000Y-120613000D02*
X91049000Y-106613000D01*
X77049000Y-120613000D02*
X91049000Y-120613000D01*
X77049000Y-106613000D02*
X77049000Y-120613000D01*
X72009000Y-108993000D02*
X58009000Y-108993000D01*
X72009000Y-122993000D02*
X72009000Y-108993000D01*
X58009000Y-122993000D02*
X72009000Y-122993000D01*
X58009000Y-108993000D02*
X58009000Y-122993000D01*
X167209000Y-89952600D02*
X153209000Y-89952600D01*
X167209000Y-103952600D02*
X167209000Y-89952600D01*
X153209000Y-103952600D02*
X167209000Y-103952600D01*
X153209000Y-89952600D02*
X153209000Y-103952600D01*
X148169000Y-87572600D02*
X134169000Y-87572600D01*
X148169000Y-101572600D02*
X148169000Y-87572600D01*
X134169000Y-101572600D02*
X148169000Y-101572600D01*
X134169000Y-87572600D02*
X134169000Y-101572600D01*
X129129000Y-85192600D02*
X115129000Y-85192600D01*
X129129000Y-99192600D02*
X129129000Y-85192600D01*
X115129000Y-99192600D02*
X129129000Y-99192600D01*
X115129000Y-85192600D02*
X115129000Y-99192600D01*
X110089000Y-85192600D02*
X96089000Y-85192600D01*
X110089000Y-99192600D02*
X110089000Y-85192600D01*
X96089000Y-99192600D02*
X110089000Y-99192600D01*
X96089000Y-85192600D02*
X96089000Y-99192600D01*
X91049000Y-87572600D02*
X77049000Y-87572600D01*
X91049000Y-101572600D02*
X91049000Y-87572600D01*
X77049000Y-101572600D02*
X91049000Y-101572600D01*
X77049000Y-87572600D02*
X77049000Y-101572600D01*
X72009000Y-89952600D02*
X58009000Y-89952600D01*
X72009000Y-103952600D02*
X72009000Y-89952600D01*
X58009000Y-103952600D02*
X72009000Y-103952600D01*
X58009000Y-89952600D02*
X58009000Y-103952600D01*
X167209000Y-70912600D02*
X153209000Y-70912600D01*
X167209000Y-84912600D02*
X167209000Y-70912600D01*
X153209000Y-84912600D02*
X167209000Y-84912600D01*
X153209000Y-70912600D02*
X153209000Y-84912600D01*
X148169000Y-68852600D02*
X134169000Y-68852600D01*
X148169000Y-82852600D02*
X148169000Y-68852600D01*
X134169000Y-82852600D02*
X148169000Y-82852600D01*
X134169000Y-68852600D02*
X134169000Y-82852600D01*
X129129000Y-66152600D02*
X115129000Y-66152600D01*
X129129000Y-80152600D02*
X129129000Y-66152600D01*
X115129000Y-80152600D02*
X129129000Y-80152600D01*
X115129000Y-66152600D02*
X115129000Y-80152600D01*
X110089000Y-66152600D02*
X96089000Y-66152600D01*
X110089000Y-80152600D02*
X110089000Y-66152600D01*
X96089000Y-80152600D02*
X110089000Y-80152600D01*
X96089000Y-66152600D02*
X96089000Y-80152600D01*
X91049000Y-68532600D02*
X77049000Y-68532600D01*
X91049000Y-82532600D02*
X91049000Y-68532600D01*
X77049000Y-82532600D02*
X91049000Y-82532600D01*
X77049000Y-68532600D02*
X77049000Y-82532600D01*
X72009000Y-70912600D02*
X58009000Y-70912600D01*
X72009000Y-84912600D02*
X72009000Y-70912600D01*
X58009000Y-84912600D02*
X72009000Y-84912600D01*
X58009000Y-70912600D02*
X58009000Y-84912600D01*
X167209000Y-51872600D02*
X153209000Y-51872600D01*
X167209000Y-65872600D02*
X167209000Y-51872600D01*
X153209000Y-65872600D02*
X167209000Y-65872600D01*
X153209000Y-51872600D02*
X153209000Y-65872600D01*
X148169000Y-49652600D02*
X134169000Y-49652600D01*
X148169000Y-63652600D02*
X148169000Y-49652600D01*
X134169000Y-63652600D02*
X148169000Y-63652600D01*
X134169000Y-49652600D02*
X134169000Y-63652600D01*
X129129000Y-47112600D02*
X115129000Y-47112600D01*
X129129000Y-61112600D02*
X129129000Y-47112600D01*
X115129000Y-61112600D02*
X129129000Y-61112600D01*
X115129000Y-47112600D02*
X115129000Y-61112600D01*
X110089000Y-47112600D02*
X96089000Y-47112600D01*
X110089000Y-61112600D02*
X110089000Y-47112600D01*
X96089000Y-61112600D02*
X110089000Y-61112600D01*
X96089000Y-47112600D02*
X96089000Y-61112600D01*
X91049000Y-49492600D02*
X77049000Y-49492600D01*
X91049000Y-63492600D02*
X91049000Y-49492600D01*
X77049000Y-63492600D02*
X91049000Y-63492600D01*
X77049000Y-49492600D02*
X77049000Y-63492600D01*
M02*
