G04 #@! TF.GenerationSoftware,KiCad,Pcbnew,5.99.0-unknown-4920692bcd~125~ubuntu20.04.1*
G04 #@! TF.CreationDate,2021-04-21T16:01:25+01:00*
G04 #@! TF.ProjectId,bottom,626f7474-6f6d-42e6-9b69-6361645f7063,rev?*
G04 #@! TF.SameCoordinates,Original*
G04 #@! TF.FileFunction,Legend,Top*
G04 #@! TF.FilePolarity,Positive*
%FSLAX46Y46*%
G04 Gerber Fmt 4.6, Leading zero omitted, Abs format (unit mm)*
G04 Created by KiCad (PCBNEW 5.99.0-unknown-4920692bcd~125~ubuntu20.04.1) date 2021-04-21 16:01:25*
%MOMM*%
%LPD*%
G01*
G04 APERTURE LIST*
%ADD10C,0.010000*%
G04 APERTURE END LIST*
D10*
X188883990Y-49218594D02*
X189660850Y-50088530D01*
X189660850Y-50088530D02*
X190508801Y-51586372D01*
X190508801Y-51586372D02*
X191174974Y-53064899D01*
X191174974Y-53064899D02*
X191745906Y-54818781D01*
X191745906Y-54818781D02*
X192152411Y-56861326D01*
X192152411Y-56861326D02*
X192378536Y-58987598D01*
X192378536Y-58987598D02*
X192408328Y-60992663D01*
X192408328Y-60992663D02*
X192225834Y-62671587D01*
X192225834Y-62671587D02*
X191986451Y-63489417D01*
X191986451Y-63489417D02*
X191492721Y-64460255D01*
X191492721Y-64460255D02*
X191121659Y-64738551D01*
X191121659Y-64738551D02*
X190877125Y-64327243D01*
X190877125Y-64327243D02*
X190762981Y-63229269D01*
X190762981Y-63229269D02*
X190754917Y-62552269D01*
X190754917Y-62552269D02*
X190522337Y-60302695D01*
X190522337Y-60302695D02*
X189786905Y-58526174D01*
X189786905Y-58526174D02*
X188796181Y-57395210D01*
X188796181Y-57395210D02*
X188428036Y-56918998D01*
X188428036Y-56918998D02*
X188202984Y-56145572D01*
X188202984Y-56145572D02*
X188081753Y-54906755D01*
X188081753Y-54906755D02*
X188052450Y-54210332D01*
X188052450Y-54210332D02*
X187971575Y-52699734D01*
X187971575Y-52699734D02*
X187842216Y-51276540D01*
X187842216Y-51276540D02*
X187694339Y-50260250D01*
X187694339Y-50260250D02*
X187558369Y-49398705D01*
X187558369Y-49398705D02*
X187676898Y-49022663D01*
X187676898Y-49022663D02*
X188116898Y-48937452D01*
X188116898Y-48937452D02*
X188149464Y-48937333D01*
X188149464Y-48937333D02*
X188883990Y-49218594D01*
X188883990Y-49218594D02*
X188883990Y-49218594D01*
G36*
X188883990Y-49218594D02*
G01*
X189660850Y-50088530D01*
X190508801Y-51586372D01*
X191174974Y-53064899D01*
X191745906Y-54818781D01*
X192152411Y-56861326D01*
X192378536Y-58987598D01*
X192408328Y-60992663D01*
X192225834Y-62671587D01*
X191986451Y-63489417D01*
X191492721Y-64460255D01*
X191121659Y-64738551D01*
X190877125Y-64327243D01*
X190762981Y-63229269D01*
X190754917Y-62552269D01*
X190522337Y-60302695D01*
X189786905Y-58526174D01*
X188796181Y-57395210D01*
X188428036Y-56918998D01*
X188202984Y-56145572D01*
X188081753Y-54906755D01*
X188052450Y-54210332D01*
X187971575Y-52699734D01*
X187842216Y-51276540D01*
X187694339Y-50260250D01*
X187558369Y-49398705D01*
X187676898Y-49022663D01*
X188116898Y-48937452D01*
X188149464Y-48937333D01*
X188883990Y-49218594D01*
G37*
X188883990Y-49218594D02*
X189660850Y-50088530D01*
X190508801Y-51586372D01*
X191174974Y-53064899D01*
X191745906Y-54818781D01*
X192152411Y-56861326D01*
X192378536Y-58987598D01*
X192408328Y-60992663D01*
X192225834Y-62671587D01*
X191986451Y-63489417D01*
X191492721Y-64460255D01*
X191121659Y-64738551D01*
X190877125Y-64327243D01*
X190762981Y-63229269D01*
X190754917Y-62552269D01*
X190522337Y-60302695D01*
X189786905Y-58526174D01*
X188796181Y-57395210D01*
X188428036Y-56918998D01*
X188202984Y-56145572D01*
X188081753Y-54906755D01*
X188052450Y-54210332D01*
X187971575Y-52699734D01*
X187842216Y-51276540D01*
X187694339Y-50260250D01*
X187558369Y-49398705D01*
X187676898Y-49022663D01*
X188116898Y-48937452D01*
X188149464Y-48937333D01*
X188883990Y-49218594D01*
X184350561Y-77641227D02*
X184650536Y-78656898D01*
X184650536Y-78656898D02*
X184598486Y-80247918D01*
X184598486Y-80247918D02*
X184339985Y-81745667D01*
X184339985Y-81745667D02*
X183023933Y-86324215D01*
X183023933Y-86324215D02*
X181123501Y-90548879D01*
X181123501Y-90548879D02*
X178661913Y-94376653D01*
X178661913Y-94376653D02*
X175719797Y-97708861D01*
X175719797Y-97708861D02*
X174554238Y-98810187D01*
X174554238Y-98810187D02*
X173550335Y-99699349D01*
X173550335Y-99699349D02*
X172826410Y-100275229D01*
X172826410Y-100275229D02*
X172520653Y-100442889D01*
X172520653Y-100442889D02*
X171951618Y-100216656D01*
X171951618Y-100216656D02*
X171709645Y-100019556D01*
X171709645Y-100019556D02*
X171341871Y-99283132D01*
X171341871Y-99283132D02*
X171516980Y-98297033D01*
X171516980Y-98297033D02*
X172251348Y-96994748D01*
X172251348Y-96994748D02*
X172560947Y-96562333D01*
X172560947Y-96562333D02*
X172904255Y-95936483D01*
X172904255Y-95936483D02*
X173347035Y-94923095D01*
X173347035Y-94923095D02*
X173599022Y-94269278D01*
X173599022Y-94269278D02*
X174137421Y-92961480D01*
X174137421Y-92961480D02*
X174749001Y-91703461D01*
X174749001Y-91703461D02*
X174993287Y-91270667D01*
X174993287Y-91270667D02*
X175514979Y-90234008D01*
X175514979Y-90234008D02*
X176065111Y-88872460D01*
X176065111Y-88872460D02*
X176386947Y-87919278D01*
X176386947Y-87919278D02*
X176927005Y-86399931D01*
X176927005Y-86399931D02*
X177603903Y-84826511D01*
X177603903Y-84826511D02*
X178001112Y-84038722D01*
X178001112Y-84038722D02*
X178520020Y-83044275D01*
X178520020Y-83044275D02*
X178851307Y-82311652D01*
X178851307Y-82311652D02*
X178920767Y-82054667D01*
X178920767Y-82054667D02*
X179075089Y-81582135D01*
X179075089Y-81582135D02*
X179557019Y-80756823D01*
X179557019Y-80756823D02*
X180235786Y-79762325D01*
X180235786Y-79762325D02*
X180980619Y-78782237D01*
X180980619Y-78782237D02*
X181660747Y-78000154D01*
X181660747Y-78000154D02*
X182060298Y-77646935D01*
X182060298Y-77646935D02*
X182974880Y-77275852D01*
X182974880Y-77275852D02*
X183701332Y-77220541D01*
X183701332Y-77220541D02*
X184350561Y-77641227D01*
X184350561Y-77641227D02*
X184350561Y-77641227D01*
G36*
X184350561Y-77641227D02*
G01*
X184650536Y-78656898D01*
X184598486Y-80247918D01*
X184339985Y-81745667D01*
X183023933Y-86324215D01*
X181123501Y-90548879D01*
X178661913Y-94376653D01*
X175719797Y-97708861D01*
X174554238Y-98810187D01*
X173550335Y-99699349D01*
X172826410Y-100275229D01*
X172520653Y-100442889D01*
X171951618Y-100216656D01*
X171709645Y-100019556D01*
X171341871Y-99283132D01*
X171516980Y-98297033D01*
X172251348Y-96994748D01*
X172560947Y-96562333D01*
X172904255Y-95936483D01*
X173347035Y-94923095D01*
X173599022Y-94269278D01*
X174137421Y-92961480D01*
X174749001Y-91703461D01*
X174993287Y-91270667D01*
X175514979Y-90234008D01*
X176065111Y-88872460D01*
X176386947Y-87919278D01*
X176927005Y-86399931D01*
X177603903Y-84826511D01*
X178001112Y-84038722D01*
X178520020Y-83044275D01*
X178851307Y-82311652D01*
X178920767Y-82054667D01*
X179075089Y-81582135D01*
X179557019Y-80756823D01*
X180235786Y-79762325D01*
X180980619Y-78782237D01*
X181660747Y-78000154D01*
X182060298Y-77646935D01*
X182974880Y-77275852D01*
X183701332Y-77220541D01*
X184350561Y-77641227D01*
G37*
X184350561Y-77641227D02*
X184650536Y-78656898D01*
X184598486Y-80247918D01*
X184339985Y-81745667D01*
X183023933Y-86324215D01*
X181123501Y-90548879D01*
X178661913Y-94376653D01*
X175719797Y-97708861D01*
X174554238Y-98810187D01*
X173550335Y-99699349D01*
X172826410Y-100275229D01*
X172520653Y-100442889D01*
X171951618Y-100216656D01*
X171709645Y-100019556D01*
X171341871Y-99283132D01*
X171516980Y-98297033D01*
X172251348Y-96994748D01*
X172560947Y-96562333D01*
X172904255Y-95936483D01*
X173347035Y-94923095D01*
X173599022Y-94269278D01*
X174137421Y-92961480D01*
X174749001Y-91703461D01*
X174993287Y-91270667D01*
X175514979Y-90234008D01*
X176065111Y-88872460D01*
X176386947Y-87919278D01*
X176927005Y-86399931D01*
X177603903Y-84826511D01*
X178001112Y-84038722D01*
X178520020Y-83044275D01*
X178851307Y-82311652D01*
X178920767Y-82054667D01*
X179075089Y-81582135D01*
X179557019Y-80756823D01*
X180235786Y-79762325D01*
X180980619Y-78782237D01*
X181660747Y-78000154D01*
X182060298Y-77646935D01*
X182974880Y-77275852D01*
X183701332Y-77220541D01*
X184350561Y-77641227D01*
X150782832Y-96795048D02*
X150952302Y-96957883D01*
X150952302Y-96957883D02*
X151754490Y-97924973D01*
X151754490Y-97924973D02*
X152426528Y-98995325D01*
X152426528Y-98995325D02*
X152786904Y-99877601D01*
X152786904Y-99877601D02*
X152793871Y-99913722D01*
X152793871Y-99913722D02*
X152975289Y-100629426D01*
X152975289Y-100629426D02*
X153323324Y-101789229D01*
X153323324Y-101789229D02*
X153766416Y-103173089D01*
X153766416Y-103173089D02*
X154233007Y-104560966D01*
X154233007Y-104560966D02*
X154651537Y-105732818D01*
X154651537Y-105732818D02*
X154857351Y-106258795D01*
X154857351Y-106258795D02*
X155417371Y-107204802D01*
X155417371Y-107204802D02*
X156320018Y-108336316D01*
X156320018Y-108336316D02*
X157269193Y-109311110D01*
X157269193Y-109311110D02*
X158222622Y-110227585D01*
X158222622Y-110227585D02*
X158696912Y-110811771D01*
X158696912Y-110811771D02*
X158762615Y-111173702D01*
X158762615Y-111173702D02*
X158586311Y-111365413D01*
X158586311Y-111365413D02*
X157860305Y-111669871D01*
X157860305Y-111669871D02*
X157000962Y-111591770D01*
X157000962Y-111591770D02*
X155807458Y-111107913D01*
X155807458Y-111107913D02*
X155639344Y-111025027D01*
X155639344Y-111025027D02*
X154560499Y-110449962D01*
X154560499Y-110449962D02*
X153791630Y-109896165D01*
X153791630Y-109896165D02*
X153126584Y-109170059D01*
X153126584Y-109170059D02*
X152359208Y-108078068D01*
X152359208Y-108078068D02*
X152130499Y-107730238D01*
X152130499Y-107730238D02*
X150769706Y-105315356D01*
X150769706Y-105315356D02*
X149763447Y-102835925D01*
X149763447Y-102835925D02*
X149180619Y-100486327D01*
X149180619Y-100486327D02*
X149061311Y-99071262D01*
X149061311Y-99071262D02*
X149171626Y-97510179D01*
X149171626Y-97510179D02*
X149498944Y-96606396D01*
X149498944Y-96606396D02*
X150037826Y-96365993D01*
X150037826Y-96365993D02*
X150782832Y-96795048D01*
X150782832Y-96795048D02*
X150782832Y-96795048D01*
G36*
X150782832Y-96795048D02*
G01*
X150952302Y-96957883D01*
X151754490Y-97924973D01*
X152426528Y-98995325D01*
X152786904Y-99877601D01*
X152793871Y-99913722D01*
X152975289Y-100629426D01*
X153323324Y-101789229D01*
X153766416Y-103173089D01*
X154233007Y-104560966D01*
X154651537Y-105732818D01*
X154857351Y-106258795D01*
X155417371Y-107204802D01*
X156320018Y-108336316D01*
X157269193Y-109311110D01*
X158222622Y-110227585D01*
X158696912Y-110811771D01*
X158762615Y-111173702D01*
X158586311Y-111365413D01*
X157860305Y-111669871D01*
X157000962Y-111591770D01*
X155807458Y-111107913D01*
X155639344Y-111025027D01*
X154560499Y-110449962D01*
X153791630Y-109896165D01*
X153126584Y-109170059D01*
X152359208Y-108078068D01*
X152130499Y-107730238D01*
X150769706Y-105315356D01*
X149763447Y-102835925D01*
X149180619Y-100486327D01*
X149061311Y-99071262D01*
X149171626Y-97510179D01*
X149498944Y-96606396D01*
X150037826Y-96365993D01*
X150782832Y-96795048D01*
G37*
X150782832Y-96795048D02*
X150952302Y-96957883D01*
X151754490Y-97924973D01*
X152426528Y-98995325D01*
X152786904Y-99877601D01*
X152793871Y-99913722D01*
X152975289Y-100629426D01*
X153323324Y-101789229D01*
X153766416Y-103173089D01*
X154233007Y-104560966D01*
X154651537Y-105732818D01*
X154857351Y-106258795D01*
X155417371Y-107204802D01*
X156320018Y-108336316D01*
X157269193Y-109311110D01*
X158222622Y-110227585D01*
X158696912Y-110811771D01*
X158762615Y-111173702D01*
X158586311Y-111365413D01*
X157860305Y-111669871D01*
X157000962Y-111591770D01*
X155807458Y-111107913D01*
X155639344Y-111025027D01*
X154560499Y-110449962D01*
X153791630Y-109896165D01*
X153126584Y-109170059D01*
X152359208Y-108078068D01*
X152130499Y-107730238D01*
X150769706Y-105315356D01*
X149763447Y-102835925D01*
X149180619Y-100486327D01*
X149061311Y-99071262D01*
X149171626Y-97510179D01*
X149498944Y-96606396D01*
X150037826Y-96365993D01*
X150782832Y-96795048D01*
X180161834Y-44279790D02*
X180682476Y-44911377D01*
X180682476Y-44911377D02*
X181265357Y-45767231D01*
X181265357Y-45767231D02*
X181422152Y-46343184D01*
X181422152Y-46343184D02*
X181229596Y-46846868D01*
X181229596Y-46846868D02*
X180887423Y-47613668D01*
X180887423Y-47613668D02*
X180811311Y-48029782D01*
X180811311Y-48029782D02*
X180630981Y-48633543D01*
X180630981Y-48633543D02*
X180158103Y-48645458D01*
X180158103Y-48645458D02*
X179543470Y-48117033D01*
X179543470Y-48117033D02*
X178729239Y-47330357D01*
X178729239Y-47330357D02*
X177900895Y-46711008D01*
X177900895Y-46711008D02*
X177119055Y-46025995D01*
X177119055Y-46025995D02*
X177024636Y-45340982D01*
X177024636Y-45340982D02*
X177616307Y-44579484D01*
X177616307Y-44579484D02*
X177860275Y-44376827D01*
X177860275Y-44376827D02*
X178758460Y-43797329D01*
X178758460Y-43797329D02*
X179460729Y-43752687D01*
X179460729Y-43752687D02*
X180161834Y-44279790D01*
X180161834Y-44279790D02*
X180161834Y-44279790D01*
G36*
X180161834Y-44279790D02*
G01*
X180682476Y-44911377D01*
X181265357Y-45767231D01*
X181422152Y-46343184D01*
X181229596Y-46846868D01*
X180887423Y-47613668D01*
X180811311Y-48029782D01*
X180630981Y-48633543D01*
X180158103Y-48645458D01*
X179543470Y-48117033D01*
X178729239Y-47330357D01*
X177900895Y-46711008D01*
X177119055Y-46025995D01*
X177024636Y-45340982D01*
X177616307Y-44579484D01*
X177860275Y-44376827D01*
X178758460Y-43797329D01*
X179460729Y-43752687D01*
X180161834Y-44279790D01*
G37*
X180161834Y-44279790D02*
X180682476Y-44911377D01*
X181265357Y-45767231D01*
X181422152Y-46343184D01*
X181229596Y-46846868D01*
X180887423Y-47613668D01*
X180811311Y-48029782D01*
X180630981Y-48633543D01*
X180158103Y-48645458D01*
X179543470Y-48117033D01*
X178729239Y-47330357D01*
X177900895Y-46711008D01*
X177119055Y-46025995D01*
X177024636Y-45340982D01*
X177616307Y-44579484D01*
X177860275Y-44376827D01*
X178758460Y-43797329D01*
X179460729Y-43752687D01*
X180161834Y-44279790D01*
X164768436Y-55784020D02*
X165610089Y-56258879D01*
X165610089Y-56258879D02*
X166389220Y-57129384D01*
X166389220Y-57129384D02*
X167145316Y-58460230D01*
X167145316Y-58460230D02*
X167917863Y-60316115D01*
X167917863Y-60316115D02*
X168746348Y-62761734D01*
X168746348Y-62761734D02*
X169315244Y-64635944D01*
X169315244Y-64635944D02*
X170006320Y-68065673D01*
X170006320Y-68065673D02*
X170068993Y-71439204D01*
X170068993Y-71439204D02*
X169504448Y-74639587D01*
X169504448Y-74639587D02*
X169204499Y-75572056D01*
X169204499Y-75572056D02*
X168885999Y-76473896D01*
X168885999Y-76473896D02*
X168445867Y-77738597D01*
X168445867Y-77738597D02*
X168067769Y-78835250D01*
X168067769Y-78835250D02*
X167611543Y-80097349D01*
X167611543Y-80097349D02*
X167275457Y-80773399D01*
X167275457Y-80773399D02*
X166976790Y-80953117D01*
X166976790Y-80953117D02*
X166632823Y-80726217D01*
X166632823Y-80726217D02*
X166478781Y-80558623D01*
X166478781Y-80558623D02*
X166041243Y-79846325D01*
X166041243Y-79846325D02*
X165846156Y-79364130D01*
X165846156Y-79364130D02*
X165320201Y-78442653D01*
X165320201Y-78442653D02*
X164353263Y-77344762D01*
X164353263Y-77344762D02*
X163121101Y-76236734D01*
X163121101Y-76236734D02*
X161799477Y-75284845D01*
X161799477Y-75284845D02*
X161133910Y-74906104D01*
X161133910Y-74906104D02*
X160138538Y-74389873D01*
X160138538Y-74389873D02*
X159429842Y-73926505D01*
X159429842Y-73926505D02*
X158969042Y-73393253D01*
X158969042Y-73393253D02*
X158717357Y-72667368D01*
X158717357Y-72667368D02*
X158636007Y-71626103D01*
X158636007Y-71626103D02*
X158686211Y-70146709D01*
X158686211Y-70146709D02*
X158829189Y-68106438D01*
X158829189Y-68106438D02*
X158859116Y-67705920D01*
X158859116Y-67705920D02*
X159050285Y-65254262D01*
X159050285Y-65254262D02*
X159223677Y-63380703D01*
X159223677Y-63380703D02*
X159402244Y-61958963D01*
X159402244Y-61958963D02*
X159608936Y-60862762D01*
X159608936Y-60862762D02*
X159866705Y-59965820D01*
X159866705Y-59965820D02*
X160198503Y-59141857D01*
X160198503Y-59141857D02*
X160546176Y-58423680D01*
X160546176Y-58423680D02*
X161338077Y-57018304D01*
X161338077Y-57018304D02*
X162062971Y-56166303D01*
X162062971Y-56166303D02*
X162862817Y-55747153D01*
X162862817Y-55747153D02*
X163824775Y-55640111D01*
X163824775Y-55640111D02*
X164768436Y-55784020D01*
X164768436Y-55784020D02*
X164768436Y-55784020D01*
G36*
X164768436Y-55784020D02*
G01*
X165610089Y-56258879D01*
X166389220Y-57129384D01*
X167145316Y-58460230D01*
X167917863Y-60316115D01*
X168746348Y-62761734D01*
X169315244Y-64635944D01*
X170006320Y-68065673D01*
X170068993Y-71439204D01*
X169504448Y-74639587D01*
X169204499Y-75572056D01*
X168885999Y-76473896D01*
X168445867Y-77738597D01*
X168067769Y-78835250D01*
X167611543Y-80097349D01*
X167275457Y-80773399D01*
X166976790Y-80953117D01*
X166632823Y-80726217D01*
X166478781Y-80558623D01*
X166041243Y-79846325D01*
X165846156Y-79364130D01*
X165320201Y-78442653D01*
X164353263Y-77344762D01*
X163121101Y-76236734D01*
X161799477Y-75284845D01*
X161133910Y-74906104D01*
X160138538Y-74389873D01*
X159429842Y-73926505D01*
X158969042Y-73393253D01*
X158717357Y-72667368D01*
X158636007Y-71626103D01*
X158686211Y-70146709D01*
X158829189Y-68106438D01*
X158859116Y-67705920D01*
X159050285Y-65254262D01*
X159223677Y-63380703D01*
X159402244Y-61958963D01*
X159608936Y-60862762D01*
X159866705Y-59965820D01*
X160198503Y-59141857D01*
X160546176Y-58423680D01*
X161338077Y-57018304D01*
X162062971Y-56166303D01*
X162862817Y-55747153D01*
X163824775Y-55640111D01*
X164768436Y-55784020D01*
G37*
X164768436Y-55784020D02*
X165610089Y-56258879D01*
X166389220Y-57129384D01*
X167145316Y-58460230D01*
X167917863Y-60316115D01*
X168746348Y-62761734D01*
X169315244Y-64635944D01*
X170006320Y-68065673D01*
X170068993Y-71439204D01*
X169504448Y-74639587D01*
X169204499Y-75572056D01*
X168885999Y-76473896D01*
X168445867Y-77738597D01*
X168067769Y-78835250D01*
X167611543Y-80097349D01*
X167275457Y-80773399D01*
X166976790Y-80953117D01*
X166632823Y-80726217D01*
X166478781Y-80558623D01*
X166041243Y-79846325D01*
X165846156Y-79364130D01*
X165320201Y-78442653D01*
X164353263Y-77344762D01*
X163121101Y-76236734D01*
X161799477Y-75284845D01*
X161133910Y-74906104D01*
X160138538Y-74389873D01*
X159429842Y-73926505D01*
X158969042Y-73393253D01*
X158717357Y-72667368D01*
X158636007Y-71626103D01*
X158686211Y-70146709D01*
X158829189Y-68106438D01*
X158859116Y-67705920D01*
X159050285Y-65254262D01*
X159223677Y-63380703D01*
X159402244Y-61958963D01*
X159608936Y-60862762D01*
X159866705Y-59965820D01*
X160198503Y-59141857D01*
X160546176Y-58423680D01*
X161338077Y-57018304D01*
X162062971Y-56166303D01*
X162862817Y-55747153D01*
X163824775Y-55640111D01*
X164768436Y-55784020D01*
X156370468Y-46202078D02*
X156647330Y-46469322D01*
X156647330Y-46469322D02*
X157074787Y-47137159D01*
X157074787Y-47137159D02*
X156977102Y-47843764D01*
X156977102Y-47843764D02*
X156885959Y-48056822D01*
X156885959Y-48056822D02*
X156473588Y-48704946D01*
X156473588Y-48704946D02*
X156124430Y-48937333D01*
X156124430Y-48937333D02*
X155801277Y-49221433D01*
X155801277Y-49221433D02*
X155764089Y-49445680D01*
X155764089Y-49445680D02*
X155601354Y-50031811D01*
X155601354Y-50031811D02*
X155170770Y-50007307D01*
X155170770Y-50007307D02*
X154617561Y-49451986D01*
X154617561Y-49451986D02*
X154100757Y-48406790D01*
X154100757Y-48406790D02*
X154021873Y-47394995D01*
X154021873Y-47394995D02*
X154295157Y-46542614D01*
X154295157Y-46542614D02*
X154834853Y-45975660D01*
X154834853Y-45975660D02*
X155555208Y-45820144D01*
X155555208Y-45820144D02*
X156370468Y-46202078D01*
X156370468Y-46202078D02*
X156370468Y-46202078D01*
G36*
X156370468Y-46202078D02*
G01*
X156647330Y-46469322D01*
X157074787Y-47137159D01*
X156977102Y-47843764D01*
X156885959Y-48056822D01*
X156473588Y-48704946D01*
X156124430Y-48937333D01*
X155801277Y-49221433D01*
X155764089Y-49445680D01*
X155601354Y-50031811D01*
X155170770Y-50007307D01*
X154617561Y-49451986D01*
X154100757Y-48406790D01*
X154021873Y-47394995D01*
X154295157Y-46542614D01*
X154834853Y-45975660D01*
X155555208Y-45820144D01*
X156370468Y-46202078D01*
G37*
X156370468Y-46202078D02*
X156647330Y-46469322D01*
X157074787Y-47137159D01*
X156977102Y-47843764D01*
X156885959Y-48056822D01*
X156473588Y-48704946D01*
X156124430Y-48937333D01*
X155801277Y-49221433D01*
X155764089Y-49445680D01*
X155601354Y-50031811D01*
X155170770Y-50007307D01*
X154617561Y-49451986D01*
X154100757Y-48406790D01*
X154021873Y-47394995D01*
X154295157Y-46542614D01*
X154834853Y-45975660D01*
X155555208Y-45820144D01*
X156370468Y-46202078D01*
X171010659Y-44360714D02*
X171892895Y-45443041D01*
X171892895Y-45443041D02*
X172276431Y-46219905D01*
X172276431Y-46219905D02*
X172591929Y-47037300D01*
X172591929Y-47037300D02*
X172635183Y-47567681D01*
X172635183Y-47567681D02*
X172308108Y-47874025D01*
X172308108Y-47874025D02*
X171512620Y-48019315D01*
X171512620Y-48019315D02*
X170150633Y-48066529D01*
X170150633Y-48066529D02*
X169391634Y-48072235D01*
X169391634Y-48072235D02*
X166086846Y-48089081D01*
X166086846Y-48089081D02*
X166780699Y-46837513D01*
X166780699Y-46837513D02*
X167879500Y-45204572D01*
X167879500Y-45204572D02*
X168972040Y-44245067D01*
X168972040Y-44245067D02*
X170026400Y-43962586D01*
X170026400Y-43962586D02*
X171010659Y-44360714D01*
X171010659Y-44360714D02*
X171010659Y-44360714D01*
G36*
X171010659Y-44360714D02*
G01*
X171892895Y-45443041D01*
X172276431Y-46219905D01*
X172591929Y-47037300D01*
X172635183Y-47567681D01*
X172308108Y-47874025D01*
X171512620Y-48019315D01*
X170150633Y-48066529D01*
X169391634Y-48072235D01*
X166086846Y-48089081D01*
X166780699Y-46837513D01*
X167879500Y-45204572D01*
X168972040Y-44245067D01*
X170026400Y-43962586D01*
X171010659Y-44360714D01*
G37*
X171010659Y-44360714D02*
X171892895Y-45443041D01*
X172276431Y-46219905D01*
X172591929Y-47037300D01*
X172635183Y-47567681D01*
X172308108Y-47874025D01*
X171512620Y-48019315D01*
X170150633Y-48066529D01*
X169391634Y-48072235D01*
X166086846Y-48089081D01*
X166780699Y-46837513D01*
X167879500Y-45204572D01*
X168972040Y-44245067D01*
X170026400Y-43962586D01*
X171010659Y-44360714D01*
X150226537Y-79898583D02*
X151010902Y-80622854D01*
X151010902Y-80622854D02*
X151961220Y-81675094D01*
X151961220Y-81675094D02*
X152960605Y-82928585D01*
X152960605Y-82928585D02*
X153629791Y-83862333D01*
X153629791Y-83862333D02*
X154999123Y-86203529D01*
X154999123Y-86203529D02*
X155959202Y-88676700D01*
X155959202Y-88676700D02*
X156574036Y-91479223D01*
X156574036Y-91479223D02*
X156833066Y-93740111D01*
X156833066Y-93740111D02*
X157059545Y-95963903D01*
X157059545Y-95963903D02*
X157359279Y-97687723D01*
X157359279Y-97687723D02*
X157787372Y-99116921D01*
X157787372Y-99116921D02*
X158398928Y-100456848D01*
X158398928Y-100456848D02*
X158850895Y-101259656D01*
X158850895Y-101259656D02*
X159391103Y-102201224D01*
X159391103Y-102201224D02*
X159581565Y-102758746D01*
X159581565Y-102758746D02*
X159425509Y-103159088D01*
X159425509Y-103159088D02*
X158926163Y-103629119D01*
X158926163Y-103629119D02*
X158885111Y-103664704D01*
X158885111Y-103664704D02*
X158237022Y-104167841D01*
X158237022Y-104167841D02*
X157761644Y-104236840D01*
X157761644Y-104236840D02*
X157212433Y-103835853D01*
X157212433Y-103835853D02*
X156743536Y-103353305D01*
X156743536Y-103353305D02*
X156100219Y-102555047D01*
X156100219Y-102555047D02*
X155289799Y-101389542D01*
X155289799Y-101389542D02*
X154486251Y-100107176D01*
X154486251Y-100107176D02*
X154476188Y-100090111D01*
X154476188Y-100090111D02*
X153756383Y-98869663D01*
X153756383Y-98869663D02*
X153129385Y-97808978D01*
X153129385Y-97808978D02*
X152722623Y-97123606D01*
X152722623Y-97123606D02*
X152703446Y-97091500D01*
X152703446Y-97091500D02*
X151175001Y-94110710D01*
X151175001Y-94110710D02*
X150133092Y-91147552D01*
X150133092Y-91147552D02*
X149936661Y-90327793D01*
X149936661Y-90327793D02*
X149753688Y-89166910D01*
X149753688Y-89166910D02*
X149607949Y-87672893D01*
X149607949Y-87672893D02*
X149502252Y-85987660D01*
X149502252Y-85987660D02*
X149439404Y-84253131D01*
X149439404Y-84253131D02*
X149422213Y-82611226D01*
X149422213Y-82611226D02*
X149453486Y-81203866D01*
X149453486Y-81203866D02*
X149536031Y-80172968D01*
X149536031Y-80172968D02*
X149672656Y-79660454D01*
X149672656Y-79660454D02*
X149725007Y-79629000D01*
X149725007Y-79629000D02*
X150226537Y-79898583D01*
X150226537Y-79898583D02*
X150226537Y-79898583D01*
G36*
X150226537Y-79898583D02*
G01*
X151010902Y-80622854D01*
X151961220Y-81675094D01*
X152960605Y-82928585D01*
X153629791Y-83862333D01*
X154999123Y-86203529D01*
X155959202Y-88676700D01*
X156574036Y-91479223D01*
X156833066Y-93740111D01*
X157059545Y-95963903D01*
X157359279Y-97687723D01*
X157787372Y-99116921D01*
X158398928Y-100456848D01*
X158850895Y-101259656D01*
X159391103Y-102201224D01*
X159581565Y-102758746D01*
X159425509Y-103159088D01*
X158926163Y-103629119D01*
X158885111Y-103664704D01*
X158237022Y-104167841D01*
X157761644Y-104236840D01*
X157212433Y-103835853D01*
X156743536Y-103353305D01*
X156100219Y-102555047D01*
X155289799Y-101389542D01*
X154486251Y-100107176D01*
X154476188Y-100090111D01*
X153756383Y-98869663D01*
X153129385Y-97808978D01*
X152722623Y-97123606D01*
X152703446Y-97091500D01*
X151175001Y-94110710D01*
X150133092Y-91147552D01*
X149936661Y-90327793D01*
X149753688Y-89166910D01*
X149607949Y-87672893D01*
X149502252Y-85987660D01*
X149439404Y-84253131D01*
X149422213Y-82611226D01*
X149453486Y-81203866D01*
X149536031Y-80172968D01*
X149672656Y-79660454D01*
X149725007Y-79629000D01*
X150226537Y-79898583D01*
G37*
X150226537Y-79898583D02*
X151010902Y-80622854D01*
X151961220Y-81675094D01*
X152960605Y-82928585D01*
X153629791Y-83862333D01*
X154999123Y-86203529D01*
X155959202Y-88676700D01*
X156574036Y-91479223D01*
X156833066Y-93740111D01*
X157059545Y-95963903D01*
X157359279Y-97687723D01*
X157787372Y-99116921D01*
X158398928Y-100456848D01*
X158850895Y-101259656D01*
X159391103Y-102201224D01*
X159581565Y-102758746D01*
X159425509Y-103159088D01*
X158926163Y-103629119D01*
X158885111Y-103664704D01*
X158237022Y-104167841D01*
X157761644Y-104236840D01*
X157212433Y-103835853D01*
X156743536Y-103353305D01*
X156100219Y-102555047D01*
X155289799Y-101389542D01*
X154486251Y-100107176D01*
X154476188Y-100090111D01*
X153756383Y-98869663D01*
X153129385Y-97808978D01*
X152722623Y-97123606D01*
X152703446Y-97091500D01*
X151175001Y-94110710D01*
X150133092Y-91147552D01*
X149936661Y-90327793D01*
X149753688Y-89166910D01*
X149607949Y-87672893D01*
X149502252Y-85987660D01*
X149439404Y-84253131D01*
X149422213Y-82611226D01*
X149453486Y-81203866D01*
X149536031Y-80172968D01*
X149672656Y-79660454D01*
X149725007Y-79629000D01*
X150226537Y-79898583D01*
X158676047Y-85620935D02*
X158889975Y-85720604D01*
X158889975Y-85720604D02*
X159696964Y-86520343D01*
X159696964Y-86520343D02*
X160283207Y-87915890D01*
X160283207Y-87915890D02*
X160622679Y-89824895D01*
X160622679Y-89824895D02*
X160699634Y-91447056D01*
X160699634Y-91447056D02*
X160760615Y-92943568D01*
X160760615Y-92943568D02*
X160912128Y-94373494D01*
X160912128Y-94373494D02*
X161092129Y-95303968D01*
X161092129Y-95303968D02*
X161376603Y-96510432D01*
X161376603Y-96510432D02*
X161568056Y-97645566D01*
X161568056Y-97645566D02*
X161581945Y-97773413D01*
X161581945Y-97773413D02*
X161713082Y-98843315D01*
X161713082Y-98843315D02*
X161903673Y-100107132D01*
X161903673Y-100107132D02*
X161945406Y-100354694D01*
X161945406Y-100354694D02*
X162061822Y-101263330D01*
X162061822Y-101263330D02*
X162051817Y-101795928D01*
X162051817Y-101795928D02*
X162007781Y-101854000D01*
X162007781Y-101854000D02*
X161718545Y-101586347D01*
X161718545Y-101586347D02*
X161182124Y-100897253D01*
X161182124Y-100897253D02*
X160734553Y-100258567D01*
X160734553Y-100258567D02*
X159343862Y-97903084D01*
X159343862Y-97903084D02*
X158321152Y-95553420D01*
X158321152Y-95553420D02*
X157754200Y-93415100D01*
X157754200Y-93415100D02*
X157724648Y-93210944D01*
X157724648Y-93210944D02*
X157409056Y-90469823D01*
X157409056Y-90469823D02*
X157274859Y-88372298D01*
X157274859Y-88372298D02*
X157328258Y-86878509D01*
X157328258Y-86878509D02*
X157575454Y-85948593D01*
X157575454Y-85948593D02*
X158022650Y-85542689D01*
X158022650Y-85542689D02*
X158676047Y-85620935D01*
X158676047Y-85620935D02*
X158676047Y-85620935D01*
G36*
X158676047Y-85620935D02*
G01*
X158889975Y-85720604D01*
X159696964Y-86520343D01*
X160283207Y-87915890D01*
X160622679Y-89824895D01*
X160699634Y-91447056D01*
X160760615Y-92943568D01*
X160912128Y-94373494D01*
X161092129Y-95303968D01*
X161376603Y-96510432D01*
X161568056Y-97645566D01*
X161581945Y-97773413D01*
X161713082Y-98843315D01*
X161903673Y-100107132D01*
X161945406Y-100354694D01*
X162061822Y-101263330D01*
X162051817Y-101795928D01*
X162007781Y-101854000D01*
X161718545Y-101586347D01*
X161182124Y-100897253D01*
X160734553Y-100258567D01*
X159343862Y-97903084D01*
X158321152Y-95553420D01*
X157754200Y-93415100D01*
X157724648Y-93210944D01*
X157409056Y-90469823D01*
X157274859Y-88372298D01*
X157328258Y-86878509D01*
X157575454Y-85948593D01*
X158022650Y-85542689D01*
X158676047Y-85620935D01*
G37*
X158676047Y-85620935D02*
X158889975Y-85720604D01*
X159696964Y-86520343D01*
X160283207Y-87915890D01*
X160622679Y-89824895D01*
X160699634Y-91447056D01*
X160760615Y-92943568D01*
X160912128Y-94373494D01*
X161092129Y-95303968D01*
X161376603Y-96510432D01*
X161568056Y-97645566D01*
X161581945Y-97773413D01*
X161713082Y-98843315D01*
X161903673Y-100107132D01*
X161945406Y-100354694D01*
X162061822Y-101263330D01*
X162051817Y-101795928D01*
X162007781Y-101854000D01*
X161718545Y-101586347D01*
X161182124Y-100897253D01*
X160734553Y-100258567D01*
X159343862Y-97903084D01*
X158321152Y-95553420D01*
X157754200Y-93415100D01*
X157724648Y-93210944D01*
X157409056Y-90469823D01*
X157274859Y-88372298D01*
X157328258Y-86878509D01*
X157575454Y-85948593D01*
X158022650Y-85542689D01*
X158676047Y-85620935D01*
X141558552Y-106383503D02*
X142591712Y-107233861D01*
X142591712Y-107233861D02*
X143335232Y-108081002D01*
X143335232Y-108081002D02*
X144200298Y-109148388D01*
X144200298Y-109148388D02*
X145072703Y-110283582D01*
X145072703Y-110283582D02*
X145838236Y-111334146D01*
X145838236Y-111334146D02*
X146382690Y-112147640D01*
X146382690Y-112147640D02*
X146591853Y-112571629D01*
X146591853Y-112571629D02*
X146591867Y-112572981D01*
X146591867Y-112572981D02*
X146831167Y-112984217D01*
X146831167Y-112984217D02*
X147424072Y-113650957D01*
X147424072Y-113650957D02*
X148183084Y-114375916D01*
X148183084Y-114375916D02*
X148738376Y-114831570D01*
X148738376Y-114831570D02*
X149287227Y-115077984D01*
X149287227Y-115077984D02*
X150365648Y-115438469D01*
X150365648Y-115438469D02*
X151816716Y-115864187D01*
X151816716Y-115864187D02*
X153448805Y-116297546D01*
X153448805Y-116297546D02*
X156319691Y-117153703D01*
X156319691Y-117153703D02*
X158548860Y-118125577D01*
X158548860Y-118125577D02*
X160195903Y-119251581D01*
X160195903Y-119251581D02*
X161320410Y-120570126D01*
X161320410Y-120570126D02*
X161860548Y-121719683D01*
X161860548Y-121719683D02*
X162153679Y-122897727D01*
X162153679Y-122897727D02*
X162124095Y-123680027D01*
X162124095Y-123680027D02*
X162081744Y-123766478D01*
X162081744Y-123766478D02*
X161846107Y-123981565D01*
X161846107Y-123981565D02*
X161767812Y-123550306D01*
X161767812Y-123550306D02*
X161766713Y-123469771D01*
X161766713Y-123469771D02*
X161619648Y-122875376D01*
X161619648Y-122875376D02*
X161128425Y-122331049D01*
X161128425Y-122331049D02*
X160204859Y-121783148D01*
X160204859Y-121783148D02*
X158760763Y-121178032D01*
X158760763Y-121178032D02*
X156959444Y-120545615D01*
X156959444Y-120545615D02*
X155108731Y-119987153D01*
X155108731Y-119987153D02*
X153430624Y-119640896D01*
X153430624Y-119640896D02*
X151597254Y-119451154D01*
X151597254Y-119451154D02*
X150119645Y-119383889D01*
X150119645Y-119383889D02*
X148255107Y-119281869D01*
X148255107Y-119281869D02*
X146797832Y-119112574D01*
X146797832Y-119112574D02*
X145875534Y-118892585D01*
X145875534Y-118892585D02*
X145709922Y-118811417D01*
X145709922Y-118811417D02*
X144905209Y-118115588D01*
X144905209Y-118115588D02*
X143885565Y-116990871D01*
X143885565Y-116990871D02*
X142792917Y-115617034D01*
X142792917Y-115617034D02*
X141769192Y-114173844D01*
X141769192Y-114173844D02*
X140956316Y-112841068D01*
X140956316Y-112841068D02*
X140873891Y-112685984D01*
X140873891Y-112685984D02*
X140046193Y-110494768D01*
X140046193Y-110494768D02*
X139678646Y-108468583D01*
X139678646Y-108468583D02*
X139438878Y-106087333D01*
X139438878Y-106087333D02*
X140476724Y-106087333D01*
X140476724Y-106087333D02*
X141558552Y-106383503D01*
X141558552Y-106383503D02*
X141558552Y-106383503D01*
G36*
X141558552Y-106383503D02*
G01*
X142591712Y-107233861D01*
X143335232Y-108081002D01*
X144200298Y-109148388D01*
X145072703Y-110283582D01*
X145838236Y-111334146D01*
X146382690Y-112147640D01*
X146591853Y-112571629D01*
X146591867Y-112572981D01*
X146831167Y-112984217D01*
X147424072Y-113650957D01*
X148183084Y-114375916D01*
X148738376Y-114831570D01*
X149287227Y-115077984D01*
X150365648Y-115438469D01*
X151816716Y-115864187D01*
X153448805Y-116297546D01*
X156319691Y-117153703D01*
X158548860Y-118125577D01*
X160195903Y-119251581D01*
X161320410Y-120570126D01*
X161860548Y-121719683D01*
X162153679Y-122897727D01*
X162124095Y-123680027D01*
X162081744Y-123766478D01*
X161846107Y-123981565D01*
X161767812Y-123550306D01*
X161766713Y-123469771D01*
X161619648Y-122875376D01*
X161128425Y-122331049D01*
X160204859Y-121783148D01*
X158760763Y-121178032D01*
X156959444Y-120545615D01*
X155108731Y-119987153D01*
X153430624Y-119640896D01*
X151597254Y-119451154D01*
X150119645Y-119383889D01*
X148255107Y-119281869D01*
X146797832Y-119112574D01*
X145875534Y-118892585D01*
X145709922Y-118811417D01*
X144905209Y-118115588D01*
X143885565Y-116990871D01*
X142792917Y-115617034D01*
X141769192Y-114173844D01*
X140956316Y-112841068D01*
X140873891Y-112685984D01*
X140046193Y-110494768D01*
X139678646Y-108468583D01*
X139438878Y-106087333D01*
X140476724Y-106087333D01*
X141558552Y-106383503D01*
G37*
X141558552Y-106383503D02*
X142591712Y-107233861D01*
X143335232Y-108081002D01*
X144200298Y-109148388D01*
X145072703Y-110283582D01*
X145838236Y-111334146D01*
X146382690Y-112147640D01*
X146591853Y-112571629D01*
X146591867Y-112572981D01*
X146831167Y-112984217D01*
X147424072Y-113650957D01*
X148183084Y-114375916D01*
X148738376Y-114831570D01*
X149287227Y-115077984D01*
X150365648Y-115438469D01*
X151816716Y-115864187D01*
X153448805Y-116297546D01*
X156319691Y-117153703D01*
X158548860Y-118125577D01*
X160195903Y-119251581D01*
X161320410Y-120570126D01*
X161860548Y-121719683D01*
X162153679Y-122897727D01*
X162124095Y-123680027D01*
X162081744Y-123766478D01*
X161846107Y-123981565D01*
X161767812Y-123550306D01*
X161766713Y-123469771D01*
X161619648Y-122875376D01*
X161128425Y-122331049D01*
X160204859Y-121783148D01*
X158760763Y-121178032D01*
X156959444Y-120545615D01*
X155108731Y-119987153D01*
X153430624Y-119640896D01*
X151597254Y-119451154D01*
X150119645Y-119383889D01*
X148255107Y-119281869D01*
X146797832Y-119112574D01*
X145875534Y-118892585D01*
X145709922Y-118811417D01*
X144905209Y-118115588D01*
X143885565Y-116990871D01*
X142792917Y-115617034D01*
X141769192Y-114173844D01*
X140956316Y-112841068D01*
X140873891Y-112685984D01*
X140046193Y-110494768D01*
X139678646Y-108468583D01*
X139438878Y-106087333D01*
X140476724Y-106087333D01*
X141558552Y-106383503D01*
X198671142Y-92138521D02*
X198893214Y-92660814D01*
X198893214Y-92660814D02*
X198986505Y-93124923D01*
X198986505Y-93124923D02*
X198950932Y-94686387D01*
X198950932Y-94686387D02*
X198669639Y-95420750D01*
X198669639Y-95420750D02*
X198122001Y-96208745D01*
X198122001Y-96208745D02*
X197275532Y-97145134D01*
X197275532Y-97145134D02*
X196296574Y-98077078D01*
X196296574Y-98077078D02*
X195351473Y-98851740D01*
X195351473Y-98851740D02*
X194606571Y-99316282D01*
X194606571Y-99316282D02*
X194355557Y-99384556D01*
X194355557Y-99384556D02*
X193727836Y-99528786D01*
X193727836Y-99528786D02*
X192692025Y-99904107D01*
X192692025Y-99904107D02*
X191470292Y-100424464D01*
X191470292Y-100424464D02*
X190612870Y-100834246D01*
X190612870Y-100834246D02*
X189936821Y-101043558D01*
X189936821Y-101043558D02*
X188841830Y-101257247D01*
X188841830Y-101257247D02*
X187996186Y-101375855D01*
X187996186Y-101375855D02*
X186872487Y-101488345D01*
X186872487Y-101488345D02*
X186304154Y-101464890D01*
X186304154Y-101464890D02*
X186148918Y-101274934D01*
X186148918Y-101274934D02*
X186221827Y-100994793D01*
X186221827Y-100994793D02*
X186490587Y-100173502D01*
X186490587Y-100173502D02*
X186692084Y-99439977D01*
X186692084Y-99439977D02*
X187278054Y-98287876D01*
X187278054Y-98287876D02*
X188432239Y-97440740D01*
X188432239Y-97440740D02*
X188748811Y-97295390D01*
X188748811Y-97295390D02*
X189309218Y-96966235D01*
X189309218Y-96966235D02*
X190281125Y-96307819D01*
X190281125Y-96307819D02*
X191517700Y-95422244D01*
X191517700Y-95422244D02*
X192609840Y-94610542D01*
X192609840Y-94610542D02*
X194202481Y-93452752D01*
X194202481Y-93452752D02*
X195413854Y-92692940D01*
X195413854Y-92692940D02*
X196384369Y-92254046D01*
X196384369Y-92254046D02*
X197254436Y-92059010D01*
X197254436Y-92059010D02*
X197260063Y-92058372D01*
X197260063Y-92058372D02*
X198202302Y-91984376D01*
X198202302Y-91984376D02*
X198671142Y-92138521D01*
X198671142Y-92138521D02*
X198671142Y-92138521D01*
G36*
X198671142Y-92138521D02*
G01*
X198893214Y-92660814D01*
X198986505Y-93124923D01*
X198950932Y-94686387D01*
X198669639Y-95420750D01*
X198122001Y-96208745D01*
X197275532Y-97145134D01*
X196296574Y-98077078D01*
X195351473Y-98851740D01*
X194606571Y-99316282D01*
X194355557Y-99384556D01*
X193727836Y-99528786D01*
X192692025Y-99904107D01*
X191470292Y-100424464D01*
X190612870Y-100834246D01*
X189936821Y-101043558D01*
X188841830Y-101257247D01*
X187996186Y-101375855D01*
X186872487Y-101488345D01*
X186304154Y-101464890D01*
X186148918Y-101274934D01*
X186221827Y-100994793D01*
X186490587Y-100173502D01*
X186692084Y-99439977D01*
X187278054Y-98287876D01*
X188432239Y-97440740D01*
X188748811Y-97295390D01*
X189309218Y-96966235D01*
X190281125Y-96307819D01*
X191517700Y-95422244D01*
X192609840Y-94610542D01*
X194202481Y-93452752D01*
X195413854Y-92692940D01*
X196384369Y-92254046D01*
X197254436Y-92059010D01*
X197260063Y-92058372D01*
X198202302Y-91984376D01*
X198671142Y-92138521D01*
G37*
X198671142Y-92138521D02*
X198893214Y-92660814D01*
X198986505Y-93124923D01*
X198950932Y-94686387D01*
X198669639Y-95420750D01*
X198122001Y-96208745D01*
X197275532Y-97145134D01*
X196296574Y-98077078D01*
X195351473Y-98851740D01*
X194606571Y-99316282D01*
X194355557Y-99384556D01*
X193727836Y-99528786D01*
X192692025Y-99904107D01*
X191470292Y-100424464D01*
X190612870Y-100834246D01*
X189936821Y-101043558D01*
X188841830Y-101257247D01*
X187996186Y-101375855D01*
X186872487Y-101488345D01*
X186304154Y-101464890D01*
X186148918Y-101274934D01*
X186221827Y-100994793D01*
X186490587Y-100173502D01*
X186692084Y-99439977D01*
X187278054Y-98287876D01*
X188432239Y-97440740D01*
X188748811Y-97295390D01*
X189309218Y-96966235D01*
X190281125Y-96307819D01*
X191517700Y-95422244D01*
X192609840Y-94610542D01*
X194202481Y-93452752D01*
X195413854Y-92692940D01*
X196384369Y-92254046D01*
X197254436Y-92059010D01*
X197260063Y-92058372D01*
X198202302Y-91984376D01*
X198671142Y-92138521D01*
X193447326Y-108880002D02*
X193639664Y-109007196D01*
X193639664Y-109007196D02*
X194216077Y-109796401D01*
X194216077Y-109796401D02*
X194567414Y-111011522D01*
X194567414Y-111011522D02*
X194636213Y-112393118D01*
X194636213Y-112393118D02*
X194542705Y-113084380D01*
X194542705Y-113084380D02*
X194248594Y-113877471D01*
X194248594Y-113877471D02*
X193702963Y-114931359D01*
X193702963Y-114931359D02*
X193034238Y-116037974D01*
X193034238Y-116037974D02*
X192370851Y-116989244D01*
X192370851Y-116989244D02*
X191841228Y-117577097D01*
X191841228Y-117577097D02*
X191722235Y-117653921D01*
X191722235Y-117653921D02*
X191338104Y-117933014D01*
X191338104Y-117933014D02*
X190647151Y-118513242D01*
X190647151Y-118513242D02*
X190348774Y-118776207D01*
X190348774Y-118776207D02*
X189627644Y-119298784D01*
X189627644Y-119298784D02*
X188418436Y-120044950D01*
X188418436Y-120044950D02*
X186867485Y-120929546D01*
X186867485Y-120929546D02*
X185121128Y-121867412D01*
X185121128Y-121867412D02*
X184390898Y-122243355D01*
X184390898Y-122243355D02*
X181514561Y-123712931D01*
X181514561Y-123712931D02*
X179220713Y-124904016D01*
X179220713Y-124904016D02*
X177456671Y-125845308D01*
X177456671Y-125845308D02*
X176169751Y-126565501D01*
X176169751Y-126565501D02*
X175307268Y-127093290D01*
X175307268Y-127093290D02*
X174816538Y-127457373D01*
X174816538Y-127457373D02*
X174814089Y-127459594D01*
X174814089Y-127459594D02*
X173135225Y-128952522D01*
X173135225Y-128952522D02*
X171595245Y-130260713D01*
X171595245Y-130260713D02*
X170274111Y-131321627D01*
X170274111Y-131321627D02*
X169251791Y-132072721D01*
X169251791Y-132072721D02*
X168608249Y-132451453D01*
X168608249Y-132451453D02*
X168423865Y-132457472D01*
X168423865Y-132457472D02*
X168359249Y-132084220D01*
X168359249Y-132084220D02*
X168260420Y-131310944D01*
X168260420Y-131310944D02*
X168287986Y-130584354D01*
X168287986Y-130584354D02*
X168636389Y-129895084D01*
X168636389Y-129895084D02*
X169419792Y-129036220D01*
X169419792Y-129036220D02*
X169623560Y-128840281D01*
X169623560Y-128840281D02*
X171991103Y-126776001D01*
X171991103Y-126776001D02*
X174135179Y-125305324D01*
X174135179Y-125305324D02*
X175519645Y-124611223D01*
X175519645Y-124611223D02*
X177697096Y-123497207D01*
X177697096Y-123497207D02*
X180091995Y-121930491D01*
X180091995Y-121930491D02*
X182522913Y-120040355D01*
X182522913Y-120040355D02*
X184676767Y-118086154D01*
X184676767Y-118086154D02*
X185993656Y-116744256D01*
X185993656Y-116744256D02*
X186903527Y-115668772D01*
X186903527Y-115668772D02*
X187539628Y-114672331D01*
X187539628Y-114672331D02*
X188035209Y-113567564D01*
X188035209Y-113567564D02*
X188192192Y-113142889D01*
X188192192Y-113142889D02*
X189049961Y-111256594D01*
X189049961Y-111256594D02*
X190077018Y-109831996D01*
X190077018Y-109831996D02*
X191200703Y-108924257D01*
X191200703Y-108924257D02*
X192348359Y-108588538D01*
X192348359Y-108588538D02*
X193447326Y-108880002D01*
X193447326Y-108880002D02*
X193447326Y-108880002D01*
G36*
X193447326Y-108880002D02*
G01*
X193639664Y-109007196D01*
X194216077Y-109796401D01*
X194567414Y-111011522D01*
X194636213Y-112393118D01*
X194542705Y-113084380D01*
X194248594Y-113877471D01*
X193702963Y-114931359D01*
X193034238Y-116037974D01*
X192370851Y-116989244D01*
X191841228Y-117577097D01*
X191722235Y-117653921D01*
X191338104Y-117933014D01*
X190647151Y-118513242D01*
X190348774Y-118776207D01*
X189627644Y-119298784D01*
X188418436Y-120044950D01*
X186867485Y-120929546D01*
X185121128Y-121867412D01*
X184390898Y-122243355D01*
X181514561Y-123712931D01*
X179220713Y-124904016D01*
X177456671Y-125845308D01*
X176169751Y-126565501D01*
X175307268Y-127093290D01*
X174816538Y-127457373D01*
X174814089Y-127459594D01*
X173135225Y-128952522D01*
X171595245Y-130260713D01*
X170274111Y-131321627D01*
X169251791Y-132072721D01*
X168608249Y-132451453D01*
X168423865Y-132457472D01*
X168359249Y-132084220D01*
X168260420Y-131310944D01*
X168287986Y-130584354D01*
X168636389Y-129895084D01*
X169419792Y-129036220D01*
X169623560Y-128840281D01*
X171991103Y-126776001D01*
X174135179Y-125305324D01*
X175519645Y-124611223D01*
X177697096Y-123497207D01*
X180091995Y-121930491D01*
X182522913Y-120040355D01*
X184676767Y-118086154D01*
X185993656Y-116744256D01*
X186903527Y-115668772D01*
X187539628Y-114672331D01*
X188035209Y-113567564D01*
X188192192Y-113142889D01*
X189049961Y-111256594D01*
X190077018Y-109831996D01*
X191200703Y-108924257D01*
X192348359Y-108588538D01*
X193447326Y-108880002D01*
G37*
X193447326Y-108880002D02*
X193639664Y-109007196D01*
X194216077Y-109796401D01*
X194567414Y-111011522D01*
X194636213Y-112393118D01*
X194542705Y-113084380D01*
X194248594Y-113877471D01*
X193702963Y-114931359D01*
X193034238Y-116037974D01*
X192370851Y-116989244D01*
X191841228Y-117577097D01*
X191722235Y-117653921D01*
X191338104Y-117933014D01*
X190647151Y-118513242D01*
X190348774Y-118776207D01*
X189627644Y-119298784D01*
X188418436Y-120044950D01*
X186867485Y-120929546D01*
X185121128Y-121867412D01*
X184390898Y-122243355D01*
X181514561Y-123712931D01*
X179220713Y-124904016D01*
X177456671Y-125845308D01*
X176169751Y-126565501D01*
X175307268Y-127093290D01*
X174816538Y-127457373D01*
X174814089Y-127459594D01*
X173135225Y-128952522D01*
X171595245Y-130260713D01*
X170274111Y-131321627D01*
X169251791Y-132072721D01*
X168608249Y-132451453D01*
X168423865Y-132457472D01*
X168359249Y-132084220D01*
X168260420Y-131310944D01*
X168287986Y-130584354D01*
X168636389Y-129895084D01*
X169419792Y-129036220D01*
X169623560Y-128840281D01*
X171991103Y-126776001D01*
X174135179Y-125305324D01*
X175519645Y-124611223D01*
X177697096Y-123497207D01*
X180091995Y-121930491D01*
X182522913Y-120040355D01*
X184676767Y-118086154D01*
X185993656Y-116744256D01*
X186903527Y-115668772D01*
X187539628Y-114672331D01*
X188035209Y-113567564D01*
X188192192Y-113142889D01*
X189049961Y-111256594D01*
X190077018Y-109831996D01*
X191200703Y-108924257D01*
X192348359Y-108588538D01*
X193447326Y-108880002D01*
X185586447Y-92303904D02*
X185700806Y-93197473D01*
X185700806Y-93197473D02*
X185735767Y-94522720D01*
X185735767Y-94522720D02*
X185695416Y-96145432D01*
X185695416Y-96145432D02*
X185583839Y-97931398D01*
X185583839Y-97931398D02*
X185405123Y-99746407D01*
X185405123Y-99746407D02*
X185163353Y-101456246D01*
X185163353Y-101456246D02*
X185086831Y-101887629D01*
X185086831Y-101887629D02*
X184293216Y-105136666D01*
X184293216Y-105136666D02*
X183246717Y-107732012D01*
X183246717Y-107732012D02*
X181944931Y-109679575D01*
X181944931Y-109679575D02*
X181891900Y-109739212D01*
X181891900Y-109739212D02*
X179984545Y-111777311D01*
X179984545Y-111777311D02*
X178212562Y-113508320D01*
X178212562Y-113508320D02*
X176661964Y-114854104D01*
X176661964Y-114854104D02*
X175418767Y-115736527D01*
X175418767Y-115736527D02*
X175101683Y-115907428D01*
X175101683Y-115907428D02*
X173868548Y-116402841D01*
X173868548Y-116402841D02*
X172584117Y-116764318D01*
X172584117Y-116764318D02*
X171452600Y-116950826D01*
X171452600Y-116950826D02*
X170678207Y-116921328D01*
X170678207Y-116921328D02*
X170504973Y-116831118D01*
X170504973Y-116831118D02*
X170466265Y-116352012D01*
X170466265Y-116352012D02*
X170788680Y-115590888D01*
X170788680Y-115590888D02*
X171361357Y-114790169D01*
X171361357Y-114790169D02*
X171510632Y-114632060D01*
X171510632Y-114632060D02*
X172065907Y-113982398D01*
X172065907Y-113982398D02*
X172248666Y-113716097D01*
X172248666Y-113716097D02*
X172642541Y-113287820D01*
X172642541Y-113287820D02*
X173433562Y-112569048D01*
X173433562Y-112569048D02*
X174462599Y-111703292D01*
X174462599Y-111703292D02*
X174637700Y-111561526D01*
X174637700Y-111561526D02*
X176241399Y-110214187D01*
X176241399Y-110214187D02*
X177358883Y-109117223D01*
X177358883Y-109117223D02*
X178098017Y-108140386D01*
X178098017Y-108140386D02*
X178566669Y-107153428D01*
X178566669Y-107153428D02*
X178732990Y-106616500D01*
X178732990Y-106616500D02*
X179187830Y-105395785D01*
X179187830Y-105395785D02*
X179801511Y-104265898D01*
X179801511Y-104265898D02*
X179884640Y-104147055D01*
X179884640Y-104147055D02*
X180378488Y-103368643D01*
X180378488Y-103368643D02*
X180998621Y-102253013D01*
X180998621Y-102253013D02*
X181654014Y-100983386D01*
X181654014Y-100983386D02*
X182253643Y-99742981D01*
X182253643Y-99742981D02*
X182706485Y-98715019D01*
X182706485Y-98715019D02*
X182921515Y-98082719D01*
X182921515Y-98082719D02*
X182927978Y-98021192D01*
X182927978Y-98021192D02*
X183078539Y-97509196D01*
X183078539Y-97509196D02*
X183442059Y-96715706D01*
X183442059Y-96715706D02*
X183454971Y-96690853D01*
X183454971Y-96690853D02*
X183830805Y-95792822D01*
X183830805Y-95792822D02*
X183984138Y-95083848D01*
X183984138Y-95083848D02*
X184145738Y-94462365D01*
X184145738Y-94462365D02*
X184293524Y-94297439D01*
X184293524Y-94297439D02*
X184574681Y-93846482D01*
X184574681Y-93846482D02*
X184813871Y-93041897D01*
X184813871Y-93041897D02*
X185066426Y-92297084D01*
X185066426Y-92297084D02*
X185380559Y-91976481D01*
X185380559Y-91976481D02*
X185388603Y-91976222D01*
X185388603Y-91976222D02*
X185586447Y-92303904D01*
X185586447Y-92303904D02*
X185586447Y-92303904D01*
G36*
X185586447Y-92303904D02*
G01*
X185700806Y-93197473D01*
X185735767Y-94522720D01*
X185695416Y-96145432D01*
X185583839Y-97931398D01*
X185405123Y-99746407D01*
X185163353Y-101456246D01*
X185086831Y-101887629D01*
X184293216Y-105136666D01*
X183246717Y-107732012D01*
X181944931Y-109679575D01*
X181891900Y-109739212D01*
X179984545Y-111777311D01*
X178212562Y-113508320D01*
X176661964Y-114854104D01*
X175418767Y-115736527D01*
X175101683Y-115907428D01*
X173868548Y-116402841D01*
X172584117Y-116764318D01*
X171452600Y-116950826D01*
X170678207Y-116921328D01*
X170504973Y-116831118D01*
X170466265Y-116352012D01*
X170788680Y-115590888D01*
X171361357Y-114790169D01*
X171510632Y-114632060D01*
X172065907Y-113982398D01*
X172248666Y-113716097D01*
X172642541Y-113287820D01*
X173433562Y-112569048D01*
X174462599Y-111703292D01*
X174637700Y-111561526D01*
X176241399Y-110214187D01*
X177358883Y-109117223D01*
X178098017Y-108140386D01*
X178566669Y-107153428D01*
X178732990Y-106616500D01*
X179187830Y-105395785D01*
X179801511Y-104265898D01*
X179884640Y-104147055D01*
X180378488Y-103368643D01*
X180998621Y-102253013D01*
X181654014Y-100983386D01*
X182253643Y-99742981D01*
X182706485Y-98715019D01*
X182921515Y-98082719D01*
X182927978Y-98021192D01*
X183078539Y-97509196D01*
X183442059Y-96715706D01*
X183454971Y-96690853D01*
X183830805Y-95792822D01*
X183984138Y-95083848D01*
X184145738Y-94462365D01*
X184293524Y-94297439D01*
X184574681Y-93846482D01*
X184813871Y-93041897D01*
X185066426Y-92297084D01*
X185380559Y-91976481D01*
X185388603Y-91976222D01*
X185586447Y-92303904D01*
G37*
X185586447Y-92303904D02*
X185700806Y-93197473D01*
X185735767Y-94522720D01*
X185695416Y-96145432D01*
X185583839Y-97931398D01*
X185405123Y-99746407D01*
X185163353Y-101456246D01*
X185086831Y-101887629D01*
X184293216Y-105136666D01*
X183246717Y-107732012D01*
X181944931Y-109679575D01*
X181891900Y-109739212D01*
X179984545Y-111777311D01*
X178212562Y-113508320D01*
X176661964Y-114854104D01*
X175418767Y-115736527D01*
X175101683Y-115907428D01*
X173868548Y-116402841D01*
X172584117Y-116764318D01*
X171452600Y-116950826D01*
X170678207Y-116921328D01*
X170504973Y-116831118D01*
X170466265Y-116352012D01*
X170788680Y-115590888D01*
X171361357Y-114790169D01*
X171510632Y-114632060D01*
X172065907Y-113982398D01*
X172248666Y-113716097D01*
X172642541Y-113287820D01*
X173433562Y-112569048D01*
X174462599Y-111703292D01*
X174637700Y-111561526D01*
X176241399Y-110214187D01*
X177358883Y-109117223D01*
X178098017Y-108140386D01*
X178566669Y-107153428D01*
X178732990Y-106616500D01*
X179187830Y-105395785D01*
X179801511Y-104265898D01*
X179884640Y-104147055D01*
X180378488Y-103368643D01*
X180998621Y-102253013D01*
X181654014Y-100983386D01*
X182253643Y-99742981D01*
X182706485Y-98715019D01*
X182921515Y-98082719D01*
X182927978Y-98021192D01*
X183078539Y-97509196D01*
X183442059Y-96715706D01*
X183454971Y-96690853D01*
X183830805Y-95792822D01*
X183984138Y-95083848D01*
X184145738Y-94462365D01*
X184293524Y-94297439D01*
X184574681Y-93846482D01*
X184813871Y-93041897D01*
X185066426Y-92297084D01*
X185380559Y-91976481D01*
X185388603Y-91976222D01*
X185586447Y-92303904D01*
X162441343Y-103960094D02*
X163172687Y-104449619D01*
X163172687Y-104449619D02*
X163696719Y-105267405D01*
X163696719Y-105267405D02*
X164020644Y-106477863D01*
X164020644Y-106477863D02*
X164151666Y-108145401D01*
X164151666Y-108145401D02*
X164096990Y-110334428D01*
X164096990Y-110334428D02*
X163863820Y-113109354D01*
X163863820Y-113109354D02*
X163664118Y-114891774D01*
X163664118Y-114891774D02*
X163431755Y-116271434D01*
X163431755Y-116271434D02*
X163130803Y-116954930D01*
X163130803Y-116954930D02*
X162735660Y-116950344D01*
X162735660Y-116950344D02*
X162220722Y-116265755D01*
X162220722Y-116265755D02*
X161816653Y-115474874D01*
X161816653Y-115474874D02*
X161323906Y-114312429D01*
X161323906Y-114312429D02*
X160949909Y-113229929D01*
X160949909Y-113229929D02*
X160868414Y-112917235D01*
X160868414Y-112917235D02*
X160571363Y-111880524D01*
X160571363Y-111880524D02*
X160283660Y-111152754D01*
X160283660Y-111152754D02*
X160126342Y-110450802D01*
X160126342Y-110450802D02*
X160039140Y-109274646D01*
X160039140Y-109274646D02*
X160036995Y-107853474D01*
X160036995Y-107853474D02*
X160048662Y-107547240D01*
X160048662Y-107547240D02*
X160203400Y-105707064D01*
X160203400Y-105707064D02*
X160498234Y-104501566D01*
X160498234Y-104501566D02*
X160975944Y-103866610D01*
X160975944Y-103866610D02*
X161679309Y-103738061D01*
X161679309Y-103738061D02*
X162441343Y-103960094D01*
X162441343Y-103960094D02*
X162441343Y-103960094D01*
G36*
X162441343Y-103960094D02*
G01*
X163172687Y-104449619D01*
X163696719Y-105267405D01*
X164020644Y-106477863D01*
X164151666Y-108145401D01*
X164096990Y-110334428D01*
X163863820Y-113109354D01*
X163664118Y-114891774D01*
X163431755Y-116271434D01*
X163130803Y-116954930D01*
X162735660Y-116950344D01*
X162220722Y-116265755D01*
X161816653Y-115474874D01*
X161323906Y-114312429D01*
X160949909Y-113229929D01*
X160868414Y-112917235D01*
X160571363Y-111880524D01*
X160283660Y-111152754D01*
X160126342Y-110450802D01*
X160039140Y-109274646D01*
X160036995Y-107853474D01*
X160048662Y-107547240D01*
X160203400Y-105707064D01*
X160498234Y-104501566D01*
X160975944Y-103866610D01*
X161679309Y-103738061D01*
X162441343Y-103960094D01*
G37*
X162441343Y-103960094D02*
X163172687Y-104449619D01*
X163696719Y-105267405D01*
X164020644Y-106477863D01*
X164151666Y-108145401D01*
X164096990Y-110334428D01*
X163863820Y-113109354D01*
X163664118Y-114891774D01*
X163431755Y-116271434D01*
X163130803Y-116954930D01*
X162735660Y-116950344D01*
X162220722Y-116265755D01*
X161816653Y-115474874D01*
X161323906Y-114312429D01*
X160949909Y-113229929D01*
X160868414Y-112917235D01*
X160571363Y-111880524D01*
X160283660Y-111152754D01*
X160126342Y-110450802D01*
X160039140Y-109274646D01*
X160036995Y-107853474D01*
X160048662Y-107547240D01*
X160203400Y-105707064D01*
X160498234Y-104501566D01*
X160975944Y-103866610D01*
X161679309Y-103738061D01*
X162441343Y-103960094D01*
X176540277Y-47193459D02*
X177498264Y-47781295D01*
X177498264Y-47781295D02*
X178430757Y-48680797D01*
X178430757Y-48680797D02*
X179055045Y-49558643D01*
X179055045Y-49558643D02*
X179559886Y-50447235D01*
X179559886Y-50447235D02*
X179691794Y-50881402D01*
X179691794Y-50881402D02*
X179440745Y-51011784D01*
X179440745Y-51011784D02*
X178959228Y-50998703D01*
X178959228Y-50998703D02*
X178063680Y-51036623D01*
X178063680Y-51036623D02*
X176972909Y-51193148D01*
X176972909Y-51193148D02*
X176908132Y-51206004D01*
X176908132Y-51206004D02*
X175911125Y-51296172D01*
X175911125Y-51296172D02*
X175300320Y-51022984D01*
X175300320Y-51022984D02*
X175184696Y-50899094D01*
X175184696Y-50899094D02*
X174863442Y-50260220D01*
X174863442Y-50260220D02*
X174736520Y-49258317D01*
X174736520Y-49258317D02*
X174776001Y-47814578D01*
X174776001Y-47814578D02*
X175052881Y-47158637D01*
X175052881Y-47158637D02*
X175683061Y-46968752D01*
X175683061Y-46968752D02*
X176540277Y-47193459D01*
X176540277Y-47193459D02*
X176540277Y-47193459D01*
G36*
X176540277Y-47193459D02*
G01*
X177498264Y-47781295D01*
X178430757Y-48680797D01*
X179055045Y-49558643D01*
X179559886Y-50447235D01*
X179691794Y-50881402D01*
X179440745Y-51011784D01*
X178959228Y-50998703D01*
X178063680Y-51036623D01*
X176972909Y-51193148D01*
X176908132Y-51206004D01*
X175911125Y-51296172D01*
X175300320Y-51022984D01*
X175184696Y-50899094D01*
X174863442Y-50260220D01*
X174736520Y-49258317D01*
X174776001Y-47814578D01*
X175052881Y-47158637D01*
X175683061Y-46968752D01*
X176540277Y-47193459D01*
G37*
X176540277Y-47193459D02*
X177498264Y-47781295D01*
X178430757Y-48680797D01*
X179055045Y-49558643D01*
X179559886Y-50447235D01*
X179691794Y-50881402D01*
X179440745Y-51011784D01*
X178959228Y-50998703D01*
X178063680Y-51036623D01*
X176972909Y-51193148D01*
X176908132Y-51206004D01*
X175911125Y-51296172D01*
X175300320Y-51022984D01*
X175184696Y-50899094D01*
X174863442Y-50260220D01*
X174736520Y-49258317D01*
X174776001Y-47814578D01*
X175052881Y-47158637D01*
X175683061Y-46968752D01*
X176540277Y-47193459D01*
X176005568Y-70501264D02*
X176814640Y-71168898D01*
X176814640Y-71168898D02*
X177670067Y-72385305D01*
X177670067Y-72385305D02*
X178486530Y-74006099D01*
X178486530Y-74006099D02*
X179168536Y-75853831D01*
X179168536Y-75853831D02*
X179799870Y-77899495D01*
X179799870Y-77899495D02*
X178879576Y-79381609D01*
X178879576Y-79381609D02*
X178057532Y-80647983D01*
X178057532Y-80647983D02*
X177151486Y-81964096D01*
X177151486Y-81964096D02*
X176927571Y-82274833D01*
X176927571Y-82274833D02*
X176315674Y-83246522D01*
X176315674Y-83246522D02*
X175940493Y-84101391D01*
X175940493Y-84101391D02*
X175885887Y-84391500D01*
X175885887Y-84391500D02*
X175768940Y-85135839D01*
X175768940Y-85135839D02*
X175487184Y-86133725D01*
X175487184Y-86133725D02*
X175121190Y-87163440D01*
X175121190Y-87163440D02*
X174751530Y-88003265D01*
X174751530Y-88003265D02*
X174458773Y-88431482D01*
X174458773Y-88431482D02*
X174411626Y-88448444D01*
X174411626Y-88448444D02*
X174036429Y-88190614D01*
X174036429Y-88190614D02*
X173599371Y-87664394D01*
X173599371Y-87664394D02*
X173184704Y-86911589D01*
X173184704Y-86911589D02*
X173050200Y-86415856D01*
X173050200Y-86415856D02*
X172813346Y-85953668D01*
X172813346Y-85953668D02*
X172190079Y-85174249D01*
X172190079Y-85174249D02*
X171311345Y-84240104D01*
X171311345Y-84240104D02*
X171240771Y-84170285D01*
X171240771Y-84170285D02*
X169431343Y-82389201D01*
X169431343Y-82389201D02*
X169654211Y-80213882D01*
X169654211Y-80213882D02*
X170114917Y-77726916D01*
X170114917Y-77726916D02*
X171027110Y-75101880D01*
X171027110Y-75101880D02*
X172148574Y-72734307D01*
X172148574Y-72734307D02*
X173126592Y-71310037D01*
X173126592Y-71310037D02*
X174230676Y-70492567D01*
X174230676Y-70492567D02*
X175394126Y-70320513D01*
X175394126Y-70320513D02*
X176005568Y-70501264D01*
X176005568Y-70501264D02*
X176005568Y-70501264D01*
G36*
X176005568Y-70501264D02*
G01*
X176814640Y-71168898D01*
X177670067Y-72385305D01*
X178486530Y-74006099D01*
X179168536Y-75853831D01*
X179799870Y-77899495D01*
X178879576Y-79381609D01*
X178057532Y-80647983D01*
X177151486Y-81964096D01*
X176927571Y-82274833D01*
X176315674Y-83246522D01*
X175940493Y-84101391D01*
X175885887Y-84391500D01*
X175768940Y-85135839D01*
X175487184Y-86133725D01*
X175121190Y-87163440D01*
X174751530Y-88003265D01*
X174458773Y-88431482D01*
X174411626Y-88448444D01*
X174036429Y-88190614D01*
X173599371Y-87664394D01*
X173184704Y-86911589D01*
X173050200Y-86415856D01*
X172813346Y-85953668D01*
X172190079Y-85174249D01*
X171311345Y-84240104D01*
X171240771Y-84170285D01*
X169431343Y-82389201D01*
X169654211Y-80213882D01*
X170114917Y-77726916D01*
X171027110Y-75101880D01*
X172148574Y-72734307D01*
X173126592Y-71310037D01*
X174230676Y-70492567D01*
X175394126Y-70320513D01*
X176005568Y-70501264D01*
G37*
X176005568Y-70501264D02*
X176814640Y-71168898D01*
X177670067Y-72385305D01*
X178486530Y-74006099D01*
X179168536Y-75853831D01*
X179799870Y-77899495D01*
X178879576Y-79381609D01*
X178057532Y-80647983D01*
X177151486Y-81964096D01*
X176927571Y-82274833D01*
X176315674Y-83246522D01*
X175940493Y-84101391D01*
X175885887Y-84391500D01*
X175768940Y-85135839D01*
X175487184Y-86133725D01*
X175121190Y-87163440D01*
X174751530Y-88003265D01*
X174458773Y-88431482D01*
X174411626Y-88448444D01*
X174036429Y-88190614D01*
X173599371Y-87664394D01*
X173184704Y-86911589D01*
X173050200Y-86415856D01*
X172813346Y-85953668D01*
X172190079Y-85174249D01*
X171311345Y-84240104D01*
X171240771Y-84170285D01*
X169431343Y-82389201D01*
X169654211Y-80213882D01*
X170114917Y-77726916D01*
X171027110Y-75101880D01*
X172148574Y-72734307D01*
X173126592Y-71310037D01*
X174230676Y-70492567D01*
X175394126Y-70320513D01*
X176005568Y-70501264D01*
X179159822Y-52567595D02*
X180348889Y-53412062D01*
X180348889Y-53412062D02*
X181178290Y-54428367D01*
X181178290Y-54428367D02*
X181543028Y-55081525D01*
X181543028Y-55081525D02*
X181756696Y-55716831D01*
X181756696Y-55716831D02*
X181841223Y-56520652D01*
X181841223Y-56520652D02*
X181818542Y-57679354D01*
X181818542Y-57679354D02*
X181729355Y-59111225D01*
X181729355Y-59111225D02*
X181540852Y-61269147D01*
X181540852Y-61269147D02*
X181281871Y-63466623D01*
X181281871Y-63466623D02*
X180978104Y-65536577D01*
X180978104Y-65536577D02*
X180655242Y-67311931D01*
X180655242Y-67311931D02*
X180338978Y-68625608D01*
X180338978Y-68625608D02*
X180205229Y-69022708D01*
X180205229Y-69022708D02*
X179865529Y-69881694D01*
X179865529Y-69881694D02*
X178364563Y-68481607D01*
X178364563Y-68481607D02*
X176863597Y-67081521D01*
X176863597Y-67081521D02*
X176934211Y-64271233D01*
X176934211Y-64271233D02*
X176975700Y-62005040D01*
X176975700Y-62005040D02*
X176958849Y-60279501D01*
X176958849Y-60279501D02*
X176866994Y-58930948D01*
X176866994Y-58930948D02*
X176683473Y-57795712D01*
X176683473Y-57795712D02*
X176391625Y-56710122D01*
X176391625Y-56710122D02*
X176068299Y-55765609D01*
X176068299Y-55765609D02*
X175628125Y-54503189D01*
X175628125Y-54503189D02*
X175428357Y-53715931D01*
X175428357Y-53715931D02*
X175450894Y-53222503D01*
X175450894Y-53222503D02*
X175677637Y-52841572D01*
X175677637Y-52841572D02*
X175766308Y-52740236D01*
X175766308Y-52740236D02*
X176703422Y-52180180D01*
X176703422Y-52180180D02*
X177889629Y-52139800D01*
X177889629Y-52139800D02*
X179159822Y-52567595D01*
X179159822Y-52567595D02*
X179159822Y-52567595D01*
G36*
X179159822Y-52567595D02*
G01*
X180348889Y-53412062D01*
X181178290Y-54428367D01*
X181543028Y-55081525D01*
X181756696Y-55716831D01*
X181841223Y-56520652D01*
X181818542Y-57679354D01*
X181729355Y-59111225D01*
X181540852Y-61269147D01*
X181281871Y-63466623D01*
X180978104Y-65536577D01*
X180655242Y-67311931D01*
X180338978Y-68625608D01*
X180205229Y-69022708D01*
X179865529Y-69881694D01*
X178364563Y-68481607D01*
X176863597Y-67081521D01*
X176934211Y-64271233D01*
X176975700Y-62005040D01*
X176958849Y-60279501D01*
X176866994Y-58930948D01*
X176683473Y-57795712D01*
X176391625Y-56710122D01*
X176068299Y-55765609D01*
X175628125Y-54503189D01*
X175428357Y-53715931D01*
X175450894Y-53222503D01*
X175677637Y-52841572D01*
X175766308Y-52740236D01*
X176703422Y-52180180D01*
X177889629Y-52139800D01*
X179159822Y-52567595D01*
G37*
X179159822Y-52567595D02*
X180348889Y-53412062D01*
X181178290Y-54428367D01*
X181543028Y-55081525D01*
X181756696Y-55716831D01*
X181841223Y-56520652D01*
X181818542Y-57679354D01*
X181729355Y-59111225D01*
X181540852Y-61269147D01*
X181281871Y-63466623D01*
X180978104Y-65536577D01*
X180655242Y-67311931D01*
X180338978Y-68625608D01*
X180205229Y-69022708D01*
X179865529Y-69881694D01*
X178364563Y-68481607D01*
X176863597Y-67081521D01*
X176934211Y-64271233D01*
X176975700Y-62005040D01*
X176958849Y-60279501D01*
X176866994Y-58930948D01*
X176683473Y-57795712D01*
X176391625Y-56710122D01*
X176068299Y-55765609D01*
X175628125Y-54503189D01*
X175428357Y-53715931D01*
X175450894Y-53222503D01*
X175677637Y-52841572D01*
X175766308Y-52740236D01*
X176703422Y-52180180D01*
X177889629Y-52139800D01*
X179159822Y-52567595D01*
X145340620Y-65276076D02*
X145933674Y-65745653D01*
X145933674Y-65745653D02*
X146623232Y-66718640D01*
X146623232Y-66718640D02*
X147359579Y-68064849D01*
X147359579Y-68064849D02*
X148093002Y-69654094D01*
X148093002Y-69654094D02*
X148773787Y-71356186D01*
X148773787Y-71356186D02*
X149352221Y-73040940D01*
X149352221Y-73040940D02*
X149778590Y-74578167D01*
X149778590Y-74578167D02*
X150003180Y-75837681D01*
X150003180Y-75837681D02*
X149976278Y-76689295D01*
X149976278Y-76689295D02*
X149802671Y-76961038D01*
X149802671Y-76961038D02*
X149424111Y-76832227D01*
X149424111Y-76832227D02*
X148728567Y-76333889D01*
X148728567Y-76333889D02*
X148229090Y-75902789D01*
X148229090Y-75902789D02*
X147397291Y-75205501D01*
X147397291Y-75205501D02*
X146738342Y-74767053D01*
X146738342Y-74767053D02*
X146519384Y-74690111D01*
X146519384Y-74690111D02*
X146344958Y-74969540D01*
X146344958Y-74969540D02*
X146266843Y-75836491D01*
X146266843Y-75836491D02*
X146283031Y-77333961D01*
X146283031Y-77333961D02*
X146338105Y-78570667D01*
X146338105Y-78570667D02*
X146409078Y-80128790D01*
X146409078Y-80128790D02*
X146445087Y-81388391D01*
X146445087Y-81388391D02*
X146443495Y-82207453D01*
X146443495Y-82207453D02*
X146410205Y-82451222D01*
X146410205Y-82451222D02*
X146169798Y-82176850D01*
X146169798Y-82176850D02*
X145771037Y-81513394D01*
X145771037Y-81513394D02*
X145753510Y-81481083D01*
X145753510Y-81481083D02*
X144862935Y-79717311D01*
X144862935Y-79717311D02*
X144281004Y-78216779D01*
X144281004Y-78216779D02*
X143903715Y-76670422D01*
X143903715Y-76670422D02*
X143705743Y-75395667D01*
X143705743Y-75395667D02*
X143554364Y-73718789D01*
X143554364Y-73718789D02*
X143506308Y-71960434D01*
X143506308Y-71960434D02*
X143562553Y-70633167D01*
X143562553Y-70633167D02*
X143776603Y-69175809D01*
X143776603Y-69175809D02*
X144105011Y-67755888D01*
X144105011Y-67755888D02*
X144496258Y-66528627D01*
X144496258Y-66528627D02*
X144898823Y-65649246D01*
X144898823Y-65649246D02*
X145261188Y-65272968D01*
X145261188Y-65272968D02*
X145340620Y-65276076D01*
X145340620Y-65276076D02*
X145340620Y-65276076D01*
G36*
X145340620Y-65276076D02*
G01*
X145933674Y-65745653D01*
X146623232Y-66718640D01*
X147359579Y-68064849D01*
X148093002Y-69654094D01*
X148773787Y-71356186D01*
X149352221Y-73040940D01*
X149778590Y-74578167D01*
X150003180Y-75837681D01*
X149976278Y-76689295D01*
X149802671Y-76961038D01*
X149424111Y-76832227D01*
X148728567Y-76333889D01*
X148229090Y-75902789D01*
X147397291Y-75205501D01*
X146738342Y-74767053D01*
X146519384Y-74690111D01*
X146344958Y-74969540D01*
X146266843Y-75836491D01*
X146283031Y-77333961D01*
X146338105Y-78570667D01*
X146409078Y-80128790D01*
X146445087Y-81388391D01*
X146443495Y-82207453D01*
X146410205Y-82451222D01*
X146169798Y-82176850D01*
X145771037Y-81513394D01*
X145753510Y-81481083D01*
X144862935Y-79717311D01*
X144281004Y-78216779D01*
X143903715Y-76670422D01*
X143705743Y-75395667D01*
X143554364Y-73718789D01*
X143506308Y-71960434D01*
X143562553Y-70633167D01*
X143776603Y-69175809D01*
X144105011Y-67755888D01*
X144496258Y-66528627D01*
X144898823Y-65649246D01*
X145261188Y-65272968D01*
X145340620Y-65276076D01*
G37*
X145340620Y-65276076D02*
X145933674Y-65745653D01*
X146623232Y-66718640D01*
X147359579Y-68064849D01*
X148093002Y-69654094D01*
X148773787Y-71356186D01*
X149352221Y-73040940D01*
X149778590Y-74578167D01*
X150003180Y-75837681D01*
X149976278Y-76689295D01*
X149802671Y-76961038D01*
X149424111Y-76832227D01*
X148728567Y-76333889D01*
X148229090Y-75902789D01*
X147397291Y-75205501D01*
X146738342Y-74767053D01*
X146519384Y-74690111D01*
X146344958Y-74969540D01*
X146266843Y-75836491D01*
X146283031Y-77333961D01*
X146338105Y-78570667D01*
X146409078Y-80128790D01*
X146445087Y-81388391D01*
X146443495Y-82207453D01*
X146410205Y-82451222D01*
X146169798Y-82176850D01*
X145771037Y-81513394D01*
X145753510Y-81481083D01*
X144862935Y-79717311D01*
X144281004Y-78216779D01*
X143903715Y-76670422D01*
X143705743Y-75395667D01*
X143554364Y-73718789D01*
X143506308Y-71960434D01*
X143562553Y-70633167D01*
X143776603Y-69175809D01*
X144105011Y-67755888D01*
X144496258Y-66528627D01*
X144898823Y-65649246D01*
X145261188Y-65272968D01*
X145340620Y-65276076D01*
X153318333Y-62394215D02*
X153471792Y-62553434D01*
X153471792Y-62553434D02*
X154398824Y-63948747D01*
X154398824Y-63948747D02*
X154991026Y-65818114D01*
X154991026Y-65818114D02*
X155193115Y-67120216D01*
X155193115Y-67120216D02*
X155398503Y-68243325D01*
X155398503Y-68243325D02*
X155762045Y-69666473D01*
X155762045Y-69666473D02*
X156088402Y-70725060D01*
X156088402Y-70725060D02*
X156586462Y-72364425D01*
X156586462Y-72364425D02*
X156762989Y-73579976D01*
X156762989Y-73579976D02*
X156586371Y-74591139D01*
X156586371Y-74591139D02*
X156024996Y-75617338D01*
X156024996Y-75617338D02*
X155234922Y-76649101D01*
X155234922Y-76649101D02*
X154450435Y-77656826D01*
X154450435Y-77656826D02*
X153883020Y-78470740D01*
X153883020Y-78470740D02*
X153648397Y-78924058D01*
X153648397Y-78924058D02*
X153647422Y-78937172D01*
X153647422Y-78937172D02*
X153468412Y-79256985D01*
X153468412Y-79256985D02*
X152961063Y-78997309D01*
X152961063Y-78997309D02*
X152324506Y-78357934D01*
X152324506Y-78357934D02*
X151663151Y-77133341D01*
X151663151Y-77133341D02*
X151530756Y-76262032D01*
X151530756Y-76262032D02*
X151412532Y-75424461D01*
X151412532Y-75424461D02*
X151094367Y-74134898D01*
X151094367Y-74134898D02*
X150631019Y-72599334D01*
X150631019Y-72599334D02*
X150296139Y-71617695D01*
X150296139Y-71617695D02*
X149529492Y-69208251D01*
X149529492Y-69208251D02*
X149144382Y-67274162D01*
X149144382Y-67274162D02*
X149133821Y-65701838D01*
X149133821Y-65701838D02*
X149490822Y-64377688D01*
X149490822Y-64377688D02*
X149812840Y-63760238D01*
X149812840Y-63760238D02*
X150756502Y-62442260D01*
X150756502Y-62442260D02*
X151610521Y-61790034D01*
X151610521Y-61790034D02*
X152442073Y-61781404D01*
X152442073Y-61781404D02*
X153318333Y-62394215D01*
X153318333Y-62394215D02*
X153318333Y-62394215D01*
G36*
X153318333Y-62394215D02*
G01*
X153471792Y-62553434D01*
X154398824Y-63948747D01*
X154991026Y-65818114D01*
X155193115Y-67120216D01*
X155398503Y-68243325D01*
X155762045Y-69666473D01*
X156088402Y-70725060D01*
X156586462Y-72364425D01*
X156762989Y-73579976D01*
X156586371Y-74591139D01*
X156024996Y-75617338D01*
X155234922Y-76649101D01*
X154450435Y-77656826D01*
X153883020Y-78470740D01*
X153648397Y-78924058D01*
X153647422Y-78937172D01*
X153468412Y-79256985D01*
X152961063Y-78997309D01*
X152324506Y-78357934D01*
X151663151Y-77133341D01*
X151530756Y-76262032D01*
X151412532Y-75424461D01*
X151094367Y-74134898D01*
X150631019Y-72599334D01*
X150296139Y-71617695D01*
X149529492Y-69208251D01*
X149144382Y-67274162D01*
X149133821Y-65701838D01*
X149490822Y-64377688D01*
X149812840Y-63760238D01*
X150756502Y-62442260D01*
X151610521Y-61790034D01*
X152442073Y-61781404D01*
X153318333Y-62394215D01*
G37*
X153318333Y-62394215D02*
X153471792Y-62553434D01*
X154398824Y-63948747D01*
X154991026Y-65818114D01*
X155193115Y-67120216D01*
X155398503Y-68243325D01*
X155762045Y-69666473D01*
X156088402Y-70725060D01*
X156586462Y-72364425D01*
X156762989Y-73579976D01*
X156586371Y-74591139D01*
X156024996Y-75617338D01*
X155234922Y-76649101D01*
X154450435Y-77656826D01*
X153883020Y-78470740D01*
X153648397Y-78924058D01*
X153647422Y-78937172D01*
X153468412Y-79256985D01*
X152961063Y-78997309D01*
X152324506Y-78357934D01*
X151663151Y-77133341D01*
X151530756Y-76262032D01*
X151412532Y-75424461D01*
X151094367Y-74134898D01*
X150631019Y-72599334D01*
X150296139Y-71617695D01*
X149529492Y-69208251D01*
X149144382Y-67274162D01*
X149133821Y-65701838D01*
X149490822Y-64377688D01*
X149812840Y-63760238D01*
X150756502Y-62442260D01*
X151610521Y-61790034D01*
X152442073Y-61781404D01*
X153318333Y-62394215D01*
X143595182Y-78809653D02*
X143716237Y-79293885D01*
X143716237Y-79293885D02*
X144027077Y-80284212D01*
X144027077Y-80284212D02*
X144333598Y-80844053D01*
X144333598Y-80844053D02*
X144725341Y-81613120D01*
X144725341Y-81613120D02*
X144829187Y-82088745D01*
X144829187Y-82088745D02*
X144969009Y-82718324D01*
X144969009Y-82718324D02*
X145331422Y-83781029D01*
X145331422Y-83781029D02*
X145833174Y-85074162D01*
X145833174Y-85074162D02*
X146391016Y-86395029D01*
X146391016Y-86395029D02*
X146921696Y-87540933D01*
X146921696Y-87540933D02*
X147341962Y-88309177D01*
X147341962Y-88309177D02*
X147437836Y-88440166D01*
X147437836Y-88440166D02*
X147924957Y-89174013D01*
X147924957Y-89174013D02*
X148189574Y-90066757D01*
X148189574Y-90066757D02*
X148258467Y-91293606D01*
X148258467Y-91293606D02*
X148158415Y-93029766D01*
X148158415Y-93029766D02*
X148151517Y-93109542D01*
X148151517Y-93109542D02*
X147990007Y-94615186D01*
X147990007Y-94615186D02*
X147803800Y-95488274D01*
X147803800Y-95488274D02*
X147557230Y-95801720D01*
X147557230Y-95801720D02*
X147214636Y-95628437D01*
X147214636Y-95628437D02*
X147023484Y-95415806D01*
X147023484Y-95415806D02*
X146716791Y-94917884D01*
X146716791Y-94917884D02*
X146194993Y-93950681D01*
X146194993Y-93950681D02*
X145546940Y-92681642D01*
X145546940Y-92681642D02*
X145198427Y-91976222D01*
X145198427Y-91976222D02*
X144514980Y-90586039D01*
X144514980Y-90586039D02*
X143913400Y-89378528D01*
X143913400Y-89378528D02*
X143484773Y-88535824D01*
X143484773Y-88535824D02*
X143366806Y-88313655D01*
X143366806Y-88313655D02*
X143015386Y-87563857D01*
X143015386Y-87563857D02*
X142591364Y-86512922D01*
X142591364Y-86512922D02*
X142474291Y-86196988D01*
X142474291Y-86196988D02*
X142223993Y-85159910D01*
X142223993Y-85159910D02*
X142061464Y-83796132D01*
X142061464Y-83796132D02*
X141987107Y-82288766D01*
X141987107Y-82288766D02*
X142001324Y-80820925D01*
X142001324Y-80820925D02*
X142104517Y-79575720D01*
X142104517Y-79575720D02*
X142297088Y-78736263D01*
X142297088Y-78736263D02*
X142457390Y-78502437D01*
X142457390Y-78502437D02*
X143147206Y-78331237D01*
X143147206Y-78331237D02*
X143595182Y-78809653D01*
X143595182Y-78809653D02*
X143595182Y-78809653D01*
G36*
X143595182Y-78809653D02*
G01*
X143716237Y-79293885D01*
X144027077Y-80284212D01*
X144333598Y-80844053D01*
X144725341Y-81613120D01*
X144829187Y-82088745D01*
X144969009Y-82718324D01*
X145331422Y-83781029D01*
X145833174Y-85074162D01*
X146391016Y-86395029D01*
X146921696Y-87540933D01*
X147341962Y-88309177D01*
X147437836Y-88440166D01*
X147924957Y-89174013D01*
X148189574Y-90066757D01*
X148258467Y-91293606D01*
X148158415Y-93029766D01*
X148151517Y-93109542D01*
X147990007Y-94615186D01*
X147803800Y-95488274D01*
X147557230Y-95801720D01*
X147214636Y-95628437D01*
X147023484Y-95415806D01*
X146716791Y-94917884D01*
X146194993Y-93950681D01*
X145546940Y-92681642D01*
X145198427Y-91976222D01*
X144514980Y-90586039D01*
X143913400Y-89378528D01*
X143484773Y-88535824D01*
X143366806Y-88313655D01*
X143015386Y-87563857D01*
X142591364Y-86512922D01*
X142474291Y-86196988D01*
X142223993Y-85159910D01*
X142061464Y-83796132D01*
X141987107Y-82288766D01*
X142001324Y-80820925D01*
X142104517Y-79575720D01*
X142297088Y-78736263D01*
X142457390Y-78502437D01*
X143147206Y-78331237D01*
X143595182Y-78809653D01*
G37*
X143595182Y-78809653D02*
X143716237Y-79293885D01*
X144027077Y-80284212D01*
X144333598Y-80844053D01*
X144725341Y-81613120D01*
X144829187Y-82088745D01*
X144969009Y-82718324D01*
X145331422Y-83781029D01*
X145833174Y-85074162D01*
X146391016Y-86395029D01*
X146921696Y-87540933D01*
X147341962Y-88309177D01*
X147437836Y-88440166D01*
X147924957Y-89174013D01*
X148189574Y-90066757D01*
X148258467Y-91293606D01*
X148158415Y-93029766D01*
X148151517Y-93109542D01*
X147990007Y-94615186D01*
X147803800Y-95488274D01*
X147557230Y-95801720D01*
X147214636Y-95628437D01*
X147023484Y-95415806D01*
X146716791Y-94917884D01*
X146194993Y-93950681D01*
X145546940Y-92681642D01*
X145198427Y-91976222D01*
X144514980Y-90586039D01*
X143913400Y-89378528D01*
X143484773Y-88535824D01*
X143366806Y-88313655D01*
X143015386Y-87563857D01*
X142591364Y-86512922D01*
X142474291Y-86196988D01*
X142223993Y-85159910D01*
X142061464Y-83796132D01*
X141987107Y-82288766D01*
X142001324Y-80820925D01*
X142104517Y-79575720D01*
X142297088Y-78736263D01*
X142457390Y-78502437D01*
X143147206Y-78331237D01*
X143595182Y-78809653D01*
X148928019Y-46710804D02*
X149794884Y-47377269D01*
X149794884Y-47377269D02*
X150110294Y-47861529D01*
X150110294Y-47861529D02*
X150297401Y-48614962D01*
X150297401Y-48614962D02*
X150166618Y-49306919D01*
X150166618Y-49306919D02*
X149779949Y-49640564D01*
X149779949Y-49640564D02*
X149738183Y-49642889D01*
X149738183Y-49642889D02*
X149329031Y-49970369D01*
X149329031Y-49970369D02*
X148794113Y-50889573D01*
X148794113Y-50889573D02*
X148170207Y-52305651D01*
X148170207Y-52305651D02*
X147494091Y-54123749D01*
X147494091Y-54123749D02*
X146802545Y-56249017D01*
X146802545Y-56249017D02*
X146132346Y-58586602D01*
X146132346Y-58586602D02*
X145851548Y-59666503D01*
X145851548Y-59666503D02*
X145452965Y-60996480D01*
X145452965Y-60996480D02*
X145086230Y-61728509D01*
X145086230Y-61728509D02*
X144776407Y-61816832D01*
X144776407Y-61816832D02*
X144715356Y-61740510D01*
X144715356Y-61740510D02*
X144454630Y-60840722D01*
X144454630Y-60840722D02*
X144384156Y-59402230D01*
X144384156Y-59402230D02*
X144486367Y-57560586D01*
X144486367Y-57560586D02*
X144743700Y-55451342D01*
X144743700Y-55451342D02*
X145138590Y-53210052D01*
X145138590Y-53210052D02*
X145653472Y-50972266D01*
X145653472Y-50972266D02*
X146270782Y-48873537D01*
X146270782Y-48873537D02*
X146449541Y-48357206D01*
X146449541Y-48357206D02*
X147112783Y-47220076D01*
X147112783Y-47220076D02*
X147986463Y-46664841D01*
X147986463Y-46664841D02*
X148928019Y-46710804D01*
X148928019Y-46710804D02*
X148928019Y-46710804D01*
G36*
X148928019Y-46710804D02*
G01*
X149794884Y-47377269D01*
X150110294Y-47861529D01*
X150297401Y-48614962D01*
X150166618Y-49306919D01*
X149779949Y-49640564D01*
X149738183Y-49642889D01*
X149329031Y-49970369D01*
X148794113Y-50889573D01*
X148170207Y-52305651D01*
X147494091Y-54123749D01*
X146802545Y-56249017D01*
X146132346Y-58586602D01*
X145851548Y-59666503D01*
X145452965Y-60996480D01*
X145086230Y-61728509D01*
X144776407Y-61816832D01*
X144715356Y-61740510D01*
X144454630Y-60840722D01*
X144384156Y-59402230D01*
X144486367Y-57560586D01*
X144743700Y-55451342D01*
X145138590Y-53210052D01*
X145653472Y-50972266D01*
X146270782Y-48873537D01*
X146449541Y-48357206D01*
X147112783Y-47220076D01*
X147986463Y-46664841D01*
X148928019Y-46710804D01*
G37*
X148928019Y-46710804D02*
X149794884Y-47377269D01*
X150110294Y-47861529D01*
X150297401Y-48614962D01*
X150166618Y-49306919D01*
X149779949Y-49640564D01*
X149738183Y-49642889D01*
X149329031Y-49970369D01*
X148794113Y-50889573D01*
X148170207Y-52305651D01*
X147494091Y-54123749D01*
X146802545Y-56249017D01*
X146132346Y-58586602D01*
X145851548Y-59666503D01*
X145452965Y-60996480D01*
X145086230Y-61728509D01*
X144776407Y-61816832D01*
X144715356Y-61740510D01*
X144454630Y-60840722D01*
X144384156Y-59402230D01*
X144486367Y-57560586D01*
X144743700Y-55451342D01*
X145138590Y-53210052D01*
X145653472Y-50972266D01*
X146270782Y-48873537D01*
X146449541Y-48357206D01*
X147112783Y-47220076D01*
X147986463Y-46664841D01*
X148928019Y-46710804D01*
X163796962Y-46168432D02*
X163877989Y-47118512D01*
X163877989Y-47118512D02*
X163488360Y-48589160D01*
X163488360Y-48589160D02*
X162628083Y-50579118D01*
X162628083Y-50579118D02*
X161297170Y-53087127D01*
X161297170Y-53087127D02*
X160671902Y-54169157D01*
X160671902Y-54169157D02*
X159596590Y-56294619D01*
X159596590Y-56294619D02*
X158559713Y-58901183D01*
X158559713Y-58901183D02*
X157646346Y-61765938D01*
X157646346Y-61765938D02*
X157350314Y-62872055D01*
X157350314Y-62872055D02*
X157003340Y-64173981D01*
X157003340Y-64173981D02*
X156723215Y-65094828D01*
X156723215Y-65094828D02*
X156547705Y-65517536D01*
X156547705Y-65517536D02*
X156508244Y-65482237D01*
X156508244Y-65482237D02*
X156272380Y-64669794D01*
X156272380Y-64669794D02*
X155734857Y-63543780D01*
X155734857Y-63543780D02*
X155032691Y-62343228D01*
X155032691Y-62343228D02*
X154302896Y-61307172D01*
X154302896Y-61307172D02*
X153808184Y-60771775D01*
X153808184Y-60771775D02*
X153328541Y-60319767D01*
X153328541Y-60319767D02*
X153145844Y-59898693D01*
X153145844Y-59898693D02*
X153234014Y-59269402D01*
X153234014Y-59269402D02*
X153537028Y-58285244D01*
X153537028Y-58285244D02*
X154808461Y-54714327D01*
X154808461Y-54714327D02*
X156104907Y-51806248D01*
X156104907Y-51806248D02*
X157452336Y-49518291D01*
X157452336Y-49518291D02*
X158876717Y-47807739D01*
X158876717Y-47807739D02*
X160404022Y-46631876D01*
X160404022Y-46631876D02*
X160729848Y-46454181D01*
X160729848Y-46454181D02*
X162222901Y-45835008D01*
X162222901Y-45835008D02*
X163245269Y-45740178D01*
X163245269Y-45740178D02*
X163796962Y-46168432D01*
X163796962Y-46168432D02*
X163796962Y-46168432D01*
G36*
X163796962Y-46168432D02*
G01*
X163877989Y-47118512D01*
X163488360Y-48589160D01*
X162628083Y-50579118D01*
X161297170Y-53087127D01*
X160671902Y-54169157D01*
X159596590Y-56294619D01*
X158559713Y-58901183D01*
X157646346Y-61765938D01*
X157350314Y-62872055D01*
X157003340Y-64173981D01*
X156723215Y-65094828D01*
X156547705Y-65517536D01*
X156508244Y-65482237D01*
X156272380Y-64669794D01*
X155734857Y-63543780D01*
X155032691Y-62343228D01*
X154302896Y-61307172D01*
X153808184Y-60771775D01*
X153328541Y-60319767D01*
X153145844Y-59898693D01*
X153234014Y-59269402D01*
X153537028Y-58285244D01*
X154808461Y-54714327D01*
X156104907Y-51806248D01*
X157452336Y-49518291D01*
X158876717Y-47807739D01*
X160404022Y-46631876D01*
X160729848Y-46454181D01*
X162222901Y-45835008D01*
X163245269Y-45740178D01*
X163796962Y-46168432D01*
G37*
X163796962Y-46168432D02*
X163877989Y-47118512D01*
X163488360Y-48589160D01*
X162628083Y-50579118D01*
X161297170Y-53087127D01*
X160671902Y-54169157D01*
X159596590Y-56294619D01*
X158559713Y-58901183D01*
X157646346Y-61765938D01*
X157350314Y-62872055D01*
X157003340Y-64173981D01*
X156723215Y-65094828D01*
X156547705Y-65517536D01*
X156508244Y-65482237D01*
X156272380Y-64669794D01*
X155734857Y-63543780D01*
X155032691Y-62343228D01*
X154302896Y-61307172D01*
X153808184Y-60771775D01*
X153328541Y-60319767D01*
X153145844Y-59898693D01*
X153234014Y-59269402D01*
X153537028Y-58285244D01*
X154808461Y-54714327D01*
X156104907Y-51806248D01*
X157452336Y-49518291D01*
X158876717Y-47807739D01*
X160404022Y-46631876D01*
X160729848Y-46454181D01*
X162222901Y-45835008D01*
X163245269Y-45740178D01*
X163796962Y-46168432D01*
X192390549Y-69011003D02*
X192417155Y-69859571D01*
X192417155Y-69859571D02*
X192330406Y-71079936D01*
X192330406Y-71079936D02*
X192149339Y-72513439D01*
X192149339Y-72513439D02*
X191892993Y-74001421D01*
X191892993Y-74001421D02*
X191580403Y-75385223D01*
X191580403Y-75385223D02*
X191325364Y-76245102D01*
X191325364Y-76245102D02*
X190714400Y-77795175D01*
X190714400Y-77795175D02*
X189869585Y-79632923D01*
X189869585Y-79632923D02*
X188908784Y-81527010D01*
X188908784Y-81527010D02*
X187949862Y-83246099D01*
X187949862Y-83246099D02*
X187110685Y-84558855D01*
X187110685Y-84558855D02*
X187039956Y-84656083D01*
X187039956Y-84656083D02*
X186367098Y-85437272D01*
X186367098Y-85437272D02*
X185935723Y-85604486D01*
X185935723Y-85604486D02*
X185728689Y-85138253D01*
X185728689Y-85138253D02*
X185728850Y-84019105D01*
X185728850Y-84019105D02*
X185797417Y-83244972D01*
X185797417Y-83244972D02*
X186010696Y-81650820D01*
X186010696Y-81650820D02*
X186327901Y-80154788D01*
X186327901Y-80154788D02*
X186803379Y-78577891D01*
X186803379Y-78577891D02*
X187491478Y-76741144D01*
X187491478Y-76741144D02*
X188446546Y-74465563D01*
X188446546Y-74465563D02*
X188502161Y-74337333D01*
X188502161Y-74337333D02*
X188989980Y-73360795D01*
X188989980Y-73360795D02*
X189665317Y-72192167D01*
X189665317Y-72192167D02*
X190425512Y-70986828D01*
X190425512Y-70986828D02*
X191167903Y-69900157D01*
X191167903Y-69900157D02*
X191789828Y-69087532D01*
X191789828Y-69087532D02*
X192188625Y-68704333D01*
X192188625Y-68704333D02*
X192231551Y-68692889D01*
X192231551Y-68692889D02*
X192390549Y-69011003D01*
X192390549Y-69011003D02*
X192390549Y-69011003D01*
G36*
X192390549Y-69011003D02*
G01*
X192417155Y-69859571D01*
X192330406Y-71079936D01*
X192149339Y-72513439D01*
X191892993Y-74001421D01*
X191580403Y-75385223D01*
X191325364Y-76245102D01*
X190714400Y-77795175D01*
X189869585Y-79632923D01*
X188908784Y-81527010D01*
X187949862Y-83246099D01*
X187110685Y-84558855D01*
X187039956Y-84656083D01*
X186367098Y-85437272D01*
X185935723Y-85604486D01*
X185728689Y-85138253D01*
X185728850Y-84019105D01*
X185797417Y-83244972D01*
X186010696Y-81650820D01*
X186327901Y-80154788D01*
X186803379Y-78577891D01*
X187491478Y-76741144D01*
X188446546Y-74465563D01*
X188502161Y-74337333D01*
X188989980Y-73360795D01*
X189665317Y-72192167D01*
X190425512Y-70986828D01*
X191167903Y-69900157D01*
X191789828Y-69087532D01*
X192188625Y-68704333D01*
X192231551Y-68692889D01*
X192390549Y-69011003D01*
G37*
X192390549Y-69011003D02*
X192417155Y-69859571D01*
X192330406Y-71079936D01*
X192149339Y-72513439D01*
X191892993Y-74001421D01*
X191580403Y-75385223D01*
X191325364Y-76245102D01*
X190714400Y-77795175D01*
X189869585Y-79632923D01*
X188908784Y-81527010D01*
X187949862Y-83246099D01*
X187110685Y-84558855D01*
X187039956Y-84656083D01*
X186367098Y-85437272D01*
X185935723Y-85604486D01*
X185728689Y-85138253D01*
X185728850Y-84019105D01*
X185797417Y-83244972D01*
X186010696Y-81650820D01*
X186327901Y-80154788D01*
X186803379Y-78577891D01*
X187491478Y-76741144D01*
X188446546Y-74465563D01*
X188502161Y-74337333D01*
X188989980Y-73360795D01*
X189665317Y-72192167D01*
X190425512Y-70986828D01*
X191167903Y-69900157D01*
X191789828Y-69087532D01*
X192188625Y-68704333D01*
X192231551Y-68692889D01*
X192390549Y-69011003D01*
X184215899Y-46978578D02*
X184633861Y-47465648D01*
X184633861Y-47465648D02*
X184934066Y-47952334D01*
X184934066Y-47952334D02*
X185831132Y-49868471D01*
X185831132Y-49868471D02*
X186484705Y-52029148D01*
X186484705Y-52029148D02*
X186795816Y-54087581D01*
X186795816Y-54087581D02*
X186808533Y-54520608D01*
X186808533Y-54520608D02*
X186781731Y-55564372D01*
X186781731Y-55564372D02*
X186617219Y-56110072D01*
X186617219Y-56110072D02*
X186188836Y-56365107D01*
X186188836Y-56365107D02*
X185609259Y-56492130D01*
X185609259Y-56492130D02*
X184661459Y-56792001D01*
X184661459Y-56792001D02*
X184000510Y-57211885D01*
X184000510Y-57211885D02*
X183978564Y-57236946D01*
X183978564Y-57236946D02*
X183500500Y-57678232D01*
X183500500Y-57678232D02*
X183175708Y-57580327D01*
X183175708Y-57580327D02*
X182948865Y-56882363D01*
X182948865Y-56882363D02*
X182812772Y-55954242D01*
X182812772Y-55954242D02*
X182547237Y-54635975D01*
X182547237Y-54635975D02*
X182125775Y-53408511D01*
X182125775Y-53408511D02*
X181926095Y-53010730D01*
X181926095Y-53010730D02*
X181563547Y-52349900D01*
X181563547Y-52349900D02*
X181443942Y-51828512D01*
X181443942Y-51828512D02*
X181582227Y-51202505D01*
X181582227Y-51202505D02*
X181993350Y-50227814D01*
X181993350Y-50227814D02*
X182112781Y-49962570D01*
X182112781Y-49962570D02*
X182852703Y-48370243D01*
X182852703Y-48370243D02*
X183400045Y-47377631D01*
X183400045Y-47377631D02*
X183829535Y-46931491D01*
X183829535Y-46931491D02*
X184215899Y-46978578D01*
X184215899Y-46978578D02*
X184215899Y-46978578D01*
G36*
X184215899Y-46978578D02*
G01*
X184633861Y-47465648D01*
X184934066Y-47952334D01*
X185831132Y-49868471D01*
X186484705Y-52029148D01*
X186795816Y-54087581D01*
X186808533Y-54520608D01*
X186781731Y-55564372D01*
X186617219Y-56110072D01*
X186188836Y-56365107D01*
X185609259Y-56492130D01*
X184661459Y-56792001D01*
X184000510Y-57211885D01*
X183978564Y-57236946D01*
X183500500Y-57678232D01*
X183175708Y-57580327D01*
X182948865Y-56882363D01*
X182812772Y-55954242D01*
X182547237Y-54635975D01*
X182125775Y-53408511D01*
X181926095Y-53010730D01*
X181563547Y-52349900D01*
X181443942Y-51828512D01*
X181582227Y-51202505D01*
X181993350Y-50227814D01*
X182112781Y-49962570D01*
X182852703Y-48370243D01*
X183400045Y-47377631D01*
X183829535Y-46931491D01*
X184215899Y-46978578D01*
G37*
X184215899Y-46978578D02*
X184633861Y-47465648D01*
X184934066Y-47952334D01*
X185831132Y-49868471D01*
X186484705Y-52029148D01*
X186795816Y-54087581D01*
X186808533Y-54520608D01*
X186781731Y-55564372D01*
X186617219Y-56110072D01*
X186188836Y-56365107D01*
X185609259Y-56492130D01*
X184661459Y-56792001D01*
X184000510Y-57211885D01*
X183978564Y-57236946D01*
X183500500Y-57678232D01*
X183175708Y-57580327D01*
X182948865Y-56882363D01*
X182812772Y-55954242D01*
X182547237Y-54635975D01*
X182125775Y-53408511D01*
X181926095Y-53010730D01*
X181563547Y-52349900D01*
X181443942Y-51828512D01*
X181582227Y-51202505D01*
X181993350Y-50227814D01*
X182112781Y-49962570D01*
X182852703Y-48370243D01*
X183400045Y-47377631D01*
X183829535Y-46931491D01*
X184215899Y-46978578D01*
X171377601Y-48885551D02*
X172782039Y-49454866D01*
X172782039Y-49454866D02*
X173289875Y-49850493D01*
X173289875Y-49850493D02*
X173874373Y-50626783D01*
X173874373Y-50626783D02*
X173806074Y-51136367D01*
X173806074Y-51136367D02*
X173083778Y-51381806D01*
X173083778Y-51381806D02*
X172561708Y-51406778D01*
X172561708Y-51406778D02*
X171450049Y-51651409D01*
X171450049Y-51651409D02*
X170527868Y-52430029D01*
X170527868Y-52430029D02*
X169732062Y-53809724D01*
X169732062Y-53809724D02*
X169326321Y-54846361D01*
X169326321Y-54846361D02*
X168894211Y-55863061D01*
X168894211Y-55863061D02*
X168462763Y-56535777D01*
X168462763Y-56535777D02*
X168218011Y-56698444D01*
X168218011Y-56698444D02*
X167795065Y-56488670D01*
X167795065Y-56488670D02*
X167758533Y-56354726D01*
X167758533Y-56354726D02*
X167451969Y-55925450D01*
X167451969Y-55925450D02*
X166691646Y-55472671D01*
X166691646Y-55472671D02*
X165716621Y-55106369D01*
X165716621Y-55106369D02*
X164765948Y-54936523D01*
X164765948Y-54936523D02*
X164671608Y-54934555D01*
X164671608Y-54934555D02*
X163518408Y-54728945D01*
X163518408Y-54728945D02*
X162927110Y-54149264D01*
X162927110Y-54149264D02*
X162900079Y-53251238D01*
X162900079Y-53251238D02*
X163439678Y-52090591D01*
X163439678Y-52090591D02*
X164495339Y-50778527D01*
X164495339Y-50778527D02*
X165585458Y-49727152D01*
X165585458Y-49727152D02*
X166505224Y-49115740D01*
X166505224Y-49115740D02*
X167481782Y-48801328D01*
X167481782Y-48801328D02*
X167698709Y-48762350D01*
X167698709Y-48762350D02*
X169617245Y-48641885D01*
X169617245Y-48641885D02*
X171377601Y-48885551D01*
X171377601Y-48885551D02*
X171377601Y-48885551D01*
G36*
X171377601Y-48885551D02*
G01*
X172782039Y-49454866D01*
X173289875Y-49850493D01*
X173874373Y-50626783D01*
X173806074Y-51136367D01*
X173083778Y-51381806D01*
X172561708Y-51406778D01*
X171450049Y-51651409D01*
X170527868Y-52430029D01*
X169732062Y-53809724D01*
X169326321Y-54846361D01*
X168894211Y-55863061D01*
X168462763Y-56535777D01*
X168218011Y-56698444D01*
X167795065Y-56488670D01*
X167758533Y-56354726D01*
X167451969Y-55925450D01*
X166691646Y-55472671D01*
X165716621Y-55106369D01*
X164765948Y-54936523D01*
X164671608Y-54934555D01*
X163518408Y-54728945D01*
X162927110Y-54149264D01*
X162900079Y-53251238D01*
X163439678Y-52090591D01*
X164495339Y-50778527D01*
X165585458Y-49727152D01*
X166505224Y-49115740D01*
X167481782Y-48801328D01*
X167698709Y-48762350D01*
X169617245Y-48641885D01*
X171377601Y-48885551D01*
G37*
X171377601Y-48885551D02*
X172782039Y-49454866D01*
X173289875Y-49850493D01*
X173874373Y-50626783D01*
X173806074Y-51136367D01*
X173083778Y-51381806D01*
X172561708Y-51406778D01*
X171450049Y-51651409D01*
X170527868Y-52430029D01*
X169732062Y-53809724D01*
X169326321Y-54846361D01*
X168894211Y-55863061D01*
X168462763Y-56535777D01*
X168218011Y-56698444D01*
X167795065Y-56488670D01*
X167758533Y-56354726D01*
X167451969Y-55925450D01*
X166691646Y-55472671D01*
X165716621Y-55106369D01*
X164765948Y-54936523D01*
X164671608Y-54934555D01*
X163518408Y-54728945D01*
X162927110Y-54149264D01*
X162900079Y-53251238D01*
X163439678Y-52090591D01*
X164495339Y-50778527D01*
X165585458Y-49727152D01*
X166505224Y-49115740D01*
X167481782Y-48801328D01*
X167698709Y-48762350D01*
X169617245Y-48641885D01*
X171377601Y-48885551D01*
X169112698Y-84899822D02*
X170564797Y-85831078D01*
X170564797Y-85831078D02*
X171838721Y-87264838D01*
X171838721Y-87264838D02*
X171940650Y-87416776D01*
X171940650Y-87416776D02*
X172842470Y-88977772D01*
X172842470Y-88977772D02*
X173251851Y-90248640D01*
X173251851Y-90248640D02*
X173197067Y-91415344D01*
X173197067Y-91415344D02*
X172731120Y-92615725D01*
X172731120Y-92615725D02*
X172274425Y-93694327D01*
X172274425Y-93694327D02*
X172014591Y-94663497D01*
X172014591Y-94663497D02*
X171991867Y-94917584D01*
X171991867Y-94917584D02*
X171800803Y-95750050D01*
X171800803Y-95750050D02*
X171500654Y-96178056D01*
X171500654Y-96178056D02*
X171015831Y-96788853D01*
X171015831Y-96788853D02*
X170580770Y-97620632D01*
X170580770Y-97620632D02*
X170072746Y-98421390D01*
X170072746Y-98421390D02*
X169473113Y-98871039D01*
X169473113Y-98871039D02*
X168326108Y-99542611D01*
X168326108Y-99542611D02*
X167290731Y-100685960D01*
X167290731Y-100685960D02*
X166580525Y-102053631D01*
X166580525Y-102053631D02*
X166119890Y-103105035D01*
X166119890Y-103105035D02*
X165668133Y-103462287D01*
X165668133Y-103462287D02*
X165165196Y-103133417D01*
X165165196Y-103133417D02*
X164648095Y-102311978D01*
X164648095Y-102311978D02*
X163818469Y-100718977D01*
X163818469Y-100718977D02*
X163249089Y-99491249D01*
X163249089Y-99491249D02*
X162844884Y-98384509D01*
X162844884Y-98384509D02*
X162510784Y-97154474D01*
X162510784Y-97154474D02*
X162322148Y-96335468D01*
X162322148Y-96335468D02*
X161952853Y-94486137D01*
X161952853Y-94486137D02*
X161815997Y-93081679D01*
X161815997Y-93081679D02*
X161933941Y-91893415D01*
X161933941Y-91893415D02*
X162329047Y-90692662D01*
X162329047Y-90692662D02*
X163012896Y-89271494D01*
X163012896Y-89271494D02*
X164066808Y-87520636D01*
X164066808Y-87520636D02*
X165213080Y-86087766D01*
X165213080Y-86087766D02*
X166349048Y-85077495D01*
X166349048Y-85077495D02*
X167372048Y-84594433D01*
X167372048Y-84594433D02*
X167628952Y-84567889D01*
X167628952Y-84567889D02*
X169112698Y-84899822D01*
X169112698Y-84899822D02*
X169112698Y-84899822D01*
G36*
X169112698Y-84899822D02*
G01*
X170564797Y-85831078D01*
X171838721Y-87264838D01*
X171940650Y-87416776D01*
X172842470Y-88977772D01*
X173251851Y-90248640D01*
X173197067Y-91415344D01*
X172731120Y-92615725D01*
X172274425Y-93694327D01*
X172014591Y-94663497D01*
X171991867Y-94917584D01*
X171800803Y-95750050D01*
X171500654Y-96178056D01*
X171015831Y-96788853D01*
X170580770Y-97620632D01*
X170072746Y-98421390D01*
X169473113Y-98871039D01*
X168326108Y-99542611D01*
X167290731Y-100685960D01*
X166580525Y-102053631D01*
X166119890Y-103105035D01*
X165668133Y-103462287D01*
X165165196Y-103133417D01*
X164648095Y-102311978D01*
X163818469Y-100718977D01*
X163249089Y-99491249D01*
X162844884Y-98384509D01*
X162510784Y-97154474D01*
X162322148Y-96335468D01*
X161952853Y-94486137D01*
X161815997Y-93081679D01*
X161933941Y-91893415D01*
X162329047Y-90692662D01*
X163012896Y-89271494D01*
X164066808Y-87520636D01*
X165213080Y-86087766D01*
X166349048Y-85077495D01*
X167372048Y-84594433D01*
X167628952Y-84567889D01*
X169112698Y-84899822D01*
G37*
X169112698Y-84899822D02*
X170564797Y-85831078D01*
X171838721Y-87264838D01*
X171940650Y-87416776D01*
X172842470Y-88977772D01*
X173251851Y-90248640D01*
X173197067Y-91415344D01*
X172731120Y-92615725D01*
X172274425Y-93694327D01*
X172014591Y-94663497D01*
X171991867Y-94917584D01*
X171800803Y-95750050D01*
X171500654Y-96178056D01*
X171015831Y-96788853D01*
X170580770Y-97620632D01*
X170072746Y-98421390D01*
X169473113Y-98871039D01*
X168326108Y-99542611D01*
X167290731Y-100685960D01*
X166580525Y-102053631D01*
X166119890Y-103105035D01*
X165668133Y-103462287D01*
X165165196Y-103133417D01*
X164648095Y-102311978D01*
X163818469Y-100718977D01*
X163249089Y-99491249D01*
X162844884Y-98384509D01*
X162510784Y-97154474D01*
X162322148Y-96335468D01*
X161952853Y-94486137D01*
X161815997Y-93081679D01*
X161933941Y-91893415D01*
X162329047Y-90692662D01*
X163012896Y-89271494D01*
X164066808Y-87520636D01*
X165213080Y-86087766D01*
X166349048Y-85077495D01*
X167372048Y-84594433D01*
X167628952Y-84567889D01*
X169112698Y-84899822D01*
X159740704Y-76599738D02*
X160712677Y-77037680D01*
X160712677Y-77037680D02*
X161461365Y-77629270D01*
X161461365Y-77629270D02*
X162410756Y-78502843D01*
X162410756Y-78502843D02*
X163429012Y-79519927D01*
X163429012Y-79519927D02*
X164384295Y-80542045D01*
X164384295Y-80542045D02*
X165144768Y-81430724D01*
X165144768Y-81430724D02*
X165578592Y-82047490D01*
X165578592Y-82047490D02*
X165632138Y-82204781D01*
X165632138Y-82204781D02*
X165408974Y-82597248D01*
X165408974Y-82597248D02*
X164835742Y-83340261D01*
X164835742Y-83340261D02*
X164045306Y-84283065D01*
X164045306Y-84283065D02*
X163170529Y-85274902D01*
X163170529Y-85274902D02*
X162344277Y-86165018D01*
X162344277Y-86165018D02*
X161699413Y-86802655D01*
X161699413Y-86802655D02*
X161373117Y-87037333D01*
X161373117Y-87037333D02*
X161160108Y-86744984D01*
X161160108Y-86744984D02*
X160760921Y-85989712D01*
X160760921Y-85989712D02*
X160399155Y-85230589D01*
X160399155Y-85230589D02*
X159570295Y-83423844D01*
X159570295Y-83423844D02*
X158053725Y-83631713D01*
X158053725Y-83631713D02*
X157032309Y-83708720D01*
X157032309Y-83708720D02*
X156375233Y-83502629D01*
X156375233Y-83502629D02*
X155888033Y-82879336D01*
X155888033Y-82879336D02*
X155420031Y-81815498D01*
X155420031Y-81815498D02*
X155163827Y-80387331D01*
X155163827Y-80387331D02*
X155454905Y-79041206D01*
X155454905Y-79041206D02*
X156175698Y-77883254D01*
X156175698Y-77883254D02*
X157208640Y-77019605D01*
X157208640Y-77019605D02*
X158436164Y-76556389D01*
X158436164Y-76556389D02*
X159740704Y-76599738D01*
X159740704Y-76599738D02*
X159740704Y-76599738D01*
G36*
X159740704Y-76599738D02*
G01*
X160712677Y-77037680D01*
X161461365Y-77629270D01*
X162410756Y-78502843D01*
X163429012Y-79519927D01*
X164384295Y-80542045D01*
X165144768Y-81430724D01*
X165578592Y-82047490D01*
X165632138Y-82204781D01*
X165408974Y-82597248D01*
X164835742Y-83340261D01*
X164045306Y-84283065D01*
X163170529Y-85274902D01*
X162344277Y-86165018D01*
X161699413Y-86802655D01*
X161373117Y-87037333D01*
X161160108Y-86744984D01*
X160760921Y-85989712D01*
X160399155Y-85230589D01*
X159570295Y-83423844D01*
X158053725Y-83631713D01*
X157032309Y-83708720D01*
X156375233Y-83502629D01*
X155888033Y-82879336D01*
X155420031Y-81815498D01*
X155163827Y-80387331D01*
X155454905Y-79041206D01*
X156175698Y-77883254D01*
X157208640Y-77019605D01*
X158436164Y-76556389D01*
X159740704Y-76599738D01*
G37*
X159740704Y-76599738D02*
X160712677Y-77037680D01*
X161461365Y-77629270D01*
X162410756Y-78502843D01*
X163429012Y-79519927D01*
X164384295Y-80542045D01*
X165144768Y-81430724D01*
X165578592Y-82047490D01*
X165632138Y-82204781D01*
X165408974Y-82597248D01*
X164835742Y-83340261D01*
X164045306Y-84283065D01*
X163170529Y-85274902D01*
X162344277Y-86165018D01*
X161699413Y-86802655D01*
X161373117Y-87037333D01*
X161160108Y-86744984D01*
X160760921Y-85989712D01*
X160399155Y-85230589D01*
X159570295Y-83423844D01*
X158053725Y-83631713D01*
X157032309Y-83708720D01*
X156375233Y-83502629D01*
X155888033Y-82879336D01*
X155420031Y-81815498D01*
X155163827Y-80387331D01*
X155454905Y-79041206D01*
X156175698Y-77883254D01*
X157208640Y-77019605D01*
X158436164Y-76556389D01*
X159740704Y-76599738D01*
X179135766Y-101237555D02*
X179405725Y-101621762D01*
X179405725Y-101621762D02*
X179116900Y-102355047D01*
X179116900Y-102355047D02*
X178948008Y-102592198D01*
X178948008Y-102592198D02*
X178348179Y-103049715D01*
X178348179Y-103049715D02*
X177371573Y-103475902D01*
X177371573Y-103475902D02*
X176196029Y-103832340D01*
X176196029Y-103832340D02*
X174999387Y-104080608D01*
X174999387Y-104080608D02*
X173959485Y-104182287D01*
X173959485Y-104182287D02*
X173254162Y-104098958D01*
X173254162Y-104098958D02*
X173050200Y-103866338D01*
X173050200Y-103866338D02*
X173348024Y-103463502D01*
X173348024Y-103463502D02*
X174101543Y-102980122D01*
X174101543Y-102980122D02*
X174549506Y-102770395D01*
X174549506Y-102770395D02*
X175760685Y-102254549D01*
X175760685Y-102254549D02*
X176913081Y-101753744D01*
X176913081Y-101753744D02*
X177160459Y-101644171D01*
X177160459Y-101644171D02*
X178367264Y-101234375D01*
X178367264Y-101234375D02*
X179135766Y-101237555D01*
X179135766Y-101237555D02*
X179135766Y-101237555D01*
G36*
X179135766Y-101237555D02*
G01*
X179405725Y-101621762D01*
X179116900Y-102355047D01*
X178948008Y-102592198D01*
X178348179Y-103049715D01*
X177371573Y-103475902D01*
X176196029Y-103832340D01*
X174999387Y-104080608D01*
X173959485Y-104182287D01*
X173254162Y-104098958D01*
X173050200Y-103866338D01*
X173348024Y-103463502D01*
X174101543Y-102980122D01*
X174549506Y-102770395D01*
X175760685Y-102254549D01*
X176913081Y-101753744D01*
X177160459Y-101644171D01*
X178367264Y-101234375D01*
X179135766Y-101237555D01*
G37*
X179135766Y-101237555D02*
X179405725Y-101621762D01*
X179116900Y-102355047D01*
X178948008Y-102592198D01*
X178348179Y-103049715D01*
X177371573Y-103475902D01*
X176196029Y-103832340D01*
X174999387Y-104080608D01*
X173959485Y-104182287D01*
X173254162Y-104098958D01*
X173050200Y-103866338D01*
X173348024Y-103463502D01*
X174101543Y-102980122D01*
X174549506Y-102770395D01*
X175760685Y-102254549D01*
X176913081Y-101753744D01*
X177160459Y-101644171D01*
X178367264Y-101234375D01*
X179135766Y-101237555D01*
X186355526Y-57824875D02*
X187231615Y-57999272D01*
X187231615Y-57999272D02*
X187824644Y-58465241D01*
X187824644Y-58465241D02*
X188350070Y-59332733D01*
X188350070Y-59332733D02*
X188878617Y-60950700D01*
X188878617Y-60950700D02*
X189093307Y-63083974D01*
X189093307Y-63083974D02*
X188986023Y-65611990D01*
X188986023Y-65611990D02*
X188847967Y-66728546D01*
X188847967Y-66728546D02*
X188615776Y-67927223D01*
X188615776Y-67927223D02*
X188249428Y-69387524D01*
X188249428Y-69387524D02*
X187801532Y-70942941D01*
X187801532Y-70942941D02*
X187324694Y-72426968D01*
X187324694Y-72426968D02*
X186871523Y-73673099D01*
X186871523Y-73673099D02*
X186494626Y-74514826D01*
X186494626Y-74514826D02*
X186306361Y-74772903D01*
X186306361Y-74772903D02*
X185756894Y-74921864D01*
X185756894Y-74921864D02*
X184769120Y-75018181D01*
X184769120Y-75018181D02*
X184081227Y-75037487D01*
X184081227Y-75037487D02*
X182979491Y-75003554D01*
X182979491Y-75003554D02*
X182386976Y-74843389D01*
X182386976Y-74843389D02*
X182109200Y-74481922D01*
X182109200Y-74481922D02*
X182038892Y-74249139D01*
X182038892Y-74249139D02*
X181647522Y-72011826D01*
X181647522Y-72011826D02*
X181479969Y-69513062D01*
X181479969Y-69513062D02*
X181525730Y-66946030D01*
X181525730Y-66946030D02*
X181774304Y-64503916D01*
X181774304Y-64503916D02*
X182215189Y-62379903D01*
X182215189Y-62379903D02*
X182764197Y-60906898D01*
X182764197Y-60906898D02*
X183639969Y-59355516D01*
X183639969Y-59355516D02*
X184441503Y-58388007D01*
X184441503Y-58388007D02*
X185281279Y-57907842D01*
X185281279Y-57907842D02*
X186271777Y-57818491D01*
X186271777Y-57818491D02*
X186355526Y-57824875D01*
X186355526Y-57824875D02*
X186355526Y-57824875D01*
G36*
X186355526Y-57824875D02*
G01*
X187231615Y-57999272D01*
X187824644Y-58465241D01*
X188350070Y-59332733D01*
X188878617Y-60950700D01*
X189093307Y-63083974D01*
X188986023Y-65611990D01*
X188847967Y-66728546D01*
X188615776Y-67927223D01*
X188249428Y-69387524D01*
X187801532Y-70942941D01*
X187324694Y-72426968D01*
X186871523Y-73673099D01*
X186494626Y-74514826D01*
X186306361Y-74772903D01*
X185756894Y-74921864D01*
X184769120Y-75018181D01*
X184081227Y-75037487D01*
X182979491Y-75003554D01*
X182386976Y-74843389D01*
X182109200Y-74481922D01*
X182038892Y-74249139D01*
X181647522Y-72011826D01*
X181479969Y-69513062D01*
X181525730Y-66946030D01*
X181774304Y-64503916D01*
X182215189Y-62379903D01*
X182764197Y-60906898D01*
X183639969Y-59355516D01*
X184441503Y-58388007D01*
X185281279Y-57907842D01*
X186271777Y-57818491D01*
X186355526Y-57824875D01*
G37*
X186355526Y-57824875D02*
X187231615Y-57999272D01*
X187824644Y-58465241D01*
X188350070Y-59332733D01*
X188878617Y-60950700D01*
X189093307Y-63083974D01*
X188986023Y-65611990D01*
X188847967Y-66728546D01*
X188615776Y-67927223D01*
X188249428Y-69387524D01*
X187801532Y-70942941D01*
X187324694Y-72426968D01*
X186871523Y-73673099D01*
X186494626Y-74514826D01*
X186306361Y-74772903D01*
X185756894Y-74921864D01*
X184769120Y-75018181D01*
X184081227Y-75037487D01*
X182979491Y-75003554D01*
X182386976Y-74843389D01*
X182109200Y-74481922D01*
X182038892Y-74249139D01*
X181647522Y-72011826D01*
X181479969Y-69513062D01*
X181525730Y-66946030D01*
X181774304Y-64503916D01*
X182215189Y-62379903D01*
X182764197Y-60906898D01*
X183639969Y-59355516D01*
X184441503Y-58388007D01*
X185281279Y-57907842D01*
X186271777Y-57818491D01*
X186355526Y-57824875D01*
X171042067Y-101538784D02*
X171661870Y-102445547D01*
X171661870Y-102445547D02*
X171953929Y-103912331D01*
X171953929Y-103912331D02*
X171915954Y-105916356D01*
X171915954Y-105916356D02*
X171545658Y-108434839D01*
X171545658Y-108434839D02*
X170840752Y-111444999D01*
X170840752Y-111444999D02*
X170086951Y-114024833D01*
X170086951Y-114024833D02*
X169582888Y-115294444D01*
X169582888Y-115294444D02*
X168949351Y-116461264D01*
X168949351Y-116461264D02*
X168674510Y-116847055D01*
X168674510Y-116847055D02*
X167815247Y-117905389D01*
X167815247Y-117905389D02*
X167395632Y-116847055D01*
X167395632Y-116847055D02*
X167087134Y-115627846D01*
X167087134Y-115627846D02*
X166877823Y-113896323D01*
X166877823Y-113896323D02*
X166770454Y-111839107D01*
X166770454Y-111839107D02*
X166767784Y-109642819D01*
X166767784Y-109642819D02*
X166872569Y-107494081D01*
X166872569Y-107494081D02*
X167087564Y-105579513D01*
X167087564Y-105579513D02*
X167218549Y-104855736D01*
X167218549Y-104855736D02*
X167546681Y-103394457D01*
X167546681Y-103394457D02*
X167833167Y-102471227D01*
X167833167Y-102471227D02*
X168153581Y-101928343D01*
X168153581Y-101928343D02*
X168583497Y-101608104D01*
X168583497Y-101608104D02*
X168828382Y-101496453D01*
X168828382Y-101496453D02*
X170096808Y-101214826D01*
X170096808Y-101214826D02*
X171042067Y-101538784D01*
X171042067Y-101538784D02*
X171042067Y-101538784D01*
G36*
X171042067Y-101538784D02*
G01*
X171661870Y-102445547D01*
X171953929Y-103912331D01*
X171915954Y-105916356D01*
X171545658Y-108434839D01*
X170840752Y-111444999D01*
X170086951Y-114024833D01*
X169582888Y-115294444D01*
X168949351Y-116461264D01*
X168674510Y-116847055D01*
X167815247Y-117905389D01*
X167395632Y-116847055D01*
X167087134Y-115627846D01*
X166877823Y-113896323D01*
X166770454Y-111839107D01*
X166767784Y-109642819D01*
X166872569Y-107494081D01*
X167087564Y-105579513D01*
X167218549Y-104855736D01*
X167546681Y-103394457D01*
X167833167Y-102471227D01*
X168153581Y-101928343D01*
X168583497Y-101608104D01*
X168828382Y-101496453D01*
X170096808Y-101214826D01*
X171042067Y-101538784D01*
G37*
X171042067Y-101538784D02*
X171661870Y-102445547D01*
X171953929Y-103912331D01*
X171915954Y-105916356D01*
X171545658Y-108434839D01*
X170840752Y-111444999D01*
X170086951Y-114024833D01*
X169582888Y-115294444D01*
X168949351Y-116461264D01*
X168674510Y-116847055D01*
X167815247Y-117905389D01*
X167395632Y-116847055D01*
X167087134Y-115627846D01*
X166877823Y-113896323D01*
X166770454Y-111839107D01*
X166767784Y-109642819D01*
X166872569Y-107494081D01*
X167087564Y-105579513D01*
X167218549Y-104855736D01*
X167546681Y-103394457D01*
X167833167Y-102471227D01*
X168153581Y-101928343D01*
X168583497Y-101608104D01*
X168828382Y-101496453D01*
X170096808Y-101214826D01*
X171042067Y-101538784D01*
X183409328Y-91193298D02*
X183361735Y-91674734D01*
X183361735Y-91674734D02*
X183012626Y-92591790D01*
X183012626Y-92591790D02*
X182444847Y-93788418D01*
X182444847Y-93788418D02*
X181741247Y-95108570D01*
X181741247Y-95108570D02*
X180984673Y-96396197D01*
X180984673Y-96396197D02*
X180257972Y-97495251D01*
X180257972Y-97495251D02*
X179685606Y-98207155D01*
X179685606Y-98207155D02*
X178870974Y-98942879D01*
X178870974Y-98942879D02*
X178133404Y-99427241D01*
X178133404Y-99427241D02*
X177955929Y-99495444D01*
X177955929Y-99495444D02*
X177509923Y-99541294D01*
X177509923Y-99541294D02*
X177543751Y-99208754D01*
X177543751Y-99208754D02*
X177690706Y-98908956D01*
X177690706Y-98908956D02*
X178024573Y-98357076D01*
X178024573Y-98357076D02*
X178655592Y-97383575D01*
X178655592Y-97383575D02*
X179481945Y-96138893D01*
X179481945Y-96138893D02*
X180401811Y-94773471D01*
X180401811Y-94773471D02*
X181313371Y-93437748D01*
X181313371Y-93437748D02*
X182114807Y-92282165D01*
X182114807Y-92282165D02*
X182704300Y-91457162D01*
X182704300Y-91457162D02*
X182940848Y-91151734D01*
X182940848Y-91151734D02*
X183321444Y-91095300D01*
X183321444Y-91095300D02*
X183409328Y-91193298D01*
X183409328Y-91193298D02*
X183409328Y-91193298D01*
G36*
X183409328Y-91193298D02*
G01*
X183361735Y-91674734D01*
X183012626Y-92591790D01*
X182444847Y-93788418D01*
X181741247Y-95108570D01*
X180984673Y-96396197D01*
X180257972Y-97495251D01*
X179685606Y-98207155D01*
X178870974Y-98942879D01*
X178133404Y-99427241D01*
X177955929Y-99495444D01*
X177509923Y-99541294D01*
X177543751Y-99208754D01*
X177690706Y-98908956D01*
X178024573Y-98357076D01*
X178655592Y-97383575D01*
X179481945Y-96138893D01*
X180401811Y-94773471D01*
X181313371Y-93437748D01*
X182114807Y-92282165D01*
X182704300Y-91457162D01*
X182940848Y-91151734D01*
X183321444Y-91095300D01*
X183409328Y-91193298D01*
G37*
X183409328Y-91193298D02*
X183361735Y-91674734D01*
X183012626Y-92591790D01*
X182444847Y-93788418D01*
X181741247Y-95108570D01*
X180984673Y-96396197D01*
X180257972Y-97495251D01*
X179685606Y-98207155D01*
X178870974Y-98942879D01*
X178133404Y-99427241D01*
X177955929Y-99495444D01*
X177509923Y-99541294D01*
X177543751Y-99208754D01*
X177690706Y-98908956D01*
X178024573Y-98357076D01*
X178655592Y-97383575D01*
X179481945Y-96138893D01*
X180401811Y-94773471D01*
X181313371Y-93437748D01*
X182114807Y-92282165D01*
X182704300Y-91457162D01*
X182940848Y-91151734D01*
X183321444Y-91095300D01*
X183409328Y-91193298D01*
X165535942Y-116055629D02*
X165689614Y-116670536D01*
X165689614Y-116670536D02*
X165875181Y-117757973D01*
X165875181Y-117757973D02*
X166113349Y-119410884D01*
X166113349Y-119410884D02*
X166244671Y-120374833D01*
X166244671Y-120374833D02*
X166299458Y-121054237D01*
X166299458Y-121054237D02*
X166366066Y-122307862D01*
X166366066Y-122307862D02*
X166438873Y-124004589D01*
X166438873Y-124004589D02*
X166512257Y-126013300D01*
X166512257Y-126013300D02*
X166580596Y-128202874D01*
X166580596Y-128202874D02*
X166581204Y-128224139D01*
X166581204Y-128224139D02*
X166775032Y-135015111D01*
X166775032Y-135015111D02*
X163443904Y-135015111D01*
X163443904Y-135015111D02*
X163674179Y-133163028D01*
X163674179Y-133163028D02*
X163790322Y-131862602D01*
X163790322Y-131862602D02*
X163876540Y-130206983D01*
X163876540Y-130206983D02*
X163914783Y-128546436D01*
X163914783Y-128546436D02*
X163915046Y-128488722D01*
X163915046Y-128488722D02*
X163970134Y-126696692D01*
X163970134Y-126696692D02*
X164103831Y-124765929D01*
X164103831Y-124765929D02*
X164276756Y-123197055D01*
X164276756Y-123197055D02*
X164490090Y-121495878D01*
X164490090Y-121495878D02*
X164677439Y-119659121D01*
X164677439Y-119659121D02*
X164772097Y-118462191D01*
X164772097Y-118462191D02*
X164894584Y-117238191D01*
X164894584Y-117238191D02*
X165070805Y-116295082D01*
X165070805Y-116295082D02*
X165241460Y-115871629D01*
X165241460Y-115871629D02*
X165393460Y-115820308D01*
X165393460Y-115820308D02*
X165535942Y-116055629D01*
X165535942Y-116055629D02*
X165535942Y-116055629D01*
G36*
X165535942Y-116055629D02*
G01*
X165689614Y-116670536D01*
X165875181Y-117757973D01*
X166113349Y-119410884D01*
X166244671Y-120374833D01*
X166299458Y-121054237D01*
X166366066Y-122307862D01*
X166438873Y-124004589D01*
X166512257Y-126013300D01*
X166580596Y-128202874D01*
X166581204Y-128224139D01*
X166775032Y-135015111D01*
X163443904Y-135015111D01*
X163674179Y-133163028D01*
X163790322Y-131862602D01*
X163876540Y-130206983D01*
X163914783Y-128546436D01*
X163915046Y-128488722D01*
X163970134Y-126696692D01*
X164103831Y-124765929D01*
X164276756Y-123197055D01*
X164490090Y-121495878D01*
X164677439Y-119659121D01*
X164772097Y-118462191D01*
X164894584Y-117238191D01*
X165070805Y-116295082D01*
X165241460Y-115871629D01*
X165393460Y-115820308D01*
X165535942Y-116055629D01*
G37*
X165535942Y-116055629D02*
X165689614Y-116670536D01*
X165875181Y-117757973D01*
X166113349Y-119410884D01*
X166244671Y-120374833D01*
X166299458Y-121054237D01*
X166366066Y-122307862D01*
X166438873Y-124004589D01*
X166512257Y-126013300D01*
X166580596Y-128202874D01*
X166581204Y-128224139D01*
X166775032Y-135015111D01*
X163443904Y-135015111D01*
X163674179Y-133163028D01*
X163790322Y-131862602D01*
X163876540Y-130206983D01*
X163914783Y-128546436D01*
X163915046Y-128488722D01*
X163970134Y-126696692D01*
X164103831Y-124765929D01*
X164276756Y-123197055D01*
X164490090Y-121495878D01*
X164677439Y-119659121D01*
X164772097Y-118462191D01*
X164894584Y-117238191D01*
X165070805Y-116295082D01*
X165241460Y-115871629D01*
X165393460Y-115820308D01*
X165535942Y-116055629D01*
X174010159Y-54286251D02*
X174727150Y-55271331D01*
X174727150Y-55271331D02*
X175298755Y-56782369D01*
X175298755Y-56782369D02*
X175689014Y-58783614D01*
X175689014Y-58783614D02*
X175861969Y-61239314D01*
X175861969Y-61239314D02*
X175867288Y-61748720D01*
X175867288Y-61748720D02*
X175830715Y-63325270D01*
X175830715Y-63325270D02*
X175728288Y-64703299D01*
X175728288Y-64703299D02*
X175578109Y-65684060D01*
X175578109Y-65684060D02*
X175481755Y-65982053D01*
X175481755Y-65982053D02*
X175115007Y-66494543D01*
X175115007Y-66494543D02*
X174463736Y-67235160D01*
X174463736Y-67235160D02*
X173663302Y-68069974D01*
X173663302Y-68069974D02*
X172849066Y-68865054D01*
X172849066Y-68865054D02*
X172156389Y-69486469D01*
X172156389Y-69486469D02*
X171720630Y-69800290D01*
X171720630Y-69800290D02*
X171638800Y-69784408D01*
X171638800Y-69784408D02*
X171570007Y-69363913D01*
X171570007Y-69363913D02*
X171391221Y-68450376D01*
X171391221Y-68450376D02*
X171143382Y-67239976D01*
X171143382Y-67239976D02*
X170867428Y-65928893D01*
X170867428Y-65928893D02*
X170604301Y-64713306D01*
X170604301Y-64713306D02*
X170394938Y-63789396D01*
X170394938Y-63789396D02*
X170343538Y-63577611D01*
X170343538Y-63577611D02*
X170233063Y-62889946D01*
X170233063Y-62889946D02*
X170106656Y-61734931D01*
X170106656Y-61734931D02*
X169989885Y-60349550D01*
X169989885Y-60349550D02*
X169979275Y-60201101D01*
X169979275Y-60201101D02*
X169914145Y-58622016D01*
X169914145Y-58622016D02*
X170000633Y-57506894D01*
X170000633Y-57506894D02*
X170264145Y-56625521D01*
X170264145Y-56625521D02*
X170407528Y-56320545D01*
X170407528Y-56320545D02*
X171346467Y-54844277D01*
X171346467Y-54844277D02*
X172283858Y-54036973D01*
X172283858Y-54036973D02*
X173183742Y-53862881D01*
X173183742Y-53862881D02*
X174010159Y-54286251D01*
X174010159Y-54286251D02*
X174010159Y-54286251D01*
G36*
X174010159Y-54286251D02*
G01*
X174727150Y-55271331D01*
X175298755Y-56782369D01*
X175689014Y-58783614D01*
X175861969Y-61239314D01*
X175867288Y-61748720D01*
X175830715Y-63325270D01*
X175728288Y-64703299D01*
X175578109Y-65684060D01*
X175481755Y-65982053D01*
X175115007Y-66494543D01*
X174463736Y-67235160D01*
X173663302Y-68069974D01*
X172849066Y-68865054D01*
X172156389Y-69486469D01*
X171720630Y-69800290D01*
X171638800Y-69784408D01*
X171570007Y-69363913D01*
X171391221Y-68450376D01*
X171143382Y-67239976D01*
X170867428Y-65928893D01*
X170604301Y-64713306D01*
X170394938Y-63789396D01*
X170343538Y-63577611D01*
X170233063Y-62889946D01*
X170106656Y-61734931D01*
X169989885Y-60349550D01*
X169979275Y-60201101D01*
X169914145Y-58622016D01*
X170000633Y-57506894D01*
X170264145Y-56625521D01*
X170407528Y-56320545D01*
X171346467Y-54844277D01*
X172283858Y-54036973D01*
X173183742Y-53862881D01*
X174010159Y-54286251D01*
G37*
X174010159Y-54286251D02*
X174727150Y-55271331D01*
X175298755Y-56782369D01*
X175689014Y-58783614D01*
X175861969Y-61239314D01*
X175867288Y-61748720D01*
X175830715Y-63325270D01*
X175728288Y-64703299D01*
X175578109Y-65684060D01*
X175481755Y-65982053D01*
X175115007Y-66494543D01*
X174463736Y-67235160D01*
X173663302Y-68069974D01*
X172849066Y-68865054D01*
X172156389Y-69486469D01*
X171720630Y-69800290D01*
X171638800Y-69784408D01*
X171570007Y-69363913D01*
X171391221Y-68450376D01*
X171143382Y-67239976D01*
X170867428Y-65928893D01*
X170604301Y-64713306D01*
X170394938Y-63789396D01*
X170343538Y-63577611D01*
X170233063Y-62889946D01*
X170106656Y-61734931D01*
X169989885Y-60349550D01*
X169979275Y-60201101D01*
X169914145Y-58622016D01*
X170000633Y-57506894D01*
X170264145Y-56625521D01*
X170407528Y-56320545D01*
X171346467Y-54844277D01*
X172283858Y-54036973D01*
X173183742Y-53862881D01*
X174010159Y-54286251D01*
X153538833Y-50264804D02*
X154107383Y-51091210D01*
X154107383Y-51091210D02*
X154133535Y-51184447D01*
X154133535Y-51184447D02*
X154161892Y-52012780D01*
X154161892Y-52012780D02*
X153955088Y-52916679D01*
X153955088Y-52916679D02*
X153602861Y-53626407D01*
X153602861Y-53626407D02*
X153238018Y-53876222D01*
X153238018Y-53876222D02*
X153019434Y-54181087D01*
X153019434Y-54181087D02*
X152930647Y-54846361D01*
X152930647Y-54846361D02*
X152732732Y-55844916D01*
X152732732Y-55844916D02*
X152401481Y-56501287D01*
X152401481Y-56501287D02*
X152051667Y-57312075D01*
X152051667Y-57312075D02*
X151885664Y-58382080D01*
X151885664Y-58382080D02*
X151883533Y-58504561D01*
X151883533Y-58504561D02*
X151732985Y-59490168D01*
X151732985Y-59490168D02*
X151359176Y-60311449D01*
X151359176Y-60311449D02*
X150878856Y-60778706D01*
X150878856Y-60778706D02*
X150491129Y-60766950D01*
X150491129Y-60766950D02*
X150068071Y-60859471D01*
X150068071Y-60859471D02*
X149551626Y-61398498D01*
X149551626Y-61398498D02*
X149080923Y-62164396D01*
X149080923Y-62164396D02*
X148795087Y-62937528D01*
X148795087Y-62937528D02*
X148800947Y-63435197D01*
X148800947Y-63435197D02*
X148667241Y-63888176D01*
X148667241Y-63888176D02*
X148184362Y-64425483D01*
X148184362Y-64425483D02*
X147615213Y-64780489D01*
X147615213Y-64780489D02*
X147443027Y-64812333D01*
X147443027Y-64812333D02*
X146908791Y-64534196D01*
X146908791Y-64534196D02*
X146615566Y-64151061D01*
X146615566Y-64151061D02*
X146477312Y-63339619D01*
X146477312Y-63339619D02*
X146583201Y-62023514D01*
X146583201Y-62023514D02*
X146891716Y-60343220D01*
X146891716Y-60343220D02*
X147361335Y-58439213D01*
X147361335Y-58439213D02*
X147950540Y-56451968D01*
X147950540Y-56451968D02*
X148617812Y-54521962D01*
X148617812Y-54521962D02*
X149321631Y-52789669D01*
X149321631Y-52789669D02*
X150020478Y-51395565D01*
X150020478Y-51395565D02*
X150648811Y-50505094D01*
X150648811Y-50505094D02*
X151581740Y-49927335D01*
X151581740Y-49927335D02*
X152621017Y-49862042D01*
X152621017Y-49862042D02*
X153538833Y-50264804D01*
X153538833Y-50264804D02*
X153538833Y-50264804D01*
G36*
X153538833Y-50264804D02*
G01*
X154107383Y-51091210D01*
X154133535Y-51184447D01*
X154161892Y-52012780D01*
X153955088Y-52916679D01*
X153602861Y-53626407D01*
X153238018Y-53876222D01*
X153019434Y-54181087D01*
X152930647Y-54846361D01*
X152732732Y-55844916D01*
X152401481Y-56501287D01*
X152051667Y-57312075D01*
X151885664Y-58382080D01*
X151883533Y-58504561D01*
X151732985Y-59490168D01*
X151359176Y-60311449D01*
X150878856Y-60778706D01*
X150491129Y-60766950D01*
X150068071Y-60859471D01*
X149551626Y-61398498D01*
X149080923Y-62164396D01*
X148795087Y-62937528D01*
X148800947Y-63435197D01*
X148667241Y-63888176D01*
X148184362Y-64425483D01*
X147615213Y-64780489D01*
X147443027Y-64812333D01*
X146908791Y-64534196D01*
X146615566Y-64151061D01*
X146477312Y-63339619D01*
X146583201Y-62023514D01*
X146891716Y-60343220D01*
X147361335Y-58439213D01*
X147950540Y-56451968D01*
X148617812Y-54521962D01*
X149321631Y-52789669D01*
X150020478Y-51395565D01*
X150648811Y-50505094D01*
X151581740Y-49927335D01*
X152621017Y-49862042D01*
X153538833Y-50264804D01*
G37*
X153538833Y-50264804D02*
X154107383Y-51091210D01*
X154133535Y-51184447D01*
X154161892Y-52012780D01*
X153955088Y-52916679D01*
X153602861Y-53626407D01*
X153238018Y-53876222D01*
X153019434Y-54181087D01*
X152930647Y-54846361D01*
X152732732Y-55844916D01*
X152401481Y-56501287D01*
X152051667Y-57312075D01*
X151885664Y-58382080D01*
X151883533Y-58504561D01*
X151732985Y-59490168D01*
X151359176Y-60311449D01*
X150878856Y-60778706D01*
X150491129Y-60766950D01*
X150068071Y-60859471D01*
X149551626Y-61398498D01*
X149080923Y-62164396D01*
X148795087Y-62937528D01*
X148800947Y-63435197D01*
X148667241Y-63888176D01*
X148184362Y-64425483D01*
X147615213Y-64780489D01*
X147443027Y-64812333D01*
X146908791Y-64534196D01*
X146615566Y-64151061D01*
X146477312Y-63339619D01*
X146583201Y-62023514D01*
X146891716Y-60343220D01*
X147361335Y-58439213D01*
X147950540Y-56451968D01*
X148617812Y-54521962D01*
X149321631Y-52789669D01*
X150020478Y-51395565D01*
X150648811Y-50505094D01*
X151581740Y-49927335D01*
X152621017Y-49862042D01*
X153538833Y-50264804D01*
M02*
