G04 #@! TF.GenerationSoftware,KiCad,Pcbnew,5.99.0-unknown-d878cbddbc~125~ubuntu20.04.1*
G04 #@! TF.CreationDate,2021-04-11T20:16:07+01:00*
G04 #@! TF.ProjectId,bottom,626f7474-6f6d-42e6-9b69-6361645f7063,rev?*
G04 #@! TF.SameCoordinates,Original*
G04 #@! TF.FileFunction,Copper,L2,Bot*
G04 #@! TF.FilePolarity,Positive*
%FSLAX46Y46*%
G04 Gerber Fmt 4.6, Leading zero omitted, Abs format (unit mm)*
G04 Created by KiCad (PCBNEW 5.99.0-unknown-d878cbddbc~125~ubuntu20.04.1) date 2021-04-11 20:16:07*
%MOMM*%
%LPD*%
G01*
G04 APERTURE LIST*
G04 APERTURE END LIST*
G04 #@! TA.AperFunction,NonConductor*
G36*
X177496254Y-36965879D02*
G01*
X177834892Y-36966176D01*
X177835740Y-36966180D01*
X178316741Y-36969837D01*
X180070280Y-36983168D01*
X180070732Y-36983173D01*
X180462596Y-36988788D01*
X180817833Y-36993879D01*
X180818681Y-36993894D01*
X182778435Y-37035161D01*
X183052784Y-37040938D01*
X183053581Y-37040957D01*
X183327725Y-37048575D01*
X183800329Y-37061708D01*
X183801176Y-37061734D01*
X186034361Y-37138824D01*
X186035208Y-37138856D01*
X186781754Y-37169655D01*
X186782599Y-37169693D01*
X189014544Y-37276817D01*
X189015112Y-37276846D01*
X189386841Y-37297194D01*
X189761478Y-37317702D01*
X189762324Y-37317752D01*
X191320140Y-37413539D01*
X191992483Y-37454881D01*
X191993191Y-37454926D01*
X192738770Y-37505806D01*
X192739360Y-37505849D01*
X194559499Y-37642365D01*
X194967588Y-37672973D01*
X194968433Y-37673039D01*
X195713355Y-37733952D01*
X195714199Y-37734024D01*
X197939873Y-37931098D01*
X197940496Y-37931156D01*
X198684562Y-38002087D01*
X198685173Y-38002147D01*
X200908407Y-38229186D01*
X200909082Y-38229257D01*
X201467631Y-38290095D01*
X201651548Y-38310128D01*
X201652391Y-38310222D01*
X203872483Y-38567159D01*
X203873324Y-38567260D01*
X204614462Y-38658090D01*
X204615303Y-38658196D01*
X206831441Y-38944935D01*
X206832281Y-38945046D01*
X207572574Y-39045898D01*
X207573413Y-39046015D01*
X209055553Y-39258093D01*
X209785588Y-39362554D01*
X209786235Y-39362649D01*
X210525252Y-39473472D01*
X210525997Y-39473586D01*
X211346424Y-39602266D01*
X212733353Y-39819798D01*
X212734189Y-39819932D01*
X213471809Y-39940712D01*
X213472574Y-39940840D01*
X215674970Y-40316696D01*
X215675701Y-40316823D01*
X215864323Y-40350320D01*
X216411538Y-40447499D01*
X216412372Y-40447650D01*
X217511037Y-40650391D01*
X218609848Y-40853160D01*
X218610361Y-40853256D01*
X219344587Y-40993860D01*
X219345255Y-40993990D01*
X220880937Y-41298792D01*
X221536648Y-41428938D01*
X221537479Y-41429106D01*
X221649921Y-41452211D01*
X222269965Y-41579618D01*
X222270423Y-41579713D01*
X224455943Y-42044138D01*
X224456698Y-42044301D01*
X224783622Y-42116074D01*
X225310582Y-42231763D01*
X225311201Y-42231901D01*
X226308164Y-42456042D01*
X226308166Y-42456042D01*
X226312546Y-42457027D01*
X226315371Y-42457251D01*
X226330437Y-42460592D01*
X227415456Y-42780081D01*
X228557794Y-43116448D01*
X229787397Y-43478511D01*
X233846938Y-44673864D01*
X233865876Y-44681143D01*
X234006478Y-44748644D01*
X234009365Y-44750079D01*
X234132586Y-44813389D01*
X234136505Y-44815492D01*
X234478350Y-45006955D01*
X234482260Y-45009239D01*
X234578990Y-45068079D01*
X234582813Y-45070500D01*
X234793194Y-45209062D01*
X234909957Y-45285966D01*
X234913679Y-45288514D01*
X235005937Y-45354148D01*
X235009578Y-45356838D01*
X235320449Y-45595269D01*
X235323991Y-45598088D01*
X235411224Y-45670115D01*
X235414662Y-45673059D01*
X235707609Y-45933191D01*
X235710940Y-45936258D01*
X235792847Y-46014430D01*
X235796065Y-46017613D01*
X235877597Y-46101225D01*
X236069569Y-46298097D01*
X236072620Y-46301340D01*
X236127871Y-46362232D01*
X236148723Y-46385213D01*
X236151701Y-46388616D01*
X236170994Y-46411477D01*
X236404351Y-46688002D01*
X236407207Y-46691513D01*
X236477043Y-46780570D01*
X236479763Y-46784170D01*
X236710320Y-47100999D01*
X236712890Y-47104668D01*
X236744523Y-47151591D01*
X236776141Y-47198495D01*
X236778603Y-47202293D01*
X236985799Y-47534828D01*
X236988121Y-47538707D01*
X237044508Y-47636897D01*
X237046645Y-47640777D01*
X237229418Y-47987305D01*
X237231458Y-47991347D01*
X237280662Y-48093357D01*
X237282555Y-48097469D01*
X237439946Y-48456159D01*
X237441671Y-48460288D01*
X237481197Y-48559954D01*
X237483425Y-48565571D01*
X237485017Y-48569807D01*
X237616261Y-48938906D01*
X237617701Y-48943198D01*
X237651788Y-49051206D01*
X237653049Y-49055466D01*
X237757453Y-49433031D01*
X237758581Y-49437415D01*
X237784834Y-49547627D01*
X237785803Y-49552049D01*
X237862814Y-49936069D01*
X237863625Y-49940523D01*
X237881891Y-50052301D01*
X237882540Y-50056781D01*
X237931786Y-50445384D01*
X237932275Y-50449885D01*
X237942463Y-50562625D01*
X237942789Y-50567140D01*
X237964009Y-50958322D01*
X237964173Y-50962846D01*
X237966702Y-51101278D01*
X237966718Y-51104653D01*
X237964864Y-51315906D01*
X237965461Y-51320351D01*
X237969126Y-51347648D01*
X237970247Y-51364261D01*
X237972550Y-53234658D01*
X237972600Y-60617081D01*
X237972598Y-60617091D01*
X237972600Y-60651618D01*
X237972600Y-60690116D01*
X237972602Y-60690128D01*
X237972894Y-66483991D01*
X237973100Y-70564185D01*
X237973100Y-70564353D01*
X237918130Y-113383155D01*
X237917314Y-113397313D01*
X237911904Y-113444607D01*
X237912101Y-113449465D01*
X237912101Y-113449467D01*
X237927118Y-113819649D01*
X237927180Y-113821490D01*
X237931303Y-113980496D01*
X237935111Y-114127367D01*
X237935149Y-114129695D01*
X237937810Y-114557856D01*
X237939902Y-114894645D01*
X237939893Y-114897128D01*
X237936421Y-115154507D01*
X237936363Y-115156989D01*
X237910972Y-115921492D01*
X237910865Y-115923973D01*
X237897256Y-116180957D01*
X237897100Y-116183435D01*
X237841601Y-116946396D01*
X237841412Y-116948681D01*
X237817675Y-117205069D01*
X237817426Y-117207499D01*
X237771827Y-117612828D01*
X237731911Y-117967643D01*
X237731609Y-117970107D01*
X237697812Y-118225182D01*
X237697467Y-118227607D01*
X237692416Y-118260705D01*
X237582048Y-118983900D01*
X237581649Y-118986350D01*
X237537828Y-119239889D01*
X237537381Y-119242332D01*
X237392283Y-119993327D01*
X237391788Y-119995760D01*
X237337985Y-120247492D01*
X237337442Y-120249915D01*
X237162874Y-120994573D01*
X237162284Y-120996985D01*
X237098611Y-121246371D01*
X237097973Y-121248771D01*
X236894179Y-121986040D01*
X236893494Y-121988426D01*
X236860964Y-122097682D01*
X236820041Y-122235123D01*
X236819351Y-122237358D01*
X236646164Y-122779701D01*
X236586632Y-122966126D01*
X236585853Y-122968483D01*
X236502746Y-123212066D01*
X236501941Y-123214352D01*
X236240690Y-123933371D01*
X236239855Y-123935601D01*
X236156471Y-124151723D01*
X236147228Y-124175681D01*
X236146312Y-124177989D01*
X235856932Y-124886158D01*
X235855970Y-124888447D01*
X235768473Y-125091073D01*
X235753960Y-125124681D01*
X235752965Y-125126923D01*
X235458475Y-125773580D01*
X235435941Y-125823062D01*
X235434890Y-125825311D01*
X235323629Y-126057386D01*
X235322533Y-126059615D01*
X234978327Y-126742717D01*
X234977189Y-126744921D01*
X234915916Y-126860783D01*
X234856878Y-126972417D01*
X234855707Y-126974580D01*
X234504277Y-127608544D01*
X234484820Y-127643643D01*
X234483594Y-127645802D01*
X234354446Y-127868321D01*
X234353179Y-127870456D01*
X234170210Y-128171868D01*
X233995975Y-128458892D01*
X233956259Y-128524317D01*
X233954965Y-128526403D01*
X233893046Y-128624015D01*
X233817060Y-128743801D01*
X233815709Y-128745884D01*
X233638781Y-129013014D01*
X233431170Y-129326470D01*
X233393348Y-129383574D01*
X233391956Y-129385631D01*
X233245633Y-129597366D01*
X233244203Y-129599393D01*
X232828590Y-130176165D01*
X232797029Y-130219964D01*
X232795580Y-130221933D01*
X232705585Y-130341773D01*
X232641026Y-130427741D01*
X232639517Y-130429711D01*
X232203806Y-130986709D01*
X232168197Y-131032230D01*
X232166668Y-131034144D01*
X232087077Y-131131861D01*
X232004161Y-131233658D01*
X232002574Y-131235568D01*
X231507825Y-131819111D01*
X231506254Y-131820926D01*
X231390244Y-131952414D01*
X231336050Y-132013838D01*
X231334389Y-132015684D01*
X230817020Y-132579289D01*
X230815323Y-132581101D01*
X230637699Y-132767104D01*
X230635967Y-132768883D01*
X230096850Y-133311607D01*
X230095083Y-133313351D01*
X229910145Y-133492330D01*
X229908401Y-133493985D01*
X229565616Y-133812887D01*
X229348316Y-134015046D01*
X229346481Y-134016720D01*
X229154631Y-134188275D01*
X229152764Y-134189912D01*
X228572595Y-134688486D01*
X228570696Y-134690085D01*
X228372245Y-134853940D01*
X228370394Y-134855437D01*
X227770989Y-135330794D01*
X227769087Y-135332273D01*
X227564325Y-135488187D01*
X227562343Y-135489666D01*
X227220903Y-135739178D01*
X226944717Y-135941005D01*
X226942697Y-135942450D01*
X226731965Y-136090164D01*
X226729918Y-136091569D01*
X226095029Y-136518192D01*
X226093097Y-136519464D01*
X225876526Y-136658876D01*
X225874523Y-136660138D01*
X225223211Y-137061477D01*
X225221195Y-137062692D01*
X224999402Y-137193402D01*
X224997308Y-137194609D01*
X224559360Y-137441211D01*
X224330729Y-137569950D01*
X224328553Y-137571147D01*
X224101925Y-137692939D01*
X224099727Y-137694093D01*
X223791409Y-137852037D01*
X223437264Y-138033457D01*
X223418920Y-138042854D01*
X223416698Y-138043964D01*
X223185356Y-138156776D01*
X223183114Y-138157842D01*
X222489104Y-138479500D01*
X222486841Y-138480522D01*
X222206922Y-138603616D01*
X222205230Y-138604345D01*
X221908691Y-138729607D01*
X221903060Y-138731828D01*
X221366977Y-138928507D01*
X221366065Y-138928837D01*
X220884643Y-139100841D01*
X220883536Y-139101229D01*
X219636055Y-139531063D01*
X219634812Y-139531483D01*
X219554589Y-139558112D01*
X219220975Y-139668851D01*
X219219619Y-139669293D01*
X217962996Y-140070673D01*
X217961634Y-140071099D01*
X217544816Y-140199051D01*
X217543449Y-140199463D01*
X216278006Y-140572291D01*
X216276635Y-140572686D01*
X215857060Y-140691156D01*
X215855687Y-140691536D01*
X214582047Y-141035628D01*
X214580718Y-141035978D01*
X214158595Y-141144905D01*
X214157212Y-141145254D01*
X212876231Y-141460379D01*
X212874843Y-141460712D01*
X212450360Y-141560051D01*
X212448969Y-141560368D01*
X211161026Y-141846433D01*
X211159718Y-141846716D01*
X210860013Y-141909730D01*
X210733052Y-141936424D01*
X210731654Y-141936710D01*
X210379754Y-142006546D01*
X209437488Y-142193544D01*
X209436301Y-142193772D01*
X209007581Y-142273818D01*
X209006423Y-142274028D01*
X207706699Y-142501494D01*
X207705331Y-142501726D01*
X207275136Y-142572003D01*
X207273842Y-142572207D01*
X205969308Y-142770175D01*
X205967926Y-142770377D01*
X205809035Y-142792651D01*
X205536327Y-142830881D01*
X205534913Y-142831071D01*
X204226329Y-142999429D01*
X204224913Y-142999603D01*
X204051477Y-143019923D01*
X203792051Y-143050317D01*
X203790684Y-143050469D01*
X202478498Y-143189158D01*
X202477172Y-143189290D01*
X202043236Y-143230190D01*
X202041876Y-143230310D01*
X201818519Y-143248813D01*
X200726913Y-143339238D01*
X200725490Y-143339348D01*
X200290795Y-143370405D01*
X200289371Y-143370498D01*
X199496517Y-143418125D01*
X198972303Y-143449614D01*
X198971018Y-143449685D01*
X198535518Y-143470898D01*
X198534275Y-143470951D01*
X197215688Y-143520216D01*
X197214415Y-143520256D01*
X196778509Y-143531601D01*
X196777383Y-143531624D01*
X195989404Y-143543203D01*
X195458028Y-143551011D01*
X195456602Y-143551024D01*
X195246699Y-143551731D01*
X195020658Y-143552493D01*
X195019450Y-143552490D01*
X193700001Y-143541989D01*
X193698738Y-143541972D01*
X193262695Y-143533562D01*
X193261282Y-143533526D01*
X191942689Y-143493151D01*
X191941265Y-143493099D01*
X191505572Y-143474817D01*
X191504369Y-143474759D01*
X190349130Y-143413171D01*
X190187034Y-143404529D01*
X190185609Y-143404445D01*
X189675492Y-143371451D01*
X189674426Y-143371378D01*
X189115241Y-143330442D01*
X189104179Y-143329138D01*
X189098832Y-143328267D01*
X189098824Y-143328266D01*
X189094017Y-143327483D01*
X189083057Y-143327406D01*
X189076930Y-143327362D01*
X189068625Y-143327029D01*
X189059310Y-143326347D01*
X189059301Y-143326347D01*
X189054835Y-143326020D01*
X189044873Y-143326710D01*
X189044095Y-143326764D01*
X189034496Y-143327062D01*
X187675525Y-143317451D01*
X187673127Y-143317356D01*
X187670745Y-143316997D01*
X187642388Y-143317136D01*
X187636396Y-143317165D01*
X187634889Y-143317164D01*
X187630985Y-143317136D01*
X187603779Y-143316944D01*
X187601421Y-143317265D01*
X187599002Y-143317348D01*
X184834969Y-143330867D01*
X184832152Y-143330792D01*
X184829456Y-143330423D01*
X184824586Y-143330513D01*
X184795639Y-143331048D01*
X184793929Y-143331068D01*
X184771305Y-143331179D01*
X184763334Y-143331218D01*
X184760660Y-143331614D01*
X184757839Y-143331748D01*
X181994115Y-143382857D01*
X181991314Y-143382819D01*
X181988611Y-143382487D01*
X181983745Y-143382643D01*
X181983742Y-143382643D01*
X181954796Y-143383572D01*
X181953087Y-143383615D01*
X181931145Y-143384021D01*
X181922508Y-143384181D01*
X181919841Y-143384614D01*
X181917027Y-143384785D01*
X179154259Y-143473475D01*
X179151444Y-143473476D01*
X179148739Y-143473180D01*
X179143875Y-143473402D01*
X179143863Y-143473402D01*
X179114906Y-143474726D01*
X179113199Y-143474793D01*
X179082664Y-143475773D01*
X179080005Y-143476241D01*
X179077192Y-143476451D01*
X176315891Y-143602705D01*
X176313072Y-143602744D01*
X176310361Y-143602485D01*
X176305508Y-143602773D01*
X176305503Y-143602773D01*
X176289087Y-143603748D01*
X176276514Y-143604494D01*
X176274870Y-143604581D01*
X176267243Y-143604929D01*
X176248802Y-143605772D01*
X176248796Y-143605773D01*
X176244328Y-143605977D01*
X176241684Y-143606480D01*
X176238862Y-143606729D01*
X173814559Y-143750636D01*
X173479526Y-143770524D01*
X173476719Y-143770601D01*
X173474006Y-143770379D01*
X173469143Y-143770734D01*
X173469139Y-143770734D01*
X173440207Y-143772846D01*
X173438669Y-143772949D01*
X173408026Y-143774768D01*
X173405382Y-143775308D01*
X173402558Y-143775596D01*
X170645717Y-143976899D01*
X170642916Y-143977014D01*
X170640195Y-143976829D01*
X170606411Y-143979758D01*
X170604817Y-143979885D01*
X170591818Y-143980834D01*
X170578741Y-143981789D01*
X170578737Y-143981790D01*
X170574281Y-143982115D01*
X170571649Y-143982690D01*
X170568831Y-143983016D01*
X168619451Y-144152040D01*
X167814977Y-144221793D01*
X167812175Y-144221946D01*
X167809454Y-144221798D01*
X167804605Y-144222285D01*
X167804604Y-144222285D01*
X167775805Y-144225177D01*
X167774100Y-144225337D01*
X167767313Y-144225926D01*
X167743618Y-144227980D01*
X167740989Y-144228592D01*
X167738184Y-144228955D01*
X165885188Y-144415043D01*
X164987846Y-144505159D01*
X164985025Y-144505352D01*
X164982307Y-144505241D01*
X164977482Y-144505792D01*
X164977479Y-144505792D01*
X164957568Y-144508066D01*
X164948608Y-144509089D01*
X164946920Y-144509269D01*
X164921027Y-144511869D01*
X164921022Y-144511870D01*
X164916560Y-144512318D01*
X164913939Y-144512966D01*
X164911160Y-144513364D01*
X162164794Y-144826949D01*
X162161996Y-144827179D01*
X162159275Y-144827105D01*
X162125678Y-144831405D01*
X162124050Y-144831602D01*
X162115941Y-144832528D01*
X162098087Y-144834566D01*
X162098084Y-144834566D01*
X162093631Y-144835075D01*
X162091022Y-144835758D01*
X162088217Y-144836199D01*
X159346392Y-145187102D01*
X159343605Y-145187368D01*
X159340881Y-145187331D01*
X159336059Y-145188015D01*
X159336057Y-145188015D01*
X159323230Y-145189834D01*
X159307307Y-145192093D01*
X159305786Y-145192298D01*
X159275352Y-145196193D01*
X159272749Y-145196912D01*
X159269971Y-145197388D01*
X158921407Y-145246825D01*
X156533168Y-145585546D01*
X156530374Y-145585852D01*
X156527648Y-145585852D01*
X156494191Y-145591063D01*
X156492528Y-145591309D01*
X156466698Y-145594973D01*
X156466690Y-145594975D01*
X156462246Y-145595605D01*
X156459660Y-145596358D01*
X156456876Y-145596874D01*
X153725602Y-146022214D01*
X153722820Y-146022558D01*
X153720094Y-146022595D01*
X153715293Y-146023410D01*
X153715290Y-146023410D01*
X153702741Y-146025540D01*
X153686721Y-146028258D01*
X153685071Y-146028527D01*
X153659254Y-146032547D01*
X153659252Y-146032547D01*
X153654830Y-146033236D01*
X153652253Y-146034024D01*
X153649467Y-146034579D01*
X152997160Y-146145269D01*
X150924250Y-146497021D01*
X150921466Y-146497402D01*
X150918739Y-146497477D01*
X150913957Y-146498356D01*
X150913953Y-146498356D01*
X150885385Y-146503605D01*
X150883693Y-146503903D01*
X150853626Y-146509005D01*
X150851058Y-146509828D01*
X150848302Y-146510417D01*
X148129604Y-147009881D01*
X148126823Y-147010301D01*
X148124101Y-147010412D01*
X148119323Y-147011357D01*
X148119316Y-147011358D01*
X148090874Y-147016984D01*
X148089192Y-147017305D01*
X148059151Y-147022824D01*
X148056595Y-147023682D01*
X148053833Y-147024311D01*
X146263682Y-147378420D01*
X145342187Y-147560701D01*
X145339415Y-147561158D01*
X145336696Y-147561306D01*
X145331938Y-147562315D01*
X145331935Y-147562315D01*
X145303596Y-147568322D01*
X145301919Y-147568666D01*
X145276319Y-147573730D01*
X145271921Y-147574600D01*
X145269377Y-147575493D01*
X145266621Y-147576161D01*
X142562517Y-148149376D01*
X142559757Y-148149870D01*
X142557042Y-148150055D01*
X142524009Y-148157528D01*
X142522433Y-148157873D01*
X142511809Y-148160125D01*
X142496845Y-148163297D01*
X142496842Y-148163298D01*
X142492454Y-148164228D01*
X142489919Y-148165157D01*
X142487165Y-148165864D01*
X139791117Y-148775798D01*
X139788364Y-148776330D01*
X139785651Y-148776552D01*
X139776932Y-148778650D01*
X139752815Y-148784451D01*
X139751148Y-148784840D01*
X139725630Y-148790613D01*
X139725619Y-148790616D01*
X139721262Y-148791602D01*
X139718743Y-148792564D01*
X139715996Y-148793309D01*
X137028494Y-149439852D01*
X137025754Y-149440420D01*
X137023038Y-149440679D01*
X136994717Y-149447901D01*
X136990215Y-149449049D01*
X136988553Y-149449461D01*
X136958858Y-149456605D01*
X136956357Y-149457599D01*
X136953639Y-149458376D01*
X134275265Y-150141385D01*
X134272928Y-150141900D01*
X134270538Y-150142157D01*
X134237265Y-150151067D01*
X134235938Y-150151414D01*
X134210096Y-150158003D01*
X134210086Y-150158006D01*
X134205754Y-150159111D01*
X134203551Y-150160021D01*
X134201233Y-150160716D01*
X132830984Y-150527655D01*
X132791029Y-150544732D01*
X132777516Y-150549614D01*
X131803406Y-150839875D01*
X131264559Y-151000438D01*
X130824509Y-151131562D01*
X130805115Y-151135386D01*
X130805118Y-151135401D01*
X130804280Y-151135551D01*
X130801077Y-151136182D01*
X130795482Y-151136742D01*
X130482835Y-151217959D01*
X130480887Y-151218448D01*
X130168950Y-151293768D01*
X130166046Y-151294433D01*
X129504358Y-151437385D01*
X129501421Y-151437982D01*
X129243347Y-151487245D01*
X129240464Y-151487760D01*
X128572644Y-151598591D01*
X128569656Y-151599050D01*
X128309507Y-151635793D01*
X128306594Y-151636168D01*
X127919576Y-151681325D01*
X127634265Y-151714614D01*
X127631239Y-151714930D01*
X127493354Y-151727652D01*
X127311696Y-151744411D01*
X127309677Y-151744580D01*
X127033937Y-151765236D01*
X127030676Y-151765437D01*
X126625433Y-151785171D01*
X126624016Y-151785231D01*
X126253194Y-151798843D01*
X126251306Y-151798897D01*
X125648687Y-151811325D01*
X125314973Y-151818207D01*
X125312948Y-151818233D01*
X124998758Y-151819662D01*
X124996733Y-151819655D01*
X124060311Y-151808865D01*
X124058287Y-151808825D01*
X123854898Y-151803211D01*
X123744247Y-151800157D01*
X123742257Y-151800087D01*
X123583125Y-151793134D01*
X122806595Y-151759204D01*
X122804573Y-151759099D01*
X122491090Y-151740351D01*
X122489069Y-151740214D01*
X121555170Y-151669281D01*
X121553153Y-151669112D01*
X121533096Y-151667264D01*
X121240387Y-151640294D01*
X121238512Y-151640106D01*
X120455365Y-151555235D01*
X120307276Y-151539186D01*
X120305264Y-151538951D01*
X119993669Y-151500107D01*
X119991662Y-151499841D01*
X119064208Y-151369053D01*
X119062205Y-151368754D01*
X118752038Y-151319920D01*
X118750040Y-151319589D01*
X117827283Y-151159067D01*
X117825291Y-151158704D01*
X117810523Y-151155890D01*
X117516784Y-151099913D01*
X117514872Y-151099533D01*
X117036781Y-151000438D01*
X116597675Y-150909423D01*
X116595696Y-150908996D01*
X116289293Y-150840334D01*
X116287320Y-150839875D01*
X115376850Y-150620422D01*
X115374886Y-150619932D01*
X115070752Y-150541433D01*
X115068795Y-150540911D01*
X114165890Y-150292323D01*
X114163942Y-150291770D01*
X113862444Y-150203525D01*
X113860505Y-150202940D01*
X112966021Y-149925453D01*
X112964092Y-149924838D01*
X112880252Y-149897345D01*
X112665623Y-149826962D01*
X112663759Y-149826333D01*
X111778608Y-149520227D01*
X111776700Y-149519550D01*
X111757537Y-149512576D01*
X111481501Y-149412121D01*
X111479772Y-149411476D01*
X110604781Y-149077031D01*
X110602979Y-149076326D01*
X110311489Y-148959507D01*
X110309634Y-148958747D01*
X109445793Y-148596333D01*
X109444137Y-148595622D01*
X109156358Y-148469412D01*
X109154622Y-148468633D01*
X108303067Y-148078733D01*
X108301232Y-148077876D01*
X108017766Y-147942534D01*
X108015946Y-147941646D01*
X107177378Y-147524589D01*
X107175572Y-147523673D01*
X106896744Y-147379365D01*
X106894953Y-147378420D01*
X106070139Y-146934587D01*
X106068364Y-146933613D01*
X105794253Y-146780382D01*
X105792493Y-146779380D01*
X105326398Y-146508907D01*
X104982267Y-146309208D01*
X104980694Y-146308278D01*
X104829443Y-146217227D01*
X104711666Y-146146327D01*
X104709940Y-146145269D01*
X103915287Y-145649331D01*
X103913618Y-145648271D01*
X103649866Y-145477715D01*
X103648274Y-145476667D01*
X102869995Y-144955462D01*
X102868322Y-144954322D01*
X102610282Y-144775443D01*
X102608627Y-144774276D01*
X102026909Y-144357018D01*
X101847441Y-144228288D01*
X101845867Y-144227139D01*
X101593835Y-144040154D01*
X101592221Y-144038937D01*
X101515070Y-143979752D01*
X100848870Y-143468688D01*
X100847350Y-143467502D01*
X100601315Y-143272401D01*
X100599825Y-143271200D01*
X100268195Y-142999429D01*
X99875351Y-142677493D01*
X99873796Y-142676197D01*
X99634129Y-142473266D01*
X99632648Y-142471993D01*
X98927575Y-141855264D01*
X98926074Y-141853929D01*
X98918112Y-141846735D01*
X98693122Y-141643462D01*
X98691630Y-141642093D01*
X98006793Y-141003071D01*
X98005324Y-141001677D01*
X97779233Y-140783810D01*
X97777786Y-140782394D01*
X97191576Y-140199051D01*
X97113830Y-140121685D01*
X97112423Y-140120262D01*
X96893406Y-139895195D01*
X96892006Y-139893732D01*
X96482387Y-139459038D01*
X96249686Y-139212092D01*
X96248387Y-139210691D01*
X96036691Y-138978675D01*
X96035338Y-138977169D01*
X95705343Y-138603616D01*
X95415236Y-138275215D01*
X95413929Y-138273710D01*
X95314842Y-138157842D01*
X95209795Y-138035006D01*
X95208491Y-138033457D01*
X94611315Y-137311992D01*
X94610037Y-137310422D01*
X94413707Y-137065317D01*
X94412453Y-137063726D01*
X94266412Y-136875274D01*
X93838717Y-136323375D01*
X93837510Y-136321790D01*
X93649175Y-136070523D01*
X93647973Y-136068893D01*
X93409017Y-135739178D01*
X93098342Y-135310506D01*
X93097175Y-135308868D01*
X92917008Y-135051671D01*
X92915860Y-135050004D01*
X92548527Y-134507265D01*
X92390880Y-134274339D01*
X92389820Y-134272746D01*
X92217856Y-134009655D01*
X92216871Y-134008120D01*
X91733670Y-133242262D01*
X91717090Y-133215983D01*
X91716023Y-133214262D01*
X91692653Y-133175868D01*
X222447616Y-133175868D01*
X222464166Y-133462892D01*
X222464991Y-133467097D01*
X222464992Y-133467105D01*
X222498517Y-133637982D01*
X222519516Y-133745014D01*
X222612642Y-134017014D01*
X222614568Y-134020843D01*
X222688450Y-134167740D01*
X222741822Y-134273859D01*
X222904664Y-134510796D01*
X223098155Y-134723440D01*
X223318716Y-134907857D01*
X223322357Y-134910141D01*
X223558624Y-135058352D01*
X223558628Y-135058354D01*
X223562264Y-135060635D01*
X223824293Y-135178945D01*
X223893574Y-135199467D01*
X224095841Y-135259382D01*
X224095846Y-135259383D01*
X224099954Y-135260600D01*
X224104188Y-135261248D01*
X224104193Y-135261249D01*
X224357037Y-135299940D01*
X224384147Y-135304088D01*
X224530498Y-135306387D01*
X224667321Y-135308537D01*
X224667327Y-135308537D01*
X224671612Y-135308604D01*
X224675864Y-135308089D01*
X224675872Y-135308089D01*
X224897529Y-135281265D01*
X224957030Y-135274064D01*
X224961179Y-135272976D01*
X224961182Y-135272975D01*
X225230970Y-135202198D01*
X225235121Y-135201109D01*
X225500736Y-135091087D01*
X225549827Y-135062401D01*
X225745255Y-134948202D01*
X225745257Y-134948200D01*
X225748963Y-134946035D01*
X225975208Y-134768637D01*
X226010192Y-134732537D01*
X226172300Y-134565253D01*
X226175283Y-134562175D01*
X226177816Y-134558727D01*
X226177820Y-134558722D01*
X226342949Y-134333925D01*
X226345487Y-134330470D01*
X226376829Y-134272746D01*
X226480621Y-134081585D01*
X226480622Y-134081583D01*
X226482671Y-134077809D01*
X226584295Y-133808869D01*
X226648479Y-133528624D01*
X226653970Y-133467105D01*
X226673816Y-133244728D01*
X226673816Y-133244726D01*
X226674036Y-133242262D01*
X226674312Y-133215983D01*
X226674474Y-133200484D01*
X226674474Y-133200483D01*
X226674500Y-133198000D01*
X226666555Y-133081456D01*
X226655238Y-132915442D01*
X226655237Y-132915436D01*
X226654946Y-132911165D01*
X226650409Y-132889254D01*
X226597513Y-132633835D01*
X226596644Y-132629638D01*
X226500674Y-132358628D01*
X226368812Y-132103150D01*
X226203498Y-131867931D01*
X226200573Y-131864783D01*
X226010711Y-131660468D01*
X226010708Y-131660466D01*
X226007790Y-131657325D01*
X226004474Y-131654611D01*
X226004471Y-131654608D01*
X225788629Y-131477942D01*
X225788622Y-131477937D01*
X225785311Y-131475227D01*
X225540176Y-131325009D01*
X225536240Y-131323281D01*
X225280851Y-131211172D01*
X225280847Y-131211171D01*
X225276923Y-131209448D01*
X225000421Y-131130685D01*
X224789794Y-131100708D01*
X224720041Y-131090781D01*
X224720039Y-131090781D01*
X224715789Y-131090176D01*
X224564976Y-131089387D01*
X224432579Y-131088693D01*
X224432573Y-131088693D01*
X224428292Y-131088671D01*
X224424048Y-131089230D01*
X224424044Y-131089230D01*
X224298864Y-131105710D01*
X224143251Y-131126197D01*
X224139111Y-131127330D01*
X224139109Y-131127330D01*
X224122547Y-131131861D01*
X223865940Y-131202061D01*
X223844580Y-131211172D01*
X223605433Y-131313176D01*
X223605426Y-131313180D01*
X223601491Y-131314858D01*
X223597810Y-131317061D01*
X223358479Y-131460297D01*
X223358475Y-131460300D01*
X223354797Y-131462501D01*
X223351454Y-131465179D01*
X223351450Y-131465182D01*
X223331046Y-131481529D01*
X223130423Y-131642259D01*
X223127479Y-131645361D01*
X223127475Y-131645365D01*
X222962624Y-131819081D01*
X222932520Y-131850804D01*
X222764752Y-132084279D01*
X222630222Y-132338362D01*
X222624200Y-132354819D01*
X222541392Y-132581101D01*
X222531419Y-132608352D01*
X222470173Y-132889254D01*
X222447616Y-133175868D01*
X91692653Y-133175868D01*
X91552760Y-132946039D01*
X91551721Y-132944301D01*
X91077639Y-132136485D01*
X91076629Y-132134730D01*
X90894052Y-131811848D01*
X90893317Y-131810532D01*
X90878512Y-131783603D01*
X90712436Y-131481520D01*
X90705941Y-131467808D01*
X90685209Y-131416217D01*
X90606408Y-131220122D01*
X90605723Y-131218378D01*
X90535121Y-131034170D01*
X90516931Y-130986709D01*
X90515998Y-130984194D01*
X90366921Y-130568986D01*
X90286235Y-130344258D01*
X90285391Y-130341825D01*
X90236336Y-130195467D01*
X90218584Y-130142502D01*
X90217758Y-130139949D01*
X90015476Y-129490875D01*
X90014705Y-129488305D01*
X89956443Y-129286307D01*
X89955727Y-129283720D01*
X89781268Y-128626616D01*
X89780607Y-128624015D01*
X89731016Y-128419786D01*
X89730411Y-128417172D01*
X89676351Y-128171868D01*
X99969616Y-128171868D01*
X99986166Y-128458892D01*
X99986991Y-128463097D01*
X99986992Y-128463105D01*
X99999062Y-128524624D01*
X100041516Y-128741014D01*
X100134642Y-129013014D01*
X100263822Y-129269859D01*
X100300140Y-129322702D01*
X100413956Y-129488305D01*
X100426664Y-129506796D01*
X100620155Y-129719440D01*
X100840716Y-129903857D01*
X100844357Y-129906141D01*
X101080624Y-130054352D01*
X101080628Y-130054354D01*
X101084264Y-130056635D01*
X101346293Y-130174945D01*
X101350412Y-130176165D01*
X101617841Y-130255382D01*
X101617846Y-130255383D01*
X101621954Y-130256600D01*
X101626188Y-130257248D01*
X101626193Y-130257249D01*
X101879037Y-130295940D01*
X101906147Y-130300088D01*
X102052498Y-130302387D01*
X102189321Y-130304537D01*
X102189327Y-130304537D01*
X102193612Y-130304604D01*
X102197864Y-130304089D01*
X102197872Y-130304089D01*
X102419529Y-130277265D01*
X102479030Y-130270064D01*
X102483179Y-130268976D01*
X102483182Y-130268975D01*
X102752970Y-130198198D01*
X102757121Y-130197109D01*
X103022736Y-130087087D01*
X103071827Y-130058401D01*
X103267255Y-129944202D01*
X103267257Y-129944200D01*
X103270963Y-129942035D01*
X103497208Y-129764637D01*
X103586662Y-129672328D01*
X103694300Y-129561253D01*
X103697283Y-129558175D01*
X103699816Y-129554727D01*
X103699820Y-129554722D01*
X103864949Y-129329925D01*
X103867487Y-129326470D01*
X103889294Y-129286307D01*
X104002621Y-129077585D01*
X104002622Y-129077583D01*
X104004671Y-129073809D01*
X104106295Y-128804869D01*
X104170479Y-128524624D01*
X104175970Y-128463105D01*
X104195816Y-128240728D01*
X104195816Y-128240726D01*
X104196036Y-128238262D01*
X104196500Y-128194000D01*
X104176946Y-127907165D01*
X104172409Y-127885254D01*
X104119513Y-127629835D01*
X104118644Y-127625638D01*
X104022674Y-127354628D01*
X103890812Y-127099150D01*
X103725498Y-126863931D01*
X103721734Y-126859880D01*
X103532711Y-126656468D01*
X103532708Y-126656466D01*
X103529790Y-126653325D01*
X103526474Y-126650611D01*
X103526471Y-126650608D01*
X103310629Y-126473942D01*
X103310622Y-126473937D01*
X103307311Y-126471227D01*
X103062176Y-126321009D01*
X103058240Y-126319281D01*
X102802851Y-126207172D01*
X102802847Y-126207171D01*
X102798923Y-126205448D01*
X102522421Y-126126685D01*
X102311794Y-126096708D01*
X102242041Y-126086781D01*
X102242039Y-126086781D01*
X102237789Y-126086176D01*
X102086976Y-126085387D01*
X101954579Y-126084693D01*
X101954573Y-126084693D01*
X101950292Y-126084671D01*
X101946048Y-126085230D01*
X101946044Y-126085230D01*
X101820864Y-126101710D01*
X101665251Y-126122197D01*
X101661111Y-126123330D01*
X101661109Y-126123330D01*
X101644547Y-126127861D01*
X101387940Y-126198061D01*
X101366580Y-126207172D01*
X101127433Y-126309176D01*
X101127426Y-126309180D01*
X101123491Y-126310858D01*
X101119810Y-126313061D01*
X100880479Y-126456297D01*
X100880475Y-126456300D01*
X100876797Y-126458501D01*
X100873454Y-126461179D01*
X100873450Y-126461182D01*
X100763922Y-126548931D01*
X100652423Y-126638259D01*
X100649479Y-126641361D01*
X100649475Y-126641365D01*
X100457470Y-126843695D01*
X100454520Y-126846804D01*
X100286752Y-127080279D01*
X100152222Y-127334362D01*
X100053419Y-127604352D01*
X99992173Y-127885254D01*
X99969616Y-128171868D01*
X89676351Y-128171868D01*
X89584094Y-127753241D01*
X89583544Y-127750615D01*
X89555393Y-127608544D01*
X89542681Y-127544391D01*
X89542192Y-127541778D01*
X89424282Y-126872213D01*
X89423845Y-126869566D01*
X89391807Y-126661825D01*
X89391426Y-126659169D01*
X89320880Y-126126685D01*
X89302128Y-125985149D01*
X89301808Y-125982515D01*
X89284379Y-125825311D01*
X89278644Y-125773580D01*
X89278381Y-125770951D01*
X89217869Y-125093748D01*
X89217659Y-125091073D01*
X89203420Y-124881451D01*
X89203266Y-124878772D01*
X89171644Y-124199534D01*
X89171548Y-124196852D01*
X89165296Y-123949041D01*
X89165261Y-123947013D01*
X89162195Y-123611076D01*
X89162195Y-123611074D01*
X89162154Y-123606600D01*
X89158934Y-123585490D01*
X89157493Y-123566492D01*
X89157196Y-105514868D01*
X115717616Y-105514868D01*
X115734166Y-105801892D01*
X115734991Y-105806097D01*
X115734992Y-105806105D01*
X115746223Y-105863348D01*
X115789516Y-106084014D01*
X115882642Y-106356014D01*
X116011822Y-106612859D01*
X116174664Y-106849796D01*
X116368155Y-107062440D01*
X116588716Y-107246857D01*
X116592357Y-107249141D01*
X116828624Y-107397352D01*
X116828628Y-107397354D01*
X116832264Y-107399635D01*
X117094293Y-107517945D01*
X117098412Y-107519165D01*
X117365841Y-107598382D01*
X117365846Y-107598383D01*
X117369954Y-107599600D01*
X117374188Y-107600248D01*
X117374193Y-107600249D01*
X117627037Y-107638940D01*
X117654147Y-107643088D01*
X117800498Y-107645387D01*
X117937321Y-107647537D01*
X117937327Y-107647537D01*
X117941612Y-107647604D01*
X117945864Y-107647089D01*
X117945872Y-107647089D01*
X118167529Y-107620265D01*
X118227030Y-107613064D01*
X118231179Y-107611976D01*
X118231182Y-107611975D01*
X118500970Y-107541198D01*
X118505121Y-107540109D01*
X118770736Y-107430087D01*
X118819827Y-107401401D01*
X119015255Y-107287202D01*
X119015257Y-107287200D01*
X119018963Y-107285035D01*
X119245208Y-107107637D01*
X119445283Y-106901175D01*
X119447816Y-106897727D01*
X119447820Y-106897722D01*
X119612949Y-106672925D01*
X119615487Y-106669470D01*
X119646224Y-106612859D01*
X119750621Y-106420585D01*
X119750622Y-106420583D01*
X119752671Y-106416809D01*
X119854295Y-106147869D01*
X119918479Y-105867624D01*
X119923970Y-105806105D01*
X119943816Y-105583728D01*
X119943816Y-105583726D01*
X119944036Y-105581262D01*
X119944500Y-105537000D01*
X119924946Y-105250165D01*
X119920409Y-105228254D01*
X119867513Y-104972835D01*
X119866644Y-104968638D01*
X119770674Y-104697628D01*
X119638812Y-104442150D01*
X119473498Y-104206931D01*
X119470573Y-104203783D01*
X119280711Y-103999468D01*
X119280708Y-103999466D01*
X119277790Y-103996325D01*
X119274474Y-103993611D01*
X119274471Y-103993608D01*
X119058629Y-103816942D01*
X119058622Y-103816937D01*
X119055311Y-103814227D01*
X118810176Y-103664009D01*
X118806240Y-103662281D01*
X118550851Y-103550172D01*
X118550847Y-103550171D01*
X118546923Y-103548448D01*
X118270421Y-103469685D01*
X118059794Y-103439708D01*
X117990041Y-103429781D01*
X117990039Y-103429781D01*
X117985789Y-103429176D01*
X117834976Y-103428387D01*
X117702579Y-103427693D01*
X117702573Y-103427693D01*
X117698292Y-103427671D01*
X117694048Y-103428230D01*
X117694044Y-103428230D01*
X117568864Y-103444710D01*
X117413251Y-103465197D01*
X117409111Y-103466330D01*
X117409109Y-103466330D01*
X117392547Y-103470861D01*
X117135940Y-103541061D01*
X117114580Y-103550172D01*
X116875433Y-103652176D01*
X116875426Y-103652180D01*
X116871491Y-103653858D01*
X116867810Y-103656061D01*
X116628479Y-103799297D01*
X116628475Y-103799300D01*
X116624797Y-103801501D01*
X116621454Y-103804179D01*
X116621450Y-103804182D01*
X116511922Y-103891931D01*
X116400423Y-103981259D01*
X116397479Y-103984361D01*
X116397475Y-103984365D01*
X116383143Y-103999468D01*
X116202520Y-104189804D01*
X116034752Y-104423279D01*
X115900222Y-104677362D01*
X115801419Y-104947352D01*
X115740173Y-105228254D01*
X115717616Y-105514868D01*
X89157196Y-105514868D01*
X89156766Y-79327468D01*
X157144616Y-79327468D01*
X157161166Y-79614492D01*
X157161991Y-79618697D01*
X157161992Y-79618705D01*
X157162624Y-79621925D01*
X157216516Y-79896614D01*
X157217903Y-79900665D01*
X157272212Y-80059288D01*
X157309642Y-80168614D01*
X157438822Y-80425459D01*
X157601664Y-80662396D01*
X157795155Y-80875040D01*
X158015716Y-81059457D01*
X158019357Y-81061741D01*
X158255624Y-81209952D01*
X158255628Y-81209954D01*
X158259264Y-81212235D01*
X158521293Y-81330545D01*
X158525412Y-81331765D01*
X158792841Y-81410982D01*
X158792846Y-81410983D01*
X158796954Y-81412200D01*
X158801188Y-81412848D01*
X158801193Y-81412849D01*
X159054037Y-81451540D01*
X159081147Y-81455688D01*
X159227498Y-81457987D01*
X159364321Y-81460137D01*
X159364327Y-81460137D01*
X159368612Y-81460204D01*
X159372864Y-81459689D01*
X159372872Y-81459689D01*
X159594529Y-81432865D01*
X159654030Y-81425664D01*
X159658179Y-81424576D01*
X159658182Y-81424575D01*
X159927970Y-81353798D01*
X159932121Y-81352709D01*
X160197736Y-81242687D01*
X160246827Y-81214001D01*
X160442255Y-81099802D01*
X160442257Y-81099800D01*
X160445963Y-81097635D01*
X160672208Y-80920237D01*
X160872283Y-80713775D01*
X160874816Y-80710327D01*
X160874820Y-80710322D01*
X161037316Y-80489109D01*
X161042487Y-80482070D01*
X161073224Y-80425459D01*
X161177621Y-80233185D01*
X161177622Y-80233183D01*
X161179671Y-80229409D01*
X161244956Y-80056637D01*
X161279777Y-79964487D01*
X161279778Y-79964483D01*
X161281295Y-79960469D01*
X161345479Y-79680224D01*
X161350970Y-79618705D01*
X161370816Y-79396328D01*
X161370816Y-79396326D01*
X161371036Y-79393862D01*
X161371291Y-79369585D01*
X161371474Y-79352084D01*
X161371474Y-79352083D01*
X161371500Y-79349600D01*
X161354271Y-79096869D01*
X161352238Y-79067042D01*
X161352237Y-79067036D01*
X161351946Y-79062765D01*
X161347409Y-79040854D01*
X161294513Y-78785435D01*
X161293644Y-78781238D01*
X161197674Y-78510228D01*
X161173746Y-78463868D01*
X194330616Y-78463868D01*
X194347166Y-78750892D01*
X194347991Y-78755097D01*
X194347992Y-78755105D01*
X194353943Y-78785435D01*
X194402516Y-79033014D01*
X194495642Y-79305014D01*
X194624822Y-79561859D01*
X194787664Y-79798796D01*
X194981155Y-80011440D01*
X195201716Y-80195857D01*
X195205357Y-80198141D01*
X195441624Y-80346352D01*
X195441628Y-80346354D01*
X195445264Y-80348635D01*
X195707293Y-80466945D01*
X195758354Y-80482070D01*
X195978841Y-80547382D01*
X195978846Y-80547383D01*
X195982954Y-80548600D01*
X195987188Y-80549248D01*
X195987193Y-80549249D01*
X196240037Y-80587940D01*
X196267147Y-80592088D01*
X196413498Y-80594387D01*
X196550321Y-80596537D01*
X196550327Y-80596537D01*
X196554612Y-80596604D01*
X196558864Y-80596089D01*
X196558872Y-80596089D01*
X196780529Y-80569265D01*
X196840030Y-80562064D01*
X196844179Y-80560976D01*
X196844182Y-80560975D01*
X197113970Y-80490198D01*
X197118121Y-80489109D01*
X197383736Y-80379087D01*
X197432827Y-80350401D01*
X197628255Y-80236202D01*
X197628257Y-80236200D01*
X197631963Y-80234035D01*
X197858208Y-80056637D01*
X197955460Y-79956281D01*
X198055300Y-79853253D01*
X198058283Y-79850175D01*
X198060816Y-79846727D01*
X198060820Y-79846722D01*
X198225949Y-79621925D01*
X198228487Y-79618470D01*
X198259224Y-79561859D01*
X198363621Y-79369585D01*
X198363622Y-79369583D01*
X198365671Y-79365809D01*
X198467295Y-79096869D01*
X198531479Y-78816624D01*
X198534998Y-78777200D01*
X198556816Y-78532728D01*
X198556816Y-78532726D01*
X198557036Y-78530262D01*
X198557459Y-78489962D01*
X198557474Y-78488484D01*
X198557474Y-78488483D01*
X198557500Y-78486000D01*
X198555700Y-78459597D01*
X198538238Y-78203442D01*
X198538237Y-78203436D01*
X198537946Y-78199165D01*
X198533409Y-78177254D01*
X198497198Y-78002404D01*
X198479644Y-77917638D01*
X198383674Y-77646628D01*
X198251812Y-77391150D01*
X198086498Y-77155931D01*
X198083573Y-77152783D01*
X197893711Y-76948468D01*
X197893708Y-76948466D01*
X197890790Y-76945325D01*
X197887474Y-76942611D01*
X197887471Y-76942608D01*
X197671629Y-76765942D01*
X197671622Y-76765937D01*
X197668311Y-76763227D01*
X197423176Y-76613009D01*
X197419240Y-76611281D01*
X197163851Y-76499172D01*
X197163847Y-76499171D01*
X197159923Y-76497448D01*
X196883421Y-76418685D01*
X196672794Y-76388708D01*
X196603041Y-76378781D01*
X196603039Y-76378781D01*
X196598789Y-76378176D01*
X196447976Y-76377387D01*
X196315579Y-76376693D01*
X196315573Y-76376693D01*
X196311292Y-76376671D01*
X196307048Y-76377230D01*
X196307044Y-76377230D01*
X196181864Y-76393710D01*
X196026251Y-76414197D01*
X196022111Y-76415330D01*
X196022109Y-76415330D01*
X196005547Y-76419861D01*
X195748940Y-76490061D01*
X195727580Y-76499172D01*
X195488433Y-76601176D01*
X195488426Y-76601180D01*
X195484491Y-76602858D01*
X195480810Y-76605061D01*
X195241479Y-76748297D01*
X195241475Y-76748300D01*
X195237797Y-76750501D01*
X195234454Y-76753179D01*
X195234450Y-76753182D01*
X195124922Y-76840931D01*
X195013423Y-76930259D01*
X195010479Y-76933361D01*
X195010475Y-76933365D01*
X194996143Y-76948468D01*
X194815520Y-77138804D01*
X194647752Y-77372279D01*
X194513222Y-77626362D01*
X194414419Y-77896352D01*
X194353173Y-78177254D01*
X194330616Y-78463868D01*
X161173746Y-78463868D01*
X161065812Y-78254750D01*
X160900498Y-78019531D01*
X160897573Y-78016383D01*
X160707711Y-77812068D01*
X160707708Y-77812066D01*
X160704790Y-77808925D01*
X160701474Y-77806211D01*
X160701471Y-77806208D01*
X160485629Y-77629542D01*
X160485622Y-77629537D01*
X160482311Y-77626827D01*
X160237176Y-77476609D01*
X160233240Y-77474881D01*
X159977851Y-77362772D01*
X159977847Y-77362771D01*
X159973923Y-77361048D01*
X159697421Y-77282285D01*
X159486794Y-77252308D01*
X159417041Y-77242381D01*
X159417039Y-77242381D01*
X159412789Y-77241776D01*
X159261976Y-77240987D01*
X159129579Y-77240293D01*
X159129573Y-77240293D01*
X159125292Y-77240271D01*
X159121048Y-77240830D01*
X159121044Y-77240830D01*
X158995864Y-77257310D01*
X158840251Y-77277797D01*
X158836111Y-77278930D01*
X158836109Y-77278930D01*
X158819547Y-77283461D01*
X158562940Y-77353661D01*
X158541580Y-77362772D01*
X158302433Y-77464776D01*
X158302426Y-77464780D01*
X158298491Y-77466458D01*
X158294810Y-77468661D01*
X158055479Y-77611897D01*
X158055475Y-77611900D01*
X158051797Y-77614101D01*
X158048454Y-77616779D01*
X158048450Y-77616782D01*
X157938922Y-77704531D01*
X157827423Y-77793859D01*
X157824479Y-77796961D01*
X157824475Y-77796965D01*
X157632470Y-77999295D01*
X157629520Y-78002404D01*
X157461752Y-78235879D01*
X157327222Y-78489962D01*
X157311572Y-78532728D01*
X157231735Y-78750892D01*
X157228419Y-78759952D01*
X157167173Y-79040854D01*
X157144616Y-79327468D01*
X89156766Y-79327468D01*
X89156540Y-65586068D01*
X91663216Y-65586068D01*
X91679766Y-65873092D01*
X91680591Y-65877297D01*
X91680592Y-65877305D01*
X91691823Y-65934548D01*
X91735116Y-66155214D01*
X91828242Y-66427214D01*
X91957422Y-66684059D01*
X92120264Y-66920996D01*
X92313755Y-67133640D01*
X92534316Y-67318057D01*
X92537957Y-67320341D01*
X92774224Y-67468552D01*
X92774228Y-67468554D01*
X92777864Y-67470835D01*
X93039893Y-67589145D01*
X93044012Y-67590365D01*
X93311441Y-67669582D01*
X93311446Y-67669583D01*
X93315554Y-67670800D01*
X93319788Y-67671448D01*
X93319793Y-67671449D01*
X93572637Y-67710140D01*
X93599747Y-67714288D01*
X93746098Y-67716587D01*
X93882921Y-67718737D01*
X93882927Y-67718737D01*
X93887212Y-67718804D01*
X93891464Y-67718289D01*
X93891472Y-67718289D01*
X94113129Y-67691465D01*
X94172630Y-67684264D01*
X94176779Y-67683176D01*
X94176782Y-67683175D01*
X94446570Y-67612398D01*
X94450721Y-67611309D01*
X94716336Y-67501287D01*
X94765427Y-67472601D01*
X94960855Y-67358402D01*
X94960857Y-67358400D01*
X94964563Y-67356235D01*
X95190808Y-67178837D01*
X95390883Y-66972375D01*
X95393416Y-66968927D01*
X95393420Y-66968922D01*
X95558549Y-66744125D01*
X95561087Y-66740670D01*
X95591824Y-66684059D01*
X95696221Y-66491785D01*
X95696222Y-66491783D01*
X95698271Y-66488009D01*
X95799895Y-66219069D01*
X95864079Y-65938824D01*
X95869570Y-65877305D01*
X95889416Y-65654928D01*
X95889416Y-65654926D01*
X95889636Y-65652462D01*
X95890100Y-65608200D01*
X95870546Y-65321365D01*
X95866009Y-65299454D01*
X95813113Y-65044035D01*
X95812244Y-65039838D01*
X95716274Y-64768828D01*
X95584412Y-64513350D01*
X95419098Y-64278131D01*
X95416173Y-64274983D01*
X95226311Y-64070668D01*
X95226308Y-64070666D01*
X95223390Y-64067525D01*
X95220074Y-64064811D01*
X95220071Y-64064808D01*
X95004229Y-63888142D01*
X95004222Y-63888137D01*
X95000911Y-63885427D01*
X94755776Y-63735209D01*
X94751840Y-63733481D01*
X94496451Y-63621372D01*
X94496447Y-63621371D01*
X94492523Y-63619648D01*
X94216021Y-63540885D01*
X94005394Y-63510908D01*
X93935641Y-63500981D01*
X93935639Y-63500981D01*
X93931389Y-63500376D01*
X93780576Y-63499587D01*
X93648179Y-63498893D01*
X93648173Y-63498893D01*
X93643892Y-63498871D01*
X93639648Y-63499430D01*
X93639644Y-63499430D01*
X93514464Y-63515910D01*
X93358851Y-63536397D01*
X93354711Y-63537530D01*
X93354709Y-63537530D01*
X93338147Y-63542061D01*
X93081540Y-63612261D01*
X93060180Y-63621372D01*
X92821033Y-63723376D01*
X92821026Y-63723380D01*
X92817091Y-63725058D01*
X92813410Y-63727261D01*
X92574079Y-63870497D01*
X92574075Y-63870500D01*
X92570397Y-63872701D01*
X92567054Y-63875379D01*
X92567050Y-63875382D01*
X92457522Y-63963131D01*
X92346023Y-64052459D01*
X92343079Y-64055561D01*
X92343075Y-64055565D01*
X92328743Y-64070668D01*
X92148120Y-64261004D01*
X91980352Y-64494479D01*
X91845822Y-64748562D01*
X91747019Y-65018552D01*
X91685773Y-65299454D01*
X91663216Y-65586068D01*
X89156540Y-65586068D01*
X89156306Y-51320351D01*
X89156228Y-46596169D01*
X89176229Y-46528048D01*
X89229884Y-46481554D01*
X89282327Y-46470167D01*
X98402651Y-46477643D01*
X112873172Y-46489504D01*
X119607415Y-46495024D01*
X119619354Y-46495601D01*
X119650942Y-46498634D01*
X119650943Y-46498634D01*
X119659880Y-46499492D01*
X119668699Y-46497807D01*
X119668703Y-46497807D01*
X119716590Y-46488658D01*
X119722464Y-46487679D01*
X119779596Y-46479545D01*
X119787770Y-46475837D01*
X119789769Y-46475254D01*
X119790890Y-46474984D01*
X119791944Y-46474565D01*
X119793933Y-46473881D01*
X119802748Y-46472197D01*
X119810735Y-46468107D01*
X119810738Y-46468106D01*
X119854140Y-46445880D01*
X119859514Y-46443287D01*
X119903877Y-46423160D01*
X119912052Y-46419451D01*
X119918856Y-46413598D01*
X119920602Y-46412483D01*
X119921610Y-46411905D01*
X119922518Y-46411196D01*
X119924219Y-46409993D01*
X119932211Y-46405901D01*
X119954076Y-46385213D01*
X119974141Y-46366228D01*
X119978570Y-46362232D01*
X120015513Y-46330453D01*
X120015515Y-46330451D01*
X120022319Y-46324598D01*
X120027208Y-46317069D01*
X120028578Y-46315501D01*
X120029376Y-46314670D01*
X120030044Y-46313742D01*
X120031346Y-46312102D01*
X120037864Y-46305934D01*
X120066972Y-46256090D01*
X120070102Y-46251010D01*
X120096642Y-46210138D01*
X120096643Y-46210136D01*
X120101531Y-46202608D01*
X120104110Y-46194009D01*
X120104982Y-46192126D01*
X120105518Y-46191099D01*
X120105899Y-46190018D01*
X120106687Y-46188080D01*
X120111212Y-46180332D01*
X120125171Y-46124282D01*
X120126732Y-46118592D01*
X120143320Y-46063289D01*
X120143627Y-46018993D01*
X120144129Y-46008591D01*
X120228411Y-45070500D01*
X120279782Y-44498724D01*
X120305800Y-44432666D01*
X120363401Y-44391161D01*
X120372915Y-44388226D01*
X120915985Y-44243902D01*
X120916603Y-44243739D01*
X121743213Y-44028543D01*
X121744029Y-44028334D01*
X123915500Y-43478511D01*
X123916323Y-43478305D01*
X124642361Y-43299657D01*
X124643184Y-43299458D01*
X125369956Y-43125806D01*
X126816085Y-42780273D01*
X126816903Y-42780081D01*
X127544891Y-42611306D01*
X127545717Y-42611117D01*
X129233529Y-42231763D01*
X129725873Y-42121103D01*
X129726676Y-42120926D01*
X130456522Y-41962035D01*
X130457351Y-41961857D01*
X131818799Y-41675039D01*
X132643786Y-41501239D01*
X132644556Y-41501079D01*
X133377203Y-41351871D01*
X133377672Y-41351777D01*
X134980940Y-41036479D01*
X135570014Y-40920632D01*
X135570845Y-40920471D01*
X135808098Y-40875468D01*
X136305357Y-40781146D01*
X136305806Y-40781063D01*
X138504044Y-40379393D01*
X138504878Y-40379244D01*
X139240588Y-40249920D01*
X139241423Y-40249776D01*
X139779029Y-40158998D01*
X141444746Y-39877732D01*
X141445322Y-39877636D01*
X142183233Y-39758135D01*
X142184071Y-39758003D01*
X144391888Y-39415680D01*
X144392726Y-39415553D01*
X144750482Y-39362544D01*
X145132208Y-39305984D01*
X145132695Y-39305913D01*
X146604173Y-39097990D01*
X147345247Y-38993275D01*
X147346086Y-38993160D01*
X147521785Y-38969537D01*
X148086801Y-38893572D01*
X148087367Y-38893498D01*
X150303719Y-38610676D01*
X150304350Y-38610597D01*
X151046705Y-38520938D01*
X151047467Y-38520848D01*
X152048430Y-38406781D01*
X153267270Y-38267885D01*
X153268112Y-38267792D01*
X153789262Y-38211951D01*
X154011330Y-38188156D01*
X154012106Y-38188076D01*
X156235171Y-37964988D01*
X156235857Y-37964922D01*
X156597454Y-37931090D01*
X156980157Y-37895284D01*
X156981001Y-37895208D01*
X159206785Y-37702053D01*
X159207629Y-37701982D01*
X159952760Y-37642365D01*
X159953605Y-37642301D01*
X160698586Y-37587737D01*
X162181953Y-37479092D01*
X162182707Y-37479040D01*
X162436250Y-37462183D01*
X162928128Y-37429482D01*
X162928973Y-37429428D01*
X165159644Y-37296190D01*
X165160491Y-37296142D01*
X165906303Y-37256627D01*
X165907149Y-37256585D01*
X168006159Y-37159526D01*
X168139648Y-37153354D01*
X168140467Y-37153319D01*
X168886796Y-37123838D01*
X168887490Y-37123813D01*
X171121030Y-37050627D01*
X171121686Y-37050607D01*
X171868449Y-37031166D01*
X171869283Y-37031146D01*
X171936210Y-37029854D01*
X174103644Y-36988012D01*
X174104491Y-36987999D01*
X174851473Y-36978604D01*
X174852321Y-36978596D01*
X176461795Y-36969179D01*
X177086699Y-36965523D01*
X177087420Y-36965521D01*
X177496254Y-36965879D01*
G37*
G04 #@! TD.AperFunction*
M02*
