G04 #@! TF.GenerationSoftware,KiCad,Pcbnew,5.99.0-unknown-d878cbddbc~125~ubuntu20.04.1*
G04 #@! TF.CreationDate,2021-04-11T20:16:07+01:00*
G04 #@! TF.ProjectId,bottom,626f7474-6f6d-42e6-9b69-6361645f7063,rev?*
G04 #@! TF.SameCoordinates,Original*
G04 #@! TF.FileFunction,Legend,Bot*
G04 #@! TF.FilePolarity,Positive*
%FSLAX46Y46*%
G04 Gerber Fmt 4.6, Leading zero omitted, Abs format (unit mm)*
G04 Created by KiCad (PCBNEW 5.99.0-unknown-d878cbddbc~125~ubuntu20.04.1) date 2021-04-11 20:16:07*
%MOMM*%
%LPD*%
G01*
G04 APERTURE LIST*
%ADD10C,0.150000*%
%ADD11C,0.010000*%
G04 APERTURE END LIST*
D10*
X197205904Y-74738380D02*
X197205904Y-73738380D01*
X197205904Y-74214571D02*
X196634476Y-74214571D01*
X196634476Y-74738380D02*
X196634476Y-73738380D01*
X196205904Y-73833619D02*
X196158285Y-73786000D01*
X196063047Y-73738380D01*
X195824952Y-73738380D01*
X195729714Y-73786000D01*
X195682095Y-73833619D01*
X195634476Y-73928857D01*
X195634476Y-74024095D01*
X195682095Y-74166952D01*
X196253523Y-74738380D01*
X195634476Y-74738380D01*
X118592904Y-101789380D02*
X118592904Y-100789380D01*
X118592904Y-101265571D02*
X118021476Y-101265571D01*
X118021476Y-101789380D02*
X118021476Y-100789380D01*
X117640523Y-100789380D02*
X117021476Y-100789380D01*
X117354809Y-101170333D01*
X117211952Y-101170333D01*
X117116714Y-101217952D01*
X117069095Y-101265571D01*
X117021476Y-101360809D01*
X117021476Y-101598904D01*
X117069095Y-101694142D01*
X117116714Y-101741761D01*
X117211952Y-101789380D01*
X117497666Y-101789380D01*
X117592904Y-101741761D01*
X117640523Y-101694142D01*
X102844904Y-124446380D02*
X102844904Y-123446380D01*
X102844904Y-123922571D02*
X102273476Y-123922571D01*
X102273476Y-124446380D02*
X102273476Y-123446380D01*
X101749666Y-124446380D02*
X101559190Y-124446380D01*
X101463952Y-124398761D01*
X101416333Y-124351142D01*
X101321095Y-124208285D01*
X101273476Y-124017809D01*
X101273476Y-123636857D01*
X101321095Y-123541619D01*
X101368714Y-123494000D01*
X101463952Y-123446380D01*
X101654428Y-123446380D01*
X101749666Y-123494000D01*
X101797285Y-123541619D01*
X101844904Y-123636857D01*
X101844904Y-123874952D01*
X101797285Y-123970190D01*
X101749666Y-124017809D01*
X101654428Y-124065428D01*
X101463952Y-124065428D01*
X101368714Y-124017809D01*
X101321095Y-123970190D01*
X101273476Y-123874952D01*
X225799095Y-129450380D02*
X225799095Y-128450380D01*
X225799095Y-128926571D02*
X225227666Y-128926571D01*
X225227666Y-129450380D02*
X225227666Y-128450380D01*
X224227666Y-129450380D02*
X224799095Y-129450380D01*
X224513380Y-129450380D02*
X224513380Y-128450380D01*
X224608619Y-128593238D01*
X224703857Y-128688476D01*
X224799095Y-128736095D01*
X223608619Y-128450380D02*
X223513380Y-128450380D01*
X223418142Y-128498000D01*
X223370523Y-128545619D01*
X223322904Y-128640857D01*
X223275285Y-128831333D01*
X223275285Y-129069428D01*
X223322904Y-129259904D01*
X223370523Y-129355142D01*
X223418142Y-129402761D01*
X223513380Y-129450380D01*
X223608619Y-129450380D01*
X223703857Y-129402761D01*
X223751476Y-129355142D01*
X223799095Y-129259904D01*
X223846714Y-129069428D01*
X223846714Y-128831333D01*
X223799095Y-128640857D01*
X223751476Y-128545619D01*
X223703857Y-128498000D01*
X223608619Y-128450380D01*
X160019904Y-75601980D02*
X160019904Y-74601980D01*
X160019904Y-75078171D02*
X159448476Y-75078171D01*
X159448476Y-75601980D02*
X159448476Y-74601980D01*
X158543714Y-74601980D02*
X158734190Y-74601980D01*
X158829428Y-74649600D01*
X158877047Y-74697219D01*
X158972285Y-74840076D01*
X159019904Y-75030552D01*
X159019904Y-75411504D01*
X158972285Y-75506742D01*
X158924666Y-75554361D01*
X158829428Y-75601980D01*
X158638952Y-75601980D01*
X158543714Y-75554361D01*
X158496095Y-75506742D01*
X158448476Y-75411504D01*
X158448476Y-75173409D01*
X158496095Y-75078171D01*
X158543714Y-75030552D01*
X158638952Y-74982933D01*
X158829428Y-74982933D01*
X158924666Y-75030552D01*
X158972285Y-75078171D01*
X159019904Y-75173409D01*
X95014695Y-61860580D02*
X95014695Y-60860580D01*
X95014695Y-61336771D02*
X94443266Y-61336771D01*
X94443266Y-61860580D02*
X94443266Y-60860580D01*
X93443266Y-61860580D02*
X94014695Y-61860580D01*
X93728980Y-61860580D02*
X93728980Y-60860580D01*
X93824219Y-61003438D01*
X93919457Y-61098676D01*
X94014695Y-61146295D01*
X92490885Y-61860580D02*
X93062314Y-61860580D01*
X92776600Y-61860580D02*
X92776600Y-60860580D01*
X92871838Y-61003438D01*
X92967076Y-61098676D01*
X93062314Y-61146295D01*
D11*
X196848180Y-65276076D02*
X196255126Y-65745653D01*
X196255126Y-65745653D02*
X195565568Y-66718640D01*
X195565568Y-66718640D02*
X194829221Y-68064849D01*
X194829221Y-68064849D02*
X194095798Y-69654094D01*
X194095798Y-69654094D02*
X193415013Y-71356186D01*
X193415013Y-71356186D02*
X192836579Y-73040940D01*
X192836579Y-73040940D02*
X192410210Y-74578167D01*
X192410210Y-74578167D02*
X192185620Y-75837681D01*
X192185620Y-75837681D02*
X192212522Y-76689295D01*
X192212522Y-76689295D02*
X192386129Y-76961038D01*
X192386129Y-76961038D02*
X192764689Y-76832227D01*
X192764689Y-76832227D02*
X193460233Y-76333889D01*
X193460233Y-76333889D02*
X193959710Y-75902789D01*
X193959710Y-75902789D02*
X194791509Y-75205501D01*
X194791509Y-75205501D02*
X195450458Y-74767053D01*
X195450458Y-74767053D02*
X195669416Y-74690111D01*
X195669416Y-74690111D02*
X195843842Y-74969540D01*
X195843842Y-74969540D02*
X195921957Y-75836491D01*
X195921957Y-75836491D02*
X195905769Y-77333961D01*
X195905769Y-77333961D02*
X195850695Y-78570667D01*
X195850695Y-78570667D02*
X195779722Y-80128790D01*
X195779722Y-80128790D02*
X195743713Y-81388391D01*
X195743713Y-81388391D02*
X195745305Y-82207453D01*
X195745305Y-82207453D02*
X195778595Y-82451222D01*
X195778595Y-82451222D02*
X196019002Y-82176850D01*
X196019002Y-82176850D02*
X196417763Y-81513394D01*
X196417763Y-81513394D02*
X196435290Y-81481083D01*
X196435290Y-81481083D02*
X197325865Y-79717311D01*
X197325865Y-79717311D02*
X197907796Y-78216779D01*
X197907796Y-78216779D02*
X198285085Y-76670422D01*
X198285085Y-76670422D02*
X198483057Y-75395667D01*
X198483057Y-75395667D02*
X198634436Y-73718789D01*
X198634436Y-73718789D02*
X198682492Y-71960434D01*
X198682492Y-71960434D02*
X198626247Y-70633167D01*
X198626247Y-70633167D02*
X198412197Y-69175809D01*
X198412197Y-69175809D02*
X198083789Y-67755888D01*
X198083789Y-67755888D02*
X197692542Y-66528627D01*
X197692542Y-66528627D02*
X197289977Y-65649246D01*
X197289977Y-65649246D02*
X196927612Y-65272968D01*
X196927612Y-65272968D02*
X196848180Y-65276076D01*
X196848180Y-65276076D02*
X196848180Y-65276076D01*
G36*
X197289977Y-65649246D02*
G01*
X197692542Y-66528627D01*
X198083789Y-67755888D01*
X198412197Y-69175809D01*
X198626247Y-70633167D01*
X198682492Y-71960434D01*
X198634436Y-73718789D01*
X198483057Y-75395667D01*
X198285085Y-76670422D01*
X197907796Y-78216779D01*
X197325865Y-79717311D01*
X196435290Y-81481083D01*
X196417763Y-81513394D01*
X196019002Y-82176850D01*
X195778595Y-82451222D01*
X195745305Y-82207453D01*
X195743713Y-81388391D01*
X195779722Y-80128790D01*
X195850695Y-78570667D01*
X195905769Y-77333961D01*
X195921957Y-75836491D01*
X195843842Y-74969540D01*
X195669416Y-74690111D01*
X195450458Y-74767053D01*
X194791509Y-75205501D01*
X193959710Y-75902789D01*
X193460233Y-76333889D01*
X192764689Y-76832227D01*
X192386129Y-76961038D01*
X192212522Y-76689295D01*
X192185620Y-75837681D01*
X192410210Y-74578167D01*
X192836579Y-73040940D01*
X193415013Y-71356186D01*
X194095798Y-69654094D01*
X194829221Y-68064849D01*
X195565568Y-66718640D01*
X196255126Y-65745653D01*
X196848180Y-65276076D01*
X196927612Y-65272968D01*
X197289977Y-65649246D01*
G37*
X197289977Y-65649246D02*
X197692542Y-66528627D01*
X198083789Y-67755888D01*
X198412197Y-69175809D01*
X198626247Y-70633167D01*
X198682492Y-71960434D01*
X198634436Y-73718789D01*
X198483057Y-75395667D01*
X198285085Y-76670422D01*
X197907796Y-78216779D01*
X197325865Y-79717311D01*
X196435290Y-81481083D01*
X196417763Y-81513394D01*
X196019002Y-82176850D01*
X195778595Y-82451222D01*
X195745305Y-82207453D01*
X195743713Y-81388391D01*
X195779722Y-80128790D01*
X195850695Y-78570667D01*
X195905769Y-77333961D01*
X195921957Y-75836491D01*
X195843842Y-74969540D01*
X195669416Y-74690111D01*
X195450458Y-74767053D01*
X194791509Y-75205501D01*
X193959710Y-75902789D01*
X193460233Y-76333889D01*
X192764689Y-76832227D01*
X192386129Y-76961038D01*
X192212522Y-76689295D01*
X192185620Y-75837681D01*
X192410210Y-74578167D01*
X192836579Y-73040940D01*
X193415013Y-71356186D01*
X194095798Y-69654094D01*
X194829221Y-68064849D01*
X195565568Y-66718640D01*
X196255126Y-65745653D01*
X196848180Y-65276076D01*
X196927612Y-65272968D01*
X197289977Y-65649246D01*
X177420364Y-55784020D02*
X176578711Y-56258879D01*
X176578711Y-56258879D02*
X175799580Y-57129384D01*
X175799580Y-57129384D02*
X175043484Y-58460230D01*
X175043484Y-58460230D02*
X174270937Y-60316115D01*
X174270937Y-60316115D02*
X173442452Y-62761734D01*
X173442452Y-62761734D02*
X172873556Y-64635944D01*
X172873556Y-64635944D02*
X172182480Y-68065673D01*
X172182480Y-68065673D02*
X172119807Y-71439204D01*
X172119807Y-71439204D02*
X172684352Y-74639587D01*
X172684352Y-74639587D02*
X172984301Y-75572056D01*
X172984301Y-75572056D02*
X173302801Y-76473896D01*
X173302801Y-76473896D02*
X173742933Y-77738597D01*
X173742933Y-77738597D02*
X174121031Y-78835250D01*
X174121031Y-78835250D02*
X174577257Y-80097349D01*
X174577257Y-80097349D02*
X174913343Y-80773399D01*
X174913343Y-80773399D02*
X175212010Y-80953117D01*
X175212010Y-80953117D02*
X175555977Y-80726217D01*
X175555977Y-80726217D02*
X175710019Y-80558623D01*
X175710019Y-80558623D02*
X176147557Y-79846325D01*
X176147557Y-79846325D02*
X176342644Y-79364130D01*
X176342644Y-79364130D02*
X176868599Y-78442653D01*
X176868599Y-78442653D02*
X177835537Y-77344762D01*
X177835537Y-77344762D02*
X179067699Y-76236734D01*
X179067699Y-76236734D02*
X180389323Y-75284845D01*
X180389323Y-75284845D02*
X181054890Y-74906104D01*
X181054890Y-74906104D02*
X182050262Y-74389873D01*
X182050262Y-74389873D02*
X182758958Y-73926505D01*
X182758958Y-73926505D02*
X183219758Y-73393253D01*
X183219758Y-73393253D02*
X183471443Y-72667368D01*
X183471443Y-72667368D02*
X183552793Y-71626103D01*
X183552793Y-71626103D02*
X183502589Y-70146709D01*
X183502589Y-70146709D02*
X183359611Y-68106438D01*
X183359611Y-68106438D02*
X183329684Y-67705920D01*
X183329684Y-67705920D02*
X183138515Y-65254262D01*
X183138515Y-65254262D02*
X182965123Y-63380703D01*
X182965123Y-63380703D02*
X182786556Y-61958963D01*
X182786556Y-61958963D02*
X182579864Y-60862762D01*
X182579864Y-60862762D02*
X182322095Y-59965820D01*
X182322095Y-59965820D02*
X181990297Y-59141857D01*
X181990297Y-59141857D02*
X181642624Y-58423680D01*
X181642624Y-58423680D02*
X180850723Y-57018304D01*
X180850723Y-57018304D02*
X180125829Y-56166303D01*
X180125829Y-56166303D02*
X179325983Y-55747153D01*
X179325983Y-55747153D02*
X178364025Y-55640111D01*
X178364025Y-55640111D02*
X177420364Y-55784020D01*
X177420364Y-55784020D02*
X177420364Y-55784020D01*
G36*
X179325983Y-55747153D02*
G01*
X180125829Y-56166303D01*
X180850723Y-57018304D01*
X181642624Y-58423680D01*
X181990297Y-59141857D01*
X182322095Y-59965820D01*
X182579864Y-60862762D01*
X182786556Y-61958963D01*
X182965123Y-63380703D01*
X183138515Y-65254262D01*
X183329684Y-67705920D01*
X183359611Y-68106438D01*
X183502589Y-70146709D01*
X183552793Y-71626103D01*
X183471443Y-72667368D01*
X183219758Y-73393253D01*
X182758958Y-73926505D01*
X182050262Y-74389873D01*
X181054890Y-74906104D01*
X180389323Y-75284845D01*
X179067699Y-76236734D01*
X177835537Y-77344762D01*
X176868599Y-78442653D01*
X176342644Y-79364130D01*
X176147557Y-79846325D01*
X175710019Y-80558623D01*
X175555977Y-80726217D01*
X175212010Y-80953117D01*
X174913343Y-80773399D01*
X174577257Y-80097349D01*
X174121031Y-78835250D01*
X173742933Y-77738597D01*
X173302801Y-76473896D01*
X172984301Y-75572056D01*
X172684352Y-74639587D01*
X172119807Y-71439204D01*
X172182480Y-68065673D01*
X172873556Y-64635944D01*
X173442452Y-62761734D01*
X174270937Y-60316115D01*
X175043484Y-58460230D01*
X175799580Y-57129384D01*
X176578711Y-56258879D01*
X177420364Y-55784020D01*
X178364025Y-55640111D01*
X179325983Y-55747153D01*
G37*
X179325983Y-55747153D02*
X180125829Y-56166303D01*
X180850723Y-57018304D01*
X181642624Y-58423680D01*
X181990297Y-59141857D01*
X182322095Y-59965820D01*
X182579864Y-60862762D01*
X182786556Y-61958963D01*
X182965123Y-63380703D01*
X183138515Y-65254262D01*
X183329684Y-67705920D01*
X183359611Y-68106438D01*
X183502589Y-70146709D01*
X183552793Y-71626103D01*
X183471443Y-72667368D01*
X183219758Y-73393253D01*
X182758958Y-73926505D01*
X182050262Y-74389873D01*
X181054890Y-74906104D01*
X180389323Y-75284845D01*
X179067699Y-76236734D01*
X177835537Y-77344762D01*
X176868599Y-78442653D01*
X176342644Y-79364130D01*
X176147557Y-79846325D01*
X175710019Y-80558623D01*
X175555977Y-80726217D01*
X175212010Y-80953117D01*
X174913343Y-80773399D01*
X174577257Y-80097349D01*
X174121031Y-78835250D01*
X173742933Y-77738597D01*
X173302801Y-76473896D01*
X172984301Y-75572056D01*
X172684352Y-74639587D01*
X172119807Y-71439204D01*
X172182480Y-68065673D01*
X172873556Y-64635944D01*
X173442452Y-62761734D01*
X174270937Y-60316115D01*
X175043484Y-58460230D01*
X175799580Y-57129384D01*
X176578711Y-56258879D01*
X177420364Y-55784020D01*
X178364025Y-55640111D01*
X179325983Y-55747153D01*
X165648523Y-47193459D02*
X164690536Y-47781295D01*
X164690536Y-47781295D02*
X163758043Y-48680797D01*
X163758043Y-48680797D02*
X163133755Y-49558643D01*
X163133755Y-49558643D02*
X162628914Y-50447235D01*
X162628914Y-50447235D02*
X162497006Y-50881402D01*
X162497006Y-50881402D02*
X162748055Y-51011784D01*
X162748055Y-51011784D02*
X163229572Y-50998703D01*
X163229572Y-50998703D02*
X164125120Y-51036623D01*
X164125120Y-51036623D02*
X165215891Y-51193148D01*
X165215891Y-51193148D02*
X165280668Y-51206004D01*
X165280668Y-51206004D02*
X166277675Y-51296172D01*
X166277675Y-51296172D02*
X166888480Y-51022984D01*
X166888480Y-51022984D02*
X167004104Y-50899094D01*
X167004104Y-50899094D02*
X167325358Y-50260220D01*
X167325358Y-50260220D02*
X167452280Y-49258317D01*
X167452280Y-49258317D02*
X167412799Y-47814578D01*
X167412799Y-47814578D02*
X167135919Y-47158637D01*
X167135919Y-47158637D02*
X166505739Y-46968752D01*
X166505739Y-46968752D02*
X165648523Y-47193459D01*
X165648523Y-47193459D02*
X165648523Y-47193459D01*
G36*
X167135919Y-47158637D02*
G01*
X167412799Y-47814578D01*
X167452280Y-49258317D01*
X167325358Y-50260220D01*
X167004104Y-50899094D01*
X166888480Y-51022984D01*
X166277675Y-51296172D01*
X165280668Y-51206004D01*
X165215891Y-51193148D01*
X164125120Y-51036623D01*
X163229572Y-50998703D01*
X162748055Y-51011784D01*
X162497006Y-50881402D01*
X162628914Y-50447235D01*
X163133755Y-49558643D01*
X163758043Y-48680797D01*
X164690536Y-47781295D01*
X165648523Y-47193459D01*
X166505739Y-46968752D01*
X167135919Y-47158637D01*
G37*
X167135919Y-47158637D02*
X167412799Y-47814578D01*
X167452280Y-49258317D01*
X167325358Y-50260220D01*
X167004104Y-50899094D01*
X166888480Y-51022984D01*
X166277675Y-51296172D01*
X165280668Y-51206004D01*
X165215891Y-51193148D01*
X164125120Y-51036623D01*
X163229572Y-50998703D01*
X162748055Y-51011784D01*
X162497006Y-50881402D01*
X162628914Y-50447235D01*
X163133755Y-49558643D01*
X163758043Y-48680797D01*
X164690536Y-47781295D01*
X165648523Y-47193459D01*
X166505739Y-46968752D01*
X167135919Y-47158637D01*
X179747457Y-103960094D02*
X179016113Y-104449619D01*
X179016113Y-104449619D02*
X178492081Y-105267405D01*
X178492081Y-105267405D02*
X178168156Y-106477863D01*
X178168156Y-106477863D02*
X178037134Y-108145401D01*
X178037134Y-108145401D02*
X178091810Y-110334428D01*
X178091810Y-110334428D02*
X178324980Y-113109354D01*
X178324980Y-113109354D02*
X178524682Y-114891774D01*
X178524682Y-114891774D02*
X178757045Y-116271434D01*
X178757045Y-116271434D02*
X179057997Y-116954930D01*
X179057997Y-116954930D02*
X179453140Y-116950344D01*
X179453140Y-116950344D02*
X179968078Y-116265755D01*
X179968078Y-116265755D02*
X180372147Y-115474874D01*
X180372147Y-115474874D02*
X180864894Y-114312429D01*
X180864894Y-114312429D02*
X181238891Y-113229929D01*
X181238891Y-113229929D02*
X181320386Y-112917235D01*
X181320386Y-112917235D02*
X181617437Y-111880524D01*
X181617437Y-111880524D02*
X181905140Y-111152754D01*
X181905140Y-111152754D02*
X182062458Y-110450802D01*
X182062458Y-110450802D02*
X182149660Y-109274646D01*
X182149660Y-109274646D02*
X182151805Y-107853474D01*
X182151805Y-107853474D02*
X182140138Y-107547240D01*
X182140138Y-107547240D02*
X181985400Y-105707064D01*
X181985400Y-105707064D02*
X181690566Y-104501566D01*
X181690566Y-104501566D02*
X181212856Y-103866610D01*
X181212856Y-103866610D02*
X180509491Y-103738061D01*
X180509491Y-103738061D02*
X179747457Y-103960094D01*
X179747457Y-103960094D02*
X179747457Y-103960094D01*
G36*
X181212856Y-103866610D02*
G01*
X181690566Y-104501566D01*
X181985400Y-105707064D01*
X182140138Y-107547240D01*
X182151805Y-107853474D01*
X182149660Y-109274646D01*
X182062458Y-110450802D01*
X181905140Y-111152754D01*
X181617437Y-111880524D01*
X181320386Y-112917235D01*
X181238891Y-113229929D01*
X180864894Y-114312429D01*
X180372147Y-115474874D01*
X179968078Y-116265755D01*
X179453140Y-116950344D01*
X179057997Y-116954930D01*
X178757045Y-116271434D01*
X178524682Y-114891774D01*
X178324980Y-113109354D01*
X178091810Y-110334428D01*
X178037134Y-108145401D01*
X178168156Y-106477863D01*
X178492081Y-105267405D01*
X179016113Y-104449619D01*
X179747457Y-103960094D01*
X180509491Y-103738061D01*
X181212856Y-103866610D01*
G37*
X181212856Y-103866610D02*
X181690566Y-104501566D01*
X181985400Y-105707064D01*
X182140138Y-107547240D01*
X182151805Y-107853474D01*
X182149660Y-109274646D01*
X182062458Y-110450802D01*
X181905140Y-111152754D01*
X181617437Y-111880524D01*
X181320386Y-112917235D01*
X181238891Y-113229929D01*
X180864894Y-114312429D01*
X180372147Y-115474874D01*
X179968078Y-116265755D01*
X179453140Y-116950344D01*
X179057997Y-116954930D01*
X178757045Y-116271434D01*
X178524682Y-114891774D01*
X178324980Y-113109354D01*
X178091810Y-110334428D01*
X178037134Y-108145401D01*
X178168156Y-106477863D01*
X178492081Y-105267405D01*
X179016113Y-104449619D01*
X179747457Y-103960094D01*
X180509491Y-103738061D01*
X181212856Y-103866610D01*
X162026966Y-44279790D02*
X161506324Y-44911377D01*
X161506324Y-44911377D02*
X160923443Y-45767231D01*
X160923443Y-45767231D02*
X160766648Y-46343184D01*
X160766648Y-46343184D02*
X160959204Y-46846868D01*
X160959204Y-46846868D02*
X161301377Y-47613668D01*
X161301377Y-47613668D02*
X161377489Y-48029782D01*
X161377489Y-48029782D02*
X161557819Y-48633543D01*
X161557819Y-48633543D02*
X162030697Y-48645458D01*
X162030697Y-48645458D02*
X162645330Y-48117033D01*
X162645330Y-48117033D02*
X163459561Y-47330357D01*
X163459561Y-47330357D02*
X164287905Y-46711008D01*
X164287905Y-46711008D02*
X165069745Y-46025995D01*
X165069745Y-46025995D02*
X165164164Y-45340982D01*
X165164164Y-45340982D02*
X164572493Y-44579484D01*
X164572493Y-44579484D02*
X164328525Y-44376827D01*
X164328525Y-44376827D02*
X163430340Y-43797329D01*
X163430340Y-43797329D02*
X162728071Y-43752687D01*
X162728071Y-43752687D02*
X162026966Y-44279790D01*
X162026966Y-44279790D02*
X162026966Y-44279790D01*
G36*
X163430340Y-43797329D02*
G01*
X164328525Y-44376827D01*
X164572493Y-44579484D01*
X165164164Y-45340982D01*
X165069745Y-46025995D01*
X164287905Y-46711008D01*
X163459561Y-47330357D01*
X162645330Y-48117033D01*
X162030697Y-48645458D01*
X161557819Y-48633543D01*
X161377489Y-48029782D01*
X161301377Y-47613668D01*
X160959204Y-46846868D01*
X160766648Y-46343184D01*
X160923443Y-45767231D01*
X161506324Y-44911377D01*
X162026966Y-44279790D01*
X162728071Y-43752687D01*
X163430340Y-43797329D01*
G37*
X163430340Y-43797329D02*
X164328525Y-44376827D01*
X164572493Y-44579484D01*
X165164164Y-45340982D01*
X165069745Y-46025995D01*
X164287905Y-46711008D01*
X163459561Y-47330357D01*
X162645330Y-48117033D01*
X162030697Y-48645458D01*
X161557819Y-48633543D01*
X161377489Y-48029782D01*
X161301377Y-47613668D01*
X160959204Y-46846868D01*
X160766648Y-46343184D01*
X160923443Y-45767231D01*
X161506324Y-44911377D01*
X162026966Y-44279790D01*
X162728071Y-43752687D01*
X163430340Y-43797329D01*
X173076102Y-84899822D02*
X171624003Y-85831078D01*
X171624003Y-85831078D02*
X170350079Y-87264838D01*
X170350079Y-87264838D02*
X170248150Y-87416776D01*
X170248150Y-87416776D02*
X169346330Y-88977772D01*
X169346330Y-88977772D02*
X168936949Y-90248640D01*
X168936949Y-90248640D02*
X168991733Y-91415344D01*
X168991733Y-91415344D02*
X169457680Y-92615725D01*
X169457680Y-92615725D02*
X169914375Y-93694327D01*
X169914375Y-93694327D02*
X170174209Y-94663497D01*
X170174209Y-94663497D02*
X170196933Y-94917584D01*
X170196933Y-94917584D02*
X170387997Y-95750050D01*
X170387997Y-95750050D02*
X170688146Y-96178056D01*
X170688146Y-96178056D02*
X171172969Y-96788853D01*
X171172969Y-96788853D02*
X171608030Y-97620632D01*
X171608030Y-97620632D02*
X172116054Y-98421390D01*
X172116054Y-98421390D02*
X172715687Y-98871039D01*
X172715687Y-98871039D02*
X173862692Y-99542611D01*
X173862692Y-99542611D02*
X174898069Y-100685960D01*
X174898069Y-100685960D02*
X175608275Y-102053631D01*
X175608275Y-102053631D02*
X176068910Y-103105035D01*
X176068910Y-103105035D02*
X176520667Y-103462287D01*
X176520667Y-103462287D02*
X177023604Y-103133417D01*
X177023604Y-103133417D02*
X177540705Y-102311978D01*
X177540705Y-102311978D02*
X178370331Y-100718977D01*
X178370331Y-100718977D02*
X178939711Y-99491249D01*
X178939711Y-99491249D02*
X179343916Y-98384509D01*
X179343916Y-98384509D02*
X179678016Y-97154474D01*
X179678016Y-97154474D02*
X179866652Y-96335468D01*
X179866652Y-96335468D02*
X180235947Y-94486137D01*
X180235947Y-94486137D02*
X180372803Y-93081679D01*
X180372803Y-93081679D02*
X180254859Y-91893415D01*
X180254859Y-91893415D02*
X179859753Y-90692662D01*
X179859753Y-90692662D02*
X179175904Y-89271494D01*
X179175904Y-89271494D02*
X178121992Y-87520636D01*
X178121992Y-87520636D02*
X176975720Y-86087766D01*
X176975720Y-86087766D02*
X175839752Y-85077495D01*
X175839752Y-85077495D02*
X174816752Y-84594433D01*
X174816752Y-84594433D02*
X174559848Y-84567889D01*
X174559848Y-84567889D02*
X173076102Y-84899822D01*
X173076102Y-84899822D02*
X173076102Y-84899822D01*
G36*
X174816752Y-84594433D02*
G01*
X175839752Y-85077495D01*
X176975720Y-86087766D01*
X178121992Y-87520636D01*
X179175904Y-89271494D01*
X179859753Y-90692662D01*
X180254859Y-91893415D01*
X180372803Y-93081679D01*
X180235947Y-94486137D01*
X179866652Y-96335468D01*
X179678016Y-97154474D01*
X179343916Y-98384509D01*
X178939711Y-99491249D01*
X178370331Y-100718977D01*
X177540705Y-102311978D01*
X177023604Y-103133417D01*
X176520667Y-103462287D01*
X176068910Y-103105035D01*
X175608275Y-102053631D01*
X174898069Y-100685960D01*
X173862692Y-99542611D01*
X172715687Y-98871039D01*
X172116054Y-98421390D01*
X171608030Y-97620632D01*
X171172969Y-96788853D01*
X170688146Y-96178056D01*
X170387997Y-95750050D01*
X170196933Y-94917584D01*
X170174209Y-94663497D01*
X169914375Y-93694327D01*
X169457680Y-92615725D01*
X168991733Y-91415344D01*
X168936949Y-90248640D01*
X169346330Y-88977772D01*
X170248150Y-87416776D01*
X170350079Y-87264838D01*
X171624003Y-85831078D01*
X173076102Y-84899822D01*
X174559848Y-84567889D01*
X174816752Y-84594433D01*
G37*
X174816752Y-84594433D02*
X175839752Y-85077495D01*
X176975720Y-86087766D01*
X178121992Y-87520636D01*
X179175904Y-89271494D01*
X179859753Y-90692662D01*
X180254859Y-91893415D01*
X180372803Y-93081679D01*
X180235947Y-94486137D01*
X179866652Y-96335468D01*
X179678016Y-97154474D01*
X179343916Y-98384509D01*
X178939711Y-99491249D01*
X178370331Y-100718977D01*
X177540705Y-102311978D01*
X177023604Y-103133417D01*
X176520667Y-103462287D01*
X176068910Y-103105035D01*
X175608275Y-102053631D01*
X174898069Y-100685960D01*
X173862692Y-99542611D01*
X172715687Y-98871039D01*
X172116054Y-98421390D01*
X171608030Y-97620632D01*
X171172969Y-96788853D01*
X170688146Y-96178056D01*
X170387997Y-95750050D01*
X170196933Y-94917584D01*
X170174209Y-94663497D01*
X169914375Y-93694327D01*
X169457680Y-92615725D01*
X168991733Y-91415344D01*
X168936949Y-90248640D01*
X169346330Y-88977772D01*
X170248150Y-87416776D01*
X170350079Y-87264838D01*
X171624003Y-85831078D01*
X173076102Y-84899822D01*
X174559848Y-84567889D01*
X174816752Y-84594433D01*
X156602353Y-92303904D02*
X156487994Y-93197473D01*
X156487994Y-93197473D02*
X156453033Y-94522720D01*
X156453033Y-94522720D02*
X156493384Y-96145432D01*
X156493384Y-96145432D02*
X156604961Y-97931398D01*
X156604961Y-97931398D02*
X156783677Y-99746407D01*
X156783677Y-99746407D02*
X157025447Y-101456246D01*
X157025447Y-101456246D02*
X157101969Y-101887629D01*
X157101969Y-101887629D02*
X157895584Y-105136666D01*
X157895584Y-105136666D02*
X158942083Y-107732012D01*
X158942083Y-107732012D02*
X160243869Y-109679575D01*
X160243869Y-109679575D02*
X160296900Y-109739212D01*
X160296900Y-109739212D02*
X162204255Y-111777311D01*
X162204255Y-111777311D02*
X163976238Y-113508320D01*
X163976238Y-113508320D02*
X165526836Y-114854104D01*
X165526836Y-114854104D02*
X166770033Y-115736527D01*
X166770033Y-115736527D02*
X167087117Y-115907428D01*
X167087117Y-115907428D02*
X168320252Y-116402841D01*
X168320252Y-116402841D02*
X169604683Y-116764318D01*
X169604683Y-116764318D02*
X170736200Y-116950826D01*
X170736200Y-116950826D02*
X171510593Y-116921328D01*
X171510593Y-116921328D02*
X171683827Y-116831118D01*
X171683827Y-116831118D02*
X171722535Y-116352012D01*
X171722535Y-116352012D02*
X171400120Y-115590888D01*
X171400120Y-115590888D02*
X170827443Y-114790169D01*
X170827443Y-114790169D02*
X170678168Y-114632060D01*
X170678168Y-114632060D02*
X170122893Y-113982398D01*
X170122893Y-113982398D02*
X169940134Y-113716097D01*
X169940134Y-113716097D02*
X169546259Y-113287820D01*
X169546259Y-113287820D02*
X168755238Y-112569048D01*
X168755238Y-112569048D02*
X167726201Y-111703292D01*
X167726201Y-111703292D02*
X167551100Y-111561526D01*
X167551100Y-111561526D02*
X165947401Y-110214187D01*
X165947401Y-110214187D02*
X164829917Y-109117223D01*
X164829917Y-109117223D02*
X164090783Y-108140386D01*
X164090783Y-108140386D02*
X163622131Y-107153428D01*
X163622131Y-107153428D02*
X163455810Y-106616500D01*
X163455810Y-106616500D02*
X163000970Y-105395785D01*
X163000970Y-105395785D02*
X162387289Y-104265898D01*
X162387289Y-104265898D02*
X162304160Y-104147055D01*
X162304160Y-104147055D02*
X161810312Y-103368643D01*
X161810312Y-103368643D02*
X161190179Y-102253013D01*
X161190179Y-102253013D02*
X160534786Y-100983386D01*
X160534786Y-100983386D02*
X159935157Y-99742981D01*
X159935157Y-99742981D02*
X159482315Y-98715019D01*
X159482315Y-98715019D02*
X159267285Y-98082719D01*
X159267285Y-98082719D02*
X159260822Y-98021192D01*
X159260822Y-98021192D02*
X159110261Y-97509196D01*
X159110261Y-97509196D02*
X158746741Y-96715706D01*
X158746741Y-96715706D02*
X158733829Y-96690853D01*
X158733829Y-96690853D02*
X158357995Y-95792822D01*
X158357995Y-95792822D02*
X158204662Y-95083848D01*
X158204662Y-95083848D02*
X158043062Y-94462365D01*
X158043062Y-94462365D02*
X157895276Y-94297439D01*
X157895276Y-94297439D02*
X157614119Y-93846482D01*
X157614119Y-93846482D02*
X157374929Y-93041897D01*
X157374929Y-93041897D02*
X157122374Y-92297084D01*
X157122374Y-92297084D02*
X156808241Y-91976481D01*
X156808241Y-91976481D02*
X156800197Y-91976222D01*
X156800197Y-91976222D02*
X156602353Y-92303904D01*
X156602353Y-92303904D02*
X156602353Y-92303904D01*
G36*
X156808241Y-91976481D02*
G01*
X157122374Y-92297084D01*
X157374929Y-93041897D01*
X157614119Y-93846482D01*
X157895276Y-94297439D01*
X158043062Y-94462365D01*
X158204662Y-95083848D01*
X158357995Y-95792822D01*
X158733829Y-96690853D01*
X158746741Y-96715706D01*
X159110261Y-97509196D01*
X159260822Y-98021192D01*
X159267285Y-98082719D01*
X159482315Y-98715019D01*
X159935157Y-99742981D01*
X160534786Y-100983386D01*
X161190179Y-102253013D01*
X161810312Y-103368643D01*
X162304160Y-104147055D01*
X162387289Y-104265898D01*
X163000970Y-105395785D01*
X163455810Y-106616500D01*
X163622131Y-107153428D01*
X164090783Y-108140386D01*
X164829917Y-109117223D01*
X165947401Y-110214187D01*
X167551100Y-111561526D01*
X167726201Y-111703292D01*
X168755238Y-112569048D01*
X169546259Y-113287820D01*
X169940134Y-113716097D01*
X170122893Y-113982398D01*
X170678168Y-114632060D01*
X170827443Y-114790169D01*
X171400120Y-115590888D01*
X171722535Y-116352012D01*
X171683827Y-116831118D01*
X171510593Y-116921328D01*
X170736200Y-116950826D01*
X169604683Y-116764318D01*
X168320252Y-116402841D01*
X167087117Y-115907428D01*
X166770033Y-115736527D01*
X165526836Y-114854104D01*
X163976238Y-113508320D01*
X162204255Y-111777311D01*
X160296900Y-109739212D01*
X160243869Y-109679575D01*
X158942083Y-107732012D01*
X157895584Y-105136666D01*
X157101969Y-101887629D01*
X157025447Y-101456246D01*
X156783677Y-99746407D01*
X156604961Y-97931398D01*
X156493384Y-96145432D01*
X156453033Y-94522720D01*
X156487994Y-93197473D01*
X156602353Y-92303904D01*
X156800197Y-91976222D01*
X156808241Y-91976481D01*
G37*
X156808241Y-91976481D02*
X157122374Y-92297084D01*
X157374929Y-93041897D01*
X157614119Y-93846482D01*
X157895276Y-94297439D01*
X158043062Y-94462365D01*
X158204662Y-95083848D01*
X158357995Y-95792822D01*
X158733829Y-96690853D01*
X158746741Y-96715706D01*
X159110261Y-97509196D01*
X159260822Y-98021192D01*
X159267285Y-98082719D01*
X159482315Y-98715019D01*
X159935157Y-99742981D01*
X160534786Y-100983386D01*
X161190179Y-102253013D01*
X161810312Y-103368643D01*
X162304160Y-104147055D01*
X162387289Y-104265898D01*
X163000970Y-105395785D01*
X163455810Y-106616500D01*
X163622131Y-107153428D01*
X164090783Y-108140386D01*
X164829917Y-109117223D01*
X165947401Y-110214187D01*
X167551100Y-111561526D01*
X167726201Y-111703292D01*
X168755238Y-112569048D01*
X169546259Y-113287820D01*
X169940134Y-113716097D01*
X170122893Y-113982398D01*
X170678168Y-114632060D01*
X170827443Y-114790169D01*
X171400120Y-115590888D01*
X171722535Y-116352012D01*
X171683827Y-116831118D01*
X171510593Y-116921328D01*
X170736200Y-116950826D01*
X169604683Y-116764318D01*
X168320252Y-116402841D01*
X167087117Y-115907428D01*
X166770033Y-115736527D01*
X165526836Y-114854104D01*
X163976238Y-113508320D01*
X162204255Y-111777311D01*
X160296900Y-109739212D01*
X160243869Y-109679575D01*
X158942083Y-107732012D01*
X157895584Y-105136666D01*
X157101969Y-101887629D01*
X157025447Y-101456246D01*
X156783677Y-99746407D01*
X156604961Y-97931398D01*
X156493384Y-96145432D01*
X156453033Y-94522720D01*
X156487994Y-93197473D01*
X156602353Y-92303904D01*
X156800197Y-91976222D01*
X156808241Y-91976481D01*
X163053034Y-101237555D02*
X162783075Y-101621762D01*
X162783075Y-101621762D02*
X163071900Y-102355047D01*
X163071900Y-102355047D02*
X163240792Y-102592198D01*
X163240792Y-102592198D02*
X163840621Y-103049715D01*
X163840621Y-103049715D02*
X164817227Y-103475902D01*
X164817227Y-103475902D02*
X165992771Y-103832340D01*
X165992771Y-103832340D02*
X167189413Y-104080608D01*
X167189413Y-104080608D02*
X168229315Y-104182287D01*
X168229315Y-104182287D02*
X168934638Y-104098958D01*
X168934638Y-104098958D02*
X169138600Y-103866338D01*
X169138600Y-103866338D02*
X168840776Y-103463502D01*
X168840776Y-103463502D02*
X168087257Y-102980122D01*
X168087257Y-102980122D02*
X167639294Y-102770395D01*
X167639294Y-102770395D02*
X166428115Y-102254549D01*
X166428115Y-102254549D02*
X165275719Y-101753744D01*
X165275719Y-101753744D02*
X165028341Y-101644171D01*
X165028341Y-101644171D02*
X163821536Y-101234375D01*
X163821536Y-101234375D02*
X163053034Y-101237555D01*
X163053034Y-101237555D02*
X163053034Y-101237555D01*
G36*
X165028341Y-101644171D02*
G01*
X165275719Y-101753744D01*
X166428115Y-102254549D01*
X167639294Y-102770395D01*
X168087257Y-102980122D01*
X168840776Y-103463502D01*
X169138600Y-103866338D01*
X168934638Y-104098958D01*
X168229315Y-104182287D01*
X167189413Y-104080608D01*
X165992771Y-103832340D01*
X164817227Y-103475902D01*
X163840621Y-103049715D01*
X163240792Y-102592198D01*
X163071900Y-102355047D01*
X162783075Y-101621762D01*
X163053034Y-101237555D01*
X163821536Y-101234375D01*
X165028341Y-101644171D01*
G37*
X165028341Y-101644171D02*
X165275719Y-101753744D01*
X166428115Y-102254549D01*
X167639294Y-102770395D01*
X168087257Y-102980122D01*
X168840776Y-103463502D01*
X169138600Y-103866338D01*
X168934638Y-104098958D01*
X168229315Y-104182287D01*
X167189413Y-104080608D01*
X165992771Y-103832340D01*
X164817227Y-103475902D01*
X163840621Y-103049715D01*
X163240792Y-102592198D01*
X163071900Y-102355047D01*
X162783075Y-101621762D01*
X163053034Y-101237555D01*
X163821536Y-101234375D01*
X165028341Y-101644171D01*
X153304810Y-49218594D02*
X152527950Y-50088530D01*
X152527950Y-50088530D02*
X151679999Y-51586372D01*
X151679999Y-51586372D02*
X151013826Y-53064899D01*
X151013826Y-53064899D02*
X150442894Y-54818781D01*
X150442894Y-54818781D02*
X150036389Y-56861326D01*
X150036389Y-56861326D02*
X149810264Y-58987598D01*
X149810264Y-58987598D02*
X149780472Y-60992663D01*
X149780472Y-60992663D02*
X149962966Y-62671587D01*
X149962966Y-62671587D02*
X150202349Y-63489417D01*
X150202349Y-63489417D02*
X150696079Y-64460255D01*
X150696079Y-64460255D02*
X151067141Y-64738551D01*
X151067141Y-64738551D02*
X151311675Y-64327243D01*
X151311675Y-64327243D02*
X151425819Y-63229269D01*
X151425819Y-63229269D02*
X151433883Y-62552269D01*
X151433883Y-62552269D02*
X151666463Y-60302695D01*
X151666463Y-60302695D02*
X152401895Y-58526174D01*
X152401895Y-58526174D02*
X153392619Y-57395210D01*
X153392619Y-57395210D02*
X153760764Y-56918998D01*
X153760764Y-56918998D02*
X153985816Y-56145572D01*
X153985816Y-56145572D02*
X154107047Y-54906755D01*
X154107047Y-54906755D02*
X154136350Y-54210332D01*
X154136350Y-54210332D02*
X154217225Y-52699734D01*
X154217225Y-52699734D02*
X154346584Y-51276540D01*
X154346584Y-51276540D02*
X154494461Y-50260250D01*
X154494461Y-50260250D02*
X154630431Y-49398705D01*
X154630431Y-49398705D02*
X154511902Y-49022663D01*
X154511902Y-49022663D02*
X154071902Y-48937452D01*
X154071902Y-48937452D02*
X154039336Y-48937333D01*
X154039336Y-48937333D02*
X153304810Y-49218594D01*
X153304810Y-49218594D02*
X153304810Y-49218594D01*
G36*
X154071902Y-48937452D02*
G01*
X154511902Y-49022663D01*
X154630431Y-49398705D01*
X154494461Y-50260250D01*
X154346584Y-51276540D01*
X154217225Y-52699734D01*
X154136350Y-54210332D01*
X154107047Y-54906755D01*
X153985816Y-56145572D01*
X153760764Y-56918998D01*
X153392619Y-57395210D01*
X152401895Y-58526174D01*
X151666463Y-60302695D01*
X151433883Y-62552269D01*
X151425819Y-63229269D01*
X151311675Y-64327243D01*
X151067141Y-64738551D01*
X150696079Y-64460255D01*
X150202349Y-63489417D01*
X149962966Y-62671587D01*
X149780472Y-60992663D01*
X149810264Y-58987598D01*
X150036389Y-56861326D01*
X150442894Y-54818781D01*
X151013826Y-53064899D01*
X151679999Y-51586372D01*
X152527950Y-50088530D01*
X153304810Y-49218594D01*
X154039336Y-48937333D01*
X154071902Y-48937452D01*
G37*
X154071902Y-48937452D02*
X154511902Y-49022663D01*
X154630431Y-49398705D01*
X154494461Y-50260250D01*
X154346584Y-51276540D01*
X154217225Y-52699734D01*
X154136350Y-54210332D01*
X154107047Y-54906755D01*
X153985816Y-56145572D01*
X153760764Y-56918998D01*
X153392619Y-57395210D01*
X152401895Y-58526174D01*
X151666463Y-60302695D01*
X151433883Y-62552269D01*
X151425819Y-63229269D01*
X151311675Y-64327243D01*
X151067141Y-64738551D01*
X150696079Y-64460255D01*
X150202349Y-63489417D01*
X149962966Y-62671587D01*
X149780472Y-60992663D01*
X149810264Y-58987598D01*
X150036389Y-56861326D01*
X150442894Y-54818781D01*
X151013826Y-53064899D01*
X151679999Y-51586372D01*
X152527950Y-50088530D01*
X153304810Y-49218594D01*
X154039336Y-48937333D01*
X154071902Y-48937452D01*
X148741474Y-108880002D02*
X148549136Y-109007196D01*
X148549136Y-109007196D02*
X147972723Y-109796401D01*
X147972723Y-109796401D02*
X147621386Y-111011522D01*
X147621386Y-111011522D02*
X147552587Y-112393118D01*
X147552587Y-112393118D02*
X147646095Y-113084380D01*
X147646095Y-113084380D02*
X147940206Y-113877471D01*
X147940206Y-113877471D02*
X148485837Y-114931359D01*
X148485837Y-114931359D02*
X149154562Y-116037974D01*
X149154562Y-116037974D02*
X149817949Y-116989244D01*
X149817949Y-116989244D02*
X150347572Y-117577097D01*
X150347572Y-117577097D02*
X150466565Y-117653921D01*
X150466565Y-117653921D02*
X150850696Y-117933014D01*
X150850696Y-117933014D02*
X151541649Y-118513242D01*
X151541649Y-118513242D02*
X151840026Y-118776207D01*
X151840026Y-118776207D02*
X152561156Y-119298784D01*
X152561156Y-119298784D02*
X153770364Y-120044950D01*
X153770364Y-120044950D02*
X155321315Y-120929546D01*
X155321315Y-120929546D02*
X157067672Y-121867412D01*
X157067672Y-121867412D02*
X157797902Y-122243355D01*
X157797902Y-122243355D02*
X160674239Y-123712931D01*
X160674239Y-123712931D02*
X162968087Y-124904016D01*
X162968087Y-124904016D02*
X164732129Y-125845308D01*
X164732129Y-125845308D02*
X166019049Y-126565501D01*
X166019049Y-126565501D02*
X166881532Y-127093290D01*
X166881532Y-127093290D02*
X167372262Y-127457373D01*
X167372262Y-127457373D02*
X167374711Y-127459594D01*
X167374711Y-127459594D02*
X169053575Y-128952522D01*
X169053575Y-128952522D02*
X170593555Y-130260713D01*
X170593555Y-130260713D02*
X171914689Y-131321627D01*
X171914689Y-131321627D02*
X172937009Y-132072721D01*
X172937009Y-132072721D02*
X173580551Y-132451453D01*
X173580551Y-132451453D02*
X173764935Y-132457472D01*
X173764935Y-132457472D02*
X173829551Y-132084220D01*
X173829551Y-132084220D02*
X173928380Y-131310944D01*
X173928380Y-131310944D02*
X173900814Y-130584354D01*
X173900814Y-130584354D02*
X173552411Y-129895084D01*
X173552411Y-129895084D02*
X172769008Y-129036220D01*
X172769008Y-129036220D02*
X172565240Y-128840281D01*
X172565240Y-128840281D02*
X170197697Y-126776001D01*
X170197697Y-126776001D02*
X168053621Y-125305324D01*
X168053621Y-125305324D02*
X166669155Y-124611223D01*
X166669155Y-124611223D02*
X164491704Y-123497207D01*
X164491704Y-123497207D02*
X162096805Y-121930491D01*
X162096805Y-121930491D02*
X159665887Y-120040355D01*
X159665887Y-120040355D02*
X157512033Y-118086154D01*
X157512033Y-118086154D02*
X156195144Y-116744256D01*
X156195144Y-116744256D02*
X155285273Y-115668772D01*
X155285273Y-115668772D02*
X154649172Y-114672331D01*
X154649172Y-114672331D02*
X154153591Y-113567564D01*
X154153591Y-113567564D02*
X153996608Y-113142889D01*
X153996608Y-113142889D02*
X153138839Y-111256594D01*
X153138839Y-111256594D02*
X152111782Y-109831996D01*
X152111782Y-109831996D02*
X150988097Y-108924257D01*
X150988097Y-108924257D02*
X149840441Y-108588538D01*
X149840441Y-108588538D02*
X148741474Y-108880002D01*
X148741474Y-108880002D02*
X148741474Y-108880002D01*
G36*
X150988097Y-108924257D02*
G01*
X152111782Y-109831996D01*
X153138839Y-111256594D01*
X153996608Y-113142889D01*
X154153591Y-113567564D01*
X154649172Y-114672331D01*
X155285273Y-115668772D01*
X156195144Y-116744256D01*
X157512033Y-118086154D01*
X159665887Y-120040355D01*
X162096805Y-121930491D01*
X164491704Y-123497207D01*
X166669155Y-124611223D01*
X168053621Y-125305324D01*
X170197697Y-126776001D01*
X172565240Y-128840281D01*
X172769008Y-129036220D01*
X173552411Y-129895084D01*
X173900814Y-130584354D01*
X173928380Y-131310944D01*
X173829551Y-132084220D01*
X173764935Y-132457472D01*
X173580551Y-132451453D01*
X172937009Y-132072721D01*
X171914689Y-131321627D01*
X170593555Y-130260713D01*
X169053575Y-128952522D01*
X167374711Y-127459594D01*
X167372262Y-127457373D01*
X166881532Y-127093290D01*
X166019049Y-126565501D01*
X164732129Y-125845308D01*
X162968087Y-124904016D01*
X160674239Y-123712931D01*
X157797902Y-122243355D01*
X157067672Y-121867412D01*
X155321315Y-120929546D01*
X153770364Y-120044950D01*
X152561156Y-119298784D01*
X151840026Y-118776207D01*
X151541649Y-118513242D01*
X150850696Y-117933014D01*
X150466565Y-117653921D01*
X150347572Y-117577097D01*
X149817949Y-116989244D01*
X149154562Y-116037974D01*
X148485837Y-114931359D01*
X147940206Y-113877471D01*
X147646095Y-113084380D01*
X147552587Y-112393118D01*
X147621386Y-111011522D01*
X147972723Y-109796401D01*
X148549136Y-109007196D01*
X148741474Y-108880002D01*
X149840441Y-108588538D01*
X150988097Y-108924257D01*
G37*
X150988097Y-108924257D02*
X152111782Y-109831996D01*
X153138839Y-111256594D01*
X153996608Y-113142889D01*
X154153591Y-113567564D01*
X154649172Y-114672331D01*
X155285273Y-115668772D01*
X156195144Y-116744256D01*
X157512033Y-118086154D01*
X159665887Y-120040355D01*
X162096805Y-121930491D01*
X164491704Y-123497207D01*
X166669155Y-124611223D01*
X168053621Y-125305324D01*
X170197697Y-126776001D01*
X172565240Y-128840281D01*
X172769008Y-129036220D01*
X173552411Y-129895084D01*
X173900814Y-130584354D01*
X173928380Y-131310944D01*
X173829551Y-132084220D01*
X173764935Y-132457472D01*
X173580551Y-132451453D01*
X172937009Y-132072721D01*
X171914689Y-131321627D01*
X170593555Y-130260713D01*
X169053575Y-128952522D01*
X167374711Y-127459594D01*
X167372262Y-127457373D01*
X166881532Y-127093290D01*
X166019049Y-126565501D01*
X164732129Y-125845308D01*
X162968087Y-124904016D01*
X160674239Y-123712931D01*
X157797902Y-122243355D01*
X157067672Y-121867412D01*
X155321315Y-120929546D01*
X153770364Y-120044950D01*
X152561156Y-119298784D01*
X151840026Y-118776207D01*
X151541649Y-118513242D01*
X150850696Y-117933014D01*
X150466565Y-117653921D01*
X150347572Y-117577097D01*
X149817949Y-116989244D01*
X149154562Y-116037974D01*
X148485837Y-114931359D01*
X147940206Y-113877471D01*
X147646095Y-113084380D01*
X147552587Y-112393118D01*
X147621386Y-111011522D01*
X147972723Y-109796401D01*
X148549136Y-109007196D01*
X148741474Y-108880002D01*
X149840441Y-108588538D01*
X150988097Y-108924257D01*
X155833274Y-57824875D02*
X154957185Y-57999272D01*
X154957185Y-57999272D02*
X154364156Y-58465241D01*
X154364156Y-58465241D02*
X153838730Y-59332733D01*
X153838730Y-59332733D02*
X153310183Y-60950700D01*
X153310183Y-60950700D02*
X153095493Y-63083974D01*
X153095493Y-63083974D02*
X153202777Y-65611990D01*
X153202777Y-65611990D02*
X153340833Y-66728546D01*
X153340833Y-66728546D02*
X153573024Y-67927223D01*
X153573024Y-67927223D02*
X153939372Y-69387524D01*
X153939372Y-69387524D02*
X154387268Y-70942941D01*
X154387268Y-70942941D02*
X154864106Y-72426968D01*
X154864106Y-72426968D02*
X155317277Y-73673099D01*
X155317277Y-73673099D02*
X155694174Y-74514826D01*
X155694174Y-74514826D02*
X155882439Y-74772903D01*
X155882439Y-74772903D02*
X156431906Y-74921864D01*
X156431906Y-74921864D02*
X157419680Y-75018181D01*
X157419680Y-75018181D02*
X158107573Y-75037487D01*
X158107573Y-75037487D02*
X159209309Y-75003554D01*
X159209309Y-75003554D02*
X159801824Y-74843389D01*
X159801824Y-74843389D02*
X160079600Y-74481922D01*
X160079600Y-74481922D02*
X160149908Y-74249139D01*
X160149908Y-74249139D02*
X160541278Y-72011826D01*
X160541278Y-72011826D02*
X160708831Y-69513062D01*
X160708831Y-69513062D02*
X160663070Y-66946030D01*
X160663070Y-66946030D02*
X160414496Y-64503916D01*
X160414496Y-64503916D02*
X159973611Y-62379903D01*
X159973611Y-62379903D02*
X159424603Y-60906898D01*
X159424603Y-60906898D02*
X158548831Y-59355516D01*
X158548831Y-59355516D02*
X157747297Y-58388007D01*
X157747297Y-58388007D02*
X156907521Y-57907842D01*
X156907521Y-57907842D02*
X155917023Y-57818491D01*
X155917023Y-57818491D02*
X155833274Y-57824875D01*
X155833274Y-57824875D02*
X155833274Y-57824875D01*
G36*
X156907521Y-57907842D02*
G01*
X157747297Y-58388007D01*
X158548831Y-59355516D01*
X159424603Y-60906898D01*
X159973611Y-62379903D01*
X160414496Y-64503916D01*
X160663070Y-66946030D01*
X160708831Y-69513062D01*
X160541278Y-72011826D01*
X160149908Y-74249139D01*
X160079600Y-74481922D01*
X159801824Y-74843389D01*
X159209309Y-75003554D01*
X158107573Y-75037487D01*
X157419680Y-75018181D01*
X156431906Y-74921864D01*
X155882439Y-74772903D01*
X155694174Y-74514826D01*
X155317277Y-73673099D01*
X154864106Y-72426968D01*
X154387268Y-70942941D01*
X153939372Y-69387524D01*
X153573024Y-67927223D01*
X153340833Y-66728546D01*
X153202777Y-65611990D01*
X153095493Y-63083974D01*
X153310183Y-60950700D01*
X153838730Y-59332733D01*
X154364156Y-58465241D01*
X154957185Y-57999272D01*
X155833274Y-57824875D01*
X155917023Y-57818491D01*
X156907521Y-57907842D01*
G37*
X156907521Y-57907842D02*
X157747297Y-58388007D01*
X158548831Y-59355516D01*
X159424603Y-60906898D01*
X159973611Y-62379903D01*
X160414496Y-64503916D01*
X160663070Y-66946030D01*
X160708831Y-69513062D01*
X160541278Y-72011826D01*
X160149908Y-74249139D01*
X160079600Y-74481922D01*
X159801824Y-74843389D01*
X159209309Y-75003554D01*
X158107573Y-75037487D01*
X157419680Y-75018181D01*
X156431906Y-74921864D01*
X155882439Y-74772903D01*
X155694174Y-74514826D01*
X155317277Y-73673099D01*
X154864106Y-72426968D01*
X154387268Y-70942941D01*
X153939372Y-69387524D01*
X153573024Y-67927223D01*
X153340833Y-66728546D01*
X153202777Y-65611990D01*
X153095493Y-63083974D01*
X153310183Y-60950700D01*
X153838730Y-59332733D01*
X154364156Y-58465241D01*
X154957185Y-57999272D01*
X155833274Y-57824875D01*
X155917023Y-57818491D01*
X156907521Y-57907842D01*
X191962263Y-79898583D02*
X191177898Y-80622854D01*
X191177898Y-80622854D02*
X190227580Y-81675094D01*
X190227580Y-81675094D02*
X189228195Y-82928585D01*
X189228195Y-82928585D02*
X188559009Y-83862333D01*
X188559009Y-83862333D02*
X187189677Y-86203529D01*
X187189677Y-86203529D02*
X186229598Y-88676700D01*
X186229598Y-88676700D02*
X185614764Y-91479223D01*
X185614764Y-91479223D02*
X185355734Y-93740111D01*
X185355734Y-93740111D02*
X185129255Y-95963903D01*
X185129255Y-95963903D02*
X184829521Y-97687723D01*
X184829521Y-97687723D02*
X184401428Y-99116921D01*
X184401428Y-99116921D02*
X183789872Y-100456848D01*
X183789872Y-100456848D02*
X183337905Y-101259656D01*
X183337905Y-101259656D02*
X182797697Y-102201224D01*
X182797697Y-102201224D02*
X182607235Y-102758746D01*
X182607235Y-102758746D02*
X182763291Y-103159088D01*
X182763291Y-103159088D02*
X183262637Y-103629119D01*
X183262637Y-103629119D02*
X183303689Y-103664704D01*
X183303689Y-103664704D02*
X183951778Y-104167841D01*
X183951778Y-104167841D02*
X184427156Y-104236840D01*
X184427156Y-104236840D02*
X184976367Y-103835853D01*
X184976367Y-103835853D02*
X185445264Y-103353305D01*
X185445264Y-103353305D02*
X186088581Y-102555047D01*
X186088581Y-102555047D02*
X186899001Y-101389542D01*
X186899001Y-101389542D02*
X187702549Y-100107176D01*
X187702549Y-100107176D02*
X187712612Y-100090111D01*
X187712612Y-100090111D02*
X188432417Y-98869663D01*
X188432417Y-98869663D02*
X189059415Y-97808978D01*
X189059415Y-97808978D02*
X189466177Y-97123606D01*
X189466177Y-97123606D02*
X189485354Y-97091500D01*
X189485354Y-97091500D02*
X191013799Y-94110710D01*
X191013799Y-94110710D02*
X192055708Y-91147552D01*
X192055708Y-91147552D02*
X192252139Y-90327793D01*
X192252139Y-90327793D02*
X192435112Y-89166910D01*
X192435112Y-89166910D02*
X192580851Y-87672893D01*
X192580851Y-87672893D02*
X192686548Y-85987660D01*
X192686548Y-85987660D02*
X192749396Y-84253131D01*
X192749396Y-84253131D02*
X192766587Y-82611226D01*
X192766587Y-82611226D02*
X192735314Y-81203866D01*
X192735314Y-81203866D02*
X192652769Y-80172968D01*
X192652769Y-80172968D02*
X192516144Y-79660454D01*
X192516144Y-79660454D02*
X192463793Y-79629000D01*
X192463793Y-79629000D02*
X191962263Y-79898583D01*
X191962263Y-79898583D02*
X191962263Y-79898583D01*
G36*
X192516144Y-79660454D02*
G01*
X192652769Y-80172968D01*
X192735314Y-81203866D01*
X192766587Y-82611226D01*
X192749396Y-84253131D01*
X192686548Y-85987660D01*
X192580851Y-87672893D01*
X192435112Y-89166910D01*
X192252139Y-90327793D01*
X192055708Y-91147552D01*
X191013799Y-94110710D01*
X189485354Y-97091500D01*
X189466177Y-97123606D01*
X189059415Y-97808978D01*
X188432417Y-98869663D01*
X187712612Y-100090111D01*
X187702549Y-100107176D01*
X186899001Y-101389542D01*
X186088581Y-102555047D01*
X185445264Y-103353305D01*
X184976367Y-103835853D01*
X184427156Y-104236840D01*
X183951778Y-104167841D01*
X183303689Y-103664704D01*
X183262637Y-103629119D01*
X182763291Y-103159088D01*
X182607235Y-102758746D01*
X182797697Y-102201224D01*
X183337905Y-101259656D01*
X183789872Y-100456848D01*
X184401428Y-99116921D01*
X184829521Y-97687723D01*
X185129255Y-95963903D01*
X185355734Y-93740111D01*
X185614764Y-91479223D01*
X186229598Y-88676700D01*
X187189677Y-86203529D01*
X188559009Y-83862333D01*
X189228195Y-82928585D01*
X190227580Y-81675094D01*
X191177898Y-80622854D01*
X191962263Y-79898583D01*
X192463793Y-79629000D01*
X192516144Y-79660454D01*
G37*
X192516144Y-79660454D02*
X192652769Y-80172968D01*
X192735314Y-81203866D01*
X192766587Y-82611226D01*
X192749396Y-84253131D01*
X192686548Y-85987660D01*
X192580851Y-87672893D01*
X192435112Y-89166910D01*
X192252139Y-90327793D01*
X192055708Y-91147552D01*
X191013799Y-94110710D01*
X189485354Y-97091500D01*
X189466177Y-97123606D01*
X189059415Y-97808978D01*
X188432417Y-98869663D01*
X187712612Y-100090111D01*
X187702549Y-100107176D01*
X186899001Y-101389542D01*
X186088581Y-102555047D01*
X185445264Y-103353305D01*
X184976367Y-103835853D01*
X184427156Y-104236840D01*
X183951778Y-104167841D01*
X183303689Y-103664704D01*
X183262637Y-103629119D01*
X182763291Y-103159088D01*
X182607235Y-102758746D01*
X182797697Y-102201224D01*
X183337905Y-101259656D01*
X183789872Y-100456848D01*
X184401428Y-99116921D01*
X184829521Y-97687723D01*
X185129255Y-95963903D01*
X185355734Y-93740111D01*
X185614764Y-91479223D01*
X186229598Y-88676700D01*
X187189677Y-86203529D01*
X188559009Y-83862333D01*
X189228195Y-82928585D01*
X190227580Y-81675094D01*
X191177898Y-80622854D01*
X191962263Y-79898583D01*
X192463793Y-79629000D01*
X192516144Y-79660454D01*
X149798251Y-69011003D02*
X149771645Y-69859571D01*
X149771645Y-69859571D02*
X149858394Y-71079936D01*
X149858394Y-71079936D02*
X150039461Y-72513439D01*
X150039461Y-72513439D02*
X150295807Y-74001421D01*
X150295807Y-74001421D02*
X150608397Y-75385223D01*
X150608397Y-75385223D02*
X150863436Y-76245102D01*
X150863436Y-76245102D02*
X151474400Y-77795175D01*
X151474400Y-77795175D02*
X152319215Y-79632923D01*
X152319215Y-79632923D02*
X153280016Y-81527010D01*
X153280016Y-81527010D02*
X154238938Y-83246099D01*
X154238938Y-83246099D02*
X155078115Y-84558855D01*
X155078115Y-84558855D02*
X155148844Y-84656083D01*
X155148844Y-84656083D02*
X155821702Y-85437272D01*
X155821702Y-85437272D02*
X156253077Y-85604486D01*
X156253077Y-85604486D02*
X156460111Y-85138253D01*
X156460111Y-85138253D02*
X156459950Y-84019105D01*
X156459950Y-84019105D02*
X156391383Y-83244972D01*
X156391383Y-83244972D02*
X156178104Y-81650820D01*
X156178104Y-81650820D02*
X155860899Y-80154788D01*
X155860899Y-80154788D02*
X155385421Y-78577891D01*
X155385421Y-78577891D02*
X154697322Y-76741144D01*
X154697322Y-76741144D02*
X153742254Y-74465563D01*
X153742254Y-74465563D02*
X153686639Y-74337333D01*
X153686639Y-74337333D02*
X153198820Y-73360795D01*
X153198820Y-73360795D02*
X152523483Y-72192167D01*
X152523483Y-72192167D02*
X151763288Y-70986828D01*
X151763288Y-70986828D02*
X151020897Y-69900157D01*
X151020897Y-69900157D02*
X150398972Y-69087532D01*
X150398972Y-69087532D02*
X150000175Y-68704333D01*
X150000175Y-68704333D02*
X149957249Y-68692889D01*
X149957249Y-68692889D02*
X149798251Y-69011003D01*
X149798251Y-69011003D02*
X149798251Y-69011003D01*
G36*
X150000175Y-68704333D02*
G01*
X150398972Y-69087532D01*
X151020897Y-69900157D01*
X151763288Y-70986828D01*
X152523483Y-72192167D01*
X153198820Y-73360795D01*
X153686639Y-74337333D01*
X153742254Y-74465563D01*
X154697322Y-76741144D01*
X155385421Y-78577891D01*
X155860899Y-80154788D01*
X156178104Y-81650820D01*
X156391383Y-83244972D01*
X156459950Y-84019105D01*
X156460111Y-85138253D01*
X156253077Y-85604486D01*
X155821702Y-85437272D01*
X155148844Y-84656083D01*
X155078115Y-84558855D01*
X154238938Y-83246099D01*
X153280016Y-81527010D01*
X152319215Y-79632923D01*
X151474400Y-77795175D01*
X150863436Y-76245102D01*
X150608397Y-75385223D01*
X150295807Y-74001421D01*
X150039461Y-72513439D01*
X149858394Y-71079936D01*
X149771645Y-69859571D01*
X149798251Y-69011003D01*
X149957249Y-68692889D01*
X150000175Y-68704333D01*
G37*
X150000175Y-68704333D02*
X150398972Y-69087532D01*
X151020897Y-69900157D01*
X151763288Y-70986828D01*
X152523483Y-72192167D01*
X153198820Y-73360795D01*
X153686639Y-74337333D01*
X153742254Y-74465563D01*
X154697322Y-76741144D01*
X155385421Y-78577891D01*
X155860899Y-80154788D01*
X156178104Y-81650820D01*
X156391383Y-83244972D01*
X156459950Y-84019105D01*
X156460111Y-85138253D01*
X156253077Y-85604486D01*
X155821702Y-85437272D01*
X155148844Y-84656083D01*
X155078115Y-84558855D01*
X154238938Y-83246099D01*
X153280016Y-81527010D01*
X152319215Y-79632923D01*
X151474400Y-77795175D01*
X150863436Y-76245102D01*
X150608397Y-75385223D01*
X150295807Y-74001421D01*
X150039461Y-72513439D01*
X149858394Y-71079936D01*
X149771645Y-69859571D01*
X149798251Y-69011003D01*
X149957249Y-68692889D01*
X150000175Y-68704333D01*
X191405968Y-96795048D02*
X191236498Y-96957883D01*
X191236498Y-96957883D02*
X190434310Y-97924973D01*
X190434310Y-97924973D02*
X189762272Y-98995325D01*
X189762272Y-98995325D02*
X189401896Y-99877601D01*
X189401896Y-99877601D02*
X189394929Y-99913722D01*
X189394929Y-99913722D02*
X189213511Y-100629426D01*
X189213511Y-100629426D02*
X188865476Y-101789229D01*
X188865476Y-101789229D02*
X188422384Y-103173089D01*
X188422384Y-103173089D02*
X187955793Y-104560966D01*
X187955793Y-104560966D02*
X187537263Y-105732818D01*
X187537263Y-105732818D02*
X187331449Y-106258795D01*
X187331449Y-106258795D02*
X186771429Y-107204802D01*
X186771429Y-107204802D02*
X185868782Y-108336316D01*
X185868782Y-108336316D02*
X184919607Y-109311110D01*
X184919607Y-109311110D02*
X183966178Y-110227585D01*
X183966178Y-110227585D02*
X183491888Y-110811771D01*
X183491888Y-110811771D02*
X183426185Y-111173702D01*
X183426185Y-111173702D02*
X183602489Y-111365413D01*
X183602489Y-111365413D02*
X184328495Y-111669871D01*
X184328495Y-111669871D02*
X185187838Y-111591770D01*
X185187838Y-111591770D02*
X186381342Y-111107913D01*
X186381342Y-111107913D02*
X186549456Y-111025027D01*
X186549456Y-111025027D02*
X187628301Y-110449962D01*
X187628301Y-110449962D02*
X188397170Y-109896165D01*
X188397170Y-109896165D02*
X189062216Y-109170059D01*
X189062216Y-109170059D02*
X189829592Y-108078068D01*
X189829592Y-108078068D02*
X190058301Y-107730238D01*
X190058301Y-107730238D02*
X191419094Y-105315356D01*
X191419094Y-105315356D02*
X192425353Y-102835925D01*
X192425353Y-102835925D02*
X193008181Y-100486327D01*
X193008181Y-100486327D02*
X193127489Y-99071262D01*
X193127489Y-99071262D02*
X193017174Y-97510179D01*
X193017174Y-97510179D02*
X192689856Y-96606396D01*
X192689856Y-96606396D02*
X192150974Y-96365993D01*
X192150974Y-96365993D02*
X191405968Y-96795048D01*
X191405968Y-96795048D02*
X191405968Y-96795048D01*
G36*
X192689856Y-96606396D02*
G01*
X193017174Y-97510179D01*
X193127489Y-99071262D01*
X193008181Y-100486327D01*
X192425353Y-102835925D01*
X191419094Y-105315356D01*
X190058301Y-107730238D01*
X189829592Y-108078068D01*
X189062216Y-109170059D01*
X188397170Y-109896165D01*
X187628301Y-110449962D01*
X186549456Y-111025027D01*
X186381342Y-111107913D01*
X185187838Y-111591770D01*
X184328495Y-111669871D01*
X183602489Y-111365413D01*
X183426185Y-111173702D01*
X183491888Y-110811771D01*
X183966178Y-110227585D01*
X184919607Y-109311110D01*
X185868782Y-108336316D01*
X186771429Y-107204802D01*
X187331449Y-106258795D01*
X187537263Y-105732818D01*
X187955793Y-104560966D01*
X188422384Y-103173089D01*
X188865476Y-101789229D01*
X189213511Y-100629426D01*
X189394929Y-99913722D01*
X189401896Y-99877601D01*
X189762272Y-98995325D01*
X190434310Y-97924973D01*
X191236498Y-96957883D01*
X191405968Y-96795048D01*
X192150974Y-96365993D01*
X192689856Y-96606396D01*
G37*
X192689856Y-96606396D02*
X193017174Y-97510179D01*
X193127489Y-99071262D01*
X193008181Y-100486327D01*
X192425353Y-102835925D01*
X191419094Y-105315356D01*
X190058301Y-107730238D01*
X189829592Y-108078068D01*
X189062216Y-109170059D01*
X188397170Y-109896165D01*
X187628301Y-110449962D01*
X186549456Y-111025027D01*
X186381342Y-111107913D01*
X185187838Y-111591770D01*
X184328495Y-111669871D01*
X183602489Y-111365413D01*
X183426185Y-111173702D01*
X183491888Y-110811771D01*
X183966178Y-110227585D01*
X184919607Y-109311110D01*
X185868782Y-108336316D01*
X186771429Y-107204802D01*
X187331449Y-106258795D01*
X187537263Y-105732818D01*
X187955793Y-104560966D01*
X188422384Y-103173089D01*
X188865476Y-101789229D01*
X189213511Y-100629426D01*
X189394929Y-99913722D01*
X189401896Y-99877601D01*
X189762272Y-98995325D01*
X190434310Y-97924973D01*
X191236498Y-96957883D01*
X191405968Y-96795048D01*
X192150974Y-96365993D01*
X192689856Y-96606396D01*
X198593618Y-78809653D02*
X198472563Y-79293885D01*
X198472563Y-79293885D02*
X198161723Y-80284212D01*
X198161723Y-80284212D02*
X197855202Y-80844053D01*
X197855202Y-80844053D02*
X197463459Y-81613120D01*
X197463459Y-81613120D02*
X197359613Y-82088745D01*
X197359613Y-82088745D02*
X197219791Y-82718324D01*
X197219791Y-82718324D02*
X196857378Y-83781029D01*
X196857378Y-83781029D02*
X196355626Y-85074162D01*
X196355626Y-85074162D02*
X195797784Y-86395029D01*
X195797784Y-86395029D02*
X195267104Y-87540933D01*
X195267104Y-87540933D02*
X194846838Y-88309177D01*
X194846838Y-88309177D02*
X194750964Y-88440166D01*
X194750964Y-88440166D02*
X194263843Y-89174013D01*
X194263843Y-89174013D02*
X193999226Y-90066757D01*
X193999226Y-90066757D02*
X193930333Y-91293606D01*
X193930333Y-91293606D02*
X194030385Y-93029766D01*
X194030385Y-93029766D02*
X194037283Y-93109542D01*
X194037283Y-93109542D02*
X194198793Y-94615186D01*
X194198793Y-94615186D02*
X194385000Y-95488274D01*
X194385000Y-95488274D02*
X194631570Y-95801720D01*
X194631570Y-95801720D02*
X194974164Y-95628437D01*
X194974164Y-95628437D02*
X195165316Y-95415806D01*
X195165316Y-95415806D02*
X195472009Y-94917884D01*
X195472009Y-94917884D02*
X195993807Y-93950681D01*
X195993807Y-93950681D02*
X196641860Y-92681642D01*
X196641860Y-92681642D02*
X196990373Y-91976222D01*
X196990373Y-91976222D02*
X197673820Y-90586039D01*
X197673820Y-90586039D02*
X198275400Y-89378528D01*
X198275400Y-89378528D02*
X198704027Y-88535824D01*
X198704027Y-88535824D02*
X198821994Y-88313655D01*
X198821994Y-88313655D02*
X199173414Y-87563857D01*
X199173414Y-87563857D02*
X199597436Y-86512922D01*
X199597436Y-86512922D02*
X199714509Y-86196988D01*
X199714509Y-86196988D02*
X199964807Y-85159910D01*
X199964807Y-85159910D02*
X200127336Y-83796132D01*
X200127336Y-83796132D02*
X200201693Y-82288766D01*
X200201693Y-82288766D02*
X200187476Y-80820925D01*
X200187476Y-80820925D02*
X200084283Y-79575720D01*
X200084283Y-79575720D02*
X199891712Y-78736263D01*
X199891712Y-78736263D02*
X199731410Y-78502437D01*
X199731410Y-78502437D02*
X199041594Y-78331237D01*
X199041594Y-78331237D02*
X198593618Y-78809653D01*
X198593618Y-78809653D02*
X198593618Y-78809653D01*
G36*
X199731410Y-78502437D02*
G01*
X199891712Y-78736263D01*
X200084283Y-79575720D01*
X200187476Y-80820925D01*
X200201693Y-82288766D01*
X200127336Y-83796132D01*
X199964807Y-85159910D01*
X199714509Y-86196988D01*
X199597436Y-86512922D01*
X199173414Y-87563857D01*
X198821994Y-88313655D01*
X198704027Y-88535824D01*
X198275400Y-89378528D01*
X197673820Y-90586039D01*
X196990373Y-91976222D01*
X196641860Y-92681642D01*
X195993807Y-93950681D01*
X195472009Y-94917884D01*
X195165316Y-95415806D01*
X194974164Y-95628437D01*
X194631570Y-95801720D01*
X194385000Y-95488274D01*
X194198793Y-94615186D01*
X194037283Y-93109542D01*
X194030385Y-93029766D01*
X193930333Y-91293606D01*
X193999226Y-90066757D01*
X194263843Y-89174013D01*
X194750964Y-88440166D01*
X194846838Y-88309177D01*
X195267104Y-87540933D01*
X195797784Y-86395029D01*
X196355626Y-85074162D01*
X196857378Y-83781029D01*
X197219791Y-82718324D01*
X197359613Y-82088745D01*
X197463459Y-81613120D01*
X197855202Y-80844053D01*
X198161723Y-80284212D01*
X198472563Y-79293885D01*
X198593618Y-78809653D01*
X199041594Y-78331237D01*
X199731410Y-78502437D01*
G37*
X199731410Y-78502437D02*
X199891712Y-78736263D01*
X200084283Y-79575720D01*
X200187476Y-80820925D01*
X200201693Y-82288766D01*
X200127336Y-83796132D01*
X199964807Y-85159910D01*
X199714509Y-86196988D01*
X199597436Y-86512922D01*
X199173414Y-87563857D01*
X198821994Y-88313655D01*
X198704027Y-88535824D01*
X198275400Y-89378528D01*
X197673820Y-90586039D01*
X196990373Y-91976222D01*
X196641860Y-92681642D01*
X195993807Y-93950681D01*
X195472009Y-94917884D01*
X195165316Y-95415806D01*
X194974164Y-95628437D01*
X194631570Y-95801720D01*
X194385000Y-95488274D01*
X194198793Y-94615186D01*
X194037283Y-93109542D01*
X194030385Y-93029766D01*
X193930333Y-91293606D01*
X193999226Y-90066757D01*
X194263843Y-89174013D01*
X194750964Y-88440166D01*
X194846838Y-88309177D01*
X195267104Y-87540933D01*
X195797784Y-86395029D01*
X196355626Y-85074162D01*
X196857378Y-83781029D01*
X197219791Y-82718324D01*
X197359613Y-82088745D01*
X197463459Y-81613120D01*
X197855202Y-80844053D01*
X198161723Y-80284212D01*
X198472563Y-79293885D01*
X198593618Y-78809653D01*
X199041594Y-78331237D01*
X199731410Y-78502437D01*
X143517658Y-92138521D02*
X143295586Y-92660814D01*
X143295586Y-92660814D02*
X143202295Y-93124923D01*
X143202295Y-93124923D02*
X143237868Y-94686387D01*
X143237868Y-94686387D02*
X143519161Y-95420750D01*
X143519161Y-95420750D02*
X144066799Y-96208745D01*
X144066799Y-96208745D02*
X144913268Y-97145134D01*
X144913268Y-97145134D02*
X145892226Y-98077078D01*
X145892226Y-98077078D02*
X146837327Y-98851740D01*
X146837327Y-98851740D02*
X147582229Y-99316282D01*
X147582229Y-99316282D02*
X147833243Y-99384556D01*
X147833243Y-99384556D02*
X148460964Y-99528786D01*
X148460964Y-99528786D02*
X149496775Y-99904107D01*
X149496775Y-99904107D02*
X150718508Y-100424464D01*
X150718508Y-100424464D02*
X151575930Y-100834246D01*
X151575930Y-100834246D02*
X152251979Y-101043558D01*
X152251979Y-101043558D02*
X153346970Y-101257247D01*
X153346970Y-101257247D02*
X154192614Y-101375855D01*
X154192614Y-101375855D02*
X155316313Y-101488345D01*
X155316313Y-101488345D02*
X155884646Y-101464890D01*
X155884646Y-101464890D02*
X156039882Y-101274934D01*
X156039882Y-101274934D02*
X155966973Y-100994793D01*
X155966973Y-100994793D02*
X155698213Y-100173502D01*
X155698213Y-100173502D02*
X155496716Y-99439977D01*
X155496716Y-99439977D02*
X154910746Y-98287876D01*
X154910746Y-98287876D02*
X153756561Y-97440740D01*
X153756561Y-97440740D02*
X153439989Y-97295390D01*
X153439989Y-97295390D02*
X152879582Y-96966235D01*
X152879582Y-96966235D02*
X151907675Y-96307819D01*
X151907675Y-96307819D02*
X150671100Y-95422244D01*
X150671100Y-95422244D02*
X149578960Y-94610542D01*
X149578960Y-94610542D02*
X147986319Y-93452752D01*
X147986319Y-93452752D02*
X146774946Y-92692940D01*
X146774946Y-92692940D02*
X145804431Y-92254046D01*
X145804431Y-92254046D02*
X144934364Y-92059010D01*
X144934364Y-92059010D02*
X144928737Y-92058372D01*
X144928737Y-92058372D02*
X143986498Y-91984376D01*
X143986498Y-91984376D02*
X143517658Y-92138521D01*
X143517658Y-92138521D02*
X143517658Y-92138521D01*
G36*
X144928737Y-92058372D02*
G01*
X144934364Y-92059010D01*
X145804431Y-92254046D01*
X146774946Y-92692940D01*
X147986319Y-93452752D01*
X149578960Y-94610542D01*
X150671100Y-95422244D01*
X151907675Y-96307819D01*
X152879582Y-96966235D01*
X153439989Y-97295390D01*
X153756561Y-97440740D01*
X154910746Y-98287876D01*
X155496716Y-99439977D01*
X155698213Y-100173502D01*
X155966973Y-100994793D01*
X156039882Y-101274934D01*
X155884646Y-101464890D01*
X155316313Y-101488345D01*
X154192614Y-101375855D01*
X153346970Y-101257247D01*
X152251979Y-101043558D01*
X151575930Y-100834246D01*
X150718508Y-100424464D01*
X149496775Y-99904107D01*
X148460964Y-99528786D01*
X147833243Y-99384556D01*
X147582229Y-99316282D01*
X146837327Y-98851740D01*
X145892226Y-98077078D01*
X144913268Y-97145134D01*
X144066799Y-96208745D01*
X143519161Y-95420750D01*
X143237868Y-94686387D01*
X143202295Y-93124923D01*
X143295586Y-92660814D01*
X143517658Y-92138521D01*
X143986498Y-91984376D01*
X144928737Y-92058372D01*
G37*
X144928737Y-92058372D02*
X144934364Y-92059010D01*
X145804431Y-92254046D01*
X146774946Y-92692940D01*
X147986319Y-93452752D01*
X149578960Y-94610542D01*
X150671100Y-95422244D01*
X151907675Y-96307819D01*
X152879582Y-96966235D01*
X153439989Y-97295390D01*
X153756561Y-97440740D01*
X154910746Y-98287876D01*
X155496716Y-99439977D01*
X155698213Y-100173502D01*
X155966973Y-100994793D01*
X156039882Y-101274934D01*
X155884646Y-101464890D01*
X155316313Y-101488345D01*
X154192614Y-101375855D01*
X153346970Y-101257247D01*
X152251979Y-101043558D01*
X151575930Y-100834246D01*
X150718508Y-100424464D01*
X149496775Y-99904107D01*
X148460964Y-99528786D01*
X147833243Y-99384556D01*
X147582229Y-99316282D01*
X146837327Y-98851740D01*
X145892226Y-98077078D01*
X144913268Y-97145134D01*
X144066799Y-96208745D01*
X143519161Y-95420750D01*
X143237868Y-94686387D01*
X143202295Y-93124923D01*
X143295586Y-92660814D01*
X143517658Y-92138521D01*
X143986498Y-91984376D01*
X144928737Y-92058372D01*
X157972901Y-46978578D02*
X157554939Y-47465648D01*
X157554939Y-47465648D02*
X157254734Y-47952334D01*
X157254734Y-47952334D02*
X156357668Y-49868471D01*
X156357668Y-49868471D02*
X155704095Y-52029148D01*
X155704095Y-52029148D02*
X155392984Y-54087581D01*
X155392984Y-54087581D02*
X155380267Y-54520608D01*
X155380267Y-54520608D02*
X155407069Y-55564372D01*
X155407069Y-55564372D02*
X155571581Y-56110072D01*
X155571581Y-56110072D02*
X155999964Y-56365107D01*
X155999964Y-56365107D02*
X156579541Y-56492130D01*
X156579541Y-56492130D02*
X157527341Y-56792001D01*
X157527341Y-56792001D02*
X158188290Y-57211885D01*
X158188290Y-57211885D02*
X158210236Y-57236946D01*
X158210236Y-57236946D02*
X158688300Y-57678232D01*
X158688300Y-57678232D02*
X159013092Y-57580327D01*
X159013092Y-57580327D02*
X159239935Y-56882363D01*
X159239935Y-56882363D02*
X159376028Y-55954242D01*
X159376028Y-55954242D02*
X159641563Y-54635975D01*
X159641563Y-54635975D02*
X160063025Y-53408511D01*
X160063025Y-53408511D02*
X160262705Y-53010730D01*
X160262705Y-53010730D02*
X160625253Y-52349900D01*
X160625253Y-52349900D02*
X160744858Y-51828512D01*
X160744858Y-51828512D02*
X160606573Y-51202505D01*
X160606573Y-51202505D02*
X160195450Y-50227814D01*
X160195450Y-50227814D02*
X160076019Y-49962570D01*
X160076019Y-49962570D02*
X159336097Y-48370243D01*
X159336097Y-48370243D02*
X158788755Y-47377631D01*
X158788755Y-47377631D02*
X158359265Y-46931491D01*
X158359265Y-46931491D02*
X157972901Y-46978578D01*
X157972901Y-46978578D02*
X157972901Y-46978578D01*
G36*
X158788755Y-47377631D02*
G01*
X159336097Y-48370243D01*
X160076019Y-49962570D01*
X160195450Y-50227814D01*
X160606573Y-51202505D01*
X160744858Y-51828512D01*
X160625253Y-52349900D01*
X160262705Y-53010730D01*
X160063025Y-53408511D01*
X159641563Y-54635975D01*
X159376028Y-55954242D01*
X159239935Y-56882363D01*
X159013092Y-57580327D01*
X158688300Y-57678232D01*
X158210236Y-57236946D01*
X158188290Y-57211885D01*
X157527341Y-56792001D01*
X156579541Y-56492130D01*
X155999964Y-56365107D01*
X155571581Y-56110072D01*
X155407069Y-55564372D01*
X155380267Y-54520608D01*
X155392984Y-54087581D01*
X155704095Y-52029148D01*
X156357668Y-49868471D01*
X157254734Y-47952334D01*
X157554939Y-47465648D01*
X157972901Y-46978578D01*
X158359265Y-46931491D01*
X158788755Y-47377631D01*
G37*
X158788755Y-47377631D02*
X159336097Y-48370243D01*
X160076019Y-49962570D01*
X160195450Y-50227814D01*
X160606573Y-51202505D01*
X160744858Y-51828512D01*
X160625253Y-52349900D01*
X160262705Y-53010730D01*
X160063025Y-53408511D01*
X159641563Y-54635975D01*
X159376028Y-55954242D01*
X159239935Y-56882363D01*
X159013092Y-57580327D01*
X158688300Y-57678232D01*
X158210236Y-57236946D01*
X158188290Y-57211885D01*
X157527341Y-56792001D01*
X156579541Y-56492130D01*
X155999964Y-56365107D01*
X155571581Y-56110072D01*
X155407069Y-55564372D01*
X155380267Y-54520608D01*
X155392984Y-54087581D01*
X155704095Y-52029148D01*
X156357668Y-49868471D01*
X157254734Y-47952334D01*
X157554939Y-47465648D01*
X157972901Y-46978578D01*
X158359265Y-46931491D01*
X158788755Y-47377631D01*
X170811199Y-48885551D02*
X169406761Y-49454866D01*
X169406761Y-49454866D02*
X168898925Y-49850493D01*
X168898925Y-49850493D02*
X168314427Y-50626783D01*
X168314427Y-50626783D02*
X168382726Y-51136367D01*
X168382726Y-51136367D02*
X169105022Y-51381806D01*
X169105022Y-51381806D02*
X169627092Y-51406778D01*
X169627092Y-51406778D02*
X170738751Y-51651409D01*
X170738751Y-51651409D02*
X171660932Y-52430029D01*
X171660932Y-52430029D02*
X172456738Y-53809724D01*
X172456738Y-53809724D02*
X172862479Y-54846361D01*
X172862479Y-54846361D02*
X173294589Y-55863061D01*
X173294589Y-55863061D02*
X173726037Y-56535777D01*
X173726037Y-56535777D02*
X173970789Y-56698444D01*
X173970789Y-56698444D02*
X174393735Y-56488670D01*
X174393735Y-56488670D02*
X174430267Y-56354726D01*
X174430267Y-56354726D02*
X174736831Y-55925450D01*
X174736831Y-55925450D02*
X175497154Y-55472671D01*
X175497154Y-55472671D02*
X176472179Y-55106369D01*
X176472179Y-55106369D02*
X177422852Y-54936523D01*
X177422852Y-54936523D02*
X177517192Y-54934555D01*
X177517192Y-54934555D02*
X178670392Y-54728945D01*
X178670392Y-54728945D02*
X179261690Y-54149264D01*
X179261690Y-54149264D02*
X179288721Y-53251238D01*
X179288721Y-53251238D02*
X178749122Y-52090591D01*
X178749122Y-52090591D02*
X177693461Y-50778527D01*
X177693461Y-50778527D02*
X176603342Y-49727152D01*
X176603342Y-49727152D02*
X175683576Y-49115740D01*
X175683576Y-49115740D02*
X174707018Y-48801328D01*
X174707018Y-48801328D02*
X174490091Y-48762350D01*
X174490091Y-48762350D02*
X172571555Y-48641885D01*
X172571555Y-48641885D02*
X170811199Y-48885551D01*
X170811199Y-48885551D02*
X170811199Y-48885551D01*
G36*
X174490091Y-48762350D02*
G01*
X174707018Y-48801328D01*
X175683576Y-49115740D01*
X176603342Y-49727152D01*
X177693461Y-50778527D01*
X178749122Y-52090591D01*
X179288721Y-53251238D01*
X179261690Y-54149264D01*
X178670392Y-54728945D01*
X177517192Y-54934555D01*
X177422852Y-54936523D01*
X176472179Y-55106369D01*
X175497154Y-55472671D01*
X174736831Y-55925450D01*
X174430267Y-56354726D01*
X174393735Y-56488670D01*
X173970789Y-56698444D01*
X173726037Y-56535777D01*
X173294589Y-55863061D01*
X172862479Y-54846361D01*
X172456738Y-53809724D01*
X171660932Y-52430029D01*
X170738751Y-51651409D01*
X169627092Y-51406778D01*
X169105022Y-51381806D01*
X168382726Y-51136367D01*
X168314427Y-50626783D01*
X168898925Y-49850493D01*
X169406761Y-49454866D01*
X170811199Y-48885551D01*
X172571555Y-48641885D01*
X174490091Y-48762350D01*
G37*
X174490091Y-48762350D02*
X174707018Y-48801328D01*
X175683576Y-49115740D01*
X176603342Y-49727152D01*
X177693461Y-50778527D01*
X178749122Y-52090591D01*
X179288721Y-53251238D01*
X179261690Y-54149264D01*
X178670392Y-54728945D01*
X177517192Y-54934555D01*
X177422852Y-54936523D01*
X176472179Y-55106369D01*
X175497154Y-55472671D01*
X174736831Y-55925450D01*
X174430267Y-56354726D01*
X174393735Y-56488670D01*
X173970789Y-56698444D01*
X173726037Y-56535777D01*
X173294589Y-55863061D01*
X172862479Y-54846361D01*
X172456738Y-53809724D01*
X171660932Y-52430029D01*
X170738751Y-51651409D01*
X169627092Y-51406778D01*
X169105022Y-51381806D01*
X168382726Y-51136367D01*
X168314427Y-50626783D01*
X168898925Y-49850493D01*
X169406761Y-49454866D01*
X170811199Y-48885551D01*
X172571555Y-48641885D01*
X174490091Y-48762350D01*
X166183232Y-70501264D02*
X165374160Y-71168898D01*
X165374160Y-71168898D02*
X164518733Y-72385305D01*
X164518733Y-72385305D02*
X163702270Y-74006099D01*
X163702270Y-74006099D02*
X163020264Y-75853831D01*
X163020264Y-75853831D02*
X162388930Y-77899495D01*
X162388930Y-77899495D02*
X163309224Y-79381609D01*
X163309224Y-79381609D02*
X164131268Y-80647983D01*
X164131268Y-80647983D02*
X165037314Y-81964096D01*
X165037314Y-81964096D02*
X165261229Y-82274833D01*
X165261229Y-82274833D02*
X165873126Y-83246522D01*
X165873126Y-83246522D02*
X166248307Y-84101391D01*
X166248307Y-84101391D02*
X166302913Y-84391500D01*
X166302913Y-84391500D02*
X166419860Y-85135839D01*
X166419860Y-85135839D02*
X166701616Y-86133725D01*
X166701616Y-86133725D02*
X167067610Y-87163440D01*
X167067610Y-87163440D02*
X167437270Y-88003265D01*
X167437270Y-88003265D02*
X167730027Y-88431482D01*
X167730027Y-88431482D02*
X167777174Y-88448444D01*
X167777174Y-88448444D02*
X168152371Y-88190614D01*
X168152371Y-88190614D02*
X168589429Y-87664394D01*
X168589429Y-87664394D02*
X169004096Y-86911589D01*
X169004096Y-86911589D02*
X169138600Y-86415856D01*
X169138600Y-86415856D02*
X169375454Y-85953668D01*
X169375454Y-85953668D02*
X169998721Y-85174249D01*
X169998721Y-85174249D02*
X170877455Y-84240104D01*
X170877455Y-84240104D02*
X170948029Y-84170285D01*
X170948029Y-84170285D02*
X172757457Y-82389201D01*
X172757457Y-82389201D02*
X172534589Y-80213882D01*
X172534589Y-80213882D02*
X172073883Y-77726916D01*
X172073883Y-77726916D02*
X171161690Y-75101880D01*
X171161690Y-75101880D02*
X170040226Y-72734307D01*
X170040226Y-72734307D02*
X169062208Y-71310037D01*
X169062208Y-71310037D02*
X167958124Y-70492567D01*
X167958124Y-70492567D02*
X166794674Y-70320513D01*
X166794674Y-70320513D02*
X166183232Y-70501264D01*
X166183232Y-70501264D02*
X166183232Y-70501264D01*
G36*
X167958124Y-70492567D02*
G01*
X169062208Y-71310037D01*
X170040226Y-72734307D01*
X171161690Y-75101880D01*
X172073883Y-77726916D01*
X172534589Y-80213882D01*
X172757457Y-82389201D01*
X170948029Y-84170285D01*
X170877455Y-84240104D01*
X169998721Y-85174249D01*
X169375454Y-85953668D01*
X169138600Y-86415856D01*
X169004096Y-86911589D01*
X168589429Y-87664394D01*
X168152371Y-88190614D01*
X167777174Y-88448444D01*
X167730027Y-88431482D01*
X167437270Y-88003265D01*
X167067610Y-87163440D01*
X166701616Y-86133725D01*
X166419860Y-85135839D01*
X166302913Y-84391500D01*
X166248307Y-84101391D01*
X165873126Y-83246522D01*
X165261229Y-82274833D01*
X165037314Y-81964096D01*
X164131268Y-80647983D01*
X163309224Y-79381609D01*
X162388930Y-77899495D01*
X163020264Y-75853831D01*
X163702270Y-74006099D01*
X164518733Y-72385305D01*
X165374160Y-71168898D01*
X166183232Y-70501264D01*
X166794674Y-70320513D01*
X167958124Y-70492567D01*
G37*
X167958124Y-70492567D02*
X169062208Y-71310037D01*
X170040226Y-72734307D01*
X171161690Y-75101880D01*
X172073883Y-77726916D01*
X172534589Y-80213882D01*
X172757457Y-82389201D01*
X170948029Y-84170285D01*
X170877455Y-84240104D01*
X169998721Y-85174249D01*
X169375454Y-85953668D01*
X169138600Y-86415856D01*
X169004096Y-86911589D01*
X168589429Y-87664394D01*
X168152371Y-88190614D01*
X167777174Y-88448444D01*
X167730027Y-88431482D01*
X167437270Y-88003265D01*
X167067610Y-87163440D01*
X166701616Y-86133725D01*
X166419860Y-85135839D01*
X166302913Y-84391500D01*
X166248307Y-84101391D01*
X165873126Y-83246522D01*
X165261229Y-82274833D01*
X165037314Y-81964096D01*
X164131268Y-80647983D01*
X163309224Y-79381609D01*
X162388930Y-77899495D01*
X163020264Y-75853831D01*
X163702270Y-74006099D01*
X164518733Y-72385305D01*
X165374160Y-71168898D01*
X166183232Y-70501264D01*
X166794674Y-70320513D01*
X167958124Y-70492567D01*
X168178641Y-54286251D02*
X167461650Y-55271331D01*
X167461650Y-55271331D02*
X166890045Y-56782369D01*
X166890045Y-56782369D02*
X166499786Y-58783614D01*
X166499786Y-58783614D02*
X166326831Y-61239314D01*
X166326831Y-61239314D02*
X166321512Y-61748720D01*
X166321512Y-61748720D02*
X166358085Y-63325270D01*
X166358085Y-63325270D02*
X166460512Y-64703299D01*
X166460512Y-64703299D02*
X166610691Y-65684060D01*
X166610691Y-65684060D02*
X166707045Y-65982053D01*
X166707045Y-65982053D02*
X167073793Y-66494543D01*
X167073793Y-66494543D02*
X167725064Y-67235160D01*
X167725064Y-67235160D02*
X168525498Y-68069974D01*
X168525498Y-68069974D02*
X169339734Y-68865054D01*
X169339734Y-68865054D02*
X170032411Y-69486469D01*
X170032411Y-69486469D02*
X170468170Y-69800290D01*
X170468170Y-69800290D02*
X170550000Y-69784408D01*
X170550000Y-69784408D02*
X170618793Y-69363913D01*
X170618793Y-69363913D02*
X170797579Y-68450376D01*
X170797579Y-68450376D02*
X171045418Y-67239976D01*
X171045418Y-67239976D02*
X171321372Y-65928893D01*
X171321372Y-65928893D02*
X171584499Y-64713306D01*
X171584499Y-64713306D02*
X171793862Y-63789396D01*
X171793862Y-63789396D02*
X171845262Y-63577611D01*
X171845262Y-63577611D02*
X171955737Y-62889946D01*
X171955737Y-62889946D02*
X172082144Y-61734931D01*
X172082144Y-61734931D02*
X172198915Y-60349550D01*
X172198915Y-60349550D02*
X172209525Y-60201101D01*
X172209525Y-60201101D02*
X172274655Y-58622016D01*
X172274655Y-58622016D02*
X172188167Y-57506894D01*
X172188167Y-57506894D02*
X171924655Y-56625521D01*
X171924655Y-56625521D02*
X171781272Y-56320545D01*
X171781272Y-56320545D02*
X170842333Y-54844277D01*
X170842333Y-54844277D02*
X169904942Y-54036973D01*
X169904942Y-54036973D02*
X169005058Y-53862881D01*
X169005058Y-53862881D02*
X168178641Y-54286251D01*
X168178641Y-54286251D02*
X168178641Y-54286251D01*
G36*
X169904942Y-54036973D02*
G01*
X170842333Y-54844277D01*
X171781272Y-56320545D01*
X171924655Y-56625521D01*
X172188167Y-57506894D01*
X172274655Y-58622016D01*
X172209525Y-60201101D01*
X172198915Y-60349550D01*
X172082144Y-61734931D01*
X171955737Y-62889946D01*
X171845262Y-63577611D01*
X171793862Y-63789396D01*
X171584499Y-64713306D01*
X171321372Y-65928893D01*
X171045418Y-67239976D01*
X170797579Y-68450376D01*
X170618793Y-69363913D01*
X170550000Y-69784408D01*
X170468170Y-69800290D01*
X170032411Y-69486469D01*
X169339734Y-68865054D01*
X168525498Y-68069974D01*
X167725064Y-67235160D01*
X167073793Y-66494543D01*
X166707045Y-65982053D01*
X166610691Y-65684060D01*
X166460512Y-64703299D01*
X166358085Y-63325270D01*
X166321512Y-61748720D01*
X166326831Y-61239314D01*
X166499786Y-58783614D01*
X166890045Y-56782369D01*
X167461650Y-55271331D01*
X168178641Y-54286251D01*
X169005058Y-53862881D01*
X169904942Y-54036973D01*
G37*
X169904942Y-54036973D02*
X170842333Y-54844277D01*
X171781272Y-56320545D01*
X171924655Y-56625521D01*
X172188167Y-57506894D01*
X172274655Y-58622016D01*
X172209525Y-60201101D01*
X172198915Y-60349550D01*
X172082144Y-61734931D01*
X171955737Y-62889946D01*
X171845262Y-63577611D01*
X171793862Y-63789396D01*
X171584499Y-64713306D01*
X171321372Y-65928893D01*
X171045418Y-67239976D01*
X170797579Y-68450376D01*
X170618793Y-69363913D01*
X170550000Y-69784408D01*
X170468170Y-69800290D01*
X170032411Y-69486469D01*
X169339734Y-68865054D01*
X168525498Y-68069974D01*
X167725064Y-67235160D01*
X167073793Y-66494543D01*
X166707045Y-65982053D01*
X166610691Y-65684060D01*
X166460512Y-64703299D01*
X166358085Y-63325270D01*
X166321512Y-61748720D01*
X166326831Y-61239314D01*
X166499786Y-58783614D01*
X166890045Y-56782369D01*
X167461650Y-55271331D01*
X168178641Y-54286251D01*
X169005058Y-53862881D01*
X169904942Y-54036973D01*
X183512753Y-85620935D02*
X183298825Y-85720604D01*
X183298825Y-85720604D02*
X182491836Y-86520343D01*
X182491836Y-86520343D02*
X181905593Y-87915890D01*
X181905593Y-87915890D02*
X181566121Y-89824895D01*
X181566121Y-89824895D02*
X181489166Y-91447056D01*
X181489166Y-91447056D02*
X181428185Y-92943568D01*
X181428185Y-92943568D02*
X181276672Y-94373494D01*
X181276672Y-94373494D02*
X181096671Y-95303968D01*
X181096671Y-95303968D02*
X180812197Y-96510432D01*
X180812197Y-96510432D02*
X180620744Y-97645566D01*
X180620744Y-97645566D02*
X180606855Y-97773413D01*
X180606855Y-97773413D02*
X180475718Y-98843315D01*
X180475718Y-98843315D02*
X180285127Y-100107132D01*
X180285127Y-100107132D02*
X180243394Y-100354694D01*
X180243394Y-100354694D02*
X180126978Y-101263330D01*
X180126978Y-101263330D02*
X180136983Y-101795928D01*
X180136983Y-101795928D02*
X180181019Y-101854000D01*
X180181019Y-101854000D02*
X180470255Y-101586347D01*
X180470255Y-101586347D02*
X181006676Y-100897253D01*
X181006676Y-100897253D02*
X181454247Y-100258567D01*
X181454247Y-100258567D02*
X182844938Y-97903084D01*
X182844938Y-97903084D02*
X183867648Y-95553420D01*
X183867648Y-95553420D02*
X184434600Y-93415100D01*
X184434600Y-93415100D02*
X184464152Y-93210944D01*
X184464152Y-93210944D02*
X184779744Y-90469823D01*
X184779744Y-90469823D02*
X184913941Y-88372298D01*
X184913941Y-88372298D02*
X184860542Y-86878509D01*
X184860542Y-86878509D02*
X184613346Y-85948593D01*
X184613346Y-85948593D02*
X184166150Y-85542689D01*
X184166150Y-85542689D02*
X183512753Y-85620935D01*
X183512753Y-85620935D02*
X183512753Y-85620935D01*
G36*
X184613346Y-85948593D02*
G01*
X184860542Y-86878509D01*
X184913941Y-88372298D01*
X184779744Y-90469823D01*
X184464152Y-93210944D01*
X184434600Y-93415100D01*
X183867648Y-95553420D01*
X182844938Y-97903084D01*
X181454247Y-100258567D01*
X181006676Y-100897253D01*
X180470255Y-101586347D01*
X180181019Y-101854000D01*
X180136983Y-101795928D01*
X180126978Y-101263330D01*
X180243394Y-100354694D01*
X180285127Y-100107132D01*
X180475718Y-98843315D01*
X180606855Y-97773413D01*
X180620744Y-97645566D01*
X180812197Y-96510432D01*
X181096671Y-95303968D01*
X181276672Y-94373494D01*
X181428185Y-92943568D01*
X181489166Y-91447056D01*
X181566121Y-89824895D01*
X181905593Y-87915890D01*
X182491836Y-86520343D01*
X183298825Y-85720604D01*
X183512753Y-85620935D01*
X184166150Y-85542689D01*
X184613346Y-85948593D01*
G37*
X184613346Y-85948593D02*
X184860542Y-86878509D01*
X184913941Y-88372298D01*
X184779744Y-90469823D01*
X184464152Y-93210944D01*
X184434600Y-93415100D01*
X183867648Y-95553420D01*
X182844938Y-97903084D01*
X181454247Y-100258567D01*
X181006676Y-100897253D01*
X180470255Y-101586347D01*
X180181019Y-101854000D01*
X180136983Y-101795928D01*
X180126978Y-101263330D01*
X180243394Y-100354694D01*
X180285127Y-100107132D01*
X180475718Y-98843315D01*
X180606855Y-97773413D01*
X180620744Y-97645566D01*
X180812197Y-96510432D01*
X181096671Y-95303968D01*
X181276672Y-94373494D01*
X181428185Y-92943568D01*
X181489166Y-91447056D01*
X181566121Y-89824895D01*
X181905593Y-87915890D01*
X182491836Y-86520343D01*
X183298825Y-85720604D01*
X183512753Y-85620935D01*
X184166150Y-85542689D01*
X184613346Y-85948593D01*
X176652858Y-116055629D02*
X176499186Y-116670536D01*
X176499186Y-116670536D02*
X176313619Y-117757973D01*
X176313619Y-117757973D02*
X176075451Y-119410884D01*
X176075451Y-119410884D02*
X175944129Y-120374833D01*
X175944129Y-120374833D02*
X175889342Y-121054237D01*
X175889342Y-121054237D02*
X175822734Y-122307862D01*
X175822734Y-122307862D02*
X175749927Y-124004589D01*
X175749927Y-124004589D02*
X175676543Y-126013300D01*
X175676543Y-126013300D02*
X175608204Y-128202874D01*
X175608204Y-128202874D02*
X175607596Y-128224139D01*
X175607596Y-128224139D02*
X175413768Y-135015111D01*
X175413768Y-135015111D02*
X178744896Y-135015111D01*
X178744896Y-135015111D02*
X178514621Y-133163028D01*
X178514621Y-133163028D02*
X178398478Y-131862602D01*
X178398478Y-131862602D02*
X178312260Y-130206983D01*
X178312260Y-130206983D02*
X178274017Y-128546436D01*
X178274017Y-128546436D02*
X178273754Y-128488722D01*
X178273754Y-128488722D02*
X178218666Y-126696692D01*
X178218666Y-126696692D02*
X178084969Y-124765929D01*
X178084969Y-124765929D02*
X177912044Y-123197055D01*
X177912044Y-123197055D02*
X177698710Y-121495878D01*
X177698710Y-121495878D02*
X177511361Y-119659121D01*
X177511361Y-119659121D02*
X177416703Y-118462191D01*
X177416703Y-118462191D02*
X177294216Y-117238191D01*
X177294216Y-117238191D02*
X177117995Y-116295082D01*
X177117995Y-116295082D02*
X176947340Y-115871629D01*
X176947340Y-115871629D02*
X176795340Y-115820308D01*
X176795340Y-115820308D02*
X176652858Y-116055629D01*
X176652858Y-116055629D02*
X176652858Y-116055629D01*
G36*
X176947340Y-115871629D02*
G01*
X177117995Y-116295082D01*
X177294216Y-117238191D01*
X177416703Y-118462191D01*
X177511361Y-119659121D01*
X177698710Y-121495878D01*
X177912044Y-123197055D01*
X178084969Y-124765929D01*
X178218666Y-126696692D01*
X178273754Y-128488722D01*
X178274017Y-128546436D01*
X178312260Y-130206983D01*
X178398478Y-131862602D01*
X178514621Y-133163028D01*
X178744896Y-135015111D01*
X175413768Y-135015111D01*
X175607596Y-128224139D01*
X175608204Y-128202874D01*
X175676543Y-126013300D01*
X175749927Y-124004589D01*
X175822734Y-122307862D01*
X175889342Y-121054237D01*
X175944129Y-120374833D01*
X176075451Y-119410884D01*
X176313619Y-117757973D01*
X176499186Y-116670536D01*
X176652858Y-116055629D01*
X176795340Y-115820308D01*
X176947340Y-115871629D01*
G37*
X176947340Y-115871629D02*
X177117995Y-116295082D01*
X177294216Y-117238191D01*
X177416703Y-118462191D01*
X177511361Y-119659121D01*
X177698710Y-121495878D01*
X177912044Y-123197055D01*
X178084969Y-124765929D01*
X178218666Y-126696692D01*
X178273754Y-128488722D01*
X178274017Y-128546436D01*
X178312260Y-130206983D01*
X178398478Y-131862602D01*
X178514621Y-133163028D01*
X178744896Y-135015111D01*
X175413768Y-135015111D01*
X175607596Y-128224139D01*
X175608204Y-128202874D01*
X175676543Y-126013300D01*
X175749927Y-124004589D01*
X175822734Y-122307862D01*
X175889342Y-121054237D01*
X175944129Y-120374833D01*
X176075451Y-119410884D01*
X176313619Y-117757973D01*
X176499186Y-116670536D01*
X176652858Y-116055629D01*
X176795340Y-115820308D01*
X176947340Y-115871629D01*
X182448096Y-76599738D02*
X181476123Y-77037680D01*
X181476123Y-77037680D02*
X180727435Y-77629270D01*
X180727435Y-77629270D02*
X179778044Y-78502843D01*
X179778044Y-78502843D02*
X178759788Y-79519927D01*
X178759788Y-79519927D02*
X177804505Y-80542045D01*
X177804505Y-80542045D02*
X177044032Y-81430724D01*
X177044032Y-81430724D02*
X176610208Y-82047490D01*
X176610208Y-82047490D02*
X176556662Y-82204781D01*
X176556662Y-82204781D02*
X176779826Y-82597248D01*
X176779826Y-82597248D02*
X177353058Y-83340261D01*
X177353058Y-83340261D02*
X178143494Y-84283065D01*
X178143494Y-84283065D02*
X179018271Y-85274902D01*
X179018271Y-85274902D02*
X179844523Y-86165018D01*
X179844523Y-86165018D02*
X180489387Y-86802655D01*
X180489387Y-86802655D02*
X180815683Y-87037333D01*
X180815683Y-87037333D02*
X181028692Y-86744984D01*
X181028692Y-86744984D02*
X181427879Y-85989712D01*
X181427879Y-85989712D02*
X181789645Y-85230589D01*
X181789645Y-85230589D02*
X182618505Y-83423844D01*
X182618505Y-83423844D02*
X184135075Y-83631713D01*
X184135075Y-83631713D02*
X185156491Y-83708720D01*
X185156491Y-83708720D02*
X185813567Y-83502629D01*
X185813567Y-83502629D02*
X186300767Y-82879336D01*
X186300767Y-82879336D02*
X186768769Y-81815498D01*
X186768769Y-81815498D02*
X187024973Y-80387331D01*
X187024973Y-80387331D02*
X186733895Y-79041206D01*
X186733895Y-79041206D02*
X186013102Y-77883254D01*
X186013102Y-77883254D02*
X184980160Y-77019605D01*
X184980160Y-77019605D02*
X183752636Y-76556389D01*
X183752636Y-76556389D02*
X182448096Y-76599738D01*
X182448096Y-76599738D02*
X182448096Y-76599738D01*
G36*
X184980160Y-77019605D02*
G01*
X186013102Y-77883254D01*
X186733895Y-79041206D01*
X187024973Y-80387331D01*
X186768769Y-81815498D01*
X186300767Y-82879336D01*
X185813567Y-83502629D01*
X185156491Y-83708720D01*
X184135075Y-83631713D01*
X182618505Y-83423844D01*
X181789645Y-85230589D01*
X181427879Y-85989712D01*
X181028692Y-86744984D01*
X180815683Y-87037333D01*
X180489387Y-86802655D01*
X179844523Y-86165018D01*
X179018271Y-85274902D01*
X178143494Y-84283065D01*
X177353058Y-83340261D01*
X176779826Y-82597248D01*
X176556662Y-82204781D01*
X176610208Y-82047490D01*
X177044032Y-81430724D01*
X177804505Y-80542045D01*
X178759788Y-79519927D01*
X179778044Y-78502843D01*
X180727435Y-77629270D01*
X181476123Y-77037680D01*
X182448096Y-76599738D01*
X183752636Y-76556389D01*
X184980160Y-77019605D01*
G37*
X184980160Y-77019605D02*
X186013102Y-77883254D01*
X186733895Y-79041206D01*
X187024973Y-80387331D01*
X186768769Y-81815498D01*
X186300767Y-82879336D01*
X185813567Y-83502629D01*
X185156491Y-83708720D01*
X184135075Y-83631713D01*
X182618505Y-83423844D01*
X181789645Y-85230589D01*
X181427879Y-85989712D01*
X181028692Y-86744984D01*
X180815683Y-87037333D01*
X180489387Y-86802655D01*
X179844523Y-86165018D01*
X179018271Y-85274902D01*
X178143494Y-84283065D01*
X177353058Y-83340261D01*
X176779826Y-82597248D01*
X176556662Y-82204781D01*
X176610208Y-82047490D01*
X177044032Y-81430724D01*
X177804505Y-80542045D01*
X178759788Y-79519927D01*
X179778044Y-78502843D01*
X180727435Y-77629270D01*
X181476123Y-77037680D01*
X182448096Y-76599738D01*
X183752636Y-76556389D01*
X184980160Y-77019605D01*
X163028978Y-52567595D02*
X161839911Y-53412062D01*
X161839911Y-53412062D02*
X161010510Y-54428367D01*
X161010510Y-54428367D02*
X160645772Y-55081525D01*
X160645772Y-55081525D02*
X160432104Y-55716831D01*
X160432104Y-55716831D02*
X160347577Y-56520652D01*
X160347577Y-56520652D02*
X160370258Y-57679354D01*
X160370258Y-57679354D02*
X160459445Y-59111225D01*
X160459445Y-59111225D02*
X160647948Y-61269147D01*
X160647948Y-61269147D02*
X160906929Y-63466623D01*
X160906929Y-63466623D02*
X161210696Y-65536577D01*
X161210696Y-65536577D02*
X161533558Y-67311931D01*
X161533558Y-67311931D02*
X161849822Y-68625608D01*
X161849822Y-68625608D02*
X161983571Y-69022708D01*
X161983571Y-69022708D02*
X162323271Y-69881694D01*
X162323271Y-69881694D02*
X163824237Y-68481607D01*
X163824237Y-68481607D02*
X165325203Y-67081521D01*
X165325203Y-67081521D02*
X165254589Y-64271233D01*
X165254589Y-64271233D02*
X165213100Y-62005040D01*
X165213100Y-62005040D02*
X165229951Y-60279501D01*
X165229951Y-60279501D02*
X165321806Y-58930948D01*
X165321806Y-58930948D02*
X165505327Y-57795712D01*
X165505327Y-57795712D02*
X165797175Y-56710122D01*
X165797175Y-56710122D02*
X166120501Y-55765609D01*
X166120501Y-55765609D02*
X166560675Y-54503189D01*
X166560675Y-54503189D02*
X166760443Y-53715931D01*
X166760443Y-53715931D02*
X166737906Y-53222503D01*
X166737906Y-53222503D02*
X166511163Y-52841572D01*
X166511163Y-52841572D02*
X166422492Y-52740236D01*
X166422492Y-52740236D02*
X165485378Y-52180180D01*
X165485378Y-52180180D02*
X164299171Y-52139800D01*
X164299171Y-52139800D02*
X163028978Y-52567595D01*
X163028978Y-52567595D02*
X163028978Y-52567595D01*
G36*
X165485378Y-52180180D02*
G01*
X166422492Y-52740236D01*
X166511163Y-52841572D01*
X166737906Y-53222503D01*
X166760443Y-53715931D01*
X166560675Y-54503189D01*
X166120501Y-55765609D01*
X165797175Y-56710122D01*
X165505327Y-57795712D01*
X165321806Y-58930948D01*
X165229951Y-60279501D01*
X165213100Y-62005040D01*
X165254589Y-64271233D01*
X165325203Y-67081521D01*
X163824237Y-68481607D01*
X162323271Y-69881694D01*
X161983571Y-69022708D01*
X161849822Y-68625608D01*
X161533558Y-67311931D01*
X161210696Y-65536577D01*
X160906929Y-63466623D01*
X160647948Y-61269147D01*
X160459445Y-59111225D01*
X160370258Y-57679354D01*
X160347577Y-56520652D01*
X160432104Y-55716831D01*
X160645772Y-55081525D01*
X161010510Y-54428367D01*
X161839911Y-53412062D01*
X163028978Y-52567595D01*
X164299171Y-52139800D01*
X165485378Y-52180180D01*
G37*
X165485378Y-52180180D02*
X166422492Y-52740236D01*
X166511163Y-52841572D01*
X166737906Y-53222503D01*
X166760443Y-53715931D01*
X166560675Y-54503189D01*
X166120501Y-55765609D01*
X165797175Y-56710122D01*
X165505327Y-57795712D01*
X165321806Y-58930948D01*
X165229951Y-60279501D01*
X165213100Y-62005040D01*
X165254589Y-64271233D01*
X165325203Y-67081521D01*
X163824237Y-68481607D01*
X162323271Y-69881694D01*
X161983571Y-69022708D01*
X161849822Y-68625608D01*
X161533558Y-67311931D01*
X161210696Y-65536577D01*
X160906929Y-63466623D01*
X160647948Y-61269147D01*
X160459445Y-59111225D01*
X160370258Y-57679354D01*
X160347577Y-56520652D01*
X160432104Y-55716831D01*
X160645772Y-55081525D01*
X161010510Y-54428367D01*
X161839911Y-53412062D01*
X163028978Y-52567595D01*
X164299171Y-52139800D01*
X165485378Y-52180180D01*
X158779472Y-91193298D02*
X158827065Y-91674734D01*
X158827065Y-91674734D02*
X159176174Y-92591790D01*
X159176174Y-92591790D02*
X159743953Y-93788418D01*
X159743953Y-93788418D02*
X160447553Y-95108570D01*
X160447553Y-95108570D02*
X161204127Y-96396197D01*
X161204127Y-96396197D02*
X161930828Y-97495251D01*
X161930828Y-97495251D02*
X162503194Y-98207155D01*
X162503194Y-98207155D02*
X163317826Y-98942879D01*
X163317826Y-98942879D02*
X164055396Y-99427241D01*
X164055396Y-99427241D02*
X164232871Y-99495444D01*
X164232871Y-99495444D02*
X164678877Y-99541294D01*
X164678877Y-99541294D02*
X164645049Y-99208754D01*
X164645049Y-99208754D02*
X164498094Y-98908956D01*
X164498094Y-98908956D02*
X164164227Y-98357076D01*
X164164227Y-98357076D02*
X163533208Y-97383575D01*
X163533208Y-97383575D02*
X162706855Y-96138893D01*
X162706855Y-96138893D02*
X161786989Y-94773471D01*
X161786989Y-94773471D02*
X160875429Y-93437748D01*
X160875429Y-93437748D02*
X160073993Y-92282165D01*
X160073993Y-92282165D02*
X159484500Y-91457162D01*
X159484500Y-91457162D02*
X159247952Y-91151734D01*
X159247952Y-91151734D02*
X158867356Y-91095300D01*
X158867356Y-91095300D02*
X158779472Y-91193298D01*
X158779472Y-91193298D02*
X158779472Y-91193298D01*
G36*
X159247952Y-91151734D02*
G01*
X159484500Y-91457162D01*
X160073993Y-92282165D01*
X160875429Y-93437748D01*
X161786989Y-94773471D01*
X162706855Y-96138893D01*
X163533208Y-97383575D01*
X164164227Y-98357076D01*
X164498094Y-98908956D01*
X164645049Y-99208754D01*
X164678877Y-99541294D01*
X164232871Y-99495444D01*
X164055396Y-99427241D01*
X163317826Y-98942879D01*
X162503194Y-98207155D01*
X161930828Y-97495251D01*
X161204127Y-96396197D01*
X160447553Y-95108570D01*
X159743953Y-93788418D01*
X159176174Y-92591790D01*
X158827065Y-91674734D01*
X158779472Y-91193298D01*
X158867356Y-91095300D01*
X159247952Y-91151734D01*
G37*
X159247952Y-91151734D02*
X159484500Y-91457162D01*
X160073993Y-92282165D01*
X160875429Y-93437748D01*
X161786989Y-94773471D01*
X162706855Y-96138893D01*
X163533208Y-97383575D01*
X164164227Y-98357076D01*
X164498094Y-98908956D01*
X164645049Y-99208754D01*
X164678877Y-99541294D01*
X164232871Y-99495444D01*
X164055396Y-99427241D01*
X163317826Y-98942879D01*
X162503194Y-98207155D01*
X161930828Y-97495251D01*
X161204127Y-96396197D01*
X160447553Y-95108570D01*
X159743953Y-93788418D01*
X159176174Y-92591790D01*
X158827065Y-91674734D01*
X158779472Y-91193298D01*
X158867356Y-91095300D01*
X159247952Y-91151734D01*
X193260781Y-46710804D02*
X192393916Y-47377269D01*
X192393916Y-47377269D02*
X192078506Y-47861529D01*
X192078506Y-47861529D02*
X191891399Y-48614962D01*
X191891399Y-48614962D02*
X192022182Y-49306919D01*
X192022182Y-49306919D02*
X192408851Y-49640564D01*
X192408851Y-49640564D02*
X192450617Y-49642889D01*
X192450617Y-49642889D02*
X192859769Y-49970369D01*
X192859769Y-49970369D02*
X193394687Y-50889573D01*
X193394687Y-50889573D02*
X194018593Y-52305651D01*
X194018593Y-52305651D02*
X194694709Y-54123749D01*
X194694709Y-54123749D02*
X195386255Y-56249017D01*
X195386255Y-56249017D02*
X196056454Y-58586602D01*
X196056454Y-58586602D02*
X196337252Y-59666503D01*
X196337252Y-59666503D02*
X196735835Y-60996480D01*
X196735835Y-60996480D02*
X197102570Y-61728509D01*
X197102570Y-61728509D02*
X197412393Y-61816832D01*
X197412393Y-61816832D02*
X197473444Y-61740510D01*
X197473444Y-61740510D02*
X197734170Y-60840722D01*
X197734170Y-60840722D02*
X197804644Y-59402230D01*
X197804644Y-59402230D02*
X197702433Y-57560586D01*
X197702433Y-57560586D02*
X197445100Y-55451342D01*
X197445100Y-55451342D02*
X197050210Y-53210052D01*
X197050210Y-53210052D02*
X196535328Y-50972266D01*
X196535328Y-50972266D02*
X195918018Y-48873537D01*
X195918018Y-48873537D02*
X195739259Y-48357206D01*
X195739259Y-48357206D02*
X195076017Y-47220076D01*
X195076017Y-47220076D02*
X194202337Y-46664841D01*
X194202337Y-46664841D02*
X193260781Y-46710804D01*
X193260781Y-46710804D02*
X193260781Y-46710804D01*
G36*
X195076017Y-47220076D02*
G01*
X195739259Y-48357206D01*
X195918018Y-48873537D01*
X196535328Y-50972266D01*
X197050210Y-53210052D01*
X197445100Y-55451342D01*
X197702433Y-57560586D01*
X197804644Y-59402230D01*
X197734170Y-60840722D01*
X197473444Y-61740510D01*
X197412393Y-61816832D01*
X197102570Y-61728509D01*
X196735835Y-60996480D01*
X196337252Y-59666503D01*
X196056454Y-58586602D01*
X195386255Y-56249017D01*
X194694709Y-54123749D01*
X194018593Y-52305651D01*
X193394687Y-50889573D01*
X192859769Y-49970369D01*
X192450617Y-49642889D01*
X192408851Y-49640564D01*
X192022182Y-49306919D01*
X191891399Y-48614962D01*
X192078506Y-47861529D01*
X192393916Y-47377269D01*
X193260781Y-46710804D01*
X194202337Y-46664841D01*
X195076017Y-47220076D01*
G37*
X195076017Y-47220076D02*
X195739259Y-48357206D01*
X195918018Y-48873537D01*
X196535328Y-50972266D01*
X197050210Y-53210052D01*
X197445100Y-55451342D01*
X197702433Y-57560586D01*
X197804644Y-59402230D01*
X197734170Y-60840722D01*
X197473444Y-61740510D01*
X197412393Y-61816832D01*
X197102570Y-61728509D01*
X196735835Y-60996480D01*
X196337252Y-59666503D01*
X196056454Y-58586602D01*
X195386255Y-56249017D01*
X194694709Y-54123749D01*
X194018593Y-52305651D01*
X193394687Y-50889573D01*
X192859769Y-49970369D01*
X192450617Y-49642889D01*
X192408851Y-49640564D01*
X192022182Y-49306919D01*
X191891399Y-48614962D01*
X192078506Y-47861529D01*
X192393916Y-47377269D01*
X193260781Y-46710804D01*
X194202337Y-46664841D01*
X195076017Y-47220076D01*
X178391838Y-46168432D02*
X178310811Y-47118512D01*
X178310811Y-47118512D02*
X178700440Y-48589160D01*
X178700440Y-48589160D02*
X179560717Y-50579118D01*
X179560717Y-50579118D02*
X180891630Y-53087127D01*
X180891630Y-53087127D02*
X181516898Y-54169157D01*
X181516898Y-54169157D02*
X182592210Y-56294619D01*
X182592210Y-56294619D02*
X183629087Y-58901183D01*
X183629087Y-58901183D02*
X184542454Y-61765938D01*
X184542454Y-61765938D02*
X184838486Y-62872055D01*
X184838486Y-62872055D02*
X185185460Y-64173981D01*
X185185460Y-64173981D02*
X185465585Y-65094828D01*
X185465585Y-65094828D02*
X185641095Y-65517536D01*
X185641095Y-65517536D02*
X185680556Y-65482237D01*
X185680556Y-65482237D02*
X185916420Y-64669794D01*
X185916420Y-64669794D02*
X186453943Y-63543780D01*
X186453943Y-63543780D02*
X187156109Y-62343228D01*
X187156109Y-62343228D02*
X187885904Y-61307172D01*
X187885904Y-61307172D02*
X188380616Y-60771775D01*
X188380616Y-60771775D02*
X188860259Y-60319767D01*
X188860259Y-60319767D02*
X189042956Y-59898693D01*
X189042956Y-59898693D02*
X188954786Y-59269402D01*
X188954786Y-59269402D02*
X188651772Y-58285244D01*
X188651772Y-58285244D02*
X187380339Y-54714327D01*
X187380339Y-54714327D02*
X186083893Y-51806248D01*
X186083893Y-51806248D02*
X184736464Y-49518291D01*
X184736464Y-49518291D02*
X183312083Y-47807739D01*
X183312083Y-47807739D02*
X181784778Y-46631876D01*
X181784778Y-46631876D02*
X181458952Y-46454181D01*
X181458952Y-46454181D02*
X179965899Y-45835008D01*
X179965899Y-45835008D02*
X178943531Y-45740178D01*
X178943531Y-45740178D02*
X178391838Y-46168432D01*
X178391838Y-46168432D02*
X178391838Y-46168432D01*
G36*
X179965899Y-45835008D02*
G01*
X181458952Y-46454181D01*
X181784778Y-46631876D01*
X183312083Y-47807739D01*
X184736464Y-49518291D01*
X186083893Y-51806248D01*
X187380339Y-54714327D01*
X188651772Y-58285244D01*
X188954786Y-59269402D01*
X189042956Y-59898693D01*
X188860259Y-60319767D01*
X188380616Y-60771775D01*
X187885904Y-61307172D01*
X187156109Y-62343228D01*
X186453943Y-63543780D01*
X185916420Y-64669794D01*
X185680556Y-65482237D01*
X185641095Y-65517536D01*
X185465585Y-65094828D01*
X185185460Y-64173981D01*
X184838486Y-62872055D01*
X184542454Y-61765938D01*
X183629087Y-58901183D01*
X182592210Y-56294619D01*
X181516898Y-54169157D01*
X180891630Y-53087127D01*
X179560717Y-50579118D01*
X178700440Y-48589160D01*
X178310811Y-47118512D01*
X178391838Y-46168432D01*
X178943531Y-45740178D01*
X179965899Y-45835008D01*
G37*
X179965899Y-45835008D02*
X181458952Y-46454181D01*
X181784778Y-46631876D01*
X183312083Y-47807739D01*
X184736464Y-49518291D01*
X186083893Y-51806248D01*
X187380339Y-54714327D01*
X188651772Y-58285244D01*
X188954786Y-59269402D01*
X189042956Y-59898693D01*
X188860259Y-60319767D01*
X188380616Y-60771775D01*
X187885904Y-61307172D01*
X187156109Y-62343228D01*
X186453943Y-63543780D01*
X185916420Y-64669794D01*
X185680556Y-65482237D01*
X185641095Y-65517536D01*
X185465585Y-65094828D01*
X185185460Y-64173981D01*
X184838486Y-62872055D01*
X184542454Y-61765938D01*
X183629087Y-58901183D01*
X182592210Y-56294619D01*
X181516898Y-54169157D01*
X180891630Y-53087127D01*
X179560717Y-50579118D01*
X178700440Y-48589160D01*
X178310811Y-47118512D01*
X178391838Y-46168432D01*
X178943531Y-45740178D01*
X179965899Y-45835008D01*
X188870467Y-62394215D02*
X188717008Y-62553434D01*
X188717008Y-62553434D02*
X187789976Y-63948747D01*
X187789976Y-63948747D02*
X187197774Y-65818114D01*
X187197774Y-65818114D02*
X186995685Y-67120216D01*
X186995685Y-67120216D02*
X186790297Y-68243325D01*
X186790297Y-68243325D02*
X186426755Y-69666473D01*
X186426755Y-69666473D02*
X186100398Y-70725060D01*
X186100398Y-70725060D02*
X185602338Y-72364425D01*
X185602338Y-72364425D02*
X185425811Y-73579976D01*
X185425811Y-73579976D02*
X185602429Y-74591139D01*
X185602429Y-74591139D02*
X186163804Y-75617338D01*
X186163804Y-75617338D02*
X186953878Y-76649101D01*
X186953878Y-76649101D02*
X187738365Y-77656826D01*
X187738365Y-77656826D02*
X188305780Y-78470740D01*
X188305780Y-78470740D02*
X188540403Y-78924058D01*
X188540403Y-78924058D02*
X188541378Y-78937172D01*
X188541378Y-78937172D02*
X188720388Y-79256985D01*
X188720388Y-79256985D02*
X189227737Y-78997309D01*
X189227737Y-78997309D02*
X189864294Y-78357934D01*
X189864294Y-78357934D02*
X190525649Y-77133341D01*
X190525649Y-77133341D02*
X190658044Y-76262032D01*
X190658044Y-76262032D02*
X190776268Y-75424461D01*
X190776268Y-75424461D02*
X191094433Y-74134898D01*
X191094433Y-74134898D02*
X191557781Y-72599334D01*
X191557781Y-72599334D02*
X191892661Y-71617695D01*
X191892661Y-71617695D02*
X192659308Y-69208251D01*
X192659308Y-69208251D02*
X193044418Y-67274162D01*
X193044418Y-67274162D02*
X193054979Y-65701838D01*
X193054979Y-65701838D02*
X192697978Y-64377688D01*
X192697978Y-64377688D02*
X192375960Y-63760238D01*
X192375960Y-63760238D02*
X191432298Y-62442260D01*
X191432298Y-62442260D02*
X190578279Y-61790034D01*
X190578279Y-61790034D02*
X189746727Y-61781404D01*
X189746727Y-61781404D02*
X188870467Y-62394215D01*
X188870467Y-62394215D02*
X188870467Y-62394215D01*
G36*
X190578279Y-61790034D02*
G01*
X191432298Y-62442260D01*
X192375960Y-63760238D01*
X192697978Y-64377688D01*
X193054979Y-65701838D01*
X193044418Y-67274162D01*
X192659308Y-69208251D01*
X191892661Y-71617695D01*
X191557781Y-72599334D01*
X191094433Y-74134898D01*
X190776268Y-75424461D01*
X190658044Y-76262032D01*
X190525649Y-77133341D01*
X189864294Y-78357934D01*
X189227737Y-78997309D01*
X188720388Y-79256985D01*
X188541378Y-78937172D01*
X188540403Y-78924058D01*
X188305780Y-78470740D01*
X187738365Y-77656826D01*
X186953878Y-76649101D01*
X186163804Y-75617338D01*
X185602429Y-74591139D01*
X185425811Y-73579976D01*
X185602338Y-72364425D01*
X186100398Y-70725060D01*
X186426755Y-69666473D01*
X186790297Y-68243325D01*
X186995685Y-67120216D01*
X187197774Y-65818114D01*
X187789976Y-63948747D01*
X188717008Y-62553434D01*
X188870467Y-62394215D01*
X189746727Y-61781404D01*
X190578279Y-61790034D01*
G37*
X190578279Y-61790034D02*
X191432298Y-62442260D01*
X192375960Y-63760238D01*
X192697978Y-64377688D01*
X193054979Y-65701838D01*
X193044418Y-67274162D01*
X192659308Y-69208251D01*
X191892661Y-71617695D01*
X191557781Y-72599334D01*
X191094433Y-74134898D01*
X190776268Y-75424461D01*
X190658044Y-76262032D01*
X190525649Y-77133341D01*
X189864294Y-78357934D01*
X189227737Y-78997309D01*
X188720388Y-79256985D01*
X188541378Y-78937172D01*
X188540403Y-78924058D01*
X188305780Y-78470740D01*
X187738365Y-77656826D01*
X186953878Y-76649101D01*
X186163804Y-75617338D01*
X185602429Y-74591139D01*
X185425811Y-73579976D01*
X185602338Y-72364425D01*
X186100398Y-70725060D01*
X186426755Y-69666473D01*
X186790297Y-68243325D01*
X186995685Y-67120216D01*
X187197774Y-65818114D01*
X187789976Y-63948747D01*
X188717008Y-62553434D01*
X188870467Y-62394215D01*
X189746727Y-61781404D01*
X190578279Y-61790034D01*
X171146733Y-101538784D02*
X170526930Y-102445547D01*
X170526930Y-102445547D02*
X170234871Y-103912331D01*
X170234871Y-103912331D02*
X170272846Y-105916356D01*
X170272846Y-105916356D02*
X170643142Y-108434839D01*
X170643142Y-108434839D02*
X171348048Y-111444999D01*
X171348048Y-111444999D02*
X172101849Y-114024833D01*
X172101849Y-114024833D02*
X172605912Y-115294444D01*
X172605912Y-115294444D02*
X173239449Y-116461264D01*
X173239449Y-116461264D02*
X173514290Y-116847055D01*
X173514290Y-116847055D02*
X174373553Y-117905389D01*
X174373553Y-117905389D02*
X174793168Y-116847055D01*
X174793168Y-116847055D02*
X175101666Y-115627846D01*
X175101666Y-115627846D02*
X175310977Y-113896323D01*
X175310977Y-113896323D02*
X175418346Y-111839107D01*
X175418346Y-111839107D02*
X175421016Y-109642819D01*
X175421016Y-109642819D02*
X175316231Y-107494081D01*
X175316231Y-107494081D02*
X175101236Y-105579513D01*
X175101236Y-105579513D02*
X174970251Y-104855736D01*
X174970251Y-104855736D02*
X174642119Y-103394457D01*
X174642119Y-103394457D02*
X174355633Y-102471227D01*
X174355633Y-102471227D02*
X174035219Y-101928343D01*
X174035219Y-101928343D02*
X173605303Y-101608104D01*
X173605303Y-101608104D02*
X173360418Y-101496453D01*
X173360418Y-101496453D02*
X172091992Y-101214826D01*
X172091992Y-101214826D02*
X171146733Y-101538784D01*
X171146733Y-101538784D02*
X171146733Y-101538784D01*
G36*
X173360418Y-101496453D02*
G01*
X173605303Y-101608104D01*
X174035219Y-101928343D01*
X174355633Y-102471227D01*
X174642119Y-103394457D01*
X174970251Y-104855736D01*
X175101236Y-105579513D01*
X175316231Y-107494081D01*
X175421016Y-109642819D01*
X175418346Y-111839107D01*
X175310977Y-113896323D01*
X175101666Y-115627846D01*
X174793168Y-116847055D01*
X174373553Y-117905389D01*
X173514290Y-116847055D01*
X173239449Y-116461264D01*
X172605912Y-115294444D01*
X172101849Y-114024833D01*
X171348048Y-111444999D01*
X170643142Y-108434839D01*
X170272846Y-105916356D01*
X170234871Y-103912331D01*
X170526930Y-102445547D01*
X171146733Y-101538784D01*
X172091992Y-101214826D01*
X173360418Y-101496453D01*
G37*
X173360418Y-101496453D02*
X173605303Y-101608104D01*
X174035219Y-101928343D01*
X174355633Y-102471227D01*
X174642119Y-103394457D01*
X174970251Y-104855736D01*
X175101236Y-105579513D01*
X175316231Y-107494081D01*
X175421016Y-109642819D01*
X175418346Y-111839107D01*
X175310977Y-113896323D01*
X175101666Y-115627846D01*
X174793168Y-116847055D01*
X174373553Y-117905389D01*
X173514290Y-116847055D01*
X173239449Y-116461264D01*
X172605912Y-115294444D01*
X172101849Y-114024833D01*
X171348048Y-111444999D01*
X170643142Y-108434839D01*
X170272846Y-105916356D01*
X170234871Y-103912331D01*
X170526930Y-102445547D01*
X171146733Y-101538784D01*
X172091992Y-101214826D01*
X173360418Y-101496453D01*
X200630248Y-106383503D02*
X199597088Y-107233861D01*
X199597088Y-107233861D02*
X198853568Y-108081002D01*
X198853568Y-108081002D02*
X197988502Y-109148388D01*
X197988502Y-109148388D02*
X197116097Y-110283582D01*
X197116097Y-110283582D02*
X196350564Y-111334146D01*
X196350564Y-111334146D02*
X195806110Y-112147640D01*
X195806110Y-112147640D02*
X195596947Y-112571629D01*
X195596947Y-112571629D02*
X195596933Y-112572981D01*
X195596933Y-112572981D02*
X195357633Y-112984217D01*
X195357633Y-112984217D02*
X194764728Y-113650957D01*
X194764728Y-113650957D02*
X194005716Y-114375916D01*
X194005716Y-114375916D02*
X193450424Y-114831570D01*
X193450424Y-114831570D02*
X192901573Y-115077984D01*
X192901573Y-115077984D02*
X191823152Y-115438469D01*
X191823152Y-115438469D02*
X190372084Y-115864187D01*
X190372084Y-115864187D02*
X188739995Y-116297546D01*
X188739995Y-116297546D02*
X185869109Y-117153703D01*
X185869109Y-117153703D02*
X183639940Y-118125577D01*
X183639940Y-118125577D02*
X181992897Y-119251581D01*
X181992897Y-119251581D02*
X180868390Y-120570126D01*
X180868390Y-120570126D02*
X180328252Y-121719683D01*
X180328252Y-121719683D02*
X180035121Y-122897727D01*
X180035121Y-122897727D02*
X180064705Y-123680027D01*
X180064705Y-123680027D02*
X180107056Y-123766478D01*
X180107056Y-123766478D02*
X180342693Y-123981565D01*
X180342693Y-123981565D02*
X180420988Y-123550306D01*
X180420988Y-123550306D02*
X180422087Y-123469771D01*
X180422087Y-123469771D02*
X180569152Y-122875376D01*
X180569152Y-122875376D02*
X181060375Y-122331049D01*
X181060375Y-122331049D02*
X181983941Y-121783148D01*
X181983941Y-121783148D02*
X183428037Y-121178032D01*
X183428037Y-121178032D02*
X185229356Y-120545615D01*
X185229356Y-120545615D02*
X187080069Y-119987153D01*
X187080069Y-119987153D02*
X188758176Y-119640896D01*
X188758176Y-119640896D02*
X190591546Y-119451154D01*
X190591546Y-119451154D02*
X192069155Y-119383889D01*
X192069155Y-119383889D02*
X193933693Y-119281869D01*
X193933693Y-119281869D02*
X195390968Y-119112574D01*
X195390968Y-119112574D02*
X196313266Y-118892585D01*
X196313266Y-118892585D02*
X196478878Y-118811417D01*
X196478878Y-118811417D02*
X197283591Y-118115588D01*
X197283591Y-118115588D02*
X198303235Y-116990871D01*
X198303235Y-116990871D02*
X199395883Y-115617034D01*
X199395883Y-115617034D02*
X200419608Y-114173844D01*
X200419608Y-114173844D02*
X201232484Y-112841068D01*
X201232484Y-112841068D02*
X201314909Y-112685984D01*
X201314909Y-112685984D02*
X202142607Y-110494768D01*
X202142607Y-110494768D02*
X202510154Y-108468583D01*
X202510154Y-108468583D02*
X202749922Y-106087333D01*
X202749922Y-106087333D02*
X201712076Y-106087333D01*
X201712076Y-106087333D02*
X200630248Y-106383503D01*
X200630248Y-106383503D02*
X200630248Y-106383503D01*
G36*
X202510154Y-108468583D02*
G01*
X202142607Y-110494768D01*
X201314909Y-112685984D01*
X201232484Y-112841068D01*
X200419608Y-114173844D01*
X199395883Y-115617034D01*
X198303235Y-116990871D01*
X197283591Y-118115588D01*
X196478878Y-118811417D01*
X196313266Y-118892585D01*
X195390968Y-119112574D01*
X193933693Y-119281869D01*
X192069155Y-119383889D01*
X190591546Y-119451154D01*
X188758176Y-119640896D01*
X187080069Y-119987153D01*
X185229356Y-120545615D01*
X183428037Y-121178032D01*
X181983941Y-121783148D01*
X181060375Y-122331049D01*
X180569152Y-122875376D01*
X180422087Y-123469771D01*
X180420988Y-123550306D01*
X180342693Y-123981565D01*
X180107056Y-123766478D01*
X180064705Y-123680027D01*
X180035121Y-122897727D01*
X180328252Y-121719683D01*
X180868390Y-120570126D01*
X181992897Y-119251581D01*
X183639940Y-118125577D01*
X185869109Y-117153703D01*
X188739995Y-116297546D01*
X190372084Y-115864187D01*
X191823152Y-115438469D01*
X192901573Y-115077984D01*
X193450424Y-114831570D01*
X194005716Y-114375916D01*
X194764728Y-113650957D01*
X195357633Y-112984217D01*
X195596933Y-112572981D01*
X195596947Y-112571629D01*
X195806110Y-112147640D01*
X196350564Y-111334146D01*
X197116097Y-110283582D01*
X197988502Y-109148388D01*
X198853568Y-108081002D01*
X199597088Y-107233861D01*
X200630248Y-106383503D01*
X201712076Y-106087333D01*
X202749922Y-106087333D01*
X202510154Y-108468583D01*
G37*
X202510154Y-108468583D02*
X202142607Y-110494768D01*
X201314909Y-112685984D01*
X201232484Y-112841068D01*
X200419608Y-114173844D01*
X199395883Y-115617034D01*
X198303235Y-116990871D01*
X197283591Y-118115588D01*
X196478878Y-118811417D01*
X196313266Y-118892585D01*
X195390968Y-119112574D01*
X193933693Y-119281869D01*
X192069155Y-119383889D01*
X190591546Y-119451154D01*
X188758176Y-119640896D01*
X187080069Y-119987153D01*
X185229356Y-120545615D01*
X183428037Y-121178032D01*
X181983941Y-121783148D01*
X181060375Y-122331049D01*
X180569152Y-122875376D01*
X180422087Y-123469771D01*
X180420988Y-123550306D01*
X180342693Y-123981565D01*
X180107056Y-123766478D01*
X180064705Y-123680027D01*
X180035121Y-122897727D01*
X180328252Y-121719683D01*
X180868390Y-120570126D01*
X181992897Y-119251581D01*
X183639940Y-118125577D01*
X185869109Y-117153703D01*
X188739995Y-116297546D01*
X190372084Y-115864187D01*
X191823152Y-115438469D01*
X192901573Y-115077984D01*
X193450424Y-114831570D01*
X194005716Y-114375916D01*
X194764728Y-113650957D01*
X195357633Y-112984217D01*
X195596933Y-112572981D01*
X195596947Y-112571629D01*
X195806110Y-112147640D01*
X196350564Y-111334146D01*
X197116097Y-110283582D01*
X197988502Y-109148388D01*
X198853568Y-108081002D01*
X199597088Y-107233861D01*
X200630248Y-106383503D01*
X201712076Y-106087333D01*
X202749922Y-106087333D01*
X202510154Y-108468583D01*
X157838239Y-77641227D02*
X157538264Y-78656898D01*
X157538264Y-78656898D02*
X157590314Y-80247918D01*
X157590314Y-80247918D02*
X157848815Y-81745667D01*
X157848815Y-81745667D02*
X159164867Y-86324215D01*
X159164867Y-86324215D02*
X161065299Y-90548879D01*
X161065299Y-90548879D02*
X163526887Y-94376653D01*
X163526887Y-94376653D02*
X166469003Y-97708861D01*
X166469003Y-97708861D02*
X167634562Y-98810187D01*
X167634562Y-98810187D02*
X168638465Y-99699349D01*
X168638465Y-99699349D02*
X169362390Y-100275229D01*
X169362390Y-100275229D02*
X169668147Y-100442889D01*
X169668147Y-100442889D02*
X170237182Y-100216656D01*
X170237182Y-100216656D02*
X170479155Y-100019556D01*
X170479155Y-100019556D02*
X170846929Y-99283132D01*
X170846929Y-99283132D02*
X170671820Y-98297033D01*
X170671820Y-98297033D02*
X169937452Y-96994748D01*
X169937452Y-96994748D02*
X169627853Y-96562333D01*
X169627853Y-96562333D02*
X169284545Y-95936483D01*
X169284545Y-95936483D02*
X168841765Y-94923095D01*
X168841765Y-94923095D02*
X168589778Y-94269278D01*
X168589778Y-94269278D02*
X168051379Y-92961480D01*
X168051379Y-92961480D02*
X167439799Y-91703461D01*
X167439799Y-91703461D02*
X167195513Y-91270667D01*
X167195513Y-91270667D02*
X166673821Y-90234008D01*
X166673821Y-90234008D02*
X166123689Y-88872460D01*
X166123689Y-88872460D02*
X165801853Y-87919278D01*
X165801853Y-87919278D02*
X165261795Y-86399931D01*
X165261795Y-86399931D02*
X164584897Y-84826511D01*
X164584897Y-84826511D02*
X164187688Y-84038722D01*
X164187688Y-84038722D02*
X163668780Y-83044275D01*
X163668780Y-83044275D02*
X163337493Y-82311652D01*
X163337493Y-82311652D02*
X163268033Y-82054667D01*
X163268033Y-82054667D02*
X163113711Y-81582135D01*
X163113711Y-81582135D02*
X162631781Y-80756823D01*
X162631781Y-80756823D02*
X161953014Y-79762325D01*
X161953014Y-79762325D02*
X161208181Y-78782237D01*
X161208181Y-78782237D02*
X160528053Y-78000154D01*
X160528053Y-78000154D02*
X160128502Y-77646935D01*
X160128502Y-77646935D02*
X159213920Y-77275852D01*
X159213920Y-77275852D02*
X158487468Y-77220541D01*
X158487468Y-77220541D02*
X157838239Y-77641227D01*
X157838239Y-77641227D02*
X157838239Y-77641227D01*
G36*
X159213920Y-77275852D02*
G01*
X160128502Y-77646935D01*
X160528053Y-78000154D01*
X161208181Y-78782237D01*
X161953014Y-79762325D01*
X162631781Y-80756823D01*
X163113711Y-81582135D01*
X163268033Y-82054667D01*
X163337493Y-82311652D01*
X163668780Y-83044275D01*
X164187688Y-84038722D01*
X164584897Y-84826511D01*
X165261795Y-86399931D01*
X165801853Y-87919278D01*
X166123689Y-88872460D01*
X166673821Y-90234008D01*
X167195513Y-91270667D01*
X167439799Y-91703461D01*
X168051379Y-92961480D01*
X168589778Y-94269278D01*
X168841765Y-94923095D01*
X169284545Y-95936483D01*
X169627853Y-96562333D01*
X169937452Y-96994748D01*
X170671820Y-98297033D01*
X170846929Y-99283132D01*
X170479155Y-100019556D01*
X170237182Y-100216656D01*
X169668147Y-100442889D01*
X169362390Y-100275229D01*
X168638465Y-99699349D01*
X167634562Y-98810187D01*
X166469003Y-97708861D01*
X163526887Y-94376653D01*
X161065299Y-90548879D01*
X159164867Y-86324215D01*
X157848815Y-81745667D01*
X157590314Y-80247918D01*
X157538264Y-78656898D01*
X157838239Y-77641227D01*
X158487468Y-77220541D01*
X159213920Y-77275852D01*
G37*
X159213920Y-77275852D02*
X160128502Y-77646935D01*
X160528053Y-78000154D01*
X161208181Y-78782237D01*
X161953014Y-79762325D01*
X162631781Y-80756823D01*
X163113711Y-81582135D01*
X163268033Y-82054667D01*
X163337493Y-82311652D01*
X163668780Y-83044275D01*
X164187688Y-84038722D01*
X164584897Y-84826511D01*
X165261795Y-86399931D01*
X165801853Y-87919278D01*
X166123689Y-88872460D01*
X166673821Y-90234008D01*
X167195513Y-91270667D01*
X167439799Y-91703461D01*
X168051379Y-92961480D01*
X168589778Y-94269278D01*
X168841765Y-94923095D01*
X169284545Y-95936483D01*
X169627853Y-96562333D01*
X169937452Y-96994748D01*
X170671820Y-98297033D01*
X170846929Y-99283132D01*
X170479155Y-100019556D01*
X170237182Y-100216656D01*
X169668147Y-100442889D01*
X169362390Y-100275229D01*
X168638465Y-99699349D01*
X167634562Y-98810187D01*
X166469003Y-97708861D01*
X163526887Y-94376653D01*
X161065299Y-90548879D01*
X159164867Y-86324215D01*
X157848815Y-81745667D01*
X157590314Y-80247918D01*
X157538264Y-78656898D01*
X157838239Y-77641227D01*
X158487468Y-77220541D01*
X159213920Y-77275852D01*
X185818332Y-46202078D02*
X185541470Y-46469322D01*
X185541470Y-46469322D02*
X185114013Y-47137159D01*
X185114013Y-47137159D02*
X185211698Y-47843764D01*
X185211698Y-47843764D02*
X185302841Y-48056822D01*
X185302841Y-48056822D02*
X185715212Y-48704946D01*
X185715212Y-48704946D02*
X186064370Y-48937333D01*
X186064370Y-48937333D02*
X186387523Y-49221433D01*
X186387523Y-49221433D02*
X186424711Y-49445680D01*
X186424711Y-49445680D02*
X186587446Y-50031811D01*
X186587446Y-50031811D02*
X187018030Y-50007307D01*
X187018030Y-50007307D02*
X187571239Y-49451986D01*
X187571239Y-49451986D02*
X188088043Y-48406790D01*
X188088043Y-48406790D02*
X188166927Y-47394995D01*
X188166927Y-47394995D02*
X187893643Y-46542614D01*
X187893643Y-46542614D02*
X187353947Y-45975660D01*
X187353947Y-45975660D02*
X186633592Y-45820144D01*
X186633592Y-45820144D02*
X185818332Y-46202078D01*
X185818332Y-46202078D02*
X185818332Y-46202078D01*
G36*
X187353947Y-45975660D02*
G01*
X187893643Y-46542614D01*
X188166927Y-47394995D01*
X188088043Y-48406790D01*
X187571239Y-49451986D01*
X187018030Y-50007307D01*
X186587446Y-50031811D01*
X186424711Y-49445680D01*
X186387523Y-49221433D01*
X186064370Y-48937333D01*
X185715212Y-48704946D01*
X185302841Y-48056822D01*
X185211698Y-47843764D01*
X185114013Y-47137159D01*
X185541470Y-46469322D01*
X185818332Y-46202078D01*
X186633592Y-45820144D01*
X187353947Y-45975660D01*
G37*
X187353947Y-45975660D02*
X187893643Y-46542614D01*
X188166927Y-47394995D01*
X188088043Y-48406790D01*
X187571239Y-49451986D01*
X187018030Y-50007307D01*
X186587446Y-50031811D01*
X186424711Y-49445680D01*
X186387523Y-49221433D01*
X186064370Y-48937333D01*
X185715212Y-48704946D01*
X185302841Y-48056822D01*
X185211698Y-47843764D01*
X185114013Y-47137159D01*
X185541470Y-46469322D01*
X185818332Y-46202078D01*
X186633592Y-45820144D01*
X187353947Y-45975660D01*
X188649967Y-50264804D02*
X188081417Y-51091210D01*
X188081417Y-51091210D02*
X188055265Y-51184447D01*
X188055265Y-51184447D02*
X188026908Y-52012780D01*
X188026908Y-52012780D02*
X188233712Y-52916679D01*
X188233712Y-52916679D02*
X188585939Y-53626407D01*
X188585939Y-53626407D02*
X188950782Y-53876222D01*
X188950782Y-53876222D02*
X189169366Y-54181087D01*
X189169366Y-54181087D02*
X189258153Y-54846361D01*
X189258153Y-54846361D02*
X189456068Y-55844916D01*
X189456068Y-55844916D02*
X189787319Y-56501287D01*
X189787319Y-56501287D02*
X190137133Y-57312075D01*
X190137133Y-57312075D02*
X190303136Y-58382080D01*
X190303136Y-58382080D02*
X190305267Y-58504561D01*
X190305267Y-58504561D02*
X190455815Y-59490168D01*
X190455815Y-59490168D02*
X190829624Y-60311449D01*
X190829624Y-60311449D02*
X191309944Y-60778706D01*
X191309944Y-60778706D02*
X191697671Y-60766950D01*
X191697671Y-60766950D02*
X192120729Y-60859471D01*
X192120729Y-60859471D02*
X192637174Y-61398498D01*
X192637174Y-61398498D02*
X193107877Y-62164396D01*
X193107877Y-62164396D02*
X193393713Y-62937528D01*
X193393713Y-62937528D02*
X193387853Y-63435197D01*
X193387853Y-63435197D02*
X193521559Y-63888176D01*
X193521559Y-63888176D02*
X194004438Y-64425483D01*
X194004438Y-64425483D02*
X194573587Y-64780489D01*
X194573587Y-64780489D02*
X194745773Y-64812333D01*
X194745773Y-64812333D02*
X195280009Y-64534196D01*
X195280009Y-64534196D02*
X195573234Y-64151061D01*
X195573234Y-64151061D02*
X195711488Y-63339619D01*
X195711488Y-63339619D02*
X195605599Y-62023514D01*
X195605599Y-62023514D02*
X195297084Y-60343220D01*
X195297084Y-60343220D02*
X194827465Y-58439213D01*
X194827465Y-58439213D02*
X194238260Y-56451968D01*
X194238260Y-56451968D02*
X193570988Y-54521962D01*
X193570988Y-54521962D02*
X192867169Y-52789669D01*
X192867169Y-52789669D02*
X192168322Y-51395565D01*
X192168322Y-51395565D02*
X191539989Y-50505094D01*
X191539989Y-50505094D02*
X190607060Y-49927335D01*
X190607060Y-49927335D02*
X189567783Y-49862042D01*
X189567783Y-49862042D02*
X188649967Y-50264804D01*
X188649967Y-50264804D02*
X188649967Y-50264804D01*
G36*
X190607060Y-49927335D02*
G01*
X191539989Y-50505094D01*
X192168322Y-51395565D01*
X192867169Y-52789669D01*
X193570988Y-54521962D01*
X194238260Y-56451968D01*
X194827465Y-58439213D01*
X195297084Y-60343220D01*
X195605599Y-62023514D01*
X195711488Y-63339619D01*
X195573234Y-64151061D01*
X195280009Y-64534196D01*
X194745773Y-64812333D01*
X194573587Y-64780489D01*
X194004438Y-64425483D01*
X193521559Y-63888176D01*
X193387853Y-63435197D01*
X193393713Y-62937528D01*
X193107877Y-62164396D01*
X192637174Y-61398498D01*
X192120729Y-60859471D01*
X191697671Y-60766950D01*
X191309944Y-60778706D01*
X190829624Y-60311449D01*
X190455815Y-59490168D01*
X190305267Y-58504561D01*
X190303136Y-58382080D01*
X190137133Y-57312075D01*
X189787319Y-56501287D01*
X189456068Y-55844916D01*
X189258153Y-54846361D01*
X189169366Y-54181087D01*
X188950782Y-53876222D01*
X188585939Y-53626407D01*
X188233712Y-52916679D01*
X188026908Y-52012780D01*
X188055265Y-51184447D01*
X188081417Y-51091210D01*
X188649967Y-50264804D01*
X189567783Y-49862042D01*
X190607060Y-49927335D01*
G37*
X190607060Y-49927335D02*
X191539989Y-50505094D01*
X192168322Y-51395565D01*
X192867169Y-52789669D01*
X193570988Y-54521962D01*
X194238260Y-56451968D01*
X194827465Y-58439213D01*
X195297084Y-60343220D01*
X195605599Y-62023514D01*
X195711488Y-63339619D01*
X195573234Y-64151061D01*
X195280009Y-64534196D01*
X194745773Y-64812333D01*
X194573587Y-64780489D01*
X194004438Y-64425483D01*
X193521559Y-63888176D01*
X193387853Y-63435197D01*
X193393713Y-62937528D01*
X193107877Y-62164396D01*
X192637174Y-61398498D01*
X192120729Y-60859471D01*
X191697671Y-60766950D01*
X191309944Y-60778706D01*
X190829624Y-60311449D01*
X190455815Y-59490168D01*
X190305267Y-58504561D01*
X190303136Y-58382080D01*
X190137133Y-57312075D01*
X189787319Y-56501287D01*
X189456068Y-55844916D01*
X189258153Y-54846361D01*
X189169366Y-54181087D01*
X188950782Y-53876222D01*
X188585939Y-53626407D01*
X188233712Y-52916679D01*
X188026908Y-52012780D01*
X188055265Y-51184447D01*
X188081417Y-51091210D01*
X188649967Y-50264804D01*
X189567783Y-49862042D01*
X190607060Y-49927335D01*
X171178141Y-44360714D02*
X170295905Y-45443041D01*
X170295905Y-45443041D02*
X169912369Y-46219905D01*
X169912369Y-46219905D02*
X169596871Y-47037300D01*
X169596871Y-47037300D02*
X169553617Y-47567681D01*
X169553617Y-47567681D02*
X169880692Y-47874025D01*
X169880692Y-47874025D02*
X170676180Y-48019315D01*
X170676180Y-48019315D02*
X172038167Y-48066529D01*
X172038167Y-48066529D02*
X172797166Y-48072235D01*
X172797166Y-48072235D02*
X176101954Y-48089081D01*
X176101954Y-48089081D02*
X175408101Y-46837513D01*
X175408101Y-46837513D02*
X174309300Y-45204572D01*
X174309300Y-45204572D02*
X173216760Y-44245067D01*
X173216760Y-44245067D02*
X172162400Y-43962586D01*
X172162400Y-43962586D02*
X171178141Y-44360714D01*
X171178141Y-44360714D02*
X171178141Y-44360714D01*
G36*
X173216760Y-44245067D02*
G01*
X174309300Y-45204572D01*
X175408101Y-46837513D01*
X176101954Y-48089081D01*
X172797166Y-48072235D01*
X172038167Y-48066529D01*
X170676180Y-48019315D01*
X169880692Y-47874025D01*
X169553617Y-47567681D01*
X169596871Y-47037300D01*
X169912369Y-46219905D01*
X170295905Y-45443041D01*
X171178141Y-44360714D01*
X172162400Y-43962586D01*
X173216760Y-44245067D01*
G37*
X173216760Y-44245067D02*
X174309300Y-45204572D01*
X175408101Y-46837513D01*
X176101954Y-48089081D01*
X172797166Y-48072235D01*
X172038167Y-48066529D01*
X170676180Y-48019315D01*
X169880692Y-47874025D01*
X169553617Y-47567681D01*
X169596871Y-47037300D01*
X169912369Y-46219905D01*
X170295905Y-45443041D01*
X171178141Y-44360714D01*
X172162400Y-43962586D01*
X173216760Y-44245067D01*
M02*
