M48
; DRILL file {KiCad 5.1.5+dfsg1-2build2} date Wed 27 Jan 2021 21:49:28 GMT
; FORMAT={-:-/ absolute / inch / decimal}
; #@! TF.CreationDate,2021-01-27T21:49:28+00:00
; #@! TF.GenerationSoftware,Kicad,Pcbnew,5.1.5+dfsg1-2build2
FMAT,2
INCH
T1C0.0157
T2C0.0276
T3C0.0295
T4C0.0300
T5C0.0320
T6C0.0394
T7C0.0472
T8C0.0591
T9C0.0394
T10C0.0472
T11C0.0669
T12C0.0748
T13C0.1260
T14C0.1575
%
G90
G05
T1
X3.782Y-3.927
X4.078Y-3.927
X4.122Y-5.19
X4.136Y-3.434
X4.2003Y-4.9326
X4.2301Y-3.9539
X4.28Y-5.19
X4.344Y-2.9201
X4.366Y-4.958
X4.366Y-5.08
X4.457Y-3.432
X4.851Y-1.777
X4.851Y-1.906
X5.01Y-4.534
X5.011Y-4.768
X5.022Y-3.291
X6.8235Y-1.694
X7.395Y-5.324
X7.395Y-5.478
X8.321Y-1.731
X8.6057Y-1.7957
X8.867Y-3.057
T2
X3.9Y-2.078
X3.9Y-2.278
T3
X5.724Y-2.492
X6.024Y-2.492
X7.979Y-2.387
X8.279Y-2.387
X6.474Y-2.287
X6.774Y-2.287
X7.229Y-2.392
X7.529Y-2.392
X4.969Y-2.482
X5.269Y-2.482
X4.934Y-4.832
X5.234Y-4.832
X8.709Y-4.077
X9.009Y-4.077
X7.219Y-3.887
X7.519Y-3.887
X4.924Y-3.977
X5.224Y-3.977
X7.969Y-3.882
X8.269Y-3.882
X6.474Y-3.792
X6.774Y-3.792
X7.984Y-4.807
X8.284Y-4.807
X4.799Y-4.382
X4.799Y-4.682
X7.244Y-4.647
X7.544Y-4.647
X6.474Y-2.387
X6.774Y-2.387
X8.739Y-2.482
X9.039Y-2.482
X6.489Y-4.747
X6.789Y-4.747
X4.969Y-2.582
X5.269Y-2.582
X7.229Y-2.292
X7.529Y-2.292
X6.474Y-3.887
X6.774Y-3.887
X7.979Y-2.482
X8.279Y-2.482
X5.724Y-2.402
X6.024Y-2.402
X5.804Y-4.782
X6.104Y-4.782
X7.969Y-3.982
X8.269Y-3.982
X5.719Y-3.882
X6.019Y-3.882
X7.219Y-3.797
X7.519Y-3.797
X5.714Y-3.982
X6.014Y-3.982
X8.739Y-2.577
X9.039Y-2.577
X4.924Y-4.072
X5.224Y-4.072
X8.709Y-3.977
X9.009Y-3.977
T4
X4.039Y-1.857
X4.039Y-1.957
X4.039Y-2.057
X4.039Y-2.157
X4.039Y-2.257
X4.039Y-2.357
X4.039Y-2.457
X4.039Y-2.557
X4.039Y-2.657
X4.039Y-2.757
X4.039Y-2.857
X4.039Y-2.957
X4.039Y-3.057
X4.039Y-3.157
X4.039Y-3.257
X4.039Y-3.357
X4.039Y-3.457
X4.039Y-3.557
X4.039Y-3.657
X4.039Y-3.757
X4.639Y-1.857
X4.639Y-1.957
X4.639Y-2.057
X4.639Y-2.157
X4.639Y-2.257
X4.639Y-2.357
X4.639Y-2.457
X4.639Y-2.557
X4.639Y-2.657
X4.639Y-2.757
X4.639Y-2.857
X4.639Y-2.957
X4.639Y-3.057
X4.639Y-3.157
X4.639Y-3.257
X4.639Y-3.357
X4.639Y-3.457
X4.639Y-3.557
X4.639Y-3.657
X4.639Y-3.757
T5
X4.189Y-3.986
X4.289Y-3.986
X4.389Y-3.986
X4.489Y-3.986
T6
X4.1952Y-4.2541
X4.1952Y-4.825
X4.2936Y-4.825
X4.392Y-4.2541
X4.392Y-4.825
T7
X8.6698Y-2.0023
X8.8706Y-1.9235
X9.0714Y-2.0023
X7.1706Y-3.3141
X7.3714Y-3.2353
X7.5722Y-3.3141
X8.6698Y-2.7519
X8.8706Y-2.6731
X9.0714Y-2.7519
X8.6698Y-3.5015
X8.8706Y-3.4227
X9.0714Y-3.5015
X6.421Y-2.5645
X6.6218Y-2.4857
X6.8226Y-2.5645
X4.9218Y-2.0023
X5.1226Y-1.9235
X5.3233Y-2.0023
X7.9202Y-4.1574
X8.121Y-4.0787
X8.3218Y-4.1574
X4.9218Y-4.2511
X5.1226Y-4.1724
X5.3233Y-4.2511
X7.9202Y-5.0007
X8.121Y-4.922
X8.3218Y-5.0007
X5.6714Y-1.9149
X5.8722Y-1.8361
X6.073Y-1.9149
X7.1706Y-4.0637
X7.3714Y-3.985
X7.5722Y-4.0637
X7.9202Y-3.4078
X8.121Y-3.329
X8.3218Y-3.4078
X5.4176Y-5.0237
X5.6017Y-4.9112
X5.8131Y-4.9539
X5.6714Y-2.6708
X5.8722Y-2.592
X6.073Y-2.6708
X6.421Y-3.3141
X6.6218Y-3.2353
X6.8226Y-3.3141
X7.1706Y-1.8149
X7.3714Y-1.7361
X7.5722Y-1.8149
X7.1706Y-2.5645
X7.3714Y-2.4857
X7.5722Y-2.5645
X7.1706Y-4.8259
X7.3714Y-4.7472
X7.5722Y-4.8259
X6.421Y-4.0637
X6.6218Y-3.985
X6.8226Y-4.0637
X8.6698Y-4.2511
X8.8706Y-4.1724
X9.0714Y-4.2511
X6.421Y-4.9196
X6.6218Y-4.8409
X6.8226Y-4.9196
X7.9202Y-2.6582
X8.121Y-2.5794
X8.3218Y-2.6582
X4.9218Y-3.5015
X5.1226Y-3.4227
X5.3233Y-3.5015
X4.9218Y-2.7519
X5.1226Y-2.6731
X5.3233Y-2.7519
X5.6714Y-3.4078
X5.8722Y-3.329
X6.073Y-3.4078
X6.421Y-1.8149
X6.6218Y-1.7361
X6.8226Y-1.8149
X7.9202Y-1.9086
X8.121Y-1.8298
X8.3218Y-1.9086
X5.6714Y-4.1574
X5.8722Y-4.0787
X6.073Y-4.1574
X4.6326Y-5.1823
X4.8012Y-5.3169
X4.8334Y-5.5301
T8
X4.6116Y-5.2531
X4.6864Y-5.2676
X4.7034Y-5.2578
X4.7232Y-5.2464
X4.7616Y-5.5129
X4.7864Y-5.4409
X4.8034Y-5.431
X4.8232Y-5.4196
X8.7206Y-2.0558
X8.7706Y-1.9558
X8.7706Y-1.9787
X8.7706Y-1.9983
X8.9706Y-1.9558
X8.9706Y-1.9787
X8.9706Y-1.9983
X9.0206Y-2.0558
X7.2214Y-3.3676
X7.2714Y-3.2676
X7.2714Y-3.2905
X7.2714Y-3.3101
X7.4714Y-3.2676
X7.4714Y-3.2905
X7.4714Y-3.3101
X7.5214Y-3.3676
X8.7206Y-2.8054
X8.7706Y-2.7054
X8.7706Y-2.7283
X8.7706Y-2.7479
X8.9706Y-2.7054
X8.9706Y-2.7283
X8.9706Y-2.7479
X9.0206Y-2.8054
X8.7206Y-3.555
X8.7706Y-3.455
X8.7706Y-3.4779
X8.7706Y-3.4976
X8.9706Y-3.455
X8.9706Y-3.4779
X8.9706Y-3.4976
X9.0206Y-3.555
X6.4718Y-2.618
X6.5218Y-2.518
X6.5218Y-2.5409
X6.5218Y-2.5605
X6.7218Y-2.518
X6.7218Y-2.5409
X6.7218Y-2.5605
X6.7718Y-2.618
X4.9726Y-2.0558
X5.0226Y-1.9558
X5.0226Y-1.9787
X5.0226Y-1.9983
X5.2226Y-1.9558
X5.2226Y-1.9787
X5.2226Y-1.9983
X5.2726Y-2.0558
X7.971Y-4.2109
X8.021Y-4.1109
X8.021Y-4.1338
X8.021Y-4.1535
X8.221Y-4.1109
X8.221Y-4.1338
X8.221Y-4.1535
X8.271Y-4.2109
X4.9726Y-4.3046
X5.0226Y-4.2046
X5.0226Y-4.2275
X5.0226Y-4.2472
X5.2226Y-4.2046
X5.2226Y-4.2275
X5.2226Y-4.2472
X5.2726Y-4.3046
X7.971Y-5.0543
X8.021Y-4.9543
X8.021Y-4.9771
X8.021Y-4.9968
X8.221Y-4.9543
X8.221Y-4.9771
X8.221Y-4.9968
X8.271Y-5.0543
X5.7222Y-1.9684
X5.7722Y-1.8684
X5.7722Y-1.8913
X5.7722Y-1.9109
X5.9722Y-1.8684
X5.9722Y-1.8913
X5.9722Y-1.9109
X6.0222Y-1.9684
X7.2214Y-4.1172
X7.2714Y-4.0172
X7.2714Y-4.0401
X7.2714Y-4.0598
X7.4714Y-4.0172
X7.4714Y-4.0401
X7.4714Y-4.0598
X7.5214Y-4.1172
X7.971Y-3.4613
X8.021Y-3.3613
X8.021Y-3.3842
X8.021Y-3.4039
X8.221Y-3.3613
X8.221Y-3.3842
X8.221Y-3.4039
X8.271Y-3.4613
X5.4769Y-5.0676
X5.5088Y-4.9604
X5.5128Y-4.9829
X5.5162Y-5.0023
X5.7058Y-4.9257
X5.7097Y-4.9482
X5.7131Y-4.9675
X5.7724Y-5.0155
X5.7222Y-2.7243
X5.7722Y-2.6243
X5.7722Y-2.6472
X5.7722Y-2.6668
X5.9722Y-2.6243
X5.9722Y-2.6472
X5.9722Y-2.6668
X6.0222Y-2.7243
X6.4718Y-3.3676
X6.5218Y-3.2676
X6.5218Y-3.2905
X6.5218Y-3.3101
X6.7218Y-3.2676
X6.7218Y-3.2905
X6.7218Y-3.3101
X6.7718Y-3.3676
X7.2214Y-1.8684
X7.2714Y-1.7684
X7.2714Y-1.7913
X7.2714Y-1.8109
X7.4714Y-1.7684
X7.4714Y-1.7913
X7.4714Y-1.8109
X7.5214Y-1.8684
X7.2214Y-2.618
X7.2714Y-2.518
X7.2714Y-2.5409
X7.2714Y-2.5605
X7.4714Y-2.518
X7.4714Y-2.5409
X7.4714Y-2.5605
X7.5214Y-2.618
X7.2214Y-4.8794
X7.2714Y-4.7794
X7.2714Y-4.8023
X7.2714Y-4.822
X7.4714Y-4.7794
X7.4714Y-4.8023
X7.4714Y-4.822
X7.5214Y-4.8794
X6.4718Y-4.1172
X6.5218Y-4.0172
X6.5218Y-4.0401
X6.5218Y-4.0598
X6.7218Y-4.0172
X6.7218Y-4.0401
X6.7218Y-4.0598
X6.7718Y-4.1172
X8.7206Y-4.3046
X8.7706Y-4.2046
X8.7706Y-4.2275
X8.7706Y-4.2472
X8.9706Y-4.2046
X8.9706Y-4.2275
X8.9706Y-4.2472
X9.0206Y-4.3046
X6.4718Y-4.9731
X6.5218Y-4.8731
X6.5218Y-4.896
X6.5218Y-4.9157
X6.7218Y-4.8731
X6.7218Y-4.896
X6.7218Y-4.9157
X6.7718Y-4.9731
X7.971Y-2.7117
X8.021Y-2.6117
X8.021Y-2.6346
X8.021Y-2.6542
X8.221Y-2.6117
X8.221Y-2.6346
X8.221Y-2.6542
X8.271Y-2.7117
X4.9726Y-3.555
X5.0226Y-3.455
X5.0226Y-3.4779
X5.0226Y-3.4976
X5.2226Y-3.455
X5.2226Y-3.4779
X5.2226Y-3.4976
X5.2726Y-3.555
X4.9726Y-2.8054
X5.0226Y-2.7054
X5.0226Y-2.7283
X5.0226Y-2.7479
X5.2226Y-2.7054
X5.2226Y-2.7283
X5.2226Y-2.7479
X5.2726Y-2.8054
X5.7222Y-3.4613
X5.7722Y-3.3613
X5.7722Y-3.3842
X5.7722Y-3.4039
X5.9722Y-3.3613
X5.9722Y-3.3842
X5.9722Y-3.4039
X6.0222Y-3.4613
X6.4718Y-1.8684
X6.5218Y-1.7684
X6.5218Y-1.7913
X6.5218Y-1.8109
X6.7218Y-1.7684
X6.7218Y-1.7913
X6.7218Y-1.8109
X6.7718Y-1.8684
X7.971Y-1.9621
X8.021Y-1.8621
X8.021Y-1.885
X8.021Y-1.9046
X8.221Y-1.8621
X8.221Y-1.885
X8.221Y-1.9046
X8.271Y-1.9621
X5.7222Y-4.2109
X5.7722Y-4.1109
X5.7722Y-4.1338
X5.7722Y-4.1535
X5.9722Y-4.1109
X5.9722Y-4.1338
X5.9722Y-4.1535
X6.0222Y-4.2109
T9
X8.6651Y-3.8204
X9.0761Y-3.8204
X6.4163Y-2.8834
X6.8273Y-2.8834
X4.917Y-2.3212
X5.3281Y-2.3212
X7.9155Y-4.4763
X8.3265Y-4.4763
X4.917Y-4.57
X5.3281Y-4.57
X7.9155Y-5.3196
X8.3265Y-5.3196
X5.6667Y-2.2338
X6.0777Y-2.2338
X7.1659Y-4.3826
X7.5769Y-4.3826
X7.9155Y-3.7267
X8.3265Y-3.7267
X5.4683Y-5.3385
X5.8731Y-5.2672
X5.6667Y-2.9897
X6.0777Y-2.9897
X6.4163Y-3.633
X6.8273Y-3.633
X7.1659Y-2.1338
X7.5769Y-2.1338
X7.1659Y-2.8834
X7.5769Y-2.8834
X7.1659Y-5.1448
X7.5769Y-5.1448
X6.4163Y-4.3826
X6.8273Y-4.3826
X8.6651Y-4.57
X9.0761Y-4.57
X6.4163Y-5.2385
X6.8273Y-5.2385
X7.9155Y-2.9771
X8.3265Y-2.9771
X4.917Y-3.8204
X5.3281Y-3.8204
X4.917Y-3.0708
X5.3281Y-3.0708
X5.6667Y-3.7267
X6.0777Y-3.7267
X6.4163Y-2.1338
X6.8273Y-2.1338
X7.9155Y-2.2275
X8.3265Y-2.2275
X5.6667Y-4.4763
X6.0777Y-4.4763
X4.354Y-5.3377
X4.5596Y-5.6936
X8.6651Y-2.3212
X9.0761Y-2.3212
X7.1659Y-3.633
X7.5769Y-3.633
X8.6651Y-3.0708
X9.0761Y-3.0708
T10
X3.657Y-1.8761
X3.657Y-2.1516
X3.7259Y-1.8761
X3.7259Y-2.1516
T11
X4.5Y-5.2598
X4.7Y-5.6062
X8.6706Y-2.1558
X9.0706Y-2.1558
X7.1714Y-3.4676
X7.5714Y-3.4676
X8.6706Y-2.9054
X9.0706Y-2.9054
X8.6706Y-3.655
X9.0706Y-3.655
X6.4218Y-2.718
X6.8218Y-2.718
X4.9226Y-2.1558
X5.3226Y-2.1558
X7.921Y-4.3109
X8.321Y-4.3109
X4.9226Y-4.4046
X5.3226Y-4.4046
X7.921Y-5.1543
X8.321Y-5.1543
X5.6722Y-2.0684
X6.0722Y-2.0684
X7.1714Y-4.2172
X7.5714Y-4.2172
X7.921Y-3.5613
X8.321Y-3.5613
X5.445Y-5.1747
X5.839Y-5.1053
X5.6722Y-2.8243
X6.0722Y-2.8243
X6.4218Y-3.4676
X6.8218Y-3.4676
X7.1714Y-1.9684
X7.5714Y-1.9684
X7.1714Y-2.718
X7.5714Y-2.718
X7.1714Y-4.9794
X7.5714Y-4.9794
X6.4218Y-4.2172
X6.8218Y-4.2172
X8.6706Y-4.4046
X9.0706Y-4.4046
X6.4218Y-5.0731
X6.8218Y-5.0731
X7.921Y-2.8117
X8.321Y-2.8117
X4.9226Y-3.655
X5.3226Y-3.655
X4.9226Y-2.9054
X5.3226Y-2.9054
X5.6722Y-3.5613
X6.0722Y-3.5613
X6.4218Y-1.9684
X6.8218Y-1.9684
X7.921Y-2.0621
X8.321Y-2.0621
X5.6722Y-4.3109
X6.0722Y-4.3109
T12
X7.9044Y-4.3109
X8.3375Y-4.3109
X4.906Y-4.4046
X5.3391Y-4.4046
X7.9044Y-5.1543
X8.3375Y-5.1543
X5.6556Y-2.0684
X6.0887Y-2.0684
X7.1548Y-4.2172
X7.5879Y-4.2172
X7.9044Y-3.5613
X8.3375Y-3.5613
X5.4288Y-5.1776
X5.8553Y-5.1024
X5.6556Y-2.8243
X6.0887Y-2.8243
X6.4052Y-3.4676
X6.8383Y-3.4676
X7.1548Y-1.9684
X7.5879Y-1.9684
X7.1548Y-2.718
X7.5879Y-2.718
X7.1548Y-4.9794
X7.5879Y-4.9794
X6.4052Y-4.2172
X6.8383Y-4.2172
X8.6541Y-4.4046
X9.0871Y-4.4046
X6.4052Y-5.0731
X6.8383Y-5.0731
X7.9044Y-2.8117
X8.3375Y-2.8117
X4.906Y-3.655
X5.3391Y-3.655
X4.906Y-2.9054
X5.3391Y-2.9054
X5.6556Y-3.5613
X6.0887Y-3.5613
X6.4052Y-1.9684
X6.8383Y-1.9684
X7.9044Y-2.0621
X8.3375Y-2.0621
X5.6556Y-4.3109
X6.0887Y-4.3109
X4.4917Y-5.2455
X4.7083Y-5.6205
X8.6541Y-2.1558
X9.0871Y-2.1558
X7.1548Y-3.4676
X7.5879Y-3.4676
X8.6541Y-2.9054
X9.0871Y-2.9054
X8.6541Y-3.655
X9.0871Y-3.655
X6.4052Y-2.718
X6.8383Y-2.718
X4.906Y-2.1558
X5.3391Y-2.1558
T13
X3.692Y-2.583
X4.019Y-5.047
X6.27Y-3.124
X7.734Y-3.09
X4.639Y-4.155
X8.841Y-5.244
T14
X8.8706Y-3.655
X6.6218Y-2.718
X5.1226Y-2.1558
X8.121Y-4.3109
X5.1226Y-4.4046
X8.121Y-5.1543
X5.8722Y-2.0684
X7.3714Y-4.2172
X8.121Y-3.5613
X5.642Y-5.14
X5.8722Y-2.8243
X6.6218Y-3.4676
X7.3714Y-1.9684
X7.3714Y-2.718
X7.3714Y-4.9794
X6.6218Y-4.2172
X8.8706Y-4.4046
X6.6218Y-5.0731
X8.121Y-2.8117
X5.1226Y-3.655
X5.1226Y-2.9054
X5.8722Y-3.5613
X6.6218Y-1.9684
X8.121Y-2.0621
X5.8722Y-4.3109
X4.6Y-5.433
X8.8706Y-2.1558
X7.3714Y-3.4676
X8.8706Y-2.9054
T6
G00X3.5743Y-1.9568
M15
G01X3.5743Y-1.9371
M16
G05
G00X3.5743Y-2.0749
M15
G01X3.5743Y-2.0552
M16
G05
G00X3.5743Y-2.2324
M15
G01X3.5743Y-2.2127
M16
G05
G00X3.6432Y-2.2914
M15
G01X3.6432Y-2.2717
M16
G05
G00X3.7397Y-2.2914
M15
G01X3.7397Y-2.2717
M16
G05
G00X3.8086Y-1.9568
M15
G01X3.8086Y-1.9371
M16
G05
G00X3.8086Y-2.0749
M15
G01X3.8086Y-2.0552
M16
G05
G00X3.8086Y-2.2324
M15
G01X3.8086Y-2.2127
M16
G05
T8
G00X4.0731Y-4.5553
M15
G01X4.0731Y-4.5041
M16
G05
G00X4.5141Y-4.5553
M15
G01X4.5141Y-4.5041
M16
G05
T0
M30
