G04 #@! TF.GenerationSoftware,KiCad,Pcbnew,5.99.0-unknown-4920692bcd~125~ubuntu20.04.1*
G04 #@! TF.CreationDate,2021-04-21T16:02:23+01:00*
G04 #@! TF.ProjectId,grandiceps-rev2,6772616e-6469-4636-9570-732d72657632,rev?*
G04 #@! TF.SameCoordinates,Original*
G04 #@! TF.FileFunction,Legend,Top*
G04 #@! TF.FilePolarity,Positive*
%FSLAX46Y46*%
G04 Gerber Fmt 4.6, Leading zero omitted, Abs format (unit mm)*
G04 Created by KiCad (PCBNEW 5.99.0-unknown-4920692bcd~125~ubuntu20.04.1) date 2021-04-21 16:02:23*
%MOMM*%
%LPD*%
G01*
G04 APERTURE LIST*
%ADD10C,0.150000*%
%ADD11C,0.120000*%
%ADD12C,0.010000*%
%ADD13C,1.397000*%
G04 APERTURE END LIST*
D10*
X109449095Y-52200180D02*
X109449095Y-53009704D01*
X109496714Y-53104942D01*
X109544333Y-53152561D01*
X109639571Y-53200180D01*
X109830047Y-53200180D01*
X109925285Y-53152561D01*
X109972904Y-53104942D01*
X110020523Y-53009704D01*
X110020523Y-52200180D01*
X111020523Y-53200180D02*
X110449095Y-53200180D01*
X110734809Y-53200180D02*
X110734809Y-52200180D01*
X110639571Y-52343038D01*
X110544333Y-52438276D01*
X110449095Y-52485895D01*
X99512380Y-55284666D02*
X99036190Y-55618000D01*
X99512380Y-55856095D02*
X98512380Y-55856095D01*
X98512380Y-55475142D01*
X98560000Y-55379904D01*
X98607619Y-55332285D01*
X98702857Y-55284666D01*
X98845714Y-55284666D01*
X98940952Y-55332285D01*
X98988571Y-55379904D01*
X99036190Y-55475142D01*
X99036190Y-55856095D01*
X99512380Y-54332285D02*
X99512380Y-54903714D01*
X99512380Y-54618000D02*
X98512380Y-54618000D01*
X98655238Y-54713238D01*
X98750476Y-54808476D01*
X98798095Y-54903714D01*
X225353714Y-128920380D02*
X225353714Y-127920380D01*
X225591809Y-127920380D01*
X225734666Y-127968000D01*
X225829904Y-128063238D01*
X225877523Y-128158476D01*
X225925142Y-128348952D01*
X225925142Y-128491809D01*
X225877523Y-128682285D01*
X225829904Y-128777523D01*
X225734666Y-128872761D01*
X225591809Y-128920380D01*
X225353714Y-128920380D01*
X226782285Y-128253714D02*
X226782285Y-128920380D01*
X226544190Y-127872761D02*
X226306095Y-128587047D01*
X226925142Y-128587047D01*
X227210857Y-127920380D02*
X227829904Y-127920380D01*
X227496571Y-128301333D01*
X227639428Y-128301333D01*
X227734666Y-128348952D01*
X227782285Y-128396571D01*
X227829904Y-128491809D01*
X227829904Y-128729904D01*
X227782285Y-128825142D01*
X227734666Y-128872761D01*
X227639428Y-128920380D01*
X227353714Y-128920380D01*
X227258476Y-128872761D01*
X227210857Y-128825142D01*
X231003714Y-127020380D02*
X230432285Y-127020380D01*
X230718000Y-127020380D02*
X230718000Y-126020380D01*
X230622761Y-126163238D01*
X230527523Y-126258476D01*
X230432285Y-126306095D01*
X91186380Y-80208285D02*
X90186380Y-80208285D01*
X90186380Y-79970190D01*
X90234000Y-79827333D01*
X90329238Y-79732095D01*
X90424476Y-79684476D01*
X90614952Y-79636857D01*
X90757809Y-79636857D01*
X90948285Y-79684476D01*
X91043523Y-79732095D01*
X91138761Y-79827333D01*
X91186380Y-79970190D01*
X91186380Y-80208285D01*
X90186380Y-79303523D02*
X90186380Y-78684476D01*
X90567333Y-79017809D01*
X90567333Y-78874952D01*
X90614952Y-78779714D01*
X90662571Y-78732095D01*
X90757809Y-78684476D01*
X90995904Y-78684476D01*
X91091142Y-78732095D01*
X91138761Y-78779714D01*
X91186380Y-78874952D01*
X91186380Y-79160666D01*
X91138761Y-79255904D01*
X91091142Y-79303523D01*
X91186380Y-78208285D02*
X91186380Y-78017809D01*
X91138761Y-77922571D01*
X91091142Y-77874952D01*
X90948285Y-77779714D01*
X90757809Y-77732095D01*
X90376857Y-77732095D01*
X90281619Y-77779714D01*
X90234000Y-77827333D01*
X90186380Y-77922571D01*
X90186380Y-78113047D01*
X90234000Y-78208285D01*
X90281619Y-78255904D01*
X90376857Y-78303523D01*
X90614952Y-78303523D01*
X90710190Y-78255904D01*
X90757809Y-78208285D01*
X90805428Y-78113047D01*
X90805428Y-77922571D01*
X90757809Y-77827333D01*
X90710190Y-77779714D01*
X90614952Y-77732095D01*
X93086380Y-82858285D02*
X93086380Y-83429714D01*
X93086380Y-83144000D02*
X92086380Y-83144000D01*
X92229238Y-83239238D01*
X92324476Y-83334476D01*
X92372095Y-83429714D01*
X231449714Y-86502380D02*
X231449714Y-85502380D01*
X231687809Y-85502380D01*
X231830666Y-85550000D01*
X231925904Y-85645238D01*
X231973523Y-85740476D01*
X232021142Y-85930952D01*
X232021142Y-86073809D01*
X231973523Y-86264285D01*
X231925904Y-86359523D01*
X231830666Y-86454761D01*
X231687809Y-86502380D01*
X231449714Y-86502380D01*
X232878285Y-85835714D02*
X232878285Y-86502380D01*
X232640190Y-85454761D02*
X232402095Y-86169047D01*
X233021142Y-86169047D01*
X233830666Y-85835714D02*
X233830666Y-86502380D01*
X233592571Y-85454761D02*
X233354476Y-86169047D01*
X233973523Y-86169047D01*
X237099714Y-84602380D02*
X236528285Y-84602380D01*
X236814000Y-84602380D02*
X236814000Y-83602380D01*
X236718761Y-83745238D01*
X236623523Y-83840476D01*
X236528285Y-83888095D01*
X215701714Y-49164380D02*
X215701714Y-48164380D01*
X215939809Y-48164380D01*
X216082666Y-48212000D01*
X216177904Y-48307238D01*
X216225523Y-48402476D01*
X216273142Y-48592952D01*
X216273142Y-48735809D01*
X216225523Y-48926285D01*
X216177904Y-49021523D01*
X216082666Y-49116761D01*
X215939809Y-49164380D01*
X215701714Y-49164380D01*
X217130285Y-48497714D02*
X217130285Y-49164380D01*
X216892190Y-48116761D02*
X216654095Y-48831047D01*
X217273142Y-48831047D01*
X218130285Y-48164380D02*
X217654095Y-48164380D01*
X217606476Y-48640571D01*
X217654095Y-48592952D01*
X217749333Y-48545333D01*
X217987428Y-48545333D01*
X218082666Y-48592952D01*
X218130285Y-48640571D01*
X218177904Y-48735809D01*
X218177904Y-48973904D01*
X218130285Y-49069142D01*
X218082666Y-49116761D01*
X217987428Y-49164380D01*
X217749333Y-49164380D01*
X217654095Y-49116761D01*
X217606476Y-49069142D01*
X221351714Y-47264380D02*
X220780285Y-47264380D01*
X221066000Y-47264380D02*
X221066000Y-46264380D01*
X220970761Y-46407238D01*
X220875523Y-46502476D01*
X220780285Y-46550095D01*
X137723714Y-42164380D02*
X137723714Y-41164380D01*
X137961809Y-41164380D01*
X138104666Y-41212000D01*
X138199904Y-41307238D01*
X138247523Y-41402476D01*
X138295142Y-41592952D01*
X138295142Y-41735809D01*
X138247523Y-41926285D01*
X138199904Y-42021523D01*
X138104666Y-42116761D01*
X137961809Y-42164380D01*
X137723714Y-42164380D01*
X139152285Y-41497714D02*
X139152285Y-42164380D01*
X138914190Y-41116761D02*
X138676095Y-41831047D01*
X139295142Y-41831047D01*
X140104666Y-41164380D02*
X139914190Y-41164380D01*
X139818952Y-41212000D01*
X139771333Y-41259619D01*
X139676095Y-41402476D01*
X139628476Y-41592952D01*
X139628476Y-41973904D01*
X139676095Y-42069142D01*
X139723714Y-42116761D01*
X139818952Y-42164380D01*
X140009428Y-42164380D01*
X140104666Y-42116761D01*
X140152285Y-42069142D01*
X140199904Y-41973904D01*
X140199904Y-41735809D01*
X140152285Y-41640571D01*
X140104666Y-41592952D01*
X140009428Y-41545333D01*
X139818952Y-41545333D01*
X139723714Y-41592952D01*
X139676095Y-41640571D01*
X139628476Y-41735809D01*
X135073714Y-44064380D02*
X134502285Y-44064380D01*
X134788000Y-44064380D02*
X134788000Y-43064380D01*
X134692761Y-43207238D01*
X134597523Y-43302476D01*
X134502285Y-43350095D01*
X133659714Y-145430380D02*
X133659714Y-144430380D01*
X133897809Y-144430380D01*
X134040666Y-144478000D01*
X134135904Y-144573238D01*
X134183523Y-144668476D01*
X134231142Y-144858952D01*
X134231142Y-145001809D01*
X134183523Y-145192285D01*
X134135904Y-145287523D01*
X134040666Y-145382761D01*
X133897809Y-145430380D01*
X133659714Y-145430380D01*
X135088285Y-144763714D02*
X135088285Y-145430380D01*
X134850190Y-144382761D02*
X134612095Y-145097047D01*
X135231142Y-145097047D01*
X136135904Y-145430380D02*
X135564476Y-145430380D01*
X135850190Y-145430380D02*
X135850190Y-144430380D01*
X135754952Y-144573238D01*
X135659714Y-144668476D01*
X135564476Y-144716095D01*
X139309714Y-143530380D02*
X138738285Y-143530380D01*
X139024000Y-143530380D02*
X139024000Y-142530380D01*
X138928761Y-142673238D01*
X138833523Y-142768476D01*
X138738285Y-142816095D01*
X107005619Y-103846380D02*
X107196095Y-103846380D01*
X107291333Y-103894000D01*
X107386571Y-103989238D01*
X107434190Y-104179714D01*
X107434190Y-104513047D01*
X107386571Y-104703523D01*
X107291333Y-104798761D01*
X107196095Y-104846380D01*
X107005619Y-104846380D01*
X106910380Y-104798761D01*
X106815142Y-104703523D01*
X106767523Y-104513047D01*
X106767523Y-104179714D01*
X106815142Y-103989238D01*
X106910380Y-103894000D01*
X107005619Y-103846380D01*
X108338952Y-104846380D02*
X107862761Y-104846380D01*
X107862761Y-103846380D01*
X108672285Y-104322571D02*
X109005619Y-104322571D01*
X109148476Y-104846380D02*
X108672285Y-104846380D01*
X108672285Y-103846380D01*
X109148476Y-103846380D01*
X109577047Y-104846380D02*
X109577047Y-103846380D01*
X109815142Y-103846380D01*
X109958000Y-103894000D01*
X110053238Y-103989238D01*
X110100857Y-104084476D01*
X110148476Y-104274952D01*
X110148476Y-104417809D01*
X110100857Y-104608285D01*
X110053238Y-104703523D01*
X109958000Y-104798761D01*
X109815142Y-104846380D01*
X109577047Y-104846380D01*
X177347714Y-139334380D02*
X177347714Y-138334380D01*
X177585809Y-138334380D01*
X177728666Y-138382000D01*
X177823904Y-138477238D01*
X177871523Y-138572476D01*
X177919142Y-138762952D01*
X177919142Y-138905809D01*
X177871523Y-139096285D01*
X177823904Y-139191523D01*
X177728666Y-139286761D01*
X177585809Y-139334380D01*
X177347714Y-139334380D01*
X178776285Y-138667714D02*
X178776285Y-139334380D01*
X178538190Y-138286761D02*
X178300095Y-139001047D01*
X178919142Y-139001047D01*
X179252476Y-138429619D02*
X179300095Y-138382000D01*
X179395333Y-138334380D01*
X179633428Y-138334380D01*
X179728666Y-138382000D01*
X179776285Y-138429619D01*
X179823904Y-138524857D01*
X179823904Y-138620095D01*
X179776285Y-138762952D01*
X179204857Y-139334380D01*
X179823904Y-139334380D01*
X182997714Y-137434380D02*
X182426285Y-137434380D01*
X182712000Y-137434380D02*
X182712000Y-136434380D01*
X182616761Y-136577238D01*
X182521523Y-136672476D01*
X182426285Y-136720095D01*
X98995095Y-95747380D02*
X98995095Y-96556904D01*
X99042714Y-96652142D01*
X99090333Y-96699761D01*
X99185571Y-96747380D01*
X99376047Y-96747380D01*
X99471285Y-96699761D01*
X99518904Y-96652142D01*
X99566523Y-96556904D01*
X99566523Y-95747380D01*
X99995095Y-95842619D02*
X100042714Y-95795000D01*
X100137952Y-95747380D01*
X100376047Y-95747380D01*
X100471285Y-95795000D01*
X100518904Y-95842619D01*
X100566523Y-95937857D01*
X100566523Y-96033095D01*
X100518904Y-96175952D01*
X99947476Y-96747380D01*
X100566523Y-96747380D01*
X93664380Y-72207333D02*
X94378666Y-72207333D01*
X94521523Y-72254952D01*
X94616761Y-72350190D01*
X94664380Y-72493047D01*
X94664380Y-72588285D01*
X94664380Y-71731142D02*
X93664380Y-71731142D01*
X93664380Y-71350190D01*
X93712000Y-71254952D01*
X93759619Y-71207333D01*
X93854857Y-71159714D01*
X93997714Y-71159714D01*
X94092952Y-71207333D01*
X94140571Y-71254952D01*
X94188190Y-71350190D01*
X94188190Y-71731142D01*
X94664380Y-70207333D02*
X94664380Y-70778761D01*
X94664380Y-70493047D02*
X93664380Y-70493047D01*
X93807238Y-70588285D01*
X93902476Y-70683523D01*
X93950095Y-70778761D01*
X100584380Y-139136285D02*
X99584380Y-139136285D01*
X99584380Y-138898190D01*
X99632000Y-138755333D01*
X99727238Y-138660095D01*
X99822476Y-138612476D01*
X100012952Y-138564857D01*
X100155809Y-138564857D01*
X100346285Y-138612476D01*
X100441523Y-138660095D01*
X100536761Y-138755333D01*
X100584380Y-138898190D01*
X100584380Y-139136285D01*
X99917714Y-137707714D02*
X100584380Y-137707714D01*
X99536761Y-137945809D02*
X100251047Y-138183904D01*
X100251047Y-137564857D01*
X99584380Y-136993428D02*
X99584380Y-136898190D01*
X99632000Y-136802952D01*
X99679619Y-136755333D01*
X99774857Y-136707714D01*
X99965333Y-136660095D01*
X100203428Y-136660095D01*
X100393904Y-136707714D01*
X100489142Y-136755333D01*
X100536761Y-136802952D01*
X100584380Y-136898190D01*
X100584380Y-136993428D01*
X100536761Y-137088666D01*
X100489142Y-137136285D01*
X100393904Y-137183904D01*
X100203428Y-137231523D01*
X99965333Y-137231523D01*
X99774857Y-137183904D01*
X99679619Y-137136285D01*
X99632000Y-137088666D01*
X99584380Y-136993428D01*
X102484380Y-141786285D02*
X102484380Y-142357714D01*
X102484380Y-142072000D02*
X101484380Y-142072000D01*
X101627238Y-142167238D01*
X101722476Y-142262476D01*
X101770095Y-142357714D01*
X91951195Y-52017680D02*
X92522623Y-52017680D01*
X92236909Y-53017680D02*
X92236909Y-52017680D01*
X93427385Y-53017680D02*
X93094052Y-52541490D01*
X92855957Y-53017680D02*
X92855957Y-52017680D01*
X93236909Y-52017680D01*
X93332147Y-52065300D01*
X93379766Y-52112919D01*
X93427385Y-52208157D01*
X93427385Y-52351014D01*
X93379766Y-52446252D01*
X93332147Y-52493871D01*
X93236909Y-52541490D01*
X92855957Y-52541490D01*
X94427385Y-53017680D02*
X94094052Y-52541490D01*
X93855957Y-53017680D02*
X93855957Y-52017680D01*
X94236909Y-52017680D01*
X94332147Y-52065300D01*
X94379766Y-52112919D01*
X94427385Y-52208157D01*
X94427385Y-52351014D01*
X94379766Y-52446252D01*
X94332147Y-52493871D01*
X94236909Y-52541490D01*
X93855957Y-52541490D01*
X94808338Y-52970061D02*
X94951195Y-53017680D01*
X95189290Y-53017680D01*
X95284528Y-52970061D01*
X95332147Y-52922442D01*
X95379766Y-52827204D01*
X95379766Y-52731966D01*
X95332147Y-52636728D01*
X95284528Y-52589109D01*
X95189290Y-52541490D01*
X94998814Y-52493871D01*
X94903576Y-52446252D01*
X94855957Y-52398633D01*
X94808338Y-52303395D01*
X94808338Y-52208157D01*
X94855957Y-52112919D01*
X94903576Y-52065300D01*
X94998814Y-52017680D01*
X95236909Y-52017680D01*
X95379766Y-52065300D01*
D11*
X100686000Y-97967800D02*
X100686000Y-45897800D01*
X104496000Y-56057800D02*
X115926000Y-56057800D01*
X119736000Y-97967800D02*
X100686000Y-97967800D01*
X115926000Y-56057800D02*
X115926000Y-45897800D01*
X100686000Y-45897800D02*
X119736000Y-45897800D01*
X119736000Y-45897800D02*
X119736000Y-97967800D01*
X104496000Y-45897800D02*
X104496000Y-56057800D01*
X99980000Y-57241200D02*
X99980000Y-53401200D01*
X98140000Y-57241200D02*
X98140000Y-53401200D01*
X222918000Y-122218000D02*
X222918000Y-123368000D01*
X230218000Y-127718000D02*
X222918000Y-127718000D01*
X230218000Y-122218000D02*
X222918000Y-122218000D01*
X96984000Y-75344000D02*
X95834000Y-75344000D01*
X91484000Y-82644000D02*
X91484000Y-75344000D01*
X96984000Y-82644000D02*
X96984000Y-75344000D01*
X236314000Y-79800000D02*
X229014000Y-79800000D01*
X236314000Y-85300000D02*
X229014000Y-85300000D01*
X229014000Y-79800000D02*
X229014000Y-80950000D01*
X106410000Y-98534000D02*
X106410000Y-101334000D01*
X104410000Y-98534000D02*
X106410000Y-98534000D01*
X106410000Y-101334000D02*
X104410000Y-101334000D01*
X104410000Y-101334000D02*
X104410000Y-98534000D01*
X213266000Y-42462000D02*
X213266000Y-43612000D01*
X220566000Y-42462000D02*
X213266000Y-42462000D01*
X220566000Y-47962000D02*
X213266000Y-47962000D01*
X108950000Y-98534000D02*
X108950000Y-101334000D01*
X108950000Y-101334000D02*
X106950000Y-101334000D01*
X106950000Y-98534000D02*
X108950000Y-98534000D01*
X106950000Y-101334000D02*
X106950000Y-98534000D01*
X135288000Y-42462000D02*
X142588000Y-42462000D01*
X135288000Y-47962000D02*
X142588000Y-47962000D01*
X142588000Y-47962000D02*
X142588000Y-46812000D01*
D12*
X94102313Y-113656021D02*
X94117659Y-113671943D01*
X94117659Y-113671943D02*
X94210362Y-113811475D01*
X94210362Y-113811475D02*
X94269583Y-113998411D01*
X94269583Y-113998411D02*
X94289792Y-114128622D01*
X94289792Y-114128622D02*
X94310330Y-114240932D01*
X94310330Y-114240932D02*
X94346685Y-114383247D01*
X94346685Y-114383247D02*
X94379320Y-114489106D01*
X94379320Y-114489106D02*
X94429126Y-114653042D01*
X94429126Y-114653042D02*
X94446779Y-114774598D01*
X94446779Y-114774598D02*
X94429117Y-114875714D01*
X94429117Y-114875714D02*
X94372980Y-114978334D01*
X94372980Y-114978334D02*
X94293972Y-115081510D01*
X94293972Y-115081510D02*
X94215524Y-115182283D01*
X94215524Y-115182283D02*
X94158782Y-115263674D01*
X94158782Y-115263674D02*
X94135320Y-115309006D01*
X94135320Y-115309006D02*
X94135222Y-115310317D01*
X94135222Y-115310317D02*
X94117321Y-115342298D01*
X94117321Y-115342298D02*
X94066586Y-115316331D01*
X94066586Y-115316331D02*
X94002931Y-115252393D01*
X94002931Y-115252393D02*
X93936795Y-115129934D01*
X93936795Y-115129934D02*
X93923556Y-115042803D01*
X93923556Y-115042803D02*
X93911733Y-114959046D01*
X93911733Y-114959046D02*
X93879917Y-114830090D01*
X93879917Y-114830090D02*
X93833582Y-114676533D01*
X93833582Y-114676533D02*
X93800094Y-114578369D01*
X93800094Y-114578369D02*
X93723429Y-114337425D01*
X93723429Y-114337425D02*
X93684918Y-114144016D01*
X93684918Y-114144016D02*
X93683862Y-113986784D01*
X93683862Y-113986784D02*
X93719562Y-113854369D01*
X93719562Y-113854369D02*
X93751764Y-113792624D01*
X93751764Y-113792624D02*
X93846130Y-113660826D01*
X93846130Y-113660826D02*
X93931532Y-113595603D01*
X93931532Y-113595603D02*
X94014687Y-113594740D01*
X94014687Y-113594740D02*
X94102313Y-113656021D01*
X94102313Y-113656021D02*
X94102313Y-113656021D01*
G36*
X94102313Y-113656021D02*
G01*
X94117659Y-113671943D01*
X94210362Y-113811475D01*
X94269583Y-113998411D01*
X94289792Y-114128622D01*
X94310330Y-114240932D01*
X94346685Y-114383247D01*
X94379320Y-114489106D01*
X94429126Y-114653042D01*
X94446779Y-114774598D01*
X94429117Y-114875714D01*
X94372980Y-114978334D01*
X94293972Y-115081510D01*
X94215524Y-115182283D01*
X94158782Y-115263674D01*
X94135320Y-115309006D01*
X94135222Y-115310317D01*
X94117321Y-115342298D01*
X94066586Y-115316331D01*
X94002931Y-115252393D01*
X93936795Y-115129934D01*
X93923556Y-115042803D01*
X93911733Y-114959046D01*
X93879917Y-114830090D01*
X93833582Y-114676533D01*
X93800094Y-114578369D01*
X93723429Y-114337425D01*
X93684918Y-114144016D01*
X93683862Y-113986784D01*
X93719562Y-113854369D01*
X93751764Y-113792624D01*
X93846130Y-113660826D01*
X93931532Y-113595603D01*
X94014687Y-113594740D01*
X94102313Y-113656021D01*
G37*
X94102313Y-113656021D02*
X94117659Y-113671943D01*
X94210362Y-113811475D01*
X94269583Y-113998411D01*
X94289792Y-114128622D01*
X94310330Y-114240932D01*
X94346685Y-114383247D01*
X94379320Y-114489106D01*
X94429126Y-114653042D01*
X94446779Y-114774598D01*
X94429117Y-114875714D01*
X94372980Y-114978334D01*
X94293972Y-115081510D01*
X94215524Y-115182283D01*
X94158782Y-115263674D01*
X94135320Y-115309006D01*
X94135222Y-115310317D01*
X94117321Y-115342298D01*
X94066586Y-115316331D01*
X94002931Y-115252393D01*
X93936795Y-115129934D01*
X93923556Y-115042803D01*
X93911733Y-114959046D01*
X93879917Y-114830090D01*
X93833582Y-114676533D01*
X93800094Y-114578369D01*
X93723429Y-114337425D01*
X93684918Y-114144016D01*
X93683862Y-113986784D01*
X93719562Y-113854369D01*
X93751764Y-113792624D01*
X93846130Y-113660826D01*
X93931532Y-113595603D01*
X94014687Y-113594740D01*
X94102313Y-113656021D01*
X95150176Y-112033443D02*
X95158279Y-112128451D01*
X95158279Y-112128451D02*
X95119316Y-112275516D01*
X95119316Y-112275516D02*
X95033288Y-112474512D01*
X95033288Y-112474512D02*
X94900197Y-112725313D01*
X94900197Y-112725313D02*
X94837670Y-112833516D01*
X94837670Y-112833516D02*
X94730139Y-113046062D01*
X94730139Y-113046062D02*
X94626451Y-113306718D01*
X94626451Y-113306718D02*
X94535115Y-113593194D01*
X94535115Y-113593194D02*
X94505511Y-113703806D01*
X94505511Y-113703806D02*
X94470814Y-113833998D01*
X94470814Y-113833998D02*
X94442802Y-113926083D01*
X94442802Y-113926083D02*
X94425251Y-113968354D01*
X94425251Y-113968354D02*
X94421304Y-113964824D01*
X94421304Y-113964824D02*
X94397718Y-113883579D01*
X94397718Y-113883579D02*
X94343966Y-113770978D01*
X94343966Y-113770978D02*
X94273749Y-113650923D01*
X94273749Y-113650923D02*
X94200770Y-113547317D01*
X94200770Y-113547317D02*
X94151298Y-113493777D01*
X94151298Y-113493777D02*
X94103334Y-113448577D01*
X94103334Y-113448577D02*
X94085064Y-113406469D01*
X94085064Y-113406469D02*
X94093881Y-113343540D01*
X94093881Y-113343540D02*
X94124183Y-113245124D01*
X94124183Y-113245124D02*
X94251326Y-112888033D01*
X94251326Y-112888033D02*
X94380971Y-112597225D01*
X94380971Y-112597225D02*
X94515714Y-112368429D01*
X94515714Y-112368429D02*
X94658152Y-112197374D01*
X94658152Y-112197374D02*
X94810882Y-112079788D01*
X94810882Y-112079788D02*
X94843465Y-112062018D01*
X94843465Y-112062018D02*
X94992770Y-112000101D01*
X94992770Y-112000101D02*
X95095007Y-111990618D01*
X95095007Y-111990618D02*
X95150176Y-112033443D01*
X95150176Y-112033443D02*
X95150176Y-112033443D01*
G36*
X95150176Y-112033443D02*
G01*
X95158279Y-112128451D01*
X95119316Y-112275516D01*
X95033288Y-112474512D01*
X94900197Y-112725313D01*
X94837670Y-112833516D01*
X94730139Y-113046062D01*
X94626451Y-113306718D01*
X94535115Y-113593194D01*
X94505511Y-113703806D01*
X94470814Y-113833998D01*
X94442802Y-113926083D01*
X94425251Y-113968354D01*
X94421304Y-113964824D01*
X94397718Y-113883579D01*
X94343966Y-113770978D01*
X94273749Y-113650923D01*
X94200770Y-113547317D01*
X94151298Y-113493777D01*
X94103334Y-113448577D01*
X94085064Y-113406469D01*
X94093881Y-113343540D01*
X94124183Y-113245124D01*
X94251326Y-112888033D01*
X94380971Y-112597225D01*
X94515714Y-112368429D01*
X94658152Y-112197374D01*
X94810882Y-112079788D01*
X94843465Y-112062018D01*
X94992770Y-112000101D01*
X95095007Y-111990618D01*
X95150176Y-112033443D01*
G37*
X95150176Y-112033443D02*
X95158279Y-112128451D01*
X95119316Y-112275516D01*
X95033288Y-112474512D01*
X94900197Y-112725313D01*
X94837670Y-112833516D01*
X94730139Y-113046062D01*
X94626451Y-113306718D01*
X94535115Y-113593194D01*
X94505511Y-113703806D01*
X94470814Y-113833998D01*
X94442802Y-113926083D01*
X94425251Y-113968354D01*
X94421304Y-113964824D01*
X94397718Y-113883579D01*
X94343966Y-113770978D01*
X94273749Y-113650923D01*
X94200770Y-113547317D01*
X94151298Y-113493777D01*
X94103334Y-113448577D01*
X94085064Y-113406469D01*
X94093881Y-113343540D01*
X94124183Y-113245124D01*
X94251326Y-112888033D01*
X94380971Y-112597225D01*
X94515714Y-112368429D01*
X94658152Y-112197374D01*
X94810882Y-112079788D01*
X94843465Y-112062018D01*
X94992770Y-112000101D01*
X95095007Y-111990618D01*
X95150176Y-112033443D01*
X94638085Y-115978693D02*
X94659478Y-115988660D01*
X94659478Y-115988660D02*
X94740176Y-116068634D01*
X94740176Y-116068634D02*
X94798801Y-116208189D01*
X94798801Y-116208189D02*
X94832748Y-116399089D01*
X94832748Y-116399089D02*
X94840443Y-116561306D01*
X94840443Y-116561306D02*
X94846542Y-116710957D01*
X94846542Y-116710957D02*
X94861693Y-116853949D01*
X94861693Y-116853949D02*
X94879693Y-116946997D01*
X94879693Y-116946997D02*
X94908140Y-117067643D01*
X94908140Y-117067643D02*
X94927286Y-117181157D01*
X94927286Y-117181157D02*
X94928675Y-117193941D01*
X94928675Y-117193941D02*
X94941788Y-117300931D01*
X94941788Y-117300931D02*
X94960847Y-117427313D01*
X94960847Y-117427313D02*
X94965021Y-117452069D01*
X94965021Y-117452069D02*
X94976662Y-117542933D01*
X94976662Y-117542933D02*
X94975662Y-117596193D01*
X94975662Y-117596193D02*
X94971258Y-117602000D01*
X94971258Y-117602000D02*
X94942335Y-117575235D01*
X94942335Y-117575235D02*
X94888692Y-117506325D01*
X94888692Y-117506325D02*
X94843935Y-117442457D01*
X94843935Y-117442457D02*
X94704866Y-117206908D01*
X94704866Y-117206908D02*
X94602595Y-116971942D01*
X94602595Y-116971942D02*
X94545900Y-116758110D01*
X94545900Y-116758110D02*
X94542945Y-116737694D01*
X94542945Y-116737694D02*
X94511386Y-116463582D01*
X94511386Y-116463582D02*
X94497966Y-116253830D01*
X94497966Y-116253830D02*
X94503306Y-116104451D01*
X94503306Y-116104451D02*
X94528025Y-116011459D01*
X94528025Y-116011459D02*
X94572745Y-115970869D01*
X94572745Y-115970869D02*
X94638085Y-115978693D01*
X94638085Y-115978693D02*
X94638085Y-115978693D01*
G36*
X94638085Y-115978693D02*
G01*
X94659478Y-115988660D01*
X94740176Y-116068634D01*
X94798801Y-116208189D01*
X94832748Y-116399089D01*
X94840443Y-116561306D01*
X94846542Y-116710957D01*
X94861693Y-116853949D01*
X94879693Y-116946997D01*
X94908140Y-117067643D01*
X94927286Y-117181157D01*
X94928675Y-117193941D01*
X94941788Y-117300931D01*
X94960847Y-117427313D01*
X94965021Y-117452069D01*
X94976662Y-117542933D01*
X94975662Y-117596193D01*
X94971258Y-117602000D01*
X94942335Y-117575235D01*
X94888692Y-117506325D01*
X94843935Y-117442457D01*
X94704866Y-117206908D01*
X94602595Y-116971942D01*
X94545900Y-116758110D01*
X94542945Y-116737694D01*
X94511386Y-116463582D01*
X94497966Y-116253830D01*
X94503306Y-116104451D01*
X94528025Y-116011459D01*
X94572745Y-115970869D01*
X94638085Y-115978693D01*
G37*
X94638085Y-115978693D02*
X94659478Y-115988660D01*
X94740176Y-116068634D01*
X94798801Y-116208189D01*
X94832748Y-116399089D01*
X94840443Y-116561306D01*
X94846542Y-116710957D01*
X94861693Y-116853949D01*
X94879693Y-116946997D01*
X94908140Y-117067643D01*
X94927286Y-117181157D01*
X94928675Y-117193941D01*
X94941788Y-117300931D01*
X94960847Y-117427313D01*
X94965021Y-117452069D01*
X94976662Y-117542933D01*
X94975662Y-117596193D01*
X94971258Y-117602000D01*
X94942335Y-117575235D01*
X94888692Y-117506325D01*
X94843935Y-117442457D01*
X94704866Y-117206908D01*
X94602595Y-116971942D01*
X94545900Y-116758110D01*
X94542945Y-116737694D01*
X94511386Y-116463582D01*
X94497966Y-116253830D01*
X94503306Y-116104451D01*
X94528025Y-116011459D01*
X94572745Y-115970869D01*
X94638085Y-115978693D01*
X96424508Y-112135946D02*
X96520306Y-112194729D01*
X96520306Y-112194729D02*
X96613556Y-112284680D01*
X96613556Y-112284680D02*
X96675985Y-112372464D01*
X96675985Y-112372464D02*
X96726469Y-112461323D01*
X96726469Y-112461323D02*
X96739659Y-112504740D01*
X96739659Y-112504740D02*
X96714555Y-112517778D01*
X96714555Y-112517778D02*
X96666403Y-112516470D01*
X96666403Y-112516470D02*
X96576848Y-112520262D01*
X96576848Y-112520262D02*
X96467771Y-112535915D01*
X96467771Y-112535915D02*
X96461293Y-112537200D01*
X96461293Y-112537200D02*
X96361593Y-112546217D01*
X96361593Y-112546217D02*
X96300512Y-112518898D01*
X96300512Y-112518898D02*
X96288950Y-112506509D01*
X96288950Y-112506509D02*
X96256824Y-112442622D01*
X96256824Y-112442622D02*
X96244132Y-112342432D01*
X96244132Y-112342432D02*
X96248080Y-112198058D01*
X96248080Y-112198058D02*
X96275768Y-112132464D01*
X96275768Y-112132464D02*
X96338786Y-112113475D01*
X96338786Y-112113475D02*
X96424508Y-112135946D01*
X96424508Y-112135946D02*
X96424508Y-112135946D01*
G36*
X96424508Y-112135946D02*
G01*
X96520306Y-112194729D01*
X96613556Y-112284680D01*
X96675985Y-112372464D01*
X96726469Y-112461323D01*
X96739659Y-112504740D01*
X96714555Y-112517778D01*
X96666403Y-112516470D01*
X96576848Y-112520262D01*
X96467771Y-112535915D01*
X96461293Y-112537200D01*
X96361593Y-112546217D01*
X96300512Y-112518898D01*
X96288950Y-112506509D01*
X96256824Y-112442622D01*
X96244132Y-112342432D01*
X96248080Y-112198058D01*
X96275768Y-112132464D01*
X96338786Y-112113475D01*
X96424508Y-112135946D01*
G37*
X96424508Y-112135946D02*
X96520306Y-112194729D01*
X96613556Y-112284680D01*
X96675985Y-112372464D01*
X96726469Y-112461323D01*
X96739659Y-112504740D01*
X96714555Y-112517778D01*
X96666403Y-112516470D01*
X96576848Y-112520262D01*
X96467771Y-112535915D01*
X96461293Y-112537200D01*
X96361593Y-112546217D01*
X96300512Y-112518898D01*
X96288950Y-112506509D01*
X96256824Y-112442622D01*
X96244132Y-112342432D01*
X96248080Y-112198058D01*
X96275768Y-112132464D01*
X96338786Y-112113475D01*
X96424508Y-112135946D01*
X95681750Y-115906582D02*
X95826960Y-115999708D01*
X95826960Y-115999708D02*
X95954352Y-116143084D01*
X95954352Y-116143084D02*
X95964545Y-116158278D01*
X95964545Y-116158278D02*
X96054727Y-116314377D01*
X96054727Y-116314377D02*
X96095665Y-116441464D01*
X96095665Y-116441464D02*
X96090187Y-116558134D01*
X96090187Y-116558134D02*
X96043592Y-116678172D01*
X96043592Y-116678172D02*
X95997923Y-116786033D01*
X95997923Y-116786033D02*
X95971939Y-116882950D01*
X95971939Y-116882950D02*
X95969667Y-116908358D01*
X95969667Y-116908358D02*
X95950560Y-116991605D01*
X95950560Y-116991605D02*
X95920545Y-117034406D01*
X95920545Y-117034406D02*
X95872063Y-117095485D01*
X95872063Y-117095485D02*
X95828557Y-117178663D01*
X95828557Y-117178663D02*
X95777755Y-117258739D01*
X95777755Y-117258739D02*
X95717791Y-117303704D01*
X95717791Y-117303704D02*
X95603091Y-117370861D01*
X95603091Y-117370861D02*
X95499553Y-117485196D01*
X95499553Y-117485196D02*
X95428533Y-117621963D01*
X95428533Y-117621963D02*
X95382469Y-117727103D01*
X95382469Y-117727103D02*
X95337293Y-117762829D01*
X95337293Y-117762829D02*
X95287000Y-117729942D01*
X95287000Y-117729942D02*
X95235290Y-117647798D01*
X95235290Y-117647798D02*
X95152327Y-117488498D01*
X95152327Y-117488498D02*
X95095389Y-117365725D01*
X95095389Y-117365725D02*
X95054968Y-117255051D01*
X95054968Y-117255051D02*
X95021558Y-117132047D01*
X95021558Y-117132047D02*
X95002695Y-117050147D01*
X95002695Y-117050147D02*
X94965765Y-116865214D01*
X94965765Y-116865214D02*
X94952080Y-116724768D01*
X94952080Y-116724768D02*
X94963874Y-116605941D01*
X94963874Y-116605941D02*
X95003385Y-116485866D01*
X95003385Y-116485866D02*
X95071770Y-116343749D01*
X95071770Y-116343749D02*
X95177161Y-116168664D01*
X95177161Y-116168664D02*
X95291788Y-116025377D01*
X95291788Y-116025377D02*
X95405385Y-115924349D01*
X95405385Y-115924349D02*
X95507685Y-115876043D01*
X95507685Y-115876043D02*
X95533375Y-115873389D01*
X95533375Y-115873389D02*
X95681750Y-115906582D01*
X95681750Y-115906582D02*
X95681750Y-115906582D01*
G36*
X95681750Y-115906582D02*
G01*
X95826960Y-115999708D01*
X95954352Y-116143084D01*
X95964545Y-116158278D01*
X96054727Y-116314377D01*
X96095665Y-116441464D01*
X96090187Y-116558134D01*
X96043592Y-116678172D01*
X95997923Y-116786033D01*
X95971939Y-116882950D01*
X95969667Y-116908358D01*
X95950560Y-116991605D01*
X95920545Y-117034406D01*
X95872063Y-117095485D01*
X95828557Y-117178663D01*
X95777755Y-117258739D01*
X95717791Y-117303704D01*
X95603091Y-117370861D01*
X95499553Y-117485196D01*
X95428533Y-117621963D01*
X95382469Y-117727103D01*
X95337293Y-117762829D01*
X95287000Y-117729942D01*
X95235290Y-117647798D01*
X95152327Y-117488498D01*
X95095389Y-117365725D01*
X95054968Y-117255051D01*
X95021558Y-117132047D01*
X95002695Y-117050147D01*
X94965765Y-116865214D01*
X94952080Y-116724768D01*
X94963874Y-116605941D01*
X95003385Y-116485866D01*
X95071770Y-116343749D01*
X95177161Y-116168664D01*
X95291788Y-116025377D01*
X95405385Y-115924349D01*
X95507685Y-115876043D01*
X95533375Y-115873389D01*
X95681750Y-115906582D01*
G37*
X95681750Y-115906582D02*
X95826960Y-115999708D01*
X95954352Y-116143084D01*
X95964545Y-116158278D01*
X96054727Y-116314377D01*
X96095665Y-116441464D01*
X96090187Y-116558134D01*
X96043592Y-116678172D01*
X95997923Y-116786033D01*
X95971939Y-116882950D01*
X95969667Y-116908358D01*
X95950560Y-116991605D01*
X95920545Y-117034406D01*
X95872063Y-117095485D01*
X95828557Y-117178663D01*
X95777755Y-117258739D01*
X95717791Y-117303704D01*
X95603091Y-117370861D01*
X95499553Y-117485196D01*
X95428533Y-117621963D01*
X95382469Y-117727103D01*
X95337293Y-117762829D01*
X95287000Y-117729942D01*
X95235290Y-117647798D01*
X95152327Y-117488498D01*
X95095389Y-117365725D01*
X95054968Y-117255051D01*
X95021558Y-117132047D01*
X95002695Y-117050147D01*
X94965765Y-116865214D01*
X94952080Y-116724768D01*
X94963874Y-116605941D01*
X95003385Y-116485866D01*
X95071770Y-116343749D01*
X95177161Y-116168664D01*
X95291788Y-116025377D01*
X95405385Y-115924349D01*
X95507685Y-115876043D01*
X95533375Y-115873389D01*
X95681750Y-115906582D01*
X96371037Y-114466726D02*
X96451944Y-114533490D01*
X96451944Y-114533490D02*
X96537487Y-114655130D01*
X96537487Y-114655130D02*
X96619133Y-114817210D01*
X96619133Y-114817210D02*
X96687334Y-115001983D01*
X96687334Y-115001983D02*
X96750467Y-115206549D01*
X96750467Y-115206549D02*
X96658438Y-115354761D01*
X96658438Y-115354761D02*
X96576233Y-115481398D01*
X96576233Y-115481398D02*
X96485629Y-115613010D01*
X96485629Y-115613010D02*
X96463237Y-115644083D01*
X96463237Y-115644083D02*
X96402047Y-115741252D01*
X96402047Y-115741252D02*
X96364529Y-115826739D01*
X96364529Y-115826739D02*
X96359069Y-115855750D01*
X96359069Y-115855750D02*
X96347374Y-115930184D01*
X96347374Y-115930184D02*
X96319198Y-116029972D01*
X96319198Y-116029972D02*
X96282599Y-116132944D01*
X96282599Y-116132944D02*
X96245633Y-116216926D01*
X96245633Y-116216926D02*
X96216357Y-116259748D01*
X96216357Y-116259748D02*
X96211643Y-116261444D01*
X96211643Y-116261444D02*
X96174123Y-116235661D01*
X96174123Y-116235661D02*
X96130417Y-116183039D01*
X96130417Y-116183039D02*
X96088950Y-116107759D01*
X96088950Y-116107759D02*
X96075500Y-116058186D01*
X96075500Y-116058186D02*
X96051815Y-116011967D01*
X96051815Y-116011967D02*
X95989488Y-115934025D01*
X95989488Y-115934025D02*
X95901615Y-115840610D01*
X95901615Y-115840610D02*
X95894557Y-115833628D01*
X95894557Y-115833628D02*
X95713614Y-115655520D01*
X95713614Y-115655520D02*
X95735901Y-115437988D01*
X95735901Y-115437988D02*
X95781972Y-115189292D01*
X95781972Y-115189292D02*
X95873191Y-114926788D01*
X95873191Y-114926788D02*
X95985337Y-114690031D01*
X95985337Y-114690031D02*
X96083139Y-114547604D01*
X96083139Y-114547604D02*
X96193548Y-114465857D01*
X96193548Y-114465857D02*
X96309893Y-114448651D01*
X96309893Y-114448651D02*
X96371037Y-114466726D01*
X96371037Y-114466726D02*
X96371037Y-114466726D01*
G36*
X96371037Y-114466726D02*
G01*
X96451944Y-114533490D01*
X96537487Y-114655130D01*
X96619133Y-114817210D01*
X96687334Y-115001983D01*
X96750467Y-115206549D01*
X96658438Y-115354761D01*
X96576233Y-115481398D01*
X96485629Y-115613010D01*
X96463237Y-115644083D01*
X96402047Y-115741252D01*
X96364529Y-115826739D01*
X96359069Y-115855750D01*
X96347374Y-115930184D01*
X96319198Y-116029972D01*
X96282599Y-116132944D01*
X96245633Y-116216926D01*
X96216357Y-116259748D01*
X96211643Y-116261444D01*
X96174123Y-116235661D01*
X96130417Y-116183039D01*
X96088950Y-116107759D01*
X96075500Y-116058186D01*
X96051815Y-116011967D01*
X95989488Y-115934025D01*
X95901615Y-115840610D01*
X95894557Y-115833628D01*
X95713614Y-115655520D01*
X95735901Y-115437988D01*
X95781972Y-115189292D01*
X95873191Y-114926788D01*
X95985337Y-114690031D01*
X96083139Y-114547604D01*
X96193548Y-114465857D01*
X96309893Y-114448651D01*
X96371037Y-114466726D01*
G37*
X96371037Y-114466726D02*
X96451944Y-114533490D01*
X96537487Y-114655130D01*
X96619133Y-114817210D01*
X96687334Y-115001983D01*
X96750467Y-115206549D01*
X96658438Y-115354761D01*
X96576233Y-115481398D01*
X96485629Y-115613010D01*
X96463237Y-115644083D01*
X96402047Y-115741252D01*
X96364529Y-115826739D01*
X96359069Y-115855750D01*
X96347374Y-115930184D01*
X96319198Y-116029972D01*
X96282599Y-116132944D01*
X96245633Y-116216926D01*
X96216357Y-116259748D01*
X96211643Y-116261444D01*
X96174123Y-116235661D01*
X96130417Y-116183039D01*
X96088950Y-116107759D01*
X96075500Y-116058186D01*
X96051815Y-116011967D01*
X95989488Y-115934025D01*
X95901615Y-115840610D01*
X95894557Y-115833628D01*
X95713614Y-115655520D01*
X95735901Y-115437988D01*
X95781972Y-115189292D01*
X95873191Y-114926788D01*
X95985337Y-114690031D01*
X96083139Y-114547604D01*
X96193548Y-114465857D01*
X96309893Y-114448651D01*
X96371037Y-114466726D01*
X92926335Y-118054950D02*
X93029651Y-118139986D01*
X93029651Y-118139986D02*
X93104003Y-118224700D01*
X93104003Y-118224700D02*
X93190510Y-118331439D01*
X93190510Y-118331439D02*
X93277750Y-118444958D01*
X93277750Y-118444958D02*
X93354304Y-118550015D01*
X93354304Y-118550015D02*
X93408749Y-118631364D01*
X93408749Y-118631364D02*
X93429665Y-118673763D01*
X93429665Y-118673763D02*
X93429667Y-118673898D01*
X93429667Y-118673898D02*
X93453597Y-118715022D01*
X93453597Y-118715022D02*
X93512887Y-118781696D01*
X93512887Y-118781696D02*
X93588788Y-118854192D01*
X93588788Y-118854192D02*
X93644318Y-118899757D01*
X93644318Y-118899757D02*
X93699203Y-118924398D01*
X93699203Y-118924398D02*
X93807045Y-118960447D01*
X93807045Y-118960447D02*
X93952152Y-119003019D01*
X93952152Y-119003019D02*
X94115361Y-119046355D01*
X94115361Y-119046355D02*
X94402449Y-119131970D01*
X94402449Y-119131970D02*
X94625366Y-119229158D01*
X94625366Y-119229158D02*
X94790070Y-119341758D01*
X94790070Y-119341758D02*
X94902521Y-119473613D01*
X94902521Y-119473613D02*
X94956535Y-119588568D01*
X94956535Y-119588568D02*
X94985848Y-119706373D01*
X94985848Y-119706373D02*
X94982890Y-119784603D01*
X94982890Y-119784603D02*
X94978654Y-119793248D01*
X94978654Y-119793248D02*
X94955091Y-119814756D01*
X94955091Y-119814756D02*
X94947261Y-119771631D01*
X94947261Y-119771631D02*
X94947151Y-119763577D01*
X94947151Y-119763577D02*
X94932445Y-119704138D01*
X94932445Y-119704138D02*
X94883323Y-119649705D01*
X94883323Y-119649705D02*
X94790966Y-119594915D01*
X94790966Y-119594915D02*
X94646556Y-119534403D01*
X94646556Y-119534403D02*
X94466424Y-119471161D01*
X94466424Y-119471161D02*
X94281353Y-119415315D01*
X94281353Y-119415315D02*
X94113542Y-119380690D01*
X94113542Y-119380690D02*
X93930205Y-119361715D01*
X93930205Y-119361715D02*
X93782445Y-119354989D01*
X93782445Y-119354989D02*
X93595991Y-119344787D01*
X93595991Y-119344787D02*
X93450263Y-119327857D01*
X93450263Y-119327857D02*
X93358033Y-119305858D01*
X93358033Y-119305858D02*
X93341472Y-119297742D01*
X93341472Y-119297742D02*
X93261001Y-119228159D01*
X93261001Y-119228159D02*
X93159037Y-119115687D01*
X93159037Y-119115687D02*
X93049772Y-118978303D01*
X93049772Y-118978303D02*
X92947399Y-118833984D01*
X92947399Y-118833984D02*
X92866112Y-118700707D01*
X92866112Y-118700707D02*
X92857869Y-118685198D01*
X92857869Y-118685198D02*
X92775099Y-118466077D01*
X92775099Y-118466077D02*
X92738345Y-118263458D01*
X92738345Y-118263458D02*
X92714368Y-118025333D01*
X92714368Y-118025333D02*
X92818152Y-118025333D01*
X92818152Y-118025333D02*
X92926335Y-118054950D01*
X92926335Y-118054950D02*
X92926335Y-118054950D01*
G36*
X92926335Y-118054950D02*
G01*
X93029651Y-118139986D01*
X93104003Y-118224700D01*
X93190510Y-118331439D01*
X93277750Y-118444958D01*
X93354304Y-118550015D01*
X93408749Y-118631364D01*
X93429665Y-118673763D01*
X93429667Y-118673898D01*
X93453597Y-118715022D01*
X93512887Y-118781696D01*
X93588788Y-118854192D01*
X93644318Y-118899757D01*
X93699203Y-118924398D01*
X93807045Y-118960447D01*
X93952152Y-119003019D01*
X94115361Y-119046355D01*
X94402449Y-119131970D01*
X94625366Y-119229158D01*
X94790070Y-119341758D01*
X94902521Y-119473613D01*
X94956535Y-119588568D01*
X94985848Y-119706373D01*
X94982890Y-119784603D01*
X94978654Y-119793248D01*
X94955091Y-119814756D01*
X94947261Y-119771631D01*
X94947151Y-119763577D01*
X94932445Y-119704138D01*
X94883323Y-119649705D01*
X94790966Y-119594915D01*
X94646556Y-119534403D01*
X94466424Y-119471161D01*
X94281353Y-119415315D01*
X94113542Y-119380690D01*
X93930205Y-119361715D01*
X93782445Y-119354989D01*
X93595991Y-119344787D01*
X93450263Y-119327857D01*
X93358033Y-119305858D01*
X93341472Y-119297742D01*
X93261001Y-119228159D01*
X93159037Y-119115687D01*
X93049772Y-118978303D01*
X92947399Y-118833984D01*
X92866112Y-118700707D01*
X92857869Y-118685198D01*
X92775099Y-118466077D01*
X92738345Y-118263458D01*
X92714368Y-118025333D01*
X92818152Y-118025333D01*
X92926335Y-118054950D01*
G37*
X92926335Y-118054950D02*
X93029651Y-118139986D01*
X93104003Y-118224700D01*
X93190510Y-118331439D01*
X93277750Y-118444958D01*
X93354304Y-118550015D01*
X93408749Y-118631364D01*
X93429665Y-118673763D01*
X93429667Y-118673898D01*
X93453597Y-118715022D01*
X93512887Y-118781696D01*
X93588788Y-118854192D01*
X93644318Y-118899757D01*
X93699203Y-118924398D01*
X93807045Y-118960447D01*
X93952152Y-119003019D01*
X94115361Y-119046355D01*
X94402449Y-119131970D01*
X94625366Y-119229158D01*
X94790070Y-119341758D01*
X94902521Y-119473613D01*
X94956535Y-119588568D01*
X94985848Y-119706373D01*
X94982890Y-119784603D01*
X94978654Y-119793248D01*
X94955091Y-119814756D01*
X94947261Y-119771631D01*
X94947151Y-119763577D01*
X94932445Y-119704138D01*
X94883323Y-119649705D01*
X94790966Y-119594915D01*
X94646556Y-119534403D01*
X94466424Y-119471161D01*
X94281353Y-119415315D01*
X94113542Y-119380690D01*
X93930205Y-119361715D01*
X93782445Y-119354989D01*
X93595991Y-119344787D01*
X93450263Y-119327857D01*
X93358033Y-119305858D01*
X93341472Y-119297742D01*
X93261001Y-119228159D01*
X93159037Y-119115687D01*
X93049772Y-118978303D01*
X92947399Y-118833984D01*
X92866112Y-118700707D01*
X92857869Y-118685198D01*
X92775099Y-118466077D01*
X92738345Y-118263458D01*
X92714368Y-118025333D01*
X92818152Y-118025333D01*
X92926335Y-118054950D01*
X93663282Y-112087680D02*
X93749968Y-112154327D01*
X93749968Y-112154327D02*
X93781509Y-112202753D01*
X93781509Y-112202753D02*
X93800220Y-112278096D01*
X93800220Y-112278096D02*
X93787142Y-112347292D01*
X93787142Y-112347292D02*
X93748475Y-112380656D01*
X93748475Y-112380656D02*
X93744298Y-112380889D01*
X93744298Y-112380889D02*
X93703383Y-112413637D01*
X93703383Y-112413637D02*
X93649891Y-112505557D01*
X93649891Y-112505557D02*
X93587501Y-112647165D01*
X93587501Y-112647165D02*
X93519889Y-112828975D01*
X93519889Y-112828975D02*
X93450735Y-113041502D01*
X93450735Y-113041502D02*
X93383715Y-113275260D01*
X93383715Y-113275260D02*
X93355635Y-113383250D01*
X93355635Y-113383250D02*
X93315777Y-113516248D01*
X93315777Y-113516248D02*
X93279103Y-113589451D01*
X93279103Y-113589451D02*
X93248121Y-113598283D01*
X93248121Y-113598283D02*
X93242016Y-113590651D01*
X93242016Y-113590651D02*
X93215943Y-113500672D01*
X93215943Y-113500672D02*
X93208896Y-113356823D01*
X93208896Y-113356823D02*
X93219117Y-113172659D01*
X93219117Y-113172659D02*
X93244850Y-112961734D01*
X93244850Y-112961734D02*
X93284339Y-112737605D01*
X93284339Y-112737605D02*
X93335827Y-112513827D01*
X93335827Y-112513827D02*
X93397558Y-112303954D01*
X93397558Y-112303954D02*
X93415434Y-112252321D01*
X93415434Y-112252321D02*
X93481758Y-112138608D01*
X93481758Y-112138608D02*
X93569126Y-112083084D01*
X93569126Y-112083084D02*
X93663282Y-112087680D01*
X93663282Y-112087680D02*
X93663282Y-112087680D01*
G36*
X93663282Y-112087680D02*
G01*
X93749968Y-112154327D01*
X93781509Y-112202753D01*
X93800220Y-112278096D01*
X93787142Y-112347292D01*
X93748475Y-112380656D01*
X93744298Y-112380889D01*
X93703383Y-112413637D01*
X93649891Y-112505557D01*
X93587501Y-112647165D01*
X93519889Y-112828975D01*
X93450735Y-113041502D01*
X93383715Y-113275260D01*
X93355635Y-113383250D01*
X93315777Y-113516248D01*
X93279103Y-113589451D01*
X93248121Y-113598283D01*
X93242016Y-113590651D01*
X93215943Y-113500672D01*
X93208896Y-113356823D01*
X93219117Y-113172659D01*
X93244850Y-112961734D01*
X93284339Y-112737605D01*
X93335827Y-112513827D01*
X93397558Y-112303954D01*
X93415434Y-112252321D01*
X93481758Y-112138608D01*
X93569126Y-112083084D01*
X93663282Y-112087680D01*
G37*
X93663282Y-112087680D02*
X93749968Y-112154327D01*
X93781509Y-112202753D01*
X93800220Y-112278096D01*
X93787142Y-112347292D01*
X93748475Y-112380656D01*
X93744298Y-112380889D01*
X93703383Y-112413637D01*
X93649891Y-112505557D01*
X93587501Y-112647165D01*
X93519889Y-112828975D01*
X93450735Y-113041502D01*
X93383715Y-113275260D01*
X93355635Y-113383250D01*
X93315777Y-113516248D01*
X93279103Y-113589451D01*
X93248121Y-113598283D01*
X93242016Y-113590651D01*
X93215943Y-113500672D01*
X93208896Y-113356823D01*
X93219117Y-113172659D01*
X93244850Y-112961734D01*
X93284339Y-112737605D01*
X93335827Y-112513827D01*
X93397558Y-112303954D01*
X93415434Y-112252321D01*
X93481758Y-112138608D01*
X93569126Y-112083084D01*
X93663282Y-112087680D01*
X97658879Y-112338459D02*
X97736565Y-112425453D01*
X97736565Y-112425453D02*
X97821360Y-112575237D01*
X97821360Y-112575237D02*
X97887977Y-112723090D01*
X97887977Y-112723090D02*
X97945071Y-112898478D01*
X97945071Y-112898478D02*
X97985721Y-113102733D01*
X97985721Y-113102733D02*
X98008334Y-113315360D01*
X98008334Y-113315360D02*
X98011313Y-113515866D01*
X98011313Y-113515866D02*
X97993063Y-113683759D01*
X97993063Y-113683759D02*
X97969125Y-113765542D01*
X97969125Y-113765542D02*
X97919752Y-113862625D01*
X97919752Y-113862625D02*
X97882646Y-113890455D01*
X97882646Y-113890455D02*
X97858193Y-113849324D01*
X97858193Y-113849324D02*
X97846778Y-113739527D01*
X97846778Y-113739527D02*
X97845972Y-113671827D01*
X97845972Y-113671827D02*
X97822714Y-113446869D01*
X97822714Y-113446869D02*
X97749171Y-113269217D01*
X97749171Y-113269217D02*
X97650098Y-113156121D01*
X97650098Y-113156121D02*
X97613284Y-113108500D01*
X97613284Y-113108500D02*
X97590778Y-113031157D01*
X97590778Y-113031157D02*
X97578655Y-112907275D01*
X97578655Y-112907275D02*
X97575725Y-112837633D01*
X97575725Y-112837633D02*
X97567638Y-112686573D01*
X97567638Y-112686573D02*
X97554702Y-112544254D01*
X97554702Y-112544254D02*
X97539914Y-112442625D01*
X97539914Y-112442625D02*
X97526317Y-112356470D01*
X97526317Y-112356470D02*
X97538170Y-112318866D01*
X97538170Y-112318866D02*
X97582170Y-112310345D01*
X97582170Y-112310345D02*
X97585426Y-112310333D01*
X97585426Y-112310333D02*
X97658879Y-112338459D01*
X97658879Y-112338459D02*
X97658879Y-112338459D01*
G36*
X97658879Y-112338459D02*
G01*
X97736565Y-112425453D01*
X97821360Y-112575237D01*
X97887977Y-112723090D01*
X97945071Y-112898478D01*
X97985721Y-113102733D01*
X98008334Y-113315360D01*
X98011313Y-113515866D01*
X97993063Y-113683759D01*
X97969125Y-113765542D01*
X97919752Y-113862625D01*
X97882646Y-113890455D01*
X97858193Y-113849324D01*
X97846778Y-113739527D01*
X97845972Y-113671827D01*
X97822714Y-113446869D01*
X97749171Y-113269217D01*
X97650098Y-113156121D01*
X97613284Y-113108500D01*
X97590778Y-113031157D01*
X97578655Y-112907275D01*
X97575725Y-112837633D01*
X97567638Y-112686573D01*
X97554702Y-112544254D01*
X97539914Y-112442625D01*
X97526317Y-112356470D01*
X97538170Y-112318866D01*
X97582170Y-112310345D01*
X97585426Y-112310333D01*
X97658879Y-112338459D01*
G37*
X97658879Y-112338459D02*
X97736565Y-112425453D01*
X97821360Y-112575237D01*
X97887977Y-112723090D01*
X97945071Y-112898478D01*
X97985721Y-113102733D01*
X98008334Y-113315360D01*
X98011313Y-113515866D01*
X97993063Y-113683759D01*
X97969125Y-113765542D01*
X97919752Y-113862625D01*
X97882646Y-113890455D01*
X97858193Y-113849324D01*
X97846778Y-113739527D01*
X97845972Y-113671827D01*
X97822714Y-113446869D01*
X97749171Y-113269217D01*
X97650098Y-113156121D01*
X97613284Y-113108500D01*
X97590778Y-113031157D01*
X97578655Y-112907275D01*
X97575725Y-112837633D01*
X97567638Y-112686573D01*
X97554702Y-112544254D01*
X97539914Y-112442625D01*
X97526317Y-112356470D01*
X97538170Y-112318866D01*
X97582170Y-112310345D01*
X97585426Y-112310333D01*
X97658879Y-112338459D01*
X93793134Y-115406458D02*
X93871570Y-115478885D01*
X93871570Y-115478885D02*
X93966602Y-115584109D01*
X93966602Y-115584109D02*
X94066541Y-115709458D01*
X94066541Y-115709458D02*
X94133459Y-115802833D01*
X94133459Y-115802833D02*
X94270392Y-116036953D01*
X94270392Y-116036953D02*
X94366400Y-116284270D01*
X94366400Y-116284270D02*
X94427884Y-116564522D01*
X94427884Y-116564522D02*
X94453787Y-116790611D01*
X94453787Y-116790611D02*
X94476435Y-117012990D01*
X94476435Y-117012990D02*
X94506408Y-117185372D01*
X94506408Y-117185372D02*
X94549217Y-117328292D01*
X94549217Y-117328292D02*
X94610373Y-117462285D01*
X94610373Y-117462285D02*
X94655570Y-117542566D01*
X94655570Y-117542566D02*
X94709590Y-117636722D01*
X94709590Y-117636722D02*
X94728637Y-117692475D01*
X94728637Y-117692475D02*
X94713031Y-117732509D01*
X94713031Y-117732509D02*
X94663096Y-117779512D01*
X94663096Y-117779512D02*
X94658991Y-117783070D01*
X94658991Y-117783070D02*
X94594182Y-117833384D01*
X94594182Y-117833384D02*
X94546644Y-117840284D01*
X94546644Y-117840284D02*
X94491723Y-117800185D01*
X94491723Y-117800185D02*
X94444834Y-117751931D01*
X94444834Y-117751931D02*
X94380502Y-117672105D01*
X94380502Y-117672105D02*
X94299460Y-117555554D01*
X94299460Y-117555554D02*
X94219105Y-117427318D01*
X94219105Y-117427318D02*
X94218099Y-117425611D01*
X94218099Y-117425611D02*
X94146118Y-117303566D01*
X94146118Y-117303566D02*
X94083419Y-117197498D01*
X94083419Y-117197498D02*
X94042742Y-117128961D01*
X94042742Y-117128961D02*
X94040825Y-117125750D01*
X94040825Y-117125750D02*
X93887980Y-116827671D01*
X93887980Y-116827671D02*
X93783789Y-116531355D01*
X93783789Y-116531355D02*
X93764146Y-116449379D01*
X93764146Y-116449379D02*
X93745849Y-116333291D01*
X93745849Y-116333291D02*
X93731275Y-116183889D01*
X93731275Y-116183889D02*
X93720705Y-116015366D01*
X93720705Y-116015366D02*
X93714420Y-115841913D01*
X93714420Y-115841913D02*
X93712701Y-115677723D01*
X93712701Y-115677723D02*
X93715829Y-115536987D01*
X93715829Y-115536987D02*
X93724083Y-115433897D01*
X93724083Y-115433897D02*
X93737746Y-115382645D01*
X93737746Y-115382645D02*
X93742981Y-115379500D01*
X93742981Y-115379500D02*
X93793134Y-115406458D01*
X93793134Y-115406458D02*
X93793134Y-115406458D01*
G36*
X93793134Y-115406458D02*
G01*
X93871570Y-115478885D01*
X93966602Y-115584109D01*
X94066541Y-115709458D01*
X94133459Y-115802833D01*
X94270392Y-116036953D01*
X94366400Y-116284270D01*
X94427884Y-116564522D01*
X94453787Y-116790611D01*
X94476435Y-117012990D01*
X94506408Y-117185372D01*
X94549217Y-117328292D01*
X94610373Y-117462285D01*
X94655570Y-117542566D01*
X94709590Y-117636722D01*
X94728637Y-117692475D01*
X94713031Y-117732509D01*
X94663096Y-117779512D01*
X94658991Y-117783070D01*
X94594182Y-117833384D01*
X94546644Y-117840284D01*
X94491723Y-117800185D01*
X94444834Y-117751931D01*
X94380502Y-117672105D01*
X94299460Y-117555554D01*
X94219105Y-117427318D01*
X94218099Y-117425611D01*
X94146118Y-117303566D01*
X94083419Y-117197498D01*
X94042742Y-117128961D01*
X94040825Y-117125750D01*
X93887980Y-116827671D01*
X93783789Y-116531355D01*
X93764146Y-116449379D01*
X93745849Y-116333291D01*
X93731275Y-116183889D01*
X93720705Y-116015366D01*
X93714420Y-115841913D01*
X93712701Y-115677723D01*
X93715829Y-115536987D01*
X93724083Y-115433897D01*
X93737746Y-115382645D01*
X93742981Y-115379500D01*
X93793134Y-115406458D01*
G37*
X93793134Y-115406458D02*
X93871570Y-115478885D01*
X93966602Y-115584109D01*
X94066541Y-115709458D01*
X94133459Y-115802833D01*
X94270392Y-116036953D01*
X94366400Y-116284270D01*
X94427884Y-116564522D01*
X94453787Y-116790611D01*
X94476435Y-117012990D01*
X94506408Y-117185372D01*
X94549217Y-117328292D01*
X94610373Y-117462285D01*
X94655570Y-117542566D01*
X94709590Y-117636722D01*
X94728637Y-117692475D01*
X94713031Y-117732509D01*
X94663096Y-117779512D01*
X94658991Y-117783070D01*
X94594182Y-117833384D01*
X94546644Y-117840284D01*
X94491723Y-117800185D01*
X94444834Y-117751931D01*
X94380502Y-117672105D01*
X94299460Y-117555554D01*
X94219105Y-117427318D01*
X94218099Y-117425611D01*
X94146118Y-117303566D01*
X94083419Y-117197498D01*
X94042742Y-117128961D01*
X94040825Y-117125750D01*
X93887980Y-116827671D01*
X93783789Y-116531355D01*
X93764146Y-116449379D01*
X93745849Y-116333291D01*
X93731275Y-116183889D01*
X93720705Y-116015366D01*
X93714420Y-115841913D01*
X93712701Y-115677723D01*
X93715829Y-115536987D01*
X93724083Y-115433897D01*
X93737746Y-115382645D01*
X93742981Y-115379500D01*
X93793134Y-115406458D01*
X95871546Y-111852671D02*
X95959770Y-111960904D01*
X95959770Y-111960904D02*
X95998123Y-112038590D01*
X95998123Y-112038590D02*
X96029673Y-112120330D01*
X96029673Y-112120330D02*
X96033998Y-112173368D01*
X96033998Y-112173368D02*
X96001291Y-112204002D01*
X96001291Y-112204002D02*
X95921742Y-112218531D01*
X95921742Y-112218531D02*
X95785543Y-112223253D01*
X95785543Y-112223253D02*
X95709643Y-112223823D01*
X95709643Y-112223823D02*
X95379165Y-112225508D01*
X95379165Y-112225508D02*
X95448550Y-112100351D01*
X95448550Y-112100351D02*
X95558430Y-111937057D01*
X95558430Y-111937057D02*
X95667684Y-111841107D01*
X95667684Y-111841107D02*
X95773120Y-111812859D01*
X95773120Y-111812859D02*
X95871546Y-111852671D01*
X95871546Y-111852671D02*
X95871546Y-111852671D01*
G36*
X95871546Y-111852671D02*
G01*
X95959770Y-111960904D01*
X95998123Y-112038590D01*
X96029673Y-112120330D01*
X96033998Y-112173368D01*
X96001291Y-112204002D01*
X95921742Y-112218531D01*
X95785543Y-112223253D01*
X95709643Y-112223823D01*
X95379165Y-112225508D01*
X95448550Y-112100351D01*
X95558430Y-111937057D01*
X95667684Y-111841107D01*
X95773120Y-111812859D01*
X95871546Y-111852671D01*
G37*
X95871546Y-111852671D02*
X95959770Y-111960904D01*
X95998123Y-112038590D01*
X96029673Y-112120330D01*
X96033998Y-112173368D01*
X96001291Y-112204002D01*
X95921742Y-112218531D01*
X95785543Y-112223253D01*
X95709643Y-112223823D01*
X95379165Y-112225508D01*
X95448550Y-112100351D01*
X95558430Y-111937057D01*
X95667684Y-111841107D01*
X95773120Y-111812859D01*
X95871546Y-111852671D01*
X97205536Y-115180723D02*
X97235534Y-115282290D01*
X97235534Y-115282290D02*
X97230329Y-115441392D01*
X97230329Y-115441392D02*
X97204479Y-115591167D01*
X97204479Y-115591167D02*
X97072873Y-116049021D01*
X97072873Y-116049021D02*
X96882830Y-116471488D01*
X96882830Y-116471488D02*
X96636671Y-116854265D01*
X96636671Y-116854265D02*
X96342460Y-117187486D01*
X96342460Y-117187486D02*
X96225904Y-117297619D01*
X96225904Y-117297619D02*
X96125514Y-117386535D01*
X96125514Y-117386535D02*
X96053121Y-117444123D01*
X96053121Y-117444123D02*
X96022545Y-117460889D01*
X96022545Y-117460889D02*
X95965642Y-117438266D01*
X95965642Y-117438266D02*
X95941445Y-117418556D01*
X95941445Y-117418556D02*
X95904667Y-117344913D01*
X95904667Y-117344913D02*
X95922178Y-117246303D01*
X95922178Y-117246303D02*
X95995615Y-117116075D01*
X95995615Y-117116075D02*
X96026575Y-117072833D01*
X96026575Y-117072833D02*
X96060906Y-117010248D01*
X96060906Y-117010248D02*
X96105184Y-116908909D01*
X96105184Y-116908909D02*
X96130382Y-116843528D01*
X96130382Y-116843528D02*
X96184222Y-116712748D01*
X96184222Y-116712748D02*
X96245380Y-116586946D01*
X96245380Y-116586946D02*
X96269809Y-116543667D01*
X96269809Y-116543667D02*
X96321978Y-116440001D01*
X96321978Y-116440001D02*
X96376991Y-116303846D01*
X96376991Y-116303846D02*
X96409175Y-116208528D01*
X96409175Y-116208528D02*
X96463181Y-116056593D01*
X96463181Y-116056593D02*
X96530870Y-115899251D01*
X96530870Y-115899251D02*
X96570591Y-115820472D01*
X96570591Y-115820472D02*
X96622482Y-115721027D01*
X96622482Y-115721027D02*
X96655611Y-115647765D01*
X96655611Y-115647765D02*
X96662557Y-115622067D01*
X96662557Y-115622067D02*
X96677989Y-115574813D01*
X96677989Y-115574813D02*
X96726182Y-115492282D01*
X96726182Y-115492282D02*
X96794059Y-115392832D01*
X96794059Y-115392832D02*
X96868542Y-115294824D01*
X96868542Y-115294824D02*
X96936555Y-115216615D01*
X96936555Y-115216615D02*
X96976510Y-115181293D01*
X96976510Y-115181293D02*
X97067968Y-115144185D01*
X97067968Y-115144185D02*
X97140613Y-115138654D01*
X97140613Y-115138654D02*
X97205536Y-115180723D01*
X97205536Y-115180723D02*
X97205536Y-115180723D01*
G36*
X97205536Y-115180723D02*
G01*
X97235534Y-115282290D01*
X97230329Y-115441392D01*
X97204479Y-115591167D01*
X97072873Y-116049021D01*
X96882830Y-116471488D01*
X96636671Y-116854265D01*
X96342460Y-117187486D01*
X96225904Y-117297619D01*
X96125514Y-117386535D01*
X96053121Y-117444123D01*
X96022545Y-117460889D01*
X95965642Y-117438266D01*
X95941445Y-117418556D01*
X95904667Y-117344913D01*
X95922178Y-117246303D01*
X95995615Y-117116075D01*
X96026575Y-117072833D01*
X96060906Y-117010248D01*
X96105184Y-116908909D01*
X96130382Y-116843528D01*
X96184222Y-116712748D01*
X96245380Y-116586946D01*
X96269809Y-116543667D01*
X96321978Y-116440001D01*
X96376991Y-116303846D01*
X96409175Y-116208528D01*
X96463181Y-116056593D01*
X96530870Y-115899251D01*
X96570591Y-115820472D01*
X96622482Y-115721027D01*
X96655611Y-115647765D01*
X96662557Y-115622067D01*
X96677989Y-115574813D01*
X96726182Y-115492282D01*
X96794059Y-115392832D01*
X96868542Y-115294824D01*
X96936555Y-115216615D01*
X96976510Y-115181293D01*
X97067968Y-115144185D01*
X97140613Y-115138654D01*
X97205536Y-115180723D01*
G37*
X97205536Y-115180723D02*
X97235534Y-115282290D01*
X97230329Y-115441392D01*
X97204479Y-115591167D01*
X97072873Y-116049021D01*
X96882830Y-116471488D01*
X96636671Y-116854265D01*
X96342460Y-117187486D01*
X96225904Y-117297619D01*
X96125514Y-117386535D01*
X96053121Y-117444123D01*
X96022545Y-117460889D01*
X95965642Y-117438266D01*
X95941445Y-117418556D01*
X95904667Y-117344913D01*
X95922178Y-117246303D01*
X95995615Y-117116075D01*
X96026575Y-117072833D01*
X96060906Y-117010248D01*
X96105184Y-116908909D01*
X96130382Y-116843528D01*
X96184222Y-116712748D01*
X96245380Y-116586946D01*
X96269809Y-116543667D01*
X96321978Y-116440001D01*
X96376991Y-116303846D01*
X96409175Y-116208528D01*
X96463181Y-116056593D01*
X96530870Y-115899251D01*
X96570591Y-115820472D01*
X96622482Y-115721027D01*
X96655611Y-115647765D01*
X96662557Y-115622067D01*
X96677989Y-115574813D01*
X96726182Y-115492282D01*
X96794059Y-115392832D01*
X96868542Y-115294824D01*
X96936555Y-115216615D01*
X96976510Y-115181293D01*
X97067968Y-115144185D01*
X97140613Y-115138654D01*
X97205536Y-115180723D01*
X93304542Y-113944208D02*
X93363847Y-113991165D01*
X93363847Y-113991165D02*
X93432803Y-114088464D01*
X93432803Y-114088464D02*
X93506438Y-114223085D01*
X93506438Y-114223085D02*
X93579780Y-114382009D01*
X93579780Y-114382009D02*
X93647859Y-114552219D01*
X93647859Y-114552219D02*
X93705702Y-114720694D01*
X93705702Y-114720694D02*
X93748339Y-114874417D01*
X93748339Y-114874417D02*
X93770798Y-115000368D01*
X93770798Y-115000368D02*
X93768108Y-115085529D01*
X93768108Y-115085529D02*
X93750747Y-115112704D01*
X93750747Y-115112704D02*
X93712891Y-115099823D01*
X93712891Y-115099823D02*
X93643337Y-115049989D01*
X93643337Y-115049989D02*
X93593389Y-115006879D01*
X93593389Y-115006879D02*
X93510209Y-114937150D01*
X93510209Y-114937150D02*
X93444314Y-114893305D01*
X93444314Y-114893305D02*
X93422418Y-114885611D01*
X93422418Y-114885611D02*
X93404976Y-114913554D01*
X93404976Y-114913554D02*
X93397164Y-115000249D01*
X93397164Y-115000249D02*
X93398783Y-115149996D01*
X93398783Y-115149996D02*
X93404291Y-115273667D01*
X93404291Y-115273667D02*
X93411388Y-115429479D01*
X93411388Y-115429479D02*
X93414989Y-115555439D01*
X93414989Y-115555439D02*
X93414830Y-115637345D01*
X93414830Y-115637345D02*
X93411501Y-115661722D01*
X93411501Y-115661722D02*
X93387460Y-115634285D01*
X93387460Y-115634285D02*
X93347584Y-115567939D01*
X93347584Y-115567939D02*
X93345831Y-115564708D01*
X93345831Y-115564708D02*
X93256774Y-115388331D01*
X93256774Y-115388331D02*
X93198580Y-115238278D01*
X93198580Y-115238278D02*
X93160852Y-115083642D01*
X93160852Y-115083642D02*
X93141054Y-114956167D01*
X93141054Y-114956167D02*
X93125916Y-114788479D01*
X93125916Y-114788479D02*
X93121111Y-114612643D01*
X93121111Y-114612643D02*
X93126735Y-114479917D01*
X93126735Y-114479917D02*
X93148140Y-114334181D01*
X93148140Y-114334181D02*
X93180981Y-114192189D01*
X93180981Y-114192189D02*
X93220106Y-114069463D01*
X93220106Y-114069463D02*
X93260362Y-113981525D01*
X93260362Y-113981525D02*
X93296599Y-113943897D01*
X93296599Y-113943897D02*
X93304542Y-113944208D01*
X93304542Y-113944208D02*
X93304542Y-113944208D01*
G36*
X93304542Y-113944208D02*
G01*
X93363847Y-113991165D01*
X93432803Y-114088464D01*
X93506438Y-114223085D01*
X93579780Y-114382009D01*
X93647859Y-114552219D01*
X93705702Y-114720694D01*
X93748339Y-114874417D01*
X93770798Y-115000368D01*
X93768108Y-115085529D01*
X93750747Y-115112704D01*
X93712891Y-115099823D01*
X93643337Y-115049989D01*
X93593389Y-115006879D01*
X93510209Y-114937150D01*
X93444314Y-114893305D01*
X93422418Y-114885611D01*
X93404976Y-114913554D01*
X93397164Y-115000249D01*
X93398783Y-115149996D01*
X93404291Y-115273667D01*
X93411388Y-115429479D01*
X93414989Y-115555439D01*
X93414830Y-115637345D01*
X93411501Y-115661722D01*
X93387460Y-115634285D01*
X93347584Y-115567939D01*
X93345831Y-115564708D01*
X93256774Y-115388331D01*
X93198580Y-115238278D01*
X93160852Y-115083642D01*
X93141054Y-114956167D01*
X93125916Y-114788479D01*
X93121111Y-114612643D01*
X93126735Y-114479917D01*
X93148140Y-114334181D01*
X93180981Y-114192189D01*
X93220106Y-114069463D01*
X93260362Y-113981525D01*
X93296599Y-113943897D01*
X93304542Y-113944208D01*
G37*
X93304542Y-113944208D02*
X93363847Y-113991165D01*
X93432803Y-114088464D01*
X93506438Y-114223085D01*
X93579780Y-114382009D01*
X93647859Y-114552219D01*
X93705702Y-114720694D01*
X93748339Y-114874417D01*
X93770798Y-115000368D01*
X93768108Y-115085529D01*
X93750747Y-115112704D01*
X93712891Y-115099823D01*
X93643337Y-115049989D01*
X93593389Y-115006879D01*
X93510209Y-114937150D01*
X93444314Y-114893305D01*
X93422418Y-114885611D01*
X93404976Y-114913554D01*
X93397164Y-115000249D01*
X93398783Y-115149996D01*
X93404291Y-115273667D01*
X93411388Y-115429479D01*
X93414989Y-115555439D01*
X93414830Y-115637345D01*
X93411501Y-115661722D01*
X93387460Y-115634285D01*
X93347584Y-115567939D01*
X93345831Y-115564708D01*
X93256774Y-115388331D01*
X93198580Y-115238278D01*
X93160852Y-115083642D01*
X93141054Y-114956167D01*
X93125916Y-114788479D01*
X93121111Y-114612643D01*
X93126735Y-114479917D01*
X93148140Y-114334181D01*
X93180981Y-114192189D01*
X93220106Y-114069463D01*
X93260362Y-113981525D01*
X93296599Y-113943897D01*
X93304542Y-113944208D01*
X97329125Y-116646990D02*
X97340561Y-116736347D01*
X97340561Y-116736347D02*
X97344057Y-116868872D01*
X97344057Y-116868872D02*
X97340022Y-117031143D01*
X97340022Y-117031143D02*
X97328864Y-117209740D01*
X97328864Y-117209740D02*
X97310992Y-117391241D01*
X97310992Y-117391241D02*
X97286815Y-117562225D01*
X97286815Y-117562225D02*
X97279163Y-117605363D01*
X97279163Y-117605363D02*
X97199802Y-117930267D01*
X97199802Y-117930267D02*
X97095152Y-118189801D01*
X97095152Y-118189801D02*
X96964973Y-118384557D01*
X96964973Y-118384557D02*
X96959670Y-118390521D01*
X96959670Y-118390521D02*
X96768935Y-118594331D01*
X96768935Y-118594331D02*
X96591736Y-118767432D01*
X96591736Y-118767432D02*
X96436676Y-118902010D01*
X96436676Y-118902010D02*
X96312357Y-118990253D01*
X96312357Y-118990253D02*
X96280648Y-119007343D01*
X96280648Y-119007343D02*
X96157335Y-119056884D01*
X96157335Y-119056884D02*
X96028892Y-119093032D01*
X96028892Y-119093032D02*
X95915740Y-119111683D01*
X95915740Y-119111683D02*
X95838301Y-119108733D01*
X95838301Y-119108733D02*
X95820977Y-119099712D01*
X95820977Y-119099712D02*
X95817107Y-119051801D01*
X95817107Y-119051801D02*
X95849348Y-118975689D01*
X95849348Y-118975689D02*
X95906616Y-118895617D01*
X95906616Y-118895617D02*
X95921543Y-118879806D01*
X95921543Y-118879806D02*
X95977071Y-118814840D01*
X95977071Y-118814840D02*
X95995347Y-118788210D01*
X95995347Y-118788210D02*
X96034734Y-118745382D01*
X96034734Y-118745382D02*
X96113836Y-118673505D01*
X96113836Y-118673505D02*
X96216740Y-118586929D01*
X96216740Y-118586929D02*
X96234250Y-118572753D01*
X96234250Y-118572753D02*
X96394620Y-118438019D01*
X96394620Y-118438019D02*
X96506368Y-118328322D01*
X96506368Y-118328322D02*
X96580282Y-118230639D01*
X96580282Y-118230639D02*
X96627147Y-118131943D01*
X96627147Y-118131943D02*
X96643779Y-118078250D01*
X96643779Y-118078250D02*
X96689263Y-117956178D01*
X96689263Y-117956178D02*
X96750631Y-117843190D01*
X96750631Y-117843190D02*
X96758944Y-117831306D01*
X96758944Y-117831306D02*
X96808329Y-117753464D01*
X96808329Y-117753464D02*
X96870342Y-117641901D01*
X96870342Y-117641901D02*
X96935881Y-117514939D01*
X96935881Y-117514939D02*
X96995844Y-117390898D01*
X96995844Y-117390898D02*
X97041129Y-117288102D01*
X97041129Y-117288102D02*
X97062632Y-117224872D01*
X97062632Y-117224872D02*
X97063278Y-117218719D01*
X97063278Y-117218719D02*
X97078334Y-117167520D01*
X97078334Y-117167520D02*
X97114686Y-117088171D01*
X97114686Y-117088171D02*
X97115977Y-117085685D01*
X97115977Y-117085685D02*
X97153561Y-116995882D01*
X97153561Y-116995882D02*
X97168894Y-116924985D01*
X97168894Y-116924985D02*
X97185054Y-116862836D01*
X97185054Y-116862836D02*
X97199832Y-116846344D01*
X97199832Y-116846344D02*
X97227948Y-116801248D01*
X97227948Y-116801248D02*
X97251867Y-116720790D01*
X97251867Y-116720790D02*
X97277123Y-116646308D01*
X97277123Y-116646308D02*
X97308536Y-116614248D01*
X97308536Y-116614248D02*
X97309340Y-116614222D01*
X97309340Y-116614222D02*
X97329125Y-116646990D01*
X97329125Y-116646990D02*
X97329125Y-116646990D01*
G36*
X97329125Y-116646990D02*
G01*
X97340561Y-116736347D01*
X97344057Y-116868872D01*
X97340022Y-117031143D01*
X97328864Y-117209740D01*
X97310992Y-117391241D01*
X97286815Y-117562225D01*
X97279163Y-117605363D01*
X97199802Y-117930267D01*
X97095152Y-118189801D01*
X96964973Y-118384557D01*
X96959670Y-118390521D01*
X96768935Y-118594331D01*
X96591736Y-118767432D01*
X96436676Y-118902010D01*
X96312357Y-118990253D01*
X96280648Y-119007343D01*
X96157335Y-119056884D01*
X96028892Y-119093032D01*
X95915740Y-119111683D01*
X95838301Y-119108733D01*
X95820977Y-119099712D01*
X95817107Y-119051801D01*
X95849348Y-118975689D01*
X95906616Y-118895617D01*
X95921543Y-118879806D01*
X95977071Y-118814840D01*
X95995347Y-118788210D01*
X96034734Y-118745382D01*
X96113836Y-118673505D01*
X96216740Y-118586929D01*
X96234250Y-118572753D01*
X96394620Y-118438019D01*
X96506368Y-118328322D01*
X96580282Y-118230639D01*
X96627147Y-118131943D01*
X96643779Y-118078250D01*
X96689263Y-117956178D01*
X96750631Y-117843190D01*
X96758944Y-117831306D01*
X96808329Y-117753464D01*
X96870342Y-117641901D01*
X96935881Y-117514939D01*
X96995844Y-117390898D01*
X97041129Y-117288102D01*
X97062632Y-117224872D01*
X97063278Y-117218719D01*
X97078334Y-117167520D01*
X97114686Y-117088171D01*
X97115977Y-117085685D01*
X97153561Y-116995882D01*
X97168894Y-116924985D01*
X97185054Y-116862836D01*
X97199832Y-116846344D01*
X97227948Y-116801248D01*
X97251867Y-116720790D01*
X97277123Y-116646308D01*
X97308536Y-116614248D01*
X97309340Y-116614222D01*
X97329125Y-116646990D01*
G37*
X97329125Y-116646990D02*
X97340561Y-116736347D01*
X97344057Y-116868872D01*
X97340022Y-117031143D01*
X97328864Y-117209740D01*
X97310992Y-117391241D01*
X97286815Y-117562225D01*
X97279163Y-117605363D01*
X97199802Y-117930267D01*
X97095152Y-118189801D01*
X96964973Y-118384557D01*
X96959670Y-118390521D01*
X96768935Y-118594331D01*
X96591736Y-118767432D01*
X96436676Y-118902010D01*
X96312357Y-118990253D01*
X96280648Y-119007343D01*
X96157335Y-119056884D01*
X96028892Y-119093032D01*
X95915740Y-119111683D01*
X95838301Y-119108733D01*
X95820977Y-119099712D01*
X95817107Y-119051801D01*
X95849348Y-118975689D01*
X95906616Y-118895617D01*
X95921543Y-118879806D01*
X95977071Y-118814840D01*
X95995347Y-118788210D01*
X96034734Y-118745382D01*
X96113836Y-118673505D01*
X96216740Y-118586929D01*
X96234250Y-118572753D01*
X96394620Y-118438019D01*
X96506368Y-118328322D01*
X96580282Y-118230639D01*
X96627147Y-118131943D01*
X96643779Y-118078250D01*
X96689263Y-117956178D01*
X96750631Y-117843190D01*
X96758944Y-117831306D01*
X96808329Y-117753464D01*
X96870342Y-117641901D01*
X96935881Y-117514939D01*
X96995844Y-117390898D01*
X97041129Y-117288102D01*
X97062632Y-117224872D01*
X97063278Y-117218719D01*
X97078334Y-117167520D01*
X97114686Y-117088171D01*
X97115977Y-117085685D01*
X97153561Y-116995882D01*
X97168894Y-116924985D01*
X97185054Y-116862836D01*
X97199832Y-116846344D01*
X97227948Y-116801248D01*
X97251867Y-116720790D01*
X97277123Y-116646308D01*
X97308536Y-116614248D01*
X97309340Y-116614222D01*
X97329125Y-116646990D01*
X98115213Y-118304600D02*
X98134446Y-118317320D01*
X98134446Y-118317320D02*
X98192088Y-118396240D01*
X98192088Y-118396240D02*
X98227221Y-118517752D01*
X98227221Y-118517752D02*
X98234101Y-118655912D01*
X98234101Y-118655912D02*
X98224751Y-118725038D01*
X98224751Y-118725038D02*
X98195339Y-118804347D01*
X98195339Y-118804347D02*
X98140776Y-118909736D01*
X98140776Y-118909736D02*
X98073904Y-119020397D01*
X98073904Y-119020397D02*
X98007565Y-119115524D01*
X98007565Y-119115524D02*
X97954603Y-119174310D01*
X97954603Y-119174310D02*
X97942704Y-119181992D01*
X97942704Y-119181992D02*
X97904290Y-119209901D01*
X97904290Y-119209901D02*
X97835195Y-119267924D01*
X97835195Y-119267924D02*
X97805357Y-119294221D01*
X97805357Y-119294221D02*
X97733244Y-119346478D01*
X97733244Y-119346478D02*
X97612324Y-119421095D01*
X97612324Y-119421095D02*
X97457229Y-119509555D01*
X97457229Y-119509555D02*
X97282593Y-119603341D01*
X97282593Y-119603341D02*
X97209570Y-119640935D01*
X97209570Y-119640935D02*
X96921936Y-119787893D01*
X96921936Y-119787893D02*
X96692551Y-119907002D01*
X96692551Y-119907002D02*
X96516147Y-120001131D01*
X96516147Y-120001131D02*
X96387455Y-120073150D01*
X96387455Y-120073150D02*
X96301207Y-120125929D01*
X96301207Y-120125929D02*
X96252134Y-120162337D01*
X96252134Y-120162337D02*
X96251889Y-120162559D01*
X96251889Y-120162559D02*
X96084003Y-120311852D01*
X96084003Y-120311852D02*
X95930005Y-120442671D01*
X95930005Y-120442671D02*
X95797891Y-120548763D01*
X95797891Y-120548763D02*
X95695659Y-120623872D01*
X95695659Y-120623872D02*
X95631305Y-120661745D01*
X95631305Y-120661745D02*
X95612867Y-120662347D01*
X95612867Y-120662347D02*
X95606405Y-120625022D01*
X95606405Y-120625022D02*
X95596522Y-120547694D01*
X95596522Y-120547694D02*
X95599279Y-120475035D01*
X95599279Y-120475035D02*
X95634119Y-120406108D01*
X95634119Y-120406108D02*
X95712459Y-120320222D01*
X95712459Y-120320222D02*
X95732836Y-120300628D01*
X95732836Y-120300628D02*
X95969590Y-120094200D01*
X95969590Y-120094200D02*
X96183998Y-119947132D01*
X96183998Y-119947132D02*
X96322445Y-119877722D01*
X96322445Y-119877722D02*
X96540190Y-119766321D01*
X96540190Y-119766321D02*
X96779680Y-119609649D01*
X96779680Y-119609649D02*
X97022771Y-119420635D01*
X97022771Y-119420635D02*
X97238157Y-119225215D01*
X97238157Y-119225215D02*
X97369846Y-119091026D01*
X97369846Y-119091026D02*
X97460833Y-118983477D01*
X97460833Y-118983477D02*
X97524443Y-118883833D01*
X97524443Y-118883833D02*
X97574001Y-118773356D01*
X97574001Y-118773356D02*
X97589699Y-118730889D01*
X97589699Y-118730889D02*
X97675476Y-118542259D01*
X97675476Y-118542259D02*
X97778182Y-118399800D01*
X97778182Y-118399800D02*
X97890550Y-118309026D01*
X97890550Y-118309026D02*
X98005316Y-118275454D01*
X98005316Y-118275454D02*
X98115213Y-118304600D01*
X98115213Y-118304600D02*
X98115213Y-118304600D01*
G36*
X98115213Y-118304600D02*
G01*
X98134446Y-118317320D01*
X98192088Y-118396240D01*
X98227221Y-118517752D01*
X98234101Y-118655912D01*
X98224751Y-118725038D01*
X98195339Y-118804347D01*
X98140776Y-118909736D01*
X98073904Y-119020397D01*
X98007565Y-119115524D01*
X97954603Y-119174310D01*
X97942704Y-119181992D01*
X97904290Y-119209901D01*
X97835195Y-119267924D01*
X97805357Y-119294221D01*
X97733244Y-119346478D01*
X97612324Y-119421095D01*
X97457229Y-119509555D01*
X97282593Y-119603341D01*
X97209570Y-119640935D01*
X96921936Y-119787893D01*
X96692551Y-119907002D01*
X96516147Y-120001131D01*
X96387455Y-120073150D01*
X96301207Y-120125929D01*
X96252134Y-120162337D01*
X96251889Y-120162559D01*
X96084003Y-120311852D01*
X95930005Y-120442671D01*
X95797891Y-120548763D01*
X95695659Y-120623872D01*
X95631305Y-120661745D01*
X95612867Y-120662347D01*
X95606405Y-120625022D01*
X95596522Y-120547694D01*
X95599279Y-120475035D01*
X95634119Y-120406108D01*
X95712459Y-120320222D01*
X95732836Y-120300628D01*
X95969590Y-120094200D01*
X96183998Y-119947132D01*
X96322445Y-119877722D01*
X96540190Y-119766321D01*
X96779680Y-119609649D01*
X97022771Y-119420635D01*
X97238157Y-119225215D01*
X97369846Y-119091026D01*
X97460833Y-118983477D01*
X97524443Y-118883833D01*
X97574001Y-118773356D01*
X97589699Y-118730889D01*
X97675476Y-118542259D01*
X97778182Y-118399800D01*
X97890550Y-118309026D01*
X98005316Y-118275454D01*
X98115213Y-118304600D01*
G37*
X98115213Y-118304600D02*
X98134446Y-118317320D01*
X98192088Y-118396240D01*
X98227221Y-118517752D01*
X98234101Y-118655912D01*
X98224751Y-118725038D01*
X98195339Y-118804347D01*
X98140776Y-118909736D01*
X98073904Y-119020397D01*
X98007565Y-119115524D01*
X97954603Y-119174310D01*
X97942704Y-119181992D01*
X97904290Y-119209901D01*
X97835195Y-119267924D01*
X97805357Y-119294221D01*
X97733244Y-119346478D01*
X97612324Y-119421095D01*
X97457229Y-119509555D01*
X97282593Y-119603341D01*
X97209570Y-119640935D01*
X96921936Y-119787893D01*
X96692551Y-119907002D01*
X96516147Y-120001131D01*
X96387455Y-120073150D01*
X96301207Y-120125929D01*
X96252134Y-120162337D01*
X96251889Y-120162559D01*
X96084003Y-120311852D01*
X95930005Y-120442671D01*
X95797891Y-120548763D01*
X95695659Y-120623872D01*
X95631305Y-120661745D01*
X95612867Y-120662347D01*
X95606405Y-120625022D01*
X95596522Y-120547694D01*
X95599279Y-120475035D01*
X95634119Y-120406108D01*
X95712459Y-120320222D01*
X95732836Y-120300628D01*
X95969590Y-120094200D01*
X96183998Y-119947132D01*
X96322445Y-119877722D01*
X96540190Y-119766321D01*
X96779680Y-119609649D01*
X97022771Y-119420635D01*
X97238157Y-119225215D01*
X97369846Y-119091026D01*
X97460833Y-118983477D01*
X97524443Y-118883833D01*
X97574001Y-118773356D01*
X97589699Y-118730889D01*
X97675476Y-118542259D01*
X97778182Y-118399800D01*
X97890550Y-118309026D01*
X98005316Y-118275454D01*
X98115213Y-118304600D01*
X95908240Y-112305155D02*
X96048684Y-112362087D01*
X96048684Y-112362087D02*
X96099468Y-112401649D01*
X96099468Y-112401649D02*
X96157917Y-112479278D01*
X96157917Y-112479278D02*
X96151087Y-112530237D01*
X96151087Y-112530237D02*
X96078858Y-112554781D01*
X96078858Y-112554781D02*
X96026651Y-112557278D01*
X96026651Y-112557278D02*
X95915485Y-112581741D01*
X95915485Y-112581741D02*
X95823267Y-112659603D01*
X95823267Y-112659603D02*
X95743686Y-112797572D01*
X95743686Y-112797572D02*
X95703112Y-112901236D01*
X95703112Y-112901236D02*
X95659901Y-113002906D01*
X95659901Y-113002906D02*
X95616756Y-113070178D01*
X95616756Y-113070178D02*
X95592281Y-113086444D01*
X95592281Y-113086444D02*
X95549987Y-113065467D01*
X95549987Y-113065467D02*
X95546333Y-113052073D01*
X95546333Y-113052073D02*
X95515677Y-113009145D01*
X95515677Y-113009145D02*
X95439645Y-112963867D01*
X95439645Y-112963867D02*
X95342142Y-112927237D01*
X95342142Y-112927237D02*
X95247075Y-112910252D01*
X95247075Y-112910252D02*
X95237641Y-112910056D01*
X95237641Y-112910056D02*
X95122321Y-112889494D01*
X95122321Y-112889494D02*
X95063191Y-112831526D01*
X95063191Y-112831526D02*
X95060488Y-112741724D01*
X95060488Y-112741724D02*
X95114448Y-112625659D01*
X95114448Y-112625659D02*
X95220014Y-112494453D01*
X95220014Y-112494453D02*
X95329026Y-112389315D01*
X95329026Y-112389315D02*
X95421002Y-112328174D01*
X95421002Y-112328174D02*
X95518658Y-112296733D01*
X95518658Y-112296733D02*
X95540351Y-112292835D01*
X95540351Y-112292835D02*
X95732205Y-112280788D01*
X95732205Y-112280788D02*
X95908240Y-112305155D01*
X95908240Y-112305155D02*
X95908240Y-112305155D01*
G36*
X95908240Y-112305155D02*
G01*
X96048684Y-112362087D01*
X96099468Y-112401649D01*
X96157917Y-112479278D01*
X96151087Y-112530237D01*
X96078858Y-112554781D01*
X96026651Y-112557278D01*
X95915485Y-112581741D01*
X95823267Y-112659603D01*
X95743686Y-112797572D01*
X95703112Y-112901236D01*
X95659901Y-113002906D01*
X95616756Y-113070178D01*
X95592281Y-113086444D01*
X95549987Y-113065467D01*
X95546333Y-113052073D01*
X95515677Y-113009145D01*
X95439645Y-112963867D01*
X95342142Y-112927237D01*
X95247075Y-112910252D01*
X95237641Y-112910056D01*
X95122321Y-112889494D01*
X95063191Y-112831526D01*
X95060488Y-112741724D01*
X95114448Y-112625659D01*
X95220014Y-112494453D01*
X95329026Y-112389315D01*
X95421002Y-112328174D01*
X95518658Y-112296733D01*
X95540351Y-112292835D01*
X95732205Y-112280788D01*
X95908240Y-112305155D01*
G37*
X95908240Y-112305155D02*
X96048684Y-112362087D01*
X96099468Y-112401649D01*
X96157917Y-112479278D01*
X96151087Y-112530237D01*
X96078858Y-112554781D01*
X96026651Y-112557278D01*
X95915485Y-112581741D01*
X95823267Y-112659603D01*
X95743686Y-112797572D01*
X95703112Y-112901236D01*
X95659901Y-113002906D01*
X95616756Y-113070178D01*
X95592281Y-113086444D01*
X95549987Y-113065467D01*
X95546333Y-113052073D01*
X95515677Y-113009145D01*
X95439645Y-112963867D01*
X95342142Y-112927237D01*
X95247075Y-112910252D01*
X95237641Y-112910056D01*
X95122321Y-112889494D01*
X95063191Y-112831526D01*
X95060488Y-112741724D01*
X95114448Y-112625659D01*
X95220014Y-112494453D01*
X95329026Y-112389315D01*
X95421002Y-112328174D01*
X95518658Y-112296733D01*
X95540351Y-112292835D01*
X95732205Y-112280788D01*
X95908240Y-112305155D01*
X96684057Y-117540355D02*
X96711053Y-117578776D01*
X96711053Y-117578776D02*
X96682170Y-117652105D01*
X96682170Y-117652105D02*
X96665281Y-117675820D01*
X96665281Y-117675820D02*
X96605298Y-117721571D01*
X96605298Y-117721571D02*
X96507637Y-117764190D01*
X96507637Y-117764190D02*
X96390083Y-117799834D01*
X96390083Y-117799834D02*
X96270419Y-117824661D01*
X96270419Y-117824661D02*
X96166429Y-117834829D01*
X96166429Y-117834829D02*
X96095896Y-117826496D01*
X96095896Y-117826496D02*
X96075500Y-117803234D01*
X96075500Y-117803234D02*
X96105282Y-117762950D01*
X96105282Y-117762950D02*
X96180634Y-117714612D01*
X96180634Y-117714612D02*
X96225431Y-117693639D01*
X96225431Y-117693639D02*
X96346549Y-117642055D01*
X96346549Y-117642055D02*
X96461788Y-117591974D01*
X96461788Y-117591974D02*
X96486526Y-117581017D01*
X96486526Y-117581017D02*
X96607206Y-117540037D01*
X96607206Y-117540037D02*
X96684057Y-117540355D01*
X96684057Y-117540355D02*
X96684057Y-117540355D01*
G36*
X96684057Y-117540355D02*
G01*
X96711053Y-117578776D01*
X96682170Y-117652105D01*
X96665281Y-117675820D01*
X96605298Y-117721571D01*
X96507637Y-117764190D01*
X96390083Y-117799834D01*
X96270419Y-117824661D01*
X96166429Y-117834829D01*
X96095896Y-117826496D01*
X96075500Y-117803234D01*
X96105282Y-117762950D01*
X96180634Y-117714612D01*
X96225431Y-117693639D01*
X96346549Y-117642055D01*
X96461788Y-117591974D01*
X96486526Y-117581017D01*
X96607206Y-117540037D01*
X96684057Y-117540355D01*
G37*
X96684057Y-117540355D02*
X96711053Y-117578776D01*
X96682170Y-117652105D01*
X96665281Y-117675820D01*
X96605298Y-117721571D01*
X96507637Y-117764190D01*
X96390083Y-117799834D01*
X96270419Y-117824661D01*
X96166429Y-117834829D01*
X96095896Y-117826496D01*
X96075500Y-117803234D01*
X96105282Y-117762950D01*
X96180634Y-117714612D01*
X96225431Y-117693639D01*
X96346549Y-117642055D01*
X96461788Y-117591974D01*
X96486526Y-117581017D01*
X96607206Y-117540037D01*
X96684057Y-117540355D01*
X95874687Y-117570478D02*
X95936667Y-117661155D01*
X95936667Y-117661155D02*
X95965873Y-117807833D01*
X95965873Y-117807833D02*
X95962075Y-118008236D01*
X95962075Y-118008236D02*
X95925046Y-118260084D01*
X95925046Y-118260084D02*
X95854555Y-118561100D01*
X95854555Y-118561100D02*
X95779175Y-118819083D01*
X95779175Y-118819083D02*
X95728769Y-118946044D01*
X95728769Y-118946044D02*
X95665415Y-119062726D01*
X95665415Y-119062726D02*
X95637931Y-119101306D01*
X95637931Y-119101306D02*
X95552005Y-119207139D01*
X95552005Y-119207139D02*
X95510043Y-119101306D01*
X95510043Y-119101306D02*
X95479193Y-118979385D01*
X95479193Y-118979385D02*
X95458262Y-118806232D01*
X95458262Y-118806232D02*
X95447525Y-118600511D01*
X95447525Y-118600511D02*
X95447258Y-118380882D01*
X95447258Y-118380882D02*
X95457737Y-118166008D01*
X95457737Y-118166008D02*
X95479236Y-117974551D01*
X95479236Y-117974551D02*
X95492335Y-117902174D01*
X95492335Y-117902174D02*
X95525148Y-117756046D01*
X95525148Y-117756046D02*
X95553797Y-117663723D01*
X95553797Y-117663723D02*
X95585838Y-117609434D01*
X95585838Y-117609434D02*
X95628830Y-117577410D01*
X95628830Y-117577410D02*
X95653318Y-117566245D01*
X95653318Y-117566245D02*
X95780161Y-117538083D01*
X95780161Y-117538083D02*
X95874687Y-117570478D01*
X95874687Y-117570478D02*
X95874687Y-117570478D01*
G36*
X95874687Y-117570478D02*
G01*
X95936667Y-117661155D01*
X95965873Y-117807833D01*
X95962075Y-118008236D01*
X95925046Y-118260084D01*
X95854555Y-118561100D01*
X95779175Y-118819083D01*
X95728769Y-118946044D01*
X95665415Y-119062726D01*
X95637931Y-119101306D01*
X95552005Y-119207139D01*
X95510043Y-119101306D01*
X95479193Y-118979385D01*
X95458262Y-118806232D01*
X95447525Y-118600511D01*
X95447258Y-118380882D01*
X95457737Y-118166008D01*
X95479236Y-117974551D01*
X95492335Y-117902174D01*
X95525148Y-117756046D01*
X95553797Y-117663723D01*
X95585838Y-117609434D01*
X95628830Y-117577410D01*
X95653318Y-117566245D01*
X95780161Y-117538083D01*
X95874687Y-117570478D01*
G37*
X95874687Y-117570478D02*
X95936667Y-117661155D01*
X95965873Y-117807833D01*
X95962075Y-118008236D01*
X95925046Y-118260084D01*
X95854555Y-118561100D01*
X95779175Y-118819083D01*
X95728769Y-118946044D01*
X95665415Y-119062726D01*
X95637931Y-119101306D01*
X95552005Y-119207139D01*
X95510043Y-119101306D01*
X95479193Y-118979385D01*
X95458262Y-118806232D01*
X95447525Y-118600511D01*
X95447258Y-118380882D01*
X95457737Y-118166008D01*
X95479236Y-117974551D01*
X95492335Y-117902174D01*
X95525148Y-117756046D01*
X95553797Y-117663723D01*
X95585838Y-117609434D01*
X95628830Y-117577410D01*
X95653318Y-117566245D01*
X95780161Y-117538083D01*
X95874687Y-117570478D01*
X97192070Y-112114458D02*
X97233866Y-112163165D01*
X97233866Y-112163165D02*
X97263887Y-112211833D01*
X97263887Y-112211833D02*
X97353593Y-112403447D01*
X97353593Y-112403447D02*
X97418951Y-112619515D01*
X97418951Y-112619515D02*
X97450062Y-112825358D01*
X97450062Y-112825358D02*
X97451333Y-112868661D01*
X97451333Y-112868661D02*
X97448653Y-112973037D01*
X97448653Y-112973037D02*
X97432202Y-113027607D01*
X97432202Y-113027607D02*
X97389364Y-113053111D01*
X97389364Y-113053111D02*
X97331406Y-113065813D01*
X97331406Y-113065813D02*
X97236626Y-113095800D01*
X97236626Y-113095800D02*
X97170531Y-113137788D01*
X97170531Y-113137788D02*
X97168336Y-113140295D01*
X97168336Y-113140295D02*
X97120530Y-113184423D01*
X97120530Y-113184423D02*
X97088051Y-113174633D01*
X97088051Y-113174633D02*
X97065367Y-113104836D01*
X97065367Y-113104836D02*
X97051757Y-113012024D01*
X97051757Y-113012024D02*
X97025204Y-112880197D01*
X97025204Y-112880197D02*
X96983058Y-112757451D01*
X96983058Y-112757451D02*
X96963090Y-112717673D01*
X96963090Y-112717673D02*
X96926835Y-112651590D01*
X96926835Y-112651590D02*
X96914874Y-112599451D01*
X96914874Y-112599451D02*
X96928703Y-112536850D01*
X96928703Y-112536850D02*
X96969815Y-112439381D01*
X96969815Y-112439381D02*
X96981758Y-112412857D01*
X96981758Y-112412857D02*
X97055750Y-112253624D01*
X97055750Y-112253624D02*
X97110485Y-112154363D01*
X97110485Y-112154363D02*
X97153434Y-112109749D01*
X97153434Y-112109749D02*
X97192070Y-112114458D01*
X97192070Y-112114458D02*
X97192070Y-112114458D01*
G36*
X97192070Y-112114458D02*
G01*
X97233866Y-112163165D01*
X97263887Y-112211833D01*
X97353593Y-112403447D01*
X97418951Y-112619515D01*
X97450062Y-112825358D01*
X97451333Y-112868661D01*
X97448653Y-112973037D01*
X97432202Y-113027607D01*
X97389364Y-113053111D01*
X97331406Y-113065813D01*
X97236626Y-113095800D01*
X97170531Y-113137788D01*
X97168336Y-113140295D01*
X97120530Y-113184423D01*
X97088051Y-113174633D01*
X97065367Y-113104836D01*
X97051757Y-113012024D01*
X97025204Y-112880197D01*
X96983058Y-112757451D01*
X96963090Y-112717673D01*
X96926835Y-112651590D01*
X96914874Y-112599451D01*
X96928703Y-112536850D01*
X96969815Y-112439381D01*
X96981758Y-112412857D01*
X97055750Y-112253624D01*
X97110485Y-112154363D01*
X97153434Y-112109749D01*
X97192070Y-112114458D01*
G37*
X97192070Y-112114458D02*
X97233866Y-112163165D01*
X97263887Y-112211833D01*
X97353593Y-112403447D01*
X97418951Y-112619515D01*
X97450062Y-112825358D01*
X97451333Y-112868661D01*
X97448653Y-112973037D01*
X97432202Y-113027607D01*
X97389364Y-113053111D01*
X97331406Y-113065813D01*
X97236626Y-113095800D01*
X97170531Y-113137788D01*
X97168336Y-113140295D01*
X97120530Y-113184423D01*
X97088051Y-113174633D01*
X97065367Y-113104836D01*
X97051757Y-113012024D01*
X97025204Y-112880197D01*
X96983058Y-112757451D01*
X96963090Y-112717673D01*
X96926835Y-112651590D01*
X96914874Y-112599451D01*
X96928703Y-112536850D01*
X96969815Y-112439381D01*
X96981758Y-112412857D01*
X97055750Y-112253624D01*
X97110485Y-112154363D01*
X97153434Y-112109749D01*
X97192070Y-112114458D01*
X94124363Y-112443080D02*
X94181218Y-112525721D01*
X94181218Y-112525721D02*
X94183834Y-112535045D01*
X94183834Y-112535045D02*
X94186669Y-112617878D01*
X94186669Y-112617878D02*
X94165989Y-112708268D01*
X94165989Y-112708268D02*
X94130766Y-112779241D01*
X94130766Y-112779241D02*
X94094282Y-112804222D01*
X94094282Y-112804222D02*
X94072423Y-112834709D01*
X94072423Y-112834709D02*
X94063545Y-112901236D01*
X94063545Y-112901236D02*
X94043753Y-113001092D01*
X94043753Y-113001092D02*
X94010628Y-113066729D01*
X94010628Y-113066729D02*
X93975647Y-113147807D01*
X93975647Y-113147807D02*
X93959046Y-113254808D01*
X93959046Y-113254808D02*
X93958833Y-113267056D01*
X93958833Y-113267056D02*
X93943779Y-113365617D01*
X93943779Y-113365617D02*
X93906398Y-113447745D01*
X93906398Y-113447745D02*
X93858366Y-113494471D01*
X93858366Y-113494471D02*
X93819593Y-113493295D01*
X93819593Y-113493295D02*
X93777287Y-113502547D01*
X93777287Y-113502547D02*
X93725643Y-113556450D01*
X93725643Y-113556450D02*
X93678572Y-113633040D01*
X93678572Y-113633040D02*
X93649989Y-113710353D01*
X93649989Y-113710353D02*
X93650575Y-113760120D01*
X93650575Y-113760120D02*
X93637204Y-113805418D01*
X93637204Y-113805418D02*
X93588916Y-113859148D01*
X93588916Y-113859148D02*
X93532001Y-113894649D01*
X93532001Y-113894649D02*
X93514783Y-113897833D01*
X93514783Y-113897833D02*
X93461359Y-113870020D01*
X93461359Y-113870020D02*
X93432037Y-113831706D01*
X93432037Y-113831706D02*
X93418211Y-113750562D01*
X93418211Y-113750562D02*
X93428800Y-113618951D01*
X93428800Y-113618951D02*
X93459652Y-113450922D01*
X93459652Y-113450922D02*
X93506614Y-113260521D01*
X93506614Y-113260521D02*
X93565534Y-113061797D01*
X93565534Y-113061797D02*
X93632261Y-112868796D01*
X93632261Y-112868796D02*
X93702643Y-112695567D01*
X93702643Y-112695567D02*
X93772528Y-112556156D01*
X93772528Y-112556156D02*
X93835361Y-112467109D01*
X93835361Y-112467109D02*
X93928654Y-112409333D01*
X93928654Y-112409333D02*
X94032582Y-112402804D01*
X94032582Y-112402804D02*
X94124363Y-112443080D01*
X94124363Y-112443080D02*
X94124363Y-112443080D01*
G36*
X94124363Y-112443080D02*
G01*
X94181218Y-112525721D01*
X94183834Y-112535045D01*
X94186669Y-112617878D01*
X94165989Y-112708268D01*
X94130766Y-112779241D01*
X94094282Y-112804222D01*
X94072423Y-112834709D01*
X94063545Y-112901236D01*
X94043753Y-113001092D01*
X94010628Y-113066729D01*
X93975647Y-113147807D01*
X93959046Y-113254808D01*
X93958833Y-113267056D01*
X93943779Y-113365617D01*
X93906398Y-113447745D01*
X93858366Y-113494471D01*
X93819593Y-113493295D01*
X93777287Y-113502547D01*
X93725643Y-113556450D01*
X93678572Y-113633040D01*
X93649989Y-113710353D01*
X93650575Y-113760120D01*
X93637204Y-113805418D01*
X93588916Y-113859148D01*
X93532001Y-113894649D01*
X93514783Y-113897833D01*
X93461359Y-113870020D01*
X93432037Y-113831706D01*
X93418211Y-113750562D01*
X93428800Y-113618951D01*
X93459652Y-113450922D01*
X93506614Y-113260521D01*
X93565534Y-113061797D01*
X93632261Y-112868796D01*
X93702643Y-112695567D01*
X93772528Y-112556156D01*
X93835361Y-112467109D01*
X93928654Y-112409333D01*
X94032582Y-112402804D01*
X94124363Y-112443080D01*
G37*
X94124363Y-112443080D02*
X94181218Y-112525721D01*
X94183834Y-112535045D01*
X94186669Y-112617878D01*
X94165989Y-112708268D01*
X94130766Y-112779241D01*
X94094282Y-112804222D01*
X94072423Y-112834709D01*
X94063545Y-112901236D01*
X94043753Y-113001092D01*
X94010628Y-113066729D01*
X93975647Y-113147807D01*
X93959046Y-113254808D01*
X93958833Y-113267056D01*
X93943779Y-113365617D01*
X93906398Y-113447745D01*
X93858366Y-113494471D01*
X93819593Y-113493295D01*
X93777287Y-113502547D01*
X93725643Y-113556450D01*
X93678572Y-113633040D01*
X93649989Y-113710353D01*
X93650575Y-113760120D01*
X93637204Y-113805418D01*
X93588916Y-113859148D01*
X93532001Y-113894649D01*
X93514783Y-113897833D01*
X93461359Y-113870020D01*
X93432037Y-113831706D01*
X93418211Y-113750562D01*
X93428800Y-113618951D01*
X93459652Y-113450922D01*
X93506614Y-113260521D01*
X93565534Y-113061797D01*
X93632261Y-112868796D01*
X93702643Y-112695567D01*
X93772528Y-112556156D01*
X93835361Y-112467109D01*
X93928654Y-112409333D01*
X94032582Y-112402804D01*
X94124363Y-112443080D01*
X98009535Y-114317700D02*
X98012196Y-114402557D01*
X98012196Y-114402557D02*
X98003521Y-114524594D01*
X98003521Y-114524594D02*
X97985414Y-114667944D01*
X97985414Y-114667944D02*
X97959779Y-114816742D01*
X97959779Y-114816742D02*
X97928520Y-114955122D01*
X97928520Y-114955122D02*
X97903016Y-115041110D01*
X97903016Y-115041110D02*
X97841920Y-115196117D01*
X97841920Y-115196117D02*
X97757439Y-115379892D01*
X97757439Y-115379892D02*
X97661358Y-115569301D01*
X97661358Y-115569301D02*
X97565466Y-115741210D01*
X97565466Y-115741210D02*
X97481549Y-115872485D01*
X97481549Y-115872485D02*
X97474476Y-115882208D01*
X97474476Y-115882208D02*
X97407190Y-115960327D01*
X97407190Y-115960327D02*
X97364052Y-115977049D01*
X97364052Y-115977049D02*
X97343349Y-115930425D01*
X97343349Y-115930425D02*
X97343365Y-115818510D01*
X97343365Y-115818510D02*
X97350222Y-115741097D01*
X97350222Y-115741097D02*
X97371550Y-115581682D01*
X97371550Y-115581682D02*
X97403270Y-115432079D01*
X97403270Y-115432079D02*
X97450818Y-115274389D01*
X97450818Y-115274389D02*
X97519628Y-115090714D01*
X97519628Y-115090714D02*
X97615135Y-114863156D01*
X97615135Y-114863156D02*
X97620696Y-114850333D01*
X97620696Y-114850333D02*
X97669478Y-114752679D01*
X97669478Y-114752679D02*
X97737012Y-114635817D01*
X97737012Y-114635817D02*
X97813031Y-114515283D01*
X97813031Y-114515283D02*
X97887270Y-114406616D01*
X97887270Y-114406616D02*
X97949463Y-114325353D01*
X97949463Y-114325353D02*
X97989343Y-114287033D01*
X97989343Y-114287033D02*
X97993635Y-114285889D01*
X97993635Y-114285889D02*
X98009535Y-114317700D01*
X98009535Y-114317700D02*
X98009535Y-114317700D01*
G36*
X98009535Y-114317700D02*
G01*
X98012196Y-114402557D01*
X98003521Y-114524594D01*
X97985414Y-114667944D01*
X97959779Y-114816742D01*
X97928520Y-114955122D01*
X97903016Y-115041110D01*
X97841920Y-115196117D01*
X97757439Y-115379892D01*
X97661358Y-115569301D01*
X97565466Y-115741210D01*
X97481549Y-115872485D01*
X97474476Y-115882208D01*
X97407190Y-115960327D01*
X97364052Y-115977049D01*
X97343349Y-115930425D01*
X97343365Y-115818510D01*
X97350222Y-115741097D01*
X97371550Y-115581682D01*
X97403270Y-115432079D01*
X97450818Y-115274389D01*
X97519628Y-115090714D01*
X97615135Y-114863156D01*
X97620696Y-114850333D01*
X97669478Y-114752679D01*
X97737012Y-114635817D01*
X97813031Y-114515283D01*
X97887270Y-114406616D01*
X97949463Y-114325353D01*
X97989343Y-114287033D01*
X97993635Y-114285889D01*
X98009535Y-114317700D01*
G37*
X98009535Y-114317700D02*
X98012196Y-114402557D01*
X98003521Y-114524594D01*
X97985414Y-114667944D01*
X97959779Y-114816742D01*
X97928520Y-114955122D01*
X97903016Y-115041110D01*
X97841920Y-115196117D01*
X97757439Y-115379892D01*
X97661358Y-115569301D01*
X97565466Y-115741210D01*
X97481549Y-115872485D01*
X97474476Y-115882208D01*
X97407190Y-115960327D01*
X97364052Y-115977049D01*
X97343349Y-115930425D01*
X97343365Y-115818510D01*
X97350222Y-115741097D01*
X97371550Y-115581682D01*
X97403270Y-115432079D01*
X97450818Y-115274389D01*
X97519628Y-115090714D01*
X97615135Y-114863156D01*
X97620696Y-114850333D01*
X97669478Y-114752679D01*
X97737012Y-114635817D01*
X97813031Y-114515283D01*
X97887270Y-114406616D01*
X97949463Y-114325353D01*
X97989343Y-114287033D01*
X97993635Y-114285889D01*
X98009535Y-114317700D01*
X95247324Y-112995002D02*
X95331489Y-113042488D01*
X95331489Y-113042488D02*
X95409402Y-113129538D01*
X95409402Y-113129538D02*
X95485012Y-113262623D01*
X95485012Y-113262623D02*
X95562266Y-113448211D01*
X95562266Y-113448211D02*
X95645115Y-113692773D01*
X95645115Y-113692773D02*
X95702004Y-113880194D01*
X95702004Y-113880194D02*
X95771112Y-114223167D01*
X95771112Y-114223167D02*
X95777379Y-114560520D01*
X95777379Y-114560520D02*
X95720925Y-114880559D01*
X95720925Y-114880559D02*
X95690930Y-114973806D01*
X95690930Y-114973806D02*
X95659080Y-115063990D01*
X95659080Y-115063990D02*
X95615067Y-115190460D01*
X95615067Y-115190460D02*
X95577257Y-115300125D01*
X95577257Y-115300125D02*
X95531634Y-115426335D01*
X95531634Y-115426335D02*
X95498026Y-115493940D01*
X95498026Y-115493940D02*
X95468159Y-115511912D01*
X95468159Y-115511912D02*
X95433762Y-115489222D01*
X95433762Y-115489222D02*
X95418358Y-115472462D01*
X95418358Y-115472462D02*
X95374604Y-115401232D01*
X95374604Y-115401232D02*
X95355096Y-115353013D01*
X95355096Y-115353013D02*
X95302500Y-115260865D01*
X95302500Y-115260865D02*
X95205806Y-115151076D01*
X95205806Y-115151076D02*
X95082590Y-115040273D01*
X95082590Y-115040273D02*
X94950428Y-114945084D01*
X94950428Y-114945084D02*
X94883871Y-114907210D01*
X94883871Y-114907210D02*
X94784334Y-114855587D01*
X94784334Y-114855587D02*
X94713464Y-114809250D01*
X94713464Y-114809250D02*
X94667384Y-114755925D01*
X94667384Y-114755925D02*
X94642216Y-114683337D01*
X94642216Y-114683337D02*
X94634081Y-114579210D01*
X94634081Y-114579210D02*
X94639101Y-114431271D01*
X94639101Y-114431271D02*
X94653399Y-114227244D01*
X94653399Y-114227244D02*
X94656392Y-114187192D01*
X94656392Y-114187192D02*
X94675509Y-113942026D01*
X94675509Y-113942026D02*
X94692848Y-113754670D01*
X94692848Y-113754670D02*
X94710704Y-113612496D01*
X94710704Y-113612496D02*
X94731374Y-113502876D01*
X94731374Y-113502876D02*
X94757151Y-113413182D01*
X94757151Y-113413182D02*
X94790330Y-113330786D01*
X94790330Y-113330786D02*
X94825098Y-113258968D01*
X94825098Y-113258968D02*
X94904288Y-113118430D01*
X94904288Y-113118430D02*
X94976777Y-113033230D01*
X94976777Y-113033230D02*
X95056762Y-112991315D01*
X95056762Y-112991315D02*
X95152958Y-112980611D01*
X95152958Y-112980611D02*
X95247324Y-112995002D01*
X95247324Y-112995002D02*
X95247324Y-112995002D01*
G36*
X95247324Y-112995002D02*
G01*
X95331489Y-113042488D01*
X95409402Y-113129538D01*
X95485012Y-113262623D01*
X95562266Y-113448211D01*
X95645115Y-113692773D01*
X95702004Y-113880194D01*
X95771112Y-114223167D01*
X95777379Y-114560520D01*
X95720925Y-114880559D01*
X95690930Y-114973806D01*
X95659080Y-115063990D01*
X95615067Y-115190460D01*
X95577257Y-115300125D01*
X95531634Y-115426335D01*
X95498026Y-115493940D01*
X95468159Y-115511912D01*
X95433762Y-115489222D01*
X95418358Y-115472462D01*
X95374604Y-115401232D01*
X95355096Y-115353013D01*
X95302500Y-115260865D01*
X95205806Y-115151076D01*
X95082590Y-115040273D01*
X94950428Y-114945084D01*
X94883871Y-114907210D01*
X94784334Y-114855587D01*
X94713464Y-114809250D01*
X94667384Y-114755925D01*
X94642216Y-114683337D01*
X94634081Y-114579210D01*
X94639101Y-114431271D01*
X94653399Y-114227244D01*
X94656392Y-114187192D01*
X94675509Y-113942026D01*
X94692848Y-113754670D01*
X94710704Y-113612496D01*
X94731374Y-113502876D01*
X94757151Y-113413182D01*
X94790330Y-113330786D01*
X94825098Y-113258968D01*
X94904288Y-113118430D01*
X94976777Y-113033230D01*
X95056762Y-112991315D01*
X95152958Y-112980611D01*
X95247324Y-112995002D01*
G37*
X95247324Y-112995002D02*
X95331489Y-113042488D01*
X95409402Y-113129538D01*
X95485012Y-113262623D01*
X95562266Y-113448211D01*
X95645115Y-113692773D01*
X95702004Y-113880194D01*
X95771112Y-114223167D01*
X95777379Y-114560520D01*
X95720925Y-114880559D01*
X95690930Y-114973806D01*
X95659080Y-115063990D01*
X95615067Y-115190460D01*
X95577257Y-115300125D01*
X95531634Y-115426335D01*
X95498026Y-115493940D01*
X95468159Y-115511912D01*
X95433762Y-115489222D01*
X95418358Y-115472462D01*
X95374604Y-115401232D01*
X95355096Y-115353013D01*
X95302500Y-115260865D01*
X95205806Y-115151076D01*
X95082590Y-115040273D01*
X94950428Y-114945084D01*
X94883871Y-114907210D01*
X94784334Y-114855587D01*
X94713464Y-114809250D01*
X94667384Y-114755925D01*
X94642216Y-114683337D01*
X94634081Y-114579210D01*
X94639101Y-114431271D01*
X94653399Y-114227244D01*
X94656392Y-114187192D01*
X94675509Y-113942026D01*
X94692848Y-113754670D01*
X94710704Y-113612496D01*
X94731374Y-113502876D01*
X94757151Y-113413182D01*
X94790330Y-113330786D01*
X94825098Y-113258968D01*
X94904288Y-113118430D01*
X94976777Y-113033230D01*
X95056762Y-112991315D01*
X95152958Y-112980611D01*
X95247324Y-112995002D01*
X93848763Y-117096105D02*
X93865710Y-117112388D01*
X93865710Y-117112388D02*
X93945929Y-117209097D01*
X93945929Y-117209097D02*
X94013133Y-117316132D01*
X94013133Y-117316132D02*
X94049170Y-117404360D01*
X94049170Y-117404360D02*
X94049867Y-117407972D01*
X94049867Y-117407972D02*
X94068009Y-117479543D01*
X94068009Y-117479543D02*
X94102812Y-117595523D01*
X94102812Y-117595523D02*
X94147122Y-117733909D01*
X94147122Y-117733909D02*
X94193781Y-117872697D01*
X94193781Y-117872697D02*
X94235634Y-117989882D01*
X94235634Y-117989882D02*
X94256215Y-118042479D01*
X94256215Y-118042479D02*
X94312217Y-118137080D01*
X94312217Y-118137080D02*
X94402482Y-118250232D01*
X94402482Y-118250232D02*
X94497399Y-118347711D01*
X94497399Y-118347711D02*
X94592742Y-118439358D01*
X94592742Y-118439358D02*
X94640171Y-118497777D01*
X94640171Y-118497777D02*
X94646742Y-118533970D01*
X94646742Y-118533970D02*
X94629111Y-118553141D01*
X94629111Y-118553141D02*
X94556511Y-118583587D01*
X94556511Y-118583587D02*
X94470576Y-118575777D01*
X94470576Y-118575777D02*
X94351226Y-118527391D01*
X94351226Y-118527391D02*
X94334414Y-118519103D01*
X94334414Y-118519103D02*
X94226530Y-118461596D01*
X94226530Y-118461596D02*
X94149643Y-118406216D01*
X94149643Y-118406216D02*
X94083138Y-118333606D01*
X94083138Y-118333606D02*
X94006401Y-118224407D01*
X94006401Y-118224407D02*
X93983530Y-118189624D01*
X93983530Y-118189624D02*
X93847451Y-117948136D01*
X93847451Y-117948136D02*
X93746825Y-117700192D01*
X93746825Y-117700192D02*
X93688542Y-117465233D01*
X93688542Y-117465233D02*
X93676611Y-117323726D01*
X93676611Y-117323726D02*
X93687643Y-117167618D01*
X93687643Y-117167618D02*
X93720374Y-117077240D01*
X93720374Y-117077240D02*
X93774263Y-117053199D01*
X93774263Y-117053199D02*
X93848763Y-117096105D01*
X93848763Y-117096105D02*
X93848763Y-117096105D01*
G36*
X93848763Y-117096105D02*
G01*
X93865710Y-117112388D01*
X93945929Y-117209097D01*
X94013133Y-117316132D01*
X94049170Y-117404360D01*
X94049867Y-117407972D01*
X94068009Y-117479543D01*
X94102812Y-117595523D01*
X94147122Y-117733909D01*
X94193781Y-117872697D01*
X94235634Y-117989882D01*
X94256215Y-118042479D01*
X94312217Y-118137080D01*
X94402482Y-118250232D01*
X94497399Y-118347711D01*
X94592742Y-118439358D01*
X94640171Y-118497777D01*
X94646742Y-118533970D01*
X94629111Y-118553141D01*
X94556511Y-118583587D01*
X94470576Y-118575777D01*
X94351226Y-118527391D01*
X94334414Y-118519103D01*
X94226530Y-118461596D01*
X94149643Y-118406216D01*
X94083138Y-118333606D01*
X94006401Y-118224407D01*
X93983530Y-118189624D01*
X93847451Y-117948136D01*
X93746825Y-117700192D01*
X93688542Y-117465233D01*
X93676611Y-117323726D01*
X93687643Y-117167618D01*
X93720374Y-117077240D01*
X93774263Y-117053199D01*
X93848763Y-117096105D01*
G37*
X93848763Y-117096105D02*
X93865710Y-117112388D01*
X93945929Y-117209097D01*
X94013133Y-117316132D01*
X94049170Y-117404360D01*
X94049867Y-117407972D01*
X94068009Y-117479543D01*
X94102812Y-117595523D01*
X94147122Y-117733909D01*
X94193781Y-117872697D01*
X94235634Y-117989882D01*
X94256215Y-118042479D01*
X94312217Y-118137080D01*
X94402482Y-118250232D01*
X94497399Y-118347711D01*
X94592742Y-118439358D01*
X94640171Y-118497777D01*
X94646742Y-118533970D01*
X94629111Y-118553141D01*
X94556511Y-118583587D01*
X94470576Y-118575777D01*
X94351226Y-118527391D01*
X94334414Y-118519103D01*
X94226530Y-118461596D01*
X94149643Y-118406216D01*
X94083138Y-118333606D01*
X94006401Y-118224407D01*
X93983530Y-118189624D01*
X93847451Y-117948136D01*
X93746825Y-117700192D01*
X93688542Y-117465233D01*
X93676611Y-117323726D01*
X93687643Y-117167618D01*
X93720374Y-117077240D01*
X93774263Y-117053199D01*
X93848763Y-117096105D01*
X98637594Y-116630452D02*
X98659801Y-116682681D01*
X98659801Y-116682681D02*
X98669131Y-116729092D01*
X98669131Y-116729092D02*
X98665573Y-116885239D01*
X98665573Y-116885239D02*
X98637444Y-116958675D01*
X98637444Y-116958675D02*
X98582680Y-117037474D01*
X98582680Y-117037474D02*
X98498033Y-117131113D01*
X98498033Y-117131113D02*
X98400137Y-117224308D01*
X98400137Y-117224308D02*
X98305627Y-117301774D01*
X98305627Y-117301774D02*
X98231137Y-117348228D01*
X98231137Y-117348228D02*
X98206036Y-117355056D01*
X98206036Y-117355056D02*
X98143264Y-117369479D01*
X98143264Y-117369479D02*
X98039683Y-117407011D01*
X98039683Y-117407011D02*
X97917509Y-117459046D01*
X97917509Y-117459046D02*
X97831767Y-117500025D01*
X97831767Y-117500025D02*
X97764162Y-117520956D01*
X97764162Y-117520956D02*
X97654663Y-117542325D01*
X97654663Y-117542325D02*
X97570099Y-117554185D01*
X97570099Y-117554185D02*
X97457729Y-117565434D01*
X97457729Y-117565434D02*
X97400895Y-117563089D01*
X97400895Y-117563089D02*
X97385372Y-117544093D01*
X97385372Y-117544093D02*
X97392663Y-117516079D01*
X97392663Y-117516079D02*
X97419539Y-117433950D01*
X97419539Y-117433950D02*
X97439688Y-117360598D01*
X97439688Y-117360598D02*
X97498285Y-117245388D01*
X97498285Y-117245388D02*
X97613704Y-117160674D01*
X97613704Y-117160674D02*
X97645361Y-117146139D01*
X97645361Y-117146139D02*
X97701402Y-117113223D01*
X97701402Y-117113223D02*
X97798593Y-117047382D01*
X97798593Y-117047382D02*
X97922250Y-116958824D01*
X97922250Y-116958824D02*
X98031464Y-116877654D01*
X98031464Y-116877654D02*
X98190728Y-116761875D01*
X98190728Y-116761875D02*
X98311865Y-116685894D01*
X98311865Y-116685894D02*
X98408917Y-116642005D01*
X98408917Y-116642005D02*
X98495924Y-116622501D01*
X98495924Y-116622501D02*
X98496486Y-116622437D01*
X98496486Y-116622437D02*
X98590710Y-116615038D01*
X98590710Y-116615038D02*
X98637594Y-116630452D01*
X98637594Y-116630452D02*
X98637594Y-116630452D01*
G36*
X98637594Y-116630452D02*
G01*
X98659801Y-116682681D01*
X98669131Y-116729092D01*
X98665573Y-116885239D01*
X98637444Y-116958675D01*
X98582680Y-117037474D01*
X98498033Y-117131113D01*
X98400137Y-117224308D01*
X98305627Y-117301774D01*
X98231137Y-117348228D01*
X98206036Y-117355056D01*
X98143264Y-117369479D01*
X98039683Y-117407011D01*
X97917509Y-117459046D01*
X97831767Y-117500025D01*
X97764162Y-117520956D01*
X97654663Y-117542325D01*
X97570099Y-117554185D01*
X97457729Y-117565434D01*
X97400895Y-117563089D01*
X97385372Y-117544093D01*
X97392663Y-117516079D01*
X97419539Y-117433950D01*
X97439688Y-117360598D01*
X97498285Y-117245388D01*
X97613704Y-117160674D01*
X97645361Y-117146139D01*
X97701402Y-117113223D01*
X97798593Y-117047382D01*
X97922250Y-116958824D01*
X98031464Y-116877654D01*
X98190728Y-116761875D01*
X98311865Y-116685894D01*
X98408917Y-116642005D01*
X98495924Y-116622501D01*
X98496486Y-116622437D01*
X98590710Y-116615038D01*
X98637594Y-116630452D01*
G37*
X98637594Y-116630452D02*
X98659801Y-116682681D01*
X98669131Y-116729092D01*
X98665573Y-116885239D01*
X98637444Y-116958675D01*
X98582680Y-117037474D01*
X98498033Y-117131113D01*
X98400137Y-117224308D01*
X98305627Y-117301774D01*
X98231137Y-117348228D01*
X98206036Y-117355056D01*
X98143264Y-117369479D01*
X98039683Y-117407011D01*
X97917509Y-117459046D01*
X97831767Y-117500025D01*
X97764162Y-117520956D01*
X97654663Y-117542325D01*
X97570099Y-117554185D01*
X97457729Y-117565434D01*
X97400895Y-117563089D01*
X97385372Y-117544093D01*
X97392663Y-117516079D01*
X97419539Y-117433950D01*
X97439688Y-117360598D01*
X97498285Y-117245388D01*
X97613704Y-117160674D01*
X97645361Y-117146139D01*
X97701402Y-117113223D01*
X97798593Y-117047382D01*
X97922250Y-116958824D01*
X98031464Y-116877654D01*
X98190728Y-116761875D01*
X98311865Y-116685894D01*
X98408917Y-116642005D01*
X98495924Y-116622501D01*
X98496486Y-116622437D01*
X98590710Y-116615038D01*
X98637594Y-116630452D01*
X96786663Y-111844579D02*
X96838728Y-111907738D01*
X96838728Y-111907738D02*
X96897016Y-111993323D01*
X96897016Y-111993323D02*
X96912695Y-112050918D01*
X96912695Y-112050918D02*
X96893440Y-112101287D01*
X96893440Y-112101287D02*
X96859222Y-112177967D01*
X96859222Y-112177967D02*
X96851611Y-112219578D01*
X96851611Y-112219578D02*
X96833578Y-112279954D01*
X96833578Y-112279954D02*
X96786290Y-112281146D01*
X96786290Y-112281146D02*
X96724827Y-112228303D01*
X96724827Y-112228303D02*
X96643404Y-112149636D01*
X96643404Y-112149636D02*
X96560570Y-112087701D01*
X96560570Y-112087701D02*
X96482386Y-112019199D01*
X96482386Y-112019199D02*
X96472944Y-111950698D01*
X96472944Y-111950698D02*
X96532111Y-111874548D01*
X96532111Y-111874548D02*
X96556508Y-111854283D01*
X96556508Y-111854283D02*
X96646326Y-111796333D01*
X96646326Y-111796333D02*
X96716553Y-111791869D01*
X96716553Y-111791869D02*
X96786663Y-111844579D01*
X96786663Y-111844579D02*
X96786663Y-111844579D01*
G36*
X96786663Y-111844579D02*
G01*
X96838728Y-111907738D01*
X96897016Y-111993323D01*
X96912695Y-112050918D01*
X96893440Y-112101287D01*
X96859222Y-112177967D01*
X96851611Y-112219578D01*
X96833578Y-112279954D01*
X96786290Y-112281146D01*
X96724827Y-112228303D01*
X96643404Y-112149636D01*
X96560570Y-112087701D01*
X96482386Y-112019199D01*
X96472944Y-111950698D01*
X96532111Y-111874548D01*
X96556508Y-111854283D01*
X96646326Y-111796333D01*
X96716553Y-111791869D01*
X96786663Y-111844579D01*
G37*
X96786663Y-111844579D02*
X96838728Y-111907738D01*
X96897016Y-111993323D01*
X96912695Y-112050918D01*
X96893440Y-112101287D01*
X96859222Y-112177967D01*
X96851611Y-112219578D01*
X96833578Y-112279954D01*
X96786290Y-112281146D01*
X96724827Y-112228303D01*
X96643404Y-112149636D01*
X96560570Y-112087701D01*
X96482386Y-112019199D01*
X96472944Y-111950698D01*
X96532111Y-111874548D01*
X96556508Y-111854283D01*
X96646326Y-111796333D01*
X96716553Y-111791869D01*
X96786663Y-111844579D01*
X94407527Y-112036808D02*
X94435213Y-112063532D01*
X94435213Y-112063532D02*
X94477959Y-112130316D01*
X94477959Y-112130316D02*
X94468190Y-112200976D01*
X94468190Y-112200976D02*
X94459076Y-112222282D01*
X94459076Y-112222282D02*
X94417839Y-112287095D01*
X94417839Y-112287095D02*
X94382923Y-112310333D01*
X94382923Y-112310333D02*
X94350608Y-112338743D01*
X94350608Y-112338743D02*
X94346889Y-112361168D01*
X94346889Y-112361168D02*
X94330615Y-112419781D01*
X94330615Y-112419781D02*
X94287557Y-112417331D01*
X94287557Y-112417331D02*
X94232236Y-112361799D01*
X94232236Y-112361799D02*
X94180556Y-112257279D01*
X94180556Y-112257279D02*
X94172667Y-112156099D01*
X94172667Y-112156099D02*
X94199996Y-112070861D01*
X94199996Y-112070861D02*
X94253965Y-112014166D01*
X94253965Y-112014166D02*
X94326001Y-111998614D01*
X94326001Y-111998614D02*
X94407527Y-112036808D01*
X94407527Y-112036808D02*
X94407527Y-112036808D01*
G36*
X94407527Y-112036808D02*
G01*
X94435213Y-112063532D01*
X94477959Y-112130316D01*
X94468190Y-112200976D01*
X94459076Y-112222282D01*
X94417839Y-112287095D01*
X94382923Y-112310333D01*
X94350608Y-112338743D01*
X94346889Y-112361168D01*
X94330615Y-112419781D01*
X94287557Y-112417331D01*
X94232236Y-112361799D01*
X94180556Y-112257279D01*
X94172667Y-112156099D01*
X94199996Y-112070861D01*
X94253965Y-112014166D01*
X94326001Y-111998614D01*
X94407527Y-112036808D01*
G37*
X94407527Y-112036808D02*
X94435213Y-112063532D01*
X94477959Y-112130316D01*
X94468190Y-112200976D01*
X94459076Y-112222282D01*
X94417839Y-112287095D01*
X94382923Y-112310333D01*
X94350608Y-112338743D01*
X94346889Y-112361168D01*
X94330615Y-112419781D01*
X94287557Y-112417331D01*
X94232236Y-112361799D01*
X94180556Y-112257279D01*
X94172667Y-112156099D01*
X94199996Y-112070861D01*
X94253965Y-112014166D01*
X94326001Y-111998614D01*
X94407527Y-112036808D01*
X97406033Y-113199087D02*
X97493642Y-113216527D01*
X97493642Y-113216527D02*
X97552944Y-113263124D01*
X97552944Y-113263124D02*
X97605487Y-113349873D01*
X97605487Y-113349873D02*
X97658342Y-113511670D01*
X97658342Y-113511670D02*
X97679811Y-113724997D01*
X97679811Y-113724997D02*
X97669082Y-113977799D01*
X97669082Y-113977799D02*
X97655277Y-114089455D01*
X97655277Y-114089455D02*
X97632058Y-114209322D01*
X97632058Y-114209322D02*
X97595423Y-114355352D01*
X97595423Y-114355352D02*
X97550633Y-114510894D01*
X97550633Y-114510894D02*
X97502949Y-114659297D01*
X97502949Y-114659297D02*
X97457632Y-114783910D01*
X97457632Y-114783910D02*
X97419943Y-114868083D01*
X97419943Y-114868083D02*
X97401116Y-114893890D01*
X97401116Y-114893890D02*
X97346169Y-114908786D01*
X97346169Y-114908786D02*
X97247392Y-114918418D01*
X97247392Y-114918418D02*
X97178603Y-114920349D01*
X97178603Y-114920349D02*
X97068429Y-114916955D01*
X97068429Y-114916955D02*
X97009178Y-114900939D01*
X97009178Y-114900939D02*
X96981400Y-114864792D01*
X96981400Y-114864792D02*
X96974369Y-114841514D01*
X96974369Y-114841514D02*
X96935232Y-114617783D01*
X96935232Y-114617783D02*
X96918477Y-114367906D01*
X96918477Y-114367906D02*
X96923053Y-114111203D01*
X96923053Y-114111203D02*
X96947910Y-113866992D01*
X96947910Y-113866992D02*
X96991999Y-113654590D01*
X96991999Y-113654590D02*
X97046900Y-113507290D01*
X97046900Y-113507290D02*
X97134477Y-113352152D01*
X97134477Y-113352152D02*
X97214630Y-113255401D01*
X97214630Y-113255401D02*
X97298608Y-113207384D01*
X97298608Y-113207384D02*
X97397658Y-113198449D01*
X97397658Y-113198449D02*
X97406033Y-113199087D01*
X97406033Y-113199087D02*
X97406033Y-113199087D01*
G36*
X97406033Y-113199087D02*
G01*
X97493642Y-113216527D01*
X97552944Y-113263124D01*
X97605487Y-113349873D01*
X97658342Y-113511670D01*
X97679811Y-113724997D01*
X97669082Y-113977799D01*
X97655277Y-114089455D01*
X97632058Y-114209322D01*
X97595423Y-114355352D01*
X97550633Y-114510894D01*
X97502949Y-114659297D01*
X97457632Y-114783910D01*
X97419943Y-114868083D01*
X97401116Y-114893890D01*
X97346169Y-114908786D01*
X97247392Y-114918418D01*
X97178603Y-114920349D01*
X97068429Y-114916955D01*
X97009178Y-114900939D01*
X96981400Y-114864792D01*
X96974369Y-114841514D01*
X96935232Y-114617783D01*
X96918477Y-114367906D01*
X96923053Y-114111203D01*
X96947910Y-113866992D01*
X96991999Y-113654590D01*
X97046900Y-113507290D01*
X97134477Y-113352152D01*
X97214630Y-113255401D01*
X97298608Y-113207384D01*
X97397658Y-113198449D01*
X97406033Y-113199087D01*
G37*
X97406033Y-113199087D02*
X97493642Y-113216527D01*
X97552944Y-113263124D01*
X97605487Y-113349873D01*
X97658342Y-113511670D01*
X97679811Y-113724997D01*
X97669082Y-113977799D01*
X97655277Y-114089455D01*
X97632058Y-114209322D01*
X97595423Y-114355352D01*
X97550633Y-114510894D01*
X97502949Y-114659297D01*
X97457632Y-114783910D01*
X97419943Y-114868083D01*
X97401116Y-114893890D01*
X97346169Y-114908786D01*
X97247392Y-114918418D01*
X97178603Y-114920349D01*
X97068429Y-114916955D01*
X97009178Y-114900939D01*
X96981400Y-114864792D01*
X96974369Y-114841514D01*
X96935232Y-114617783D01*
X96918477Y-114367906D01*
X96923053Y-114111203D01*
X96947910Y-113866992D01*
X96991999Y-113654590D01*
X97046900Y-113507290D01*
X97134477Y-113352152D01*
X97214630Y-113255401D01*
X97298608Y-113207384D01*
X97397658Y-113198449D01*
X97406033Y-113199087D01*
X95324074Y-119022163D02*
X95339441Y-119083654D01*
X95339441Y-119083654D02*
X95357998Y-119192397D01*
X95357998Y-119192397D02*
X95381815Y-119357688D01*
X95381815Y-119357688D02*
X95394947Y-119454083D01*
X95394947Y-119454083D02*
X95400426Y-119522024D01*
X95400426Y-119522024D02*
X95407087Y-119647386D01*
X95407087Y-119647386D02*
X95414367Y-119817059D01*
X95414367Y-119817059D02*
X95421706Y-120017930D01*
X95421706Y-120017930D02*
X95428540Y-120236887D01*
X95428540Y-120236887D02*
X95428600Y-120239014D01*
X95428600Y-120239014D02*
X95447983Y-120918111D01*
X95447983Y-120918111D02*
X95114870Y-120918111D01*
X95114870Y-120918111D02*
X95137898Y-120732903D01*
X95137898Y-120732903D02*
X95149512Y-120602860D01*
X95149512Y-120602860D02*
X95158134Y-120437298D01*
X95158134Y-120437298D02*
X95161958Y-120271244D01*
X95161958Y-120271244D02*
X95161985Y-120265472D01*
X95161985Y-120265472D02*
X95167493Y-120086269D01*
X95167493Y-120086269D02*
X95180863Y-119893193D01*
X95180863Y-119893193D02*
X95198156Y-119736306D01*
X95198156Y-119736306D02*
X95219489Y-119566188D01*
X95219489Y-119566188D02*
X95238224Y-119382512D01*
X95238224Y-119382512D02*
X95247690Y-119262819D01*
X95247690Y-119262819D02*
X95259938Y-119140419D01*
X95259938Y-119140419D02*
X95277561Y-119046108D01*
X95277561Y-119046108D02*
X95294626Y-119003763D01*
X95294626Y-119003763D02*
X95309826Y-118998631D01*
X95309826Y-118998631D02*
X95324074Y-119022163D01*
X95324074Y-119022163D02*
X95324074Y-119022163D01*
G36*
X95324074Y-119022163D02*
G01*
X95339441Y-119083654D01*
X95357998Y-119192397D01*
X95381815Y-119357688D01*
X95394947Y-119454083D01*
X95400426Y-119522024D01*
X95407087Y-119647386D01*
X95414367Y-119817059D01*
X95421706Y-120017930D01*
X95428540Y-120236887D01*
X95428600Y-120239014D01*
X95447983Y-120918111D01*
X95114870Y-120918111D01*
X95137898Y-120732903D01*
X95149512Y-120602860D01*
X95158134Y-120437298D01*
X95161958Y-120271244D01*
X95161985Y-120265472D01*
X95167493Y-120086269D01*
X95180863Y-119893193D01*
X95198156Y-119736306D01*
X95219489Y-119566188D01*
X95238224Y-119382512D01*
X95247690Y-119262819D01*
X95259938Y-119140419D01*
X95277561Y-119046108D01*
X95294626Y-119003763D01*
X95309826Y-118998631D01*
X95324074Y-119022163D01*
G37*
X95324074Y-119022163D02*
X95339441Y-119083654D01*
X95357998Y-119192397D01*
X95381815Y-119357688D01*
X95394947Y-119454083D01*
X95400426Y-119522024D01*
X95407087Y-119647386D01*
X95414367Y-119817059D01*
X95421706Y-120017930D01*
X95428540Y-120236887D01*
X95428600Y-120239014D01*
X95447983Y-120918111D01*
X95114870Y-120918111D01*
X95137898Y-120732903D01*
X95149512Y-120602860D01*
X95158134Y-120437298D01*
X95161958Y-120271244D01*
X95161985Y-120265472D01*
X95167493Y-120086269D01*
X95180863Y-119893193D01*
X95198156Y-119736306D01*
X95219489Y-119566188D01*
X95238224Y-119382512D01*
X95247690Y-119262819D01*
X95259938Y-119140419D01*
X95277561Y-119046108D01*
X95294626Y-119003763D01*
X95309826Y-118998631D01*
X95324074Y-119022163D01*
X96171496Y-112845225D02*
X96243195Y-112943733D01*
X96243195Y-112943733D02*
X96300356Y-113094837D01*
X96300356Y-113094837D02*
X96339381Y-113294961D01*
X96339381Y-113294961D02*
X96356677Y-113540531D01*
X96356677Y-113540531D02*
X96357209Y-113591472D01*
X96357209Y-113591472D02*
X96353552Y-113749127D01*
X96353552Y-113749127D02*
X96343309Y-113886930D01*
X96343309Y-113886930D02*
X96328291Y-113985006D01*
X96328291Y-113985006D02*
X96318656Y-114014805D01*
X96318656Y-114014805D02*
X96281981Y-114066054D01*
X96281981Y-114066054D02*
X96216854Y-114140116D01*
X96216854Y-114140116D02*
X96136810Y-114223597D01*
X96136810Y-114223597D02*
X96055387Y-114303105D01*
X96055387Y-114303105D02*
X95986119Y-114365247D01*
X95986119Y-114365247D02*
X95942543Y-114396629D01*
X95942543Y-114396629D02*
X95934360Y-114395041D01*
X95934360Y-114395041D02*
X95927481Y-114352991D01*
X95927481Y-114352991D02*
X95909602Y-114261638D01*
X95909602Y-114261638D02*
X95884818Y-114140598D01*
X95884818Y-114140598D02*
X95857223Y-114009489D01*
X95857223Y-114009489D02*
X95830910Y-113887931D01*
X95830910Y-113887931D02*
X95809974Y-113795540D01*
X95809974Y-113795540D02*
X95804834Y-113774361D01*
X95804834Y-113774361D02*
X95793786Y-113705595D01*
X95793786Y-113705595D02*
X95781146Y-113590093D01*
X95781146Y-113590093D02*
X95769469Y-113451555D01*
X95769469Y-113451555D02*
X95768408Y-113436710D01*
X95768408Y-113436710D02*
X95761895Y-113278802D01*
X95761895Y-113278802D02*
X95770543Y-113167289D01*
X95770543Y-113167289D02*
X95796895Y-113079152D01*
X95796895Y-113079152D02*
X95811233Y-113048654D01*
X95811233Y-113048654D02*
X95905127Y-112901028D01*
X95905127Y-112901028D02*
X95998866Y-112820297D01*
X95998866Y-112820297D02*
X96088854Y-112802888D01*
X96088854Y-112802888D02*
X96171496Y-112845225D01*
X96171496Y-112845225D02*
X96171496Y-112845225D01*
G36*
X96171496Y-112845225D02*
G01*
X96243195Y-112943733D01*
X96300356Y-113094837D01*
X96339381Y-113294961D01*
X96356677Y-113540531D01*
X96357209Y-113591472D01*
X96353552Y-113749127D01*
X96343309Y-113886930D01*
X96328291Y-113985006D01*
X96318656Y-114014805D01*
X96281981Y-114066054D01*
X96216854Y-114140116D01*
X96136810Y-114223597D01*
X96055387Y-114303105D01*
X95986119Y-114365247D01*
X95942543Y-114396629D01*
X95934360Y-114395041D01*
X95927481Y-114352991D01*
X95909602Y-114261638D01*
X95884818Y-114140598D01*
X95857223Y-114009489D01*
X95830910Y-113887931D01*
X95809974Y-113795540D01*
X95804834Y-113774361D01*
X95793786Y-113705595D01*
X95781146Y-113590093D01*
X95769469Y-113451555D01*
X95768408Y-113436710D01*
X95761895Y-113278802D01*
X95770543Y-113167289D01*
X95796895Y-113079152D01*
X95811233Y-113048654D01*
X95905127Y-112901028D01*
X95998866Y-112820297D01*
X96088854Y-112802888D01*
X96171496Y-112845225D01*
G37*
X96171496Y-112845225D02*
X96243195Y-112943733D01*
X96300356Y-113094837D01*
X96339381Y-113294961D01*
X96356677Y-113540531D01*
X96357209Y-113591472D01*
X96353552Y-113749127D01*
X96343309Y-113886930D01*
X96328291Y-113985006D01*
X96318656Y-114014805D01*
X96281981Y-114066054D01*
X96216854Y-114140116D01*
X96136810Y-114223597D01*
X96055387Y-114303105D01*
X95986119Y-114365247D01*
X95942543Y-114396629D01*
X95934360Y-114395041D01*
X95927481Y-114352991D01*
X95909602Y-114261638D01*
X95884818Y-114140598D01*
X95857223Y-114009489D01*
X95830910Y-113887931D01*
X95809974Y-113795540D01*
X95804834Y-113774361D01*
X95793786Y-113705595D01*
X95781146Y-113590093D01*
X95769469Y-113451555D01*
X95768408Y-113436710D01*
X95761895Y-113278802D01*
X95770543Y-113167289D01*
X95796895Y-113079152D01*
X95811233Y-113048654D01*
X95905127Y-112901028D01*
X95998866Y-112820297D01*
X96088854Y-112802888D01*
X96171496Y-112845225D01*
X93129998Y-115297565D02*
X93142104Y-115345988D01*
X93142104Y-115345988D02*
X93173188Y-115445021D01*
X93173188Y-115445021D02*
X93203840Y-115501005D01*
X93203840Y-115501005D02*
X93243014Y-115577912D01*
X93243014Y-115577912D02*
X93253399Y-115625474D01*
X93253399Y-115625474D02*
X93267381Y-115688432D01*
X93267381Y-115688432D02*
X93303622Y-115794703D01*
X93303622Y-115794703D02*
X93353797Y-115924016D01*
X93353797Y-115924016D02*
X93409582Y-116056103D01*
X93409582Y-116056103D02*
X93462650Y-116170693D01*
X93462650Y-116170693D02*
X93504676Y-116247518D01*
X93504676Y-116247518D02*
X93514264Y-116260617D01*
X93514264Y-116260617D02*
X93562976Y-116334001D01*
X93562976Y-116334001D02*
X93589437Y-116423276D01*
X93589437Y-116423276D02*
X93596327Y-116545961D01*
X93596327Y-116545961D02*
X93586322Y-116719577D01*
X93586322Y-116719577D02*
X93585632Y-116727554D01*
X93585632Y-116727554D02*
X93569481Y-116878119D01*
X93569481Y-116878119D02*
X93550860Y-116965427D01*
X93550860Y-116965427D02*
X93526203Y-116996772D01*
X93526203Y-116996772D02*
X93491944Y-116979444D01*
X93491944Y-116979444D02*
X93472828Y-116958181D01*
X93472828Y-116958181D02*
X93442159Y-116908388D01*
X93442159Y-116908388D02*
X93389979Y-116811668D01*
X93389979Y-116811668D02*
X93325174Y-116684764D01*
X93325174Y-116684764D02*
X93290323Y-116614222D01*
X93290323Y-116614222D02*
X93221978Y-116475204D01*
X93221978Y-116475204D02*
X93161820Y-116354453D01*
X93161820Y-116354453D02*
X93118957Y-116270182D01*
X93118957Y-116270182D02*
X93107161Y-116247965D01*
X93107161Y-116247965D02*
X93072019Y-116172986D01*
X93072019Y-116172986D02*
X93029616Y-116067892D01*
X93029616Y-116067892D02*
X93017909Y-116036299D01*
X93017909Y-116036299D02*
X92992879Y-115932591D01*
X92992879Y-115932591D02*
X92976626Y-115796213D01*
X92976626Y-115796213D02*
X92969191Y-115645477D01*
X92969191Y-115645477D02*
X92970612Y-115498692D01*
X92970612Y-115498692D02*
X92980932Y-115374172D01*
X92980932Y-115374172D02*
X93000189Y-115290226D01*
X93000189Y-115290226D02*
X93016219Y-115266844D01*
X93016219Y-115266844D02*
X93085201Y-115249724D01*
X93085201Y-115249724D02*
X93129998Y-115297565D01*
X93129998Y-115297565D02*
X93129998Y-115297565D01*
G36*
X93129998Y-115297565D02*
G01*
X93142104Y-115345988D01*
X93173188Y-115445021D01*
X93203840Y-115501005D01*
X93243014Y-115577912D01*
X93253399Y-115625474D01*
X93267381Y-115688432D01*
X93303622Y-115794703D01*
X93353797Y-115924016D01*
X93409582Y-116056103D01*
X93462650Y-116170693D01*
X93504676Y-116247518D01*
X93514264Y-116260617D01*
X93562976Y-116334001D01*
X93589437Y-116423276D01*
X93596327Y-116545961D01*
X93586322Y-116719577D01*
X93585632Y-116727554D01*
X93569481Y-116878119D01*
X93550860Y-116965427D01*
X93526203Y-116996772D01*
X93491944Y-116979444D01*
X93472828Y-116958181D01*
X93442159Y-116908388D01*
X93389979Y-116811668D01*
X93325174Y-116684764D01*
X93290323Y-116614222D01*
X93221978Y-116475204D01*
X93161820Y-116354453D01*
X93118957Y-116270182D01*
X93107161Y-116247965D01*
X93072019Y-116172986D01*
X93029616Y-116067892D01*
X93017909Y-116036299D01*
X92992879Y-115932591D01*
X92976626Y-115796213D01*
X92969191Y-115645477D01*
X92970612Y-115498692D01*
X92980932Y-115374172D01*
X93000189Y-115290226D01*
X93016219Y-115266844D01*
X93085201Y-115249724D01*
X93129998Y-115297565D01*
G37*
X93129998Y-115297565D02*
X93142104Y-115345988D01*
X93173188Y-115445021D01*
X93203840Y-115501005D01*
X93243014Y-115577912D01*
X93253399Y-115625474D01*
X93267381Y-115688432D01*
X93303622Y-115794703D01*
X93353797Y-115924016D01*
X93409582Y-116056103D01*
X93462650Y-116170693D01*
X93504676Y-116247518D01*
X93514264Y-116260617D01*
X93562976Y-116334001D01*
X93589437Y-116423276D01*
X93596327Y-116545961D01*
X93586322Y-116719577D01*
X93585632Y-116727554D01*
X93569481Y-116878119D01*
X93550860Y-116965427D01*
X93526203Y-116996772D01*
X93491944Y-116979444D01*
X93472828Y-116958181D01*
X93442159Y-116908388D01*
X93389979Y-116811668D01*
X93325174Y-116684764D01*
X93290323Y-116614222D01*
X93221978Y-116475204D01*
X93161820Y-116354453D01*
X93118957Y-116270182D01*
X93107161Y-116247965D01*
X93072019Y-116172986D01*
X93029616Y-116067892D01*
X93017909Y-116036299D01*
X92992879Y-115932591D01*
X92976626Y-115796213D01*
X92969191Y-115645477D01*
X92970612Y-115498692D01*
X92980932Y-115374172D01*
X93000189Y-115290226D01*
X93016219Y-115266844D01*
X93085201Y-115249724D01*
X93129998Y-115297565D01*
X94744550Y-115076574D02*
X94841748Y-115120368D01*
X94841748Y-115120368D02*
X94916617Y-115179527D01*
X94916617Y-115179527D02*
X95011556Y-115266884D01*
X95011556Y-115266884D02*
X95113381Y-115368593D01*
X95113381Y-115368593D02*
X95208910Y-115470804D01*
X95208910Y-115470804D02*
X95284957Y-115559672D01*
X95284957Y-115559672D02*
X95328339Y-115621349D01*
X95328339Y-115621349D02*
X95333694Y-115637078D01*
X95333694Y-115637078D02*
X95311377Y-115676325D01*
X95311377Y-115676325D02*
X95254054Y-115750626D01*
X95254054Y-115750626D02*
X95175011Y-115844906D01*
X95175011Y-115844906D02*
X95087533Y-115944090D01*
X95087533Y-115944090D02*
X95004908Y-116033102D01*
X95004908Y-116033102D02*
X94940421Y-116096865D01*
X94940421Y-116096865D02*
X94907792Y-116120333D01*
X94907792Y-116120333D02*
X94886491Y-116091098D01*
X94886491Y-116091098D02*
X94846572Y-116015571D01*
X94846572Y-116015571D02*
X94810396Y-115939659D01*
X94810396Y-115939659D02*
X94727510Y-115758984D01*
X94727510Y-115758984D02*
X94575853Y-115779771D01*
X94575853Y-115779771D02*
X94473711Y-115787472D01*
X94473711Y-115787472D02*
X94408003Y-115766863D01*
X94408003Y-115766863D02*
X94359283Y-115704534D01*
X94359283Y-115704534D02*
X94312483Y-115598150D01*
X94312483Y-115598150D02*
X94286863Y-115455333D01*
X94286863Y-115455333D02*
X94315971Y-115320721D01*
X94315971Y-115320721D02*
X94388050Y-115204925D01*
X94388050Y-115204925D02*
X94491344Y-115118560D01*
X94491344Y-115118560D02*
X94614096Y-115072239D01*
X94614096Y-115072239D02*
X94744550Y-115076574D01*
X94744550Y-115076574D02*
X94744550Y-115076574D01*
G36*
X94744550Y-115076574D02*
G01*
X94841748Y-115120368D01*
X94916617Y-115179527D01*
X95011556Y-115266884D01*
X95113381Y-115368593D01*
X95208910Y-115470804D01*
X95284957Y-115559672D01*
X95328339Y-115621349D01*
X95333694Y-115637078D01*
X95311377Y-115676325D01*
X95254054Y-115750626D01*
X95175011Y-115844906D01*
X95087533Y-115944090D01*
X95004908Y-116033102D01*
X94940421Y-116096865D01*
X94907792Y-116120333D01*
X94886491Y-116091098D01*
X94846572Y-116015571D01*
X94810396Y-115939659D01*
X94727510Y-115758984D01*
X94575853Y-115779771D01*
X94473711Y-115787472D01*
X94408003Y-115766863D01*
X94359283Y-115704534D01*
X94312483Y-115598150D01*
X94286863Y-115455333D01*
X94315971Y-115320721D01*
X94388050Y-115204925D01*
X94491344Y-115118560D01*
X94614096Y-115072239D01*
X94744550Y-115076574D01*
G37*
X94744550Y-115076574D02*
X94841748Y-115120368D01*
X94916617Y-115179527D01*
X95011556Y-115266884D01*
X95113381Y-115368593D01*
X95208910Y-115470804D01*
X95284957Y-115559672D01*
X95328339Y-115621349D01*
X95333694Y-115637078D01*
X95311377Y-115676325D01*
X95254054Y-115750626D01*
X95175011Y-115844906D01*
X95087533Y-115944090D01*
X95004908Y-116033102D01*
X94940421Y-116096865D01*
X94907792Y-116120333D01*
X94886491Y-116091098D01*
X94846572Y-116015571D01*
X94810396Y-115939659D01*
X94727510Y-115758984D01*
X94575853Y-115779771D01*
X94473711Y-115787472D01*
X94408003Y-115766863D01*
X94359283Y-115704534D01*
X94312483Y-115598150D01*
X94286863Y-115455333D01*
X94315971Y-115320721D01*
X94388050Y-115204925D01*
X94491344Y-115118560D01*
X94614096Y-115072239D01*
X94744550Y-115076574D01*
X97111413Y-116535930D02*
X97106654Y-116584073D01*
X97106654Y-116584073D02*
X97071743Y-116675779D01*
X97071743Y-116675779D02*
X97014965Y-116795442D01*
X97014965Y-116795442D02*
X96944605Y-116927457D01*
X96944605Y-116927457D02*
X96868947Y-117056220D01*
X96868947Y-117056220D02*
X96796277Y-117166125D01*
X96796277Y-117166125D02*
X96739041Y-117237315D01*
X96739041Y-117237315D02*
X96657577Y-117310888D01*
X96657577Y-117310888D02*
X96583820Y-117359324D01*
X96583820Y-117359324D02*
X96566073Y-117366144D01*
X96566073Y-117366144D02*
X96521472Y-117370729D01*
X96521472Y-117370729D02*
X96524855Y-117337475D01*
X96524855Y-117337475D02*
X96539551Y-117307496D01*
X96539551Y-117307496D02*
X96572937Y-117252308D01*
X96572937Y-117252308D02*
X96636039Y-117154957D01*
X96636039Y-117154957D02*
X96718675Y-117030489D01*
X96718675Y-117030489D02*
X96810661Y-116893947D01*
X96810661Y-116893947D02*
X96901817Y-116760375D01*
X96901817Y-116760375D02*
X96981961Y-116644816D01*
X96981961Y-116644816D02*
X97040910Y-116562316D01*
X97040910Y-116562316D02*
X97064565Y-116531773D01*
X97064565Y-116531773D02*
X97102624Y-116526130D01*
X97102624Y-116526130D02*
X97111413Y-116535930D01*
X97111413Y-116535930D02*
X97111413Y-116535930D01*
G36*
X97111413Y-116535930D02*
G01*
X97106654Y-116584073D01*
X97071743Y-116675779D01*
X97014965Y-116795442D01*
X96944605Y-116927457D01*
X96868947Y-117056220D01*
X96796277Y-117166125D01*
X96739041Y-117237315D01*
X96657577Y-117310888D01*
X96583820Y-117359324D01*
X96566073Y-117366144D01*
X96521472Y-117370729D01*
X96524855Y-117337475D01*
X96539551Y-117307496D01*
X96572937Y-117252308D01*
X96636039Y-117154957D01*
X96718675Y-117030489D01*
X96810661Y-116893947D01*
X96901817Y-116760375D01*
X96981961Y-116644816D01*
X97040910Y-116562316D01*
X97064565Y-116531773D01*
X97102624Y-116526130D01*
X97111413Y-116535930D01*
G37*
X97111413Y-116535930D02*
X97106654Y-116584073D01*
X97071743Y-116675779D01*
X97014965Y-116795442D01*
X96944605Y-116927457D01*
X96868947Y-117056220D01*
X96796277Y-117166125D01*
X96739041Y-117237315D01*
X96657577Y-117310888D01*
X96583820Y-117359324D01*
X96566073Y-117366144D01*
X96521472Y-117370729D01*
X96524855Y-117337475D01*
X96539551Y-117307496D01*
X96572937Y-117252308D01*
X96636039Y-117154957D01*
X96718675Y-117030489D01*
X96810661Y-116893947D01*
X96901817Y-116760375D01*
X96981961Y-116644816D01*
X97040910Y-116562316D01*
X97064565Y-116531773D01*
X97102624Y-116526130D01*
X97111413Y-116535930D01*
X96686462Y-112673359D02*
X96805369Y-112757806D01*
X96805369Y-112757806D02*
X96888309Y-112859437D01*
X96888309Y-112859437D02*
X96924783Y-112924752D01*
X96924783Y-112924752D02*
X96946150Y-112988283D01*
X96946150Y-112988283D02*
X96954602Y-113068665D01*
X96954602Y-113068665D02*
X96952334Y-113184535D01*
X96952334Y-113184535D02*
X96943416Y-113327722D01*
X96943416Y-113327722D02*
X96924565Y-113543515D01*
X96924565Y-113543515D02*
X96898667Y-113763262D01*
X96898667Y-113763262D02*
X96868290Y-113970258D01*
X96868290Y-113970258D02*
X96836004Y-114147793D01*
X96836004Y-114147793D02*
X96804378Y-114279161D01*
X96804378Y-114279161D02*
X96791003Y-114318871D01*
X96791003Y-114318871D02*
X96757033Y-114404769D01*
X96757033Y-114404769D02*
X96606936Y-114264761D01*
X96606936Y-114264761D02*
X96456840Y-114124752D01*
X96456840Y-114124752D02*
X96463901Y-113843723D01*
X96463901Y-113843723D02*
X96468050Y-113617104D01*
X96468050Y-113617104D02*
X96466365Y-113444550D01*
X96466365Y-113444550D02*
X96457179Y-113309695D01*
X96457179Y-113309695D02*
X96438827Y-113196171D01*
X96438827Y-113196171D02*
X96409643Y-113087612D01*
X96409643Y-113087612D02*
X96377310Y-112993161D01*
X96377310Y-112993161D02*
X96333293Y-112866919D01*
X96333293Y-112866919D02*
X96313316Y-112788193D01*
X96313316Y-112788193D02*
X96315569Y-112738850D01*
X96315569Y-112738850D02*
X96338244Y-112700757D01*
X96338244Y-112700757D02*
X96347111Y-112690624D01*
X96347111Y-112690624D02*
X96440822Y-112634618D01*
X96440822Y-112634618D02*
X96559443Y-112630580D01*
X96559443Y-112630580D02*
X96686462Y-112673359D01*
X96686462Y-112673359D02*
X96686462Y-112673359D01*
G36*
X96686462Y-112673359D02*
G01*
X96805369Y-112757806D01*
X96888309Y-112859437D01*
X96924783Y-112924752D01*
X96946150Y-112988283D01*
X96954602Y-113068665D01*
X96952334Y-113184535D01*
X96943416Y-113327722D01*
X96924565Y-113543515D01*
X96898667Y-113763262D01*
X96868290Y-113970258D01*
X96836004Y-114147793D01*
X96804378Y-114279161D01*
X96791003Y-114318871D01*
X96757033Y-114404769D01*
X96606936Y-114264761D01*
X96456840Y-114124752D01*
X96463901Y-113843723D01*
X96468050Y-113617104D01*
X96466365Y-113444550D01*
X96457179Y-113309695D01*
X96438827Y-113196171D01*
X96409643Y-113087612D01*
X96377310Y-112993161D01*
X96333293Y-112866919D01*
X96313316Y-112788193D01*
X96315569Y-112738850D01*
X96338244Y-112700757D01*
X96347111Y-112690624D01*
X96440822Y-112634618D01*
X96559443Y-112630580D01*
X96686462Y-112673359D01*
G37*
X96686462Y-112673359D02*
X96805369Y-112757806D01*
X96888309Y-112859437D01*
X96924783Y-112924752D01*
X96946150Y-112988283D01*
X96954602Y-113068665D01*
X96952334Y-113184535D01*
X96943416Y-113327722D01*
X96924565Y-113543515D01*
X96898667Y-113763262D01*
X96868290Y-113970258D01*
X96836004Y-114147793D01*
X96804378Y-114279161D01*
X96791003Y-114318871D01*
X96757033Y-114404769D01*
X96606936Y-114264761D01*
X96456840Y-114124752D01*
X96463901Y-113843723D01*
X96468050Y-113617104D01*
X96466365Y-113444550D01*
X96457179Y-113309695D01*
X96438827Y-113196171D01*
X96409643Y-113087612D01*
X96377310Y-112993161D01*
X96333293Y-112866919D01*
X96313316Y-112788193D01*
X96315569Y-112738850D01*
X96338244Y-112700757D01*
X96347111Y-112690624D01*
X96440822Y-112634618D01*
X96559443Y-112630580D01*
X96686462Y-112673359D01*
X95014614Y-117812609D02*
X95087749Y-117861562D01*
X95087749Y-117861562D02*
X95140152Y-117943340D01*
X95140152Y-117943340D02*
X95172544Y-118064386D01*
X95172544Y-118064386D02*
X95185647Y-118231140D01*
X95185647Y-118231140D02*
X95180179Y-118450043D01*
X95180179Y-118450043D02*
X95156862Y-118727535D01*
X95156862Y-118727535D02*
X95136892Y-118905777D01*
X95136892Y-118905777D02*
X95113656Y-119043743D01*
X95113656Y-119043743D02*
X95083560Y-119112093D01*
X95083560Y-119112093D02*
X95044046Y-119111634D01*
X95044046Y-119111634D02*
X94992552Y-119043175D01*
X94992552Y-119043175D02*
X94952145Y-118964087D01*
X94952145Y-118964087D02*
X94902871Y-118847843D01*
X94902871Y-118847843D02*
X94865471Y-118739593D01*
X94865471Y-118739593D02*
X94857321Y-118708323D01*
X94857321Y-118708323D02*
X94827616Y-118604652D01*
X94827616Y-118604652D02*
X94798846Y-118531875D01*
X94798846Y-118531875D02*
X94783114Y-118461680D01*
X94783114Y-118461680D02*
X94774394Y-118344065D01*
X94774394Y-118344065D02*
X94774180Y-118201947D01*
X94774180Y-118201947D02*
X94775346Y-118171324D01*
X94775346Y-118171324D02*
X94790820Y-117987306D01*
X94790820Y-117987306D02*
X94820303Y-117866757D01*
X94820303Y-117866757D02*
X94868074Y-117803261D01*
X94868074Y-117803261D02*
X94938411Y-117790406D01*
X94938411Y-117790406D02*
X95014614Y-117812609D01*
X95014614Y-117812609D02*
X95014614Y-117812609D01*
G36*
X95014614Y-117812609D02*
G01*
X95087749Y-117861562D01*
X95140152Y-117943340D01*
X95172544Y-118064386D01*
X95185647Y-118231140D01*
X95180179Y-118450043D01*
X95156862Y-118727535D01*
X95136892Y-118905777D01*
X95113656Y-119043743D01*
X95083560Y-119112093D01*
X95044046Y-119111634D01*
X94992552Y-119043175D01*
X94952145Y-118964087D01*
X94902871Y-118847843D01*
X94865471Y-118739593D01*
X94857321Y-118708323D01*
X94827616Y-118604652D01*
X94798846Y-118531875D01*
X94783114Y-118461680D01*
X94774394Y-118344065D01*
X94774180Y-118201947D01*
X94775346Y-118171324D01*
X94790820Y-117987306D01*
X94820303Y-117866757D01*
X94868074Y-117803261D01*
X94938411Y-117790406D01*
X95014614Y-117812609D01*
G37*
X95014614Y-117812609D02*
X95087749Y-117861562D01*
X95140152Y-117943340D01*
X95172544Y-118064386D01*
X95185647Y-118231140D01*
X95180179Y-118450043D01*
X95156862Y-118727535D01*
X95136892Y-118905777D01*
X95113656Y-119043743D01*
X95083560Y-119112093D01*
X95044046Y-119111634D01*
X94992552Y-119043175D01*
X94952145Y-118964087D01*
X94902871Y-118847843D01*
X94865471Y-118739593D01*
X94857321Y-118708323D01*
X94827616Y-118604652D01*
X94798846Y-118531875D01*
X94783114Y-118461680D01*
X94774394Y-118344065D01*
X94774180Y-118201947D01*
X94775346Y-118171324D01*
X94790820Y-117987306D01*
X94820303Y-117866757D01*
X94868074Y-117803261D01*
X94938411Y-117790406D01*
X95014614Y-117812609D01*
D11*
X131224000Y-138728000D02*
X131224000Y-139878000D01*
X138524000Y-138728000D02*
X131224000Y-138728000D01*
X138524000Y-144228000D02*
X131224000Y-144228000D01*
X182212000Y-132632000D02*
X174912000Y-132632000D01*
X174912000Y-132632000D02*
X174912000Y-133782000D01*
X182212000Y-138132000D02*
X174912000Y-138132000D01*
X99757000Y-97135000D02*
X101707000Y-97135000D01*
X99757000Y-102255000D02*
X97807000Y-102255000D01*
X99757000Y-102255000D02*
X101707000Y-102255000D01*
X99757000Y-97135000D02*
X96307000Y-97135000D01*
X95012000Y-73424000D02*
X95012000Y-69324000D01*
X97212000Y-72674000D02*
X97512000Y-72374000D01*
X95012000Y-69324000D02*
X97012000Y-69324000D01*
X97512000Y-72974000D02*
X97512000Y-72374000D01*
X97212000Y-72674000D02*
X97512000Y-72974000D01*
X97012000Y-73424000D02*
X95012000Y-73424000D01*
X97012000Y-69324000D02*
X97012000Y-73424000D01*
X109490000Y-98534000D02*
X111490000Y-98534000D01*
X111490000Y-98534000D02*
X111490000Y-101334000D01*
X111490000Y-101334000D02*
X109490000Y-101334000D01*
X109490000Y-101334000D02*
X109490000Y-98534000D01*
X114030000Y-101334000D02*
X112030000Y-101334000D01*
X114030000Y-98534000D02*
X114030000Y-101334000D01*
X112030000Y-98534000D02*
X114030000Y-98534000D01*
X112030000Y-101334000D02*
X112030000Y-98534000D01*
X106382000Y-141572000D02*
X106382000Y-134272000D01*
X100882000Y-141572000D02*
X100882000Y-134272000D01*
X106382000Y-134272000D02*
X105232000Y-134272000D01*
D10*
X97637600Y-46151800D02*
X91637600Y-46151800D01*
X91637600Y-46151800D02*
X91637600Y-58151800D01*
X91637600Y-58151800D02*
X97637600Y-58151800D01*
X97637600Y-58151800D02*
X97637600Y-46151800D01*
D13*
X105335000Y-102616000D03*
X107875000Y-102616000D03*
X110415000Y-102616000D03*
X112955000Y-102616000D03*
M02*
