G04 #@! TF.GenerationSoftware,KiCad,Pcbnew,5.1.5+dfsg1-2build2*
G04 #@! TF.CreationDate,2021-01-27T22:51:11+00:00*
G04 #@! TF.ProjectId,left1,6c656674-312e-46b6-9963-61645f706362,rev?*
G04 #@! TF.SameCoordinates,Original*
G04 #@! TF.FileFunction,Legend,Top*
G04 #@! TF.FilePolarity,Positive*
%FSLAX46Y46*%
G04 Gerber Fmt 4.6, Leading zero omitted, Abs format (unit mm)*
G04 Created by KiCad (PCBNEW 5.1.5+dfsg1-2build2) date 2021-01-27 22:51:11*
%MOMM*%
%LPD*%
G04 APERTURE LIST*
%ADD10C,0.150000*%
%ADD11C,0.120000*%
G04 APERTURE END LIST*
D10*
X191323200Y-110365771D02*
X191180342Y-110651485D01*
X191180342Y-111080057D01*
X191323200Y-111508628D01*
X191608914Y-111794342D01*
X191894628Y-111937200D01*
X192466057Y-112080057D01*
X192894628Y-112080057D01*
X193466057Y-111937200D01*
X193751771Y-111794342D01*
X194037485Y-111508628D01*
X194180342Y-111080057D01*
X194180342Y-110794342D01*
X194037485Y-110365771D01*
X193894628Y-110222914D01*
X192894628Y-110222914D01*
X192894628Y-110794342D01*
X194180342Y-108937200D02*
X192180342Y-108937200D01*
X192751771Y-108937200D02*
X192466057Y-108794342D01*
X192323200Y-108651485D01*
X192180342Y-108365771D01*
X192180342Y-108080057D01*
X194180342Y-105794342D02*
X192608914Y-105794342D01*
X192323200Y-105937200D01*
X192180342Y-106222914D01*
X192180342Y-106794342D01*
X192323200Y-107080057D01*
X194037485Y-105794342D02*
X194180342Y-106080057D01*
X194180342Y-106794342D01*
X194037485Y-107080057D01*
X193751771Y-107222914D01*
X193466057Y-107222914D01*
X193180342Y-107080057D01*
X193037485Y-106794342D01*
X193037485Y-106080057D01*
X192894628Y-105794342D01*
X192180342Y-104365771D02*
X194180342Y-104365771D01*
X192466057Y-104365771D02*
X192323200Y-104222914D01*
X192180342Y-103937200D01*
X192180342Y-103508628D01*
X192323200Y-103222914D01*
X192608914Y-103080057D01*
X194180342Y-103080057D01*
X194180342Y-100365771D02*
X191180342Y-100365771D01*
X194037485Y-100365771D02*
X194180342Y-100651485D01*
X194180342Y-101222914D01*
X194037485Y-101508628D01*
X193894628Y-101651485D01*
X193608914Y-101794342D01*
X192751771Y-101794342D01*
X192466057Y-101651485D01*
X192323200Y-101508628D01*
X192180342Y-101222914D01*
X192180342Y-100651485D01*
X192323200Y-100365771D01*
X194180342Y-98937200D02*
X192180342Y-98937200D01*
X191180342Y-98937200D02*
X191323200Y-99080057D01*
X191466057Y-98937200D01*
X191323200Y-98794342D01*
X191180342Y-98937200D01*
X191466057Y-98937200D01*
X194037485Y-96222914D02*
X194180342Y-96508628D01*
X194180342Y-97080057D01*
X194037485Y-97365771D01*
X193894628Y-97508628D01*
X193608914Y-97651485D01*
X192751771Y-97651485D01*
X192466057Y-97508628D01*
X192323200Y-97365771D01*
X192180342Y-97080057D01*
X192180342Y-96508628D01*
X192323200Y-96222914D01*
X194037485Y-93794342D02*
X194180342Y-94080057D01*
X194180342Y-94651485D01*
X194037485Y-94937200D01*
X193751771Y-95080057D01*
X192608914Y-95080057D01*
X192323200Y-94937200D01*
X192180342Y-94651485D01*
X192180342Y-94080057D01*
X192323200Y-93794342D01*
X192608914Y-93651485D01*
X192894628Y-93651485D01*
X193180342Y-95080057D01*
X192180342Y-92365771D02*
X195180342Y-92365771D01*
X192323200Y-92365771D02*
X192180342Y-92080057D01*
X192180342Y-91508628D01*
X192323200Y-91222914D01*
X192466057Y-91080057D01*
X192751771Y-90937200D01*
X193608914Y-90937200D01*
X193894628Y-91080057D01*
X194037485Y-91222914D01*
X194180342Y-91508628D01*
X194180342Y-92080057D01*
X194037485Y-92365771D01*
X194037485Y-89794342D02*
X194180342Y-89508628D01*
X194180342Y-88937200D01*
X194037485Y-88651485D01*
X193751771Y-88508628D01*
X193608914Y-88508628D01*
X193323200Y-88651485D01*
X193180342Y-88937200D01*
X193180342Y-89365771D01*
X193037485Y-89651485D01*
X192751771Y-89794342D01*
X192608914Y-89794342D01*
X192323200Y-89651485D01*
X192180342Y-89365771D01*
X192180342Y-88937200D01*
X192323200Y-88651485D01*
X192180342Y-85222914D02*
X194180342Y-84508628D01*
X192180342Y-83794342D01*
X191180342Y-82080057D02*
X191180342Y-81794342D01*
X191323200Y-81508628D01*
X191466057Y-81365771D01*
X191751771Y-81222914D01*
X192323200Y-81080057D01*
X193037485Y-81080057D01*
X193608914Y-81222914D01*
X193894628Y-81365771D01*
X194037485Y-81508628D01*
X194180342Y-81794342D01*
X194180342Y-82080057D01*
X194037485Y-82365771D01*
X193894628Y-82508628D01*
X193608914Y-82651485D01*
X193037485Y-82794342D01*
X192323200Y-82794342D01*
X191751771Y-82651485D01*
X191466057Y-82508628D01*
X191323200Y-82365771D01*
X191180342Y-82080057D01*
X193894628Y-79794342D02*
X194037485Y-79651485D01*
X194180342Y-79794342D01*
X194037485Y-79937200D01*
X193894628Y-79794342D01*
X194180342Y-79794342D01*
X194180342Y-76794342D02*
X194180342Y-78508628D01*
X194180342Y-77651485D02*
X191180342Y-77651485D01*
X191608914Y-77937200D01*
X191894628Y-78222914D01*
X192037485Y-78508628D01*
X199973200Y-108508628D02*
X199830342Y-108651485D01*
X199401771Y-108937200D01*
X199116057Y-109080057D01*
X198687485Y-109222914D01*
X197973200Y-109365771D01*
X197401771Y-109365771D01*
X196687485Y-109222914D01*
X196258914Y-109080057D01*
X195973200Y-108937200D01*
X195544628Y-108651485D01*
X195401771Y-108508628D01*
X198687485Y-106080057D02*
X198830342Y-106365771D01*
X198830342Y-106937200D01*
X198687485Y-107222914D01*
X198544628Y-107365771D01*
X198258914Y-107508628D01*
X197401771Y-107508628D01*
X197116057Y-107365771D01*
X196973200Y-107222914D01*
X196830342Y-106937200D01*
X196830342Y-106365771D01*
X196973200Y-106080057D01*
X199973200Y-105080057D02*
X199830342Y-104937200D01*
X199401771Y-104651485D01*
X199116057Y-104508628D01*
X198687485Y-104365771D01*
X197973200Y-104222914D01*
X197401771Y-104222914D01*
X196687485Y-104365771D01*
X196258914Y-104508628D01*
X195973200Y-104651485D01*
X195544628Y-104937200D01*
X195401771Y-105080057D01*
X195830342Y-100937200D02*
X195830342Y-99222914D01*
X198830342Y-100080057D02*
X195830342Y-100080057D01*
X198830342Y-98222914D02*
X195830342Y-98222914D01*
X198830342Y-96508628D02*
X197116057Y-97794342D01*
X195830342Y-96508628D02*
X197544628Y-98222914D01*
X195830342Y-95508628D02*
X198830342Y-94794342D01*
X196687485Y-94222914D01*
X198830342Y-93651485D01*
X195830342Y-92937200D01*
X196116057Y-89651485D02*
X195973200Y-89508628D01*
X195830342Y-89222914D01*
X195830342Y-88508628D01*
X195973200Y-88222914D01*
X196116057Y-88080057D01*
X196401771Y-87937200D01*
X196687485Y-87937200D01*
X197116057Y-88080057D01*
X198830342Y-89794342D01*
X198830342Y-87937200D01*
X195830342Y-86080057D02*
X195830342Y-85794342D01*
X195973200Y-85508628D01*
X196116057Y-85365771D01*
X196401771Y-85222914D01*
X196973200Y-85080057D01*
X197687485Y-85080057D01*
X198258914Y-85222914D01*
X198544628Y-85365771D01*
X198687485Y-85508628D01*
X198830342Y-85794342D01*
X198830342Y-86080057D01*
X198687485Y-86365771D01*
X198544628Y-86508628D01*
X198258914Y-86651485D01*
X197687485Y-86794342D01*
X196973200Y-86794342D01*
X196401771Y-86651485D01*
X196116057Y-86508628D01*
X195973200Y-86365771D01*
X195830342Y-86080057D01*
X196116057Y-83937200D02*
X195973200Y-83794342D01*
X195830342Y-83508628D01*
X195830342Y-82794342D01*
X195973200Y-82508628D01*
X196116057Y-82365771D01*
X196401771Y-82222914D01*
X196687485Y-82222914D01*
X197116057Y-82365771D01*
X198830342Y-84080057D01*
X198830342Y-82222914D01*
X198830342Y-79365771D02*
X198830342Y-81080057D01*
X198830342Y-80222914D02*
X195830342Y-80222914D01*
X196258914Y-80508628D01*
X196544628Y-80794342D01*
X196687485Y-81080057D01*
D11*
X191903000Y-58130200D02*
X191903000Y-54290200D01*
X190063000Y-58130200D02*
X190063000Y-54290200D01*
X170586000Y-50012600D02*
X189636000Y-50012600D01*
X189636000Y-50012600D02*
X189636000Y-102082600D01*
X189636000Y-102082600D02*
X170586000Y-102082600D01*
X170586000Y-102082600D02*
X170586000Y-50012600D01*
X174396000Y-50012600D02*
X174396000Y-60172600D01*
X174396000Y-60172600D02*
X185826000Y-60172600D01*
X185826000Y-60172600D02*
X185826000Y-50012600D01*
X101711000Y-63951600D02*
X101711000Y-65791600D01*
X101951000Y-63951600D02*
X101951000Y-65791600D01*
X101831000Y-63951600D02*
X101831000Y-65791600D01*
X105715000Y-64871600D02*
X104535000Y-64871600D01*
X100075000Y-64871600D02*
X101255000Y-64871600D01*
X104535000Y-63951600D02*
X101255000Y-63951600D01*
X104535000Y-65791600D02*
X104535000Y-63951600D01*
X101255000Y-65791600D02*
X104535000Y-65791600D01*
X101255000Y-63951600D02*
X101255000Y-65791600D01*
D10*
X194434000Y-62266600D02*
X194434000Y-50266600D01*
X200434000Y-62266600D02*
X194434000Y-62266600D01*
X200434000Y-50266600D02*
X200434000Y-62266600D01*
X194434000Y-50266600D02*
X200434000Y-50266600D01*
D11*
X184265000Y-119170000D02*
G75*
G03X184265000Y-119170000I-3000000J0D01*
G01*
X175365000Y-117170000D02*
X175365000Y-113070000D01*
X187165000Y-113070000D02*
X187165000Y-117170000D01*
X187165000Y-121170000D02*
X187165000Y-125270000D01*
X175365000Y-121170000D02*
X175365000Y-125270000D01*
X175365000Y-125270000D02*
X187165000Y-125270000D01*
X177465000Y-126670000D02*
X177165000Y-126970000D01*
X177165000Y-126970000D02*
X177165000Y-126370000D01*
X177165000Y-126370000D02*
X177465000Y-126670000D01*
X175365000Y-113070000D02*
X177765000Y-113070000D01*
X179965000Y-113070000D02*
X182565000Y-113070000D01*
X184765000Y-113070000D02*
X187165000Y-113070000D01*
X180765000Y-119170000D02*
X181765000Y-119170000D01*
X181265000Y-119670000D02*
X181265000Y-118670000D01*
X120507000Y-123769000D02*
X120507000Y-125609000D01*
X120747000Y-123769000D02*
X120747000Y-125609000D01*
X120627000Y-123769000D02*
X120627000Y-125609000D01*
X124511000Y-124689000D02*
X123331000Y-124689000D01*
X118871000Y-124689000D02*
X120051000Y-124689000D01*
X123331000Y-123769000D02*
X120051000Y-123769000D01*
X123331000Y-125609000D02*
X123331000Y-123769000D01*
X120051000Y-125609000D02*
X123331000Y-125609000D01*
X120051000Y-123769000D02*
X120051000Y-125609000D01*
X101330000Y-121229000D02*
X101330000Y-123069000D01*
X101570000Y-121229000D02*
X101570000Y-123069000D01*
X101450000Y-121229000D02*
X101450000Y-123069000D01*
X105334000Y-122149000D02*
X104154000Y-122149000D01*
X99694000Y-122149000D02*
X100874000Y-122149000D01*
X104154000Y-121229000D02*
X100874000Y-121229000D01*
X104154000Y-123069000D02*
X104154000Y-121229000D01*
X100874000Y-123069000D02*
X104154000Y-123069000D01*
X100874000Y-121229000D02*
X100874000Y-123069000D01*
X82534000Y-125293000D02*
X82534000Y-127133000D01*
X82774000Y-125293000D02*
X82774000Y-127133000D01*
X82654000Y-125293000D02*
X82654000Y-127133000D01*
X86538000Y-126213000D02*
X85358000Y-126213000D01*
X80898000Y-126213000D02*
X82078000Y-126213000D01*
X85358000Y-125293000D02*
X82078000Y-125293000D01*
X85358000Y-127133000D02*
X85358000Y-125293000D01*
X82078000Y-127133000D02*
X85358000Y-127133000D01*
X82078000Y-125293000D02*
X82078000Y-127133000D01*
X160258000Y-106624000D02*
X160258000Y-108464000D01*
X160498000Y-106624000D02*
X160498000Y-108464000D01*
X160378000Y-106624000D02*
X160378000Y-108464000D01*
X164262000Y-107544000D02*
X163082000Y-107544000D01*
X158622000Y-107544000D02*
X159802000Y-107544000D01*
X163082000Y-106624000D02*
X159802000Y-106624000D01*
X163082000Y-108464000D02*
X163082000Y-106624000D01*
X159802000Y-108464000D02*
X163082000Y-108464000D01*
X159802000Y-106624000D02*
X159802000Y-108464000D01*
X140192000Y-104338000D02*
X140192000Y-106178000D01*
X140432000Y-104338000D02*
X140432000Y-106178000D01*
X140312000Y-104338000D02*
X140312000Y-106178000D01*
X144196000Y-105258000D02*
X143016000Y-105258000D01*
X138556000Y-105258000D02*
X139736000Y-105258000D01*
X143016000Y-104338000D02*
X139736000Y-104338000D01*
X143016000Y-106178000D02*
X143016000Y-104338000D01*
X139736000Y-106178000D02*
X143016000Y-106178000D01*
X139736000Y-104338000D02*
X139736000Y-106178000D01*
X120888000Y-101925000D02*
X120888000Y-103765000D01*
X121128000Y-101925000D02*
X121128000Y-103765000D01*
X121008000Y-101925000D02*
X121008000Y-103765000D01*
X124892000Y-102845000D02*
X123712000Y-102845000D01*
X119252000Y-102845000D02*
X120432000Y-102845000D01*
X123712000Y-101925000D02*
X120432000Y-101925000D01*
X123712000Y-103765000D02*
X123712000Y-101925000D01*
X120432000Y-103765000D02*
X123712000Y-103765000D01*
X120432000Y-101925000D02*
X120432000Y-103765000D01*
X101965000Y-101925000D02*
X101965000Y-103765000D01*
X102205000Y-101925000D02*
X102205000Y-103765000D01*
X102085000Y-101925000D02*
X102085000Y-103765000D01*
X105969000Y-102845000D02*
X104789000Y-102845000D01*
X100329000Y-102845000D02*
X101509000Y-102845000D01*
X104789000Y-101925000D02*
X101509000Y-101925000D01*
X104789000Y-103765000D02*
X104789000Y-101925000D01*
X101509000Y-103765000D02*
X104789000Y-103765000D01*
X101509000Y-101925000D02*
X101509000Y-103765000D01*
X82915000Y-104338000D02*
X82915000Y-106178000D01*
X83155000Y-104338000D02*
X83155000Y-106178000D01*
X83035000Y-104338000D02*
X83035000Y-106178000D01*
X86919000Y-105258000D02*
X85739000Y-105258000D01*
X81279000Y-105258000D02*
X82459000Y-105258000D01*
X85739000Y-104338000D02*
X82459000Y-104338000D01*
X85739000Y-106178000D02*
X85739000Y-104338000D01*
X82459000Y-106178000D02*
X85739000Y-106178000D01*
X82459000Y-104338000D02*
X82459000Y-106178000D01*
X64119000Y-106751000D02*
X64119000Y-108591000D01*
X64359000Y-106751000D02*
X64359000Y-108591000D01*
X64239000Y-106751000D02*
X64239000Y-108591000D01*
X68123000Y-107671000D02*
X66943000Y-107671000D01*
X62483000Y-107671000D02*
X63663000Y-107671000D01*
X66943000Y-106751000D02*
X63663000Y-106751000D01*
X66943000Y-108591000D02*
X66943000Y-106751000D01*
X63663000Y-108591000D02*
X66943000Y-108591000D01*
X63663000Y-106751000D02*
X63663000Y-108591000D01*
X160258000Y-104211000D02*
X160258000Y-106051000D01*
X160498000Y-104211000D02*
X160498000Y-106051000D01*
X160378000Y-104211000D02*
X160378000Y-106051000D01*
X164262000Y-105131000D02*
X163082000Y-105131000D01*
X158622000Y-105131000D02*
X159802000Y-105131000D01*
X163082000Y-104211000D02*
X159802000Y-104211000D01*
X163082000Y-106051000D02*
X163082000Y-104211000D01*
X159802000Y-106051000D02*
X163082000Y-106051000D01*
X159802000Y-104211000D02*
X159802000Y-106051000D01*
X140065000Y-101798000D02*
X140065000Y-103638000D01*
X140305000Y-101798000D02*
X140305000Y-103638000D01*
X140185000Y-101798000D02*
X140185000Y-103638000D01*
X144069000Y-102718000D02*
X142889000Y-102718000D01*
X138429000Y-102718000D02*
X139609000Y-102718000D01*
X142889000Y-101798000D02*
X139609000Y-101798000D01*
X142889000Y-103638000D02*
X142889000Y-101798000D01*
X139609000Y-103638000D02*
X142889000Y-103638000D01*
X139609000Y-101798000D02*
X139609000Y-103638000D01*
X120888000Y-99512000D02*
X120888000Y-101352000D01*
X121128000Y-99512000D02*
X121128000Y-101352000D01*
X121008000Y-99512000D02*
X121008000Y-101352000D01*
X124892000Y-100432000D02*
X123712000Y-100432000D01*
X119252000Y-100432000D02*
X120432000Y-100432000D01*
X123712000Y-99512000D02*
X120432000Y-99512000D01*
X123712000Y-101352000D02*
X123712000Y-99512000D01*
X120432000Y-101352000D02*
X123712000Y-101352000D01*
X120432000Y-99512000D02*
X120432000Y-101352000D01*
X101965000Y-99639000D02*
X101965000Y-101479000D01*
X102205000Y-99639000D02*
X102205000Y-101479000D01*
X102085000Y-99639000D02*
X102085000Y-101479000D01*
X105969000Y-100559000D02*
X104789000Y-100559000D01*
X100329000Y-100559000D02*
X101509000Y-100559000D01*
X104789000Y-99639000D02*
X101509000Y-99639000D01*
X104789000Y-101479000D02*
X104789000Y-99639000D01*
X101509000Y-101479000D02*
X104789000Y-101479000D01*
X101509000Y-99639000D02*
X101509000Y-101479000D01*
X82915000Y-101798000D02*
X82915000Y-103638000D01*
X83155000Y-101798000D02*
X83155000Y-103638000D01*
X83035000Y-101798000D02*
X83035000Y-103638000D01*
X86919000Y-102718000D02*
X85739000Y-102718000D01*
X81279000Y-102718000D02*
X82459000Y-102718000D01*
X85739000Y-101798000D02*
X82459000Y-101798000D01*
X85739000Y-103638000D02*
X85739000Y-101798000D01*
X82459000Y-103638000D02*
X85739000Y-103638000D01*
X82459000Y-101798000D02*
X82459000Y-103638000D01*
X64119000Y-104211000D02*
X64119000Y-106051000D01*
X64359000Y-104211000D02*
X64359000Y-106051000D01*
X64239000Y-104211000D02*
X64239000Y-106051000D01*
X68123000Y-105131000D02*
X66943000Y-105131000D01*
X62483000Y-105131000D02*
X63663000Y-105131000D01*
X66943000Y-104211000D02*
X63663000Y-104211000D01*
X66943000Y-106051000D02*
X66943000Y-104211000D01*
X63663000Y-106051000D02*
X66943000Y-106051000D01*
X63663000Y-104211000D02*
X63663000Y-106051000D01*
X159115000Y-68777600D02*
X159115000Y-70617600D01*
X159355000Y-68777600D02*
X159355000Y-70617600D01*
X159235000Y-68777600D02*
X159235000Y-70617600D01*
X163119000Y-69697600D02*
X161939000Y-69697600D01*
X157479000Y-69697600D02*
X158659000Y-69697600D01*
X161939000Y-68777600D02*
X158659000Y-68777600D01*
X161939000Y-70617600D02*
X161939000Y-68777600D01*
X158659000Y-70617600D02*
X161939000Y-70617600D01*
X158659000Y-68777600D02*
X158659000Y-70617600D01*
X139938000Y-66491600D02*
X139938000Y-68331600D01*
X140178000Y-66491600D02*
X140178000Y-68331600D01*
X140058000Y-66491600D02*
X140058000Y-68331600D01*
X143942000Y-67411600D02*
X142762000Y-67411600D01*
X138302000Y-67411600D02*
X139482000Y-67411600D01*
X142762000Y-66491600D02*
X139482000Y-66491600D01*
X142762000Y-68331600D02*
X142762000Y-66491600D01*
X139482000Y-68331600D02*
X142762000Y-68331600D01*
X139482000Y-66491600D02*
X139482000Y-68331600D01*
X120888000Y-63824600D02*
X120888000Y-65664600D01*
X121128000Y-63824600D02*
X121128000Y-65664600D01*
X121008000Y-63824600D02*
X121008000Y-65664600D01*
X124892000Y-64744600D02*
X123712000Y-64744600D01*
X119252000Y-64744600D02*
X120432000Y-64744600D01*
X123712000Y-63824600D02*
X120432000Y-63824600D01*
X123712000Y-65664600D02*
X123712000Y-63824600D01*
X120432000Y-65664600D02*
X123712000Y-65664600D01*
X120432000Y-63824600D02*
X120432000Y-65664600D01*
X82661000Y-66237600D02*
X82661000Y-68077600D01*
X82901000Y-66237600D02*
X82901000Y-68077600D01*
X82781000Y-66237600D02*
X82781000Y-68077600D01*
X86665000Y-67157600D02*
X85485000Y-67157600D01*
X81025000Y-67157600D02*
X82205000Y-67157600D01*
X85485000Y-66237600D02*
X82205000Y-66237600D01*
X85485000Y-68077600D02*
X85485000Y-66237600D01*
X82205000Y-68077600D02*
X85485000Y-68077600D01*
X82205000Y-66237600D02*
X82205000Y-68077600D01*
X63357000Y-68650600D02*
X63357000Y-70490600D01*
X63597000Y-68650600D02*
X63597000Y-70490600D01*
X63477000Y-68650600D02*
X63477000Y-70490600D01*
X67361000Y-69570600D02*
X66181000Y-69570600D01*
X61721000Y-69570600D02*
X62901000Y-69570600D01*
X66181000Y-68650600D02*
X62901000Y-68650600D01*
X66181000Y-70490600D02*
X66181000Y-68650600D01*
X62901000Y-70490600D02*
X66181000Y-70490600D01*
X62901000Y-68650600D02*
X62901000Y-70490600D01*
X167507000Y-120412000D02*
X169347000Y-120412000D01*
X167507000Y-120172000D02*
X169347000Y-120172000D01*
X167507000Y-120292000D02*
X169347000Y-120292000D01*
X168427000Y-116408000D02*
X168427000Y-117588000D01*
X168427000Y-122048000D02*
X168427000Y-120868000D01*
X167507000Y-117588000D02*
X167507000Y-120868000D01*
X169347000Y-117588000D02*
X167507000Y-117588000D01*
X169347000Y-120868000D02*
X169347000Y-117588000D01*
X167507000Y-120868000D02*
X169347000Y-120868000D01*
X160004000Y-125928000D02*
X160004000Y-127768000D01*
X160244000Y-125928000D02*
X160244000Y-127768000D01*
X160124000Y-125928000D02*
X160124000Y-127768000D01*
X164008000Y-126848000D02*
X162828000Y-126848000D01*
X158368000Y-126848000D02*
X159548000Y-126848000D01*
X162828000Y-125928000D02*
X159548000Y-125928000D01*
X162828000Y-127768000D02*
X162828000Y-125928000D01*
X159548000Y-127768000D02*
X162828000Y-127768000D01*
X159548000Y-125928000D02*
X159548000Y-127768000D01*
X137906000Y-124658000D02*
X137906000Y-126498000D01*
X138146000Y-124658000D02*
X138146000Y-126498000D01*
X138026000Y-124658000D02*
X138026000Y-126498000D01*
X141910000Y-125578000D02*
X140730000Y-125578000D01*
X136270000Y-125578000D02*
X137450000Y-125578000D01*
X140730000Y-124658000D02*
X137450000Y-124658000D01*
X140730000Y-126498000D02*
X140730000Y-124658000D01*
X137450000Y-126498000D02*
X140730000Y-126498000D01*
X137450000Y-124658000D02*
X137450000Y-126498000D01*
X159115000Y-66237600D02*
X159115000Y-68077600D01*
X159355000Y-66237600D02*
X159355000Y-68077600D01*
X159235000Y-66237600D02*
X159235000Y-68077600D01*
X163119000Y-67157600D02*
X161939000Y-67157600D01*
X157479000Y-67157600D02*
X158659000Y-67157600D01*
X161939000Y-66237600D02*
X158659000Y-66237600D01*
X161939000Y-68077600D02*
X161939000Y-66237600D01*
X158659000Y-68077600D02*
X161939000Y-68077600D01*
X158659000Y-66237600D02*
X158659000Y-68077600D01*
X139938000Y-64205600D02*
X139938000Y-66045600D01*
X140178000Y-64205600D02*
X140178000Y-66045600D01*
X140058000Y-64205600D02*
X140058000Y-66045600D01*
X143942000Y-65125600D02*
X142762000Y-65125600D01*
X138302000Y-65125600D02*
X139482000Y-65125600D01*
X142762000Y-64205600D02*
X139482000Y-64205600D01*
X142762000Y-66045600D02*
X142762000Y-64205600D01*
X139482000Y-66045600D02*
X142762000Y-66045600D01*
X139482000Y-64205600D02*
X139482000Y-66045600D01*
X120888000Y-61284600D02*
X120888000Y-63124600D01*
X121128000Y-61284600D02*
X121128000Y-63124600D01*
X121008000Y-61284600D02*
X121008000Y-63124600D01*
X124892000Y-62204600D02*
X123712000Y-62204600D01*
X119252000Y-62204600D02*
X120432000Y-62204600D01*
X123712000Y-61284600D02*
X120432000Y-61284600D01*
X123712000Y-63124600D02*
X123712000Y-61284600D01*
X120432000Y-63124600D02*
X123712000Y-63124600D01*
X120432000Y-61284600D02*
X120432000Y-63124600D01*
X101711000Y-61411600D02*
X101711000Y-63251600D01*
X101951000Y-61411600D02*
X101951000Y-63251600D01*
X101831000Y-61411600D02*
X101831000Y-63251600D01*
X105715000Y-62331600D02*
X104535000Y-62331600D01*
X100075000Y-62331600D02*
X101255000Y-62331600D01*
X104535000Y-61411600D02*
X101255000Y-61411600D01*
X104535000Y-63251600D02*
X104535000Y-61411600D01*
X101255000Y-63251600D02*
X104535000Y-63251600D01*
X101255000Y-61411600D02*
X101255000Y-63251600D01*
X82661000Y-63824600D02*
X82661000Y-65664600D01*
X82901000Y-63824600D02*
X82901000Y-65664600D01*
X82781000Y-63824600D02*
X82781000Y-65664600D01*
X86665000Y-64744600D02*
X85485000Y-64744600D01*
X81025000Y-64744600D02*
X82205000Y-64744600D01*
X85485000Y-63824600D02*
X82205000Y-63824600D01*
X85485000Y-65664600D02*
X85485000Y-63824600D01*
X82205000Y-65664600D02*
X85485000Y-65664600D01*
X82205000Y-63824600D02*
X82205000Y-65664600D01*
X63357000Y-66237600D02*
X63357000Y-68077600D01*
X63597000Y-66237600D02*
X63597000Y-68077600D01*
X63477000Y-66237600D02*
X63477000Y-68077600D01*
X67361000Y-67157600D02*
X66181000Y-67157600D01*
X61721000Y-67157600D02*
X62901000Y-67157600D01*
X66181000Y-66237600D02*
X62901000Y-66237600D01*
X66181000Y-68077600D02*
X66181000Y-66237600D01*
X62901000Y-68077600D02*
X66181000Y-68077600D01*
X62901000Y-66237600D02*
X62901000Y-68077600D01*
D10*
X189515380Y-56376866D02*
X189039190Y-56710200D01*
X189515380Y-56948295D02*
X188515380Y-56948295D01*
X188515380Y-56567342D01*
X188563000Y-56472104D01*
X188610619Y-56424485D01*
X188705857Y-56376866D01*
X188848714Y-56376866D01*
X188943952Y-56424485D01*
X188991571Y-56472104D01*
X189039190Y-56567342D01*
X189039190Y-56948295D01*
X189515380Y-55424485D02*
X189515380Y-55995914D01*
X189515380Y-55710200D02*
X188515380Y-55710200D01*
X188658238Y-55805438D01*
X188753476Y-55900676D01*
X188801095Y-55995914D01*
X179349095Y-56314980D02*
X179349095Y-57124504D01*
X179396714Y-57219742D01*
X179444333Y-57267361D01*
X179539571Y-57314980D01*
X179730047Y-57314980D01*
X179825285Y-57267361D01*
X179872904Y-57219742D01*
X179920523Y-57124504D01*
X179920523Y-56314980D01*
X180920523Y-57314980D02*
X180349095Y-57314980D01*
X180634809Y-57314980D02*
X180634809Y-56314980D01*
X180539571Y-56457838D01*
X180444333Y-56553076D01*
X180349095Y-56600695D01*
X102360504Y-65298580D02*
X102360504Y-64298580D01*
X102598600Y-64298580D01*
X102741457Y-64346200D01*
X102836695Y-64441438D01*
X102884314Y-64536676D01*
X102931933Y-64727152D01*
X102931933Y-64870009D01*
X102884314Y-65060485D01*
X102836695Y-65155723D01*
X102741457Y-65250961D01*
X102598600Y-65298580D01*
X102360504Y-65298580D01*
X103408123Y-65298580D02*
X103598600Y-65298580D01*
X103693838Y-65250961D01*
X103741457Y-65203342D01*
X103836695Y-65060485D01*
X103884314Y-64870009D01*
X103884314Y-64489057D01*
X103836695Y-64393819D01*
X103789076Y-64346200D01*
X103693838Y-64298580D01*
X103503361Y-64298580D01*
X103408123Y-64346200D01*
X103360504Y-64393819D01*
X103312885Y-64489057D01*
X103312885Y-64727152D01*
X103360504Y-64822390D01*
X103408123Y-64870009D01*
X103503361Y-64917628D01*
X103693838Y-64917628D01*
X103789076Y-64870009D01*
X103836695Y-64822390D01*
X103884314Y-64727152D01*
X178658619Y-103261380D02*
X178849095Y-103261380D01*
X178944333Y-103309000D01*
X179039571Y-103404238D01*
X179087190Y-103594714D01*
X179087190Y-103928047D01*
X179039571Y-104118523D01*
X178944333Y-104213761D01*
X178849095Y-104261380D01*
X178658619Y-104261380D01*
X178563380Y-104213761D01*
X178468142Y-104118523D01*
X178420523Y-103928047D01*
X178420523Y-103594714D01*
X178468142Y-103404238D01*
X178563380Y-103309000D01*
X178658619Y-103261380D01*
X179991952Y-104261380D02*
X179515761Y-104261380D01*
X179515761Y-103261380D01*
X180325285Y-103737571D02*
X180658619Y-103737571D01*
X180801476Y-104261380D02*
X180325285Y-104261380D01*
X180325285Y-103261380D01*
X180801476Y-103261380D01*
X181230047Y-104261380D02*
X181230047Y-103261380D01*
X181468142Y-103261380D01*
X181611000Y-103309000D01*
X181706238Y-103404238D01*
X181753857Y-103499476D01*
X181801476Y-103689952D01*
X181801476Y-103832809D01*
X181753857Y-104023285D01*
X181706238Y-104118523D01*
X181611000Y-104213761D01*
X181468142Y-104261380D01*
X181230047Y-104261380D01*
X194922095Y-56168980D02*
X195493523Y-56168980D01*
X195207809Y-57168980D02*
X195207809Y-56168980D01*
X196398285Y-57168980D02*
X196064952Y-56692790D01*
X195826857Y-57168980D02*
X195826857Y-56168980D01*
X196207809Y-56168980D01*
X196303047Y-56216600D01*
X196350666Y-56264219D01*
X196398285Y-56359457D01*
X196398285Y-56502314D01*
X196350666Y-56597552D01*
X196303047Y-56645171D01*
X196207809Y-56692790D01*
X195826857Y-56692790D01*
X197398285Y-57168980D02*
X197064952Y-56692790D01*
X196826857Y-57168980D02*
X196826857Y-56168980D01*
X197207809Y-56168980D01*
X197303047Y-56216600D01*
X197350666Y-56264219D01*
X197398285Y-56359457D01*
X197398285Y-56502314D01*
X197350666Y-56597552D01*
X197303047Y-56645171D01*
X197207809Y-56692790D01*
X196826857Y-56692790D01*
X197779238Y-57121361D02*
X197922095Y-57168980D01*
X198160190Y-57168980D01*
X198255428Y-57121361D01*
X198303047Y-57073742D01*
X198350666Y-56978504D01*
X198350666Y-56883266D01*
X198303047Y-56788028D01*
X198255428Y-56740409D01*
X198160190Y-56692790D01*
X197969714Y-56645171D01*
X197874476Y-56597552D01*
X197826857Y-56549933D01*
X197779238Y-56454695D01*
X197779238Y-56359457D01*
X197826857Y-56264219D01*
X197874476Y-56216600D01*
X197969714Y-56168980D01*
X198207809Y-56168980D01*
X198350666Y-56216600D01*
X175772572Y-146041474D02*
X175885240Y-145941566D01*
X176004287Y-145735369D01*
X176010667Y-145629081D01*
X175993237Y-145564032D01*
X175934568Y-145475174D01*
X175852089Y-145427555D01*
X175745801Y-145421175D01*
X175680752Y-145438605D01*
X175591894Y-145497274D01*
X175455417Y-145638422D01*
X175366558Y-145697091D01*
X175301510Y-145714520D01*
X175195221Y-145708141D01*
X175112743Y-145660522D01*
X175054074Y-145571663D01*
X175036644Y-145506614D01*
X175043024Y-145400326D01*
X175162071Y-145194130D01*
X175274739Y-145094221D01*
X175400167Y-144781737D02*
X176385240Y-145075540D01*
X175861888Y-144553440D01*
X176575716Y-144745626D01*
X175828738Y-144039429D01*
X176077883Y-143798373D02*
X176060453Y-143733324D01*
X176066833Y-143627036D01*
X176185881Y-143420840D01*
X176274739Y-143362171D01*
X176339788Y-143344741D01*
X176446076Y-143351121D01*
X176528555Y-143398740D01*
X176628463Y-143511408D01*
X176837621Y-144291993D01*
X177147144Y-143755882D01*
X177385240Y-143343489D02*
X177480478Y-143178532D01*
X177486857Y-143072244D01*
X177469428Y-143007195D01*
X177393329Y-142853288D01*
X177252181Y-142716811D01*
X176922267Y-142526334D01*
X176815978Y-142519955D01*
X176750930Y-142537385D01*
X176662071Y-142596054D01*
X176566833Y-142761011D01*
X176560453Y-142867299D01*
X176577883Y-142932348D01*
X176636552Y-143021206D01*
X176842749Y-143140254D01*
X176949037Y-143146634D01*
X177014086Y-143129204D01*
X177102944Y-143070535D01*
X177198182Y-142905577D01*
X177204562Y-142799289D01*
X177187132Y-142734240D01*
X177128463Y-142645382D01*
X144248480Y-138260392D02*
X144380898Y-138332094D01*
X144615376Y-138373439D01*
X144717436Y-138343081D01*
X144772601Y-138304455D01*
X144836034Y-138218932D01*
X144852572Y-138125141D01*
X144822215Y-138023081D01*
X144783588Y-137967916D01*
X144698066Y-137904483D01*
X144518752Y-137824511D01*
X144433230Y-137761078D01*
X144394603Y-137705913D01*
X144364246Y-137603853D01*
X144380784Y-137510062D01*
X144444217Y-137424540D01*
X144499382Y-137385913D01*
X144601442Y-137355555D01*
X144835920Y-137396900D01*
X144968338Y-137468603D01*
X145304876Y-137479590D02*
X145365706Y-138505742D01*
X145677323Y-137835384D01*
X145740871Y-138571894D01*
X146148997Y-137628431D01*
X146460728Y-137780105D02*
X146515893Y-137741478D01*
X146617953Y-137711121D01*
X146852431Y-137752465D01*
X146937953Y-137815899D01*
X146976580Y-137871064D01*
X147006938Y-137973124D01*
X146990400Y-138066915D01*
X146918697Y-138199333D01*
X146256722Y-138662853D01*
X146866365Y-138770349D01*
X147528340Y-138306829D02*
X147442818Y-138243396D01*
X147404191Y-138188231D01*
X147373834Y-138086171D01*
X147382102Y-138039275D01*
X147445536Y-137953753D01*
X147500701Y-137915127D01*
X147602761Y-137884769D01*
X147790343Y-137917845D01*
X147875865Y-137981278D01*
X147914492Y-138036443D01*
X147944850Y-138138503D01*
X147936581Y-138185399D01*
X147873147Y-138270921D01*
X147817983Y-138309547D01*
X147715923Y-138339905D01*
X147528340Y-138306829D01*
X147426280Y-138337187D01*
X147371115Y-138375814D01*
X147307682Y-138461336D01*
X147274606Y-138648918D01*
X147304964Y-138750978D01*
X147343590Y-138806143D01*
X147429113Y-138869577D01*
X147616695Y-138902652D01*
X147718755Y-138872295D01*
X147773920Y-138833668D01*
X147837353Y-138748146D01*
X147870429Y-138560563D01*
X147840071Y-138458503D01*
X147801445Y-138403339D01*
X147715923Y-138339905D01*
X120567676Y-136726561D02*
X120710533Y-136774180D01*
X120948628Y-136774180D01*
X121043866Y-136726561D01*
X121091485Y-136678942D01*
X121139104Y-136583704D01*
X121139104Y-136488466D01*
X121091485Y-136393228D01*
X121043866Y-136345609D01*
X120948628Y-136297990D01*
X120758152Y-136250371D01*
X120662914Y-136202752D01*
X120615295Y-136155133D01*
X120567676Y-136059895D01*
X120567676Y-135964657D01*
X120615295Y-135869419D01*
X120662914Y-135821800D01*
X120758152Y-135774180D01*
X120996247Y-135774180D01*
X121139104Y-135821800D01*
X121472438Y-135774180D02*
X121710533Y-136774180D01*
X121901009Y-136059895D01*
X122091485Y-136774180D01*
X122329580Y-135774180D01*
X122662914Y-135869419D02*
X122710533Y-135821800D01*
X122805771Y-135774180D01*
X123043866Y-135774180D01*
X123139104Y-135821800D01*
X123186723Y-135869419D01*
X123234342Y-135964657D01*
X123234342Y-136059895D01*
X123186723Y-136202752D01*
X122615295Y-136774180D01*
X123234342Y-136774180D01*
X123567676Y-135774180D02*
X124234342Y-135774180D01*
X123805771Y-136774180D01*
X101238276Y-134999361D02*
X101381133Y-135046980D01*
X101619228Y-135046980D01*
X101714466Y-134999361D01*
X101762085Y-134951742D01*
X101809704Y-134856504D01*
X101809704Y-134761266D01*
X101762085Y-134666028D01*
X101714466Y-134618409D01*
X101619228Y-134570790D01*
X101428752Y-134523171D01*
X101333514Y-134475552D01*
X101285895Y-134427933D01*
X101238276Y-134332695D01*
X101238276Y-134237457D01*
X101285895Y-134142219D01*
X101333514Y-134094600D01*
X101428752Y-134046980D01*
X101666847Y-134046980D01*
X101809704Y-134094600D01*
X102143038Y-134046980D02*
X102381133Y-135046980D01*
X102571609Y-134332695D01*
X102762085Y-135046980D01*
X103000180Y-134046980D01*
X103333514Y-134142219D02*
X103381133Y-134094600D01*
X103476371Y-134046980D01*
X103714466Y-134046980D01*
X103809704Y-134094600D01*
X103857323Y-134142219D01*
X103904942Y-134237457D01*
X103904942Y-134332695D01*
X103857323Y-134475552D01*
X103285895Y-135046980D01*
X103904942Y-135046980D01*
X104762085Y-134046980D02*
X104571609Y-134046980D01*
X104476371Y-134094600D01*
X104428752Y-134142219D01*
X104333514Y-134285076D01*
X104285895Y-134475552D01*
X104285895Y-134856504D01*
X104333514Y-134951742D01*
X104381133Y-134999361D01*
X104476371Y-135046980D01*
X104666847Y-135046980D01*
X104762085Y-134999361D01*
X104809704Y-134951742D01*
X104857323Y-134856504D01*
X104857323Y-134618409D01*
X104809704Y-134523171D01*
X104762085Y-134475552D01*
X104666847Y-134427933D01*
X104476371Y-134427933D01*
X104381133Y-134475552D01*
X104333514Y-134523171D01*
X104285895Y-134618409D01*
X82162876Y-139317361D02*
X82305733Y-139364980D01*
X82543828Y-139364980D01*
X82639066Y-139317361D01*
X82686685Y-139269742D01*
X82734304Y-139174504D01*
X82734304Y-139079266D01*
X82686685Y-138984028D01*
X82639066Y-138936409D01*
X82543828Y-138888790D01*
X82353352Y-138841171D01*
X82258114Y-138793552D01*
X82210495Y-138745933D01*
X82162876Y-138650695D01*
X82162876Y-138555457D01*
X82210495Y-138460219D01*
X82258114Y-138412600D01*
X82353352Y-138364980D01*
X82591447Y-138364980D01*
X82734304Y-138412600D01*
X83067638Y-138364980D02*
X83305733Y-139364980D01*
X83496209Y-138650695D01*
X83686685Y-139364980D01*
X83924780Y-138364980D01*
X84258114Y-138460219D02*
X84305733Y-138412600D01*
X84400971Y-138364980D01*
X84639066Y-138364980D01*
X84734304Y-138412600D01*
X84781923Y-138460219D01*
X84829542Y-138555457D01*
X84829542Y-138650695D01*
X84781923Y-138793552D01*
X84210495Y-139364980D01*
X84829542Y-139364980D01*
X85734304Y-138364980D02*
X85258114Y-138364980D01*
X85210495Y-138841171D01*
X85258114Y-138793552D01*
X85353352Y-138745933D01*
X85591447Y-138745933D01*
X85686685Y-138793552D01*
X85734304Y-138841171D01*
X85781923Y-138936409D01*
X85781923Y-139174504D01*
X85734304Y-139269742D01*
X85686685Y-139317361D01*
X85591447Y-139364980D01*
X85353352Y-139364980D01*
X85258114Y-139317361D01*
X85210495Y-139269742D01*
X158362876Y-119454561D02*
X158505733Y-119502180D01*
X158743828Y-119502180D01*
X158839066Y-119454561D01*
X158886685Y-119406942D01*
X158934304Y-119311704D01*
X158934304Y-119216466D01*
X158886685Y-119121228D01*
X158839066Y-119073609D01*
X158743828Y-119025990D01*
X158553352Y-118978371D01*
X158458114Y-118930752D01*
X158410495Y-118883133D01*
X158362876Y-118787895D01*
X158362876Y-118692657D01*
X158410495Y-118597419D01*
X158458114Y-118549800D01*
X158553352Y-118502180D01*
X158791447Y-118502180D01*
X158934304Y-118549800D01*
X159267638Y-118502180D02*
X159505733Y-119502180D01*
X159696209Y-118787895D01*
X159886685Y-119502180D01*
X160124780Y-118502180D01*
X160458114Y-118597419D02*
X160505733Y-118549800D01*
X160600971Y-118502180D01*
X160839066Y-118502180D01*
X160934304Y-118549800D01*
X160981923Y-118597419D01*
X161029542Y-118692657D01*
X161029542Y-118787895D01*
X160981923Y-118930752D01*
X160410495Y-119502180D01*
X161029542Y-119502180D01*
X161886685Y-118835514D02*
X161886685Y-119502180D01*
X161648590Y-118454561D02*
X161410495Y-119168847D01*
X162029542Y-119168847D01*
X139185876Y-117320961D02*
X139328733Y-117368580D01*
X139566828Y-117368580D01*
X139662066Y-117320961D01*
X139709685Y-117273342D01*
X139757304Y-117178104D01*
X139757304Y-117082866D01*
X139709685Y-116987628D01*
X139662066Y-116940009D01*
X139566828Y-116892390D01*
X139376352Y-116844771D01*
X139281114Y-116797152D01*
X139233495Y-116749533D01*
X139185876Y-116654295D01*
X139185876Y-116559057D01*
X139233495Y-116463819D01*
X139281114Y-116416200D01*
X139376352Y-116368580D01*
X139614447Y-116368580D01*
X139757304Y-116416200D01*
X140090638Y-116368580D02*
X140328733Y-117368580D01*
X140519209Y-116654295D01*
X140709685Y-117368580D01*
X140947780Y-116368580D01*
X141281114Y-116463819D02*
X141328733Y-116416200D01*
X141423971Y-116368580D01*
X141662066Y-116368580D01*
X141757304Y-116416200D01*
X141804923Y-116463819D01*
X141852542Y-116559057D01*
X141852542Y-116654295D01*
X141804923Y-116797152D01*
X141233495Y-117368580D01*
X141852542Y-117368580D01*
X142185876Y-116368580D02*
X142804923Y-116368580D01*
X142471590Y-116749533D01*
X142614447Y-116749533D01*
X142709685Y-116797152D01*
X142757304Y-116844771D01*
X142804923Y-116940009D01*
X142804923Y-117178104D01*
X142757304Y-117273342D01*
X142709685Y-117320961D01*
X142614447Y-117368580D01*
X142328733Y-117368580D01*
X142233495Y-117320961D01*
X142185876Y-117273342D01*
X120237476Y-114780961D02*
X120380333Y-114828580D01*
X120618428Y-114828580D01*
X120713666Y-114780961D01*
X120761285Y-114733342D01*
X120808904Y-114638104D01*
X120808904Y-114542866D01*
X120761285Y-114447628D01*
X120713666Y-114400009D01*
X120618428Y-114352390D01*
X120427952Y-114304771D01*
X120332714Y-114257152D01*
X120285095Y-114209533D01*
X120237476Y-114114295D01*
X120237476Y-114019057D01*
X120285095Y-113923819D01*
X120332714Y-113876200D01*
X120427952Y-113828580D01*
X120666047Y-113828580D01*
X120808904Y-113876200D01*
X121142238Y-113828580D02*
X121380333Y-114828580D01*
X121570809Y-114114295D01*
X121761285Y-114828580D01*
X121999380Y-113828580D01*
X122332714Y-113923819D02*
X122380333Y-113876200D01*
X122475571Y-113828580D01*
X122713666Y-113828580D01*
X122808904Y-113876200D01*
X122856523Y-113923819D01*
X122904142Y-114019057D01*
X122904142Y-114114295D01*
X122856523Y-114257152D01*
X122285095Y-114828580D01*
X122904142Y-114828580D01*
X123285095Y-113923819D02*
X123332714Y-113876200D01*
X123427952Y-113828580D01*
X123666047Y-113828580D01*
X123761285Y-113876200D01*
X123808904Y-113923819D01*
X123856523Y-114019057D01*
X123856523Y-114114295D01*
X123808904Y-114257152D01*
X123237476Y-114828580D01*
X123856523Y-114828580D01*
X102508276Y-115365161D02*
X102651133Y-115412780D01*
X102889228Y-115412780D01*
X102984466Y-115365161D01*
X103032085Y-115317542D01*
X103079704Y-115222304D01*
X103079704Y-115127066D01*
X103032085Y-115031828D01*
X102984466Y-114984209D01*
X102889228Y-114936590D01*
X102698752Y-114888971D01*
X102603514Y-114841352D01*
X102555895Y-114793733D01*
X102508276Y-114698495D01*
X102508276Y-114603257D01*
X102555895Y-114508019D01*
X102603514Y-114460400D01*
X102698752Y-114412780D01*
X102936847Y-114412780D01*
X103079704Y-114460400D01*
X103413038Y-114412780D02*
X103651133Y-115412780D01*
X103841609Y-114698495D01*
X104032085Y-115412780D01*
X104270180Y-114412780D01*
X104603514Y-114508019D02*
X104651133Y-114460400D01*
X104746371Y-114412780D01*
X104984466Y-114412780D01*
X105079704Y-114460400D01*
X105127323Y-114508019D01*
X105174942Y-114603257D01*
X105174942Y-114698495D01*
X105127323Y-114841352D01*
X104555895Y-115412780D01*
X105174942Y-115412780D01*
X106127323Y-115412780D02*
X105555895Y-115412780D01*
X105841609Y-115412780D02*
X105841609Y-114412780D01*
X105746371Y-114555638D01*
X105651133Y-114650876D01*
X105555895Y-114698495D01*
X82391476Y-117676561D02*
X82534333Y-117724180D01*
X82772428Y-117724180D01*
X82867666Y-117676561D01*
X82915285Y-117628942D01*
X82962904Y-117533704D01*
X82962904Y-117438466D01*
X82915285Y-117343228D01*
X82867666Y-117295609D01*
X82772428Y-117247990D01*
X82581952Y-117200371D01*
X82486714Y-117152752D01*
X82439095Y-117105133D01*
X82391476Y-117009895D01*
X82391476Y-116914657D01*
X82439095Y-116819419D01*
X82486714Y-116771800D01*
X82581952Y-116724180D01*
X82820047Y-116724180D01*
X82962904Y-116771800D01*
X83296238Y-116724180D02*
X83534333Y-117724180D01*
X83724809Y-117009895D01*
X83915285Y-117724180D01*
X84153380Y-116724180D01*
X84486714Y-116819419D02*
X84534333Y-116771800D01*
X84629571Y-116724180D01*
X84867666Y-116724180D01*
X84962904Y-116771800D01*
X85010523Y-116819419D01*
X85058142Y-116914657D01*
X85058142Y-117009895D01*
X85010523Y-117152752D01*
X84439095Y-117724180D01*
X85058142Y-117724180D01*
X85677190Y-116724180D02*
X85772428Y-116724180D01*
X85867666Y-116771800D01*
X85915285Y-116819419D01*
X85962904Y-116914657D01*
X86010523Y-117105133D01*
X86010523Y-117343228D01*
X85962904Y-117533704D01*
X85915285Y-117628942D01*
X85867666Y-117676561D01*
X85772428Y-117724180D01*
X85677190Y-117724180D01*
X85581952Y-117676561D01*
X85534333Y-117628942D01*
X85486714Y-117533704D01*
X85439095Y-117343228D01*
X85439095Y-117105133D01*
X85486714Y-116914657D01*
X85534333Y-116819419D01*
X85581952Y-116771800D01*
X85677190Y-116724180D01*
X62985876Y-120114961D02*
X63128733Y-120162580D01*
X63366828Y-120162580D01*
X63462066Y-120114961D01*
X63509685Y-120067342D01*
X63557304Y-119972104D01*
X63557304Y-119876866D01*
X63509685Y-119781628D01*
X63462066Y-119734009D01*
X63366828Y-119686390D01*
X63176352Y-119638771D01*
X63081114Y-119591152D01*
X63033495Y-119543533D01*
X62985876Y-119448295D01*
X62985876Y-119353057D01*
X63033495Y-119257819D01*
X63081114Y-119210200D01*
X63176352Y-119162580D01*
X63414447Y-119162580D01*
X63557304Y-119210200D01*
X63890638Y-119162580D02*
X64128733Y-120162580D01*
X64319209Y-119448295D01*
X64509685Y-120162580D01*
X64747780Y-119162580D01*
X65652542Y-120162580D02*
X65081114Y-120162580D01*
X65366828Y-120162580D02*
X65366828Y-119162580D01*
X65271590Y-119305438D01*
X65176352Y-119400676D01*
X65081114Y-119448295D01*
X66128733Y-120162580D02*
X66319209Y-120162580D01*
X66414447Y-120114961D01*
X66462066Y-120067342D01*
X66557304Y-119924485D01*
X66604923Y-119734009D01*
X66604923Y-119353057D01*
X66557304Y-119257819D01*
X66509685Y-119210200D01*
X66414447Y-119162580D01*
X66223971Y-119162580D01*
X66128733Y-119210200D01*
X66081114Y-119257819D01*
X66033495Y-119353057D01*
X66033495Y-119591152D01*
X66081114Y-119686390D01*
X66128733Y-119734009D01*
X66223971Y-119781628D01*
X66414447Y-119781628D01*
X66509685Y-119734009D01*
X66557304Y-119686390D01*
X66604923Y-119591152D01*
X158642276Y-100810961D02*
X158785133Y-100858580D01*
X159023228Y-100858580D01*
X159118466Y-100810961D01*
X159166085Y-100763342D01*
X159213704Y-100668104D01*
X159213704Y-100572866D01*
X159166085Y-100477628D01*
X159118466Y-100430009D01*
X159023228Y-100382390D01*
X158832752Y-100334771D01*
X158737514Y-100287152D01*
X158689895Y-100239533D01*
X158642276Y-100144295D01*
X158642276Y-100049057D01*
X158689895Y-99953819D01*
X158737514Y-99906200D01*
X158832752Y-99858580D01*
X159070847Y-99858580D01*
X159213704Y-99906200D01*
X159547038Y-99858580D02*
X159785133Y-100858580D01*
X159975609Y-100144295D01*
X160166085Y-100858580D01*
X160404180Y-99858580D01*
X161308942Y-100858580D02*
X160737514Y-100858580D01*
X161023228Y-100858580D02*
X161023228Y-99858580D01*
X160927990Y-100001438D01*
X160832752Y-100096676D01*
X160737514Y-100144295D01*
X161880371Y-100287152D02*
X161785133Y-100239533D01*
X161737514Y-100191914D01*
X161689895Y-100096676D01*
X161689895Y-100049057D01*
X161737514Y-99953819D01*
X161785133Y-99906200D01*
X161880371Y-99858580D01*
X162070847Y-99858580D01*
X162166085Y-99906200D01*
X162213704Y-99953819D01*
X162261323Y-100049057D01*
X162261323Y-100096676D01*
X162213704Y-100191914D01*
X162166085Y-100239533D01*
X162070847Y-100287152D01*
X161880371Y-100287152D01*
X161785133Y-100334771D01*
X161737514Y-100382390D01*
X161689895Y-100477628D01*
X161689895Y-100668104D01*
X161737514Y-100763342D01*
X161785133Y-100810961D01*
X161880371Y-100858580D01*
X162070847Y-100858580D01*
X162166085Y-100810961D01*
X162213704Y-100763342D01*
X162261323Y-100668104D01*
X162261323Y-100477628D01*
X162213704Y-100382390D01*
X162166085Y-100334771D01*
X162070847Y-100287152D01*
X139719276Y-98829761D02*
X139862133Y-98877380D01*
X140100228Y-98877380D01*
X140195466Y-98829761D01*
X140243085Y-98782142D01*
X140290704Y-98686904D01*
X140290704Y-98591666D01*
X140243085Y-98496428D01*
X140195466Y-98448809D01*
X140100228Y-98401190D01*
X139909752Y-98353571D01*
X139814514Y-98305952D01*
X139766895Y-98258333D01*
X139719276Y-98163095D01*
X139719276Y-98067857D01*
X139766895Y-97972619D01*
X139814514Y-97925000D01*
X139909752Y-97877380D01*
X140147847Y-97877380D01*
X140290704Y-97925000D01*
X140624038Y-97877380D02*
X140862133Y-98877380D01*
X141052609Y-98163095D01*
X141243085Y-98877380D01*
X141481180Y-97877380D01*
X142385942Y-98877380D02*
X141814514Y-98877380D01*
X142100228Y-98877380D02*
X142100228Y-97877380D01*
X142004990Y-98020238D01*
X141909752Y-98115476D01*
X141814514Y-98163095D01*
X142719276Y-97877380D02*
X143385942Y-97877380D01*
X142957371Y-98877380D01*
X120593076Y-96467561D02*
X120735933Y-96515180D01*
X120974028Y-96515180D01*
X121069266Y-96467561D01*
X121116885Y-96419942D01*
X121164504Y-96324704D01*
X121164504Y-96229466D01*
X121116885Y-96134228D01*
X121069266Y-96086609D01*
X120974028Y-96038990D01*
X120783552Y-95991371D01*
X120688314Y-95943752D01*
X120640695Y-95896133D01*
X120593076Y-95800895D01*
X120593076Y-95705657D01*
X120640695Y-95610419D01*
X120688314Y-95562800D01*
X120783552Y-95515180D01*
X121021647Y-95515180D01*
X121164504Y-95562800D01*
X121497838Y-95515180D02*
X121735933Y-96515180D01*
X121926409Y-95800895D01*
X122116885Y-96515180D01*
X122354980Y-95515180D01*
X123259742Y-96515180D02*
X122688314Y-96515180D01*
X122974028Y-96515180D02*
X122974028Y-95515180D01*
X122878790Y-95658038D01*
X122783552Y-95753276D01*
X122688314Y-95800895D01*
X124116885Y-95515180D02*
X123926409Y-95515180D01*
X123831171Y-95562800D01*
X123783552Y-95610419D01*
X123688314Y-95753276D01*
X123640695Y-95943752D01*
X123640695Y-96324704D01*
X123688314Y-96419942D01*
X123735933Y-96467561D01*
X123831171Y-96515180D01*
X124021647Y-96515180D01*
X124116885Y-96467561D01*
X124164504Y-96419942D01*
X124212123Y-96324704D01*
X124212123Y-96086609D01*
X124164504Y-95991371D01*
X124116885Y-95943752D01*
X124021647Y-95896133D01*
X123831171Y-95896133D01*
X123735933Y-95943752D01*
X123688314Y-95991371D01*
X123640695Y-96086609D01*
X101339876Y-96569161D02*
X101482733Y-96616780D01*
X101720828Y-96616780D01*
X101816066Y-96569161D01*
X101863685Y-96521542D01*
X101911304Y-96426304D01*
X101911304Y-96331066D01*
X101863685Y-96235828D01*
X101816066Y-96188209D01*
X101720828Y-96140590D01*
X101530352Y-96092971D01*
X101435114Y-96045352D01*
X101387495Y-95997733D01*
X101339876Y-95902495D01*
X101339876Y-95807257D01*
X101387495Y-95712019D01*
X101435114Y-95664400D01*
X101530352Y-95616780D01*
X101768447Y-95616780D01*
X101911304Y-95664400D01*
X102244638Y-95616780D02*
X102482733Y-96616780D01*
X102673209Y-95902495D01*
X102863685Y-96616780D01*
X103101780Y-95616780D01*
X104006542Y-96616780D02*
X103435114Y-96616780D01*
X103720828Y-96616780D02*
X103720828Y-95616780D01*
X103625590Y-95759638D01*
X103530352Y-95854876D01*
X103435114Y-95902495D01*
X104911304Y-95616780D02*
X104435114Y-95616780D01*
X104387495Y-96092971D01*
X104435114Y-96045352D01*
X104530352Y-95997733D01*
X104768447Y-95997733D01*
X104863685Y-96045352D01*
X104911304Y-96092971D01*
X104958923Y-96188209D01*
X104958923Y-96426304D01*
X104911304Y-96521542D01*
X104863685Y-96569161D01*
X104768447Y-96616780D01*
X104530352Y-96616780D01*
X104435114Y-96569161D01*
X104387495Y-96521542D01*
X82518476Y-98931361D02*
X82661333Y-98978980D01*
X82899428Y-98978980D01*
X82994666Y-98931361D01*
X83042285Y-98883742D01*
X83089904Y-98788504D01*
X83089904Y-98693266D01*
X83042285Y-98598028D01*
X82994666Y-98550409D01*
X82899428Y-98502790D01*
X82708952Y-98455171D01*
X82613714Y-98407552D01*
X82566095Y-98359933D01*
X82518476Y-98264695D01*
X82518476Y-98169457D01*
X82566095Y-98074219D01*
X82613714Y-98026600D01*
X82708952Y-97978980D01*
X82947047Y-97978980D01*
X83089904Y-98026600D01*
X83423238Y-97978980D02*
X83661333Y-98978980D01*
X83851809Y-98264695D01*
X84042285Y-98978980D01*
X84280380Y-97978980D01*
X85185142Y-98978980D02*
X84613714Y-98978980D01*
X84899428Y-98978980D02*
X84899428Y-97978980D01*
X84804190Y-98121838D01*
X84708952Y-98217076D01*
X84613714Y-98264695D01*
X86042285Y-98312314D02*
X86042285Y-98978980D01*
X85804190Y-97931361D02*
X85566095Y-98645647D01*
X86185142Y-98645647D01*
X63620876Y-101623761D02*
X63763733Y-101671380D01*
X64001828Y-101671380D01*
X64097066Y-101623761D01*
X64144685Y-101576142D01*
X64192304Y-101480904D01*
X64192304Y-101385666D01*
X64144685Y-101290428D01*
X64097066Y-101242809D01*
X64001828Y-101195190D01*
X63811352Y-101147571D01*
X63716114Y-101099952D01*
X63668495Y-101052333D01*
X63620876Y-100957095D01*
X63620876Y-100861857D01*
X63668495Y-100766619D01*
X63716114Y-100719000D01*
X63811352Y-100671380D01*
X64049447Y-100671380D01*
X64192304Y-100719000D01*
X64525638Y-100671380D02*
X64763733Y-101671380D01*
X64954209Y-100957095D01*
X65144685Y-101671380D01*
X65382780Y-100671380D01*
X66287542Y-101671380D02*
X65716114Y-101671380D01*
X66001828Y-101671380D02*
X66001828Y-100671380D01*
X65906590Y-100814238D01*
X65811352Y-100909476D01*
X65716114Y-100957095D01*
X66620876Y-100671380D02*
X67239923Y-100671380D01*
X66906590Y-101052333D01*
X67049447Y-101052333D01*
X67144685Y-101099952D01*
X67192304Y-101147571D01*
X67239923Y-101242809D01*
X67239923Y-101480904D01*
X67192304Y-101576142D01*
X67144685Y-101623761D01*
X67049447Y-101671380D01*
X66763733Y-101671380D01*
X66668495Y-101623761D01*
X66620876Y-101576142D01*
X158235876Y-81735561D02*
X158378733Y-81783180D01*
X158616828Y-81783180D01*
X158712066Y-81735561D01*
X158759685Y-81687942D01*
X158807304Y-81592704D01*
X158807304Y-81497466D01*
X158759685Y-81402228D01*
X158712066Y-81354609D01*
X158616828Y-81306990D01*
X158426352Y-81259371D01*
X158331114Y-81211752D01*
X158283495Y-81164133D01*
X158235876Y-81068895D01*
X158235876Y-80973657D01*
X158283495Y-80878419D01*
X158331114Y-80830800D01*
X158426352Y-80783180D01*
X158664447Y-80783180D01*
X158807304Y-80830800D01*
X159140638Y-80783180D02*
X159378733Y-81783180D01*
X159569209Y-81068895D01*
X159759685Y-81783180D01*
X159997780Y-80783180D01*
X160902542Y-81783180D02*
X160331114Y-81783180D01*
X160616828Y-81783180D02*
X160616828Y-80783180D01*
X160521590Y-80926038D01*
X160426352Y-81021276D01*
X160331114Y-81068895D01*
X161283495Y-80878419D02*
X161331114Y-80830800D01*
X161426352Y-80783180D01*
X161664447Y-80783180D01*
X161759685Y-80830800D01*
X161807304Y-80878419D01*
X161854923Y-80973657D01*
X161854923Y-81068895D01*
X161807304Y-81211752D01*
X161235876Y-81783180D01*
X161854923Y-81783180D01*
X139287476Y-79322561D02*
X139430333Y-79370180D01*
X139668428Y-79370180D01*
X139763666Y-79322561D01*
X139811285Y-79274942D01*
X139858904Y-79179704D01*
X139858904Y-79084466D01*
X139811285Y-78989228D01*
X139763666Y-78941609D01*
X139668428Y-78893990D01*
X139477952Y-78846371D01*
X139382714Y-78798752D01*
X139335095Y-78751133D01*
X139287476Y-78655895D01*
X139287476Y-78560657D01*
X139335095Y-78465419D01*
X139382714Y-78417800D01*
X139477952Y-78370180D01*
X139716047Y-78370180D01*
X139858904Y-78417800D01*
X140192238Y-78370180D02*
X140430333Y-79370180D01*
X140620809Y-78655895D01*
X140811285Y-79370180D01*
X141049380Y-78370180D01*
X141954142Y-79370180D02*
X141382714Y-79370180D01*
X141668428Y-79370180D02*
X141668428Y-78370180D01*
X141573190Y-78513038D01*
X141477952Y-78608276D01*
X141382714Y-78655895D01*
X142906523Y-79370180D02*
X142335095Y-79370180D01*
X142620809Y-79370180D02*
X142620809Y-78370180D01*
X142525571Y-78513038D01*
X142430333Y-78608276D01*
X142335095Y-78655895D01*
X117779476Y-70763361D02*
X117922333Y-70810980D01*
X118160428Y-70810980D01*
X118255666Y-70763361D01*
X118303285Y-70715742D01*
X118350904Y-70620504D01*
X118350904Y-70525266D01*
X118303285Y-70430028D01*
X118255666Y-70382409D01*
X118160428Y-70334790D01*
X117969952Y-70287171D01*
X117874714Y-70239552D01*
X117827095Y-70191933D01*
X117779476Y-70096695D01*
X117779476Y-70001457D01*
X117827095Y-69906219D01*
X117874714Y-69858600D01*
X117969952Y-69810980D01*
X118208047Y-69810980D01*
X118350904Y-69858600D01*
X118684238Y-69810980D02*
X118922333Y-70810980D01*
X119112809Y-70096695D01*
X119303285Y-70810980D01*
X119541380Y-69810980D01*
X120446142Y-70810980D02*
X119874714Y-70810980D01*
X120160428Y-70810980D02*
X120160428Y-69810980D01*
X120065190Y-69953838D01*
X119969952Y-70049076D01*
X119874714Y-70096695D01*
X121065190Y-69810980D02*
X121160428Y-69810980D01*
X121255666Y-69858600D01*
X121303285Y-69906219D01*
X121350904Y-70001457D01*
X121398523Y-70191933D01*
X121398523Y-70430028D01*
X121350904Y-70620504D01*
X121303285Y-70715742D01*
X121255666Y-70763361D01*
X121160428Y-70810980D01*
X121065190Y-70810980D01*
X120969952Y-70763361D01*
X120922333Y-70715742D01*
X120874714Y-70620504D01*
X120827095Y-70430028D01*
X120827095Y-70191933D01*
X120874714Y-70001457D01*
X120922333Y-69906219D01*
X120969952Y-69858600D01*
X121065190Y-69810980D01*
X99215666Y-70763361D02*
X99358523Y-70810980D01*
X99596619Y-70810980D01*
X99691857Y-70763361D01*
X99739476Y-70715742D01*
X99787095Y-70620504D01*
X99787095Y-70525266D01*
X99739476Y-70430028D01*
X99691857Y-70382409D01*
X99596619Y-70334790D01*
X99406142Y-70287171D01*
X99310904Y-70239552D01*
X99263285Y-70191933D01*
X99215666Y-70096695D01*
X99215666Y-70001457D01*
X99263285Y-69906219D01*
X99310904Y-69858600D01*
X99406142Y-69810980D01*
X99644238Y-69810980D01*
X99787095Y-69858600D01*
X100120428Y-69810980D02*
X100358523Y-70810980D01*
X100549000Y-70096695D01*
X100739476Y-70810980D01*
X100977571Y-69810980D01*
X101406142Y-70810980D02*
X101596619Y-70810980D01*
X101691857Y-70763361D01*
X101739476Y-70715742D01*
X101834714Y-70572885D01*
X101882333Y-70382409D01*
X101882333Y-70001457D01*
X101834714Y-69906219D01*
X101787095Y-69858600D01*
X101691857Y-69810980D01*
X101501380Y-69810980D01*
X101406142Y-69858600D01*
X101358523Y-69906219D01*
X101310904Y-70001457D01*
X101310904Y-70239552D01*
X101358523Y-70334790D01*
X101406142Y-70382409D01*
X101501380Y-70430028D01*
X101691857Y-70430028D01*
X101787095Y-70382409D01*
X101834714Y-70334790D01*
X101882333Y-70239552D01*
X80175666Y-73143361D02*
X80318523Y-73190980D01*
X80556619Y-73190980D01*
X80651857Y-73143361D01*
X80699476Y-73095742D01*
X80747095Y-73000504D01*
X80747095Y-72905266D01*
X80699476Y-72810028D01*
X80651857Y-72762409D01*
X80556619Y-72714790D01*
X80366142Y-72667171D01*
X80270904Y-72619552D01*
X80223285Y-72571933D01*
X80175666Y-72476695D01*
X80175666Y-72381457D01*
X80223285Y-72286219D01*
X80270904Y-72238600D01*
X80366142Y-72190980D01*
X80604238Y-72190980D01*
X80747095Y-72238600D01*
X81080428Y-72190980D02*
X81318523Y-73190980D01*
X81509000Y-72476695D01*
X81699476Y-73190980D01*
X81937571Y-72190980D01*
X82461380Y-72619552D02*
X82366142Y-72571933D01*
X82318523Y-72524314D01*
X82270904Y-72429076D01*
X82270904Y-72381457D01*
X82318523Y-72286219D01*
X82366142Y-72238600D01*
X82461380Y-72190980D01*
X82651857Y-72190980D01*
X82747095Y-72238600D01*
X82794714Y-72286219D01*
X82842333Y-72381457D01*
X82842333Y-72429076D01*
X82794714Y-72524314D01*
X82747095Y-72571933D01*
X82651857Y-72619552D01*
X82461380Y-72619552D01*
X82366142Y-72667171D01*
X82318523Y-72714790D01*
X82270904Y-72810028D01*
X82270904Y-73000504D01*
X82318523Y-73095742D01*
X82366142Y-73143361D01*
X82461380Y-73190980D01*
X82651857Y-73190980D01*
X82747095Y-73143361D01*
X82794714Y-73095742D01*
X82842333Y-73000504D01*
X82842333Y-72810028D01*
X82794714Y-72714790D01*
X82747095Y-72667171D01*
X82651857Y-72619552D01*
X61135666Y-75523361D02*
X61278523Y-75570980D01*
X61516619Y-75570980D01*
X61611857Y-75523361D01*
X61659476Y-75475742D01*
X61707095Y-75380504D01*
X61707095Y-75285266D01*
X61659476Y-75190028D01*
X61611857Y-75142409D01*
X61516619Y-75094790D01*
X61326142Y-75047171D01*
X61230904Y-74999552D01*
X61183285Y-74951933D01*
X61135666Y-74856695D01*
X61135666Y-74761457D01*
X61183285Y-74666219D01*
X61230904Y-74618600D01*
X61326142Y-74570980D01*
X61564238Y-74570980D01*
X61707095Y-74618600D01*
X62040428Y-74570980D02*
X62278523Y-75570980D01*
X62469000Y-74856695D01*
X62659476Y-75570980D01*
X62897571Y-74570980D01*
X63183285Y-74570980D02*
X63849952Y-74570980D01*
X63421380Y-75570980D01*
X159143866Y-63371361D02*
X159286723Y-63418980D01*
X159524819Y-63418980D01*
X159620057Y-63371361D01*
X159667676Y-63323742D01*
X159715295Y-63228504D01*
X159715295Y-63133266D01*
X159667676Y-63038028D01*
X159620057Y-62990409D01*
X159524819Y-62942790D01*
X159334342Y-62895171D01*
X159239104Y-62847552D01*
X159191485Y-62799933D01*
X159143866Y-62704695D01*
X159143866Y-62609457D01*
X159191485Y-62514219D01*
X159239104Y-62466600D01*
X159334342Y-62418980D01*
X159572438Y-62418980D01*
X159715295Y-62466600D01*
X160048628Y-62418980D02*
X160286723Y-63418980D01*
X160477200Y-62704695D01*
X160667676Y-63418980D01*
X160905771Y-62418980D01*
X161715295Y-62418980D02*
X161524819Y-62418980D01*
X161429580Y-62466600D01*
X161381961Y-62514219D01*
X161286723Y-62657076D01*
X161239104Y-62847552D01*
X161239104Y-63228504D01*
X161286723Y-63323742D01*
X161334342Y-63371361D01*
X161429580Y-63418980D01*
X161620057Y-63418980D01*
X161715295Y-63371361D01*
X161762914Y-63323742D01*
X161810533Y-63228504D01*
X161810533Y-62990409D01*
X161762914Y-62895171D01*
X161715295Y-62847552D01*
X161620057Y-62799933D01*
X161429580Y-62799933D01*
X161334342Y-62847552D01*
X161286723Y-62895171D01*
X161239104Y-62990409D01*
X139789066Y-61212361D02*
X139931923Y-61259980D01*
X140170019Y-61259980D01*
X140265257Y-61212361D01*
X140312876Y-61164742D01*
X140360495Y-61069504D01*
X140360495Y-60974266D01*
X140312876Y-60879028D01*
X140265257Y-60831409D01*
X140170019Y-60783790D01*
X139979542Y-60736171D01*
X139884304Y-60688552D01*
X139836685Y-60640933D01*
X139789066Y-60545695D01*
X139789066Y-60450457D01*
X139836685Y-60355219D01*
X139884304Y-60307600D01*
X139979542Y-60259980D01*
X140217638Y-60259980D01*
X140360495Y-60307600D01*
X140693828Y-60259980D02*
X140931923Y-61259980D01*
X141122400Y-60545695D01*
X141312876Y-61259980D01*
X141550971Y-60259980D01*
X142408114Y-60259980D02*
X141931923Y-60259980D01*
X141884304Y-60736171D01*
X141931923Y-60688552D01*
X142027161Y-60640933D01*
X142265257Y-60640933D01*
X142360495Y-60688552D01*
X142408114Y-60736171D01*
X142455733Y-60831409D01*
X142455733Y-61069504D01*
X142408114Y-61164742D01*
X142360495Y-61212361D01*
X142265257Y-61259980D01*
X142027161Y-61259980D01*
X141931923Y-61212361D01*
X141884304Y-61164742D01*
X120866066Y-58697761D02*
X121008923Y-58745380D01*
X121247019Y-58745380D01*
X121342257Y-58697761D01*
X121389876Y-58650142D01*
X121437495Y-58554904D01*
X121437495Y-58459666D01*
X121389876Y-58364428D01*
X121342257Y-58316809D01*
X121247019Y-58269190D01*
X121056542Y-58221571D01*
X120961304Y-58173952D01*
X120913685Y-58126333D01*
X120866066Y-58031095D01*
X120866066Y-57935857D01*
X120913685Y-57840619D01*
X120961304Y-57793000D01*
X121056542Y-57745380D01*
X121294638Y-57745380D01*
X121437495Y-57793000D01*
X121770828Y-57745380D02*
X122008923Y-58745380D01*
X122199400Y-58031095D01*
X122389876Y-58745380D01*
X122627971Y-57745380D01*
X123437495Y-58078714D02*
X123437495Y-58745380D01*
X123199400Y-57697761D02*
X122961304Y-58412047D01*
X123580352Y-58412047D01*
X101689066Y-58697761D02*
X101831923Y-58745380D01*
X102070019Y-58745380D01*
X102165257Y-58697761D01*
X102212876Y-58650142D01*
X102260495Y-58554904D01*
X102260495Y-58459666D01*
X102212876Y-58364428D01*
X102165257Y-58316809D01*
X102070019Y-58269190D01*
X101879542Y-58221571D01*
X101784304Y-58173952D01*
X101736685Y-58126333D01*
X101689066Y-58031095D01*
X101689066Y-57935857D01*
X101736685Y-57840619D01*
X101784304Y-57793000D01*
X101879542Y-57745380D01*
X102117638Y-57745380D01*
X102260495Y-57793000D01*
X102593828Y-57745380D02*
X102831923Y-58745380D01*
X103022400Y-58031095D01*
X103212876Y-58745380D01*
X103450971Y-57745380D01*
X103736685Y-57745380D02*
X104355733Y-57745380D01*
X104022400Y-58126333D01*
X104165257Y-58126333D01*
X104260495Y-58173952D01*
X104308114Y-58221571D01*
X104355733Y-58316809D01*
X104355733Y-58554904D01*
X104308114Y-58650142D01*
X104260495Y-58697761D01*
X104165257Y-58745380D01*
X103879542Y-58745380D01*
X103784304Y-58697761D01*
X103736685Y-58650142D01*
X82740666Y-61034561D02*
X82883523Y-61082180D01*
X83121619Y-61082180D01*
X83216857Y-61034561D01*
X83264476Y-60986942D01*
X83312095Y-60891704D01*
X83312095Y-60796466D01*
X83264476Y-60701228D01*
X83216857Y-60653609D01*
X83121619Y-60605990D01*
X82931142Y-60558371D01*
X82835904Y-60510752D01*
X82788285Y-60463133D01*
X82740666Y-60367895D01*
X82740666Y-60272657D01*
X82788285Y-60177419D01*
X82835904Y-60129800D01*
X82931142Y-60082180D01*
X83169238Y-60082180D01*
X83312095Y-60129800D01*
X83645428Y-60082180D02*
X83883523Y-61082180D01*
X84074000Y-60367895D01*
X84264476Y-61082180D01*
X84502571Y-60082180D01*
X84835904Y-60177419D02*
X84883523Y-60129800D01*
X84978761Y-60082180D01*
X85216857Y-60082180D01*
X85312095Y-60129800D01*
X85359714Y-60177419D01*
X85407333Y-60272657D01*
X85407333Y-60367895D01*
X85359714Y-60510752D01*
X84788285Y-61082180D01*
X85407333Y-61082180D01*
X63639866Y-63371361D02*
X63782723Y-63418980D01*
X64020819Y-63418980D01*
X64116057Y-63371361D01*
X64163676Y-63323742D01*
X64211295Y-63228504D01*
X64211295Y-63133266D01*
X64163676Y-63038028D01*
X64116057Y-62990409D01*
X64020819Y-62942790D01*
X63830342Y-62895171D01*
X63735104Y-62847552D01*
X63687485Y-62799933D01*
X63639866Y-62704695D01*
X63639866Y-62609457D01*
X63687485Y-62514219D01*
X63735104Y-62466600D01*
X63830342Y-62418980D01*
X64068438Y-62418980D01*
X64211295Y-62466600D01*
X64544628Y-62418980D02*
X64782723Y-63418980D01*
X64973200Y-62704695D01*
X65163676Y-63418980D01*
X65401771Y-62418980D01*
X66306533Y-63418980D02*
X65735104Y-63418980D01*
X66020819Y-63418980D02*
X66020819Y-62418980D01*
X65925580Y-62561838D01*
X65830342Y-62657076D01*
X65735104Y-62704695D01*
X174469761Y-125679523D02*
X174517380Y-125536666D01*
X174517380Y-125298571D01*
X174469761Y-125203333D01*
X174422142Y-125155714D01*
X174326904Y-125108095D01*
X174231666Y-125108095D01*
X174136428Y-125155714D01*
X174088809Y-125203333D01*
X174041190Y-125298571D01*
X173993571Y-125489047D01*
X173945952Y-125584285D01*
X173898333Y-125631904D01*
X173803095Y-125679523D01*
X173707857Y-125679523D01*
X173612619Y-125631904D01*
X173565000Y-125584285D01*
X173517380Y-125489047D01*
X173517380Y-125250952D01*
X173565000Y-125108095D01*
X173517380Y-124774761D02*
X174517380Y-124536666D01*
X173803095Y-124346190D01*
X174517380Y-124155714D01*
X173517380Y-123917619D01*
X173517380Y-123631904D02*
X173517380Y-123012857D01*
X173898333Y-123346190D01*
X173898333Y-123203333D01*
X173945952Y-123108095D01*
X173993571Y-123060476D01*
X174088809Y-123012857D01*
X174326904Y-123012857D01*
X174422142Y-123060476D01*
X174469761Y-123108095D01*
X174517380Y-123203333D01*
X174517380Y-123489047D01*
X174469761Y-123584285D01*
X174422142Y-123631904D01*
X173517380Y-122393809D02*
X173517380Y-122298571D01*
X173565000Y-122203333D01*
X173612619Y-122155714D01*
X173707857Y-122108095D01*
X173898333Y-122060476D01*
X174136428Y-122060476D01*
X174326904Y-122108095D01*
X174422142Y-122155714D01*
X174469761Y-122203333D01*
X174517380Y-122298571D01*
X174517380Y-122393809D01*
X174469761Y-122489047D01*
X174422142Y-122536666D01*
X174326904Y-122584285D01*
X174136428Y-122631904D01*
X173898333Y-122631904D01*
X173707857Y-122584285D01*
X173612619Y-122536666D01*
X173565000Y-122489047D01*
X173517380Y-122393809D01*
X187477095Y-128561380D02*
X187477095Y-127561380D01*
X187477095Y-128037571D02*
X188048523Y-128037571D01*
X188048523Y-128561380D02*
X188048523Y-127561380D01*
X188572333Y-128561380D02*
X188762809Y-128561380D01*
X188858047Y-128513761D01*
X188905666Y-128466142D01*
X189000904Y-128323285D01*
X189048523Y-128132809D01*
X189048523Y-127751857D01*
X189000904Y-127656619D01*
X188953285Y-127609000D01*
X188858047Y-127561380D01*
X188667571Y-127561380D01*
X188572333Y-127609000D01*
X188524714Y-127656619D01*
X188477095Y-127751857D01*
X188477095Y-127989952D01*
X188524714Y-128085190D01*
X188572333Y-128132809D01*
X188667571Y-128180428D01*
X188858047Y-128180428D01*
X188953285Y-128132809D01*
X189000904Y-128085190D01*
X189048523Y-127989952D01*
X120476714Y-123221380D02*
X120476714Y-122221380D01*
X120714809Y-122221380D01*
X120857666Y-122269000D01*
X120952904Y-122364238D01*
X121000523Y-122459476D01*
X121048142Y-122649952D01*
X121048142Y-122792809D01*
X121000523Y-122983285D01*
X120952904Y-123078523D01*
X120857666Y-123173761D01*
X120714809Y-123221380D01*
X120476714Y-123221380D01*
X121429095Y-122316619D02*
X121476714Y-122269000D01*
X121571952Y-122221380D01*
X121810047Y-122221380D01*
X121905285Y-122269000D01*
X121952904Y-122316619D01*
X122000523Y-122411857D01*
X122000523Y-122507095D01*
X121952904Y-122649952D01*
X121381476Y-123221380D01*
X122000523Y-123221380D01*
X122333857Y-122221380D02*
X123000523Y-122221380D01*
X122571952Y-123221380D01*
X101299714Y-120681380D02*
X101299714Y-119681380D01*
X101537809Y-119681380D01*
X101680666Y-119729000D01*
X101775904Y-119824238D01*
X101823523Y-119919476D01*
X101871142Y-120109952D01*
X101871142Y-120252809D01*
X101823523Y-120443285D01*
X101775904Y-120538523D01*
X101680666Y-120633761D01*
X101537809Y-120681380D01*
X101299714Y-120681380D01*
X102252095Y-119776619D02*
X102299714Y-119729000D01*
X102394952Y-119681380D01*
X102633047Y-119681380D01*
X102728285Y-119729000D01*
X102775904Y-119776619D01*
X102823523Y-119871857D01*
X102823523Y-119967095D01*
X102775904Y-120109952D01*
X102204476Y-120681380D01*
X102823523Y-120681380D01*
X103680666Y-119681380D02*
X103490190Y-119681380D01*
X103394952Y-119729000D01*
X103347333Y-119776619D01*
X103252095Y-119919476D01*
X103204476Y-120109952D01*
X103204476Y-120490904D01*
X103252095Y-120586142D01*
X103299714Y-120633761D01*
X103394952Y-120681380D01*
X103585428Y-120681380D01*
X103680666Y-120633761D01*
X103728285Y-120586142D01*
X103775904Y-120490904D01*
X103775904Y-120252809D01*
X103728285Y-120157571D01*
X103680666Y-120109952D01*
X103585428Y-120062333D01*
X103394952Y-120062333D01*
X103299714Y-120109952D01*
X103252095Y-120157571D01*
X103204476Y-120252809D01*
X82503714Y-124745380D02*
X82503714Y-123745380D01*
X82741809Y-123745380D01*
X82884666Y-123793000D01*
X82979904Y-123888238D01*
X83027523Y-123983476D01*
X83075142Y-124173952D01*
X83075142Y-124316809D01*
X83027523Y-124507285D01*
X82979904Y-124602523D01*
X82884666Y-124697761D01*
X82741809Y-124745380D01*
X82503714Y-124745380D01*
X83456095Y-123840619D02*
X83503714Y-123793000D01*
X83598952Y-123745380D01*
X83837047Y-123745380D01*
X83932285Y-123793000D01*
X83979904Y-123840619D01*
X84027523Y-123935857D01*
X84027523Y-124031095D01*
X83979904Y-124173952D01*
X83408476Y-124745380D01*
X84027523Y-124745380D01*
X84932285Y-123745380D02*
X84456095Y-123745380D01*
X84408476Y-124221571D01*
X84456095Y-124173952D01*
X84551333Y-124126333D01*
X84789428Y-124126333D01*
X84884666Y-124173952D01*
X84932285Y-124221571D01*
X84979904Y-124316809D01*
X84979904Y-124554904D01*
X84932285Y-124650142D01*
X84884666Y-124697761D01*
X84789428Y-124745380D01*
X84551333Y-124745380D01*
X84456095Y-124697761D01*
X84408476Y-124650142D01*
X160304314Y-108046780D02*
X160304314Y-107046780D01*
X160542409Y-107046780D01*
X160685266Y-107094400D01*
X160780504Y-107189638D01*
X160828123Y-107284876D01*
X160875742Y-107475352D01*
X160875742Y-107618209D01*
X160828123Y-107808685D01*
X160780504Y-107903923D01*
X160685266Y-107999161D01*
X160542409Y-108046780D01*
X160304314Y-108046780D01*
X161256695Y-107142019D02*
X161304314Y-107094400D01*
X161399552Y-107046780D01*
X161637647Y-107046780D01*
X161732885Y-107094400D01*
X161780504Y-107142019D01*
X161828123Y-107237257D01*
X161828123Y-107332495D01*
X161780504Y-107475352D01*
X161209076Y-108046780D01*
X161828123Y-108046780D01*
X162685266Y-107380114D02*
X162685266Y-108046780D01*
X162447171Y-106999161D02*
X162209076Y-107713447D01*
X162828123Y-107713447D01*
X139933514Y-105684580D02*
X139933514Y-104684580D01*
X140171609Y-104684580D01*
X140314466Y-104732200D01*
X140409704Y-104827438D01*
X140457323Y-104922676D01*
X140504942Y-105113152D01*
X140504942Y-105256009D01*
X140457323Y-105446485D01*
X140409704Y-105541723D01*
X140314466Y-105636961D01*
X140171609Y-105684580D01*
X139933514Y-105684580D01*
X140885895Y-104779819D02*
X140933514Y-104732200D01*
X141028752Y-104684580D01*
X141266847Y-104684580D01*
X141362085Y-104732200D01*
X141409704Y-104779819D01*
X141457323Y-104875057D01*
X141457323Y-104970295D01*
X141409704Y-105113152D01*
X140838276Y-105684580D01*
X141457323Y-105684580D01*
X141790657Y-104684580D02*
X142409704Y-104684580D01*
X142076371Y-105065533D01*
X142219228Y-105065533D01*
X142314466Y-105113152D01*
X142362085Y-105160771D01*
X142409704Y-105256009D01*
X142409704Y-105494104D01*
X142362085Y-105589342D01*
X142314466Y-105636961D01*
X142219228Y-105684580D01*
X141933514Y-105684580D01*
X141838276Y-105636961D01*
X141790657Y-105589342D01*
X120934314Y-103347780D02*
X120934314Y-102347780D01*
X121172409Y-102347780D01*
X121315266Y-102395400D01*
X121410504Y-102490638D01*
X121458123Y-102585876D01*
X121505742Y-102776352D01*
X121505742Y-102919209D01*
X121458123Y-103109685D01*
X121410504Y-103204923D01*
X121315266Y-103300161D01*
X121172409Y-103347780D01*
X120934314Y-103347780D01*
X121886695Y-102443019D02*
X121934314Y-102395400D01*
X122029552Y-102347780D01*
X122267647Y-102347780D01*
X122362885Y-102395400D01*
X122410504Y-102443019D01*
X122458123Y-102538257D01*
X122458123Y-102633495D01*
X122410504Y-102776352D01*
X121839076Y-103347780D01*
X122458123Y-103347780D01*
X122839076Y-102443019D02*
X122886695Y-102395400D01*
X122981933Y-102347780D01*
X123220028Y-102347780D01*
X123315266Y-102395400D01*
X123362885Y-102443019D01*
X123410504Y-102538257D01*
X123410504Y-102633495D01*
X123362885Y-102776352D01*
X122791457Y-103347780D01*
X123410504Y-103347780D01*
X102112914Y-103373180D02*
X102112914Y-102373180D01*
X102351009Y-102373180D01*
X102493866Y-102420800D01*
X102589104Y-102516038D01*
X102636723Y-102611276D01*
X102684342Y-102801752D01*
X102684342Y-102944609D01*
X102636723Y-103135085D01*
X102589104Y-103230323D01*
X102493866Y-103325561D01*
X102351009Y-103373180D01*
X102112914Y-103373180D01*
X103065295Y-102468419D02*
X103112914Y-102420800D01*
X103208152Y-102373180D01*
X103446247Y-102373180D01*
X103541485Y-102420800D01*
X103589104Y-102468419D01*
X103636723Y-102563657D01*
X103636723Y-102658895D01*
X103589104Y-102801752D01*
X103017676Y-103373180D01*
X103636723Y-103373180D01*
X104589104Y-103373180D02*
X104017676Y-103373180D01*
X104303390Y-103373180D02*
X104303390Y-102373180D01*
X104208152Y-102516038D01*
X104112914Y-102611276D01*
X104017676Y-102658895D01*
X83062914Y-105735380D02*
X83062914Y-104735380D01*
X83301009Y-104735380D01*
X83443866Y-104783000D01*
X83539104Y-104878238D01*
X83586723Y-104973476D01*
X83634342Y-105163952D01*
X83634342Y-105306809D01*
X83586723Y-105497285D01*
X83539104Y-105592523D01*
X83443866Y-105687761D01*
X83301009Y-105735380D01*
X83062914Y-105735380D01*
X84015295Y-104830619D02*
X84062914Y-104783000D01*
X84158152Y-104735380D01*
X84396247Y-104735380D01*
X84491485Y-104783000D01*
X84539104Y-104830619D01*
X84586723Y-104925857D01*
X84586723Y-105021095D01*
X84539104Y-105163952D01*
X83967676Y-105735380D01*
X84586723Y-105735380D01*
X85205771Y-104735380D02*
X85301009Y-104735380D01*
X85396247Y-104783000D01*
X85443866Y-104830619D01*
X85491485Y-104925857D01*
X85539104Y-105116333D01*
X85539104Y-105354428D01*
X85491485Y-105544904D01*
X85443866Y-105640142D01*
X85396247Y-105687761D01*
X85301009Y-105735380D01*
X85205771Y-105735380D01*
X85110533Y-105687761D01*
X85062914Y-105640142D01*
X85015295Y-105544904D01*
X84967676Y-105354428D01*
X84967676Y-105116333D01*
X85015295Y-104925857D01*
X85062914Y-104830619D01*
X85110533Y-104783000D01*
X85205771Y-104735380D01*
X64165314Y-108148380D02*
X64165314Y-107148380D01*
X64403409Y-107148380D01*
X64546266Y-107196000D01*
X64641504Y-107291238D01*
X64689123Y-107386476D01*
X64736742Y-107576952D01*
X64736742Y-107719809D01*
X64689123Y-107910285D01*
X64641504Y-108005523D01*
X64546266Y-108100761D01*
X64403409Y-108148380D01*
X64165314Y-108148380D01*
X65689123Y-108148380D02*
X65117695Y-108148380D01*
X65403409Y-108148380D02*
X65403409Y-107148380D01*
X65308171Y-107291238D01*
X65212933Y-107386476D01*
X65117695Y-107434095D01*
X66165314Y-108148380D02*
X66355790Y-108148380D01*
X66451028Y-108100761D01*
X66498647Y-108053142D01*
X66593885Y-107910285D01*
X66641504Y-107719809D01*
X66641504Y-107338857D01*
X66593885Y-107243619D01*
X66546266Y-107196000D01*
X66451028Y-107148380D01*
X66260552Y-107148380D01*
X66165314Y-107196000D01*
X66117695Y-107243619D01*
X66070076Y-107338857D01*
X66070076Y-107576952D01*
X66117695Y-107672190D01*
X66165314Y-107719809D01*
X66260552Y-107767428D01*
X66451028Y-107767428D01*
X66546266Y-107719809D01*
X66593885Y-107672190D01*
X66641504Y-107576952D01*
X160253514Y-105735380D02*
X160253514Y-104735380D01*
X160491609Y-104735380D01*
X160634466Y-104783000D01*
X160729704Y-104878238D01*
X160777323Y-104973476D01*
X160824942Y-105163952D01*
X160824942Y-105306809D01*
X160777323Y-105497285D01*
X160729704Y-105592523D01*
X160634466Y-105687761D01*
X160491609Y-105735380D01*
X160253514Y-105735380D01*
X161777323Y-105735380D02*
X161205895Y-105735380D01*
X161491609Y-105735380D02*
X161491609Y-104735380D01*
X161396371Y-104878238D01*
X161301133Y-104973476D01*
X161205895Y-105021095D01*
X162348752Y-105163952D02*
X162253514Y-105116333D01*
X162205895Y-105068714D01*
X162158276Y-104973476D01*
X162158276Y-104925857D01*
X162205895Y-104830619D01*
X162253514Y-104783000D01*
X162348752Y-104735380D01*
X162539228Y-104735380D01*
X162634466Y-104783000D01*
X162682085Y-104830619D01*
X162729704Y-104925857D01*
X162729704Y-104973476D01*
X162682085Y-105068714D01*
X162634466Y-105116333D01*
X162539228Y-105163952D01*
X162348752Y-105163952D01*
X162253514Y-105211571D01*
X162205895Y-105259190D01*
X162158276Y-105354428D01*
X162158276Y-105544904D01*
X162205895Y-105640142D01*
X162253514Y-105687761D01*
X162348752Y-105735380D01*
X162539228Y-105735380D01*
X162634466Y-105687761D01*
X162682085Y-105640142D01*
X162729704Y-105544904D01*
X162729704Y-105354428D01*
X162682085Y-105259190D01*
X162634466Y-105211571D01*
X162539228Y-105163952D01*
X140034714Y-101250380D02*
X140034714Y-100250380D01*
X140272809Y-100250380D01*
X140415666Y-100298000D01*
X140510904Y-100393238D01*
X140558523Y-100488476D01*
X140606142Y-100678952D01*
X140606142Y-100821809D01*
X140558523Y-101012285D01*
X140510904Y-101107523D01*
X140415666Y-101202761D01*
X140272809Y-101250380D01*
X140034714Y-101250380D01*
X141558523Y-101250380D02*
X140987095Y-101250380D01*
X141272809Y-101250380D02*
X141272809Y-100250380D01*
X141177571Y-100393238D01*
X141082333Y-100488476D01*
X140987095Y-100536095D01*
X141891857Y-100250380D02*
X142558523Y-100250380D01*
X142129952Y-101250380D01*
X120756514Y-100934780D02*
X120756514Y-99934780D01*
X120994609Y-99934780D01*
X121137466Y-99982400D01*
X121232704Y-100077638D01*
X121280323Y-100172876D01*
X121327942Y-100363352D01*
X121327942Y-100506209D01*
X121280323Y-100696685D01*
X121232704Y-100791923D01*
X121137466Y-100887161D01*
X120994609Y-100934780D01*
X120756514Y-100934780D01*
X122280323Y-100934780D02*
X121708895Y-100934780D01*
X121994609Y-100934780D02*
X121994609Y-99934780D01*
X121899371Y-100077638D01*
X121804133Y-100172876D01*
X121708895Y-100220495D01*
X123137466Y-99934780D02*
X122946990Y-99934780D01*
X122851752Y-99982400D01*
X122804133Y-100030019D01*
X122708895Y-100172876D01*
X122661276Y-100363352D01*
X122661276Y-100744304D01*
X122708895Y-100839542D01*
X122756514Y-100887161D01*
X122851752Y-100934780D01*
X123042228Y-100934780D01*
X123137466Y-100887161D01*
X123185085Y-100839542D01*
X123232704Y-100744304D01*
X123232704Y-100506209D01*
X123185085Y-100410971D01*
X123137466Y-100363352D01*
X123042228Y-100315733D01*
X122851752Y-100315733D01*
X122756514Y-100363352D01*
X122708895Y-100410971D01*
X122661276Y-100506209D01*
X102036714Y-101112580D02*
X102036714Y-100112580D01*
X102274809Y-100112580D01*
X102417666Y-100160200D01*
X102512904Y-100255438D01*
X102560523Y-100350676D01*
X102608142Y-100541152D01*
X102608142Y-100684009D01*
X102560523Y-100874485D01*
X102512904Y-100969723D01*
X102417666Y-101064961D01*
X102274809Y-101112580D01*
X102036714Y-101112580D01*
X103560523Y-101112580D02*
X102989095Y-101112580D01*
X103274809Y-101112580D02*
X103274809Y-100112580D01*
X103179571Y-100255438D01*
X103084333Y-100350676D01*
X102989095Y-100398295D01*
X104465285Y-100112580D02*
X103989095Y-100112580D01*
X103941476Y-100588771D01*
X103989095Y-100541152D01*
X104084333Y-100493533D01*
X104322428Y-100493533D01*
X104417666Y-100541152D01*
X104465285Y-100588771D01*
X104512904Y-100684009D01*
X104512904Y-100922104D01*
X104465285Y-101017342D01*
X104417666Y-101064961D01*
X104322428Y-101112580D01*
X104084333Y-101112580D01*
X103989095Y-101064961D01*
X103941476Y-101017342D01*
X82961314Y-103220780D02*
X82961314Y-102220780D01*
X83199409Y-102220780D01*
X83342266Y-102268400D01*
X83437504Y-102363638D01*
X83485123Y-102458876D01*
X83532742Y-102649352D01*
X83532742Y-102792209D01*
X83485123Y-102982685D01*
X83437504Y-103077923D01*
X83342266Y-103173161D01*
X83199409Y-103220780D01*
X82961314Y-103220780D01*
X84485123Y-103220780D02*
X83913695Y-103220780D01*
X84199409Y-103220780D02*
X84199409Y-102220780D01*
X84104171Y-102363638D01*
X84008933Y-102458876D01*
X83913695Y-102506495D01*
X85342266Y-102554114D02*
X85342266Y-103220780D01*
X85104171Y-102173161D02*
X84866076Y-102887447D01*
X85485123Y-102887447D01*
X64139914Y-105608380D02*
X64139914Y-104608380D01*
X64378009Y-104608380D01*
X64520866Y-104656000D01*
X64616104Y-104751238D01*
X64663723Y-104846476D01*
X64711342Y-105036952D01*
X64711342Y-105179809D01*
X64663723Y-105370285D01*
X64616104Y-105465523D01*
X64520866Y-105560761D01*
X64378009Y-105608380D01*
X64139914Y-105608380D01*
X65663723Y-105608380D02*
X65092295Y-105608380D01*
X65378009Y-105608380D02*
X65378009Y-104608380D01*
X65282771Y-104751238D01*
X65187533Y-104846476D01*
X65092295Y-104894095D01*
X65997057Y-104608380D02*
X66616104Y-104608380D01*
X66282771Y-104989333D01*
X66425628Y-104989333D01*
X66520866Y-105036952D01*
X66568485Y-105084571D01*
X66616104Y-105179809D01*
X66616104Y-105417904D01*
X66568485Y-105513142D01*
X66520866Y-105560761D01*
X66425628Y-105608380D01*
X66139914Y-105608380D01*
X66044676Y-105560761D01*
X65997057Y-105513142D01*
X159186714Y-70149980D02*
X159186714Y-69149980D01*
X159424809Y-69149980D01*
X159567666Y-69197600D01*
X159662904Y-69292838D01*
X159710523Y-69388076D01*
X159758142Y-69578552D01*
X159758142Y-69721409D01*
X159710523Y-69911885D01*
X159662904Y-70007123D01*
X159567666Y-70102361D01*
X159424809Y-70149980D01*
X159186714Y-70149980D01*
X160710523Y-70149980D02*
X160139095Y-70149980D01*
X160424809Y-70149980D02*
X160424809Y-69149980D01*
X160329571Y-69292838D01*
X160234333Y-69388076D01*
X160139095Y-69435695D01*
X161091476Y-69245219D02*
X161139095Y-69197600D01*
X161234333Y-69149980D01*
X161472428Y-69149980D01*
X161567666Y-69197600D01*
X161615285Y-69245219D01*
X161662904Y-69340457D01*
X161662904Y-69435695D01*
X161615285Y-69578552D01*
X161043857Y-70149980D01*
X161662904Y-70149980D01*
X140162114Y-67863980D02*
X140162114Y-66863980D01*
X140400209Y-66863980D01*
X140543066Y-66911600D01*
X140638304Y-67006838D01*
X140685923Y-67102076D01*
X140733542Y-67292552D01*
X140733542Y-67435409D01*
X140685923Y-67625885D01*
X140638304Y-67721123D01*
X140543066Y-67816361D01*
X140400209Y-67863980D01*
X140162114Y-67863980D01*
X141685923Y-67863980D02*
X141114495Y-67863980D01*
X141400209Y-67863980D02*
X141400209Y-66863980D01*
X141304971Y-67006838D01*
X141209733Y-67102076D01*
X141114495Y-67149695D01*
X142638304Y-67863980D02*
X142066876Y-67863980D01*
X142352590Y-67863980D02*
X142352590Y-66863980D01*
X142257352Y-67006838D01*
X142162114Y-67102076D01*
X142066876Y-67149695D01*
X121112114Y-65298580D02*
X121112114Y-64298580D01*
X121350209Y-64298580D01*
X121493066Y-64346200D01*
X121588304Y-64441438D01*
X121635923Y-64536676D01*
X121683542Y-64727152D01*
X121683542Y-64870009D01*
X121635923Y-65060485D01*
X121588304Y-65155723D01*
X121493066Y-65250961D01*
X121350209Y-65298580D01*
X121112114Y-65298580D01*
X122635923Y-65298580D02*
X122064495Y-65298580D01*
X122350209Y-65298580D02*
X122350209Y-64298580D01*
X122254971Y-64441438D01*
X122159733Y-64536676D01*
X122064495Y-64584295D01*
X123254971Y-64298580D02*
X123350209Y-64298580D01*
X123445447Y-64346200D01*
X123493066Y-64393819D01*
X123540685Y-64489057D01*
X123588304Y-64679533D01*
X123588304Y-64917628D01*
X123540685Y-65108104D01*
X123493066Y-65203342D01*
X123445447Y-65250961D01*
X123350209Y-65298580D01*
X123254971Y-65298580D01*
X123159733Y-65250961D01*
X123112114Y-65203342D01*
X123064495Y-65108104D01*
X123016876Y-64917628D01*
X123016876Y-64679533D01*
X123064495Y-64489057D01*
X123112114Y-64393819D01*
X123159733Y-64346200D01*
X123254971Y-64298580D01*
X83259704Y-67584580D02*
X83259704Y-66584580D01*
X83497800Y-66584580D01*
X83640657Y-66632200D01*
X83735895Y-66727438D01*
X83783514Y-66822676D01*
X83831133Y-67013152D01*
X83831133Y-67156009D01*
X83783514Y-67346485D01*
X83735895Y-67441723D01*
X83640657Y-67536961D01*
X83497800Y-67584580D01*
X83259704Y-67584580D01*
X84402561Y-67013152D02*
X84307323Y-66965533D01*
X84259704Y-66917914D01*
X84212085Y-66822676D01*
X84212085Y-66775057D01*
X84259704Y-66679819D01*
X84307323Y-66632200D01*
X84402561Y-66584580D01*
X84593038Y-66584580D01*
X84688276Y-66632200D01*
X84735895Y-66679819D01*
X84783514Y-66775057D01*
X84783514Y-66822676D01*
X84735895Y-66917914D01*
X84688276Y-66965533D01*
X84593038Y-67013152D01*
X84402561Y-67013152D01*
X84307323Y-67060771D01*
X84259704Y-67108390D01*
X84212085Y-67203628D01*
X84212085Y-67394104D01*
X84259704Y-67489342D01*
X84307323Y-67536961D01*
X84402561Y-67584580D01*
X84593038Y-67584580D01*
X84688276Y-67536961D01*
X84735895Y-67489342D01*
X84783514Y-67394104D01*
X84783514Y-67203628D01*
X84735895Y-67108390D01*
X84688276Y-67060771D01*
X84593038Y-67013152D01*
X64031904Y-69997580D02*
X64031904Y-68997580D01*
X64270000Y-68997580D01*
X64412857Y-69045200D01*
X64508095Y-69140438D01*
X64555714Y-69235676D01*
X64603333Y-69426152D01*
X64603333Y-69569009D01*
X64555714Y-69759485D01*
X64508095Y-69854723D01*
X64412857Y-69949961D01*
X64270000Y-69997580D01*
X64031904Y-69997580D01*
X64936666Y-68997580D02*
X65603333Y-68997580D01*
X65174761Y-69997580D01*
X168930580Y-120264085D02*
X167930580Y-120264085D01*
X167930580Y-120025990D01*
X167978200Y-119883133D01*
X168073438Y-119787895D01*
X168168676Y-119740276D01*
X168359152Y-119692657D01*
X168502009Y-119692657D01*
X168692485Y-119740276D01*
X168787723Y-119787895D01*
X168882961Y-119883133D01*
X168930580Y-120025990D01*
X168930580Y-120264085D01*
X167930580Y-119359323D02*
X167930580Y-118740276D01*
X168311533Y-119073609D01*
X168311533Y-118930752D01*
X168359152Y-118835514D01*
X168406771Y-118787895D01*
X168502009Y-118740276D01*
X168740104Y-118740276D01*
X168835342Y-118787895D01*
X168882961Y-118835514D01*
X168930580Y-118930752D01*
X168930580Y-119216466D01*
X168882961Y-119311704D01*
X168835342Y-119359323D01*
X167930580Y-118121228D02*
X167930580Y-118025990D01*
X167978200Y-117930752D01*
X168025819Y-117883133D01*
X168121057Y-117835514D01*
X168311533Y-117787895D01*
X168549628Y-117787895D01*
X168740104Y-117835514D01*
X168835342Y-117883133D01*
X168882961Y-117930752D01*
X168930580Y-118025990D01*
X168930580Y-118121228D01*
X168882961Y-118216466D01*
X168835342Y-118264085D01*
X168740104Y-118311704D01*
X168549628Y-118359323D01*
X168311533Y-118359323D01*
X168121057Y-118311704D01*
X168025819Y-118264085D01*
X167978200Y-118216466D01*
X167930580Y-118121228D01*
X159973714Y-125380380D02*
X159973714Y-124380380D01*
X160211809Y-124380380D01*
X160354666Y-124428000D01*
X160449904Y-124523238D01*
X160497523Y-124618476D01*
X160545142Y-124808952D01*
X160545142Y-124951809D01*
X160497523Y-125142285D01*
X160449904Y-125237523D01*
X160354666Y-125332761D01*
X160211809Y-125380380D01*
X159973714Y-125380380D01*
X160926095Y-124475619D02*
X160973714Y-124428000D01*
X161068952Y-124380380D01*
X161307047Y-124380380D01*
X161402285Y-124428000D01*
X161449904Y-124475619D01*
X161497523Y-124570857D01*
X161497523Y-124666095D01*
X161449904Y-124808952D01*
X160878476Y-125380380D01*
X161497523Y-125380380D01*
X161973714Y-125380380D02*
X162164190Y-125380380D01*
X162259428Y-125332761D01*
X162307047Y-125285142D01*
X162402285Y-125142285D01*
X162449904Y-124951809D01*
X162449904Y-124570857D01*
X162402285Y-124475619D01*
X162354666Y-124428000D01*
X162259428Y-124380380D01*
X162068952Y-124380380D01*
X161973714Y-124428000D01*
X161926095Y-124475619D01*
X161878476Y-124570857D01*
X161878476Y-124808952D01*
X161926095Y-124904190D01*
X161973714Y-124951809D01*
X162068952Y-124999428D01*
X162259428Y-124999428D01*
X162354666Y-124951809D01*
X162402285Y-124904190D01*
X162449904Y-124808952D01*
X137875714Y-124110380D02*
X137875714Y-123110380D01*
X138113809Y-123110380D01*
X138256666Y-123158000D01*
X138351904Y-123253238D01*
X138399523Y-123348476D01*
X138447142Y-123538952D01*
X138447142Y-123681809D01*
X138399523Y-123872285D01*
X138351904Y-123967523D01*
X138256666Y-124062761D01*
X138113809Y-124110380D01*
X137875714Y-124110380D01*
X138828095Y-123205619D02*
X138875714Y-123158000D01*
X138970952Y-123110380D01*
X139209047Y-123110380D01*
X139304285Y-123158000D01*
X139351904Y-123205619D01*
X139399523Y-123300857D01*
X139399523Y-123396095D01*
X139351904Y-123538952D01*
X138780476Y-124110380D01*
X139399523Y-124110380D01*
X139970952Y-123538952D02*
X139875714Y-123491333D01*
X139828095Y-123443714D01*
X139780476Y-123348476D01*
X139780476Y-123300857D01*
X139828095Y-123205619D01*
X139875714Y-123158000D01*
X139970952Y-123110380D01*
X140161428Y-123110380D01*
X140256666Y-123158000D01*
X140304285Y-123205619D01*
X140351904Y-123300857D01*
X140351904Y-123348476D01*
X140304285Y-123443714D01*
X140256666Y-123491333D01*
X140161428Y-123538952D01*
X139970952Y-123538952D01*
X139875714Y-123586571D01*
X139828095Y-123634190D01*
X139780476Y-123729428D01*
X139780476Y-123919904D01*
X139828095Y-124015142D01*
X139875714Y-124062761D01*
X139970952Y-124110380D01*
X140161428Y-124110380D01*
X140256666Y-124062761D01*
X140304285Y-124015142D01*
X140351904Y-123919904D01*
X140351904Y-123729428D01*
X140304285Y-123634190D01*
X140256666Y-123586571D01*
X140161428Y-123538952D01*
X159688304Y-67711580D02*
X159688304Y-66711580D01*
X159926400Y-66711580D01*
X160069257Y-66759200D01*
X160164495Y-66854438D01*
X160212114Y-66949676D01*
X160259733Y-67140152D01*
X160259733Y-67283009D01*
X160212114Y-67473485D01*
X160164495Y-67568723D01*
X160069257Y-67663961D01*
X159926400Y-67711580D01*
X159688304Y-67711580D01*
X161116876Y-66711580D02*
X160926400Y-66711580D01*
X160831161Y-66759200D01*
X160783542Y-66806819D01*
X160688304Y-66949676D01*
X160640685Y-67140152D01*
X160640685Y-67521104D01*
X160688304Y-67616342D01*
X160735923Y-67663961D01*
X160831161Y-67711580D01*
X161021638Y-67711580D01*
X161116876Y-67663961D01*
X161164495Y-67616342D01*
X161212114Y-67521104D01*
X161212114Y-67283009D01*
X161164495Y-67187771D01*
X161116876Y-67140152D01*
X161021638Y-67092533D01*
X160831161Y-67092533D01*
X160735923Y-67140152D01*
X160688304Y-67187771D01*
X160640685Y-67283009D01*
X140587504Y-65679580D02*
X140587504Y-64679580D01*
X140825600Y-64679580D01*
X140968457Y-64727200D01*
X141063695Y-64822438D01*
X141111314Y-64917676D01*
X141158933Y-65108152D01*
X141158933Y-65251009D01*
X141111314Y-65441485D01*
X141063695Y-65536723D01*
X140968457Y-65631961D01*
X140825600Y-65679580D01*
X140587504Y-65679580D01*
X142063695Y-64679580D02*
X141587504Y-64679580D01*
X141539885Y-65155771D01*
X141587504Y-65108152D01*
X141682742Y-65060533D01*
X141920838Y-65060533D01*
X142016076Y-65108152D01*
X142063695Y-65155771D01*
X142111314Y-65251009D01*
X142111314Y-65489104D01*
X142063695Y-65584342D01*
X142016076Y-65631961D01*
X141920838Y-65679580D01*
X141682742Y-65679580D01*
X141587504Y-65631961D01*
X141539885Y-65584342D01*
X121562904Y-62682380D02*
X121562904Y-61682380D01*
X121801000Y-61682380D01*
X121943857Y-61730000D01*
X122039095Y-61825238D01*
X122086714Y-61920476D01*
X122134333Y-62110952D01*
X122134333Y-62253809D01*
X122086714Y-62444285D01*
X122039095Y-62539523D01*
X121943857Y-62634761D01*
X121801000Y-62682380D01*
X121562904Y-62682380D01*
X122991476Y-62015714D02*
X122991476Y-62682380D01*
X122753380Y-61634761D02*
X122515285Y-62349047D01*
X123134333Y-62349047D01*
X102335104Y-62834780D02*
X102335104Y-61834780D01*
X102573200Y-61834780D01*
X102716057Y-61882400D01*
X102811295Y-61977638D01*
X102858914Y-62072876D01*
X102906533Y-62263352D01*
X102906533Y-62406209D01*
X102858914Y-62596685D01*
X102811295Y-62691923D01*
X102716057Y-62787161D01*
X102573200Y-62834780D01*
X102335104Y-62834780D01*
X103239866Y-61834780D02*
X103858914Y-61834780D01*
X103525580Y-62215733D01*
X103668438Y-62215733D01*
X103763676Y-62263352D01*
X103811295Y-62310971D01*
X103858914Y-62406209D01*
X103858914Y-62644304D01*
X103811295Y-62739542D01*
X103763676Y-62787161D01*
X103668438Y-62834780D01*
X103382723Y-62834780D01*
X103287485Y-62787161D01*
X103239866Y-62739542D01*
X83285104Y-65222380D02*
X83285104Y-64222380D01*
X83523200Y-64222380D01*
X83666057Y-64270000D01*
X83761295Y-64365238D01*
X83808914Y-64460476D01*
X83856533Y-64650952D01*
X83856533Y-64793809D01*
X83808914Y-64984285D01*
X83761295Y-65079523D01*
X83666057Y-65174761D01*
X83523200Y-65222380D01*
X83285104Y-65222380D01*
X84237485Y-64317619D02*
X84285104Y-64270000D01*
X84380342Y-64222380D01*
X84618438Y-64222380D01*
X84713676Y-64270000D01*
X84761295Y-64317619D01*
X84808914Y-64412857D01*
X84808914Y-64508095D01*
X84761295Y-64650952D01*
X84189866Y-65222380D01*
X84808914Y-65222380D01*
X63955704Y-67609980D02*
X63955704Y-66609980D01*
X64193800Y-66609980D01*
X64336657Y-66657600D01*
X64431895Y-66752838D01*
X64479514Y-66848076D01*
X64527133Y-67038552D01*
X64527133Y-67181409D01*
X64479514Y-67371885D01*
X64431895Y-67467123D01*
X64336657Y-67562361D01*
X64193800Y-67609980D01*
X63955704Y-67609980D01*
X65479514Y-67609980D02*
X64908085Y-67609980D01*
X65193800Y-67609980D02*
X65193800Y-66609980D01*
X65098561Y-66752838D01*
X65003323Y-66848076D01*
X64908085Y-66895695D01*
M02*
