M48
; DRILL file {KiCad 5.1.5+dfsg1-2build2} date Wed 27 Jan 2021 22:51:16 GMT
; FORMAT={-:-/ absolute / inch / decimal}
; #@! TF.CreationDate,2021-01-27T22:51:16+00:00
; #@! TF.GenerationSoftware,Kicad,Pcbnew,5.1.5+dfsg1-2build2
FMAT,2
INCH
T1C0.0157
T2C0.0276
T3C0.0295
T4C0.0300
T5C0.0320
T6C0.0394
T7C0.0472
T8C0.0591
T9C0.0394
T10C0.0472
T11C0.0669
T12C0.0748
T13C0.1260
T14C0.1575
%
G90
G05
T1
X2.563Y-3.219
X2.929Y-4.491
X2.929Y-4.803
X3.09Y-1.841
X3.109Y-1.893
X5.998Y-1.9975
X6.5145Y-2.085
X6.702Y-2.999
X6.8868Y-2.9424
X6.9336Y-2.9156
X7.1247Y-3.3976
T2
X7.519Y-2.113
X7.519Y-2.313
T3
X6.206Y-4.139
X6.506Y-4.139
X3.886Y-4.809
X4.186Y-4.809
X6.631Y-4.544
X6.631Y-4.844
X4.656Y-3.954
X4.956Y-3.954
X4.641Y-4.909
X4.941Y-4.909
X2.421Y-4.139
X2.721Y-4.139
X5.406Y-2.654
X5.706Y-2.654
X3.151Y-2.644
X3.451Y-2.644
X5.326Y-4.944
X5.626Y-4.944
X4.656Y-4.049
X4.956Y-4.049
X5.406Y-2.564
X5.706Y-2.564
X3.161Y-4.144
X3.461Y-4.144
X3.901Y-2.454
X4.201Y-2.454
X3.161Y-4.044
X3.461Y-4.044
X5.416Y-4.144
X5.716Y-4.144
X2.391Y-2.644
X2.691Y-2.644
X6.206Y-4.234
X6.506Y-4.234
X2.391Y-2.739
X2.691Y-2.739
X3.901Y-2.554
X4.201Y-2.554
X5.411Y-4.044
X5.711Y-4.044
X6.161Y-2.744
X6.461Y-2.744
X4.656Y-2.549
X4.956Y-2.549
X6.196Y-4.994
X6.496Y-4.994
X3.911Y-3.959
X4.211Y-3.959
X6.161Y-2.644
X6.461Y-2.644
X3.911Y-4.049
X4.211Y-4.049
X4.656Y-2.449
X4.956Y-2.449
X2.421Y-4.239
X2.721Y-4.239
X3.146Y-4.969
X3.446Y-4.969
X3.151Y-2.549
X3.451Y-2.549
T4
X6.791Y-2.019
X6.791Y-2.119
X6.791Y-2.219
X6.791Y-2.319
X6.791Y-2.419
X6.791Y-2.519
X6.791Y-2.619
X6.791Y-2.719
X6.791Y-2.819
X6.791Y-2.919
X6.791Y-3.019
X6.791Y-3.119
X6.791Y-3.219
X6.791Y-3.319
X6.791Y-3.419
X6.791Y-3.519
X6.791Y-3.619
X6.791Y-3.719
X6.791Y-3.819
X6.791Y-3.919
X7.391Y-2.019
X7.391Y-2.119
X7.391Y-2.219
X7.391Y-2.319
X7.391Y-2.419
X7.391Y-2.519
X7.391Y-2.619
X7.391Y-2.719
X7.391Y-2.819
X7.391Y-2.919
X7.391Y-3.019
X7.391Y-3.119
X7.391Y-3.219
X7.391Y-3.319
X7.391Y-3.419
X7.391Y-3.519
X7.391Y-3.619
X7.391Y-3.719
X7.391Y-3.819
X7.391Y-3.919
T5
X6.941Y-4.148
X7.041Y-4.148
X7.141Y-4.148
X7.241Y-4.148
T6
X7.038Y-4.4161
X7.038Y-4.987
X7.1364Y-4.987
X7.2348Y-4.4161
X7.2348Y-4.987
T7
X2.3586Y-2.1643
X2.5594Y-2.0855
X2.7602Y-2.1643
X5.357Y-2.0769
X5.5578Y-1.9981
X5.7586Y-2.0769
X3.8578Y-4.9879
X4.0586Y-4.9092
X4.2594Y-4.9879
X3.1082Y-4.3194
X3.309Y-4.2407
X3.5098Y-4.3194
X3.8578Y-4.2257
X4.0586Y-4.147
X4.2594Y-4.2257
X5.6169Y-5.1159
X5.8283Y-5.0733
X6.0124Y-5.1857
X6.1067Y-3.6635
X6.3074Y-3.5847
X6.5082Y-3.6635
X2.3586Y-3.6635
X2.5594Y-3.5847
X2.7602Y-3.6635
X4.6074Y-5.0816
X4.8082Y-5.0029
X5.009Y-5.0816
X4.6074Y-4.2257
X4.8082Y-4.147
X5.009Y-4.2257
X5.357Y-3.5698
X5.5578Y-3.491
X5.7586Y-3.5698
X5.357Y-4.3194
X5.5578Y-4.2407
X5.7586Y-4.3194
X4.6074Y-2.7265
X4.8082Y-2.6477
X5.009Y-2.7265
X3.1082Y-3.5698
X3.309Y-3.491
X3.5098Y-3.5698
X3.8578Y-1.9769
X4.0586Y-1.8981
X4.2594Y-1.9769
X4.6074Y-1.9769
X4.8082Y-1.8981
X5.009Y-1.9769
X6.1067Y-4.4131
X6.3074Y-4.3344
X6.5082Y-4.4131
X3.8578Y-3.4761
X4.0586Y-3.3973
X4.2594Y-3.4761
X3.1082Y-2.0706
X3.309Y-1.9918
X3.5098Y-2.0706
X6.5966Y-5.6921
X6.6288Y-5.4789
X6.7974Y-5.3443
X2.3586Y-4.4131
X2.5594Y-4.3344
X2.7602Y-4.4131
X2.3586Y-2.9139
X2.5594Y-2.8351
X2.7602Y-2.9139
X3.1082Y-5.1627
X3.309Y-5.084
X3.5098Y-5.1627
X6.1067Y-2.9139
X6.3074Y-2.8351
X6.5082Y-2.9139
X6.1067Y-2.1643
X6.3074Y-2.0855
X6.5082Y-2.1643
X4.6074Y-3.4761
X4.8082Y-3.3973
X5.009Y-3.4761
X3.8578Y-2.7265
X4.0586Y-2.6477
X4.2594Y-2.7265
X3.1082Y-2.8202
X3.309Y-2.7414
X3.5098Y-2.8202
X5.357Y-2.8328
X5.5578Y-2.754
X5.7586Y-2.8328
T8
X2.4094Y-4.4667
X2.4594Y-4.3667
X2.4594Y-4.3895
X2.4594Y-4.4092
X2.6594Y-4.3667
X2.6594Y-4.3895
X2.6594Y-4.4092
X2.7094Y-4.4667
X2.4094Y-2.9674
X2.4594Y-2.8674
X2.4594Y-2.8903
X2.4594Y-2.9099
X2.6594Y-2.8674
X2.6594Y-2.8903
X2.6594Y-2.9099
X2.7094Y-2.9674
X3.159Y-5.2163
X3.209Y-5.1163
X3.209Y-5.1391
X3.209Y-5.1588
X3.409Y-5.1163
X3.409Y-5.1391
X3.409Y-5.1588
X3.459Y-5.2163
X6.1574Y-2.9674
X6.2074Y-2.8674
X6.2074Y-2.8903
X6.2074Y-2.9099
X6.4074Y-2.8674
X6.4074Y-2.8903
X6.4074Y-2.9099
X6.4574Y-2.9674
X6.1574Y-2.2178
X6.2074Y-2.1178
X6.2074Y-2.1407
X6.2074Y-2.1603
X6.4074Y-2.1178
X6.4074Y-2.1407
X6.4074Y-2.1603
X6.4574Y-2.2178
X4.6582Y-3.5296
X4.7082Y-3.4296
X4.7082Y-3.4525
X4.7082Y-3.4721
X4.9082Y-3.4296
X4.9082Y-3.4525
X4.9082Y-3.4721
X4.9582Y-3.5296
X3.9086Y-2.78
X3.9586Y-2.68
X3.9586Y-2.7029
X3.9586Y-2.7225
X4.1586Y-2.68
X4.1586Y-2.7029
X4.1586Y-2.7225
X4.2086Y-2.78
X3.159Y-2.8737
X3.209Y-2.7737
X3.209Y-2.7966
X3.209Y-2.8162
X3.409Y-2.7737
X3.409Y-2.7966
X3.409Y-2.8162
X3.459Y-2.8737
X5.4078Y-2.8863
X5.4578Y-2.7863
X5.4578Y-2.8092
X5.4578Y-2.8288
X5.6578Y-2.7863
X5.6578Y-2.8092
X5.6578Y-2.8288
X5.7078Y-2.8863
X2.4094Y-2.2178
X2.4594Y-2.1178
X2.4594Y-2.1407
X2.4594Y-2.1603
X2.6594Y-2.1178
X2.6594Y-2.1407
X2.6594Y-2.1603
X2.7094Y-2.2178
X5.4078Y-2.1304
X5.4578Y-2.0304
X5.4578Y-2.0533
X5.4578Y-2.0729
X5.6578Y-2.0304
X5.6578Y-2.0533
X5.6578Y-2.0729
X5.7078Y-2.1304
X3.9086Y-5.0415
X3.9586Y-4.9415
X3.9586Y-4.9643
X3.9586Y-4.984
X4.1586Y-4.9415
X4.1586Y-4.9643
X4.1586Y-4.984
X4.2086Y-5.0415
X3.159Y-4.373
X3.209Y-4.273
X3.209Y-4.2958
X3.209Y-4.3155
X3.409Y-4.273
X3.409Y-4.2958
X3.409Y-4.3155
X3.459Y-4.373
X3.9086Y-4.2793
X3.9586Y-4.1793
X3.9586Y-4.2021
X3.9586Y-4.2218
X4.1586Y-4.1793
X4.1586Y-4.2021
X4.1586Y-4.2218
X4.2086Y-4.2793
X5.6576Y-5.1775
X5.7169Y-5.1296
X5.7203Y-5.1102
X5.7242Y-5.0877
X5.9138Y-5.1643
X5.9172Y-5.1449
X5.9212Y-5.1224
X5.9531Y-5.2296
X6.1574Y-3.717
X6.2074Y-3.617
X6.2074Y-3.6399
X6.2074Y-3.6596
X6.4074Y-3.617
X6.4074Y-3.6399
X6.4074Y-3.6596
X6.4574Y-3.717
X2.4094Y-3.717
X2.4594Y-3.617
X2.4594Y-3.6399
X2.4594Y-3.6596
X2.6594Y-3.617
X2.6594Y-3.6399
X2.6594Y-3.6596
X2.7094Y-3.717
X4.6582Y-5.1352
X4.7082Y-5.0352
X4.7082Y-5.058
X4.7082Y-5.0777
X4.9082Y-5.0352
X4.9082Y-5.058
X4.9082Y-5.0777
X4.9582Y-5.1352
X4.6582Y-4.2793
X4.7082Y-4.1793
X4.7082Y-4.2021
X4.7082Y-4.2218
X4.9082Y-4.1793
X4.9082Y-4.2021
X4.9082Y-4.2218
X4.9582Y-4.2793
X5.4078Y-3.6233
X5.4578Y-3.5233
X5.4578Y-3.5462
X5.4578Y-3.5659
X5.6578Y-3.5233
X5.6578Y-3.5462
X5.6578Y-3.5659
X5.7078Y-3.6233
X5.4078Y-4.373
X5.4578Y-4.273
X5.4578Y-4.2958
X5.4578Y-4.3155
X5.6578Y-4.273
X5.6578Y-4.2958
X5.6578Y-4.3155
X5.7078Y-4.373
X4.6582Y-2.78
X4.7082Y-2.68
X4.7082Y-2.7029
X4.7082Y-2.7225
X4.9082Y-2.68
X4.9082Y-2.7029
X4.9082Y-2.7225
X4.9582Y-2.78
X3.159Y-3.6233
X3.209Y-3.5233
X3.209Y-3.5462
X3.209Y-3.5659
X3.409Y-3.5233
X3.409Y-3.5462
X3.409Y-3.5659
X3.459Y-3.6233
X3.9086Y-2.0304
X3.9586Y-1.9304
X3.9586Y-1.9533
X3.9586Y-1.9729
X4.1586Y-1.9304
X4.1586Y-1.9533
X4.1586Y-1.9729
X4.2086Y-2.0304
X4.6582Y-2.0304
X4.7082Y-1.9304
X4.7082Y-1.9533
X4.7082Y-1.9729
X4.9082Y-1.9304
X4.9082Y-1.9533
X4.9082Y-1.9729
X4.9582Y-2.0304
X6.1574Y-4.4667
X6.2074Y-4.3667
X6.2074Y-4.3895
X6.2074Y-4.4092
X6.4074Y-4.3667
X6.4074Y-4.3895
X6.4074Y-4.4092
X6.4574Y-4.4667
X3.9086Y-3.5296
X3.9586Y-3.4296
X3.9586Y-3.4525
X3.9586Y-3.4721
X4.1586Y-3.4296
X4.1586Y-3.4525
X4.1586Y-3.4721
X4.2086Y-3.5296
X3.159Y-2.1241
X3.209Y-2.0241
X3.209Y-2.047
X3.209Y-2.0666
X3.409Y-2.0241
X3.409Y-2.047
X3.409Y-2.0666
X3.459Y-2.1241
X6.6068Y-5.5816
X6.6266Y-5.593
X6.6436Y-5.6029
X6.6684Y-5.6749
X6.7068Y-5.4084
X6.7266Y-5.4198
X6.7436Y-5.4297
X6.8184Y-5.4151
T9
X2.3539Y-2.4832
X2.7649Y-2.4832
X5.3523Y-2.3958
X5.7633Y-2.3958
X3.8531Y-5.3068
X4.2641Y-5.3068
X3.1035Y-4.6383
X3.5145Y-4.6383
X3.8531Y-4.5446
X4.2641Y-4.5446
X5.5569Y-5.4292
X5.9617Y-5.5005
X6.1019Y-3.9824
X6.513Y-3.9824
X2.3539Y-3.9824
X2.7649Y-3.9824
X4.6027Y-5.4005
X5.0137Y-5.4005
X4.6027Y-4.5446
X5.0137Y-4.5446
X5.3523Y-3.8887
X5.7633Y-3.8887
X5.3523Y-4.6383
X5.7633Y-4.6383
X4.6027Y-3.0454
X5.0137Y-3.0454
X3.1035Y-3.8887
X3.5145Y-3.8887
X3.8531Y-2.2958
X4.2641Y-2.2958
X4.6027Y-2.2958
X5.0137Y-2.2958
X6.1019Y-4.732
X6.513Y-4.732
X3.8531Y-3.795
X4.2641Y-3.795
X3.1035Y-2.3895
X3.5145Y-2.3895
X6.8704Y-5.8557
X7.076Y-5.4997
X2.3539Y-4.732
X2.7649Y-4.732
X2.3539Y-3.2328
X2.7649Y-3.2328
X3.1035Y-5.4816
X3.5145Y-5.4816
X6.1019Y-3.2328
X6.513Y-3.2328
X6.1019Y-2.4832
X6.513Y-2.4832
X4.6027Y-3.795
X5.0137Y-3.795
X3.8531Y-3.0454
X4.2641Y-3.0454
X3.1035Y-3.1391
X3.5145Y-3.1391
X5.3523Y-3.1517
X5.7633Y-3.1517
T10
X7.7041Y-2.0381
X7.7041Y-2.3136
X7.773Y-2.0381
X7.773Y-2.3136
T11
X4.6082Y-5.2352
X5.0082Y-5.2352
X4.6082Y-4.3793
X5.0082Y-4.3793
X5.3578Y-3.7233
X5.7578Y-3.7233
X5.3578Y-4.473
X5.7578Y-4.473
X4.6082Y-2.88
X5.0082Y-2.88
X3.109Y-3.7233
X3.509Y-3.7233
X3.8586Y-2.1304
X4.2586Y-2.1304
X4.6082Y-2.1304
X5.0082Y-2.1304
X6.1074Y-4.5667
X6.5074Y-4.5667
X3.8586Y-3.6296
X4.2586Y-3.6296
X3.109Y-2.2241
X3.509Y-2.2241
X6.73Y-5.7682
X6.93Y-5.4218
X2.3594Y-4.5667
X2.7594Y-4.5667
X2.3594Y-3.0674
X2.7594Y-3.0674
X3.109Y-5.3163
X3.509Y-5.3163
X6.1074Y-3.0674
X6.5074Y-3.0674
X6.1074Y-2.3178
X6.5074Y-2.3178
X4.6082Y-3.6296
X5.0082Y-3.6296
X3.8586Y-2.88
X4.2586Y-2.88
X3.109Y-2.9737
X3.509Y-2.9737
X5.3578Y-2.9863
X5.7578Y-2.9863
X2.3594Y-2.3178
X2.7594Y-2.3178
X5.3578Y-2.2304
X5.7578Y-2.2304
X3.8586Y-5.1415
X4.2586Y-5.1415
X3.109Y-4.473
X3.509Y-4.473
X3.8586Y-4.3793
X4.2586Y-4.3793
X5.591Y-5.2673
X5.985Y-5.3367
X6.1074Y-3.817
X6.5074Y-3.817
X2.3594Y-3.817
X2.7594Y-3.817
T12
X2.3429Y-4.5667
X2.7759Y-4.5667
X2.3429Y-3.0674
X2.7759Y-3.0674
X3.0925Y-5.3163
X3.5256Y-5.3163
X6.0909Y-3.0674
X6.524Y-3.0674
X6.0909Y-2.3178
X6.524Y-2.3178
X4.5917Y-3.6296
X5.0248Y-3.6296
X3.8421Y-2.88
X4.2752Y-2.88
X3.0925Y-2.9737
X3.5256Y-2.9737
X5.3413Y-2.9863
X5.7744Y-2.9863
X2.3429Y-2.3178
X2.7759Y-2.3178
X5.3413Y-2.2304
X5.7744Y-2.2304
X3.8421Y-5.1415
X4.2752Y-5.1415
X3.0925Y-4.473
X3.5256Y-4.473
X3.8421Y-4.3793
X4.2752Y-4.3793
X5.5747Y-5.2644
X6.0012Y-5.3396
X6.0909Y-3.817
X6.524Y-3.817
X2.3429Y-3.817
X2.7759Y-3.817
X4.5917Y-5.2352
X5.0248Y-5.2352
X4.5917Y-4.3793
X5.0248Y-4.3793
X5.3413Y-3.7233
X5.7744Y-3.7233
X5.3413Y-4.473
X5.7744Y-4.473
X4.5917Y-2.88
X5.0248Y-2.88
X3.0925Y-3.7233
X3.5256Y-3.7233
X3.8421Y-2.1304
X4.2752Y-2.1304
X4.5917Y-2.1304
X5.0248Y-2.1304
X6.0909Y-4.5667
X6.524Y-4.5667
X3.8421Y-3.6296
X4.2752Y-3.6296
X3.0925Y-2.2241
X3.5256Y-2.2241
X6.7217Y-5.7825
X6.9383Y-5.4075
T13
X5.16Y-3.286
X7.411Y-5.209
X3.696Y-3.252
X6.791Y-4.317
X7.738Y-2.745
X2.589Y-5.406
T14
X6.3074Y-4.5667
X4.0586Y-3.6296
X3.309Y-2.2241
X6.83Y-5.595
X2.5594Y-4.5667
X2.5594Y-3.0674
X3.309Y-5.3163
X6.3074Y-3.0674
X6.3074Y-2.3178
X4.8082Y-3.6296
X4.0586Y-2.88
X3.309Y-2.9737
X5.5578Y-2.9863
X2.5594Y-2.3178
X5.5578Y-2.2304
X4.0586Y-5.1415
X3.309Y-4.473
X4.0586Y-4.3793
X5.788Y-5.302
X6.3074Y-3.817
X2.5594Y-3.817
X4.8082Y-5.2352
X4.8082Y-4.3793
X5.5578Y-3.7233
X5.5578Y-4.473
X4.8082Y-2.88
X3.309Y-3.7233
X4.0586Y-2.1304
X4.8082Y-2.1304
T6
G00X7.6214Y-2.0991
M15
G01X7.6214Y-2.1188
M16
G05
G00X7.6214Y-2.2172
M15
G01X7.6214Y-2.2369
M16
G05
G00X7.6214Y-2.3747
M15
G01X7.6214Y-2.3944
M16
G05
G00X7.6903Y-2.4337
M15
G01X7.6903Y-2.4534
M16
G05
G00X7.7868Y-2.4337
M15
G01X7.7868Y-2.4534
M16
G05
G00X7.8557Y-2.0991
M15
G01X7.8557Y-2.1188
M16
G05
G00X7.8557Y-2.2172
M15
G01X7.8557Y-2.2369
M16
G05
G00X7.8557Y-2.3747
M15
G01X7.8557Y-2.3944
M16
G05
T8
G00X6.9159Y-4.7173
M15
G01X6.9159Y-4.6661
M16
G05
G00X7.3569Y-4.7173
M15
G01X7.3569Y-4.6661
M16
G05
T0
M30
