G04 #@! TF.GenerationSoftware,KiCad,Pcbnew,6.0.0-rc1-unknown-b6ea9afb4f~144~ubuntu20.04.1*
G04 #@! TF.CreationDate,2021-11-30T19:06:32+00:00*
G04 #@! TF.ProjectId,grandiceps-rev3,6772616e-6469-4636-9570-732d72657633,rev?*
G04 #@! TF.SameCoordinates,Original*
G04 #@! TF.FileFunction,Soldermask,Top*
G04 #@! TF.FilePolarity,Negative*
%FSLAX46Y46*%
G04 Gerber Fmt 4.6, Leading zero omitted, Abs format (unit mm)*
G04 Created by KiCad (PCBNEW 6.0.0-rc1-unknown-b6ea9afb4f~144~ubuntu20.04.1) date 2021-11-30 19:06:32*
%MOMM*%
%LPD*%
G01*
G04 APERTURE LIST*
G04 Aperture macros list*
%AMRoundRect*
0 Rectangle with rounded corners*
0 $1 Rounding radius*
0 $2 $3 $4 $5 $6 $7 $8 $9 X,Y pos of 4 corners*
0 Add a 4 corners polygon primitive as box body*
4,1,4,$2,$3,$4,$5,$6,$7,$8,$9,$2,$3,0*
0 Add four circle primitives for the rounded corners*
1,1,$1+$1,$2,$3*
1,1,$1+$1,$4,$5*
1,1,$1+$1,$6,$7*
1,1,$1+$1,$8,$9*
0 Add four rect primitives between the rounded corners*
20,1,$1+$1,$2,$3,$4,$5,0*
20,1,$1+$1,$4,$5,$6,$7,0*
20,1,$1+$1,$6,$7,$8,$9,0*
20,1,$1+$1,$8,$9,$2,$3,0*%
%AMHorizOval*
0 Thick line with rounded ends*
0 $1 width*
0 $2 $3 position (X,Y) of the first rounded end (center of the circle)*
0 $4 $5 position (X,Y) of the second rounded end (center of the circle)*
0 Add line between two ends*
20,1,$1,$2,$3,$4,$5,0*
0 Add two circle primitives to create the rounded ends*
1,1,$1,$2,$3*
1,1,$1,$4,$5*%
G04 Aperture macros list end*
%ADD10C,0.300000*%
%ADD11C,1.626000*%
%ADD12RoundRect,0.294750X-0.243750X-0.456250X0.243750X-0.456250X0.243750X0.456250X-0.243750X0.456250X0*%
%ADD13C,2.002000*%
%ADD14C,1.702000*%
%ADD15O,1.902000X0.922000*%
%ADD16HorizOval,0.922000X0.482556X0.085088X-0.482556X-0.085088X0*%
%ADD17RoundRect,0.051000X-0.750000X0.500000X-0.750000X-0.500000X0.750000X-0.500000X0.750000X0.500000X0*%
%ADD18HorizOval,0.922000X0.245000X-0.424352X-0.245000X0.424352X0*%
%ADD19RoundRect,0.276000X0.375000X-0.225000X0.375000X0.225000X-0.375000X0.225000X-0.375000X-0.225000X0*%
%ADD20RoundRect,0.276000X0.408374X-0.156464X0.330232X0.286700X-0.408374X0.156464X-0.330232X-0.286700X0*%
%ADD21RoundRect,0.276000X-0.007356X-0.437260X0.382356X-0.212260X0.007356X0.437260X-0.382356X0.212260X0*%
%ADD22RoundRect,0.276000X0.225000X0.375000X-0.225000X0.375000X-0.225000X-0.375000X0.225000X-0.375000X0*%
%ADD23C,3.302000*%
%ADD24C,1.852000*%
%ADD25C,4.089800*%
%ADD26RoundRect,0.051000X-1.175000X-1.250000X1.175000X-1.250000X1.175000X1.250000X-1.175000X1.250000X0*%
%ADD27RoundRect,0.051000X1.075000X1.250000X-1.075000X1.250000X-1.075000X-1.250000X1.075000X-1.250000X0*%
%ADD28RoundRect,0.051000X1.000000X-1.000000X1.000000X1.000000X-1.000000X1.000000X-1.000000X-1.000000X0*%
%ADD29C,2.102000*%
%ADD30RoundRect,0.051000X1.000000X-1.600000X1.000000X1.600000X-1.000000X1.600000X-1.000000X-1.600000X0*%
%ADD31RoundRect,0.051000X-1.670032X0.392580X-0.495032X-1.642580X1.670032X-0.392580X0.495032X1.642580X0*%
%ADD32RoundRect,0.051000X1.620032X-0.305977X0.545032X1.555977X-1.620032X0.305977X-0.545032X-1.555977X0*%
%ADD33RoundRect,0.051000X-0.940089X-1.435046X1.374209X-1.026973X0.940089X1.435046X-1.374209X1.026973X0*%
%ADD34RoundRect,0.051000X0.841608X1.417681X-1.275729X1.044338X-0.841608X-1.417681X1.275729X-1.044338X0*%
%ADD35C,1.302000*%
%ADD36O,1.802000X2.602000*%
G04 APERTURE END LIST*
D10*
X91692300Y-72326800D02*
X91620871Y-72183942D01*
X91620871Y-71969657D01*
X91692300Y-71755371D01*
X91835157Y-71612514D01*
X91978014Y-71541085D01*
X92263728Y-71469657D01*
X92478014Y-71469657D01*
X92763728Y-71541085D01*
X92906585Y-71612514D01*
X93049442Y-71755371D01*
X93120871Y-71969657D01*
X93120871Y-72112514D01*
X93049442Y-72326800D01*
X92978014Y-72398228D01*
X92478014Y-72398228D01*
X92478014Y-72112514D01*
X93120871Y-73041085D02*
X92120871Y-73041085D01*
X92406585Y-73041085D02*
X92263728Y-73112514D01*
X92192300Y-73183942D01*
X92120871Y-73326800D01*
X92120871Y-73469657D01*
X93120871Y-74612514D02*
X92335157Y-74612514D01*
X92192300Y-74541085D01*
X92120871Y-74398228D01*
X92120871Y-74112514D01*
X92192300Y-73969657D01*
X93049442Y-74612514D02*
X93120871Y-74469657D01*
X93120871Y-74112514D01*
X93049442Y-73969657D01*
X92906585Y-73898228D01*
X92763728Y-73898228D01*
X92620871Y-73969657D01*
X92549442Y-74112514D01*
X92549442Y-74469657D01*
X92478014Y-74612514D01*
X92120871Y-75326800D02*
X93120871Y-75326800D01*
X92263728Y-75326800D02*
X92192300Y-75398228D01*
X92120871Y-75541085D01*
X92120871Y-75755371D01*
X92192300Y-75898228D01*
X92335157Y-75969657D01*
X93120871Y-75969657D01*
X93120871Y-77326800D02*
X91620871Y-77326800D01*
X93049442Y-77326800D02*
X93120871Y-77183942D01*
X93120871Y-76898228D01*
X93049442Y-76755371D01*
X92978014Y-76683942D01*
X92835157Y-76612514D01*
X92406585Y-76612514D01*
X92263728Y-76683942D01*
X92192300Y-76755371D01*
X92120871Y-76898228D01*
X92120871Y-77183942D01*
X92192300Y-77326800D01*
X93120871Y-78041085D02*
X92120871Y-78041085D01*
X91620871Y-78041085D02*
X91692300Y-77969657D01*
X91763728Y-78041085D01*
X91692300Y-78112514D01*
X91620871Y-78041085D01*
X91763728Y-78041085D01*
X93049442Y-79398228D02*
X93120871Y-79255371D01*
X93120871Y-78969657D01*
X93049442Y-78826800D01*
X92978014Y-78755371D01*
X92835157Y-78683942D01*
X92406585Y-78683942D01*
X92263728Y-78755371D01*
X92192300Y-78826800D01*
X92120871Y-78969657D01*
X92120871Y-79255371D01*
X92192300Y-79398228D01*
X93049442Y-80612514D02*
X93120871Y-80469657D01*
X93120871Y-80183942D01*
X93049442Y-80041085D01*
X92906585Y-79969657D01*
X92335157Y-79969657D01*
X92192300Y-80041085D01*
X92120871Y-80183942D01*
X92120871Y-80469657D01*
X92192300Y-80612514D01*
X92335157Y-80683942D01*
X92478014Y-80683942D01*
X92620871Y-79969657D01*
X92120871Y-81326800D02*
X93620871Y-81326800D01*
X92192300Y-81326800D02*
X92120871Y-81469657D01*
X92120871Y-81755371D01*
X92192300Y-81898228D01*
X92263728Y-81969657D01*
X92406585Y-82041085D01*
X92835157Y-82041085D01*
X92978014Y-81969657D01*
X93049442Y-81898228D01*
X93120871Y-81755371D01*
X93120871Y-81469657D01*
X93049442Y-81326800D01*
X93120871Y-84683942D02*
X92406585Y-84183942D01*
X93120871Y-83826800D02*
X91620871Y-83826800D01*
X91620871Y-84398228D01*
X91692300Y-84541085D01*
X91763728Y-84612514D01*
X91906585Y-84683942D01*
X92120871Y-84683942D01*
X92263728Y-84612514D01*
X92335157Y-84541085D01*
X92406585Y-84398228D01*
X92406585Y-83826800D01*
X93049442Y-85898228D02*
X93120871Y-85755371D01*
X93120871Y-85469657D01*
X93049442Y-85326800D01*
X92906585Y-85255371D01*
X92335157Y-85255371D01*
X92192300Y-85326800D01*
X92120871Y-85469657D01*
X92120871Y-85755371D01*
X92192300Y-85898228D01*
X92335157Y-85969657D01*
X92478014Y-85969657D01*
X92620871Y-85255371D01*
X92120871Y-86469657D02*
X93120871Y-86826800D01*
X92120871Y-87183942D01*
X91620871Y-87612514D02*
X91620871Y-88541085D01*
X92192300Y-88041085D01*
X92192300Y-88255371D01*
X92263728Y-88398228D01*
X92335157Y-88469657D01*
X92478014Y-88541085D01*
X92835157Y-88541085D01*
X92978014Y-88469657D01*
X93049442Y-88398228D01*
X93120871Y-88255371D01*
X93120871Y-87826800D01*
X93049442Y-87683942D01*
X92978014Y-87612514D01*
X92978014Y-89183942D02*
X93049442Y-89255371D01*
X93120871Y-89183942D01*
X93049442Y-89112514D01*
X92978014Y-89183942D01*
X93120871Y-89183942D01*
X93120871Y-90683942D02*
X93120871Y-89826800D01*
X93120871Y-90255371D02*
X91620871Y-90255371D01*
X91835157Y-90112514D01*
X91978014Y-89969657D01*
X92049442Y-89826800D01*
X94178728Y-75755371D02*
X94107300Y-75826800D01*
X94035871Y-75969657D01*
X94035871Y-76326800D01*
X94107300Y-76469657D01*
X94178728Y-76541085D01*
X94321585Y-76612514D01*
X94464442Y-76612514D01*
X94678728Y-76541085D01*
X95535871Y-75683942D01*
X95535871Y-76612514D01*
X94035871Y-77541085D02*
X94035871Y-77683942D01*
X94107300Y-77826800D01*
X94178728Y-77898228D01*
X94321585Y-77969657D01*
X94607300Y-78041085D01*
X94964442Y-78041085D01*
X95250157Y-77969657D01*
X95393014Y-77898228D01*
X95464442Y-77826800D01*
X95535871Y-77683942D01*
X95535871Y-77541085D01*
X95464442Y-77398228D01*
X95393014Y-77326800D01*
X95250157Y-77255371D01*
X94964442Y-77183942D01*
X94607300Y-77183942D01*
X94321585Y-77255371D01*
X94178728Y-77326800D01*
X94107300Y-77398228D01*
X94035871Y-77541085D01*
X94178728Y-78612514D02*
X94107300Y-78683942D01*
X94035871Y-78826800D01*
X94035871Y-79183942D01*
X94107300Y-79326800D01*
X94178728Y-79398228D01*
X94321585Y-79469657D01*
X94464442Y-79469657D01*
X94678728Y-79398228D01*
X95535871Y-78541085D01*
X95535871Y-79469657D01*
X95535871Y-80898228D02*
X95535871Y-80041085D01*
X95535871Y-80469657D02*
X94035871Y-80469657D01*
X94250157Y-80326800D01*
X94393014Y-80183942D01*
X94464442Y-80041085D01*
X94035871Y-82469657D02*
X94035871Y-83326800D01*
X95535871Y-82898228D02*
X94035871Y-82898228D01*
X95535871Y-83826800D02*
X94035871Y-83826800D01*
X95535871Y-84683942D02*
X94678728Y-84041085D01*
X94035871Y-84683942D02*
X94893014Y-83826800D01*
X94035871Y-85183942D02*
X95535871Y-85541085D01*
X94464442Y-85826799D01*
X95535871Y-86112514D01*
X94035871Y-86469657D01*
X91692300Y-72326800D02*
X91620871Y-72183942D01*
X91620871Y-71969657D01*
X91692300Y-71755371D01*
X91835157Y-71612514D01*
X91978014Y-71541085D01*
X92263728Y-71469657D01*
X92478014Y-71469657D01*
X92763728Y-71541085D01*
X92906585Y-71612514D01*
X93049442Y-71755371D01*
X93120871Y-71969657D01*
X93120871Y-72112514D01*
X93049442Y-72326800D01*
X92978014Y-72398228D01*
X92478014Y-72398228D01*
X92478014Y-72112514D01*
X93120871Y-73041085D02*
X92120871Y-73041085D01*
X92406585Y-73041085D02*
X92263728Y-73112514D01*
X92192300Y-73183942D01*
X92120871Y-73326800D01*
X92120871Y-73469657D01*
X93120871Y-74612514D02*
X92335157Y-74612514D01*
X92192300Y-74541085D01*
X92120871Y-74398228D01*
X92120871Y-74112514D01*
X92192300Y-73969657D01*
X93049442Y-74612514D02*
X93120871Y-74469657D01*
X93120871Y-74112514D01*
X93049442Y-73969657D01*
X92906585Y-73898228D01*
X92763728Y-73898228D01*
X92620871Y-73969657D01*
X92549442Y-74112514D01*
X92549442Y-74469657D01*
X92478014Y-74612514D01*
X92120871Y-75326800D02*
X93120871Y-75326800D01*
X92263728Y-75326800D02*
X92192300Y-75398228D01*
X92120871Y-75541085D01*
X92120871Y-75755371D01*
X92192300Y-75898228D01*
X92335157Y-75969657D01*
X93120871Y-75969657D01*
X93120871Y-77326800D02*
X91620871Y-77326800D01*
X93049442Y-77326800D02*
X93120871Y-77183942D01*
X93120871Y-76898228D01*
X93049442Y-76755371D01*
X92978014Y-76683942D01*
X92835157Y-76612514D01*
X92406585Y-76612514D01*
X92263728Y-76683942D01*
X92192300Y-76755371D01*
X92120871Y-76898228D01*
X92120871Y-77183942D01*
X92192300Y-77326800D01*
X93120871Y-78041085D02*
X92120871Y-78041085D01*
X91620871Y-78041085D02*
X91692300Y-77969657D01*
X91763728Y-78041085D01*
X91692300Y-78112514D01*
X91620871Y-78041085D01*
X91763728Y-78041085D01*
X93049442Y-79398228D02*
X93120871Y-79255371D01*
X93120871Y-78969657D01*
X93049442Y-78826800D01*
X92978014Y-78755371D01*
X92835157Y-78683942D01*
X92406585Y-78683942D01*
X92263728Y-78755371D01*
X92192300Y-78826800D01*
X92120871Y-78969657D01*
X92120871Y-79255371D01*
X92192300Y-79398228D01*
X93049442Y-80612514D02*
X93120871Y-80469657D01*
X93120871Y-80183942D01*
X93049442Y-80041085D01*
X92906585Y-79969657D01*
X92335157Y-79969657D01*
X92192300Y-80041085D01*
X92120871Y-80183942D01*
X92120871Y-80469657D01*
X92192300Y-80612514D01*
X92335157Y-80683942D01*
X92478014Y-80683942D01*
X92620871Y-79969657D01*
X92120871Y-81326800D02*
X93620871Y-81326800D01*
X92192300Y-81326800D02*
X92120871Y-81469657D01*
X92120871Y-81755371D01*
X92192300Y-81898228D01*
X92263728Y-81969657D01*
X92406585Y-82041085D01*
X92835157Y-82041085D01*
X92978014Y-81969657D01*
X93049442Y-81898228D01*
X93120871Y-81755371D01*
X93120871Y-81469657D01*
X93049442Y-81326800D01*
X93120871Y-84683942D02*
X92406585Y-84183942D01*
X93120871Y-83826800D02*
X91620871Y-83826800D01*
X91620871Y-84398228D01*
X91692300Y-84541085D01*
X91763728Y-84612514D01*
X91906585Y-84683942D01*
X92120871Y-84683942D01*
X92263728Y-84612514D01*
X92335157Y-84541085D01*
X92406585Y-84398228D01*
X92406585Y-83826800D01*
X93049442Y-85898228D02*
X93120871Y-85755371D01*
X93120871Y-85469657D01*
X93049442Y-85326800D01*
X92906585Y-85255371D01*
X92335157Y-85255371D01*
X92192300Y-85326800D01*
X92120871Y-85469657D01*
X92120871Y-85755371D01*
X92192300Y-85898228D01*
X92335157Y-85969657D01*
X92478014Y-85969657D01*
X92620871Y-85255371D01*
X92120871Y-86469657D02*
X93120871Y-86826800D01*
X92120871Y-87183942D01*
X91620871Y-87612514D02*
X91620871Y-88541085D01*
X92192300Y-88041085D01*
X92192300Y-88255371D01*
X92263728Y-88398228D01*
X92335157Y-88469657D01*
X92478014Y-88541085D01*
X92835157Y-88541085D01*
X92978014Y-88469657D01*
X93049442Y-88398228D01*
X93120871Y-88255371D01*
X93120871Y-87826800D01*
X93049442Y-87683942D01*
X92978014Y-87612514D01*
X92978014Y-89183942D02*
X93049442Y-89255371D01*
X93120871Y-89183942D01*
X93049442Y-89112514D01*
X92978014Y-89183942D01*
X93120871Y-89183942D01*
X93120871Y-90683942D02*
X93120871Y-89826800D01*
X93120871Y-90255371D02*
X91620871Y-90255371D01*
X91835157Y-90112514D01*
X91978014Y-89969657D01*
X92049442Y-89826800D01*
X94178728Y-75755371D02*
X94107300Y-75826800D01*
X94035871Y-75969657D01*
X94035871Y-76326800D01*
X94107300Y-76469657D01*
X94178728Y-76541085D01*
X94321585Y-76612514D01*
X94464442Y-76612514D01*
X94678728Y-76541085D01*
X95535871Y-75683942D01*
X95535871Y-76612514D01*
X94035871Y-77541085D02*
X94035871Y-77683942D01*
X94107300Y-77826800D01*
X94178728Y-77898228D01*
X94321585Y-77969657D01*
X94607300Y-78041085D01*
X94964442Y-78041085D01*
X95250157Y-77969657D01*
X95393014Y-77898228D01*
X95464442Y-77826800D01*
X95535871Y-77683942D01*
X95535871Y-77541085D01*
X95464442Y-77398228D01*
X95393014Y-77326800D01*
X95250157Y-77255371D01*
X94964442Y-77183942D01*
X94607300Y-77183942D01*
X94321585Y-77255371D01*
X94178728Y-77326800D01*
X94107300Y-77398228D01*
X94035871Y-77541085D01*
X94178728Y-78612514D02*
X94107300Y-78683942D01*
X94035871Y-78826800D01*
X94035871Y-79183942D01*
X94107300Y-79326800D01*
X94178728Y-79398228D01*
X94321585Y-79469657D01*
X94464442Y-79469657D01*
X94678728Y-79398228D01*
X95535871Y-78541085D01*
X95535871Y-79469657D01*
X95535871Y-80898228D02*
X95535871Y-80041085D01*
X95535871Y-80469657D02*
X94035871Y-80469657D01*
X94250157Y-80326800D01*
X94393014Y-80183942D01*
X94464442Y-80041085D01*
X94035871Y-82469657D02*
X94035871Y-83326800D01*
X95535871Y-82898228D02*
X94035871Y-82898228D01*
X95535871Y-83826800D02*
X94035871Y-83826800D01*
X95535871Y-84683942D02*
X94678728Y-84041085D01*
X94035871Y-84683942D02*
X94893014Y-83826800D01*
X94035871Y-85183942D02*
X95535871Y-85541085D01*
X94464442Y-85826799D01*
X95535871Y-86112514D01*
X94035871Y-86469657D01*
D11*
X100813000Y-47167800D03*
X117831000Y-47167800D03*
X117831000Y-49707800D03*
X100813000Y-49707800D03*
X100813000Y-52247800D03*
X117831000Y-52247800D03*
X100813000Y-54787800D03*
X117831000Y-54787800D03*
X117831000Y-57327800D03*
X100813000Y-57327800D03*
X117831000Y-59867800D03*
X100813000Y-59867800D03*
X117831000Y-62407800D03*
X100813000Y-62407800D03*
X117831000Y-64947800D03*
X100813000Y-64947800D03*
X117831000Y-67487800D03*
X100813000Y-67487800D03*
X117831000Y-70027800D03*
X100813000Y-70027800D03*
X100813000Y-72567800D03*
X117831000Y-72567800D03*
X100813000Y-75107800D03*
X117831000Y-75107800D03*
X117831000Y-77647800D03*
X100813000Y-77647800D03*
X100813000Y-80187800D03*
X117831000Y-80187800D03*
X100813000Y-82727800D03*
X117831000Y-82727800D03*
X117831000Y-85267800D03*
X100813000Y-85267800D03*
X117831000Y-87807800D03*
X100813000Y-87807800D03*
X117831000Y-90347800D03*
X100813000Y-90347800D03*
X100813000Y-92887800D03*
X117831000Y-92887800D03*
X100813000Y-95427800D03*
X117831000Y-95427800D03*
X116053000Y-95427800D03*
X102591000Y-95427800D03*
X116053000Y-92887800D03*
X102591000Y-92887800D03*
X102591000Y-90347800D03*
X116053000Y-90347800D03*
X116053000Y-87807800D03*
X102591000Y-87807800D03*
X116053000Y-85267800D03*
X102591000Y-85267800D03*
X102591000Y-82727800D03*
X116053000Y-82727800D03*
X102591000Y-80187800D03*
X116053000Y-80187800D03*
X102591000Y-77647800D03*
X116053000Y-77647800D03*
X116053000Y-75107800D03*
X102591000Y-75107800D03*
X102591000Y-72567800D03*
X116053000Y-72567800D03*
X116053000Y-70027800D03*
X102591000Y-70027800D03*
X102591000Y-67487800D03*
X116053000Y-67487800D03*
X116053000Y-64947800D03*
X102591000Y-64947800D03*
X102591000Y-62407800D03*
X116053000Y-62407800D03*
X102591000Y-59867800D03*
X116053000Y-59867800D03*
X116053000Y-57327800D03*
X102591000Y-57327800D03*
X102591000Y-54787800D03*
X116053000Y-54787800D03*
X102591000Y-52247800D03*
X116053000Y-52247800D03*
X116053000Y-49707800D03*
X102591000Y-49707800D03*
X116053000Y-47167800D03*
X102591000Y-47167800D03*
D12*
X228955600Y-121742200D03*
X230830600Y-121742200D03*
X152453100Y-98298000D03*
X154328100Y-98298000D03*
X152430000Y-117246400D03*
X154305000Y-117246400D03*
D13*
X98896000Y-125146600D03*
D14*
X98896000Y-115036600D03*
X98896000Y-117576600D03*
X98896000Y-120116600D03*
X98896000Y-122656600D03*
X97671000Y-112646600D03*
X99521000Y-112646600D03*
D15*
X132824200Y-116327000D03*
X132824200Y-117607000D03*
X127424200Y-117607000D03*
X127424200Y-116327000D03*
X227998000Y-61082000D03*
X227998000Y-62362000D03*
X222598000Y-62362000D03*
X222598000Y-61082000D03*
D16*
X129540979Y-140352496D03*
X129763249Y-141613050D03*
X124445287Y-142550750D03*
X124223017Y-141290197D03*
D15*
X170873400Y-51430000D03*
X170873400Y-52710000D03*
X165473400Y-52710000D03*
X165473400Y-51430000D03*
D12*
X185549300Y-134950200D03*
X187424300Y-134950200D03*
X191038000Y-96062800D03*
X192913000Y-96062800D03*
D15*
X158910000Y-135783400D03*
X158910000Y-137063400D03*
X153510000Y-137063400D03*
X153510000Y-135783400D03*
X151874200Y-94914800D03*
X151874200Y-96194800D03*
X146474200Y-96194800D03*
X146474200Y-94914800D03*
X132798800Y-97277000D03*
X132798800Y-98557000D03*
X127398800Y-98557000D03*
X127398800Y-97277000D03*
X132824200Y-59202400D03*
X132824200Y-60482400D03*
X127424200Y-60482400D03*
X127424200Y-59202400D03*
X189923400Y-54427200D03*
X189923400Y-55707200D03*
X184523400Y-55707200D03*
X184523400Y-54427200D03*
X208973400Y-78506400D03*
X208973400Y-79786400D03*
X203573400Y-79786400D03*
X203573400Y-78506400D03*
X132824200Y-78252400D03*
X132824200Y-79532400D03*
X127424200Y-79532400D03*
X127424200Y-78252400D03*
D17*
X113106200Y-98725200D03*
X113106200Y-100025200D03*
D15*
X170848000Y-108580000D03*
X170848000Y-109860000D03*
X165448000Y-109860000D03*
X165448000Y-108580000D03*
D18*
X101111447Y-149414469D03*
X100002935Y-150054469D03*
X97302935Y-145377931D03*
X98411447Y-144737931D03*
D15*
X170848000Y-89504600D03*
X170848000Y-90784600D03*
X165448000Y-90784600D03*
X165448000Y-89504600D03*
X227972600Y-80106600D03*
X227972600Y-81386600D03*
X222572600Y-81386600D03*
X222572600Y-80106600D03*
X208973400Y-97581800D03*
X208973400Y-98861800D03*
X203573400Y-98861800D03*
X203573400Y-97581800D03*
D12*
X133456200Y-62458600D03*
X135331200Y-62458600D03*
D15*
X151848800Y-56967200D03*
X151848800Y-58247200D03*
X146448800Y-58247200D03*
X146448800Y-56967200D03*
X189948800Y-92527200D03*
X189948800Y-93807200D03*
X184548800Y-93807200D03*
X184548800Y-92527200D03*
D12*
X229184200Y-102641400D03*
X231059200Y-102641400D03*
X132920500Y-100507800D03*
X134795500Y-100507800D03*
X210187300Y-101066600D03*
X212062300Y-101066600D03*
D15*
X227998000Y-118206600D03*
X227998000Y-119486600D03*
X222598000Y-119486600D03*
X222598000Y-118206600D03*
D12*
X228272100Y-64236600D03*
X230147100Y-64236600D03*
D15*
X208973400Y-137282000D03*
X208973400Y-138562000D03*
X203573400Y-138562000D03*
X203573400Y-137282000D03*
D12*
X171323000Y-112217200D03*
X173198000Y-112217200D03*
D15*
X208948000Y-116581000D03*
X208948000Y-117861000D03*
X203548000Y-117861000D03*
X203548000Y-116581000D03*
D17*
X97739200Y-92904000D03*
X97739200Y-94204000D03*
X97739200Y-95504000D03*
X105537000Y-98725200D03*
X105537000Y-100025200D03*
D15*
X189948800Y-111551800D03*
X189948800Y-112831800D03*
X184548800Y-112831800D03*
X184548800Y-111551800D03*
D12*
X209730100Y-62534800D03*
X211605100Y-62534800D03*
D17*
X108077000Y-98725200D03*
X108077000Y-100025200D03*
D15*
X189923400Y-73451800D03*
X189923400Y-74731800D03*
X184523400Y-74731800D03*
X184523400Y-73451800D03*
X208998800Y-59329400D03*
X208998800Y-60609400D03*
X203598800Y-60609400D03*
X203598800Y-59329400D03*
D12*
X209984100Y-140766800D03*
X211859100Y-140766800D03*
D15*
X151823400Y-76144200D03*
X151823400Y-77424200D03*
X146423400Y-77424200D03*
X146423400Y-76144200D03*
X170949600Y-70480000D03*
X170949600Y-71760000D03*
X165549600Y-71760000D03*
X165549600Y-70480000D03*
X184056000Y-131440000D03*
X184056000Y-132720000D03*
X178656000Y-132720000D03*
X178656000Y-131440000D03*
X151848800Y-113914000D03*
X151848800Y-115194000D03*
X146448800Y-115194000D03*
X146448800Y-113914000D03*
D17*
X110617000Y-98725200D03*
X110617000Y-100025200D03*
D15*
X227998000Y-99156600D03*
X227998000Y-100436600D03*
X222598000Y-100436600D03*
X222598000Y-99156600D03*
D12*
X190834800Y-114909600D03*
X192709800Y-114909600D03*
X171276800Y-92735400D03*
X173151800Y-92735400D03*
X210187300Y-120192800D03*
X212062300Y-120192800D03*
X133428500Y-81737200D03*
X135303500Y-81737200D03*
X152173700Y-79451200D03*
X154048700Y-79451200D03*
X210161900Y-82042000D03*
X212036900Y-82042000D03*
D19*
X233426000Y-60679600D03*
X233426000Y-57378600D03*
X213487000Y-59105800D03*
X213487000Y-55804800D03*
X194945000Y-53974000D03*
X194945000Y-50673000D03*
X176123600Y-51637200D03*
X176123600Y-48336200D03*
X156895800Y-56845200D03*
X156895800Y-53544200D03*
D20*
X134728893Y-139344718D03*
X134155681Y-136093867D03*
D21*
X103395992Y-153403300D03*
X106254742Y-151752800D03*
D22*
X108761800Y-107467400D03*
X105460800Y-107467400D03*
D19*
X232918000Y-79856600D03*
X232918000Y-76555600D03*
X214071200Y-78638400D03*
X214071200Y-75337400D03*
X195453000Y-73813400D03*
X195453000Y-70512400D03*
X176428400Y-70103000D03*
X176428400Y-66802000D03*
X156819600Y-75843400D03*
X156819600Y-72542400D03*
X137916400Y-77825600D03*
X137916400Y-74524600D03*
X232943400Y-98400600D03*
X232943400Y-95099600D03*
X214249000Y-97611200D03*
X214249000Y-94310200D03*
X195453000Y-92683600D03*
X195453000Y-89382600D03*
X175895000Y-89076800D03*
X175895000Y-85775800D03*
X157073600Y-94488000D03*
X157073600Y-91187000D03*
X137947400Y-96824800D03*
X137947400Y-93523800D03*
X233222800Y-118058200D03*
X233222800Y-114757200D03*
X213766400Y-116839000D03*
X213766400Y-113538000D03*
X195173600Y-111530400D03*
X195173600Y-108229400D03*
X176149000Y-108609400D03*
X176149000Y-105308400D03*
X156972000Y-113410000D03*
X156972000Y-110109000D03*
X137916400Y-116281200D03*
X137916400Y-112980200D03*
X213969600Y-136854200D03*
X213969600Y-133553200D03*
X189052200Y-131216400D03*
X189052200Y-127915400D03*
X164134800Y-135483600D03*
X164134800Y-132182600D03*
D23*
X219100400Y-44069000D03*
X168783000Y-121081800D03*
X95504000Y-134366000D03*
X224561000Y-133198000D03*
X153924000Y-40995600D03*
X93776600Y-65608200D03*
D12*
X133049800Y-119608600D03*
X134924800Y-119608600D03*
D24*
X220218000Y-75682000D03*
X230378000Y-75682000D03*
D25*
X225298000Y-75682000D03*
D26*
X232498000Y-73142000D03*
D27*
X218873400Y-70614700D03*
D25*
X206273000Y-55039800D03*
D24*
X201193000Y-55039800D03*
X211353000Y-55039800D03*
D26*
X213473000Y-52499800D03*
D27*
X199848400Y-49972500D03*
D24*
X144073000Y-109498000D03*
X154233000Y-109498000D03*
D25*
X149153000Y-109498000D03*
D26*
X156353000Y-106958000D03*
D27*
X142728400Y-104430700D03*
D24*
X135193000Y-111878000D03*
X125033000Y-111878000D03*
D25*
X130113000Y-111878000D03*
D26*
X137313000Y-109338000D03*
D27*
X123688400Y-106810700D03*
D24*
X173228000Y-104110200D03*
X163068000Y-104110200D03*
D25*
X168148000Y-104110200D03*
D26*
X175348000Y-101570200D03*
D27*
X161723400Y-99042900D03*
D25*
X130113000Y-54757800D03*
D24*
X135193000Y-54757800D03*
X125033000Y-54757800D03*
D26*
X137313000Y-52217800D03*
D27*
X123688400Y-49690500D03*
D24*
X211353000Y-132842000D03*
D25*
X206273000Y-132842000D03*
D24*
X201193000Y-132842000D03*
D26*
X213473000Y-130302000D03*
D27*
X199848400Y-127774700D03*
D28*
X109982000Y-124714000D03*
D29*
X104982000Y-124714000D03*
X107482000Y-124714000D03*
D30*
X101882000Y-117214000D03*
X113082000Y-117214000D03*
D29*
X104982000Y-110214000D03*
X109982000Y-110214000D03*
D25*
X149153000Y-52537800D03*
D24*
X144073000Y-52537800D03*
X154233000Y-52537800D03*
D26*
X156353000Y-49997800D03*
D27*
X142728400Y-47470500D03*
D25*
X187233000Y-107118000D03*
D24*
X182153000Y-107118000D03*
X192313000Y-107118000D03*
D26*
X194433000Y-104578000D03*
D27*
X180808400Y-102050700D03*
D25*
X130113000Y-73797800D03*
D24*
X125033000Y-73797800D03*
X135193000Y-73797800D03*
D26*
X137313000Y-71257800D03*
D27*
X123688400Y-68730500D03*
D25*
X156210000Y-131318000D03*
D24*
X161290000Y-131318000D03*
X151130000Y-131318000D03*
D26*
X163410000Y-128778000D03*
D27*
X149785400Y-126250700D03*
D24*
X106115000Y-149299409D03*
D25*
X103575000Y-144900000D03*
D24*
X101035000Y-140500591D03*
D31*
X109374705Y-149865383D03*
D32*
X104751111Y-136802483D03*
D24*
X121110377Y-137341933D03*
D25*
X126113200Y-136459800D03*
D24*
X131116023Y-135577667D03*
D33*
X132762749Y-132708121D03*
D34*
X118906277Y-132585104D03*
D24*
X230378000Y-94722000D03*
D25*
X225298000Y-94722000D03*
D24*
X220218000Y-94722000D03*
D26*
X232498000Y-92182000D03*
D27*
X218873400Y-89654700D03*
D24*
X144073000Y-90457800D03*
D25*
X149153000Y-90457800D03*
D24*
X154233000Y-90457800D03*
D26*
X156353000Y-87917800D03*
D27*
X142728400Y-85390500D03*
D24*
X163068000Y-66030000D03*
D25*
X168148000Y-66030000D03*
D24*
X173228000Y-66030000D03*
D26*
X175348000Y-63490000D03*
D27*
X161723400Y-60962700D03*
D24*
X211353000Y-112160000D03*
X201193000Y-112160000D03*
D25*
X206273000Y-112160000D03*
D26*
X213473000Y-109620000D03*
D27*
X199848400Y-107092700D03*
D24*
X173228000Y-85070000D03*
D25*
X168148000Y-85070000D03*
D24*
X163068000Y-85070000D03*
D26*
X175348000Y-82530000D03*
D27*
X161723400Y-80002700D03*
D24*
X154233000Y-71737800D03*
D25*
X149153000Y-71737800D03*
D24*
X144073000Y-71737800D03*
D26*
X156353000Y-69197800D03*
D27*
X142728400Y-66670500D03*
D24*
X182153000Y-69037800D03*
D25*
X187233000Y-69037800D03*
D24*
X192313000Y-69037800D03*
D26*
X194433000Y-66497800D03*
D27*
X180808400Y-63970500D03*
D24*
X182153000Y-49997800D03*
X192313000Y-49997800D03*
D25*
X187233000Y-49997800D03*
D26*
X194433000Y-47457800D03*
D27*
X180808400Y-44930500D03*
D24*
X125033000Y-92837800D03*
X135193000Y-92837800D03*
D25*
X130113000Y-92837800D03*
D26*
X137313000Y-90297800D03*
D27*
X123688400Y-87770500D03*
D24*
X220218000Y-56642000D03*
X230378000Y-56642000D03*
D25*
X225298000Y-56642000D03*
D26*
X232498000Y-54102000D03*
D27*
X218873400Y-51574700D03*
D24*
X173228000Y-46990000D03*
D25*
X168148000Y-46990000D03*
D24*
X163068000Y-46990000D03*
D26*
X175348000Y-44450000D03*
D27*
X161723400Y-41922700D03*
D24*
X201193000Y-93119800D03*
X211353000Y-93119800D03*
D25*
X206273000Y-93119800D03*
D26*
X213473000Y-90579800D03*
D27*
X199848400Y-88052500D03*
D25*
X187233000Y-88077800D03*
D24*
X182153000Y-88077800D03*
X192313000Y-88077800D03*
D26*
X194433000Y-85537800D03*
D27*
X180808400Y-83010500D03*
D24*
X176276000Y-127000000D03*
X186436000Y-127000000D03*
D25*
X181356000Y-127000000D03*
D26*
X188556000Y-124460000D03*
D27*
X174931400Y-121932700D03*
D25*
X206273000Y-74079800D03*
D24*
X211353000Y-74079800D03*
X201193000Y-74079800D03*
D26*
X213473000Y-71539800D03*
D27*
X199848400Y-69012500D03*
D24*
X220218000Y-113762200D03*
X230378000Y-113762200D03*
D25*
X225298000Y-113762200D03*
D26*
X232498000Y-111222200D03*
D27*
X218873400Y-108694900D03*
D19*
X137947400Y-58775600D03*
X137947400Y-55474600D03*
D12*
X191084200Y-57658000D03*
X192959200Y-57658000D03*
X228295200Y-83388200D03*
X230170200Y-83388200D03*
D35*
X94637600Y-47651800D03*
X92887600Y-54651800D03*
X92887600Y-47651800D03*
X94637600Y-54651800D03*
D36*
X92537600Y-57951800D03*
X94987600Y-57951800D03*
X96737600Y-49451800D03*
X90787600Y-49451800D03*
X90787600Y-52451800D03*
X96737600Y-52451800D03*
X90787600Y-56451800D03*
X96737600Y-56451800D03*
D14*
X115962600Y-125172000D03*
X115962600Y-115062000D03*
X115962600Y-117602000D03*
X115962600Y-120142000D03*
X115962600Y-122682000D03*
X117187600Y-112672000D03*
X115337600Y-112672000D03*
G36*
X116409124Y-112333326D02*
G01*
X116409315Y-112334980D01*
X116357163Y-112495485D01*
X116338611Y-112672000D01*
X116357163Y-112848515D01*
X116405636Y-112997699D01*
X116405220Y-112999655D01*
X116403318Y-113000273D01*
X116401955Y-112999231D01*
X116395139Y-112985968D01*
X116394995Y-112985605D01*
X116380683Y-112935693D01*
X116343450Y-112876941D01*
X116280634Y-112847771D01*
X116212021Y-112857192D01*
X116159263Y-112902323D01*
X116145620Y-112930615D01*
X116143310Y-112937561D01*
X116141814Y-112938889D01*
X116139916Y-112938258D01*
X116139510Y-112936312D01*
X116168037Y-112848515D01*
X116186589Y-112672000D01*
X116168037Y-112495485D01*
X116117726Y-112340644D01*
X116118142Y-112338688D01*
X116120044Y-112338070D01*
X116121394Y-112339087D01*
X116125601Y-112347000D01*
X116125750Y-112347361D01*
X116144840Y-112410592D01*
X116182889Y-112468818D01*
X116246107Y-112497110D01*
X116314583Y-112486732D01*
X116366702Y-112440870D01*
X116379953Y-112412384D01*
X116404062Y-112336385D01*
X116404215Y-112336026D01*
X116405660Y-112333398D01*
X116407371Y-112332362D01*
X116409124Y-112333326D01*
G37*
G36*
X98742524Y-112307926D02*
G01*
X98742715Y-112309580D01*
X98690563Y-112470085D01*
X98672011Y-112646600D01*
X98690563Y-112823115D01*
X98739036Y-112972299D01*
X98738620Y-112974255D01*
X98736718Y-112974873D01*
X98735355Y-112973831D01*
X98728539Y-112960568D01*
X98728395Y-112960205D01*
X98714083Y-112910293D01*
X98676850Y-112851541D01*
X98614034Y-112822371D01*
X98545421Y-112831792D01*
X98492663Y-112876923D01*
X98479020Y-112905215D01*
X98476710Y-112912161D01*
X98475214Y-112913489D01*
X98473316Y-112912858D01*
X98472910Y-112910912D01*
X98501437Y-112823115D01*
X98519989Y-112646600D01*
X98501437Y-112470085D01*
X98451126Y-112315244D01*
X98451542Y-112313288D01*
X98453444Y-112312670D01*
X98454794Y-112313687D01*
X98459001Y-112321600D01*
X98459150Y-112321961D01*
X98478240Y-112385192D01*
X98516289Y-112443418D01*
X98579507Y-112471710D01*
X98647983Y-112461332D01*
X98700102Y-112415470D01*
X98713353Y-112386984D01*
X98737462Y-112310985D01*
X98737615Y-112310626D01*
X98739060Y-112307998D01*
X98740771Y-112306962D01*
X98742524Y-112307926D01*
G37*
G36*
X113872868Y-99271865D02*
G01*
X113873258Y-99273827D01*
X113872899Y-99274467D01*
X113829711Y-99326146D01*
X113821080Y-99394861D01*
X113851044Y-99457491D01*
X113871882Y-99475548D01*
X113872536Y-99477438D01*
X113871226Y-99478949D01*
X113870182Y-99479021D01*
X113856001Y-99476200D01*
X112356399Y-99476200D01*
X112341426Y-99479178D01*
X112339532Y-99478535D01*
X112339142Y-99476573D01*
X112339501Y-99475933D01*
X112382689Y-99424254D01*
X112391320Y-99355539D01*
X112361356Y-99292909D01*
X112340518Y-99274852D01*
X112339864Y-99272962D01*
X112341174Y-99271451D01*
X112342218Y-99271379D01*
X112356399Y-99274200D01*
X113856001Y-99274200D01*
X113870974Y-99271222D01*
X113872868Y-99271865D01*
G37*
G36*
X106303668Y-99271865D02*
G01*
X106304058Y-99273827D01*
X106303699Y-99274467D01*
X106260511Y-99326146D01*
X106251880Y-99394861D01*
X106281844Y-99457491D01*
X106302682Y-99475548D01*
X106303336Y-99477438D01*
X106302026Y-99478949D01*
X106300982Y-99479021D01*
X106286801Y-99476200D01*
X104787199Y-99476200D01*
X104772226Y-99479178D01*
X104770332Y-99478535D01*
X104769942Y-99476573D01*
X104770301Y-99475933D01*
X104813489Y-99424254D01*
X104822120Y-99355539D01*
X104792156Y-99292909D01*
X104771318Y-99274852D01*
X104770664Y-99272962D01*
X104771974Y-99271451D01*
X104773018Y-99271379D01*
X104787199Y-99274200D01*
X106286801Y-99274200D01*
X106301774Y-99271222D01*
X106303668Y-99271865D01*
G37*
G36*
X111383668Y-99271865D02*
G01*
X111384058Y-99273827D01*
X111383699Y-99274467D01*
X111340511Y-99326146D01*
X111331880Y-99394861D01*
X111361844Y-99457491D01*
X111382682Y-99475548D01*
X111383336Y-99477438D01*
X111382026Y-99478949D01*
X111380982Y-99479021D01*
X111366801Y-99476200D01*
X109867199Y-99476200D01*
X109852226Y-99479178D01*
X109850332Y-99478535D01*
X109849942Y-99476573D01*
X109850301Y-99475933D01*
X109893489Y-99424254D01*
X109902120Y-99355539D01*
X109872156Y-99292909D01*
X109851318Y-99274852D01*
X109850664Y-99272962D01*
X109851974Y-99271451D01*
X109853018Y-99271379D01*
X109867199Y-99274200D01*
X111366801Y-99274200D01*
X111381774Y-99271222D01*
X111383668Y-99271865D01*
G37*
G36*
X108843668Y-99271865D02*
G01*
X108844058Y-99273827D01*
X108843699Y-99274467D01*
X108800511Y-99326146D01*
X108791880Y-99394861D01*
X108821844Y-99457491D01*
X108842682Y-99475548D01*
X108843336Y-99477438D01*
X108842026Y-99478949D01*
X108840982Y-99479021D01*
X108826801Y-99476200D01*
X107327199Y-99476200D01*
X107312226Y-99479178D01*
X107310332Y-99478535D01*
X107309942Y-99476573D01*
X107310301Y-99475933D01*
X107353489Y-99424254D01*
X107362120Y-99355539D01*
X107332156Y-99292909D01*
X107311318Y-99274852D01*
X107310664Y-99272962D01*
X107311974Y-99271451D01*
X107313018Y-99271379D01*
X107327199Y-99274200D01*
X108826801Y-99274200D01*
X108841774Y-99271222D01*
X108843668Y-99271865D01*
G37*
G36*
X101585569Y-95183727D02*
G01*
X101624194Y-95240215D01*
X101687988Y-95267174D01*
X101756234Y-95255364D01*
X101807391Y-95208413D01*
X101815044Y-95191655D01*
X101816673Y-95190495D01*
X101818492Y-95191326D01*
X101818742Y-95193170D01*
X101802752Y-95237101D01*
X101780091Y-95416478D01*
X101797734Y-95596411D01*
X101822508Y-95670886D01*
X101822106Y-95672845D01*
X101820208Y-95673476D01*
X101818959Y-95672646D01*
X101779806Y-95615385D01*
X101716012Y-95588426D01*
X101647766Y-95600236D01*
X101596609Y-95647187D01*
X101593333Y-95654361D01*
X101591704Y-95655521D01*
X101589885Y-95654690D01*
X101589644Y-95652820D01*
X101598508Y-95629485D01*
X101623685Y-95450345D01*
X101623998Y-95427900D01*
X101603833Y-95248126D01*
X101582029Y-95185514D01*
X101582404Y-95183549D01*
X101584293Y-95182891D01*
X101585569Y-95183727D01*
G37*
G36*
X116825569Y-95183727D02*
G01*
X116864194Y-95240215D01*
X116927988Y-95267174D01*
X116996234Y-95255364D01*
X117047391Y-95208413D01*
X117055044Y-95191655D01*
X117056673Y-95190495D01*
X117058492Y-95191326D01*
X117058742Y-95193170D01*
X117042752Y-95237101D01*
X117020091Y-95416478D01*
X117037734Y-95596411D01*
X117062508Y-95670886D01*
X117062106Y-95672845D01*
X117060208Y-95673476D01*
X117058959Y-95672646D01*
X117019806Y-95615385D01*
X116956012Y-95588426D01*
X116887766Y-95600236D01*
X116836609Y-95647187D01*
X116833333Y-95654361D01*
X116831704Y-95655521D01*
X116829885Y-95654690D01*
X116829644Y-95652820D01*
X116838508Y-95629485D01*
X116863685Y-95450345D01*
X116863998Y-95427900D01*
X116843833Y-95248126D01*
X116822029Y-95185514D01*
X116822404Y-95183549D01*
X116824293Y-95182891D01*
X116825569Y-95183727D01*
G37*
G36*
X98505868Y-94750665D02*
G01*
X98506258Y-94752627D01*
X98505899Y-94753267D01*
X98462711Y-94804946D01*
X98454080Y-94873661D01*
X98484044Y-94936291D01*
X98504882Y-94954348D01*
X98505536Y-94956238D01*
X98504226Y-94957749D01*
X98503182Y-94957821D01*
X98489001Y-94955000D01*
X96989399Y-94955000D01*
X96974426Y-94957978D01*
X96972532Y-94957335D01*
X96972142Y-94955373D01*
X96972501Y-94954733D01*
X97015689Y-94903054D01*
X97024320Y-94834339D01*
X96994356Y-94771709D01*
X96973518Y-94753652D01*
X96972864Y-94751762D01*
X96974174Y-94750251D01*
X96975218Y-94750179D01*
X96989399Y-94753000D01*
X98489001Y-94753000D01*
X98503974Y-94750022D01*
X98505868Y-94750665D01*
G37*
G36*
X98505868Y-93450665D02*
G01*
X98506258Y-93452627D01*
X98505899Y-93453267D01*
X98462711Y-93504946D01*
X98454080Y-93573661D01*
X98484044Y-93636291D01*
X98504882Y-93654348D01*
X98505536Y-93656238D01*
X98504226Y-93657749D01*
X98503182Y-93657821D01*
X98489001Y-93655000D01*
X96989399Y-93655000D01*
X96974426Y-93657978D01*
X96972532Y-93657335D01*
X96972142Y-93655373D01*
X96972501Y-93654733D01*
X97015689Y-93603054D01*
X97024320Y-93534339D01*
X96994356Y-93471709D01*
X96973518Y-93453652D01*
X96972864Y-93451762D01*
X96974174Y-93450251D01*
X96975218Y-93450179D01*
X96989399Y-93453000D01*
X98489001Y-93453000D01*
X98503974Y-93450022D01*
X98505868Y-93450665D01*
G37*
G36*
X101585569Y-92643727D02*
G01*
X101624194Y-92700215D01*
X101687988Y-92727174D01*
X101756234Y-92715364D01*
X101807391Y-92668413D01*
X101815044Y-92651655D01*
X101816673Y-92650495D01*
X101818492Y-92651326D01*
X101818742Y-92653170D01*
X101802752Y-92697101D01*
X101780091Y-92876478D01*
X101797734Y-93056411D01*
X101822508Y-93130886D01*
X101822106Y-93132845D01*
X101820208Y-93133476D01*
X101818959Y-93132646D01*
X101779806Y-93075385D01*
X101716012Y-93048426D01*
X101647766Y-93060236D01*
X101596609Y-93107187D01*
X101593333Y-93114361D01*
X101591704Y-93115521D01*
X101589885Y-93114690D01*
X101589644Y-93112820D01*
X101598508Y-93089485D01*
X101623685Y-92910345D01*
X101623998Y-92887900D01*
X101603833Y-92708126D01*
X101582029Y-92645514D01*
X101582404Y-92643549D01*
X101584293Y-92642891D01*
X101585569Y-92643727D01*
G37*
G36*
X116825569Y-92643727D02*
G01*
X116864194Y-92700215D01*
X116927988Y-92727174D01*
X116996234Y-92715364D01*
X117047391Y-92668413D01*
X117055044Y-92651655D01*
X117056673Y-92650495D01*
X117058492Y-92651326D01*
X117058742Y-92653170D01*
X117042752Y-92697101D01*
X117020091Y-92876478D01*
X117037734Y-93056411D01*
X117062508Y-93130886D01*
X117062106Y-93132845D01*
X117060208Y-93133476D01*
X117058959Y-93132646D01*
X117019806Y-93075385D01*
X116956012Y-93048426D01*
X116887766Y-93060236D01*
X116836609Y-93107187D01*
X116833333Y-93114361D01*
X116831704Y-93115521D01*
X116829885Y-93114690D01*
X116829644Y-93112820D01*
X116838508Y-93089485D01*
X116863685Y-92910345D01*
X116863998Y-92887900D01*
X116843833Y-92708126D01*
X116822029Y-92645514D01*
X116822404Y-92643549D01*
X116824293Y-92642891D01*
X116825569Y-92643727D01*
G37*
G36*
X101585569Y-90103727D02*
G01*
X101624194Y-90160215D01*
X101687988Y-90187174D01*
X101756234Y-90175364D01*
X101807391Y-90128413D01*
X101815044Y-90111655D01*
X101816673Y-90110495D01*
X101818492Y-90111326D01*
X101818742Y-90113170D01*
X101802752Y-90157101D01*
X101780091Y-90336478D01*
X101797734Y-90516411D01*
X101822508Y-90590886D01*
X101822106Y-90592845D01*
X101820208Y-90593476D01*
X101818959Y-90592646D01*
X101779806Y-90535385D01*
X101716012Y-90508426D01*
X101647766Y-90520236D01*
X101596609Y-90567187D01*
X101593333Y-90574361D01*
X101591704Y-90575521D01*
X101589885Y-90574690D01*
X101589644Y-90572820D01*
X101598508Y-90549485D01*
X101623685Y-90370345D01*
X101623998Y-90347900D01*
X101603833Y-90168126D01*
X101582029Y-90105514D01*
X101582404Y-90103549D01*
X101584293Y-90102891D01*
X101585569Y-90103727D01*
G37*
G36*
X116825569Y-90103727D02*
G01*
X116864194Y-90160215D01*
X116927988Y-90187174D01*
X116996234Y-90175364D01*
X117047391Y-90128413D01*
X117055044Y-90111655D01*
X117056673Y-90110495D01*
X117058492Y-90111326D01*
X117058742Y-90113170D01*
X117042752Y-90157101D01*
X117020091Y-90336478D01*
X117037734Y-90516411D01*
X117062508Y-90590886D01*
X117062106Y-90592845D01*
X117060208Y-90593476D01*
X117058959Y-90592646D01*
X117019806Y-90535385D01*
X116956012Y-90508426D01*
X116887766Y-90520236D01*
X116836609Y-90567187D01*
X116833333Y-90574361D01*
X116831704Y-90575521D01*
X116829885Y-90574690D01*
X116829644Y-90572820D01*
X116838508Y-90549485D01*
X116863685Y-90370345D01*
X116863998Y-90347900D01*
X116843833Y-90168126D01*
X116822029Y-90105514D01*
X116822404Y-90103549D01*
X116824293Y-90102891D01*
X116825569Y-90103727D01*
G37*
G36*
X101585569Y-87563727D02*
G01*
X101624194Y-87620215D01*
X101687988Y-87647174D01*
X101756234Y-87635364D01*
X101807391Y-87588413D01*
X101815044Y-87571655D01*
X101816673Y-87570495D01*
X101818492Y-87571326D01*
X101818742Y-87573170D01*
X101802752Y-87617101D01*
X101780091Y-87796478D01*
X101797734Y-87976411D01*
X101822508Y-88050886D01*
X101822106Y-88052845D01*
X101820208Y-88053476D01*
X101818959Y-88052646D01*
X101779806Y-87995385D01*
X101716012Y-87968426D01*
X101647766Y-87980236D01*
X101596609Y-88027187D01*
X101593333Y-88034361D01*
X101591704Y-88035521D01*
X101589885Y-88034690D01*
X101589644Y-88032820D01*
X101598508Y-88009485D01*
X101623685Y-87830345D01*
X101623998Y-87807900D01*
X101603833Y-87628126D01*
X101582029Y-87565514D01*
X101582404Y-87563549D01*
X101584293Y-87562891D01*
X101585569Y-87563727D01*
G37*
G36*
X116825569Y-87563727D02*
G01*
X116864194Y-87620215D01*
X116927988Y-87647174D01*
X116996234Y-87635364D01*
X117047391Y-87588413D01*
X117055044Y-87571655D01*
X117056673Y-87570495D01*
X117058492Y-87571326D01*
X117058742Y-87573170D01*
X117042752Y-87617101D01*
X117020091Y-87796478D01*
X117037734Y-87976411D01*
X117062508Y-88050886D01*
X117062106Y-88052845D01*
X117060208Y-88053476D01*
X117058959Y-88052646D01*
X117019806Y-87995385D01*
X116956012Y-87968426D01*
X116887766Y-87980236D01*
X116836609Y-88027187D01*
X116833333Y-88034361D01*
X116831704Y-88035521D01*
X116829885Y-88034690D01*
X116829644Y-88032820D01*
X116838508Y-88009485D01*
X116863685Y-87830345D01*
X116863998Y-87807900D01*
X116843833Y-87628126D01*
X116822029Y-87565514D01*
X116822404Y-87563549D01*
X116824293Y-87562891D01*
X116825569Y-87563727D01*
G37*
G36*
X101585569Y-85023727D02*
G01*
X101624194Y-85080215D01*
X101687988Y-85107174D01*
X101756234Y-85095364D01*
X101807391Y-85048413D01*
X101815044Y-85031655D01*
X101816673Y-85030495D01*
X101818492Y-85031326D01*
X101818742Y-85033170D01*
X101802752Y-85077101D01*
X101780091Y-85256478D01*
X101797734Y-85436411D01*
X101822508Y-85510886D01*
X101822106Y-85512845D01*
X101820208Y-85513476D01*
X101818959Y-85512646D01*
X101779806Y-85455385D01*
X101716012Y-85428426D01*
X101647766Y-85440236D01*
X101596609Y-85487187D01*
X101593333Y-85494361D01*
X101591704Y-85495521D01*
X101589885Y-85494690D01*
X101589644Y-85492820D01*
X101598508Y-85469485D01*
X101623685Y-85290345D01*
X101623998Y-85267900D01*
X101603833Y-85088126D01*
X101582029Y-85025514D01*
X101582404Y-85023549D01*
X101584293Y-85022891D01*
X101585569Y-85023727D01*
G37*
G36*
X116825569Y-85023727D02*
G01*
X116864194Y-85080215D01*
X116927988Y-85107174D01*
X116996234Y-85095364D01*
X117047391Y-85048413D01*
X117055044Y-85031655D01*
X117056673Y-85030495D01*
X117058492Y-85031326D01*
X117058742Y-85033170D01*
X117042752Y-85077101D01*
X117020091Y-85256478D01*
X117037734Y-85436411D01*
X117062508Y-85510886D01*
X117062106Y-85512845D01*
X117060208Y-85513476D01*
X117058959Y-85512646D01*
X117019806Y-85455385D01*
X116956012Y-85428426D01*
X116887766Y-85440236D01*
X116836609Y-85487187D01*
X116833333Y-85494361D01*
X116831704Y-85495521D01*
X116829885Y-85494690D01*
X116829644Y-85492820D01*
X116838508Y-85469485D01*
X116863685Y-85290345D01*
X116863998Y-85267900D01*
X116843833Y-85088126D01*
X116822029Y-85025514D01*
X116822404Y-85023549D01*
X116824293Y-85022891D01*
X116825569Y-85023727D01*
G37*
G36*
X101585569Y-82483727D02*
G01*
X101624194Y-82540215D01*
X101687988Y-82567174D01*
X101756234Y-82555364D01*
X101807391Y-82508413D01*
X101815044Y-82491655D01*
X101816673Y-82490495D01*
X101818492Y-82491326D01*
X101818742Y-82493170D01*
X101802752Y-82537101D01*
X101780091Y-82716478D01*
X101797734Y-82896411D01*
X101822508Y-82970886D01*
X101822106Y-82972845D01*
X101820208Y-82973476D01*
X101818959Y-82972646D01*
X101779806Y-82915385D01*
X101716012Y-82888426D01*
X101647766Y-82900236D01*
X101596609Y-82947187D01*
X101593333Y-82954361D01*
X101591704Y-82955521D01*
X101589885Y-82954690D01*
X101589644Y-82952820D01*
X101598508Y-82929485D01*
X101623685Y-82750345D01*
X101623998Y-82727900D01*
X101603833Y-82548126D01*
X101582029Y-82485514D01*
X101582404Y-82483549D01*
X101584293Y-82482891D01*
X101585569Y-82483727D01*
G37*
G36*
X116825569Y-82483727D02*
G01*
X116864194Y-82540215D01*
X116927988Y-82567174D01*
X116996234Y-82555364D01*
X117047391Y-82508413D01*
X117055044Y-82491655D01*
X117056673Y-82490495D01*
X117058492Y-82491326D01*
X117058742Y-82493170D01*
X117042752Y-82537101D01*
X117020091Y-82716478D01*
X117037734Y-82896411D01*
X117062508Y-82970886D01*
X117062106Y-82972845D01*
X117060208Y-82973476D01*
X117058959Y-82972646D01*
X117019806Y-82915385D01*
X116956012Y-82888426D01*
X116887766Y-82900236D01*
X116836609Y-82947187D01*
X116833333Y-82954361D01*
X116831704Y-82955521D01*
X116829885Y-82954690D01*
X116829644Y-82952820D01*
X116838508Y-82929485D01*
X116863685Y-82750345D01*
X116863998Y-82727900D01*
X116843833Y-82548126D01*
X116822029Y-82485514D01*
X116822404Y-82483549D01*
X116824293Y-82482891D01*
X116825569Y-82483727D01*
G37*
G36*
X101585569Y-79943727D02*
G01*
X101624194Y-80000215D01*
X101687988Y-80027174D01*
X101756234Y-80015364D01*
X101807391Y-79968413D01*
X101815044Y-79951655D01*
X101816673Y-79950495D01*
X101818492Y-79951326D01*
X101818742Y-79953170D01*
X101802752Y-79997101D01*
X101780091Y-80176478D01*
X101797734Y-80356411D01*
X101822508Y-80430886D01*
X101822106Y-80432845D01*
X101820208Y-80433476D01*
X101818959Y-80432646D01*
X101779806Y-80375385D01*
X101716012Y-80348426D01*
X101647766Y-80360236D01*
X101596609Y-80407187D01*
X101593333Y-80414361D01*
X101591704Y-80415521D01*
X101589885Y-80414690D01*
X101589644Y-80412820D01*
X101598508Y-80389485D01*
X101623685Y-80210345D01*
X101623998Y-80187900D01*
X101603833Y-80008126D01*
X101582029Y-79945514D01*
X101582404Y-79943549D01*
X101584293Y-79942891D01*
X101585569Y-79943727D01*
G37*
G36*
X116825569Y-79943727D02*
G01*
X116864194Y-80000215D01*
X116927988Y-80027174D01*
X116996234Y-80015364D01*
X117047391Y-79968413D01*
X117055044Y-79951655D01*
X117056673Y-79950495D01*
X117058492Y-79951326D01*
X117058742Y-79953170D01*
X117042752Y-79997101D01*
X117020091Y-80176478D01*
X117037734Y-80356411D01*
X117062508Y-80430886D01*
X117062106Y-80432845D01*
X117060208Y-80433476D01*
X117058959Y-80432646D01*
X117019806Y-80375385D01*
X116956012Y-80348426D01*
X116887766Y-80360236D01*
X116836609Y-80407187D01*
X116833333Y-80414361D01*
X116831704Y-80415521D01*
X116829885Y-80414690D01*
X116829644Y-80412820D01*
X116838508Y-80389485D01*
X116863685Y-80210345D01*
X116863998Y-80187900D01*
X116843833Y-80008126D01*
X116822029Y-79945514D01*
X116822404Y-79943549D01*
X116824293Y-79942891D01*
X116825569Y-79943727D01*
G37*
G36*
X101585569Y-77403727D02*
G01*
X101624194Y-77460215D01*
X101687988Y-77487174D01*
X101756234Y-77475364D01*
X101807391Y-77428413D01*
X101815044Y-77411655D01*
X101816673Y-77410495D01*
X101818492Y-77411326D01*
X101818742Y-77413170D01*
X101802752Y-77457101D01*
X101780091Y-77636478D01*
X101797734Y-77816411D01*
X101822508Y-77890886D01*
X101822106Y-77892845D01*
X101820208Y-77893476D01*
X101818959Y-77892646D01*
X101779806Y-77835385D01*
X101716012Y-77808426D01*
X101647766Y-77820236D01*
X101596609Y-77867187D01*
X101593333Y-77874361D01*
X101591704Y-77875521D01*
X101589885Y-77874690D01*
X101589644Y-77872820D01*
X101598508Y-77849485D01*
X101623685Y-77670345D01*
X101623998Y-77647900D01*
X101603833Y-77468126D01*
X101582029Y-77405514D01*
X101582404Y-77403549D01*
X101584293Y-77402891D01*
X101585569Y-77403727D01*
G37*
G36*
X116825569Y-77403727D02*
G01*
X116864194Y-77460215D01*
X116927988Y-77487174D01*
X116996234Y-77475364D01*
X117047391Y-77428413D01*
X117055044Y-77411655D01*
X117056673Y-77410495D01*
X117058492Y-77411326D01*
X117058742Y-77413170D01*
X117042752Y-77457101D01*
X117020091Y-77636478D01*
X117037734Y-77816411D01*
X117062508Y-77890886D01*
X117062106Y-77892845D01*
X117060208Y-77893476D01*
X117058959Y-77892646D01*
X117019806Y-77835385D01*
X116956012Y-77808426D01*
X116887766Y-77820236D01*
X116836609Y-77867187D01*
X116833333Y-77874361D01*
X116831704Y-77875521D01*
X116829885Y-77874690D01*
X116829644Y-77872820D01*
X116838508Y-77849485D01*
X116863685Y-77670345D01*
X116863998Y-77647900D01*
X116843833Y-77468126D01*
X116822029Y-77405514D01*
X116822404Y-77403549D01*
X116824293Y-77402891D01*
X116825569Y-77403727D01*
G37*
G36*
X101585569Y-74863727D02*
G01*
X101624194Y-74920215D01*
X101687988Y-74947174D01*
X101756234Y-74935364D01*
X101807391Y-74888413D01*
X101815044Y-74871655D01*
X101816673Y-74870495D01*
X101818492Y-74871326D01*
X101818742Y-74873170D01*
X101802752Y-74917101D01*
X101780091Y-75096478D01*
X101797734Y-75276411D01*
X101822508Y-75350886D01*
X101822106Y-75352845D01*
X101820208Y-75353476D01*
X101818959Y-75352646D01*
X101779806Y-75295385D01*
X101716012Y-75268426D01*
X101647766Y-75280236D01*
X101596609Y-75327187D01*
X101593333Y-75334361D01*
X101591704Y-75335521D01*
X101589885Y-75334690D01*
X101589644Y-75332820D01*
X101598508Y-75309485D01*
X101623685Y-75130345D01*
X101623998Y-75107900D01*
X101603833Y-74928126D01*
X101582029Y-74865514D01*
X101582404Y-74863549D01*
X101584293Y-74862891D01*
X101585569Y-74863727D01*
G37*
G36*
X116825569Y-74863727D02*
G01*
X116864194Y-74920215D01*
X116927988Y-74947174D01*
X116996234Y-74935364D01*
X117047391Y-74888413D01*
X117055044Y-74871655D01*
X117056673Y-74870495D01*
X117058492Y-74871326D01*
X117058742Y-74873170D01*
X117042752Y-74917101D01*
X117020091Y-75096478D01*
X117037734Y-75276411D01*
X117062508Y-75350886D01*
X117062106Y-75352845D01*
X117060208Y-75353476D01*
X117058959Y-75352646D01*
X117019806Y-75295385D01*
X116956012Y-75268426D01*
X116887766Y-75280236D01*
X116836609Y-75327187D01*
X116833333Y-75334361D01*
X116831704Y-75335521D01*
X116829885Y-75334690D01*
X116829644Y-75332820D01*
X116838508Y-75309485D01*
X116863685Y-75130345D01*
X116863998Y-75107900D01*
X116843833Y-74928126D01*
X116822029Y-74865514D01*
X116822404Y-74863549D01*
X116824293Y-74862891D01*
X116825569Y-74863727D01*
G37*
G36*
X101585569Y-72323727D02*
G01*
X101624194Y-72380215D01*
X101687988Y-72407174D01*
X101756234Y-72395364D01*
X101807391Y-72348413D01*
X101815044Y-72331655D01*
X101816673Y-72330495D01*
X101818492Y-72331326D01*
X101818742Y-72333170D01*
X101802752Y-72377101D01*
X101780091Y-72556478D01*
X101797734Y-72736411D01*
X101822508Y-72810886D01*
X101822106Y-72812845D01*
X101820208Y-72813476D01*
X101818959Y-72812646D01*
X101779806Y-72755385D01*
X101716012Y-72728426D01*
X101647766Y-72740236D01*
X101596609Y-72787187D01*
X101593333Y-72794361D01*
X101591704Y-72795521D01*
X101589885Y-72794690D01*
X101589644Y-72792820D01*
X101598508Y-72769485D01*
X101623685Y-72590345D01*
X101623998Y-72567900D01*
X101603833Y-72388126D01*
X101582029Y-72325514D01*
X101582404Y-72323549D01*
X101584293Y-72322891D01*
X101585569Y-72323727D01*
G37*
G36*
X116825569Y-72323727D02*
G01*
X116864194Y-72380215D01*
X116927988Y-72407174D01*
X116996234Y-72395364D01*
X117047391Y-72348413D01*
X117055044Y-72331655D01*
X117056673Y-72330495D01*
X117058492Y-72331326D01*
X117058742Y-72333170D01*
X117042752Y-72377101D01*
X117020091Y-72556478D01*
X117037734Y-72736411D01*
X117062508Y-72810886D01*
X117062106Y-72812845D01*
X117060208Y-72813476D01*
X117058959Y-72812646D01*
X117019806Y-72755385D01*
X116956012Y-72728426D01*
X116887766Y-72740236D01*
X116836609Y-72787187D01*
X116833333Y-72794361D01*
X116831704Y-72795521D01*
X116829885Y-72794690D01*
X116829644Y-72792820D01*
X116838508Y-72769485D01*
X116863685Y-72590345D01*
X116863998Y-72567900D01*
X116843833Y-72388126D01*
X116822029Y-72325514D01*
X116822404Y-72323549D01*
X116824293Y-72322891D01*
X116825569Y-72323727D01*
G37*
G36*
X101585569Y-69783727D02*
G01*
X101624194Y-69840215D01*
X101687988Y-69867174D01*
X101756234Y-69855364D01*
X101807391Y-69808413D01*
X101815044Y-69791655D01*
X101816673Y-69790495D01*
X101818492Y-69791326D01*
X101818742Y-69793170D01*
X101802752Y-69837101D01*
X101780091Y-70016478D01*
X101797734Y-70196411D01*
X101822508Y-70270886D01*
X101822106Y-70272845D01*
X101820208Y-70273476D01*
X101818959Y-70272646D01*
X101779806Y-70215385D01*
X101716012Y-70188426D01*
X101647766Y-70200236D01*
X101596609Y-70247187D01*
X101593333Y-70254361D01*
X101591704Y-70255521D01*
X101589885Y-70254690D01*
X101589644Y-70252820D01*
X101598508Y-70229485D01*
X101623685Y-70050345D01*
X101623998Y-70027900D01*
X101603833Y-69848126D01*
X101582029Y-69785514D01*
X101582404Y-69783549D01*
X101584293Y-69782891D01*
X101585569Y-69783727D01*
G37*
G36*
X116825569Y-69783727D02*
G01*
X116864194Y-69840215D01*
X116927988Y-69867174D01*
X116996234Y-69855364D01*
X117047391Y-69808413D01*
X117055044Y-69791655D01*
X117056673Y-69790495D01*
X117058492Y-69791326D01*
X117058742Y-69793170D01*
X117042752Y-69837101D01*
X117020091Y-70016478D01*
X117037734Y-70196411D01*
X117062508Y-70270886D01*
X117062106Y-70272845D01*
X117060208Y-70273476D01*
X117058959Y-70272646D01*
X117019806Y-70215385D01*
X116956012Y-70188426D01*
X116887766Y-70200236D01*
X116836609Y-70247187D01*
X116833333Y-70254361D01*
X116831704Y-70255521D01*
X116829885Y-70254690D01*
X116829644Y-70252820D01*
X116838508Y-70229485D01*
X116863685Y-70050345D01*
X116863998Y-70027900D01*
X116843833Y-69848126D01*
X116822029Y-69785514D01*
X116822404Y-69783549D01*
X116824293Y-69782891D01*
X116825569Y-69783727D01*
G37*
G36*
X101585569Y-67243727D02*
G01*
X101624194Y-67300215D01*
X101687988Y-67327174D01*
X101756234Y-67315364D01*
X101807391Y-67268413D01*
X101815044Y-67251655D01*
X101816673Y-67250495D01*
X101818492Y-67251326D01*
X101818742Y-67253170D01*
X101802752Y-67297101D01*
X101780091Y-67476478D01*
X101797734Y-67656411D01*
X101822508Y-67730886D01*
X101822106Y-67732845D01*
X101820208Y-67733476D01*
X101818959Y-67732646D01*
X101779806Y-67675385D01*
X101716012Y-67648426D01*
X101647766Y-67660236D01*
X101596609Y-67707187D01*
X101593333Y-67714361D01*
X101591704Y-67715521D01*
X101589885Y-67714690D01*
X101589644Y-67712820D01*
X101598508Y-67689485D01*
X101623685Y-67510345D01*
X101623998Y-67487900D01*
X101603833Y-67308126D01*
X101582029Y-67245514D01*
X101582404Y-67243549D01*
X101584293Y-67242891D01*
X101585569Y-67243727D01*
G37*
G36*
X116825569Y-67243727D02*
G01*
X116864194Y-67300215D01*
X116927988Y-67327174D01*
X116996234Y-67315364D01*
X117047391Y-67268413D01*
X117055044Y-67251655D01*
X117056673Y-67250495D01*
X117058492Y-67251326D01*
X117058742Y-67253170D01*
X117042752Y-67297101D01*
X117020091Y-67476478D01*
X117037734Y-67656411D01*
X117062508Y-67730886D01*
X117062106Y-67732845D01*
X117060208Y-67733476D01*
X117058959Y-67732646D01*
X117019806Y-67675385D01*
X116956012Y-67648426D01*
X116887766Y-67660236D01*
X116836609Y-67707187D01*
X116833333Y-67714361D01*
X116831704Y-67715521D01*
X116829885Y-67714690D01*
X116829644Y-67712820D01*
X116838508Y-67689485D01*
X116863685Y-67510345D01*
X116863998Y-67487900D01*
X116843833Y-67308126D01*
X116822029Y-67245514D01*
X116822404Y-67243549D01*
X116824293Y-67242891D01*
X116825569Y-67243727D01*
G37*
G36*
X101585569Y-64703727D02*
G01*
X101624194Y-64760215D01*
X101687988Y-64787174D01*
X101756234Y-64775364D01*
X101807391Y-64728413D01*
X101815044Y-64711655D01*
X101816673Y-64710495D01*
X101818492Y-64711326D01*
X101818742Y-64713170D01*
X101802752Y-64757101D01*
X101780091Y-64936478D01*
X101797734Y-65116411D01*
X101822508Y-65190886D01*
X101822106Y-65192845D01*
X101820208Y-65193476D01*
X101818959Y-65192646D01*
X101779806Y-65135385D01*
X101716012Y-65108426D01*
X101647766Y-65120236D01*
X101596609Y-65167187D01*
X101593333Y-65174361D01*
X101591704Y-65175521D01*
X101589885Y-65174690D01*
X101589644Y-65172820D01*
X101598508Y-65149485D01*
X101623685Y-64970345D01*
X101623998Y-64947900D01*
X101603833Y-64768126D01*
X101582029Y-64705514D01*
X101582404Y-64703549D01*
X101584293Y-64702891D01*
X101585569Y-64703727D01*
G37*
G36*
X116825569Y-64703727D02*
G01*
X116864194Y-64760215D01*
X116927988Y-64787174D01*
X116996234Y-64775364D01*
X117047391Y-64728413D01*
X117055044Y-64711655D01*
X117056673Y-64710495D01*
X117058492Y-64711326D01*
X117058742Y-64713170D01*
X117042752Y-64757101D01*
X117020091Y-64936478D01*
X117037734Y-65116411D01*
X117062508Y-65190886D01*
X117062106Y-65192845D01*
X117060208Y-65193476D01*
X117058959Y-65192646D01*
X117019806Y-65135385D01*
X116956012Y-65108426D01*
X116887766Y-65120236D01*
X116836609Y-65167187D01*
X116833333Y-65174361D01*
X116831704Y-65175521D01*
X116829885Y-65174690D01*
X116829644Y-65172820D01*
X116838508Y-65149485D01*
X116863685Y-64970345D01*
X116863998Y-64947900D01*
X116843833Y-64768126D01*
X116822029Y-64705514D01*
X116822404Y-64703549D01*
X116824293Y-64702891D01*
X116825569Y-64703727D01*
G37*
G36*
X101585569Y-62163727D02*
G01*
X101624194Y-62220215D01*
X101687988Y-62247174D01*
X101756234Y-62235364D01*
X101807391Y-62188413D01*
X101815044Y-62171655D01*
X101816673Y-62170495D01*
X101818492Y-62171326D01*
X101818742Y-62173170D01*
X101802752Y-62217101D01*
X101780091Y-62396478D01*
X101797734Y-62576411D01*
X101822508Y-62650886D01*
X101822106Y-62652845D01*
X101820208Y-62653476D01*
X101818959Y-62652646D01*
X101779806Y-62595385D01*
X101716012Y-62568426D01*
X101647766Y-62580236D01*
X101596609Y-62627187D01*
X101593333Y-62634361D01*
X101591704Y-62635521D01*
X101589885Y-62634690D01*
X101589644Y-62632820D01*
X101598508Y-62609485D01*
X101623685Y-62430345D01*
X101623998Y-62407900D01*
X101603833Y-62228126D01*
X101582029Y-62165514D01*
X101582404Y-62163549D01*
X101584293Y-62162891D01*
X101585569Y-62163727D01*
G37*
G36*
X116825569Y-62163727D02*
G01*
X116864194Y-62220215D01*
X116927988Y-62247174D01*
X116996234Y-62235364D01*
X117047391Y-62188413D01*
X117055044Y-62171655D01*
X117056673Y-62170495D01*
X117058492Y-62171326D01*
X117058742Y-62173170D01*
X117042752Y-62217101D01*
X117020091Y-62396478D01*
X117037734Y-62576411D01*
X117062508Y-62650886D01*
X117062106Y-62652845D01*
X117060208Y-62653476D01*
X117058959Y-62652646D01*
X117019806Y-62595385D01*
X116956012Y-62568426D01*
X116887766Y-62580236D01*
X116836609Y-62627187D01*
X116833333Y-62634361D01*
X116831704Y-62635521D01*
X116829885Y-62634690D01*
X116829644Y-62632820D01*
X116838508Y-62609485D01*
X116863685Y-62430345D01*
X116863998Y-62407900D01*
X116843833Y-62228126D01*
X116822029Y-62165514D01*
X116822404Y-62163549D01*
X116824293Y-62162891D01*
X116825569Y-62163727D01*
G37*
G36*
X101585569Y-59623727D02*
G01*
X101624194Y-59680215D01*
X101687988Y-59707174D01*
X101756234Y-59695364D01*
X101807391Y-59648413D01*
X101815044Y-59631655D01*
X101816673Y-59630495D01*
X101818492Y-59631326D01*
X101818742Y-59633170D01*
X101802752Y-59677101D01*
X101780091Y-59856478D01*
X101797734Y-60036411D01*
X101822508Y-60110886D01*
X101822106Y-60112845D01*
X101820208Y-60113476D01*
X101818959Y-60112646D01*
X101779806Y-60055385D01*
X101716012Y-60028426D01*
X101647766Y-60040236D01*
X101596609Y-60087187D01*
X101593333Y-60094361D01*
X101591704Y-60095521D01*
X101589885Y-60094690D01*
X101589644Y-60092820D01*
X101598508Y-60069485D01*
X101623685Y-59890345D01*
X101623998Y-59867900D01*
X101603833Y-59688126D01*
X101582029Y-59625514D01*
X101582404Y-59623549D01*
X101584293Y-59622891D01*
X101585569Y-59623727D01*
G37*
G36*
X116825569Y-59623727D02*
G01*
X116864194Y-59680215D01*
X116927988Y-59707174D01*
X116996234Y-59695364D01*
X117047391Y-59648413D01*
X117055044Y-59631655D01*
X117056673Y-59630495D01*
X117058492Y-59631326D01*
X117058742Y-59633170D01*
X117042752Y-59677101D01*
X117020091Y-59856478D01*
X117037734Y-60036411D01*
X117062508Y-60110886D01*
X117062106Y-60112845D01*
X117060208Y-60113476D01*
X117058959Y-60112646D01*
X117019806Y-60055385D01*
X116956012Y-60028426D01*
X116887766Y-60040236D01*
X116836609Y-60087187D01*
X116833333Y-60094361D01*
X116831704Y-60095521D01*
X116829885Y-60094690D01*
X116829644Y-60092820D01*
X116838508Y-60069485D01*
X116863685Y-59890345D01*
X116863998Y-59867900D01*
X116843833Y-59688126D01*
X116822029Y-59625514D01*
X116822404Y-59623549D01*
X116824293Y-59622891D01*
X116825569Y-59623727D01*
G37*
G36*
X95838032Y-56824125D02*
G01*
X95838600Y-56825522D01*
X95838600Y-56851696D01*
X95858256Y-57038710D01*
X95916333Y-57217452D01*
X96010304Y-57380214D01*
X96117394Y-57499150D01*
X96117810Y-57501106D01*
X96116324Y-57502444D01*
X96114633Y-57502029D01*
X96092223Y-57483490D01*
X96028308Y-57456047D01*
X95959996Y-57467467D01*
X95908696Y-57514014D01*
X95890525Y-57578620D01*
X95889094Y-57580016D01*
X95887168Y-57579475D01*
X95886600Y-57578078D01*
X95886600Y-57551904D01*
X95866944Y-57364890D01*
X95808867Y-57186148D01*
X95714896Y-57023386D01*
X95607806Y-56904450D01*
X95607390Y-56902494D01*
X95608876Y-56901156D01*
X95610567Y-56901571D01*
X95632977Y-56920110D01*
X95696892Y-56947553D01*
X95765204Y-56936133D01*
X95816504Y-56889586D01*
X95834675Y-56824980D01*
X95836106Y-56823584D01*
X95838032Y-56824125D01*
G37*
G36*
X91690519Y-56825515D02*
G01*
X91710196Y-56892530D01*
X91762539Y-56937885D01*
X91831092Y-56947742D01*
X91894290Y-56918880D01*
X91904758Y-56908243D01*
X91904930Y-56908087D01*
X91918846Y-56896898D01*
X91920822Y-56896592D01*
X91922075Y-56898151D01*
X91921585Y-56899795D01*
X91810304Y-57023386D01*
X91716333Y-57186148D01*
X91658256Y-57364890D01*
X91638600Y-57551904D01*
X91638600Y-57577522D01*
X91637600Y-57579254D01*
X91635600Y-57579254D01*
X91634681Y-57578085D01*
X91615004Y-57511070D01*
X91562661Y-57465715D01*
X91494108Y-57455858D01*
X91430910Y-57484720D01*
X91420442Y-57495357D01*
X91420270Y-57495513D01*
X91406354Y-57506702D01*
X91404378Y-57507008D01*
X91403125Y-57505449D01*
X91403615Y-57503805D01*
X91514896Y-57380214D01*
X91608867Y-57217452D01*
X91666944Y-57038710D01*
X91686600Y-56851696D01*
X91686600Y-56826078D01*
X91687600Y-56824346D01*
X91689600Y-56824346D01*
X91690519Y-56825515D01*
G37*
G36*
X101585569Y-57083727D02*
G01*
X101624194Y-57140215D01*
X101687988Y-57167174D01*
X101756234Y-57155364D01*
X101807391Y-57108413D01*
X101815044Y-57091655D01*
X101816673Y-57090495D01*
X101818492Y-57091326D01*
X101818742Y-57093170D01*
X101802752Y-57137101D01*
X101780091Y-57316478D01*
X101797734Y-57496411D01*
X101822508Y-57570886D01*
X101822106Y-57572845D01*
X101820208Y-57573476D01*
X101818959Y-57572646D01*
X101779806Y-57515385D01*
X101716012Y-57488426D01*
X101647766Y-57500236D01*
X101596609Y-57547187D01*
X101593333Y-57554361D01*
X101591704Y-57555521D01*
X101589885Y-57554690D01*
X101589644Y-57552820D01*
X101598508Y-57529485D01*
X101623685Y-57350345D01*
X101623998Y-57327900D01*
X101603833Y-57148126D01*
X101582029Y-57085514D01*
X101582404Y-57083549D01*
X101584293Y-57082891D01*
X101585569Y-57083727D01*
G37*
G36*
X116825569Y-57083727D02*
G01*
X116864194Y-57140215D01*
X116927988Y-57167174D01*
X116996234Y-57155364D01*
X117047391Y-57108413D01*
X117055044Y-57091655D01*
X117056673Y-57090495D01*
X117058492Y-57091326D01*
X117058742Y-57093170D01*
X117042752Y-57137101D01*
X117020091Y-57316478D01*
X117037734Y-57496411D01*
X117062508Y-57570886D01*
X117062106Y-57572845D01*
X117060208Y-57573476D01*
X117058959Y-57572646D01*
X117019806Y-57515385D01*
X116956012Y-57488426D01*
X116887766Y-57500236D01*
X116836609Y-57547187D01*
X116833333Y-57554361D01*
X116831704Y-57555521D01*
X116829885Y-57554690D01*
X116829644Y-57552820D01*
X116838508Y-57529485D01*
X116863685Y-57350345D01*
X116863998Y-57327900D01*
X116843833Y-57148126D01*
X116822029Y-57085514D01*
X116822404Y-57083549D01*
X116824293Y-57082891D01*
X116825569Y-57083727D01*
G37*
G36*
X101585569Y-54543727D02*
G01*
X101624194Y-54600215D01*
X101687988Y-54627174D01*
X101756234Y-54615364D01*
X101807391Y-54568413D01*
X101815044Y-54551655D01*
X101816673Y-54550495D01*
X101818492Y-54551326D01*
X101818742Y-54553170D01*
X101802752Y-54597101D01*
X101780091Y-54776478D01*
X101797734Y-54956411D01*
X101822508Y-55030886D01*
X101822106Y-55032845D01*
X101820208Y-55033476D01*
X101818959Y-55032646D01*
X101779806Y-54975385D01*
X101716012Y-54948426D01*
X101647766Y-54960236D01*
X101596609Y-55007187D01*
X101593333Y-55014361D01*
X101591704Y-55015521D01*
X101589885Y-55014690D01*
X101589644Y-55012820D01*
X101598508Y-54989485D01*
X101623685Y-54810345D01*
X101623998Y-54787900D01*
X101603833Y-54608126D01*
X101582029Y-54545514D01*
X101582404Y-54543549D01*
X101584293Y-54542891D01*
X101585569Y-54543727D01*
G37*
G36*
X116825569Y-54543727D02*
G01*
X116864194Y-54600215D01*
X116927988Y-54627174D01*
X116996234Y-54615364D01*
X117047391Y-54568413D01*
X117055044Y-54551655D01*
X117056673Y-54550495D01*
X117058492Y-54551326D01*
X117058742Y-54553170D01*
X117042752Y-54597101D01*
X117020091Y-54776478D01*
X117037734Y-54956411D01*
X117062508Y-55030886D01*
X117062106Y-55032845D01*
X117060208Y-55033476D01*
X117058959Y-55032646D01*
X117019806Y-54975385D01*
X116956012Y-54948426D01*
X116887766Y-54960236D01*
X116836609Y-55007187D01*
X116833333Y-55014361D01*
X116831704Y-55015521D01*
X116829885Y-55014690D01*
X116829644Y-55012820D01*
X116838508Y-54989485D01*
X116863685Y-54810345D01*
X116863998Y-54787900D01*
X116843833Y-54608126D01*
X116822029Y-54545514D01*
X116822404Y-54543549D01*
X116824293Y-54542891D01*
X116825569Y-54543727D01*
G37*
G36*
X101585569Y-52003727D02*
G01*
X101624194Y-52060215D01*
X101687988Y-52087174D01*
X101756234Y-52075364D01*
X101807391Y-52028413D01*
X101815044Y-52011655D01*
X101816673Y-52010495D01*
X101818492Y-52011326D01*
X101818742Y-52013170D01*
X101802752Y-52057101D01*
X101780091Y-52236478D01*
X101797734Y-52416411D01*
X101822508Y-52490886D01*
X101822106Y-52492845D01*
X101820208Y-52493476D01*
X101818959Y-52492646D01*
X101779806Y-52435385D01*
X101716012Y-52408426D01*
X101647766Y-52420236D01*
X101596609Y-52467187D01*
X101593333Y-52474361D01*
X101591704Y-52475521D01*
X101589885Y-52474690D01*
X101589644Y-52472820D01*
X101598508Y-52449485D01*
X101623685Y-52270345D01*
X101623998Y-52247900D01*
X101603833Y-52068126D01*
X101582029Y-52005514D01*
X101582404Y-52003549D01*
X101584293Y-52002891D01*
X101585569Y-52003727D01*
G37*
G36*
X116825569Y-52003727D02*
G01*
X116864194Y-52060215D01*
X116927988Y-52087174D01*
X116996234Y-52075364D01*
X117047391Y-52028413D01*
X117055044Y-52011655D01*
X117056673Y-52010495D01*
X117058492Y-52011326D01*
X117058742Y-52013170D01*
X117042752Y-52057101D01*
X117020091Y-52236478D01*
X117037734Y-52416411D01*
X117062508Y-52490886D01*
X117062106Y-52492845D01*
X117060208Y-52493476D01*
X117058959Y-52492646D01*
X117019806Y-52435385D01*
X116956012Y-52408426D01*
X116887766Y-52420236D01*
X116836609Y-52467187D01*
X116833333Y-52474361D01*
X116831704Y-52475521D01*
X116829885Y-52474690D01*
X116829644Y-52472820D01*
X116838508Y-52449485D01*
X116863685Y-52270345D01*
X116863998Y-52247900D01*
X116843833Y-52068126D01*
X116822029Y-52005514D01*
X116822404Y-52003549D01*
X116824293Y-52002891D01*
X116825569Y-52003727D01*
G37*
G36*
X101585569Y-49463727D02*
G01*
X101624194Y-49520215D01*
X101687988Y-49547174D01*
X101756234Y-49535364D01*
X101807391Y-49488413D01*
X101815044Y-49471655D01*
X101816673Y-49470495D01*
X101818492Y-49471326D01*
X101818742Y-49473170D01*
X101802752Y-49517101D01*
X101780091Y-49696478D01*
X101797734Y-49876411D01*
X101822508Y-49950886D01*
X101822106Y-49952845D01*
X101820208Y-49953476D01*
X101818959Y-49952646D01*
X101779806Y-49895385D01*
X101716012Y-49868426D01*
X101647766Y-49880236D01*
X101596609Y-49927187D01*
X101593333Y-49934361D01*
X101591704Y-49935521D01*
X101589885Y-49934690D01*
X101589644Y-49932820D01*
X101598508Y-49909485D01*
X101623685Y-49730345D01*
X101623998Y-49707900D01*
X101603833Y-49528126D01*
X101582029Y-49465514D01*
X101582404Y-49463549D01*
X101584293Y-49462891D01*
X101585569Y-49463727D01*
G37*
G36*
X116825569Y-49463727D02*
G01*
X116864194Y-49520215D01*
X116927988Y-49547174D01*
X116996234Y-49535364D01*
X117047391Y-49488413D01*
X117055044Y-49471655D01*
X117056673Y-49470495D01*
X117058492Y-49471326D01*
X117058742Y-49473170D01*
X117042752Y-49517101D01*
X117020091Y-49696478D01*
X117037734Y-49876411D01*
X117062508Y-49950886D01*
X117062106Y-49952845D01*
X117060208Y-49953476D01*
X117058959Y-49952646D01*
X117019806Y-49895385D01*
X116956012Y-49868426D01*
X116887766Y-49880236D01*
X116836609Y-49927187D01*
X116833333Y-49934361D01*
X116831704Y-49935521D01*
X116829885Y-49934690D01*
X116829644Y-49932820D01*
X116838508Y-49909485D01*
X116863685Y-49730345D01*
X116863998Y-49707900D01*
X116843833Y-49528126D01*
X116822029Y-49465514D01*
X116822404Y-49463549D01*
X116824293Y-49462891D01*
X116825569Y-49463727D01*
G37*
G36*
X101585569Y-46923727D02*
G01*
X101624194Y-46980215D01*
X101687988Y-47007174D01*
X101756234Y-46995364D01*
X101807391Y-46948413D01*
X101815044Y-46931655D01*
X101816673Y-46930495D01*
X101818492Y-46931326D01*
X101818742Y-46933170D01*
X101802752Y-46977101D01*
X101780091Y-47156478D01*
X101797734Y-47336411D01*
X101822508Y-47410886D01*
X101822106Y-47412845D01*
X101820208Y-47413476D01*
X101818959Y-47412646D01*
X101779806Y-47355385D01*
X101716012Y-47328426D01*
X101647766Y-47340236D01*
X101596609Y-47387187D01*
X101593333Y-47394361D01*
X101591704Y-47395521D01*
X101589885Y-47394690D01*
X101589644Y-47392820D01*
X101598508Y-47369485D01*
X101623685Y-47190345D01*
X101623998Y-47167900D01*
X101603833Y-46988126D01*
X101582029Y-46925514D01*
X101582404Y-46923549D01*
X101584293Y-46922891D01*
X101585569Y-46923727D01*
G37*
G36*
X116825569Y-46923727D02*
G01*
X116864194Y-46980215D01*
X116927988Y-47007174D01*
X116996234Y-46995364D01*
X117047391Y-46948413D01*
X117055044Y-46931655D01*
X117056673Y-46930495D01*
X117058492Y-46931326D01*
X117058742Y-46933170D01*
X117042752Y-46977101D01*
X117020091Y-47156478D01*
X117037734Y-47336411D01*
X117062508Y-47410886D01*
X117062106Y-47412845D01*
X117060208Y-47413476D01*
X117058959Y-47412646D01*
X117019806Y-47355385D01*
X116956012Y-47328426D01*
X116887766Y-47340236D01*
X116836609Y-47387187D01*
X116833333Y-47394361D01*
X116831704Y-47395521D01*
X116829885Y-47394690D01*
X116829644Y-47392820D01*
X116838508Y-47369485D01*
X116863685Y-47190345D01*
X116863998Y-47167900D01*
X116843833Y-46988126D01*
X116822029Y-46925514D01*
X116822404Y-46923549D01*
X116824293Y-46922891D01*
X116825569Y-46923727D01*
G37*
M02*
