M48
; DRILL file {KiCad 6.0.0-rc1-unknown-b6ea9afb4f~144~ubuntu20.04.1} date Tue 30 Nov 2021 19:06:24 GMT
; FORMAT={-:-/ absolute / inch / decimal}
; #@! TF.CreationDate,2021-11-30T19:06:24+00:00
; #@! TF.GenerationSoftware,Kicad,Pcbnew,6.0.0-rc1-unknown-b6ea9afb4f~144~ubuntu20.04.1
; #@! TF.FileFunction,Plated,1,2,PTH
FMAT,2
INCH
; #@! TA.AperFunction,Plated,PTH,ComponentDrill
T1C0.0118
; #@! TA.AperFunction,Plated,PTH,ViaDrill
T2C0.0157
; #@! TA.AperFunction,Plated,PTH,ComponentDrill
T3C0.0157
; #@! TA.AperFunction,Plated,PTH,ComponentDrill
T4C0.0300
; #@! TA.AperFunction,Plated,PTH,ComponentDrill
T5C0.0320
; #@! TA.AperFunction,Plated,PTH,ComponentDrill
T6C0.0354
; #@! TA.AperFunction,Plated,PTH,ComponentDrill
T7C0.0394
; #@! TA.AperFunction,Plated,PTH,ComponentDrill
T8C0.0591
%
G90
G05
T1
X3.7777Y-5.6678
X3.829Y-5.67
X3.8527Y-5.6245
X3.9588Y-5.9815
X3.9826Y-5.936
X4.0339Y-5.9382
X4.1042Y-6.0375
X4.1492Y-5.9769
X4.1827Y-4.246
X4.252Y-4.216
X4.8139Y-5.5578
X4.8289Y-5.6431
X4.8485Y-5.5956
X4.9409Y-3.8117
X4.9409Y-3.8983
X4.9419Y-2.3127
X4.9419Y-2.3993
X4.9419Y-3.0627
X4.9419Y-3.1493
X4.9419Y-4.5617
X4.9419Y-4.6483
X4.9685Y-3.855
X4.9695Y-2.356
X4.9695Y-3.106
X4.9695Y-4.605
X5.1509Y-5.5423
X5.1706Y-5.4949
X5.1856Y-5.5802
X5.265Y-3.942
X5.2701Y-4.724
X5.2723Y-5.3909
X5.275Y-3.972
X5.2755Y-3.855
X5.2765Y-2.356
X5.2765Y-3.106
X5.2765Y-4.605
X5.2801Y-4.694
X5.285Y-3.233
X5.2861Y-2.444
X5.295Y-3.203
X5.2961Y-2.474
X5.3031Y-3.8117
X5.3031Y-3.8983
X5.3041Y-2.3127
X5.3041Y-2.3993
X5.3041Y-3.0627
X5.3041Y-3.1493
X5.3041Y-4.5617
X5.3041Y-4.6483
X5.3138Y-5.4539
X5.4148Y-2.9647
X5.4148Y-4.4787
X5.416Y-2.2147
X5.416Y-3.7127
X5.4448Y-3.034
X5.4448Y-4.548
X5.446Y-2.284
X5.446Y-3.782
X5.6899Y-2.9797
X5.6899Y-3.0663
X5.6909Y-2.2247
X5.6909Y-2.3113
X5.6909Y-4.4667
X5.6909Y-4.5533
X5.6919Y-3.7187
X5.6919Y-3.8053
X5.7175Y-3.023
X5.7185Y-2.268
X5.7185Y-4.51
X5.7195Y-3.762
X5.9689Y-5.3277
X5.9689Y-5.4143
X5.9965Y-5.371
X6.023Y-3.143
X6.0245Y-3.023
X6.0255Y-2.268
X6.0255Y-4.51
X6.0265Y-3.762
X6.033Y-3.113
X6.0331Y-4.601
X6.034Y-3.855
X6.0431Y-4.631
X6.044Y-3.885
X6.0521Y-2.9797
X6.0521Y-3.0663
X6.0531Y-2.2247
X6.0531Y-2.3113
X6.0531Y-4.4667
X6.0531Y-4.5533
X6.0541Y-3.7187
X6.0541Y-3.8053
X6.159Y-2.8867
X6.162Y-2.1387
X6.165Y-4.3657
X6.169Y-3.6207
X6.189Y-2.956
X6.192Y-2.208
X6.195Y-4.435
X6.199Y-3.69
X6.3035Y-5.371
X6.3311Y-5.3277
X6.3311Y-5.4143
X6.4389Y-3.5057
X6.4389Y-3.5923
X6.4389Y-4.2567
X6.4389Y-4.3433
X6.4399Y-2.0067
X6.4399Y-2.0933
X6.4429Y-2.7567
X6.4429Y-2.8433
X6.447Y-5.2347
X6.4665Y-3.549
X6.4665Y-4.3
X6.4675Y-2.05
X6.4705Y-2.8
X6.477Y-5.304
X6.7735Y-3.549
X6.7735Y-4.3
X6.7745Y-2.05
X6.7751Y-3.666
X6.7769Y-4.403
X6.7775Y-2.8
X6.7851Y-3.636
X6.7869Y-4.433
X6.8011Y-3.5057
X6.8011Y-3.5923
X6.8011Y-4.2567
X6.8011Y-4.3433
X6.8021Y-2.0067
X6.8021Y-2.0933
X6.8051Y-2.7567
X6.8051Y-2.8433
X6.91Y-3.4077
X6.919Y-1.9337
X6.92Y-4.1767
X6.931Y-2.6607
X6.94Y-3.477
X6.949Y-2.003
X6.95Y-4.246
X6.9589Y-5.1567
X6.9589Y-5.2433
X6.961Y-2.73
X6.9865Y-5.2
X7.1899Y-2.1247
X7.1899Y-2.2113
X7.1899Y-2.8737
X7.1899Y-2.9603
X7.1909Y-3.6247
X7.1909Y-3.7113
X7.1909Y-4.3737
X7.1909Y-4.4603
X7.2175Y-2.168
X7.2175Y-2.917
X7.2185Y-3.668
X7.2185Y-4.417
X7.2935Y-5.2
X7.3211Y-5.1567
X7.3211Y-5.2433
X7.337Y-5.298
X7.347Y-5.328
X7.428Y-5.0667
X7.458Y-5.136
X7.5245Y-2.168
X7.5245Y-2.917
X7.5255Y-3.668
X7.5255Y-4.417
X7.5451Y-4.539
X7.5521Y-2.1247
X7.5521Y-2.2113
X7.5521Y-2.8737
X7.5521Y-2.9603
X7.5531Y-3.767
X7.5531Y-3.6247
X7.5531Y-3.7113
X7.5531Y-4.3737
X7.5531Y-4.4603
X7.5549Y-2.285
X7.5551Y-4.509
X7.5631Y-3.797
X7.5649Y-2.255
X7.66Y-2.0257
X7.669Y-4.2917
X7.68Y-2.8068
X7.68Y-3.5497
X7.69Y-2.095
X7.699Y-4.361
X7.71Y-2.876
X7.71Y-3.619
X7.9389Y-4.5717
X7.9389Y-4.6583
X7.9399Y-3.0727
X7.9399Y-3.1593
X7.9399Y-3.8237
X7.9399Y-3.9103
X7.9399Y-5.3867
X7.9399Y-5.4733
X7.9409Y-2.3177
X7.9409Y-2.4043
X7.9665Y-4.615
X7.9675Y-3.116
X7.9675Y-3.867
X7.9675Y-5.43
X7.9685Y-2.361
X8.2735Y-4.615
X8.2745Y-3.116
X8.2745Y-3.867
X8.2745Y-5.43
X8.2755Y-2.361
X8.289Y-2.447
X8.299Y-2.477
X8.299Y-5.527
X8.3011Y-4.5717
X8.3011Y-4.6583
X8.3021Y-3.0727
X8.3021Y-3.1593
X8.3021Y-3.8237
X8.3021Y-3.9103
X8.3021Y-5.3867
X8.3021Y-5.4733
X8.3031Y-2.3177
X8.3031Y-2.4043
X8.306Y-3.245
X8.307Y-3.964
X8.307Y-4.747
X8.309Y-5.557
X8.316Y-3.215
X8.317Y-3.994
X8.317Y-4.717
X8.39Y-2.2277
X8.401Y-4.5007
X8.409Y-5.2887
X8.413Y-2.9967
X8.42Y-2.297
X8.42Y-3.7437
X8.431Y-4.57
X8.439Y-5.358
X8.443Y-3.066
X8.45Y-3.813
X8.6879Y-3.1357
X8.6879Y-3.2223
X8.6889Y-2.3867
X8.6889Y-2.4733
X8.6889Y-3.8857
X8.6889Y-3.9723
X8.6889Y-4.6357
X8.6889Y-4.7223
X8.7155Y-3.179
X8.7165Y-2.43
X8.7165Y-3.929
X8.7165Y-4.679
X9.019Y-2.514
X9.0199Y-3.298
X9.0225Y-3.179
X9.0235Y-2.43
X9.0235Y-3.929
X9.0235Y-4.679
X9.029Y-2.544
X9.0299Y-3.268
X9.0459Y-4.778
X9.0501Y-3.1357
X9.0501Y-3.2223
X9.0511Y-2.3867
X9.0511Y-2.4733
X9.0511Y-3.8857
X9.0511Y-3.9723
X9.0511Y-4.6357
X9.0511Y-4.7223
X9.0549Y-4.026
X9.0559Y-4.808
X9.0649Y-4.056
X9.155Y-3.0447
X9.156Y-3.7748
X9.167Y-4.5487
X9.175Y-2.2897
X9.185Y-3.114
X9.186Y-3.844
X9.197Y-4.618
X9.205Y-2.359
T2
X3.771Y-4.503
X3.7985Y-4.5785
X3.8399Y-2.387
X3.846Y-3.656
X3.848Y-3.7088
X3.848Y-3.76
X4.2695Y-3.828
X4.296Y-3.157
X4.298Y-3.887
X4.334Y-3.7855
X4.335Y-3.257
X4.44Y-3.457
X4.471Y-3.359
X4.518Y-4.107
X4.524Y-3.968
X4.574Y-4.291
X4.637Y-4.108
X4.638Y-4.297
X4.6784Y-4.501
X4.776Y-3.244
X4.81Y-3.304
X4.898Y-3.244
X4.909Y-3.304
X5.418Y-3.189
X5.502Y-3.135
X5.505Y-3.276
X5.535Y-2.223
X5.584Y-4.801
X5.744Y-2.928
X6.155Y-3.066
X6.222Y-3.132
X6.336Y-4.499
X6.441Y-4.591
X6.745Y-3.037
X6.746Y-2.937
X7.053Y-2.896
X7.079Y-3.05
X7.098Y-2.254
X7.139Y-2.896
X7.195Y-4.654
X7.595Y-5.46
X7.649Y-5.397
X7.7253Y-3.0117
X8.117Y-4.009
X8.118Y-4.094
X8.353Y-3.766
X8.353Y-3.864
X8.543Y-4.532
X8.545Y-4.616
X8.552Y-3.327
X8.754Y-4.528
X8.756Y-4.608
X8.874Y-4.164
X8.875Y-4.084
X9.119Y-2.605
T3
X3.9487Y-5.4213
X3.9762Y-5.4689
X4.07Y-5.3513
X4.1741Y-5.3316
X4.1878Y-5.423
X4.2016Y-5.3792
X4.2312Y-5.9106
X4.2587Y-5.9582
X4.3768Y-5.7503
X4.38Y-5.8882
X4.4216Y-5.7603
X4.4491Y-5.8079
X4.6303Y-5.2588
X4.6474Y-5.1543
X4.6546Y-5.3967
X4.7015Y-5.1447
X4.7088Y-5.3872
X4.738Y-5.1726
X4.8126Y-1.9858
X4.8126Y-2.1258
X4.8126Y-2.7354
X4.8126Y-2.8754
X4.8126Y-3.485
X4.8126Y-3.625
X4.8126Y-4.2346
X4.8126Y-4.3746
X4.8476Y-1.8858
X4.8476Y-2.6354
X4.8476Y-3.385
X4.8476Y-4.1346
X4.8676Y-2.1258
X4.8676Y-2.8754
X4.8676Y-3.625
X4.8676Y-4.3746
X4.9026Y-1.8858
X4.9026Y-2.6354
X4.9026Y-3.385
X4.9026Y-4.1346
X4.9336Y-1.9196
X4.9336Y-2.6692
X4.9336Y-3.4188
X4.9336Y-4.1684
X5.1102Y-5.107
X5.1349Y-5.0683
X5.189Y-5.0588
X5.211Y-5.2986
X5.2409Y-5.1512
X5.2652Y-5.2891
X5.3115Y-1.9196
X5.3115Y-2.6692
X5.3115Y-3.4188
X5.3115Y-4.1684
X5.3426Y-1.8858
X5.3426Y-2.6354
X5.3426Y-3.385
X5.3426Y-4.1346
X5.3776Y-2.1258
X5.3776Y-2.8754
X5.3776Y-3.625
X5.3776Y-4.3746
X5.3976Y-1.8858
X5.3976Y-2.6354
X5.3976Y-3.385
X5.3976Y-4.1346
X5.4326Y-1.9858
X5.4326Y-2.1258
X5.4326Y-2.7354
X5.4326Y-2.8754
X5.4326Y-3.485
X5.4326Y-3.625
X5.4326Y-4.2346
X5.4326Y-4.3746
X5.5622Y-1.8984
X5.5622Y-2.0384
X5.5622Y-2.6543
X5.5622Y-2.7943
X5.5622Y-3.3913
X5.5622Y-3.5313
X5.5622Y-4.1409
X5.5622Y-4.2809
X5.5972Y-1.7984
X5.5972Y-2.5543
X5.5972Y-3.2913
X5.5972Y-4.0409
X5.6172Y-2.0384
X5.6172Y-2.7943
X5.6172Y-3.5313
X5.6172Y-4.2809
X5.6522Y-1.7984
X5.6522Y-2.5543
X5.6522Y-3.2913
X5.6522Y-4.0409
X5.6832Y-1.8322
X5.6832Y-2.5881
X5.6832Y-3.3251
X5.6832Y-4.0747
X5.84Y-5.0
X5.84Y-5.14
X5.875Y-4.9
X5.895Y-5.14
X5.93Y-4.9
X5.961Y-4.9338
X6.0611Y-1.8322
X6.0611Y-2.5881
X6.0611Y-3.3251
X6.0611Y-4.0747
X6.0922Y-1.7984
X6.0922Y-2.5543
X6.0922Y-3.2913
X6.0922Y-4.0409
X6.1272Y-2.0384
X6.1272Y-2.7943
X6.1272Y-3.5313
X6.1272Y-4.2809
X6.1472Y-1.7984
X6.1472Y-2.5543
X6.1472Y-3.2913
X6.1472Y-4.0409
X6.1822Y-1.8984
X6.1822Y-2.0384
X6.1822Y-2.6543
X6.1822Y-2.7943
X6.1822Y-3.3913
X6.1822Y-3.5313
X6.1822Y-4.1409
X6.1822Y-4.2809
X6.31Y-1.68
X6.31Y-1.82
X6.31Y-2.4296
X6.31Y-2.5696
X6.31Y-3.1792
X6.31Y-3.3192
X6.31Y-3.9288
X6.31Y-4.0688
X6.339Y-4.9338
X6.345Y-1.58
X6.345Y-2.3296
X6.345Y-3.0792
X6.345Y-3.8288
X6.365Y-1.82
X6.365Y-2.5696
X6.365Y-3.3192
X6.365Y-4.0688
X6.37Y-4.9
X6.4Y-1.58
X6.4Y-2.3296
X6.4Y-3.0792
X6.4Y-3.8288
X6.405Y-5.14
X6.425Y-4.9
X6.431Y-1.6138
X6.431Y-2.3634
X6.431Y-3.113
X6.431Y-3.8626
X6.46Y-5.0
X6.46Y-5.14
X6.809Y-1.6138
X6.809Y-2.3634
X6.809Y-3.113
X6.809Y-3.8626
X6.83Y-4.83
X6.83Y-4.97
X6.84Y-1.58
X6.84Y-2.3296
X6.84Y-3.0792
X6.84Y-3.8288
X6.865Y-4.73
X6.875Y-1.82
X6.875Y-2.5696
X6.875Y-3.3192
X6.875Y-4.0688
X6.885Y-4.97
X6.895Y-1.58
X6.895Y-2.3296
X6.895Y-3.0792
X6.895Y-3.8288
X6.92Y-4.73
X6.93Y-1.68
X6.93Y-1.82
X6.93Y-2.4296
X6.93Y-2.5696
X6.93Y-3.1792
X6.93Y-3.3192
X6.93Y-3.9288
X6.93Y-4.0688
X6.951Y-4.7638
X7.0614Y-1.7984
X7.0614Y-1.9384
X7.0614Y-2.548
X7.0614Y-2.688
X7.0614Y-3.2976
X7.0614Y-3.4376
X7.0614Y-4.0472
X7.0614Y-4.1872
X7.0964Y-1.6984
X7.0964Y-2.448
X7.0964Y-3.1976
X7.0964Y-3.9472
X7.1164Y-1.9384
X7.1164Y-2.688
X7.1164Y-3.4376
X7.1164Y-4.1872
X7.1514Y-1.6984
X7.1514Y-2.448
X7.1514Y-3.1976
X7.1514Y-3.9472
X7.1824Y-1.7322
X7.1824Y-2.4818
X7.1824Y-3.2314
X7.1824Y-3.981
X7.329Y-4.7638
X7.36Y-4.73
X7.395Y-4.97
X7.415Y-4.73
X7.45Y-4.83
X7.45Y-4.97
X7.5604Y-1.7322
X7.5604Y-2.4818
X7.5604Y-3.2314
X7.5604Y-3.981
X7.5914Y-1.6984
X7.5914Y-2.448
X7.5914Y-3.1976
X7.5914Y-3.9472
X7.6264Y-1.9384
X7.6264Y-2.688
X7.6264Y-3.4376
X7.6264Y-4.1872
X7.6464Y-1.6984
X7.6464Y-2.448
X7.6464Y-3.1976
X7.6464Y-3.9472
X7.6814Y-1.7984
X7.6814Y-1.9384
X7.6814Y-2.548
X7.6814Y-2.688
X7.6814Y-3.2976
X7.6814Y-3.4376
X7.6814Y-4.0472
X7.6814Y-4.1872
X7.811Y-1.9969
X7.811Y-2.1369
X7.811Y-2.7465
X7.811Y-2.8865
X7.811Y-3.4961
X7.811Y-3.6361
X7.811Y-4.2457
X7.811Y-4.3857
X7.811Y-5.06
X7.811Y-5.2
X7.846Y-1.8969
X7.846Y-2.6465
X7.846Y-3.3961
X7.846Y-4.1457
X7.846Y-4.96
X7.866Y-2.1369
X7.866Y-2.8865
X7.866Y-3.6361
X7.866Y-4.3857
X7.866Y-5.2
X7.901Y-1.8969
X7.901Y-2.6465
X7.901Y-3.3961
X7.901Y-4.1457
X7.901Y-4.96
X7.932Y-1.9307
X7.932Y-2.6803
X7.932Y-3.4299
X7.932Y-4.1795
X7.932Y-4.9938
X8.31Y-1.9307
X8.31Y-2.6803
X8.31Y-3.4299
X8.31Y-4.1795
X8.31Y-4.9938
X8.341Y-1.8969
X8.341Y-2.6465
X8.341Y-3.3961
X8.341Y-4.1457
X8.341Y-4.96
X8.376Y-2.1369
X8.376Y-2.8865
X8.376Y-3.6361
X8.376Y-4.3857
X8.376Y-5.2
X8.396Y-1.8969
X8.396Y-2.6465
X8.396Y-3.3961
X8.396Y-4.1457
X8.396Y-4.96
X8.431Y-1.9969
X8.431Y-2.1369
X8.431Y-2.7465
X8.431Y-2.8865
X8.431Y-3.4961
X8.431Y-3.6361
X8.431Y-4.2457
X8.431Y-4.3857
X8.431Y-5.06
X8.431Y-5.2
X8.56Y-2.06
X8.56Y-2.2
X8.56Y-2.8096
X8.56Y-2.9496
X8.56Y-3.5592
X8.56Y-3.6992
X8.56Y-4.3088
X8.56Y-4.4488
X8.595Y-1.96
X8.595Y-2.7096
X8.595Y-3.4592
X8.595Y-4.2088
X8.615Y-2.2
X8.615Y-2.9496
X8.615Y-3.6992
X8.615Y-4.4488
X8.65Y-1.96
X8.65Y-2.7096
X8.65Y-3.4592
X8.65Y-4.2088
X8.681Y-1.9938
X8.681Y-2.7434
X8.681Y-3.493
X8.681Y-4.2426
X9.059Y-1.9938
X9.059Y-2.7434
X9.059Y-3.493
X9.059Y-4.2426
X9.09Y-1.96
X9.09Y-2.7096
X9.09Y-3.4592
X9.09Y-4.2088
X9.125Y-2.2
X9.125Y-2.9496
X9.125Y-3.6992
X9.125Y-4.4488
X9.145Y-1.96
X9.145Y-2.7096
X9.145Y-3.4592
X9.145Y-4.2088
X9.18Y-2.06
X9.18Y-2.2
X9.18Y-2.8096
X9.18Y-2.9496
X9.18Y-3.5592
X9.18Y-3.6992
X9.18Y-4.3088
X9.18Y-4.4488
T4
X3.969Y-1.857
X3.969Y-1.957
X3.969Y-2.057
X3.969Y-2.157
X3.969Y-2.257
X3.969Y-2.357
X3.969Y-2.457
X3.969Y-2.557
X3.969Y-2.657
X3.969Y-2.757
X3.969Y-2.857
X3.969Y-2.957
X3.969Y-3.057
X3.969Y-3.157
X3.969Y-3.257
X3.969Y-3.357
X3.969Y-3.457
X3.969Y-3.557
X3.969Y-3.657
X3.969Y-3.757
X4.039Y-1.857
X4.039Y-1.957
X4.039Y-2.057
X4.039Y-2.157
X4.039Y-2.257
X4.039Y-2.357
X4.039Y-2.457
X4.039Y-2.557
X4.039Y-2.657
X4.039Y-2.757
X4.039Y-2.857
X4.039Y-2.957
X4.039Y-3.057
X4.039Y-3.157
X4.039Y-3.257
X4.039Y-3.357
X4.039Y-3.457
X4.039Y-3.557
X4.039Y-3.657
X4.039Y-3.757
X4.569Y-1.857
X4.569Y-1.957
X4.569Y-2.057
X4.569Y-2.157
X4.569Y-2.257
X4.569Y-2.357
X4.569Y-2.457
X4.569Y-2.557
X4.569Y-2.657
X4.569Y-2.757
X4.569Y-2.857
X4.569Y-2.957
X4.569Y-3.057
X4.569Y-3.157
X4.569Y-3.257
X4.569Y-3.357
X4.569Y-3.457
X4.569Y-3.557
X4.569Y-3.657
X4.569Y-3.757
X4.639Y-1.857
X4.639Y-1.957
X4.639Y-2.057
X4.639Y-2.157
X4.639Y-2.257
X4.639Y-2.357
X4.639Y-2.457
X4.639Y-2.557
X4.639Y-2.657
X4.639Y-2.757
X4.639Y-2.857
X4.639Y-2.957
X4.639Y-3.057
X4.639Y-3.157
X4.639Y-3.257
X4.639Y-3.357
X4.639Y-3.457
X4.639Y-3.557
X4.639Y-3.657
X4.639Y-3.757
T5
X4.155Y-4.003
X4.255Y-4.003
X4.355Y-4.003
X4.455Y-4.003
T6
X3.8453Y-4.4349
X3.8935Y-4.529
X3.8935Y-4.629
X3.8935Y-4.729
X3.8935Y-4.829
X3.8935Y-4.927
X3.9181Y-4.4349
X4.5409Y-4.4359
X4.5655Y-4.53
X4.5655Y-4.63
X4.5655Y-4.73
X4.5655Y-4.83
X4.5655Y-4.928
X4.6137Y-4.4359
T7
X4.1331Y-4.3391
X4.1331Y-4.91
X4.2316Y-4.91
X4.33Y-4.3391
X4.33Y-4.91
T7
G00X3.5743Y-1.9568
M15
G01X3.5743Y-1.9371
M16
G05
G00X3.5743Y-2.0749
M15
G01X3.5743Y-2.0552
M16
G05
G00X3.5743Y-2.2324
M15
G01X3.5743Y-2.2127
M16
G05
G00X3.6432Y-2.2914
M15
G01X3.6432Y-2.2717
M16
G05
G00X3.7397Y-2.2914
M15
G01X3.7397Y-2.2717
M16
G05
G00X3.8086Y-1.9568
M15
G01X3.8086Y-1.9371
M16
G05
G00X3.8086Y-2.0749
M15
G01X3.8086Y-2.0552
M16
G05
G00X3.8086Y-2.2324
M15
G01X3.8086Y-2.2127
M16
G05
T8
G00X4.0111Y-4.6403
M15
G01X4.0111Y-4.5891
M16
G05
G00X4.452Y-4.6403
M15
G01X4.452Y-4.5891
M16
G05
T0
M30
