M48
; DRILL file {KiCad 6.0.0-rc1-unknown-b6ea9afb4f~144~ubuntu20.04.1} date Tue 30 Nov 2021 19:06:24 GMT
; FORMAT={-:-/ absolute / inch / decimal}
; #@! TF.CreationDate,2021-11-30T19:06:24+00:00
; #@! TF.GenerationSoftware,Kicad,Pcbnew,6.0.0-rc1-unknown-b6ea9afb4f~144~ubuntu20.04.1
; #@! TF.FileFunction,NonPlated,1,2,NPTH
FMAT,2
INCH
; #@! TA.AperFunction,NonPlated,NPTH,ComponentDrill
T1C0.0472
; #@! TA.AperFunction,NonPlated,NPTH,ComponentDrill
T2C0.0689
; #@! TA.AperFunction,NonPlated,NPTH,ComponentDrill
T3C0.1260
; #@! TA.AperFunction,NonPlated,NPTH,ComponentDrill
T4C0.1570
%
G90
G05
T1
X3.657Y-1.8761
X3.657Y-2.1516
X3.7259Y-1.8761
X3.7259Y-2.1516
T2
X3.9778Y-5.5315
X4.1778Y-5.8779
X4.7681Y-5.4072
X4.9226Y-2.1558
X4.9226Y-2.9054
X4.9226Y-3.655
X4.9226Y-4.4046
X5.162Y-5.3377
X5.3226Y-2.1558
X5.3226Y-2.9054
X5.3226Y-3.655
X5.3226Y-4.4046
X5.6722Y-2.0684
X5.6722Y-2.8243
X5.6722Y-3.5613
X5.6722Y-4.3109
X5.95Y-5.17
X6.0722Y-2.0684
X6.0722Y-2.8243
X6.0722Y-3.5613
X6.0722Y-4.3109
X6.35Y-5.17
X6.42Y-1.85
X6.42Y-2.5996
X6.42Y-3.3492
X6.42Y-4.0988
X6.82Y-1.85
X6.82Y-2.5996
X6.82Y-3.3492
X6.82Y-4.0988
X6.94Y-5.0
X7.1714Y-1.9684
X7.1714Y-2.718
X7.1714Y-3.4676
X7.1714Y-4.2172
X7.34Y-5.0
X7.5714Y-1.9684
X7.5714Y-2.718
X7.5714Y-3.4676
X7.5714Y-4.2172
X7.921Y-2.1669
X7.921Y-2.9165
X7.921Y-3.6661
X7.921Y-4.4157
X7.921Y-5.23
X8.321Y-2.1669
X8.321Y-2.9165
X8.321Y-3.6661
X8.321Y-4.4157
X8.321Y-5.23
X8.67Y-2.23
X8.67Y-2.9796
X8.67Y-3.7292
X8.67Y-4.4788
X9.07Y-2.23
X9.07Y-2.9796
X9.07Y-3.7292
X9.07Y-4.4788
T3
X3.692Y-2.583
X3.76Y-5.29
X6.06Y-1.614
X6.645Y-4.767
X8.626Y-1.735
X8.841Y-5.244
T4
X4.0778Y-5.7047
X4.9651Y-5.3724
X5.1226Y-2.1558
X5.1226Y-2.9054
X5.1226Y-3.655
X5.1226Y-4.4046
X5.8722Y-2.0684
X5.8722Y-2.8243
X5.8722Y-3.5613
X5.8722Y-4.3109
X6.15Y-5.17
X6.62Y-1.85
X6.62Y-2.5996
X6.62Y-3.3492
X6.62Y-4.0988
X7.14Y-5.0
X7.3714Y-1.9684
X7.3714Y-2.718
X7.3714Y-3.4676
X7.3714Y-4.2172
X8.121Y-2.1669
X8.121Y-2.9165
X8.121Y-3.6661
X8.121Y-4.4157
X8.121Y-5.23
X8.87Y-2.23
X8.87Y-2.9796
X8.87Y-3.7292
X8.87Y-4.4788
T0
M30
