G04 #@! TF.GenerationSoftware,KiCad,Pcbnew,5.1.5+dfsg1-2build2*
G04 #@! TF.CreationDate,2021-01-27T21:50:10+00:00*
G04 #@! TF.ProjectId,grandiceps,6772616e-6469-4636-9570-732e6b696361,rev?*
G04 #@! TF.SameCoordinates,Original*
G04 #@! TF.FileFunction,Legend,Top*
G04 #@! TF.FilePolarity,Positive*
%FSLAX46Y46*%
G04 Gerber Fmt 4.6, Leading zero omitted, Abs format (unit mm)*
G04 Created by KiCad (PCBNEW 5.1.5+dfsg1-2build2) date 2021-01-27 21:50:10*
%MOMM*%
%LPD*%
G04 APERTURE LIST*
%ADD10C,0.150000*%
%ADD11C,0.120000*%
G04 APERTURE END LIST*
D10*
X98719400Y-66443628D02*
X98862257Y-66157914D01*
X98862257Y-65729342D01*
X98719400Y-65300771D01*
X98433685Y-65015057D01*
X98147971Y-64872200D01*
X97576542Y-64729342D01*
X97147971Y-64729342D01*
X96576542Y-64872200D01*
X96290828Y-65015057D01*
X96005114Y-65300771D01*
X95862257Y-65729342D01*
X95862257Y-66015057D01*
X96005114Y-66443628D01*
X96147971Y-66586485D01*
X97147971Y-66586485D01*
X97147971Y-66015057D01*
X95862257Y-67872200D02*
X97862257Y-67872200D01*
X97290828Y-67872200D02*
X97576542Y-68015057D01*
X97719400Y-68157914D01*
X97862257Y-68443628D01*
X97862257Y-68729342D01*
X95862257Y-71015057D02*
X97433685Y-71015057D01*
X97719400Y-70872200D01*
X97862257Y-70586485D01*
X97862257Y-70015057D01*
X97719400Y-69729342D01*
X96005114Y-71015057D02*
X95862257Y-70729342D01*
X95862257Y-70015057D01*
X96005114Y-69729342D01*
X96290828Y-69586485D01*
X96576542Y-69586485D01*
X96862257Y-69729342D01*
X97005114Y-70015057D01*
X97005114Y-70729342D01*
X97147971Y-71015057D01*
X97862257Y-72443628D02*
X95862257Y-72443628D01*
X97576542Y-72443628D02*
X97719400Y-72586485D01*
X97862257Y-72872200D01*
X97862257Y-73300771D01*
X97719400Y-73586485D01*
X97433685Y-73729342D01*
X95862257Y-73729342D01*
X95862257Y-76443628D02*
X98862257Y-76443628D01*
X96005114Y-76443628D02*
X95862257Y-76157914D01*
X95862257Y-75586485D01*
X96005114Y-75300771D01*
X96147971Y-75157914D01*
X96433685Y-75015057D01*
X97290828Y-75015057D01*
X97576542Y-75157914D01*
X97719400Y-75300771D01*
X97862257Y-75586485D01*
X97862257Y-76157914D01*
X97719400Y-76443628D01*
X95862257Y-77872200D02*
X97862257Y-77872200D01*
X98862257Y-77872200D02*
X98719400Y-77729342D01*
X98576542Y-77872200D01*
X98719400Y-78015057D01*
X98862257Y-77872200D01*
X98576542Y-77872200D01*
X96005114Y-80586485D02*
X95862257Y-80300771D01*
X95862257Y-79729342D01*
X96005114Y-79443628D01*
X96147971Y-79300771D01*
X96433685Y-79157914D01*
X97290828Y-79157914D01*
X97576542Y-79300771D01*
X97719400Y-79443628D01*
X97862257Y-79729342D01*
X97862257Y-80300771D01*
X97719400Y-80586485D01*
X96005114Y-83015057D02*
X95862257Y-82729342D01*
X95862257Y-82157914D01*
X96005114Y-81872200D01*
X96290828Y-81729342D01*
X97433685Y-81729342D01*
X97719400Y-81872200D01*
X97862257Y-82157914D01*
X97862257Y-82729342D01*
X97719400Y-83015057D01*
X97433685Y-83157914D01*
X97147971Y-83157914D01*
X96862257Y-81729342D01*
X97862257Y-84443628D02*
X94862257Y-84443628D01*
X97719400Y-84443628D02*
X97862257Y-84729342D01*
X97862257Y-85300771D01*
X97719400Y-85586485D01*
X97576542Y-85729342D01*
X97290828Y-85872200D01*
X96433685Y-85872200D01*
X96147971Y-85729342D01*
X96005114Y-85586485D01*
X95862257Y-85300771D01*
X95862257Y-84729342D01*
X96005114Y-84443628D01*
X96005114Y-87015057D02*
X95862257Y-87300771D01*
X95862257Y-87872200D01*
X96005114Y-88157914D01*
X96290828Y-88300771D01*
X96433685Y-88300771D01*
X96719400Y-88157914D01*
X96862257Y-87872200D01*
X96862257Y-87443628D01*
X97005114Y-87157914D01*
X97290828Y-87015057D01*
X97433685Y-87015057D01*
X97719400Y-87157914D01*
X97862257Y-87443628D01*
X97862257Y-87872200D01*
X97719400Y-88157914D01*
X97862257Y-91586485D02*
X95862257Y-92300771D01*
X97862257Y-93015057D01*
X98862257Y-94729342D02*
X98862257Y-95015057D01*
X98719400Y-95300771D01*
X98576542Y-95443628D01*
X98290828Y-95586485D01*
X97719400Y-95729342D01*
X97005114Y-95729342D01*
X96433685Y-95586485D01*
X96147971Y-95443628D01*
X96005114Y-95300771D01*
X95862257Y-95015057D01*
X95862257Y-94729342D01*
X96005114Y-94443628D01*
X96147971Y-94300771D01*
X96433685Y-94157914D01*
X97005114Y-94015057D01*
X97719400Y-94015057D01*
X98290828Y-94157914D01*
X98576542Y-94300771D01*
X98719400Y-94443628D01*
X98862257Y-94729342D01*
X96147971Y-97015057D02*
X96005114Y-97157914D01*
X95862257Y-97015057D01*
X96005114Y-96872200D01*
X96147971Y-97015057D01*
X95862257Y-97015057D01*
X95862257Y-100015057D02*
X95862257Y-98300771D01*
X95862257Y-99157914D02*
X98862257Y-99157914D01*
X98433685Y-98872200D01*
X98147971Y-98586485D01*
X98005114Y-98300771D01*
X90069400Y-68300771D02*
X90212257Y-68157914D01*
X90640828Y-67872200D01*
X90926542Y-67729342D01*
X91355114Y-67586485D01*
X92069400Y-67443628D01*
X92640828Y-67443628D01*
X93355114Y-67586485D01*
X93783685Y-67729342D01*
X94069400Y-67872200D01*
X94497971Y-68157914D01*
X94640828Y-68300771D01*
X91355114Y-70729342D02*
X91212257Y-70443628D01*
X91212257Y-69872200D01*
X91355114Y-69586485D01*
X91497971Y-69443628D01*
X91783685Y-69300771D01*
X92640828Y-69300771D01*
X92926542Y-69443628D01*
X93069400Y-69586485D01*
X93212257Y-69872200D01*
X93212257Y-70443628D01*
X93069400Y-70729342D01*
X90069400Y-71729342D02*
X90212257Y-71872200D01*
X90640828Y-72157914D01*
X90926542Y-72300771D01*
X91355114Y-72443628D01*
X92069400Y-72586485D01*
X92640828Y-72586485D01*
X93355114Y-72443628D01*
X93783685Y-72300771D01*
X94069400Y-72157914D01*
X94497971Y-71872200D01*
X94640828Y-71729342D01*
X94212257Y-75872200D02*
X94212257Y-77586485D01*
X91212257Y-76729342D02*
X94212257Y-76729342D01*
X91212257Y-78586485D02*
X94212257Y-78586485D01*
X91212257Y-80300771D02*
X92926542Y-79015057D01*
X94212257Y-80300771D02*
X92497971Y-78586485D01*
X94212257Y-81300771D02*
X91212257Y-82015057D01*
X93355114Y-82586485D01*
X91212257Y-83157914D01*
X94212257Y-83872200D01*
X93926542Y-87157914D02*
X94069400Y-87300771D01*
X94212257Y-87586485D01*
X94212257Y-88300771D01*
X94069400Y-88586485D01*
X93926542Y-88729342D01*
X93640828Y-88872200D01*
X93355114Y-88872200D01*
X92926542Y-88729342D01*
X91212257Y-87015057D01*
X91212257Y-88872200D01*
X94212257Y-90729342D02*
X94212257Y-91015057D01*
X94069400Y-91300771D01*
X93926542Y-91443628D01*
X93640828Y-91586485D01*
X93069400Y-91729342D01*
X92355114Y-91729342D01*
X91783685Y-91586485D01*
X91497971Y-91443628D01*
X91355114Y-91300771D01*
X91212257Y-91015057D01*
X91212257Y-90729342D01*
X91355114Y-90443628D01*
X91497971Y-90300771D01*
X91783685Y-90157914D01*
X92355114Y-90015057D01*
X93069400Y-90015057D01*
X93640828Y-90157914D01*
X93926542Y-90300771D01*
X94069400Y-90443628D01*
X94212257Y-90729342D01*
X93926542Y-92872200D02*
X94069400Y-93015057D01*
X94212257Y-93300771D01*
X94212257Y-94015057D01*
X94069400Y-94300771D01*
X93926542Y-94443628D01*
X93640828Y-94586485D01*
X93355114Y-94586485D01*
X92926542Y-94443628D01*
X91212257Y-92729342D01*
X91212257Y-94586485D01*
X91212257Y-97443628D02*
X91212257Y-95729342D01*
X91212257Y-96586485D02*
X94212257Y-96586485D01*
X93783685Y-96300771D01*
X93497971Y-96015057D01*
X93355114Y-95729342D01*
D11*
X115926000Y-56057800D02*
X115926000Y-45897800D01*
X104496000Y-56057800D02*
X115926000Y-56057800D01*
X104496000Y-45897800D02*
X104496000Y-56057800D01*
X100686000Y-97967800D02*
X100686000Y-45897800D01*
X119736000Y-97967800D02*
X100686000Y-97967800D01*
X119736000Y-45897800D02*
X119736000Y-97967800D01*
X100686000Y-45897800D02*
X119736000Y-45897800D01*
X99980000Y-57241200D02*
X99980000Y-53401200D01*
X98140000Y-57241200D02*
X98140000Y-53401200D01*
D10*
X97637600Y-46151800D02*
X91637600Y-46151800D01*
X91637600Y-46151800D02*
X91637600Y-58151800D01*
X91637600Y-58151800D02*
X97637600Y-58151800D01*
X97637600Y-58151800D02*
X97637600Y-46151800D01*
X109449095Y-52200180D02*
X109449095Y-53009704D01*
X109496714Y-53104942D01*
X109544333Y-53152561D01*
X109639571Y-53200180D01*
X109830047Y-53200180D01*
X109925285Y-53152561D01*
X109972904Y-53104942D01*
X110020523Y-53009704D01*
X110020523Y-52200180D01*
X111020523Y-53200180D02*
X110449095Y-53200180D01*
X110734809Y-53200180D02*
X110734809Y-52200180D01*
X110639571Y-52343038D01*
X110544333Y-52438276D01*
X110449095Y-52485895D01*
X97592380Y-55487866D02*
X97116190Y-55821200D01*
X97592380Y-56059295D02*
X96592380Y-56059295D01*
X96592380Y-55678342D01*
X96640000Y-55583104D01*
X96687619Y-55535485D01*
X96782857Y-55487866D01*
X96925714Y-55487866D01*
X97020952Y-55535485D01*
X97068571Y-55583104D01*
X97116190Y-55678342D01*
X97116190Y-56059295D01*
X97592380Y-54535485D02*
X97592380Y-55106914D01*
X97592380Y-54821200D02*
X96592380Y-54821200D01*
X96735238Y-54916438D01*
X96830476Y-55011676D01*
X96878095Y-55106914D01*
X108758619Y-99146380D02*
X108949095Y-99146380D01*
X109044333Y-99194000D01*
X109139571Y-99289238D01*
X109187190Y-99479714D01*
X109187190Y-99813047D01*
X109139571Y-100003523D01*
X109044333Y-100098761D01*
X108949095Y-100146380D01*
X108758619Y-100146380D01*
X108663380Y-100098761D01*
X108568142Y-100003523D01*
X108520523Y-99813047D01*
X108520523Y-99479714D01*
X108568142Y-99289238D01*
X108663380Y-99194000D01*
X108758619Y-99146380D01*
X110091952Y-100146380D02*
X109615761Y-100146380D01*
X109615761Y-99146380D01*
X110425285Y-99622571D02*
X110758619Y-99622571D01*
X110901476Y-100146380D02*
X110425285Y-100146380D01*
X110425285Y-99146380D01*
X110901476Y-99146380D01*
X111330047Y-100146380D02*
X111330047Y-99146380D01*
X111568142Y-99146380D01*
X111711000Y-99194000D01*
X111806238Y-99289238D01*
X111853857Y-99384476D01*
X111901476Y-99574952D01*
X111901476Y-99717809D01*
X111853857Y-99908285D01*
X111806238Y-100003523D01*
X111711000Y-100098761D01*
X111568142Y-100146380D01*
X111330047Y-100146380D01*
X91951195Y-52017680D02*
X92522623Y-52017680D01*
X92236909Y-53017680D02*
X92236909Y-52017680D01*
X93427385Y-53017680D02*
X93094052Y-52541490D01*
X92855957Y-53017680D02*
X92855957Y-52017680D01*
X93236909Y-52017680D01*
X93332147Y-52065300D01*
X93379766Y-52112919D01*
X93427385Y-52208157D01*
X93427385Y-52351014D01*
X93379766Y-52446252D01*
X93332147Y-52493871D01*
X93236909Y-52541490D01*
X92855957Y-52541490D01*
X94427385Y-53017680D02*
X94094052Y-52541490D01*
X93855957Y-53017680D02*
X93855957Y-52017680D01*
X94236909Y-52017680D01*
X94332147Y-52065300D01*
X94379766Y-52112919D01*
X94427385Y-52208157D01*
X94427385Y-52351014D01*
X94379766Y-52446252D01*
X94332147Y-52493871D01*
X94236909Y-52541490D01*
X93855957Y-52541490D01*
X94808338Y-52970061D02*
X94951195Y-53017680D01*
X95189290Y-53017680D01*
X95284528Y-52970061D01*
X95332147Y-52922442D01*
X95379766Y-52827204D01*
X95379766Y-52731966D01*
X95332147Y-52636728D01*
X95284528Y-52589109D01*
X95189290Y-52541490D01*
X94998814Y-52493871D01*
X94903576Y-52446252D01*
X94855957Y-52398633D01*
X94808338Y-52303395D01*
X94808338Y-52208157D01*
X94855957Y-52112919D01*
X94903576Y-52065300D01*
X94998814Y-52017680D01*
X95236909Y-52017680D01*
X95379766Y-52065300D01*
M02*
