<?xml version="1.0" standalone="no"?>
 <!DOCTYPE svg PUBLIC "-//W3C//DTD SVG 1.1//EN" 
 "http://www.w3.org/Graphics/SVG/1.1/DTD/svg11.dtd"> 
<svg xmlns="http://www.w3.org/2000/svg" version="1.1" 
    width="29.7002cm" height="21.0007cm" viewBox="0 0 116930 82680 ">
<title>SVG Picture created as plate-Edge_Cuts.svg date 2021/02/14 17:38:35 </title>
  <desc>Picture generated by PCBNEW </desc>
<g style="fill:#000000; fill-opacity:1;stroke:#000000; stroke-opacity:1;
stroke-linecap:round; stroke-linejoin:round; "
 transform="translate(0 0) scale(1 1)">
</g>
<g style="fill:#000000; fill-opacity:0.0; 
stroke:#000000; stroke-width:-0.000393701; stroke-opacity:1; 
stroke-linecap:round; stroke-linejoin:round;">
</g>
<g style="fill:#000000; fill-opacity:0.0; 
stroke:#000000; stroke-width:19.685; stroke-opacity:1; 
stroke-linecap:round; stroke-linejoin:round;">
<path d="M79398 50299
L79400 45660
" />
<path d="M75510 42110
L79400 45660
" />
<path d="M67240 42120
L75520 42120
" />
<path d="M67199 19725
L67240 42120
" />
</g>
<g style="fill:#000000; fill-opacity:0.0; 
stroke:#000000; stroke-width:78.7402; stroke-opacity:1; 
stroke-linecap:round; stroke-linejoin:round;">
<path d="M61938 61074
L62821 61335
" />
<path d="M61938.8 61074.4 A82051.1 82051.1 0.0 0 0 39870 58250 " />
<path d="M20431.5 46290.1 A10463.1 10463.1 0.0 0 0 26861.3 56426.4 " />
<path d="M62821.2 61335.5 A7908.81 7908.81 0.0 0 0 64274.8 61571.7 " />
<path d="M78770.7 53468.4 A8477.95 8477.95 0.0 0 0 79398.6 50299.6 " />
<path d="M26861.3 56426.4 A30757.8 30757.8 0.0 0 0 39870 58250 " />
<path d="M20410 21811
L20410 22578
" />
<path d="M67129.7 18945.3 A87512.7 87512.7 0.0 0 0 25169.7 18135.3 " />
<path d="M20409 29401
L20410 25500
" />
<path d="M64274.8 61571.7 A15570.1 15570.1 0.0 0 0 78770.7 53468.4 " />
<path d="M20409 29401
L20431 46290
" />
<path d="M22079.1 19058.2 A3018.18 3018.18 0.0 0 0 20411 21811.1 " />
<path d="M67199 19725
L67129 18945
" />
<path d="M25169 18135
L22079 19058
" />
<path d="M20410 25500
L20410 22578
" />
</g>
<g style="fill:#000000; fill-opacity:0.0; 
stroke:#000000; stroke-width:47.2441; stroke-opacity:1; 
stroke-linecap:round; stroke-linejoin:round;">
<path d="M28350 20422
L22838 20422
" />
<path d="M28350 25934
L28350 20422
" />
<path d="M22838 25934
L28350 25934
" />
<path d="M22838 20422
L22838 25934
" />
<path d="M67291 52185
L64535 56958
" />
<path d="M72064 54941
L67291 52185
" />
<path d="M69308 59714
L72064 54941
" />
<path d="M64535 56958
L69308 59714
" />
<path d="M61072 50784
L55644 49827
" />
<path d="M60115 56212
L61072 50784
" />
<path d="M54687 55255
L60115 56212
" />
<path d="M55644 49827
L54687 55255
" />
<path d="M50838 49595
L45326 49595
" />
<path d="M50838 55107
L50838 49595
" />
<path d="M45326 55107
L50838 55107
" />
<path d="M45326 49595
L45326 55107
" />
<path d="M43342 48658
L37830 48658
" />
<path d="M43342 54170
L43342 48658
" />
<path d="M37830 54170
L43342 54170
" />
<path d="M37830 48658
L37830 54170
" />
<path d="M35846 50406
L30334 50406
" />
<path d="M35846 55918
L35846 50406
" />
<path d="M30334 55918
L35846 55918
" />
<path d="M30334 50406
L30334 55918
" />
<path d="M65830 42910
L60318 42910
" />
<path d="M65830 48422
L65830 42910
" />
<path d="M60318 48422
L65830 48422
" />
<path d="M60318 42910
L60318 48422
" />
<path d="M58334 41973
L52822 41973
" />
<path d="M58334 47485
L58334 41973
" />
<path d="M52822 47485
L58334 47485
" />
<path d="M52822 41973
L52822 47485
" />
<path d="M50838 41036
L45326 41036
" />
<path d="M50838 46548
L50838 41036
" />
<path d="M45326 46548
L50838 46548
" />
<path d="M45326 41036
L45326 46548
" />
<path d="M43342 41036
L37830 41036
" />
<path d="M43342 46548
L43342 41036
" />
<path d="M37830 46548
L43342 46548
" />
<path d="M37830 41036
L37830 46548
" />
<path d="M35846 41973
L30334 41973
" />
<path d="M35846 47485
L35846 41973
" />
<path d="M30334 47485
L35846 47485
" />
<path d="M30334 41973
L30334 47485
" />
<path d="M28350 42910
L22838 42910
" />
<path d="M28350 48422
L28350 42910
" />
<path d="M22838 48422
L28350 48422
" />
<path d="M22838 42910
L22838 48422
" />
<path d="M65830 35414
L60318 35414
" />
<path d="M65830 40926
L65830 35414
" />
<path d="M60318 40926
L65830 40926
" />
<path d="M60318 35414
L60318 40926
" />
<path d="M58334 34477
L52822 34477
" />
<path d="M58334 39989
L58334 34477
" />
<path d="M52822 39989
L58334 39989
" />
<path d="M52822 34477
L52822 39989
" />
<path d="M50838 33540
L45326 33540
" />
<path d="M50838 39052
L50838 33540
" />
<path d="M45326 39052
L50838 39052
" />
<path d="M45326 33540
L45326 39052
" />
<path d="M43342 33540
L37830 33540
" />
<path d="M43342 39052
L43342 33540
" />
<path d="M37830 39052
L43342 39052
" />
<path d="M37830 33540
L37830 39052
" />
<path d="M35846 34477
L30334 34477
" />
<path d="M35846 39989
L35846 34477
" />
<path d="M30334 39989
L35846 39989
" />
<path d="M30334 34477
L30334 39989
" />
<path d="M28350 35414
L22838 35414
" />
<path d="M28350 40926
L28350 35414
" />
<path d="M22838 40926
L28350 40926
" />
<path d="M22838 35414
L22838 40926
" />
<path d="M65830 27918
L60318 27918
" />
<path d="M65830 33430
L65830 27918
" />
<path d="M60318 33430
L65830 33430
" />
<path d="M60318 27918
L60318 33430
" />
<path d="M58334 27107
L52822 27107
" />
<path d="M58334 32619
L58334 27107
" />
<path d="M52822 32619
L58334 32619
" />
<path d="M52822 27107
L52822 32619
" />
<path d="M50838 26044
L45326 26044
" />
<path d="M50838 31556
L50838 26044
" />
<path d="M45326 31556
L50838 31556
" />
<path d="M45326 26044
L45326 31556
" />
<path d="M43342 26044
L37830 26044
" />
<path d="M43342 31556
L43342 26044
" />
<path d="M37830 31556
L43342 31556
" />
<path d="M37830 26044
L37830 31556
" />
<path d="M35846 26981
L30334 26981
" />
<path d="M35846 32493
L35846 26981
" />
<path d="M30334 32493
L35846 32493
" />
<path d="M30334 26981
L30334 32493
" />
<path d="M28350 27918
L22838 27918
" />
<path d="M28350 33430
L28350 27918
" />
<path d="M22838 33430
L28350 33430
" />
<path d="M22838 27918
L22838 33430
" />
<path d="M65830 20422
L60318 20422
" />
<path d="M65830 25934
L65830 20422
" />
<path d="M60318 25934
L65830 25934
" />
<path d="M60318 20422
L60318 25934
" />
<path d="M58334 19548
L52822 19548
" />
<path d="M58334 25060
L58334 19548
" />
<path d="M52822 25060
L58334 25060
" />
<path d="M52822 19548
L52822 25060
" />
<path d="M50838 18548
L45326 18548
" />
<path d="M50838 24060
L50838 18548
" />
<path d="M45326 24060
L50838 24060
" />
<path d="M45326 18548
L45326 24060
" />
<path d="M43342 18548
L37830 18548
" />
<path d="M43342 24060
L43342 18548
" />
<path d="M37830 24060
L43342 24060
" />
<path d="M37830 18548
L37830 24060
" />
<path d="M35846 19485
L30334 19485
" />
<path d="M35846 24997
L35846 19485
" />
<path d="M30334 24997
L35846 24997
" />
<path d="M30334 19485
L30334 24997
" />
<g >
</g>
<g >
</g>
<g >
</g>
<g >
</g>
<g >
</g>
<g >
</g>
<g >
</g>
<g >
</g>
<g >
</g>
<g >
</g>
<g >
</g>
<g >
</g>
<g >
</g>
<g >
</g>
<g >
</g>
<g >
</g>
<g >
</g>
<g >
</g>
<g >
</g>
<g >
</g>
<g >
</g>
<g >
</g>
<g >
</g>
<g >
</g>
<g >
</g>
<g >
</g>
<g >
</g>
<g >
</g>
<g >
</g>
<g >
</g>
<g >
</g>
<g >
</g>
<g >
</g>
<g >
</g>
<g >
</g>
<g >
</g>
</g> 
</svg>
