G04 #@! TF.GenerationSoftware,KiCad,Pcbnew,5.99.0-unknown-78b555afa2~127~ubuntu20.04.1*
G04 #@! TF.CreationDate,2021-05-01T17:37:31+01:00*
G04 #@! TF.ProjectId,grandiceps-rev2,6772616e-6469-4636-9570-732d72657632,rev?*
G04 #@! TF.SameCoordinates,Original*
G04 #@! TF.FileFunction,Legend,Top*
G04 #@! TF.FilePolarity,Positive*
%FSLAX46Y46*%
G04 Gerber Fmt 4.6, Leading zero omitted, Abs format (unit mm)*
G04 Created by KiCad (PCBNEW 5.99.0-unknown-78b555afa2~127~ubuntu20.04.1) date 2021-05-01 17:37:31*
%MOMM*%
%LPD*%
G01*
G04 APERTURE LIST*
%ADD10C,0.150000*%
%ADD11C,0.200000*%
%ADD12C,0.100000*%
%ADD13C,0.120000*%
%ADD14C,0.010000*%
%ADD15C,1.397000*%
G04 APERTURE END LIST*
D10*
X91376666Y-72842380D02*
X91043333Y-72366190D01*
X90805238Y-72842380D02*
X90805238Y-71842380D01*
X91186190Y-71842380D01*
X91281428Y-71890000D01*
X91329047Y-71937619D01*
X91376666Y-72032857D01*
X91376666Y-72175714D01*
X91329047Y-72270952D01*
X91281428Y-72318571D01*
X91186190Y-72366190D01*
X90805238Y-72366190D01*
X91805238Y-72842380D02*
X91805238Y-71842380D01*
X92805238Y-71890000D02*
X92710000Y-71842380D01*
X92567142Y-71842380D01*
X92424285Y-71890000D01*
X92329047Y-71985238D01*
X92281428Y-72080476D01*
X92233809Y-72270952D01*
X92233809Y-72413809D01*
X92281428Y-72604285D01*
X92329047Y-72699523D01*
X92424285Y-72794761D01*
X92567142Y-72842380D01*
X92662380Y-72842380D01*
X92805238Y-72794761D01*
X92852857Y-72747142D01*
X92852857Y-72413809D01*
X92662380Y-72413809D01*
X93281428Y-72842380D02*
X93281428Y-71842380D01*
X93281428Y-72318571D02*
X93852857Y-72318571D01*
X93852857Y-72842380D02*
X93852857Y-71842380D01*
X94186190Y-71842380D02*
X94757619Y-71842380D01*
X94471904Y-72842380D02*
X94471904Y-71842380D01*
X92011619Y-70810380D02*
X91535428Y-70810380D01*
X91535428Y-69810380D01*
X92344952Y-70286571D02*
X92678285Y-70286571D01*
X92821142Y-70810380D02*
X92344952Y-70810380D01*
X92344952Y-69810380D01*
X92821142Y-69810380D01*
X93583047Y-70286571D02*
X93249714Y-70286571D01*
X93249714Y-70810380D02*
X93249714Y-69810380D01*
X93725904Y-69810380D01*
X93964000Y-69810380D02*
X94535428Y-69810380D01*
X94249714Y-70810380D02*
X94249714Y-69810380D01*
D11*
X115298809Y-118197619D02*
X115336904Y-118083333D01*
X115336904Y-117892857D01*
X115298809Y-117816666D01*
X115260714Y-117778571D01*
X115184523Y-117740476D01*
X115108333Y-117740476D01*
X115032142Y-117778571D01*
X114994047Y-117816666D01*
X114955952Y-117892857D01*
X114917857Y-118045238D01*
X114879761Y-118121428D01*
X114841666Y-118159523D01*
X114765476Y-118197619D01*
X114689285Y-118197619D01*
X114613095Y-118159523D01*
X114575000Y-118121428D01*
X114536904Y-118045238D01*
X114536904Y-117854761D01*
X114575000Y-117740476D01*
X114536904Y-117473809D02*
X115336904Y-117283333D01*
X114765476Y-117130952D01*
X115336904Y-116978571D01*
X114536904Y-116788095D01*
X114536904Y-116559523D02*
X114536904Y-116064285D01*
X114841666Y-116330952D01*
X114841666Y-116216666D01*
X114879761Y-116140476D01*
X114917857Y-116102380D01*
X114994047Y-116064285D01*
X115184523Y-116064285D01*
X115260714Y-116102380D01*
X115298809Y-116140476D01*
X115336904Y-116216666D01*
X115336904Y-116445238D01*
X115298809Y-116521428D01*
X115260714Y-116559523D01*
X115336904Y-115302380D02*
X115336904Y-115759523D01*
X115336904Y-115530952D02*
X114536904Y-115530952D01*
X114651190Y-115607142D01*
X114727380Y-115683333D01*
X114765476Y-115759523D01*
D10*
X109449095Y-52200180D02*
X109449095Y-53009704D01*
X109496714Y-53104942D01*
X109544333Y-53152561D01*
X109639571Y-53200180D01*
X109830047Y-53200180D01*
X109925285Y-53152561D01*
X109972904Y-53104942D01*
X110020523Y-53009704D01*
X110020523Y-52200180D01*
X111020523Y-53200180D02*
X110449095Y-53200180D01*
X110734809Y-53200180D02*
X110734809Y-52200180D01*
X110639571Y-52343038D01*
X110544333Y-52438276D01*
X110449095Y-52485895D01*
X99512380Y-55284666D02*
X99036190Y-55618000D01*
X99512380Y-55856095D02*
X98512380Y-55856095D01*
X98512380Y-55475142D01*
X98560000Y-55379904D01*
X98607619Y-55332285D01*
X98702857Y-55284666D01*
X98845714Y-55284666D01*
X98940952Y-55332285D01*
X98988571Y-55379904D01*
X99036190Y-55475142D01*
X99036190Y-55856095D01*
X99512380Y-54332285D02*
X99512380Y-54903714D01*
X99512380Y-54618000D02*
X98512380Y-54618000D01*
X98655238Y-54713238D01*
X98750476Y-54808476D01*
X98798095Y-54903714D01*
X225353714Y-128920380D02*
X225353714Y-127920380D01*
X225591809Y-127920380D01*
X225734666Y-127968000D01*
X225829904Y-128063238D01*
X225877523Y-128158476D01*
X225925142Y-128348952D01*
X225925142Y-128491809D01*
X225877523Y-128682285D01*
X225829904Y-128777523D01*
X225734666Y-128872761D01*
X225591809Y-128920380D01*
X225353714Y-128920380D01*
X226782285Y-128253714D02*
X226782285Y-128920380D01*
X226544190Y-127872761D02*
X226306095Y-128587047D01*
X226925142Y-128587047D01*
X227210857Y-127920380D02*
X227829904Y-127920380D01*
X227496571Y-128301333D01*
X227639428Y-128301333D01*
X227734666Y-128348952D01*
X227782285Y-128396571D01*
X227829904Y-128491809D01*
X227829904Y-128729904D01*
X227782285Y-128825142D01*
X227734666Y-128872761D01*
X227639428Y-128920380D01*
X227353714Y-128920380D01*
X227258476Y-128872761D01*
X227210857Y-128825142D01*
X231003714Y-127020380D02*
X230432285Y-127020380D01*
X230718000Y-127020380D02*
X230718000Y-126020380D01*
X230622761Y-126163238D01*
X230527523Y-126258476D01*
X230432285Y-126306095D01*
X91186380Y-80208285D02*
X90186380Y-80208285D01*
X90186380Y-79970190D01*
X90234000Y-79827333D01*
X90329238Y-79732095D01*
X90424476Y-79684476D01*
X90614952Y-79636857D01*
X90757809Y-79636857D01*
X90948285Y-79684476D01*
X91043523Y-79732095D01*
X91138761Y-79827333D01*
X91186380Y-79970190D01*
X91186380Y-80208285D01*
X90186380Y-79303523D02*
X90186380Y-78684476D01*
X90567333Y-79017809D01*
X90567333Y-78874952D01*
X90614952Y-78779714D01*
X90662571Y-78732095D01*
X90757809Y-78684476D01*
X90995904Y-78684476D01*
X91091142Y-78732095D01*
X91138761Y-78779714D01*
X91186380Y-78874952D01*
X91186380Y-79160666D01*
X91138761Y-79255904D01*
X91091142Y-79303523D01*
X91186380Y-78208285D02*
X91186380Y-78017809D01*
X91138761Y-77922571D01*
X91091142Y-77874952D01*
X90948285Y-77779714D01*
X90757809Y-77732095D01*
X90376857Y-77732095D01*
X90281619Y-77779714D01*
X90234000Y-77827333D01*
X90186380Y-77922571D01*
X90186380Y-78113047D01*
X90234000Y-78208285D01*
X90281619Y-78255904D01*
X90376857Y-78303523D01*
X90614952Y-78303523D01*
X90710190Y-78255904D01*
X90757809Y-78208285D01*
X90805428Y-78113047D01*
X90805428Y-77922571D01*
X90757809Y-77827333D01*
X90710190Y-77779714D01*
X90614952Y-77732095D01*
X93086380Y-82858285D02*
X93086380Y-83429714D01*
X93086380Y-83144000D02*
X92086380Y-83144000D01*
X92229238Y-83239238D01*
X92324476Y-83334476D01*
X92372095Y-83429714D01*
X93994642Y-88957142D02*
X93947023Y-89004761D01*
X93804166Y-89052380D01*
X93708928Y-89052380D01*
X93566071Y-89004761D01*
X93470833Y-88909523D01*
X93423214Y-88814285D01*
X93375595Y-88623809D01*
X93375595Y-88480952D01*
X93423214Y-88290476D01*
X93470833Y-88195238D01*
X93566071Y-88100000D01*
X93708928Y-88052380D01*
X93804166Y-88052380D01*
X93947023Y-88100000D01*
X93994642Y-88147619D01*
X94947023Y-89052380D02*
X94375595Y-89052380D01*
X94661309Y-89052380D02*
X94661309Y-88052380D01*
X94566071Y-88195238D01*
X94470833Y-88290476D01*
X94375595Y-88338095D01*
X95280357Y-88052380D02*
X95947023Y-88052380D01*
X95518452Y-89052380D01*
X93169642Y-130957142D02*
X93122023Y-131004761D01*
X92979166Y-131052380D01*
X92883928Y-131052380D01*
X92741071Y-131004761D01*
X92645833Y-130909523D01*
X92598214Y-130814285D01*
X92550595Y-130623809D01*
X92550595Y-130480952D01*
X92598214Y-130290476D01*
X92645833Y-130195238D01*
X92741071Y-130100000D01*
X92883928Y-130052380D01*
X92979166Y-130052380D01*
X93122023Y-130100000D01*
X93169642Y-130147619D01*
X94122023Y-131052380D02*
X93550595Y-131052380D01*
X93836309Y-131052380D02*
X93836309Y-130052380D01*
X93741071Y-130195238D01*
X93645833Y-130290476D01*
X93550595Y-130338095D01*
X95074404Y-131052380D02*
X94502976Y-131052380D01*
X94788690Y-131052380D02*
X94788690Y-130052380D01*
X94693452Y-130195238D01*
X94598214Y-130290476D01*
X94502976Y-130338095D01*
X231985714Y-87777380D02*
X231985714Y-86777380D01*
X232223809Y-86777380D01*
X232366666Y-86825000D01*
X232461904Y-86920238D01*
X232509523Y-87015476D01*
X232557142Y-87205952D01*
X232557142Y-87348809D01*
X232509523Y-87539285D01*
X232461904Y-87634523D01*
X232366666Y-87729761D01*
X232223809Y-87777380D01*
X231985714Y-87777380D01*
X233414285Y-87110714D02*
X233414285Y-87777380D01*
X233176190Y-86729761D02*
X232938095Y-87444047D01*
X233557142Y-87444047D01*
X234366666Y-87110714D02*
X234366666Y-87777380D01*
X234128571Y-86729761D02*
X233890476Y-87444047D01*
X234509523Y-87444047D01*
X237635714Y-85877380D02*
X237064285Y-85877380D01*
X237350000Y-85877380D02*
X237350000Y-84877380D01*
X237254761Y-85020238D01*
X237159523Y-85115476D01*
X237064285Y-85163095D01*
X215701714Y-49164380D02*
X215701714Y-48164380D01*
X215939809Y-48164380D01*
X216082666Y-48212000D01*
X216177904Y-48307238D01*
X216225523Y-48402476D01*
X216273142Y-48592952D01*
X216273142Y-48735809D01*
X216225523Y-48926285D01*
X216177904Y-49021523D01*
X216082666Y-49116761D01*
X215939809Y-49164380D01*
X215701714Y-49164380D01*
X217130285Y-48497714D02*
X217130285Y-49164380D01*
X216892190Y-48116761D02*
X216654095Y-48831047D01*
X217273142Y-48831047D01*
X218130285Y-48164380D02*
X217654095Y-48164380D01*
X217606476Y-48640571D01*
X217654095Y-48592952D01*
X217749333Y-48545333D01*
X217987428Y-48545333D01*
X218082666Y-48592952D01*
X218130285Y-48640571D01*
X218177904Y-48735809D01*
X218177904Y-48973904D01*
X218130285Y-49069142D01*
X218082666Y-49116761D01*
X217987428Y-49164380D01*
X217749333Y-49164380D01*
X217654095Y-49116761D01*
X217606476Y-49069142D01*
X221351714Y-47264380D02*
X220780285Y-47264380D01*
X221066000Y-47264380D02*
X221066000Y-46264380D01*
X220970761Y-46407238D01*
X220875523Y-46502476D01*
X220780285Y-46550095D01*
X187332142Y-140867857D02*
X187379761Y-140915476D01*
X187427380Y-141058333D01*
X187427380Y-141153571D01*
X187379761Y-141296428D01*
X187284523Y-141391666D01*
X187189285Y-141439285D01*
X186998809Y-141486904D01*
X186855952Y-141486904D01*
X186665476Y-141439285D01*
X186570238Y-141391666D01*
X186475000Y-141296428D01*
X186427380Y-141153571D01*
X186427380Y-141058333D01*
X186475000Y-140915476D01*
X186522619Y-140867857D01*
X187427380Y-139915476D02*
X187427380Y-140486904D01*
X187427380Y-140201190D02*
X186427380Y-140201190D01*
X186570238Y-140296428D01*
X186665476Y-140391666D01*
X186713095Y-140486904D01*
X186427380Y-139058333D02*
X186427380Y-139248809D01*
X186475000Y-139344047D01*
X186522619Y-139391666D01*
X186665476Y-139486904D01*
X186855952Y-139534523D01*
X187236904Y-139534523D01*
X187332142Y-139486904D01*
X187379761Y-139439285D01*
X187427380Y-139344047D01*
X187427380Y-139153571D01*
X187379761Y-139058333D01*
X187332142Y-139010714D01*
X187236904Y-138963095D01*
X186998809Y-138963095D01*
X186903571Y-139010714D01*
X186855952Y-139058333D01*
X186808333Y-139153571D01*
X186808333Y-139344047D01*
X186855952Y-139439285D01*
X186903571Y-139486904D01*
X186998809Y-139534523D01*
X137723714Y-42164380D02*
X137723714Y-41164380D01*
X137961809Y-41164380D01*
X138104666Y-41212000D01*
X138199904Y-41307238D01*
X138247523Y-41402476D01*
X138295142Y-41592952D01*
X138295142Y-41735809D01*
X138247523Y-41926285D01*
X138199904Y-42021523D01*
X138104666Y-42116761D01*
X137961809Y-42164380D01*
X137723714Y-42164380D01*
X139152285Y-41497714D02*
X139152285Y-42164380D01*
X138914190Y-41116761D02*
X138676095Y-41831047D01*
X139295142Y-41831047D01*
X140104666Y-41164380D02*
X139914190Y-41164380D01*
X139818952Y-41212000D01*
X139771333Y-41259619D01*
X139676095Y-41402476D01*
X139628476Y-41592952D01*
X139628476Y-41973904D01*
X139676095Y-42069142D01*
X139723714Y-42116761D01*
X139818952Y-42164380D01*
X140009428Y-42164380D01*
X140104666Y-42116761D01*
X140152285Y-42069142D01*
X140199904Y-41973904D01*
X140199904Y-41735809D01*
X140152285Y-41640571D01*
X140104666Y-41592952D01*
X140009428Y-41545333D01*
X139818952Y-41545333D01*
X139723714Y-41592952D01*
X139676095Y-41640571D01*
X139628476Y-41735809D01*
X135073714Y-44064380D02*
X134502285Y-44064380D01*
X134788000Y-44064380D02*
X134788000Y-43064380D01*
X134692761Y-43207238D01*
X134597523Y-43302476D01*
X134502285Y-43350095D01*
D12*
X176981714Y-71617500D02*
X177981714Y-71617500D01*
X177029333Y-71617500D02*
X176981714Y-71522261D01*
X176981714Y-71331785D01*
X177029333Y-71236547D01*
X177076952Y-71188928D01*
X177172190Y-71141309D01*
X177457904Y-71141309D01*
X177553142Y-71188928D01*
X177600761Y-71236547D01*
X177648380Y-71331785D01*
X177648380Y-71522261D01*
X177600761Y-71617500D01*
X176981714Y-70284166D02*
X177648380Y-70284166D01*
X176981714Y-70712738D02*
X177505523Y-70712738D01*
X177600761Y-70665119D01*
X177648380Y-70569880D01*
X177648380Y-70427023D01*
X177600761Y-70331785D01*
X177553142Y-70284166D01*
X177600761Y-69379404D02*
X177648380Y-69474642D01*
X177648380Y-69665119D01*
X177600761Y-69760357D01*
X177553142Y-69807976D01*
X177457904Y-69855595D01*
X177172190Y-69855595D01*
X177076952Y-69807976D01*
X177029333Y-69760357D01*
X176981714Y-69665119D01*
X176981714Y-69474642D01*
X177029333Y-69379404D01*
X177648380Y-68950833D02*
X176648380Y-68950833D01*
X177267428Y-68855595D02*
X177648380Y-68569880D01*
X176981714Y-68569880D02*
X177362666Y-68950833D01*
X177045214Y-85508000D02*
X177045214Y-85127047D01*
X176711880Y-85365142D02*
X177569023Y-85365142D01*
X177664261Y-85317523D01*
X177711880Y-85222285D01*
X177711880Y-85127047D01*
X177664261Y-84412761D02*
X177711880Y-84508000D01*
X177711880Y-84698476D01*
X177664261Y-84793714D01*
X177569023Y-84841333D01*
X177188071Y-84841333D01*
X177092833Y-84793714D01*
X177045214Y-84698476D01*
X177045214Y-84508000D01*
X177092833Y-84412761D01*
X177188071Y-84365142D01*
X177283309Y-84365142D01*
X177378547Y-84841333D01*
X177045214Y-83936571D02*
X177711880Y-83936571D01*
X177140452Y-83936571D02*
X177092833Y-83888952D01*
X177045214Y-83793714D01*
X177045214Y-83650857D01*
X177092833Y-83555619D01*
X177188071Y-83508000D01*
X177711880Y-83508000D01*
X177045214Y-83174666D02*
X177045214Y-82793714D01*
X176711880Y-83031809D02*
X177569023Y-83031809D01*
X177664261Y-82984190D01*
X177711880Y-82888952D01*
X177711880Y-82793714D01*
X177711880Y-82460380D02*
X177045214Y-82460380D01*
X176711880Y-82460380D02*
X176759500Y-82508000D01*
X176807119Y-82460380D01*
X176759500Y-82412761D01*
X176711880Y-82460380D01*
X176807119Y-82460380D01*
X177045214Y-81984190D02*
X177711880Y-81984190D01*
X177140452Y-81984190D02*
X177092833Y-81936571D01*
X177045214Y-81841333D01*
X177045214Y-81698476D01*
X177092833Y-81603238D01*
X177188071Y-81555619D01*
X177711880Y-81555619D01*
X177045214Y-80650857D02*
X177854738Y-80650857D01*
X177949976Y-80698476D01*
X177997595Y-80746095D01*
X178045214Y-80841333D01*
X178045214Y-80984190D01*
X177997595Y-81079428D01*
X177664261Y-80650857D02*
X177711880Y-80746095D01*
X177711880Y-80936571D01*
X177664261Y-81031809D01*
X177616642Y-81079428D01*
X177521404Y-81127047D01*
X177235690Y-81127047D01*
X177140452Y-81079428D01*
X177092833Y-81031809D01*
X177045214Y-80936571D01*
X177045214Y-80746095D01*
X177092833Y-80650857D01*
D10*
X140535714Y-145452380D02*
X140535714Y-144452380D01*
X140773809Y-144452380D01*
X140916666Y-144500000D01*
X141011904Y-144595238D01*
X141059523Y-144690476D01*
X141107142Y-144880952D01*
X141107142Y-145023809D01*
X141059523Y-145214285D01*
X141011904Y-145309523D01*
X140916666Y-145404761D01*
X140773809Y-145452380D01*
X140535714Y-145452380D01*
X141964285Y-144785714D02*
X141964285Y-145452380D01*
X141726190Y-144404761D02*
X141488095Y-145119047D01*
X142107142Y-145119047D01*
X143011904Y-145452380D02*
X142440476Y-145452380D01*
X142726190Y-145452380D02*
X142726190Y-144452380D01*
X142630952Y-144595238D01*
X142535714Y-144690476D01*
X142440476Y-144738095D01*
X146185714Y-143552380D02*
X145614285Y-143552380D01*
X145900000Y-143552380D02*
X145900000Y-142552380D01*
X145804761Y-142695238D01*
X145709523Y-142790476D01*
X145614285Y-142838095D01*
X95894380Y-118109904D02*
X96703904Y-118109904D01*
X96799142Y-118062285D01*
X96846761Y-118014666D01*
X96894380Y-117919428D01*
X96894380Y-117728952D01*
X96846761Y-117633714D01*
X96799142Y-117586095D01*
X96703904Y-117538476D01*
X95894380Y-117538476D01*
X95894380Y-117157523D02*
X95894380Y-116538476D01*
X96275333Y-116871809D01*
X96275333Y-116728952D01*
X96322952Y-116633714D01*
X96370571Y-116586095D01*
X96465809Y-116538476D01*
X96703904Y-116538476D01*
X96799142Y-116586095D01*
X96846761Y-116633714D01*
X96894380Y-116728952D01*
X96894380Y-117014666D01*
X96846761Y-117109904D01*
X96799142Y-117157523D01*
X131782142Y-45480357D02*
X131829761Y-45527976D01*
X131877380Y-45670833D01*
X131877380Y-45766071D01*
X131829761Y-45908928D01*
X131734523Y-46004166D01*
X131639285Y-46051785D01*
X131448809Y-46099404D01*
X131305952Y-46099404D01*
X131115476Y-46051785D01*
X131020238Y-46004166D01*
X130925000Y-45908928D01*
X130877380Y-45766071D01*
X130877380Y-45670833D01*
X130925000Y-45527976D01*
X130972619Y-45480357D01*
X131877380Y-44527976D02*
X131877380Y-45099404D01*
X131877380Y-44813690D02*
X130877380Y-44813690D01*
X131020238Y-44908928D01*
X131115476Y-45004166D01*
X131163095Y-45099404D01*
X130877380Y-43623214D02*
X130877380Y-44099404D01*
X131353571Y-44147023D01*
X131305952Y-44099404D01*
X131258333Y-44004166D01*
X131258333Y-43766071D01*
X131305952Y-43670833D01*
X131353571Y-43623214D01*
X131448809Y-43575595D01*
X131686904Y-43575595D01*
X131782142Y-43623214D01*
X131829761Y-43670833D01*
X131877380Y-43766071D01*
X131877380Y-44004166D01*
X131829761Y-44099404D01*
X131782142Y-44147023D01*
X95744642Y-109832142D02*
X95697023Y-109879761D01*
X95554166Y-109927380D01*
X95458928Y-109927380D01*
X95316071Y-109879761D01*
X95220833Y-109784523D01*
X95173214Y-109689285D01*
X95125595Y-109498809D01*
X95125595Y-109355952D01*
X95173214Y-109165476D01*
X95220833Y-109070238D01*
X95316071Y-108975000D01*
X95458928Y-108927380D01*
X95554166Y-108927380D01*
X95697023Y-108975000D01*
X95744642Y-109022619D01*
X96697023Y-109927380D02*
X96125595Y-109927380D01*
X96411309Y-109927380D02*
X96411309Y-108927380D01*
X96316071Y-109070238D01*
X96220833Y-109165476D01*
X96125595Y-109213095D01*
X97268452Y-109355952D02*
X97173214Y-109308333D01*
X97125595Y-109260714D01*
X97077976Y-109165476D01*
X97077976Y-109117857D01*
X97125595Y-109022619D01*
X97173214Y-108975000D01*
X97268452Y-108927380D01*
X97458928Y-108927380D01*
X97554166Y-108975000D01*
X97601785Y-109022619D01*
X97649404Y-109117857D01*
X97649404Y-109165476D01*
X97601785Y-109260714D01*
X97554166Y-109308333D01*
X97458928Y-109355952D01*
X97268452Y-109355952D01*
X97173214Y-109403571D01*
X97125595Y-109451190D01*
X97077976Y-109546428D01*
X97077976Y-109736904D01*
X97125595Y-109832142D01*
X97173214Y-109879761D01*
X97268452Y-109927380D01*
X97458928Y-109927380D01*
X97554166Y-109879761D01*
X97601785Y-109832142D01*
X97649404Y-109736904D01*
X97649404Y-109546428D01*
X97601785Y-109451190D01*
X97554166Y-109403571D01*
X97458928Y-109355952D01*
X221957142Y-125405357D02*
X222004761Y-125452976D01*
X222052380Y-125595833D01*
X222052380Y-125691071D01*
X222004761Y-125833928D01*
X221909523Y-125929166D01*
X221814285Y-125976785D01*
X221623809Y-126024404D01*
X221480952Y-126024404D01*
X221290476Y-125976785D01*
X221195238Y-125929166D01*
X221100000Y-125833928D01*
X221052380Y-125691071D01*
X221052380Y-125595833D01*
X221100000Y-125452976D01*
X221147619Y-125405357D01*
X222052380Y-124452976D02*
X222052380Y-125024404D01*
X222052380Y-124738690D02*
X221052380Y-124738690D01*
X221195238Y-124833928D01*
X221290476Y-124929166D01*
X221338095Y-125024404D01*
X221052380Y-124119642D02*
X221052380Y-123500595D01*
X221433333Y-123833928D01*
X221433333Y-123691071D01*
X221480952Y-123595833D01*
X221528571Y-123548214D01*
X221623809Y-123500595D01*
X221861904Y-123500595D01*
X221957142Y-123548214D01*
X222004761Y-123595833D01*
X222052380Y-123691071D01*
X222052380Y-123976785D01*
X222004761Y-124072023D01*
X221957142Y-124119642D01*
X107005619Y-103846380D02*
X107196095Y-103846380D01*
X107291333Y-103894000D01*
X107386571Y-103989238D01*
X107434190Y-104179714D01*
X107434190Y-104513047D01*
X107386571Y-104703523D01*
X107291333Y-104798761D01*
X107196095Y-104846380D01*
X107005619Y-104846380D01*
X106910380Y-104798761D01*
X106815142Y-104703523D01*
X106767523Y-104513047D01*
X106767523Y-104179714D01*
X106815142Y-103989238D01*
X106910380Y-103894000D01*
X107005619Y-103846380D01*
X108338952Y-104846380D02*
X107862761Y-104846380D01*
X107862761Y-103846380D01*
X108672285Y-104322571D02*
X109005619Y-104322571D01*
X109148476Y-104846380D02*
X108672285Y-104846380D01*
X108672285Y-103846380D01*
X109148476Y-103846380D01*
X109577047Y-104846380D02*
X109577047Y-103846380D01*
X109815142Y-103846380D01*
X109958000Y-103894000D01*
X110053238Y-103989238D01*
X110100857Y-104084476D01*
X110148476Y-104274952D01*
X110148476Y-104417809D01*
X110100857Y-104608285D01*
X110053238Y-104703523D01*
X109958000Y-104798761D01*
X109815142Y-104846380D01*
X109577047Y-104846380D01*
X234682142Y-79730357D02*
X234729761Y-79777976D01*
X234777380Y-79920833D01*
X234777380Y-80016071D01*
X234729761Y-80158928D01*
X234634523Y-80254166D01*
X234539285Y-80301785D01*
X234348809Y-80349404D01*
X234205952Y-80349404D01*
X234015476Y-80301785D01*
X233920238Y-80254166D01*
X233825000Y-80158928D01*
X233777380Y-80016071D01*
X233777380Y-79920833D01*
X233825000Y-79777976D01*
X233872619Y-79730357D01*
X234777380Y-78777976D02*
X234777380Y-79349404D01*
X234777380Y-79063690D02*
X233777380Y-79063690D01*
X233920238Y-79158928D01*
X234015476Y-79254166D01*
X234063095Y-79349404D01*
X234110714Y-77920833D02*
X234777380Y-77920833D01*
X233729761Y-78158928D02*
X234444047Y-78397023D01*
X234444047Y-77777976D01*
X140994642Y-147182142D02*
X140947023Y-147229761D01*
X140804166Y-147277380D01*
X140708928Y-147277380D01*
X140566071Y-147229761D01*
X140470833Y-147134523D01*
X140423214Y-147039285D01*
X140375595Y-146848809D01*
X140375595Y-146705952D01*
X140423214Y-146515476D01*
X140470833Y-146420238D01*
X140566071Y-146325000D01*
X140708928Y-146277380D01*
X140804166Y-146277380D01*
X140947023Y-146325000D01*
X140994642Y-146372619D01*
X141947023Y-147277380D02*
X141375595Y-147277380D01*
X141661309Y-147277380D02*
X141661309Y-146277380D01*
X141566071Y-146420238D01*
X141470833Y-146515476D01*
X141375595Y-146563095D01*
X142327976Y-146372619D02*
X142375595Y-146325000D01*
X142470833Y-146277380D01*
X142708928Y-146277380D01*
X142804166Y-146325000D01*
X142851785Y-146372619D01*
X142899404Y-146467857D01*
X142899404Y-146563095D01*
X142851785Y-146705952D01*
X142280357Y-147277380D01*
X142899404Y-147277380D01*
X179910714Y-143652380D02*
X179910714Y-142652380D01*
X180148809Y-142652380D01*
X180291666Y-142700000D01*
X180386904Y-142795238D01*
X180434523Y-142890476D01*
X180482142Y-143080952D01*
X180482142Y-143223809D01*
X180434523Y-143414285D01*
X180386904Y-143509523D01*
X180291666Y-143604761D01*
X180148809Y-143652380D01*
X179910714Y-143652380D01*
X181339285Y-142985714D02*
X181339285Y-143652380D01*
X181101190Y-142604761D02*
X180863095Y-143319047D01*
X181482142Y-143319047D01*
X181815476Y-142747619D02*
X181863095Y-142700000D01*
X181958333Y-142652380D01*
X182196428Y-142652380D01*
X182291666Y-142700000D01*
X182339285Y-142747619D01*
X182386904Y-142842857D01*
X182386904Y-142938095D01*
X182339285Y-143080952D01*
X181767857Y-143652380D01*
X182386904Y-143652380D01*
X185560714Y-141752380D02*
X184989285Y-141752380D01*
X185275000Y-141752380D02*
X185275000Y-140752380D01*
X185179761Y-140895238D01*
X185084523Y-140990476D01*
X184989285Y-141038095D01*
X98741095Y-97779380D02*
X98741095Y-98588904D01*
X98788714Y-98684142D01*
X98836333Y-98731761D01*
X98931571Y-98779380D01*
X99122047Y-98779380D01*
X99217285Y-98731761D01*
X99264904Y-98684142D01*
X99312523Y-98588904D01*
X99312523Y-97779380D01*
X99741095Y-97874619D02*
X99788714Y-97827000D01*
X99883952Y-97779380D01*
X100122047Y-97779380D01*
X100217285Y-97827000D01*
X100264904Y-97874619D01*
X100312523Y-97969857D01*
X100312523Y-98065095D01*
X100264904Y-98207952D01*
X99693476Y-98779380D01*
X100312523Y-98779380D01*
X215669642Y-51932142D02*
X215622023Y-51979761D01*
X215479166Y-52027380D01*
X215383928Y-52027380D01*
X215241071Y-51979761D01*
X215145833Y-51884523D01*
X215098214Y-51789285D01*
X215050595Y-51598809D01*
X215050595Y-51455952D01*
X215098214Y-51265476D01*
X215145833Y-51170238D01*
X215241071Y-51075000D01*
X215383928Y-51027380D01*
X215479166Y-51027380D01*
X215622023Y-51075000D01*
X215669642Y-51122619D01*
X216622023Y-52027380D02*
X216050595Y-52027380D01*
X216336309Y-52027380D02*
X216336309Y-51027380D01*
X216241071Y-51170238D01*
X216145833Y-51265476D01*
X216050595Y-51313095D01*
X217241071Y-51027380D02*
X217336309Y-51027380D01*
X217431547Y-51075000D01*
X217479166Y-51122619D01*
X217526785Y-51217857D01*
X217574404Y-51408333D01*
X217574404Y-51646428D01*
X217526785Y-51836904D01*
X217479166Y-51932142D01*
X217431547Y-51979761D01*
X217336309Y-52027380D01*
X217241071Y-52027380D01*
X217145833Y-51979761D01*
X217098214Y-51932142D01*
X217050595Y-51836904D01*
X217002976Y-51646428D01*
X217002976Y-51408333D01*
X217050595Y-51217857D01*
X217098214Y-51122619D01*
X217145833Y-51075000D01*
X217241071Y-51027380D01*
X105335714Y-136602380D02*
X105335714Y-135602380D01*
X105573809Y-135602380D01*
X105716666Y-135650000D01*
X105811904Y-135745238D01*
X105859523Y-135840476D01*
X105907142Y-136030952D01*
X105907142Y-136173809D01*
X105859523Y-136364285D01*
X105811904Y-136459523D01*
X105716666Y-136554761D01*
X105573809Y-136602380D01*
X105335714Y-136602380D01*
X106764285Y-135935714D02*
X106764285Y-136602380D01*
X106526190Y-135554761D02*
X106288095Y-136269047D01*
X106907142Y-136269047D01*
X107478571Y-135602380D02*
X107573809Y-135602380D01*
X107669047Y-135650000D01*
X107716666Y-135697619D01*
X107764285Y-135792857D01*
X107811904Y-135983333D01*
X107811904Y-136221428D01*
X107764285Y-136411904D01*
X107716666Y-136507142D01*
X107669047Y-136554761D01*
X107573809Y-136602380D01*
X107478571Y-136602380D01*
X107383333Y-136554761D01*
X107335714Y-136507142D01*
X107288095Y-136411904D01*
X107240476Y-136221428D01*
X107240476Y-135983333D01*
X107288095Y-135792857D01*
X107335714Y-135697619D01*
X107383333Y-135650000D01*
X107478571Y-135602380D01*
X110985714Y-134702380D02*
X110414285Y-134702380D01*
X110700000Y-134702380D02*
X110700000Y-133702380D01*
X110604761Y-133845238D01*
X110509523Y-133940476D01*
X110414285Y-133988095D01*
X91951195Y-52017680D02*
X92522623Y-52017680D01*
X92236909Y-53017680D02*
X92236909Y-52017680D01*
X93427385Y-53017680D02*
X93094052Y-52541490D01*
X92855957Y-53017680D02*
X92855957Y-52017680D01*
X93236909Y-52017680D01*
X93332147Y-52065300D01*
X93379766Y-52112919D01*
X93427385Y-52208157D01*
X93427385Y-52351014D01*
X93379766Y-52446252D01*
X93332147Y-52493871D01*
X93236909Y-52541490D01*
X92855957Y-52541490D01*
X94427385Y-53017680D02*
X94094052Y-52541490D01*
X93855957Y-53017680D02*
X93855957Y-52017680D01*
X94236909Y-52017680D01*
X94332147Y-52065300D01*
X94379766Y-52112919D01*
X94427385Y-52208157D01*
X94427385Y-52351014D01*
X94379766Y-52446252D01*
X94332147Y-52493871D01*
X94236909Y-52541490D01*
X93855957Y-52541490D01*
X94808338Y-52970061D02*
X94951195Y-53017680D01*
X95189290Y-53017680D01*
X95284528Y-52970061D01*
X95332147Y-52922442D01*
X95379766Y-52827204D01*
X95379766Y-52731966D01*
X95332147Y-52636728D01*
X95284528Y-52589109D01*
X95189290Y-52541490D01*
X94998814Y-52493871D01*
X94903576Y-52446252D01*
X94855957Y-52398633D01*
X94808338Y-52303395D01*
X94808338Y-52208157D01*
X94855957Y-52112919D01*
X94903576Y-52065300D01*
X94998814Y-52017680D01*
X95236909Y-52017680D01*
X95379766Y-52065300D01*
D11*
X102175000Y-110650000D02*
X100175000Y-110650000D01*
X114175000Y-126050000D02*
X114175000Y-115150000D01*
X114175000Y-111250000D02*
X114175000Y-110650000D01*
X114175000Y-110650000D02*
X112175000Y-110650000D01*
X100175000Y-110650000D02*
X100175000Y-126050000D01*
D13*
X100686000Y-97967800D02*
X100686000Y-45897800D01*
X104496000Y-56057800D02*
X115926000Y-56057800D01*
X119736000Y-97967800D02*
X100686000Y-97967800D01*
X115926000Y-56057800D02*
X115926000Y-45897800D01*
X100686000Y-45897800D02*
X119736000Y-45897800D01*
X119736000Y-45897800D02*
X119736000Y-97967800D01*
X104496000Y-45897800D02*
X104496000Y-56057800D01*
X99980000Y-57241200D02*
X99980000Y-53401200D01*
X98140000Y-57241200D02*
X98140000Y-53401200D01*
X222918000Y-122218000D02*
X222918000Y-123368000D01*
X230218000Y-127718000D02*
X222918000Y-127718000D01*
X230218000Y-122218000D02*
X222918000Y-122218000D01*
X96984000Y-75344000D02*
X95834000Y-75344000D01*
X91484000Y-82644000D02*
X91484000Y-75344000D01*
X96984000Y-82644000D02*
X96984000Y-75344000D01*
X94896078Y-87660000D02*
X94378922Y-87660000D01*
X94896078Y-86240000D02*
X94378922Y-86240000D01*
X94071078Y-128240000D02*
X93553922Y-128240000D01*
X94071078Y-129660000D02*
X93553922Y-129660000D01*
X236850000Y-81075000D02*
X229550000Y-81075000D01*
X236850000Y-86575000D02*
X229550000Y-86575000D01*
X229550000Y-81075000D02*
X229550000Y-82225000D01*
X106410000Y-98534000D02*
X106410000Y-101334000D01*
X104410000Y-98534000D02*
X106410000Y-98534000D01*
X106410000Y-101334000D02*
X104410000Y-101334000D01*
X104410000Y-101334000D02*
X104410000Y-98534000D01*
X213266000Y-42462000D02*
X213266000Y-43612000D01*
X220566000Y-42462000D02*
X213266000Y-42462000D01*
X220566000Y-47962000D02*
X213266000Y-47962000D01*
X98794000Y-121428000D02*
X98794000Y-123428000D01*
X95994000Y-121428000D02*
X98794000Y-121428000D01*
X98794000Y-123428000D02*
X95994000Y-123428000D01*
X95994000Y-123428000D02*
X95994000Y-121428000D01*
X189335000Y-140483578D02*
X189335000Y-139966422D01*
X187915000Y-140483578D02*
X187915000Y-139966422D01*
X108950000Y-98534000D02*
X108950000Y-101334000D01*
X108950000Y-101334000D02*
X106950000Y-101334000D01*
X106950000Y-98534000D02*
X108950000Y-98534000D01*
X106950000Y-101334000D02*
X106950000Y-98534000D01*
X135288000Y-42462000D02*
X142588000Y-42462000D01*
X135288000Y-47962000D02*
X142588000Y-47962000D01*
X142588000Y-47962000D02*
X142588000Y-46812000D01*
D11*
X184458047Y-95436134D02*
G75*
G02*
X180307500Y-96470000I-7008047J19286134D01*
G01*
X176321615Y-65414136D02*
G75*
G02*
X177450000Y-65355000I1128385J-10735864D01*
G01*
X176321615Y-86885864D02*
G75*
G03*
X177450000Y-86945000I1128385J10735864D01*
G01*
X158163866Y-83158047D02*
G75*
G02*
X157130000Y-79007500I19286134J7008047D01*
G01*
X196736135Y-69141955D02*
G75*
G02*
X197770000Y-73292500I-19286135J-7008045D01*
G01*
X170441952Y-56863866D02*
G75*
G02*
X174592500Y-55830000I7008048J-19286134D01*
G01*
X178578385Y-86885864D02*
G75*
G02*
X177450000Y-86945000I-1128385J10735864D01*
G01*
X170441954Y-95436134D02*
G75*
G03*
X174592500Y-96470000I7008046J19286134D01*
G01*
X158163866Y-69141952D02*
G75*
G03*
X157130000Y-73292500I19286134J-7008048D01*
G01*
X184458047Y-56863866D02*
G75*
G03*
X180307500Y-55830000I-7008047J-19286134D01*
G01*
X178578385Y-65414136D02*
G75*
G03*
X177450000Y-65355000I-1128385J-10735864D01*
G01*
X196736135Y-83158046D02*
G75*
G03*
X197770000Y-79007500I-19286135J7008046D01*
G01*
D14*
X175823245Y-90231867D02*
X176626191Y-89429167D01*
X176626191Y-89429167D02*
X176914559Y-89432261D01*
X176914559Y-89432261D02*
X177202927Y-89435354D01*
X177202927Y-89435354D02*
X176355703Y-90295491D01*
X176355703Y-90295491D02*
X176237778Y-90415214D01*
X176237778Y-90415214D02*
X176122979Y-90531763D01*
X176122979Y-90531763D02*
X176012525Y-90643903D01*
X176012525Y-90643903D02*
X175907633Y-90750396D01*
X175907633Y-90750396D02*
X175809521Y-90850007D01*
X175809521Y-90850007D02*
X175719406Y-90941500D01*
X175719406Y-90941500D02*
X175638507Y-91023637D01*
X175638507Y-91023637D02*
X175568040Y-91095182D01*
X175568040Y-91095182D02*
X175509224Y-91154900D01*
X175509224Y-91154900D02*
X175463277Y-91201554D01*
X175463277Y-91201554D02*
X175431416Y-91233907D01*
X175431416Y-91233907D02*
X175417635Y-91247903D01*
X175417635Y-91247903D02*
X175326791Y-91340179D01*
X175326791Y-91340179D02*
X175326791Y-88598309D01*
X175326791Y-88598309D02*
X175823245Y-88598309D01*
X175823245Y-88598309D02*
X175823245Y-90231867D01*
X175823245Y-90231867D02*
X175823245Y-90231867D01*
G36*
X175823245Y-90231867D02*
G01*
X176626191Y-89429167D01*
X176914559Y-89432261D01*
X177202927Y-89435354D01*
X176355703Y-90295491D01*
X176237778Y-90415214D01*
X176122979Y-90531763D01*
X176012525Y-90643903D01*
X175907633Y-90750396D01*
X175809521Y-90850007D01*
X175719406Y-90941500D01*
X175638507Y-91023637D01*
X175568040Y-91095182D01*
X175509224Y-91154900D01*
X175463277Y-91201554D01*
X175431416Y-91233907D01*
X175417635Y-91247903D01*
X175326791Y-91340179D01*
X175326791Y-88598309D01*
X175823245Y-88598309D01*
X175823245Y-90231867D01*
G37*
X175823245Y-90231867D02*
X176626191Y-89429167D01*
X176914559Y-89432261D01*
X177202927Y-89435354D01*
X176355703Y-90295491D01*
X176237778Y-90415214D01*
X176122979Y-90531763D01*
X176012525Y-90643903D01*
X175907633Y-90750396D01*
X175809521Y-90850007D01*
X175719406Y-90941500D01*
X175638507Y-91023637D01*
X175568040Y-91095182D01*
X175509224Y-91154900D01*
X175463277Y-91201554D01*
X175431416Y-91233907D01*
X175417635Y-91247903D01*
X175326791Y-91340179D01*
X175326791Y-88598309D01*
X175823245Y-88598309D01*
X175823245Y-90231867D01*
X176630025Y-90638398D02*
X176652728Y-90661261D01*
X176652728Y-90661261D02*
X176687207Y-90696792D01*
X176687207Y-90696792D02*
X176731476Y-90742884D01*
X176731476Y-90742884D02*
X176783543Y-90797430D01*
X176783543Y-90797430D02*
X176841422Y-90858324D01*
X176841422Y-90858324D02*
X176903121Y-90923459D01*
X176903121Y-90923459D02*
X176966654Y-90990729D01*
X176966654Y-90990729D02*
X177030029Y-91058027D01*
X177030029Y-91058027D02*
X177091259Y-91123246D01*
X177091259Y-91123246D02*
X177148355Y-91184281D01*
X177148355Y-91184281D02*
X177199327Y-91239024D01*
X177199327Y-91239024D02*
X177242187Y-91285369D01*
X177242187Y-91285369D02*
X177274945Y-91321209D01*
X177274945Y-91321209D02*
X177295613Y-91344438D01*
X177295613Y-91344438D02*
X177297906Y-91347129D01*
X177297906Y-91347129D02*
X177326207Y-91380764D01*
X177326207Y-91380764D02*
X176706193Y-91380764D01*
X176706193Y-91380764D02*
X176532843Y-91204695D01*
X176532843Y-91204695D02*
X176479101Y-91149952D01*
X176479101Y-91149952D02*
X176428818Y-91098439D01*
X176428818Y-91098439D02*
X176385002Y-91053259D01*
X176385002Y-91053259D02*
X176350656Y-91017513D01*
X176350656Y-91017513D02*
X176328788Y-90994304D01*
X176328788Y-90994304D02*
X176325611Y-90990812D01*
X176325611Y-90990812D02*
X176291729Y-90952997D01*
X176291729Y-90952997D02*
X176452764Y-90791653D01*
X176452764Y-90791653D02*
X176502477Y-90742198D01*
X176502477Y-90742198D02*
X176546701Y-90698873D01*
X176546701Y-90698873D02*
X176582848Y-90664160D01*
X176582848Y-90664160D02*
X176608330Y-90640540D01*
X176608330Y-90640540D02*
X176620559Y-90630492D01*
X176620559Y-90630492D02*
X176621090Y-90630309D01*
X176621090Y-90630309D02*
X176630025Y-90638398D01*
X176630025Y-90638398D02*
X176630025Y-90638398D01*
G36*
X176630025Y-90638398D02*
G01*
X176652728Y-90661261D01*
X176687207Y-90696792D01*
X176731476Y-90742884D01*
X176783543Y-90797430D01*
X176841422Y-90858324D01*
X176903121Y-90923459D01*
X176966654Y-90990729D01*
X177030029Y-91058027D01*
X177091259Y-91123246D01*
X177148355Y-91184281D01*
X177199327Y-91239024D01*
X177242187Y-91285369D01*
X177274945Y-91321209D01*
X177295613Y-91344438D01*
X177297906Y-91347129D01*
X177326207Y-91380764D01*
X176706193Y-91380764D01*
X176532843Y-91204695D01*
X176479101Y-91149952D01*
X176428818Y-91098439D01*
X176385002Y-91053259D01*
X176350656Y-91017513D01*
X176328788Y-90994304D01*
X176325611Y-90990812D01*
X176291729Y-90952997D01*
X176452764Y-90791653D01*
X176502477Y-90742198D01*
X176546701Y-90698873D01*
X176582848Y-90664160D01*
X176608330Y-90640540D01*
X176620559Y-90630492D01*
X176621090Y-90630309D01*
X176630025Y-90638398D01*
G37*
X176630025Y-90638398D02*
X176652728Y-90661261D01*
X176687207Y-90696792D01*
X176731476Y-90742884D01*
X176783543Y-90797430D01*
X176841422Y-90858324D01*
X176903121Y-90923459D01*
X176966654Y-90990729D01*
X177030029Y-91058027D01*
X177091259Y-91123246D01*
X177148355Y-91184281D01*
X177199327Y-91239024D01*
X177242187Y-91285369D01*
X177274945Y-91321209D01*
X177295613Y-91344438D01*
X177297906Y-91347129D01*
X177326207Y-91380764D01*
X176706193Y-91380764D01*
X176532843Y-91204695D01*
X176479101Y-91149952D01*
X176428818Y-91098439D01*
X176385002Y-91053259D01*
X176350656Y-91017513D01*
X176328788Y-90994304D01*
X176325611Y-90990812D01*
X176291729Y-90952997D01*
X176452764Y-90791653D01*
X176502477Y-90742198D01*
X176546701Y-90698873D01*
X176582848Y-90664160D01*
X176608330Y-90640540D01*
X176620559Y-90630492D01*
X176621090Y-90630309D01*
X176630025Y-90638398D01*
X178028279Y-89097650D02*
X178028471Y-89201890D01*
X178028471Y-89201890D02*
X178028960Y-89298635D01*
X178028960Y-89298635D02*
X178029710Y-89385521D01*
X178029710Y-89385521D02*
X178030686Y-89460183D01*
X178030686Y-89460183D02*
X178031855Y-89520258D01*
X178031855Y-89520258D02*
X178033182Y-89563381D01*
X178033182Y-89563381D02*
X178034631Y-89587188D01*
X178034631Y-89587188D02*
X178035539Y-89591218D01*
X178035539Y-89591218D02*
X178047970Y-89584904D01*
X178047970Y-89584904D02*
X178072816Y-89568561D01*
X178072816Y-89568561D02*
X178096950Y-89551359D01*
X178096950Y-89551359D02*
X178211647Y-89480637D01*
X178211647Y-89480637D02*
X178333863Y-89431533D01*
X178333863Y-89431533D02*
X178464246Y-89403857D01*
X178464246Y-89403857D02*
X178603447Y-89397419D01*
X178603447Y-89397419D02*
X178621259Y-89398087D01*
X178621259Y-89398087D02*
X178710894Y-89404639D01*
X178710894Y-89404639D02*
X178787377Y-89416576D01*
X178787377Y-89416576D02*
X178859029Y-89436068D01*
X178859029Y-89436068D02*
X178934167Y-89465285D01*
X178934167Y-89465285D02*
X179004018Y-89497924D01*
X179004018Y-89497924D02*
X179131951Y-89573217D01*
X179131951Y-89573217D02*
X179244871Y-89665197D01*
X179244871Y-89665197D02*
X179341765Y-89772186D01*
X179341765Y-89772186D02*
X179421623Y-89892511D01*
X179421623Y-89892511D02*
X179483433Y-90024496D01*
X179483433Y-90024496D02*
X179526185Y-90166465D01*
X179526185Y-90166465D02*
X179548866Y-90316744D01*
X179548866Y-90316744D02*
X179552427Y-90406414D01*
X179552427Y-90406414D02*
X179542136Y-90558892D01*
X179542136Y-90558892D02*
X179510780Y-90703456D01*
X179510780Y-90703456D02*
X179457635Y-90842692D01*
X179457635Y-90842692D02*
X179400380Y-90949611D01*
X179400380Y-90949611D02*
X179314668Y-91069904D01*
X179314668Y-91069904D02*
X179213055Y-91174753D01*
X179213055Y-91174753D02*
X179097722Y-91263075D01*
X179097722Y-91263075D02*
X178970847Y-91333789D01*
X178970847Y-91333789D02*
X178834611Y-91385812D01*
X178834611Y-91385812D02*
X178691192Y-91418065D01*
X178691192Y-91418065D02*
X178542771Y-91429464D01*
X178542771Y-91429464D02*
X178442525Y-91424981D01*
X178442525Y-91424981D02*
X178297917Y-91400100D01*
X178297917Y-91400100D02*
X178157349Y-91353825D01*
X178157349Y-91353825D02*
X178024176Y-91287846D01*
X178024176Y-91287846D02*
X177901756Y-91203849D01*
X177901756Y-91203849D02*
X177793444Y-91103523D01*
X177793444Y-91103523D02*
X177785050Y-91094357D01*
X177785050Y-91094357D02*
X177703919Y-90990237D01*
X177703919Y-90990237D02*
X177634227Y-90872055D01*
X177634227Y-90872055D02*
X177579061Y-90746192D01*
X177579061Y-90746192D02*
X177541508Y-90619032D01*
X177541508Y-90619032D02*
X177532639Y-90572582D01*
X177532639Y-90572582D02*
X177530026Y-90544187D01*
X177530026Y-90544187D02*
X177527681Y-90494115D01*
X177527681Y-90494115D02*
X177526212Y-90443781D01*
X177526212Y-90443781D02*
X178022550Y-90443781D01*
X178022550Y-90443781D02*
X178033122Y-90541330D01*
X178033122Y-90541330D02*
X178063554Y-90635349D01*
X178063554Y-90635349D02*
X178092208Y-90689494D01*
X178092208Y-90689494D02*
X178159142Y-90777777D01*
X178159142Y-90777777D02*
X178238623Y-90848654D01*
X178238623Y-90848654D02*
X178328055Y-90901147D01*
X178328055Y-90901147D02*
X178424841Y-90934279D01*
X178424841Y-90934279D02*
X178526382Y-90947073D01*
X178526382Y-90947073D02*
X178630083Y-90938552D01*
X178630083Y-90938552D02*
X178702910Y-90919264D01*
X178702910Y-90919264D02*
X178745907Y-90903178D01*
X178745907Y-90903178D02*
X178786812Y-90885818D01*
X178786812Y-90885818D02*
X178802979Y-90878042D01*
X178802979Y-90878042D02*
X178848265Y-90847038D01*
X178848265Y-90847038D02*
X178897588Y-90800844D01*
X178897588Y-90800844D02*
X178945645Y-90745388D01*
X178945645Y-90745388D02*
X178987130Y-90686594D01*
X178987130Y-90686594D02*
X179008618Y-90648267D01*
X179008618Y-90648267D02*
X179028799Y-90604021D01*
X179028799Y-90604021D02*
X179041444Y-90565413D01*
X179041444Y-90565413D02*
X179048801Y-90523121D01*
X179048801Y-90523121D02*
X179053119Y-90467818D01*
X179053119Y-90467818D02*
X179053401Y-90462528D01*
X179053401Y-90462528D02*
X179050033Y-90355283D01*
X179050033Y-90355283D02*
X179027177Y-90257391D01*
X179027177Y-90257391D02*
X178983525Y-90163968D01*
X178983525Y-90163968D02*
X178965755Y-90135439D01*
X178965755Y-90135439D02*
X178901213Y-90057535D01*
X178901213Y-90057535D02*
X178822396Y-89995365D01*
X178822396Y-89995365D02*
X178732760Y-89949869D01*
X178732760Y-89949869D02*
X178635761Y-89921991D01*
X178635761Y-89921991D02*
X178534857Y-89912671D01*
X178534857Y-89912671D02*
X178433505Y-89922853D01*
X178433505Y-89922853D02*
X178335159Y-89953478D01*
X178335159Y-89953478D02*
X178321156Y-89959764D01*
X178321156Y-89959764D02*
X178233204Y-90012713D01*
X178233204Y-90012713D02*
X178159214Y-90080927D01*
X178159214Y-90080927D02*
X178100171Y-90161273D01*
X178100171Y-90161273D02*
X178057058Y-90250620D01*
X178057058Y-90250620D02*
X178030856Y-90345833D01*
X178030856Y-90345833D02*
X178022550Y-90443781D01*
X178022550Y-90443781D02*
X177526212Y-90443781D01*
X177526212Y-90443781D02*
X177525628Y-90423778D01*
X177525628Y-90423778D02*
X177523889Y-90334589D01*
X177523889Y-90334589D02*
X177522486Y-90227960D01*
X177522486Y-90227960D02*
X177521442Y-90105304D01*
X177521442Y-90105304D02*
X177520778Y-89968032D01*
X177520778Y-89968032D02*
X177520517Y-89817558D01*
X177520517Y-89817558D02*
X177520514Y-89805822D01*
X177520514Y-89805822D02*
X177520427Y-89114108D01*
X177520427Y-89114108D02*
X178028131Y-88604082D01*
X178028131Y-88604082D02*
X178028279Y-89097650D01*
X178028279Y-89097650D02*
X178028279Y-89097650D01*
G36*
X177523889Y-90334589D02*
G01*
X177522486Y-90227960D01*
X177521442Y-90105304D01*
X177520778Y-89968032D01*
X177520517Y-89817558D01*
X177520514Y-89805822D01*
X177520427Y-89114108D01*
X178028131Y-88604082D01*
X178028279Y-89097650D01*
X178028471Y-89201890D01*
X178028960Y-89298635D01*
X178029710Y-89385521D01*
X178030686Y-89460183D01*
X178031855Y-89520258D01*
X178033182Y-89563381D01*
X178034631Y-89587188D01*
X178035539Y-89591218D01*
X178047970Y-89584904D01*
X178072816Y-89568561D01*
X178096950Y-89551359D01*
X178211647Y-89480637D01*
X178333863Y-89431533D01*
X178464246Y-89403857D01*
X178603447Y-89397419D01*
X178621259Y-89398087D01*
X178710894Y-89404639D01*
X178787377Y-89416576D01*
X178859029Y-89436068D01*
X178934167Y-89465285D01*
X179004018Y-89497924D01*
X179131951Y-89573217D01*
X179244871Y-89665197D01*
X179341765Y-89772186D01*
X179421623Y-89892511D01*
X179483433Y-90024496D01*
X179526185Y-90166465D01*
X179548866Y-90316744D01*
X179552427Y-90406414D01*
X179542136Y-90558892D01*
X179510780Y-90703456D01*
X179457635Y-90842692D01*
X179400380Y-90949611D01*
X179314668Y-91069904D01*
X179213055Y-91174753D01*
X179097722Y-91263075D01*
X178970847Y-91333789D01*
X178834611Y-91385812D01*
X178691192Y-91418065D01*
X178542771Y-91429464D01*
X178442525Y-91424981D01*
X178297917Y-91400100D01*
X178157349Y-91353825D01*
X178024176Y-91287846D01*
X177901756Y-91203849D01*
X177793444Y-91103523D01*
X177785050Y-91094357D01*
X177703919Y-90990237D01*
X177634227Y-90872055D01*
X177579061Y-90746192D01*
X177541508Y-90619032D01*
X177532639Y-90572582D01*
X177530026Y-90544187D01*
X177527681Y-90494115D01*
X177526212Y-90443781D01*
X178022550Y-90443781D01*
X178033122Y-90541330D01*
X178063554Y-90635349D01*
X178092208Y-90689494D01*
X178159142Y-90777777D01*
X178238623Y-90848654D01*
X178328055Y-90901147D01*
X178424841Y-90934279D01*
X178526382Y-90947073D01*
X178630083Y-90938552D01*
X178702910Y-90919264D01*
X178745907Y-90903178D01*
X178786812Y-90885818D01*
X178802979Y-90878042D01*
X178848265Y-90847038D01*
X178897588Y-90800844D01*
X178945645Y-90745388D01*
X178987130Y-90686594D01*
X179008618Y-90648267D01*
X179028799Y-90604021D01*
X179041444Y-90565413D01*
X179048801Y-90523121D01*
X179053119Y-90467818D01*
X179053401Y-90462528D01*
X179050033Y-90355283D01*
X179027177Y-90257391D01*
X178983525Y-90163968D01*
X178965755Y-90135439D01*
X178901213Y-90057535D01*
X178822396Y-89995365D01*
X178732760Y-89949869D01*
X178635761Y-89921991D01*
X178534857Y-89912671D01*
X178433505Y-89922853D01*
X178335159Y-89953478D01*
X178321156Y-89959764D01*
X178233204Y-90012713D01*
X178159214Y-90080927D01*
X178100171Y-90161273D01*
X178057058Y-90250620D01*
X178030856Y-90345833D01*
X178022550Y-90443781D01*
X177526212Y-90443781D01*
X177525628Y-90423778D01*
X177523889Y-90334589D01*
G37*
X177523889Y-90334589D02*
X177522486Y-90227960D01*
X177521442Y-90105304D01*
X177520778Y-89968032D01*
X177520517Y-89817558D01*
X177520514Y-89805822D01*
X177520427Y-89114108D01*
X178028131Y-88604082D01*
X178028279Y-89097650D01*
X178028471Y-89201890D01*
X178028960Y-89298635D01*
X178029710Y-89385521D01*
X178030686Y-89460183D01*
X178031855Y-89520258D01*
X178033182Y-89563381D01*
X178034631Y-89587188D01*
X178035539Y-89591218D01*
X178047970Y-89584904D01*
X178072816Y-89568561D01*
X178096950Y-89551359D01*
X178211647Y-89480637D01*
X178333863Y-89431533D01*
X178464246Y-89403857D01*
X178603447Y-89397419D01*
X178621259Y-89398087D01*
X178710894Y-89404639D01*
X178787377Y-89416576D01*
X178859029Y-89436068D01*
X178934167Y-89465285D01*
X179004018Y-89497924D01*
X179131951Y-89573217D01*
X179244871Y-89665197D01*
X179341765Y-89772186D01*
X179421623Y-89892511D01*
X179483433Y-90024496D01*
X179526185Y-90166465D01*
X179548866Y-90316744D01*
X179552427Y-90406414D01*
X179542136Y-90558892D01*
X179510780Y-90703456D01*
X179457635Y-90842692D01*
X179400380Y-90949611D01*
X179314668Y-91069904D01*
X179213055Y-91174753D01*
X179097722Y-91263075D01*
X178970847Y-91333789D01*
X178834611Y-91385812D01*
X178691192Y-91418065D01*
X178542771Y-91429464D01*
X178442525Y-91424981D01*
X178297917Y-91400100D01*
X178157349Y-91353825D01*
X178024176Y-91287846D01*
X177901756Y-91203849D01*
X177793444Y-91103523D01*
X177785050Y-91094357D01*
X177703919Y-90990237D01*
X177634227Y-90872055D01*
X177579061Y-90746192D01*
X177541508Y-90619032D01*
X177532639Y-90572582D01*
X177530026Y-90544187D01*
X177527681Y-90494115D01*
X177526212Y-90443781D01*
X178022550Y-90443781D01*
X178033122Y-90541330D01*
X178063554Y-90635349D01*
X178092208Y-90689494D01*
X178159142Y-90777777D01*
X178238623Y-90848654D01*
X178328055Y-90901147D01*
X178424841Y-90934279D01*
X178526382Y-90947073D01*
X178630083Y-90938552D01*
X178702910Y-90919264D01*
X178745907Y-90903178D01*
X178786812Y-90885818D01*
X178802979Y-90878042D01*
X178848265Y-90847038D01*
X178897588Y-90800844D01*
X178945645Y-90745388D01*
X178987130Y-90686594D01*
X179008618Y-90648267D01*
X179028799Y-90604021D01*
X179041444Y-90565413D01*
X179048801Y-90523121D01*
X179053119Y-90467818D01*
X179053401Y-90462528D01*
X179050033Y-90355283D01*
X179027177Y-90257391D01*
X178983525Y-90163968D01*
X178965755Y-90135439D01*
X178901213Y-90057535D01*
X178822396Y-89995365D01*
X178732760Y-89949869D01*
X178635761Y-89921991D01*
X178534857Y-89912671D01*
X178433505Y-89922853D01*
X178335159Y-89953478D01*
X178321156Y-89959764D01*
X178233204Y-90012713D01*
X178159214Y-90080927D01*
X178100171Y-90161273D01*
X178057058Y-90250620D01*
X178030856Y-90345833D01*
X178022550Y-90443781D01*
X177526212Y-90443781D01*
X177525628Y-90423778D01*
X177523889Y-90334589D01*
D13*
X138100000Y-138750000D02*
X138100000Y-139900000D01*
X145400000Y-138750000D02*
X138100000Y-138750000D01*
X145400000Y-144250000D02*
X138100000Y-144250000D01*
X95392000Y-123448000D02*
X92892000Y-123448000D01*
X100442000Y-110348000D02*
X100442000Y-112348000D01*
X114442000Y-124348000D02*
X114442000Y-122348000D01*
X112442000Y-110348000D02*
X114442000Y-110348000D01*
X114442000Y-110348000D02*
X114442000Y-112348000D01*
X95392000Y-111348000D02*
X95392000Y-123448000D01*
X114442000Y-122348000D02*
X114442000Y-124348000D01*
X92892000Y-123248000D02*
X92892000Y-111348000D01*
X114442000Y-124348000D02*
X112442000Y-124348000D01*
X113442000Y-110348000D02*
X112442000Y-110348000D01*
X114442000Y-110348000D02*
X113442000Y-110348000D01*
X100442000Y-124348000D02*
X100442000Y-122348000D01*
X92892000Y-111348000D02*
X95392000Y-111348000D01*
X92892000Y-123448000D02*
X92892000Y-123248000D01*
X100442000Y-110348000D02*
X102442000Y-110348000D01*
X100442000Y-124348000D02*
X102442000Y-124348000D01*
X100442000Y-122348000D02*
X100442000Y-124348000D01*
X109942000Y-117348000D02*
G75*
G03*
X109942000Y-117348000I-2500000J0D01*
G01*
X133785000Y-45096078D02*
X133785000Y-44578922D01*
X132365000Y-45096078D02*
X132365000Y-44578922D01*
X98936000Y-113808000D02*
X98936000Y-115808000D01*
X98936000Y-115808000D02*
X96136000Y-115808000D01*
X96136000Y-113808000D02*
X98936000Y-113808000D01*
X96136000Y-115808000D02*
X96136000Y-113808000D01*
X96024000Y-111268000D02*
X98824000Y-111268000D01*
X96024000Y-113268000D02*
X96024000Y-111268000D01*
X98824000Y-111268000D02*
X98824000Y-113268000D01*
X98824000Y-113268000D02*
X96024000Y-113268000D01*
X96646078Y-107115000D02*
X96128922Y-107115000D01*
X96646078Y-108535000D02*
X96128922Y-108535000D01*
X220660000Y-124503922D02*
X220660000Y-125021078D01*
X219240000Y-124503922D02*
X219240000Y-125021078D01*
X235265000Y-79346078D02*
X235265000Y-78828922D01*
X236685000Y-79346078D02*
X236685000Y-78828922D01*
X141896078Y-144465000D02*
X141378922Y-144465000D01*
X141896078Y-145885000D02*
X141378922Y-145885000D01*
X184775000Y-136950000D02*
X177475000Y-136950000D01*
X177475000Y-136950000D02*
X177475000Y-138100000D01*
X184775000Y-142450000D02*
X177475000Y-142450000D01*
X99503000Y-99167000D02*
X101453000Y-99167000D01*
X99503000Y-104287000D02*
X97553000Y-104287000D01*
X99503000Y-104287000D02*
X101453000Y-104287000D01*
X99503000Y-99167000D02*
X96053000Y-99167000D01*
X95012000Y-73424000D02*
X95012000Y-69324000D01*
X97212000Y-72674000D02*
X97512000Y-72374000D01*
X95012000Y-69324000D02*
X97012000Y-69324000D01*
X97512000Y-72974000D02*
X97512000Y-72374000D01*
X97212000Y-72674000D02*
X97512000Y-72974000D01*
X97012000Y-73424000D02*
X95012000Y-73424000D01*
X97012000Y-69324000D02*
X97012000Y-73424000D01*
X216571078Y-50635000D02*
X216053922Y-50635000D01*
X216571078Y-49215000D02*
X216053922Y-49215000D01*
X109490000Y-98534000D02*
X111490000Y-98534000D01*
X111490000Y-98534000D02*
X111490000Y-101334000D01*
X111490000Y-101334000D02*
X109490000Y-101334000D01*
X109490000Y-101334000D02*
X109490000Y-98534000D01*
X114030000Y-101334000D02*
X112030000Y-101334000D01*
X114030000Y-98534000D02*
X114030000Y-101334000D01*
X112030000Y-98534000D02*
X114030000Y-98534000D01*
X112030000Y-101334000D02*
X112030000Y-98534000D01*
X110200000Y-129900000D02*
X102900000Y-129900000D01*
X110200000Y-135400000D02*
X102900000Y-135400000D01*
X102900000Y-129900000D02*
X102900000Y-131050000D01*
D10*
X97637600Y-46151800D02*
X91637600Y-46151800D01*
X91637600Y-46151800D02*
X91637600Y-58151800D01*
X91637600Y-58151800D02*
X97637600Y-58151800D01*
X97637600Y-58151800D02*
X97637600Y-46151800D01*
D15*
X105335000Y-102616000D03*
X107875000Y-102616000D03*
X110415000Y-102616000D03*
X112955000Y-102616000D03*
M02*
