M48
; DRILL file {KiCad 5.99.0-unknown-78b555afa2~127~ubuntu20.04.1} date Sat May  1 17:37:54 2021
; FORMAT={-:-/ absolute / inch / decimal}
; #@! TF.CreationDate,2021-05-01T17:37:54+01:00
; #@! TF.GenerationSoftware,Kicad,Pcbnew,5.99.0-unknown-78b555afa2~127~ubuntu20.04.1
; #@! TF.FileFunction,MixedPlating,1,2
FMAT,2
INCH
; #@! TA.AperFunction,Plated,PTH,ViaDrill
T1C0.0157
; #@! TA.AperFunction,Plated,PTH,ComponentDrill
T2C0.0276
; #@! TA.AperFunction,Plated,PTH,ComponentDrill
T3C0.0295
; #@! TA.AperFunction,Plated,PTH,ComponentDrill
T4C0.0300
; #@! TA.AperFunction,Plated,PTH,ComponentDrill
T5C0.0320
; #@! TA.AperFunction,Plated,PTH,ComponentDrill
T6C0.0354
; #@! TA.AperFunction,Plated,PTH,ComponentDrill
T7C0.0394
; #@! TA.AperFunction,Plated,PTH,ComponentDrill
T8C0.0472
; #@! TA.AperFunction,Plated,PTH,ComponentDrill
T9C0.0591
; #@! TA.AperFunction,Plated,PTH,ComponentDrill
T10C0.0866
; #@! TA.AperFunction,Plated,PTH,ComponentDrill
T11C0.1181
; #@! TA.AperFunction,Plated,PTH,ComponentDrill
T12C0.2441
; #@! TA.AperFunction,NonPlated,NPTH,ComponentDrill
T13C0.0394
; #@! TA.AperFunction,NonPlated,NPTH,ComponentDrill
T14C0.0472
; #@! TA.AperFunction,NonPlated,NPTH,ComponentDrill
T15C0.0591
; #@! TA.AperFunction,NonPlated,NPTH,ComponentDrill
T16C0.0669
; #@! TA.AperFunction,NonPlated,NPTH,ComponentDrill
T17C0.0748
; #@! TA.AperFunction,NonPlated,NPTH,ComponentDrill
T18C0.1260
; #@! TA.AperFunction,NonPlated,NPTH,ComponentDrill
T19C0.1575
%
G90
G05
T1
X3.7018Y-3.2717
X3.71Y-3.1816
X3.7185Y-3.1073
X3.7264Y-4.1555
X3.7333Y-5.0797
X3.7598Y-4.2441
X3.77Y-3.4219
X3.8136Y-3.4035
X3.8332Y-4.2451
X3.8451Y-4.599
X3.8743Y-2.8797
X3.8907Y-3.5512
X4.124Y-4.1929
X4.1959Y-3.625
X4.2033Y-5.1847
X4.2292Y-4.1282
X4.3091Y-3.6969
X4.4777Y-3.8222
X4.6634Y-3.8622
X4.7362Y-1.9852
X5.5832Y-5.6293
X5.5965Y-1.6053
X5.6137Y-5.7185
X5.8025Y-2.4682
X6.5506Y-3.773
X7.1314Y-5.4911
X7.5059Y-5.4892
X7.8524Y-1.6161
X8.08Y-2.3978
X8.2717Y-1.6516
X8.4783Y-1.9616
X8.5172Y-1.8197
X8.5423Y-4.9449
X8.5558Y-1.966
X8.6654Y-4.8745
X8.9469Y-3.3612
X8.9567Y-4.9714
X9.0502Y-1.7933
X9.2894Y-3.1506
X9.3495Y-3.3462
T2
X3.9Y-2.078
X3.9Y-2.278
T3
X4.799Y-4.382
X4.799Y-4.682
X4.924Y-3.977
X4.924Y-4.072
X4.934Y-4.832
X4.969Y-2.482
X4.969Y-2.582
X5.224Y-3.977
X5.224Y-4.072
X5.234Y-4.832
X5.269Y-2.482
X5.269Y-2.582
X5.714Y-3.982
X5.719Y-3.882
X5.724Y-2.402
X5.724Y-2.492
X5.804Y-4.782
X6.014Y-3.982
X6.019Y-3.882
X6.024Y-2.402
X6.024Y-2.492
X6.104Y-4.782
X6.4726Y-3.6752
X6.4726Y-3.7702
X6.489Y-4.747
X6.4904Y-2.1722
X6.4904Y-2.2722
X6.7726Y-3.6752
X6.7726Y-3.7702
X6.789Y-4.747
X6.7904Y-2.1722
X6.7904Y-2.2722
X7.219Y-3.797
X7.219Y-3.887
X7.229Y-2.292
X7.229Y-2.392
X7.244Y-4.647
X7.519Y-3.797
X7.519Y-3.887
X7.529Y-2.292
X7.529Y-2.392
X7.544Y-4.647
X7.9667Y-3.9892
X7.9667Y-4.0892
X7.979Y-2.387
X7.979Y-2.482
X7.984Y-4.807
X8.2667Y-3.9892
X8.2667Y-4.0892
X8.279Y-2.387
X8.279Y-2.482
X8.284Y-4.807
X8.709Y-3.977
X8.709Y-4.077
X8.739Y-2.482
X8.739Y-2.577
X9.009Y-3.977
X9.009Y-4.077
X9.039Y-2.482
X9.039Y-2.577
T4
X3.969Y-1.857
X3.969Y-1.957
X3.969Y-2.057
X3.969Y-2.157
X3.969Y-2.257
X3.969Y-2.357
X3.969Y-2.457
X3.969Y-2.557
X3.969Y-2.657
X3.969Y-2.757
X3.969Y-2.857
X3.969Y-2.957
X3.969Y-3.057
X3.969Y-3.157
X3.969Y-3.257
X3.969Y-3.357
X3.969Y-3.457
X3.969Y-3.557
X3.969Y-3.657
X3.969Y-3.757
X4.039Y-1.857
X4.039Y-1.957
X4.039Y-2.057
X4.039Y-2.157
X4.039Y-2.257
X4.039Y-2.357
X4.039Y-2.457
X4.039Y-2.557
X4.039Y-2.657
X4.039Y-2.757
X4.039Y-2.857
X4.039Y-2.957
X4.039Y-3.057
X4.039Y-3.157
X4.039Y-3.257
X4.039Y-3.357
X4.039Y-3.457
X4.039Y-3.557
X4.039Y-3.657
X4.039Y-3.757
X4.569Y-1.857
X4.569Y-1.957
X4.569Y-2.057
X4.569Y-2.157
X4.569Y-2.257
X4.569Y-2.357
X4.569Y-2.457
X4.569Y-2.557
X4.569Y-2.657
X4.569Y-2.757
X4.569Y-2.857
X4.569Y-2.957
X4.569Y-3.057
X4.569Y-3.157
X4.569Y-3.257
X4.569Y-3.357
X4.569Y-3.457
X4.569Y-3.557
X4.569Y-3.657
X4.569Y-3.757
X4.639Y-1.857
X4.639Y-1.957
X4.639Y-2.057
X4.639Y-2.157
X4.639Y-2.257
X4.639Y-2.357
X4.639Y-2.457
X4.639Y-2.557
X4.639Y-2.657
X4.639Y-2.757
X4.639Y-2.857
X4.639Y-2.957
X4.639Y-3.057
X4.639Y-3.157
X4.639Y-3.257
X4.639Y-3.357
X4.639Y-3.457
X4.639Y-3.557
X4.639Y-3.657
X4.639Y-3.757
T5
X4.147Y-4.04
X4.247Y-4.04
X4.347Y-4.04
X4.447Y-4.04
T6
X4.0892Y-4.4695
X4.1892Y-4.4695
X4.2892Y-4.4695
X4.3892Y-4.4695
X4.4833Y-4.4213
X4.4833Y-4.4941
T7
X4.1331Y-4.3391
X4.1331Y-4.91
X4.2316Y-4.91
X4.33Y-4.3391
X4.33Y-4.91
T8
X4.1103Y-5.4541
X4.2789Y-5.5886
X4.3111Y-5.8018
X4.7407Y-5.2561
X4.9218Y-2.0023
X4.9218Y-2.7519
X4.9218Y-3.5015
X4.9218Y-4.2511
X4.9248Y-5.1437
X5.1226Y-1.9235
X5.1226Y-2.6731
X5.1226Y-3.4227
X5.1226Y-4.1724
X5.1362Y-5.1864
X5.3233Y-2.0023
X5.3233Y-2.7519
X5.3233Y-3.5015
X5.3233Y-4.2511
X5.6714Y-1.9149
X5.6714Y-2.6708
X5.6714Y-3.4078
X5.6714Y-4.1574
X5.8722Y-1.8361
X5.8722Y-2.592
X5.8722Y-3.329
X5.8722Y-4.0787
X5.9492Y-5.0165
X6.073Y-1.9149
X6.073Y-2.6708
X6.073Y-3.4078
X6.073Y-4.1574
X6.15Y-4.9377
X6.3508Y-5.0165
X6.4192Y-1.6965
X6.4192Y-2.4461
X6.4192Y-3.1957
X6.4192Y-3.9453
X6.62Y-1.6177
X6.62Y-2.3673
X6.62Y-3.1169
X6.62Y-3.8665
X6.8208Y-1.6965
X6.8208Y-2.4461
X6.8208Y-3.1957
X6.8208Y-3.9453
X6.9392Y-4.8465
X7.14Y-4.7677
X7.1706Y-1.8149
X7.1706Y-2.5645
X7.1706Y-3.3141
X7.1706Y-4.0637
X7.3408Y-4.8465
X7.3714Y-1.7361
X7.3714Y-2.4857
X7.3714Y-3.2353
X7.3714Y-3.985
X7.5722Y-1.8149
X7.5722Y-2.5645
X7.5722Y-3.3141
X7.5722Y-4.0637
X7.9202Y-2.0134
X7.9202Y-2.763
X7.9202Y-3.5126
X7.9202Y-4.2622
X7.9202Y-5.0765
X8.121Y-1.9346
X8.121Y-2.6842
X8.121Y-3.4339
X8.121Y-4.1835
X8.121Y-4.9977
X8.3218Y-2.0134
X8.3218Y-2.763
X8.3218Y-3.5126
X8.3218Y-4.2622
X8.3218Y-5.0765
X8.6692Y-2.0765
X8.6692Y-2.8261
X8.6692Y-3.5757
X8.6692Y-4.3253
X8.87Y-1.9977
X8.87Y-2.7473
X8.87Y-3.4969
X8.87Y-4.2465
X9.0708Y-2.0765
X9.0708Y-2.8261
X9.0708Y-3.5757
X9.0708Y-4.3253
T9
X4.0894Y-5.5248
X4.1641Y-5.5394
X4.1812Y-5.5295
X4.201Y-5.5181
X4.2394Y-5.7846
X4.2641Y-5.7126
X4.2812Y-5.7027
X4.301Y-5.6913
X4.8Y-5.3
X4.8319Y-5.1928
X4.8358Y-5.2153
X4.8393Y-5.2347
X4.9726Y-2.0558
X4.9726Y-2.8054
X4.9726Y-3.555
X4.9726Y-4.3046
X5.0226Y-1.9558
X5.0226Y-1.9787
X5.0226Y-1.9983
X5.0226Y-2.7054
X5.0226Y-2.7283
X5.0226Y-2.7479
X5.0226Y-3.455
X5.0226Y-3.4779
X5.0226Y-3.4976
X5.0226Y-4.2046
X5.0226Y-4.2275
X5.0226Y-4.2472
X5.0288Y-5.1581
X5.0328Y-5.1806
X5.0362Y-5.2
X5.0954Y-5.2479
X5.2226Y-1.9558
X5.2226Y-1.9787
X5.2226Y-1.9983
X5.2226Y-2.7054
X5.2226Y-2.7283
X5.2226Y-2.7479
X5.2226Y-3.455
X5.2226Y-3.4779
X5.2226Y-3.4976
X5.2226Y-4.2046
X5.2226Y-4.2275
X5.2226Y-4.2472
X5.2726Y-2.0558
X5.2726Y-2.8054
X5.2726Y-3.555
X5.2726Y-4.3046
X5.7222Y-1.9684
X5.7222Y-2.7243
X5.7222Y-3.4613
X5.7222Y-4.2109
X5.7722Y-1.8684
X5.7722Y-1.8913
X5.7722Y-1.9109
X5.7722Y-2.6243
X5.7722Y-2.6472
X5.7722Y-2.6668
X5.7722Y-3.3613
X5.7722Y-3.3842
X5.7722Y-3.4039
X5.7722Y-4.1109
X5.7722Y-4.1338
X5.7722Y-4.1535
X5.9722Y-1.8684
X5.9722Y-1.8913
X5.9722Y-1.9109
X5.9722Y-2.6243
X5.9722Y-2.6472
X5.9722Y-2.6668
X5.9722Y-3.3613
X5.9722Y-3.3842
X5.9722Y-3.4039
X5.9722Y-4.1109
X5.9722Y-4.1338
X5.9722Y-4.1535
X6.0Y-5.07
X6.0222Y-1.9684
X6.0222Y-2.7243
X6.0222Y-3.4613
X6.0222Y-4.2109
X6.05Y-4.97
X6.05Y-4.9928
X6.05Y-5.0125
X6.25Y-4.97
X6.25Y-4.9928
X6.25Y-5.0125
X6.3Y-5.07
X6.47Y-1.75
X6.47Y-2.4996
X6.47Y-3.2492
X6.47Y-3.9988
X6.52Y-1.65
X6.52Y-1.6728
X6.52Y-1.6925
X6.52Y-2.3996
X6.52Y-2.4224
X6.52Y-2.4421
X6.52Y-3.1492
X6.52Y-3.172
X6.52Y-3.1917
X6.52Y-3.8988
X6.52Y-3.9217
X6.52Y-3.9413
X6.72Y-1.65
X6.72Y-1.6728
X6.72Y-1.6925
X6.72Y-2.3996
X6.72Y-2.4224
X6.72Y-2.4421
X6.72Y-3.1492
X6.72Y-3.172
X6.72Y-3.1917
X6.72Y-3.8988
X6.72Y-3.9217
X6.72Y-3.9413
X6.77Y-1.75
X6.77Y-2.4996
X6.77Y-3.2492
X6.77Y-3.9988
X6.99Y-4.9
X7.04Y-4.8
X7.04Y-4.8228
X7.04Y-4.8425
X7.2214Y-1.8684
X7.2214Y-2.618
X7.2214Y-3.3676
X7.2214Y-4.1172
X7.24Y-4.8
X7.24Y-4.8228
X7.24Y-4.8425
X7.2714Y-1.7684
X7.2714Y-1.7913
X7.2714Y-1.8109
X7.2714Y-2.518
X7.2714Y-2.5409
X7.2714Y-2.5605
X7.2714Y-3.2676
X7.2714Y-3.2905
X7.2714Y-3.3101
X7.2714Y-4.0172
X7.2714Y-4.0401
X7.2714Y-4.0598
X7.29Y-4.9
X7.4714Y-1.7684
X7.4714Y-1.7913
X7.4714Y-1.8109
X7.4714Y-2.518
X7.4714Y-2.5409
X7.4714Y-2.5605
X7.4714Y-3.2676
X7.4714Y-3.2905
X7.4714Y-3.3101
X7.4714Y-4.0172
X7.4714Y-4.0401
X7.4714Y-4.0598
X7.5214Y-1.8684
X7.5214Y-2.618
X7.5214Y-3.3676
X7.5214Y-4.1172
X7.971Y-2.0669
X7.971Y-2.8165
X7.971Y-3.5661
X7.971Y-4.3157
X7.971Y-5.13
X8.021Y-1.9669
X8.021Y-1.9898
X8.021Y-2.0094
X8.021Y-2.7165
X8.021Y-2.7394
X8.021Y-2.759
X8.021Y-3.4661
X8.021Y-3.489
X8.021Y-3.5087
X8.021Y-4.2157
X8.021Y-4.2386
X8.021Y-4.2583
X8.021Y-5.03
X8.021Y-5.0528
X8.021Y-5.0725
X8.221Y-1.9669
X8.221Y-1.9898
X8.221Y-2.0094
X8.221Y-2.7165
X8.221Y-2.7394
X8.221Y-2.759
X8.221Y-3.4661
X8.221Y-3.489
X8.221Y-3.5087
X8.221Y-4.2157
X8.221Y-4.2386
X8.221Y-4.2583
X8.221Y-5.03
X8.221Y-5.0528
X8.221Y-5.0725
X8.271Y-2.0669
X8.271Y-2.8165
X8.271Y-3.5661
X8.271Y-4.3157
X8.271Y-5.13
X8.72Y-2.13
X8.72Y-2.8796
X8.72Y-3.6292
X8.72Y-4.3788
X8.77Y-2.03
X8.77Y-2.0528
X8.77Y-2.0725
X8.77Y-2.7796
X8.77Y-2.8024
X8.77Y-2.8221
X8.77Y-3.5292
X8.77Y-3.552
X8.77Y-3.5717
X8.77Y-4.2788
X8.77Y-4.3017
X8.77Y-4.3213
X8.97Y-2.03
X8.97Y-2.0528
X8.97Y-2.0725
X8.97Y-2.7796
X8.97Y-2.8024
X8.97Y-2.8221
X8.97Y-3.5292
X8.97Y-3.552
X8.97Y-3.5717
X8.97Y-4.2788
X8.97Y-4.3017
X8.97Y-4.3213
X9.02Y-2.13
X9.02Y-2.8796
X9.02Y-3.6292
X9.02Y-4.3788
T10
X6.2362Y-2.998
X6.9862Y-2.248
X6.9862Y-3.748
X7.7362Y-2.998
T12
X6.9862Y-2.998
T13
X3.8318Y-5.6094
X4.0373Y-5.9654
X4.7914Y-5.571
X4.917Y-2.3212
X4.917Y-3.0708
X4.917Y-3.8204
X4.917Y-4.57
X5.1962Y-5.4996
X5.3281Y-2.3212
X5.3281Y-3.0708
X5.3281Y-3.8204
X5.3281Y-4.57
X5.6667Y-2.2338
X5.6667Y-2.9897
X5.6667Y-3.7267
X5.6667Y-4.4763
X5.9445Y-5.3354
X6.0777Y-2.2338
X6.0777Y-2.9897
X6.0777Y-3.7267
X6.0777Y-4.4763
X6.3555Y-5.3354
X6.4145Y-2.0154
X6.4145Y-2.765
X6.4145Y-3.5146
X6.4145Y-4.2642
X6.8255Y-2.0154
X6.8255Y-2.765
X6.8255Y-3.5146
X6.8255Y-4.2642
X6.9345Y-5.1654
X7.1659Y-2.1338
X7.1659Y-2.8834
X7.1659Y-3.633
X7.1659Y-4.3826
X7.3455Y-5.1654
X7.5769Y-2.1338
X7.5769Y-2.8834
X7.5769Y-3.633
X7.5769Y-4.3826
X7.9155Y-2.3323
X7.9155Y-3.0819
X7.9155Y-3.8315
X7.9155Y-4.5811
X7.9155Y-5.3954
X8.3265Y-2.3323
X8.3265Y-3.0819
X8.3265Y-3.8315
X8.3265Y-4.5811
X8.3265Y-5.3954
X8.6645Y-2.3954
X8.6645Y-3.145
X8.6645Y-3.8946
X8.6645Y-4.6442
X9.0755Y-2.3954
X9.0755Y-3.145
X9.0755Y-3.8946
X9.0755Y-4.6442
T14
X3.657Y-1.8761
X3.657Y-2.1516
X3.7259Y-1.8761
X3.7259Y-2.1516
T15
X3.9911Y-4.4695
T16
X3.9778Y-5.5315
X4.1778Y-5.8779
X4.7681Y-5.4072
X4.9226Y-2.1558
X4.9226Y-2.9054
X4.9226Y-3.655
X4.9226Y-4.4046
X5.162Y-5.3377
X5.3226Y-2.1558
X5.3226Y-2.9054
X5.3226Y-3.655
X5.3226Y-4.4046
X5.6722Y-2.0684
X5.6722Y-2.8243
X5.6722Y-3.5613
X5.6722Y-4.3109
X5.95Y-5.17
X6.0722Y-2.0684
X6.0722Y-2.8243
X6.0722Y-3.5613
X6.0722Y-4.3109
X6.35Y-5.17
X6.42Y-1.85
X6.42Y-2.5996
X6.42Y-3.3492
X6.42Y-4.0988
X6.82Y-1.85
X6.82Y-2.5996
X6.82Y-3.3492
X6.82Y-4.0988
X6.94Y-5.0
X7.1714Y-1.9684
X7.1714Y-2.718
X7.1714Y-3.4676
X7.1714Y-4.2172
X7.34Y-5.0
X7.5714Y-1.9684
X7.5714Y-2.718
X7.5714Y-3.4676
X7.5714Y-4.2172
X7.921Y-2.1669
X7.921Y-2.9165
X7.921Y-3.6661
X7.921Y-4.4157
X7.921Y-5.23
X8.321Y-2.1669
X8.321Y-2.9165
X8.321Y-3.6661
X8.321Y-4.4157
X8.321Y-5.23
X8.67Y-2.23
X8.67Y-2.9796
X8.67Y-3.7292
X8.67Y-4.4788
X9.07Y-2.23
X9.07Y-2.9796
X9.07Y-3.7292
X9.07Y-4.4788
T17
X3.9695Y-5.5172
X4.186Y-5.8922
X4.7518Y-5.41
X4.906Y-2.1558
X4.906Y-2.9054
X4.906Y-3.655
X4.906Y-4.4046
X5.1783Y-5.3348
X5.3391Y-2.1558
X5.3391Y-2.9054
X5.3391Y-3.655
X5.3391Y-4.4046
X5.6556Y-2.0684
X5.6556Y-2.8243
X5.6556Y-3.5613
X5.6556Y-4.3109
X5.9335Y-5.17
X6.0887Y-2.0684
X6.0887Y-2.8243
X6.0887Y-3.5613
X6.0887Y-4.3109
X6.3665Y-5.17
X6.4035Y-1.85
X6.4035Y-2.5996
X6.4035Y-3.3492
X6.4035Y-4.0988
X6.8365Y-1.85
X6.8365Y-2.5996
X6.8365Y-3.3492
X6.8365Y-4.0988
X6.9235Y-5.0
X7.1548Y-1.9684
X7.1548Y-2.718
X7.1548Y-3.4676
X7.1548Y-4.2172
X7.3565Y-5.0
X7.5879Y-1.9684
X7.5879Y-2.718
X7.5879Y-3.4676
X7.5879Y-4.2172
X7.9044Y-2.1669
X7.9044Y-2.9165
X7.9044Y-3.6661
X7.9044Y-4.4157
X7.9044Y-5.23
X8.3375Y-2.1669
X8.3375Y-2.9165
X8.3375Y-3.6661
X8.3375Y-4.4157
X8.3375Y-5.23
X8.6535Y-2.23
X8.6535Y-2.9796
X8.6535Y-3.7292
X8.6535Y-4.4788
X9.0865Y-2.23
X9.0865Y-2.9796
X9.0865Y-3.7292
X9.0865Y-4.4788
T18
X3.692Y-2.583
X3.76Y-5.29
X4.639Y-4.155
X5.5Y-2.15
X8.49Y-2.15
X8.841Y-5.244
T19
X4.0778Y-5.7047
X4.9651Y-5.3724
X5.1226Y-2.1558
X5.1226Y-2.9054
X5.1226Y-3.655
X5.1226Y-4.4046
X5.8722Y-2.0684
X5.8722Y-2.8243
X5.8722Y-3.5613
X5.8722Y-4.3109
X6.15Y-5.17
X6.62Y-1.85
X6.62Y-2.5996
X6.62Y-3.3492
X6.62Y-4.0988
X7.14Y-5.0
X7.3714Y-1.9684
X7.3714Y-2.718
X7.3714Y-3.4676
X7.3714Y-4.2172
X8.121Y-2.1669
X8.121Y-2.9165
X8.121Y-3.6661
X8.121Y-4.4157
X8.121Y-5.23
X8.87Y-2.23
X8.87Y-2.9796
X8.87Y-3.7292
X8.87Y-4.4788
T7
G00X3.5743Y-1.9568
M15
G01X3.5743Y-1.9371
M16
G05
G00X3.5743Y-2.0749
M15
G01X3.5743Y-2.0552
M16
G05
G00X3.5743Y-2.2324
M15
G01X3.5743Y-2.2127
M16
G05
G00X3.6432Y-2.2914
M15
G01X3.6432Y-2.2717
M16
G05
G00X3.7172Y-4.42
M15
G01X3.6976Y-4.42
M16
G05
G00X3.7172Y-4.52
M15
G01X3.6976Y-4.52
M16
G05
G00X3.7172Y-4.62
M15
G01X3.6976Y-4.62
M16
G05
G00X3.7172Y-4.72
M15
G01X3.6976Y-4.72
M16
G05
G00X3.7172Y-4.82
M15
G01X3.6976Y-4.82
M16
G05
G00X3.7397Y-2.2914
M15
G01X3.7397Y-2.2717
M16
G05
G00X3.8086Y-1.9568
M15
G01X3.8086Y-1.9371
M16
G05
G00X3.8086Y-2.0749
M15
G01X3.8086Y-2.0552
M16
G05
G00X3.8086Y-2.2324
M15
G01X3.8086Y-2.2127
M16
G05
T9
G00X4.0111Y-4.6403
M15
G01X4.0111Y-4.5891
M16
G05
G00X4.452Y-4.6403
M15
G01X4.452Y-4.5891
M16
G05
T11
G00X4.0233Y-4.2342
M15
G01X4.0036Y-4.2342
M16
G05
G00X4.0233Y-5.0058
M15
G01X4.0036Y-5.0058
M16
G05
G00X4.4564Y-4.2342
M15
G01X4.4367Y-4.2342
M16
G05
G00X4.4564Y-5.0058
M15
G01X4.4367Y-5.0058
M16
G05
T0
M30
