G04 #@! TF.GenerationSoftware,KiCad,Pcbnew,5.99.0-unknown-78b555afa2~127~ubuntu20.04.1*
G04 #@! TF.CreationDate,2021-05-01T17:37:37+01:00*
G04 #@! TF.ProjectId,grandiceps-rev2,6772616e-6469-4636-9570-732d72657632,rev?*
G04 #@! TF.SameCoordinates,Original*
G04 #@! TF.FileFunction,Profile,NP*
%FSLAX46Y46*%
G04 Gerber Fmt 4.6, Leading zero omitted, Abs format (unit mm)*
G04 Created by KiCad (PCBNEW 5.99.0-unknown-78b555afa2~127~ubuntu20.04.1) date 2021-05-01 17:37:37*
%MOMM*%
%LPD*%
G01*
G04 APERTURE LIST*
G04 #@! TA.AperFunction,Profile*
%ADD10C,0.200000*%
G04 #@! TD*
G04 #@! TA.AperFunction,Profile*
%ADD11C,0.050000*%
G04 #@! TD*
G04 APERTURE END LIST*
D10*
X238491865Y-50956764D02*
X238494865Y-52905064D01*
X224523055Y-140822406D02*
G75*
G02*
X189065523Y-143511504I-26529190J114694842D01*
G01*
X89828361Y-146558168D02*
G75*
G02*
X88598024Y-141717024I8769600J4805633D01*
G01*
X89828360Y-146558168D02*
X93642096Y-153517697D01*
X119825000Y-43678271D02*
G75*
G02*
X226404904Y-41620387I57455865J-214727993D01*
G01*
X105057893Y-158355593D02*
G75*
G02*
X93642096Y-153517697I-2646197J9643529D01*
G01*
X238439721Y-113133106D02*
G75*
G02*
X229679634Y-137794567I-33963856J-1822158D01*
G01*
X238494865Y-60326464D02*
X238494865Y-52905064D01*
X88662065Y-45632864D02*
X88663365Y-123317264D01*
X238494865Y-70236264D02*
X238439865Y-113133264D01*
X88663365Y-123317264D02*
X88598024Y-141717024D01*
X229679634Y-137794567D02*
G75*
G02*
X224523055Y-140822406I-7410106J6714934D01*
G01*
X133010865Y-150685264D02*
X105057892Y-158355593D01*
X234083142Y-43881122D02*
G75*
G02*
X238491848Y-50956796I-3256277J-6940242D01*
G01*
X88662065Y-45632864D02*
X119649865Y-45658264D01*
X119649865Y-45658264D02*
X119825865Y-43677664D01*
X133011799Y-150684906D02*
G75*
G02*
X189065924Y-143511167I54239066J-201228358D01*
G01*
X238494865Y-70236264D02*
X238494865Y-60326464D01*
X226404865Y-41620164D02*
X234082865Y-43881064D01*
D11*
X100375000Y-128950000D02*
X113975000Y-128950000D01*
X113975000Y-126550000D02*
X100375000Y-126550000D01*
X114275000Y-128650000D02*
X114275000Y-126850000D01*
X100075000Y-126850000D02*
X100075000Y-128650000D01*
X100075000Y-126850000D02*
G75*
G02*
X100375000Y-126550000I300000J0D01*
G01*
X100375000Y-128950000D02*
G75*
G02*
X100075000Y-128650000I0J300000D01*
G01*
X113975000Y-126550000D02*
G75*
G02*
X114275000Y-126850000I0J-300000D01*
G01*
X114275000Y-128650000D02*
G75*
G02*
X113975000Y-128950000I-300000J0D01*
G01*
M02*
