G04 #@! TF.GenerationSoftware,KiCad,Pcbnew,5.99.0-unknown-78b555afa2~127~ubuntu20.04.1*
G04 #@! TF.CreationDate,2021-05-01T17:37:31+01:00*
G04 #@! TF.ProjectId,grandiceps-rev2,6772616e-6469-4636-9570-732d72657632,rev?*
G04 #@! TF.SameCoordinates,Original*
G04 #@! TF.FileFunction,Soldermask,Top*
G04 #@! TF.FilePolarity,Negative*
%FSLAX46Y46*%
G04 Gerber Fmt 4.6, Leading zero omitted, Abs format (unit mm)*
G04 Created by KiCad (PCBNEW 5.99.0-unknown-78b555afa2~127~ubuntu20.04.1) date 2021-05-01 17:37:31*
%MOMM*%
%LPD*%
G01*
G04 APERTURE LIST*
G04 Aperture macros list*
%AMRoundRect*
0 Rectangle with rounded corners*
0 $1 Rounding radius*
0 $2 $3 $4 $5 $6 $7 $8 $9 X,Y pos of 4 corners*
0 Add a 4 corners polygon primitive as box body*
4,1,4,$2,$3,$4,$5,$6,$7,$8,$9,$2,$3,0*
0 Add four circle primitives for the rounded corners*
1,1,$1+$1,$2,$3*
1,1,$1+$1,$4,$5*
1,1,$1+$1,$6,$7*
1,1,$1+$1,$8,$9*
0 Add four rect primitives between the rounded corners*
20,1,$1+$1,$2,$3,$4,$5,0*
20,1,$1+$1,$4,$5,$6,$7,0*
20,1,$1+$1,$6,$7,$8,$9,0*
20,1,$1+$1,$8,$9,$2,$3,0*%
%AMHorizOval*
0 Thick line with rounded ends*
0 $1 width*
0 $2 $3 position (X,Y) of the first rounded end (center of the circle)*
0 $4 $5 position (X,Y) of the second rounded end (center of the circle)*
0 Add line between two ends*
20,1,$1,$2,$3,$4,$5,0*
0 Add two circle primitives to create the rounded ends*
1,1,$1,$2,$3*
1,1,$1,$4,$5*%
G04 Aperture macros list end*
%ADD10C,1.702000*%
%ADD11C,1.602000*%
%ADD12RoundRect,0.051000X1.000000X-1.000000X1.000000X1.000000X-1.000000X1.000000X-1.000000X-1.000000X0*%
%ADD13C,2.102000*%
%ADD14RoundRect,0.051000X1.000000X-1.600000X1.000000X1.600000X-1.000000X1.600000X-1.000000X-1.600000X0*%
%ADD15C,1.626000*%
%ADD16C,1.502000*%
%ADD17O,1.502000X1.502000*%
%ADD18RoundRect,0.051000X0.750000X0.500000X-0.750000X0.500000X-0.750000X-0.500000X0.750000X-0.500000X0*%
%ADD19RoundRect,0.051000X0.500000X-0.750000X0.500000X0.750000X-0.500000X0.750000X-0.500000X-0.750000X0*%
%ADD20RoundRect,0.269250X0.269250X0.481750X-0.269250X0.481750X-0.269250X-0.481750X0.269250X-0.481750X0*%
%ADD21RoundRect,0.051000X-0.750000X0.500000X-0.750000X-0.500000X0.750000X-0.500000X0.750000X0.500000X0*%
%ADD22RoundRect,0.051000X-0.500000X-0.750000X0.500000X-0.750000X0.500000X0.750000X-0.500000X0.750000X0*%
%ADD23RoundRect,0.269250X0.481750X-0.269250X0.481750X0.269250X-0.481750X0.269250X-0.481750X-0.269250X0*%
%ADD24RoundRect,0.051000X-0.750000X-0.500000X0.750000X-0.500000X0.750000X0.500000X-0.750000X0.500000X0*%
%ADD25C,6.902000*%
%ADD26C,4.502000*%
%ADD27RoundRect,0.450500X0.700500X0.450500X-0.700500X0.450500X-0.700500X-0.450500X0.700500X-0.450500X0*%
%ADD28RoundRect,0.450500X-0.700500X0.450500X-0.700500X-0.450500X0.700500X-0.450500X0.700500X0.450500X0*%
%ADD29O,3.902000X3.402000*%
%ADD30RoundRect,0.269250X-0.481750X0.269250X-0.481750X-0.269250X0.481750X-0.269250X0.481750X0.269250X0*%
%ADD31RoundRect,0.175500X-0.850500X-0.175500X0.850500X-0.175500X0.850500X0.175500X-0.850500X0.175500X0*%
%ADD32RoundRect,0.051000X0.750000X-0.500000X0.750000X0.500000X-0.750000X0.500000X-0.750000X-0.500000X0*%
%ADD33RoundRect,0.051000X0.750000X0.750000X-0.750000X0.750000X-0.750000X-0.750000X0.750000X-0.750000X0*%
%ADD34O,1.602000X1.602000*%
%ADD35RoundRect,0.051000X0.750000X-0.750000X0.750000X0.750000X-0.750000X0.750000X-0.750000X-0.750000X0*%
%ADD36C,3.302000*%
%ADD37C,1.102000*%
%ADD38C,2.002000*%
%ADD39C,1.802000*%
%ADD40C,4.102000*%
%ADD41HorizOval,1.352000X-0.305324X-0.363871X0.305324X0.363871X0*%
%ADD42HorizOval,1.652000X-0.401742X0.478778X0.401742X-0.478778X0*%
%ADD43HorizOval,1.352000X-0.305324X0.363871X0.305324X-0.363871X0*%
%ADD44C,2.502000*%
%ADD45HorizOval,1.652000X-0.401742X-0.478778X0.401742X0.478778X0*%
%ADD46C,2.302000*%
%ADD47HorizOval,1.652000X0.213763X0.587308X-0.213763X-0.587308X0*%
%ADD48HorizOval,1.352000X0.162460X0.446354X-0.162460X-0.446354X0*%
%ADD49HorizOval,1.352000X-0.467784X0.082483X0.467784X-0.082483X0*%
%ADD50HorizOval,1.652000X-0.615505X0.108530X0.615505X-0.108530X0*%
%ADD51HorizOval,1.352000X-0.363871X0.305324X0.363871X-0.305324X0*%
%ADD52HorizOval,1.352000X-0.237500X-0.411362X0.237500X0.411362X0*%
%ADD53HorizOval,1.652000X-0.478778X0.401742X0.478778X-0.401742X0*%
%ADD54HorizOval,1.652000X-0.312500X-0.541266X0.312500X0.541266X0*%
%ADD55C,1.302000*%
%ADD56O,1.802000X2.602000*%
G04 APERTURE END LIST*
D10*
X113875000Y-112300000D03*
X113875000Y-114150000D03*
X111485000Y-113525000D03*
X108945000Y-113525000D03*
X106405000Y-113525000D03*
X103865000Y-113525000D03*
D11*
X101375000Y-113525000D03*
D12*
X109982000Y-124714000D03*
D13*
X104982000Y-124714000D03*
X107482000Y-124714000D03*
D14*
X101882000Y-117214000D03*
X113082000Y-117214000D03*
D13*
X104982000Y-110214000D03*
X109982000Y-110214000D03*
D15*
X100813000Y-47167800D03*
X117831000Y-47167800D03*
X117831000Y-49707800D03*
X100813000Y-49707800D03*
X100813000Y-52247800D03*
X117831000Y-52247800D03*
X100813000Y-54787800D03*
X117831000Y-54787800D03*
X117831000Y-57327800D03*
X100813000Y-57327800D03*
X117831000Y-59867800D03*
X100813000Y-59867800D03*
X117831000Y-62407800D03*
X100813000Y-62407800D03*
X117831000Y-64947800D03*
X100813000Y-64947800D03*
X117831000Y-67487800D03*
X100813000Y-67487800D03*
X117831000Y-70027800D03*
X100813000Y-70027800D03*
X100813000Y-72567800D03*
X117831000Y-72567800D03*
X100813000Y-75107800D03*
X117831000Y-75107800D03*
X117831000Y-77647800D03*
X100813000Y-77647800D03*
X100813000Y-80187800D03*
X117831000Y-80187800D03*
X100813000Y-82727800D03*
X117831000Y-82727800D03*
X117831000Y-85267800D03*
X100813000Y-85267800D03*
X117831000Y-87807800D03*
X100813000Y-87807800D03*
X117831000Y-90347800D03*
X100813000Y-90347800D03*
X100813000Y-92887800D03*
X117831000Y-92887800D03*
X100813000Y-95427800D03*
X117831000Y-95427800D03*
X116053000Y-95427800D03*
X102591000Y-95427800D03*
X116053000Y-92887800D03*
X102591000Y-92887800D03*
X102591000Y-90347800D03*
X116053000Y-90347800D03*
X116053000Y-87807800D03*
X102591000Y-87807800D03*
X116053000Y-85267800D03*
X102591000Y-85267800D03*
X102591000Y-82727800D03*
X116053000Y-82727800D03*
X102591000Y-80187800D03*
X116053000Y-80187800D03*
X102591000Y-77647800D03*
X116053000Y-77647800D03*
X116053000Y-75107800D03*
X102591000Y-75107800D03*
X102591000Y-72567800D03*
X116053000Y-72567800D03*
X116053000Y-70027800D03*
X102591000Y-70027800D03*
X102591000Y-67487800D03*
X116053000Y-67487800D03*
X116053000Y-64947800D03*
X102591000Y-64947800D03*
X102591000Y-62407800D03*
X116053000Y-62407800D03*
X102591000Y-59867800D03*
X116053000Y-59867800D03*
X116053000Y-57327800D03*
X102591000Y-57327800D03*
X102591000Y-54787800D03*
X116053000Y-54787800D03*
X102591000Y-52247800D03*
X116053000Y-52247800D03*
X116053000Y-49707800D03*
X102591000Y-49707800D03*
X116053000Y-47167800D03*
X102591000Y-47167800D03*
D16*
X99060000Y-57861200D03*
D17*
X99060000Y-52781200D03*
D18*
X229018000Y-126568000D03*
X229018000Y-123368000D03*
X224118000Y-123368000D03*
X224118000Y-126568000D03*
D19*
X92634000Y-81444000D03*
X95834000Y-81444000D03*
X95834000Y-76544000D03*
X92634000Y-76544000D03*
D20*
X95575000Y-86950000D03*
X93700000Y-86950000D03*
X94750000Y-128950000D03*
X92875000Y-128950000D03*
D18*
X235650000Y-85425000D03*
X235650000Y-82225000D03*
X230750000Y-82225000D03*
X230750000Y-85425000D03*
D21*
X105410000Y-99284000D03*
X105410000Y-100584000D03*
D18*
X219366000Y-46812000D03*
X219366000Y-43612000D03*
X214466000Y-43612000D03*
X214466000Y-46812000D03*
D22*
X96744000Y-122428000D03*
X98044000Y-122428000D03*
D23*
X188625000Y-141162500D03*
X188625000Y-139287500D03*
D21*
X107950000Y-99284000D03*
X107950000Y-100584000D03*
D24*
X136488000Y-43612000D03*
X136488000Y-46812000D03*
X141388000Y-46812000D03*
X141388000Y-43612000D03*
D25*
X177450000Y-76150000D03*
D26*
X177450000Y-57100000D03*
X177450000Y-95200000D03*
X196500000Y-76150000D03*
X158400000Y-76150000D03*
D18*
X144200000Y-143100000D03*
X144200000Y-139900000D03*
X139300000Y-139900000D03*
X139300000Y-143100000D03*
D27*
X94168000Y-122428000D03*
D28*
X94168000Y-119888000D03*
X94168000Y-117348000D03*
X94168000Y-114808000D03*
X94168000Y-112268000D03*
D29*
X101942000Y-107548000D03*
X112942000Y-107548000D03*
X112942000Y-127148000D03*
X101942000Y-127148000D03*
D23*
X133075000Y-45775000D03*
X133075000Y-43900000D03*
D22*
X96886000Y-114808000D03*
X98186000Y-114808000D03*
X96774000Y-112268000D03*
X98074000Y-112268000D03*
D20*
X97325000Y-107825000D03*
X95450000Y-107825000D03*
D30*
X219950000Y-123825000D03*
X219950000Y-125700000D03*
D23*
X235975000Y-80025000D03*
X235975000Y-78150000D03*
D20*
X142575000Y-145175000D03*
X140700000Y-145175000D03*
D18*
X183575000Y-141300000D03*
X183575000Y-138100000D03*
X178675000Y-138100000D03*
X178675000Y-141300000D03*
D31*
X97028000Y-99822000D03*
X97028000Y-101092000D03*
X97028000Y-102362000D03*
X97028000Y-103632000D03*
X101978000Y-103632000D03*
X101978000Y-102362000D03*
X101978000Y-101092000D03*
X101978000Y-99822000D03*
D32*
X96012000Y-72674000D03*
X96012000Y-71374000D03*
X96012000Y-70074000D03*
D20*
X217250000Y-49925000D03*
X215375000Y-49925000D03*
D21*
X110490000Y-99284000D03*
X110490000Y-100584000D03*
X113030000Y-99284000D03*
X113030000Y-100584000D03*
D18*
X109000000Y-134250000D03*
X109000000Y-131050000D03*
X104100000Y-131050000D03*
X104100000Y-134250000D03*
D33*
X229591000Y-63042800D03*
D34*
X221971000Y-63042800D03*
D33*
X210287000Y-60629800D03*
D34*
X202667000Y-60629800D03*
D33*
X191237000Y-58216800D03*
D34*
X183617000Y-58216800D03*
D33*
X172475000Y-55175000D03*
D34*
X164855000Y-55175000D03*
D33*
X153010000Y-61010800D03*
D34*
X145390000Y-61010800D03*
D33*
X155042000Y-121463000D03*
D34*
X147422000Y-121463000D03*
D33*
X132944000Y-122733000D03*
D34*
X125324000Y-122733000D03*
D35*
X121895000Y-118923000D03*
D34*
X121895000Y-111303000D03*
D33*
X229591000Y-65455800D03*
D34*
X221971000Y-65455800D03*
D33*
X210287000Y-63042800D03*
D34*
X202667000Y-63042800D03*
D33*
X191237000Y-60756800D03*
D34*
X183617000Y-60756800D03*
D33*
X172475000Y-57715000D03*
D34*
X164855000Y-57715000D03*
D33*
X153010000Y-63296800D03*
D34*
X145390000Y-63296800D03*
D33*
X133833000Y-65582800D03*
D34*
X126213000Y-65582800D03*
D33*
X228829000Y-101016000D03*
D34*
X221209000Y-101016000D03*
D33*
X209975000Y-101325000D03*
D34*
X202355000Y-101325000D03*
D33*
X190983000Y-96443800D03*
D34*
X183363000Y-96443800D03*
D33*
X172025000Y-93350000D03*
D34*
X164405000Y-93350000D03*
D33*
X152883000Y-98602800D03*
D34*
X145263000Y-98602800D03*
D33*
X132690000Y-101016000D03*
D34*
X125070000Y-101016000D03*
D33*
X228829000Y-103556000D03*
D34*
X221209000Y-103556000D03*
D33*
X209975000Y-103865200D03*
D34*
X202355000Y-103865200D03*
D33*
X190983000Y-98729800D03*
D34*
X183363000Y-98729800D03*
D33*
X172025000Y-95763000D03*
D34*
X164405000Y-95763000D03*
D33*
X152756000Y-101143000D03*
D34*
X145136000Y-101143000D03*
D33*
X132690000Y-103429000D03*
D34*
X125070000Y-103429000D03*
D33*
X210414000Y-122098000D03*
D34*
X202794000Y-122098000D03*
D33*
X191618000Y-118034000D03*
D34*
X183998000Y-118034000D03*
D33*
X172441000Y-120574000D03*
D34*
X164821000Y-120574000D03*
D36*
X215646000Y-54610000D03*
X117831000Y-105537000D03*
X95504000Y-134366000D03*
X224561000Y-133198000D03*
X139700000Y-54610000D03*
X93776600Y-65608200D03*
D37*
X230518000Y-79882000D03*
D38*
X219798000Y-75682000D03*
X230798000Y-75682000D03*
D39*
X230378000Y-75682000D03*
D37*
X220078000Y-79882000D03*
D39*
X220218000Y-75682000D03*
D40*
X225298000Y-75682000D03*
D41*
X220198000Y-71782000D03*
D42*
X229108000Y-73142000D03*
D43*
X230398000Y-71782000D03*
D44*
X227838000Y-71682000D03*
X227838000Y-70602000D03*
X227838000Y-71182000D03*
D45*
X221488000Y-73142000D03*
D44*
X222758000Y-71182000D03*
X222758000Y-71682000D03*
D46*
X225298000Y-69782000D03*
D44*
X222758000Y-70602000D03*
D39*
X211353000Y-55039800D03*
D37*
X211493000Y-59239800D03*
D38*
X200773000Y-55039800D03*
D39*
X201193000Y-55039800D03*
D38*
X211773000Y-55039800D03*
D40*
X206273000Y-55039800D03*
D37*
X201053000Y-59239800D03*
D43*
X211373000Y-51139800D03*
D44*
X208813000Y-51039800D03*
D42*
X210083000Y-52499800D03*
D44*
X208813000Y-50539800D03*
D41*
X201173000Y-51139800D03*
D44*
X208813000Y-49959800D03*
X203733000Y-50539800D03*
X203733000Y-51039800D03*
D46*
X206273000Y-49139800D03*
D45*
X202463000Y-52499800D03*
D44*
X203733000Y-49959800D03*
D38*
X143653000Y-109498000D03*
X154653000Y-109498000D03*
D37*
X154373000Y-113698000D03*
D39*
X154233000Y-109498000D03*
D37*
X143933000Y-113698000D03*
D40*
X149153000Y-109498000D03*
D39*
X144073000Y-109498000D03*
D41*
X144053000Y-105598000D03*
D42*
X152963000Y-106958000D03*
D43*
X154253000Y-105598000D03*
D44*
X151693000Y-104998000D03*
X151693000Y-104418000D03*
X151693000Y-105498000D03*
D45*
X145343000Y-106958000D03*
D44*
X146613000Y-105498000D03*
X146613000Y-104418000D03*
X146613000Y-104998000D03*
D46*
X149153000Y-103598000D03*
D38*
X135613000Y-111878000D03*
D39*
X125033000Y-111878000D03*
D37*
X135333000Y-116078000D03*
D39*
X135193000Y-111878000D03*
D38*
X124613000Y-111878000D03*
D40*
X130113000Y-111878000D03*
D37*
X124893000Y-116078000D03*
D42*
X133923000Y-109338000D03*
D44*
X132653000Y-107378000D03*
D43*
X135213000Y-107978000D03*
D44*
X132653000Y-106798000D03*
X132653000Y-107878000D03*
D41*
X125013000Y-107978000D03*
D44*
X127573000Y-107878000D03*
D46*
X130113000Y-105978000D03*
D44*
X127573000Y-107378000D03*
D45*
X126303000Y-109338000D03*
D44*
X127573000Y-106798000D03*
D37*
X162928000Y-108310200D03*
D38*
X162648000Y-104110200D03*
D40*
X168148000Y-104110200D03*
D37*
X173368000Y-108310200D03*
D38*
X173648000Y-104110200D03*
D39*
X163068000Y-104110200D03*
X173228000Y-104110200D03*
D43*
X173248000Y-100210200D03*
D41*
X163048000Y-100210200D03*
D44*
X170688000Y-99610200D03*
D42*
X171958000Y-101570200D03*
D44*
X170688000Y-100110200D03*
X170688000Y-99030200D03*
X165608000Y-100110200D03*
D45*
X164338000Y-101570200D03*
D44*
X165608000Y-99030200D03*
D46*
X168148000Y-98210200D03*
D44*
X165608000Y-99610200D03*
D39*
X125033000Y-54757800D03*
D37*
X124893000Y-58957800D03*
D38*
X124613000Y-54757800D03*
X135613000Y-54757800D03*
D37*
X135333000Y-58957800D03*
D40*
X130113000Y-54757800D03*
D39*
X135193000Y-54757800D03*
D43*
X135213000Y-50857800D03*
D44*
X132653000Y-50257800D03*
X132653000Y-49677800D03*
X132653000Y-50757800D03*
D41*
X125013000Y-50857800D03*
D42*
X133923000Y-52217800D03*
D44*
X127573000Y-50257800D03*
X127573000Y-49677800D03*
X127573000Y-50757800D03*
D45*
X126303000Y-52217800D03*
D46*
X130113000Y-48857800D03*
D37*
X201053000Y-137042000D03*
D38*
X211773000Y-132842000D03*
D40*
X206273000Y-132842000D03*
D38*
X200773000Y-132842000D03*
D39*
X201193000Y-132842000D03*
D37*
X211493000Y-137042000D03*
D39*
X211353000Y-132842000D03*
D44*
X208813000Y-128342000D03*
X208813000Y-127762000D03*
D43*
X211373000Y-128942000D03*
D41*
X201173000Y-128942000D03*
D42*
X210083000Y-130302000D03*
D44*
X208813000Y-128842000D03*
X203733000Y-127762000D03*
X203733000Y-128342000D03*
D45*
X202463000Y-130302000D03*
D44*
X203733000Y-128842000D03*
D46*
X206273000Y-126942000D03*
D39*
X144073000Y-52537800D03*
D40*
X149153000Y-52537800D03*
D37*
X143933000Y-56737800D03*
D38*
X143653000Y-52537800D03*
X154653000Y-52537800D03*
D37*
X154373000Y-56737800D03*
D39*
X154233000Y-52537800D03*
D44*
X151693000Y-48537800D03*
D43*
X154253000Y-48637800D03*
D44*
X151693000Y-47457800D03*
D42*
X152963000Y-49997800D03*
D44*
X151693000Y-48037800D03*
D41*
X144053000Y-48637800D03*
D44*
X146613000Y-48537800D03*
D45*
X145343000Y-49997800D03*
D44*
X146613000Y-47457800D03*
X146613000Y-48037800D03*
D46*
X149153000Y-46637800D03*
D37*
X182013000Y-111318000D03*
D39*
X192313000Y-107118000D03*
D37*
X192453000Y-111318000D03*
D38*
X192733000Y-107118000D03*
D40*
X187233000Y-107118000D03*
D39*
X182153000Y-107118000D03*
D38*
X181733000Y-107118000D03*
D44*
X189773000Y-103118000D03*
D42*
X191043000Y-104578000D03*
D44*
X189773000Y-102038000D03*
X189773000Y-102618000D03*
D43*
X192333000Y-103218000D03*
D41*
X182133000Y-103218000D03*
D44*
X184693000Y-103118000D03*
D45*
X183423000Y-104578000D03*
D46*
X187233000Y-101218000D03*
D44*
X184693000Y-102618000D03*
X184693000Y-102038000D03*
D37*
X135333000Y-77997800D03*
D38*
X124613000Y-73797800D03*
D37*
X124893000Y-77997800D03*
D39*
X135193000Y-73797800D03*
D40*
X130113000Y-73797800D03*
D38*
X135613000Y-73797800D03*
D39*
X125033000Y-73797800D03*
D44*
X132653000Y-69797800D03*
D42*
X133923000Y-71257800D03*
D41*
X125013000Y-69897800D03*
D44*
X132653000Y-68717800D03*
D43*
X135213000Y-69897800D03*
D44*
X132653000Y-69297800D03*
X127573000Y-69797800D03*
D45*
X126303000Y-71257800D03*
D44*
X127573000Y-69297800D03*
X127573000Y-68717800D03*
D46*
X130113000Y-67897800D03*
D37*
X150990000Y-135518000D03*
D39*
X161290000Y-131318000D03*
D38*
X150710000Y-131318000D03*
D39*
X151130000Y-131318000D03*
D38*
X161710000Y-131318000D03*
D37*
X161430000Y-135518000D03*
D40*
X156210000Y-131318000D03*
D42*
X160020000Y-128778000D03*
D44*
X158750000Y-126818000D03*
D43*
X161310000Y-127418000D03*
D44*
X158750000Y-126238000D03*
X158750000Y-127318000D03*
D41*
X151110000Y-127418000D03*
D45*
X152400000Y-128778000D03*
D46*
X156210000Y-125418000D03*
D44*
X153670000Y-126238000D03*
X153670000Y-126818000D03*
X153670000Y-127318000D03*
D38*
X100825000Y-140136860D03*
D37*
X97327693Y-142479347D03*
D39*
X101035000Y-140500591D03*
X106115000Y-149299409D03*
D38*
X106325000Y-149663140D03*
D37*
X102547693Y-151520653D03*
D40*
X103575000Y-144900000D03*
D47*
X107679705Y-146929557D03*
D44*
X109244409Y-144559705D03*
X108309102Y-145099705D03*
D48*
X109502499Y-147366730D03*
D49*
X104402499Y-138533270D03*
D44*
X108742114Y-144849705D03*
X106202114Y-140450295D03*
X105769102Y-140700295D03*
D46*
X108684550Y-141950000D03*
D50*
X103869705Y-140330443D03*
D44*
X106704409Y-140160295D03*
D37*
X121701826Y-141502436D03*
D40*
X126113200Y-136459800D03*
D37*
X131983219Y-139689549D03*
D38*
X120696757Y-137414865D03*
D39*
X131116023Y-135577667D03*
D38*
X131529643Y-135504735D03*
D39*
X121110377Y-137341933D03*
D51*
X130458492Y-131733444D03*
D44*
X127732479Y-131015910D03*
D52*
X120413453Y-133504655D03*
D53*
X129424251Y-133296789D03*
D44*
X127920019Y-132079503D03*
X127833195Y-131587099D03*
X122830372Y-132469231D03*
X122729656Y-131898043D03*
D54*
X121920016Y-134619988D03*
D46*
X125088676Y-130649434D03*
D44*
X122917196Y-132961635D03*
D39*
X230378000Y-94722000D03*
D37*
X220078000Y-98922000D03*
X230518000Y-98922000D03*
D38*
X230798000Y-94722000D03*
D40*
X225298000Y-94722000D03*
D39*
X220218000Y-94722000D03*
D38*
X219798000Y-94722000D03*
D44*
X227838000Y-90722000D03*
X227838000Y-90222000D03*
D41*
X220198000Y-90822000D03*
D44*
X227838000Y-89642000D03*
D43*
X230398000Y-90822000D03*
D42*
X229108000Y-92182000D03*
D45*
X221488000Y-92182000D03*
D46*
X225298000Y-88822000D03*
D44*
X222758000Y-90722000D03*
X222758000Y-90222000D03*
X222758000Y-89642000D03*
D37*
X143933000Y-94657800D03*
D39*
X144073000Y-90457800D03*
D38*
X154653000Y-90457800D03*
X143653000Y-90457800D03*
D40*
X149153000Y-90457800D03*
D37*
X154373000Y-94657800D03*
D39*
X154233000Y-90457800D03*
D41*
X144053000Y-86557800D03*
D44*
X151693000Y-85377800D03*
D42*
X152963000Y-87917800D03*
D43*
X154253000Y-86557800D03*
D44*
X151693000Y-86457800D03*
X151693000Y-85957800D03*
D46*
X149153000Y-84557800D03*
D44*
X146613000Y-85377800D03*
X146613000Y-86457800D03*
X146613000Y-85957800D03*
D45*
X145343000Y-87917800D03*
D40*
X168148000Y-66030000D03*
D39*
X163068000Y-66030000D03*
D37*
X173368000Y-70230000D03*
D38*
X162648000Y-66030000D03*
D37*
X162928000Y-70230000D03*
D39*
X173228000Y-66030000D03*
D38*
X173648000Y-66030000D03*
D44*
X170688000Y-60950000D03*
D41*
X163048000Y-62130000D03*
D44*
X170688000Y-62030000D03*
D42*
X171958000Y-63490000D03*
D43*
X173248000Y-62130000D03*
D44*
X170688000Y-61530000D03*
D45*
X164338000Y-63490000D03*
D44*
X165608000Y-62030000D03*
D46*
X168148000Y-60130000D03*
D44*
X165608000Y-60950000D03*
X165608000Y-61530000D03*
D38*
X211773000Y-112160000D03*
D39*
X211353000Y-112160000D03*
D38*
X200773000Y-112160000D03*
D40*
X206273000Y-112160000D03*
D37*
X201053000Y-116360000D03*
X211493000Y-116360000D03*
D39*
X201193000Y-112160000D03*
D42*
X210083000Y-109620000D03*
D43*
X211373000Y-108260000D03*
D44*
X208813000Y-108160000D03*
X208813000Y-107660000D03*
X208813000Y-107080000D03*
D41*
X201173000Y-108260000D03*
D44*
X203733000Y-107660000D03*
X203733000Y-107080000D03*
D45*
X202463000Y-109620000D03*
D46*
X206273000Y-106260000D03*
D44*
X203733000Y-108160000D03*
D39*
X173228000Y-85070000D03*
D38*
X173648000Y-85070000D03*
D40*
X168148000Y-85070000D03*
D39*
X163068000Y-85070000D03*
D37*
X162928000Y-89270000D03*
D38*
X162648000Y-85070000D03*
D37*
X173368000Y-89270000D03*
D44*
X170688000Y-79990000D03*
X170688000Y-81070000D03*
X170688000Y-80570000D03*
D43*
X173248000Y-81170000D03*
D41*
X163048000Y-81170000D03*
D42*
X171958000Y-82530000D03*
D44*
X165608000Y-80570000D03*
D46*
X168148000Y-79170000D03*
D44*
X165608000Y-79990000D03*
X165608000Y-81070000D03*
D45*
X164338000Y-82530000D03*
D39*
X154233000Y-71737800D03*
X144073000Y-71737800D03*
D38*
X143653000Y-71737800D03*
D37*
X143933000Y-75937800D03*
D38*
X154653000Y-71737800D03*
D40*
X149153000Y-71737800D03*
D37*
X154373000Y-75937800D03*
D42*
X152963000Y-69197800D03*
D41*
X144053000Y-67837800D03*
D44*
X151693000Y-66657800D03*
D43*
X154253000Y-67837800D03*
D44*
X151693000Y-67737800D03*
X151693000Y-67237800D03*
X146613000Y-66657800D03*
X146613000Y-67737800D03*
D45*
X145343000Y-69197800D03*
D44*
X146613000Y-67237800D03*
D46*
X149153000Y-65837800D03*
D38*
X192733000Y-69037800D03*
D39*
X182153000Y-69037800D03*
D37*
X182013000Y-73237800D03*
D39*
X192313000Y-69037800D03*
D40*
X187233000Y-69037800D03*
D37*
X192453000Y-73237800D03*
D38*
X181733000Y-69037800D03*
D44*
X189773000Y-63957800D03*
D42*
X191043000Y-66497800D03*
D43*
X192333000Y-65137800D03*
D44*
X189773000Y-64537800D03*
D41*
X182133000Y-65137800D03*
D44*
X189773000Y-65037800D03*
D45*
X183423000Y-66497800D03*
D46*
X187233000Y-63137800D03*
D44*
X184693000Y-65037800D03*
X184693000Y-63957800D03*
X184693000Y-64537800D03*
D37*
X182013000Y-54197800D03*
D39*
X182153000Y-49997800D03*
D38*
X192733000Y-49997800D03*
X181733000Y-49997800D03*
D39*
X192313000Y-49997800D03*
D40*
X187233000Y-49997800D03*
D37*
X192453000Y-54197800D03*
D43*
X192333000Y-46097800D03*
D44*
X189773000Y-45997800D03*
X189773000Y-45497800D03*
X189773000Y-44917800D03*
D42*
X191043000Y-47457800D03*
D41*
X182133000Y-46097800D03*
D44*
X184693000Y-45997800D03*
X184693000Y-45497800D03*
D45*
X183423000Y-47457800D03*
D46*
X187233000Y-44097800D03*
D44*
X184693000Y-44917800D03*
D37*
X135333000Y-97037800D03*
D38*
X135613000Y-92837800D03*
X124613000Y-92837800D03*
D39*
X125033000Y-92837800D03*
D37*
X124893000Y-97037800D03*
D40*
X130113000Y-92837800D03*
D39*
X135193000Y-92837800D03*
D41*
X125013000Y-88937800D03*
D43*
X135213000Y-88937800D03*
D44*
X132653000Y-88837800D03*
D42*
X133923000Y-90297800D03*
D44*
X132653000Y-88337800D03*
X132653000Y-87757800D03*
X127573000Y-87757800D03*
D45*
X126303000Y-90297800D03*
D44*
X127573000Y-88837800D03*
X127573000Y-88337800D03*
D46*
X130113000Y-86937800D03*
D37*
X230518000Y-60842000D03*
D39*
X220218000Y-56642000D03*
D38*
X219798000Y-56642000D03*
D40*
X225298000Y-56642000D03*
D39*
X230378000Y-56642000D03*
D38*
X230798000Y-56642000D03*
D37*
X220078000Y-60842000D03*
D44*
X227838000Y-51562000D03*
X227838000Y-52142000D03*
X227838000Y-52642000D03*
D43*
X230398000Y-52742000D03*
D41*
X220198000Y-52742000D03*
D42*
X229108000Y-54102000D03*
D46*
X225298000Y-50742000D03*
D44*
X222758000Y-51562000D03*
D45*
X221488000Y-54102000D03*
D44*
X222758000Y-52642000D03*
X222758000Y-52142000D03*
D39*
X173228000Y-46990000D03*
D37*
X173368000Y-51190000D03*
D38*
X162648000Y-46990000D03*
D40*
X168148000Y-46990000D03*
D38*
X173648000Y-46990000D03*
D37*
X162928000Y-51190000D03*
D39*
X163068000Y-46990000D03*
D44*
X170688000Y-41910000D03*
D43*
X173248000Y-43090000D03*
D44*
X170688000Y-42490000D03*
D41*
X163048000Y-43090000D03*
D42*
X171958000Y-44450000D03*
D44*
X170688000Y-42990000D03*
X165608000Y-41910000D03*
X165608000Y-42490000D03*
D45*
X164338000Y-44450000D03*
D46*
X168148000Y-41090000D03*
D44*
X165608000Y-42990000D03*
D39*
X201193000Y-93119800D03*
D37*
X211493000Y-97319800D03*
X201053000Y-97319800D03*
D38*
X211773000Y-93119800D03*
X200773000Y-93119800D03*
D39*
X211353000Y-93119800D03*
D40*
X206273000Y-93119800D03*
D43*
X211373000Y-89219800D03*
D41*
X201173000Y-89219800D03*
D44*
X208813000Y-89119800D03*
X208813000Y-88039800D03*
X208813000Y-88619800D03*
D42*
X210083000Y-90579800D03*
D44*
X203733000Y-88619800D03*
D46*
X206273000Y-87219800D03*
D45*
X202463000Y-90579800D03*
D44*
X203733000Y-89119800D03*
X203733000Y-88039800D03*
D40*
X187233000Y-88077800D03*
D38*
X181733000Y-88077800D03*
X192733000Y-88077800D03*
D39*
X182153000Y-88077800D03*
D37*
X182013000Y-92277800D03*
D39*
X192313000Y-88077800D03*
D37*
X192453000Y-92277800D03*
D44*
X189773000Y-84077800D03*
X189773000Y-83577800D03*
X189773000Y-82997800D03*
D41*
X182133000Y-84177800D03*
D42*
X191043000Y-85537800D03*
D43*
X192333000Y-84177800D03*
D44*
X184693000Y-84077800D03*
X184693000Y-82997800D03*
D45*
X183423000Y-85537800D03*
D44*
X184693000Y-83577800D03*
D46*
X187233000Y-82177800D03*
D37*
X186576000Y-131200000D03*
X176136000Y-131200000D03*
D39*
X176276000Y-127000000D03*
X186436000Y-127000000D03*
D38*
X186856000Y-127000000D03*
D40*
X181356000Y-127000000D03*
D38*
X175856000Y-127000000D03*
D42*
X185166000Y-124460000D03*
D44*
X183896000Y-122500000D03*
X183896000Y-123000000D03*
X183896000Y-121920000D03*
D43*
X186456000Y-123100000D03*
D41*
X176256000Y-123100000D03*
D44*
X178816000Y-121920000D03*
X178816000Y-123000000D03*
X178816000Y-122500000D03*
D45*
X177546000Y-124460000D03*
D46*
X181356000Y-121100000D03*
D38*
X211773000Y-74079800D03*
D39*
X201193000Y-74079800D03*
D38*
X200773000Y-74079800D03*
D37*
X211493000Y-78279800D03*
X201053000Y-78279800D03*
D40*
X206273000Y-74079800D03*
D39*
X211353000Y-74079800D03*
D44*
X208813000Y-68999800D03*
D42*
X210083000Y-71539800D03*
D44*
X208813000Y-70079800D03*
D41*
X201173000Y-70179800D03*
D43*
X211373000Y-70179800D03*
D44*
X208813000Y-69579800D03*
D45*
X202463000Y-71539800D03*
D44*
X203733000Y-70079800D03*
D46*
X206273000Y-68179800D03*
D44*
X203733000Y-68999800D03*
X203733000Y-69579800D03*
D38*
X230798000Y-113762200D03*
D37*
X230518000Y-117962200D03*
D39*
X220218000Y-113762200D03*
D38*
X219798000Y-113762200D03*
D39*
X230378000Y-113762200D03*
D40*
X225298000Y-113762200D03*
D37*
X220078000Y-117962200D03*
D44*
X227838000Y-108682200D03*
X227838000Y-109262200D03*
D41*
X220198000Y-109862200D03*
D44*
X227838000Y-109762200D03*
D43*
X230398000Y-109862200D03*
D42*
X229108000Y-111222200D03*
D44*
X222758000Y-109262200D03*
X222758000Y-108682200D03*
X222758000Y-109762200D03*
D45*
X221488000Y-111222200D03*
D46*
X225298000Y-107862200D03*
D33*
X133833000Y-63042800D03*
D34*
X126213000Y-63042800D03*
D55*
X94637600Y-47651800D03*
X94637600Y-54651800D03*
X92887600Y-54651800D03*
X92887600Y-47651800D03*
D56*
X92537600Y-57951800D03*
X94987600Y-57951800D03*
X96737600Y-49451800D03*
X90787600Y-49451800D03*
X90787600Y-52451800D03*
X96737600Y-52451800D03*
X90787600Y-56451800D03*
X96737600Y-56451800D03*
G36*
X97293267Y-121661301D02*
G01*
X97344946Y-121704489D01*
X97413661Y-121713120D01*
X97476291Y-121683156D01*
X97494348Y-121662318D01*
X97496238Y-121661664D01*
X97497749Y-121662974D01*
X97497821Y-121664018D01*
X97495000Y-121678199D01*
X97495000Y-123177801D01*
X97497978Y-123192774D01*
X97497335Y-123194668D01*
X97495373Y-123195058D01*
X97494733Y-123194699D01*
X97443054Y-123151511D01*
X97374339Y-123142880D01*
X97311709Y-123172844D01*
X97293652Y-123193682D01*
X97291762Y-123194336D01*
X97290251Y-123193026D01*
X97290179Y-123191982D01*
X97293000Y-123177801D01*
X97293000Y-121678199D01*
X97290022Y-121663226D01*
X97290665Y-121661332D01*
X97292627Y-121660942D01*
X97293267Y-121661301D01*
G37*
G36*
X97435267Y-114041301D02*
G01*
X97486946Y-114084489D01*
X97555661Y-114093120D01*
X97618291Y-114063156D01*
X97636348Y-114042318D01*
X97638238Y-114041664D01*
X97639749Y-114042974D01*
X97639821Y-114044018D01*
X97637000Y-114058199D01*
X97637000Y-115557801D01*
X97639978Y-115572774D01*
X97639335Y-115574668D01*
X97637373Y-115575058D01*
X97636733Y-115574699D01*
X97585054Y-115531511D01*
X97516339Y-115522880D01*
X97453709Y-115552844D01*
X97435652Y-115573682D01*
X97433762Y-115574336D01*
X97432251Y-115573026D01*
X97432179Y-115571982D01*
X97435000Y-115557801D01*
X97435000Y-114058199D01*
X97432022Y-114043226D01*
X97432665Y-114041332D01*
X97434627Y-114040942D01*
X97435267Y-114041301D01*
G37*
G36*
X114214979Y-113074360D02*
G01*
X114215709Y-113076222D01*
X114214601Y-113077724D01*
X114166708Y-113100876D01*
X114166329Y-113101014D01*
X114146960Y-113105915D01*
X114087069Y-113141284D01*
X114055941Y-113203154D01*
X114063202Y-113272029D01*
X114106623Y-113326137D01*
X114146025Y-113344298D01*
X114171917Y-113351042D01*
X114172296Y-113351182D01*
X114220023Y-113374666D01*
X114221136Y-113376328D01*
X114220253Y-113378123D01*
X114218397Y-113378318D01*
X114103309Y-113332286D01*
X113922391Y-113302335D01*
X113739263Y-113311933D01*
X113616900Y-113345637D01*
X113614965Y-113345133D01*
X113614434Y-113343205D01*
X113615678Y-113341832D01*
X113618778Y-113340691D01*
X113674643Y-113299257D01*
X113699136Y-113234471D01*
X113684714Y-113166732D01*
X113635800Y-113117381D01*
X113619788Y-113110001D01*
X113610042Y-113106337D01*
X113608773Y-113104792D01*
X113609477Y-113102919D01*
X113611291Y-113102541D01*
X113733416Y-113137100D01*
X113916472Y-113147975D01*
X114097594Y-113119288D01*
X114213001Y-113074061D01*
X114214979Y-113074360D01*
G37*
G36*
X97323267Y-111501301D02*
G01*
X97374946Y-111544489D01*
X97443661Y-111553120D01*
X97506291Y-111523156D01*
X97524348Y-111502318D01*
X97526238Y-111501664D01*
X97527749Y-111502974D01*
X97527821Y-111504018D01*
X97525000Y-111518199D01*
X97525000Y-113017801D01*
X97527978Y-113032774D01*
X97527335Y-113034668D01*
X97525373Y-113035058D01*
X97524733Y-113034699D01*
X97473054Y-112991511D01*
X97404339Y-112982880D01*
X97341709Y-113012844D01*
X97323652Y-113033682D01*
X97321762Y-113034336D01*
X97320251Y-113033026D01*
X97320179Y-113031982D01*
X97323000Y-113017801D01*
X97323000Y-111518199D01*
X97320022Y-111503226D01*
X97320665Y-111501332D01*
X97322627Y-111500942D01*
X97323267Y-111501301D01*
G37*
G36*
X106176668Y-99830665D02*
G01*
X106177058Y-99832627D01*
X106176699Y-99833267D01*
X106133511Y-99884946D01*
X106124880Y-99953661D01*
X106154844Y-100016291D01*
X106175682Y-100034348D01*
X106176336Y-100036238D01*
X106175026Y-100037749D01*
X106173982Y-100037821D01*
X106159801Y-100035000D01*
X104660199Y-100035000D01*
X104645226Y-100037978D01*
X104643332Y-100037335D01*
X104642942Y-100035373D01*
X104643301Y-100034733D01*
X104686489Y-99983054D01*
X104695120Y-99914339D01*
X104665156Y-99851709D01*
X104644318Y-99833652D01*
X104643664Y-99831762D01*
X104644974Y-99830251D01*
X104646018Y-99830179D01*
X104660199Y-99833000D01*
X106159801Y-99833000D01*
X106174774Y-99830022D01*
X106176668Y-99830665D01*
G37*
G36*
X113796668Y-99830665D02*
G01*
X113797058Y-99832627D01*
X113796699Y-99833267D01*
X113753511Y-99884946D01*
X113744880Y-99953661D01*
X113774844Y-100016291D01*
X113795682Y-100034348D01*
X113796336Y-100036238D01*
X113795026Y-100037749D01*
X113793982Y-100037821D01*
X113779801Y-100035000D01*
X112280199Y-100035000D01*
X112265226Y-100037978D01*
X112263332Y-100037335D01*
X112262942Y-100035373D01*
X112263301Y-100034733D01*
X112306489Y-99983054D01*
X112315120Y-99914339D01*
X112285156Y-99851709D01*
X112264318Y-99833652D01*
X112263664Y-99831762D01*
X112264974Y-99830251D01*
X112266018Y-99830179D01*
X112280199Y-99833000D01*
X113779801Y-99833000D01*
X113794774Y-99830022D01*
X113796668Y-99830665D01*
G37*
G36*
X111256668Y-99830665D02*
G01*
X111257058Y-99832627D01*
X111256699Y-99833267D01*
X111213511Y-99884946D01*
X111204880Y-99953661D01*
X111234844Y-100016291D01*
X111255682Y-100034348D01*
X111256336Y-100036238D01*
X111255026Y-100037749D01*
X111253982Y-100037821D01*
X111239801Y-100035000D01*
X109740199Y-100035000D01*
X109725226Y-100037978D01*
X109723332Y-100037335D01*
X109722942Y-100035373D01*
X109723301Y-100034733D01*
X109766489Y-99983054D01*
X109775120Y-99914339D01*
X109745156Y-99851709D01*
X109724318Y-99833652D01*
X109723664Y-99831762D01*
X109724974Y-99830251D01*
X109726018Y-99830179D01*
X109740199Y-99833000D01*
X111239801Y-99833000D01*
X111254774Y-99830022D01*
X111256668Y-99830665D01*
G37*
G36*
X108716668Y-99830665D02*
G01*
X108717058Y-99832627D01*
X108716699Y-99833267D01*
X108673511Y-99884946D01*
X108664880Y-99953661D01*
X108694844Y-100016291D01*
X108715682Y-100034348D01*
X108716336Y-100036238D01*
X108715026Y-100037749D01*
X108713982Y-100037821D01*
X108699801Y-100035000D01*
X107200199Y-100035000D01*
X107185226Y-100037978D01*
X107183332Y-100037335D01*
X107182942Y-100035373D01*
X107183301Y-100034733D01*
X107226489Y-99983054D01*
X107235120Y-99914339D01*
X107205156Y-99851709D01*
X107184318Y-99833652D01*
X107183664Y-99831762D01*
X107184974Y-99830251D01*
X107186018Y-99830179D01*
X107200199Y-99833000D01*
X108699801Y-99833000D01*
X108714774Y-99830022D01*
X108716668Y-99830665D01*
G37*
G36*
X116825569Y-95183727D02*
G01*
X116864194Y-95240215D01*
X116927988Y-95267174D01*
X116996234Y-95255364D01*
X117047391Y-95208413D01*
X117055044Y-95191655D01*
X117056673Y-95190495D01*
X117058492Y-95191326D01*
X117058742Y-95193170D01*
X117042752Y-95237101D01*
X117020091Y-95416478D01*
X117037734Y-95596411D01*
X117062508Y-95670886D01*
X117062106Y-95672845D01*
X117060208Y-95673476D01*
X117058959Y-95672646D01*
X117019806Y-95615385D01*
X116956012Y-95588426D01*
X116887766Y-95600236D01*
X116836609Y-95647187D01*
X116833333Y-95654361D01*
X116831704Y-95655521D01*
X116829885Y-95654690D01*
X116829644Y-95652820D01*
X116838508Y-95629485D01*
X116863685Y-95450345D01*
X116863998Y-95427900D01*
X116843833Y-95248126D01*
X116822029Y-95185514D01*
X116822404Y-95183549D01*
X116824293Y-95182891D01*
X116825569Y-95183727D01*
G37*
G36*
X101585569Y-95183727D02*
G01*
X101624194Y-95240215D01*
X101687988Y-95267174D01*
X101756234Y-95255364D01*
X101807391Y-95208413D01*
X101815044Y-95191655D01*
X101816673Y-95190495D01*
X101818492Y-95191326D01*
X101818742Y-95193170D01*
X101802752Y-95237101D01*
X101780091Y-95416478D01*
X101797734Y-95596411D01*
X101822508Y-95670886D01*
X101822106Y-95672845D01*
X101820208Y-95673476D01*
X101818959Y-95672646D01*
X101779806Y-95615385D01*
X101716012Y-95588426D01*
X101647766Y-95600236D01*
X101596609Y-95647187D01*
X101593333Y-95654361D01*
X101591704Y-95655521D01*
X101589885Y-95654690D01*
X101589644Y-95652820D01*
X101598508Y-95629485D01*
X101623685Y-95450345D01*
X101623998Y-95427900D01*
X101603833Y-95248126D01*
X101582029Y-95185514D01*
X101582404Y-95183549D01*
X101584293Y-95182891D01*
X101585569Y-95183727D01*
G37*
G36*
X101585569Y-92643727D02*
G01*
X101624194Y-92700215D01*
X101687988Y-92727174D01*
X101756234Y-92715364D01*
X101807391Y-92668413D01*
X101815044Y-92651655D01*
X101816673Y-92650495D01*
X101818492Y-92651326D01*
X101818742Y-92653170D01*
X101802752Y-92697101D01*
X101780091Y-92876478D01*
X101797734Y-93056411D01*
X101822508Y-93130886D01*
X101822106Y-93132845D01*
X101820208Y-93133476D01*
X101818959Y-93132646D01*
X101779806Y-93075385D01*
X101716012Y-93048426D01*
X101647766Y-93060236D01*
X101596609Y-93107187D01*
X101593333Y-93114361D01*
X101591704Y-93115521D01*
X101589885Y-93114690D01*
X101589644Y-93112820D01*
X101598508Y-93089485D01*
X101623685Y-92910345D01*
X101623998Y-92887900D01*
X101603833Y-92708126D01*
X101582029Y-92645514D01*
X101582404Y-92643549D01*
X101584293Y-92642891D01*
X101585569Y-92643727D01*
G37*
G36*
X116825569Y-92643727D02*
G01*
X116864194Y-92700215D01*
X116927988Y-92727174D01*
X116996234Y-92715364D01*
X117047391Y-92668413D01*
X117055044Y-92651655D01*
X117056673Y-92650495D01*
X117058492Y-92651326D01*
X117058742Y-92653170D01*
X117042752Y-92697101D01*
X117020091Y-92876478D01*
X117037734Y-93056411D01*
X117062508Y-93130886D01*
X117062106Y-93132845D01*
X117060208Y-93133476D01*
X117058959Y-93132646D01*
X117019806Y-93075385D01*
X116956012Y-93048426D01*
X116887766Y-93060236D01*
X116836609Y-93107187D01*
X116833333Y-93114361D01*
X116831704Y-93115521D01*
X116829885Y-93114690D01*
X116829644Y-93112820D01*
X116838508Y-93089485D01*
X116863685Y-92910345D01*
X116863998Y-92887900D01*
X116843833Y-92708126D01*
X116822029Y-92645514D01*
X116822404Y-92643549D01*
X116824293Y-92642891D01*
X116825569Y-92643727D01*
G37*
G36*
X101585569Y-90103727D02*
G01*
X101624194Y-90160215D01*
X101687988Y-90187174D01*
X101756234Y-90175364D01*
X101807391Y-90128413D01*
X101815044Y-90111655D01*
X101816673Y-90110495D01*
X101818492Y-90111326D01*
X101818742Y-90113170D01*
X101802752Y-90157101D01*
X101780091Y-90336478D01*
X101797734Y-90516411D01*
X101822508Y-90590886D01*
X101822106Y-90592845D01*
X101820208Y-90593476D01*
X101818959Y-90592646D01*
X101779806Y-90535385D01*
X101716012Y-90508426D01*
X101647766Y-90520236D01*
X101596609Y-90567187D01*
X101593333Y-90574361D01*
X101591704Y-90575521D01*
X101589885Y-90574690D01*
X101589644Y-90572820D01*
X101598508Y-90549485D01*
X101623685Y-90370345D01*
X101623998Y-90347900D01*
X101603833Y-90168126D01*
X101582029Y-90105514D01*
X101582404Y-90103549D01*
X101584293Y-90102891D01*
X101585569Y-90103727D01*
G37*
G36*
X116825569Y-90103727D02*
G01*
X116864194Y-90160215D01*
X116927988Y-90187174D01*
X116996234Y-90175364D01*
X117047391Y-90128413D01*
X117055044Y-90111655D01*
X117056673Y-90110495D01*
X117058492Y-90111326D01*
X117058742Y-90113170D01*
X117042752Y-90157101D01*
X117020091Y-90336478D01*
X117037734Y-90516411D01*
X117062508Y-90590886D01*
X117062106Y-90592845D01*
X117060208Y-90593476D01*
X117058959Y-90592646D01*
X117019806Y-90535385D01*
X116956012Y-90508426D01*
X116887766Y-90520236D01*
X116836609Y-90567187D01*
X116833333Y-90574361D01*
X116831704Y-90575521D01*
X116829885Y-90574690D01*
X116829644Y-90572820D01*
X116838508Y-90549485D01*
X116863685Y-90370345D01*
X116863998Y-90347900D01*
X116843833Y-90168126D01*
X116822029Y-90105514D01*
X116822404Y-90103549D01*
X116824293Y-90102891D01*
X116825569Y-90103727D01*
G37*
G36*
X101585569Y-87563727D02*
G01*
X101624194Y-87620215D01*
X101687988Y-87647174D01*
X101756234Y-87635364D01*
X101807391Y-87588413D01*
X101815044Y-87571655D01*
X101816673Y-87570495D01*
X101818492Y-87571326D01*
X101818742Y-87573170D01*
X101802752Y-87617101D01*
X101780091Y-87796478D01*
X101797734Y-87976411D01*
X101822508Y-88050886D01*
X101822106Y-88052845D01*
X101820208Y-88053476D01*
X101818959Y-88052646D01*
X101779806Y-87995385D01*
X101716012Y-87968426D01*
X101647766Y-87980236D01*
X101596609Y-88027187D01*
X101593333Y-88034361D01*
X101591704Y-88035521D01*
X101589885Y-88034690D01*
X101589644Y-88032820D01*
X101598508Y-88009485D01*
X101623685Y-87830345D01*
X101623998Y-87807900D01*
X101603833Y-87628126D01*
X101582029Y-87565514D01*
X101582404Y-87563549D01*
X101584293Y-87562891D01*
X101585569Y-87563727D01*
G37*
G36*
X116825569Y-87563727D02*
G01*
X116864194Y-87620215D01*
X116927988Y-87647174D01*
X116996234Y-87635364D01*
X117047391Y-87588413D01*
X117055044Y-87571655D01*
X117056673Y-87570495D01*
X117058492Y-87571326D01*
X117058742Y-87573170D01*
X117042752Y-87617101D01*
X117020091Y-87796478D01*
X117037734Y-87976411D01*
X117062508Y-88050886D01*
X117062106Y-88052845D01*
X117060208Y-88053476D01*
X117058959Y-88052646D01*
X117019806Y-87995385D01*
X116956012Y-87968426D01*
X116887766Y-87980236D01*
X116836609Y-88027187D01*
X116833333Y-88034361D01*
X116831704Y-88035521D01*
X116829885Y-88034690D01*
X116829644Y-88032820D01*
X116838508Y-88009485D01*
X116863685Y-87830345D01*
X116863998Y-87807900D01*
X116843833Y-87628126D01*
X116822029Y-87565514D01*
X116822404Y-87563549D01*
X116824293Y-87562891D01*
X116825569Y-87563727D01*
G37*
G36*
X101585569Y-85023727D02*
G01*
X101624194Y-85080215D01*
X101687988Y-85107174D01*
X101756234Y-85095364D01*
X101807391Y-85048413D01*
X101815044Y-85031655D01*
X101816673Y-85030495D01*
X101818492Y-85031326D01*
X101818742Y-85033170D01*
X101802752Y-85077101D01*
X101780091Y-85256478D01*
X101797734Y-85436411D01*
X101822508Y-85510886D01*
X101822106Y-85512845D01*
X101820208Y-85513476D01*
X101818959Y-85512646D01*
X101779806Y-85455385D01*
X101716012Y-85428426D01*
X101647766Y-85440236D01*
X101596609Y-85487187D01*
X101593333Y-85494361D01*
X101591704Y-85495521D01*
X101589885Y-85494690D01*
X101589644Y-85492820D01*
X101598508Y-85469485D01*
X101623685Y-85290345D01*
X101623998Y-85267900D01*
X101603833Y-85088126D01*
X101582029Y-85025514D01*
X101582404Y-85023549D01*
X101584293Y-85022891D01*
X101585569Y-85023727D01*
G37*
G36*
X116825569Y-85023727D02*
G01*
X116864194Y-85080215D01*
X116927988Y-85107174D01*
X116996234Y-85095364D01*
X117047391Y-85048413D01*
X117055044Y-85031655D01*
X117056673Y-85030495D01*
X117058492Y-85031326D01*
X117058742Y-85033170D01*
X117042752Y-85077101D01*
X117020091Y-85256478D01*
X117037734Y-85436411D01*
X117062508Y-85510886D01*
X117062106Y-85512845D01*
X117060208Y-85513476D01*
X117058959Y-85512646D01*
X117019806Y-85455385D01*
X116956012Y-85428426D01*
X116887766Y-85440236D01*
X116836609Y-85487187D01*
X116833333Y-85494361D01*
X116831704Y-85495521D01*
X116829885Y-85494690D01*
X116829644Y-85492820D01*
X116838508Y-85469485D01*
X116863685Y-85290345D01*
X116863998Y-85267900D01*
X116843833Y-85088126D01*
X116822029Y-85025514D01*
X116822404Y-85023549D01*
X116824293Y-85022891D01*
X116825569Y-85023727D01*
G37*
G36*
X101585569Y-82483727D02*
G01*
X101624194Y-82540215D01*
X101687988Y-82567174D01*
X101756234Y-82555364D01*
X101807391Y-82508413D01*
X101815044Y-82491655D01*
X101816673Y-82490495D01*
X101818492Y-82491326D01*
X101818742Y-82493170D01*
X101802752Y-82537101D01*
X101780091Y-82716478D01*
X101797734Y-82896411D01*
X101822508Y-82970886D01*
X101822106Y-82972845D01*
X101820208Y-82973476D01*
X101818959Y-82972646D01*
X101779806Y-82915385D01*
X101716012Y-82888426D01*
X101647766Y-82900236D01*
X101596609Y-82947187D01*
X101593333Y-82954361D01*
X101591704Y-82955521D01*
X101589885Y-82954690D01*
X101589644Y-82952820D01*
X101598508Y-82929485D01*
X101623685Y-82750345D01*
X101623998Y-82727900D01*
X101603833Y-82548126D01*
X101582029Y-82485514D01*
X101582404Y-82483549D01*
X101584293Y-82482891D01*
X101585569Y-82483727D01*
G37*
G36*
X116825569Y-82483727D02*
G01*
X116864194Y-82540215D01*
X116927988Y-82567174D01*
X116996234Y-82555364D01*
X117047391Y-82508413D01*
X117055044Y-82491655D01*
X117056673Y-82490495D01*
X117058492Y-82491326D01*
X117058742Y-82493170D01*
X117042752Y-82537101D01*
X117020091Y-82716478D01*
X117037734Y-82896411D01*
X117062508Y-82970886D01*
X117062106Y-82972845D01*
X117060208Y-82973476D01*
X117058959Y-82972646D01*
X117019806Y-82915385D01*
X116956012Y-82888426D01*
X116887766Y-82900236D01*
X116836609Y-82947187D01*
X116833333Y-82954361D01*
X116831704Y-82955521D01*
X116829885Y-82954690D01*
X116829644Y-82952820D01*
X116838508Y-82929485D01*
X116863685Y-82750345D01*
X116863998Y-82727900D01*
X116843833Y-82548126D01*
X116822029Y-82485514D01*
X116822404Y-82483549D01*
X116824293Y-82482891D01*
X116825569Y-82483727D01*
G37*
G36*
X101585569Y-79943727D02*
G01*
X101624194Y-80000215D01*
X101687988Y-80027174D01*
X101756234Y-80015364D01*
X101807391Y-79968413D01*
X101815044Y-79951655D01*
X101816673Y-79950495D01*
X101818492Y-79951326D01*
X101818742Y-79953170D01*
X101802752Y-79997101D01*
X101780091Y-80176478D01*
X101797734Y-80356411D01*
X101822508Y-80430886D01*
X101822106Y-80432845D01*
X101820208Y-80433476D01*
X101818959Y-80432646D01*
X101779806Y-80375385D01*
X101716012Y-80348426D01*
X101647766Y-80360236D01*
X101596609Y-80407187D01*
X101593333Y-80414361D01*
X101591704Y-80415521D01*
X101589885Y-80414690D01*
X101589644Y-80412820D01*
X101598508Y-80389485D01*
X101623685Y-80210345D01*
X101623998Y-80187900D01*
X101603833Y-80008126D01*
X101582029Y-79945514D01*
X101582404Y-79943549D01*
X101584293Y-79942891D01*
X101585569Y-79943727D01*
G37*
G36*
X116825569Y-79943727D02*
G01*
X116864194Y-80000215D01*
X116927988Y-80027174D01*
X116996234Y-80015364D01*
X117047391Y-79968413D01*
X117055044Y-79951655D01*
X117056673Y-79950495D01*
X117058492Y-79951326D01*
X117058742Y-79953170D01*
X117042752Y-79997101D01*
X117020091Y-80176478D01*
X117037734Y-80356411D01*
X117062508Y-80430886D01*
X117062106Y-80432845D01*
X117060208Y-80433476D01*
X117058959Y-80432646D01*
X117019806Y-80375385D01*
X116956012Y-80348426D01*
X116887766Y-80360236D01*
X116836609Y-80407187D01*
X116833333Y-80414361D01*
X116831704Y-80415521D01*
X116829885Y-80414690D01*
X116829644Y-80412820D01*
X116838508Y-80389485D01*
X116863685Y-80210345D01*
X116863998Y-80187900D01*
X116843833Y-80008126D01*
X116822029Y-79945514D01*
X116822404Y-79943549D01*
X116824293Y-79942891D01*
X116825569Y-79943727D01*
G37*
G36*
X101585569Y-77403727D02*
G01*
X101624194Y-77460215D01*
X101687988Y-77487174D01*
X101756234Y-77475364D01*
X101807391Y-77428413D01*
X101815044Y-77411655D01*
X101816673Y-77410495D01*
X101818492Y-77411326D01*
X101818742Y-77413170D01*
X101802752Y-77457101D01*
X101780091Y-77636478D01*
X101797734Y-77816411D01*
X101822508Y-77890886D01*
X101822106Y-77892845D01*
X101820208Y-77893476D01*
X101818959Y-77892646D01*
X101779806Y-77835385D01*
X101716012Y-77808426D01*
X101647766Y-77820236D01*
X101596609Y-77867187D01*
X101593333Y-77874361D01*
X101591704Y-77875521D01*
X101589885Y-77874690D01*
X101589644Y-77872820D01*
X101598508Y-77849485D01*
X101623685Y-77670345D01*
X101623998Y-77647900D01*
X101603833Y-77468126D01*
X101582029Y-77405514D01*
X101582404Y-77403549D01*
X101584293Y-77402891D01*
X101585569Y-77403727D01*
G37*
G36*
X116825569Y-77403727D02*
G01*
X116864194Y-77460215D01*
X116927988Y-77487174D01*
X116996234Y-77475364D01*
X117047391Y-77428413D01*
X117055044Y-77411655D01*
X117056673Y-77410495D01*
X117058492Y-77411326D01*
X117058742Y-77413170D01*
X117042752Y-77457101D01*
X117020091Y-77636478D01*
X117037734Y-77816411D01*
X117062508Y-77890886D01*
X117062106Y-77892845D01*
X117060208Y-77893476D01*
X117058959Y-77892646D01*
X117019806Y-77835385D01*
X116956012Y-77808426D01*
X116887766Y-77820236D01*
X116836609Y-77867187D01*
X116833333Y-77874361D01*
X116831704Y-77875521D01*
X116829885Y-77874690D01*
X116829644Y-77872820D01*
X116838508Y-77849485D01*
X116863685Y-77670345D01*
X116863998Y-77647900D01*
X116843833Y-77468126D01*
X116822029Y-77405514D01*
X116822404Y-77403549D01*
X116824293Y-77402891D01*
X116825569Y-77403727D01*
G37*
G36*
X101585569Y-74863727D02*
G01*
X101624194Y-74920215D01*
X101687988Y-74947174D01*
X101756234Y-74935364D01*
X101807391Y-74888413D01*
X101815044Y-74871655D01*
X101816673Y-74870495D01*
X101818492Y-74871326D01*
X101818742Y-74873170D01*
X101802752Y-74917101D01*
X101780091Y-75096478D01*
X101797734Y-75276411D01*
X101822508Y-75350886D01*
X101822106Y-75352845D01*
X101820208Y-75353476D01*
X101818959Y-75352646D01*
X101779806Y-75295385D01*
X101716012Y-75268426D01*
X101647766Y-75280236D01*
X101596609Y-75327187D01*
X101593333Y-75334361D01*
X101591704Y-75335521D01*
X101589885Y-75334690D01*
X101589644Y-75332820D01*
X101598508Y-75309485D01*
X101623685Y-75130345D01*
X101623998Y-75107900D01*
X101603833Y-74928126D01*
X101582029Y-74865514D01*
X101582404Y-74863549D01*
X101584293Y-74862891D01*
X101585569Y-74863727D01*
G37*
G36*
X116825569Y-74863727D02*
G01*
X116864194Y-74920215D01*
X116927988Y-74947174D01*
X116996234Y-74935364D01*
X117047391Y-74888413D01*
X117055044Y-74871655D01*
X117056673Y-74870495D01*
X117058492Y-74871326D01*
X117058742Y-74873170D01*
X117042752Y-74917101D01*
X117020091Y-75096478D01*
X117037734Y-75276411D01*
X117062508Y-75350886D01*
X117062106Y-75352845D01*
X117060208Y-75353476D01*
X117058959Y-75352646D01*
X117019806Y-75295385D01*
X116956012Y-75268426D01*
X116887766Y-75280236D01*
X116836609Y-75327187D01*
X116833333Y-75334361D01*
X116831704Y-75335521D01*
X116829885Y-75334690D01*
X116829644Y-75332820D01*
X116838508Y-75309485D01*
X116863685Y-75130345D01*
X116863998Y-75107900D01*
X116843833Y-74928126D01*
X116822029Y-74865514D01*
X116822404Y-74863549D01*
X116824293Y-74862891D01*
X116825569Y-74863727D01*
G37*
G36*
X116825569Y-72323727D02*
G01*
X116864194Y-72380215D01*
X116927988Y-72407174D01*
X116996234Y-72395364D01*
X117047391Y-72348413D01*
X117055044Y-72331655D01*
X117056673Y-72330495D01*
X117058492Y-72331326D01*
X117058742Y-72333170D01*
X117042752Y-72377101D01*
X117020091Y-72556478D01*
X117037734Y-72736411D01*
X117062508Y-72810886D01*
X117062106Y-72812845D01*
X117060208Y-72813476D01*
X117058959Y-72812646D01*
X117019806Y-72755385D01*
X116956012Y-72728426D01*
X116887766Y-72740236D01*
X116836609Y-72787187D01*
X116833333Y-72794361D01*
X116831704Y-72795521D01*
X116829885Y-72794690D01*
X116829644Y-72792820D01*
X116838508Y-72769485D01*
X116863685Y-72590345D01*
X116863998Y-72567900D01*
X116843833Y-72388126D01*
X116822029Y-72325514D01*
X116822404Y-72323549D01*
X116824293Y-72322891D01*
X116825569Y-72323727D01*
G37*
G36*
X101585569Y-72323727D02*
G01*
X101624194Y-72380215D01*
X101687988Y-72407174D01*
X101756234Y-72395364D01*
X101807391Y-72348413D01*
X101815044Y-72331655D01*
X101816673Y-72330495D01*
X101818492Y-72331326D01*
X101818742Y-72333170D01*
X101802752Y-72377101D01*
X101780091Y-72556478D01*
X101797734Y-72736411D01*
X101822508Y-72810886D01*
X101822106Y-72812845D01*
X101820208Y-72813476D01*
X101818959Y-72812646D01*
X101779806Y-72755385D01*
X101716012Y-72728426D01*
X101647766Y-72740236D01*
X101596609Y-72787187D01*
X101593333Y-72794361D01*
X101591704Y-72795521D01*
X101589885Y-72794690D01*
X101589644Y-72792820D01*
X101598508Y-72769485D01*
X101623685Y-72590345D01*
X101623998Y-72567900D01*
X101603833Y-72388126D01*
X101582029Y-72325514D01*
X101582404Y-72323549D01*
X101584293Y-72322891D01*
X101585569Y-72323727D01*
G37*
G36*
X96778668Y-71920665D02*
G01*
X96779058Y-71922627D01*
X96778699Y-71923267D01*
X96735511Y-71974946D01*
X96726880Y-72043661D01*
X96756844Y-72106291D01*
X96777682Y-72124348D01*
X96778336Y-72126238D01*
X96777026Y-72127749D01*
X96775982Y-72127821D01*
X96761801Y-72125000D01*
X95262199Y-72125000D01*
X95247226Y-72127978D01*
X95245332Y-72127335D01*
X95244942Y-72125373D01*
X95245301Y-72124733D01*
X95288489Y-72073054D01*
X95297120Y-72004339D01*
X95267156Y-71941709D01*
X95246318Y-71923652D01*
X95245664Y-71921762D01*
X95246974Y-71920251D01*
X95248018Y-71920179D01*
X95262199Y-71923000D01*
X96761801Y-71923000D01*
X96776774Y-71920022D01*
X96778668Y-71920665D01*
G37*
G36*
X96778668Y-70620665D02*
G01*
X96779058Y-70622627D01*
X96778699Y-70623267D01*
X96735511Y-70674946D01*
X96726880Y-70743661D01*
X96756844Y-70806291D01*
X96777682Y-70824348D01*
X96778336Y-70826238D01*
X96777026Y-70827749D01*
X96775982Y-70827821D01*
X96761801Y-70825000D01*
X95262199Y-70825000D01*
X95247226Y-70827978D01*
X95245332Y-70827335D01*
X95244942Y-70825373D01*
X95245301Y-70824733D01*
X95288489Y-70773054D01*
X95297120Y-70704339D01*
X95267156Y-70641709D01*
X95246318Y-70623652D01*
X95245664Y-70621762D01*
X95246974Y-70620251D01*
X95248018Y-70620179D01*
X95262199Y-70623000D01*
X96761801Y-70623000D01*
X96776774Y-70620022D01*
X96778668Y-70620665D01*
G37*
G36*
X101585569Y-69783727D02*
G01*
X101624194Y-69840215D01*
X101687988Y-69867174D01*
X101756234Y-69855364D01*
X101807391Y-69808413D01*
X101815044Y-69791655D01*
X101816673Y-69790495D01*
X101818492Y-69791326D01*
X101818742Y-69793170D01*
X101802752Y-69837101D01*
X101780091Y-70016478D01*
X101797734Y-70196411D01*
X101822508Y-70270886D01*
X101822106Y-70272845D01*
X101820208Y-70273476D01*
X101818959Y-70272646D01*
X101779806Y-70215385D01*
X101716012Y-70188426D01*
X101647766Y-70200236D01*
X101596609Y-70247187D01*
X101593333Y-70254361D01*
X101591704Y-70255521D01*
X101589885Y-70254690D01*
X101589644Y-70252820D01*
X101598508Y-70229485D01*
X101623685Y-70050345D01*
X101623998Y-70027900D01*
X101603833Y-69848126D01*
X101582029Y-69785514D01*
X101582404Y-69783549D01*
X101584293Y-69782891D01*
X101585569Y-69783727D01*
G37*
G36*
X116825569Y-69783727D02*
G01*
X116864194Y-69840215D01*
X116927988Y-69867174D01*
X116996234Y-69855364D01*
X117047391Y-69808413D01*
X117055044Y-69791655D01*
X117056673Y-69790495D01*
X117058492Y-69791326D01*
X117058742Y-69793170D01*
X117042752Y-69837101D01*
X117020091Y-70016478D01*
X117037734Y-70196411D01*
X117062508Y-70270886D01*
X117062106Y-70272845D01*
X117060208Y-70273476D01*
X117058959Y-70272646D01*
X117019806Y-70215385D01*
X116956012Y-70188426D01*
X116887766Y-70200236D01*
X116836609Y-70247187D01*
X116833333Y-70254361D01*
X116831704Y-70255521D01*
X116829885Y-70254690D01*
X116829644Y-70252820D01*
X116838508Y-70229485D01*
X116863685Y-70050345D01*
X116863998Y-70027900D01*
X116843833Y-69848126D01*
X116822029Y-69785514D01*
X116822404Y-69783549D01*
X116824293Y-69782891D01*
X116825569Y-69783727D01*
G37*
G36*
X101585569Y-67243727D02*
G01*
X101624194Y-67300215D01*
X101687988Y-67327174D01*
X101756234Y-67315364D01*
X101807391Y-67268413D01*
X101815044Y-67251655D01*
X101816673Y-67250495D01*
X101818492Y-67251326D01*
X101818742Y-67253170D01*
X101802752Y-67297101D01*
X101780091Y-67476478D01*
X101797734Y-67656411D01*
X101822508Y-67730886D01*
X101822106Y-67732845D01*
X101820208Y-67733476D01*
X101818959Y-67732646D01*
X101779806Y-67675385D01*
X101716012Y-67648426D01*
X101647766Y-67660236D01*
X101596609Y-67707187D01*
X101593333Y-67714361D01*
X101591704Y-67715521D01*
X101589885Y-67714690D01*
X101589644Y-67712820D01*
X101598508Y-67689485D01*
X101623685Y-67510345D01*
X101623998Y-67487900D01*
X101603833Y-67308126D01*
X101582029Y-67245514D01*
X101582404Y-67243549D01*
X101584293Y-67242891D01*
X101585569Y-67243727D01*
G37*
G36*
X116825569Y-67243727D02*
G01*
X116864194Y-67300215D01*
X116927988Y-67327174D01*
X116996234Y-67315364D01*
X117047391Y-67268413D01*
X117055044Y-67251655D01*
X117056673Y-67250495D01*
X117058492Y-67251326D01*
X117058742Y-67253170D01*
X117042752Y-67297101D01*
X117020091Y-67476478D01*
X117037734Y-67656411D01*
X117062508Y-67730886D01*
X117062106Y-67732845D01*
X117060208Y-67733476D01*
X117058959Y-67732646D01*
X117019806Y-67675385D01*
X116956012Y-67648426D01*
X116887766Y-67660236D01*
X116836609Y-67707187D01*
X116833333Y-67714361D01*
X116831704Y-67715521D01*
X116829885Y-67714690D01*
X116829644Y-67712820D01*
X116838508Y-67689485D01*
X116863685Y-67510345D01*
X116863998Y-67487900D01*
X116843833Y-67308126D01*
X116822029Y-67245514D01*
X116822404Y-67243549D01*
X116824293Y-67242891D01*
X116825569Y-67243727D01*
G37*
G36*
X101585569Y-64703727D02*
G01*
X101624194Y-64760215D01*
X101687988Y-64787174D01*
X101756234Y-64775364D01*
X101807391Y-64728413D01*
X101815044Y-64711655D01*
X101816673Y-64710495D01*
X101818492Y-64711326D01*
X101818742Y-64713170D01*
X101802752Y-64757101D01*
X101780091Y-64936478D01*
X101797734Y-65116411D01*
X101822508Y-65190886D01*
X101822106Y-65192845D01*
X101820208Y-65193476D01*
X101818959Y-65192646D01*
X101779806Y-65135385D01*
X101716012Y-65108426D01*
X101647766Y-65120236D01*
X101596609Y-65167187D01*
X101593333Y-65174361D01*
X101591704Y-65175521D01*
X101589885Y-65174690D01*
X101589644Y-65172820D01*
X101598508Y-65149485D01*
X101623685Y-64970345D01*
X101623998Y-64947900D01*
X101603833Y-64768126D01*
X101582029Y-64705514D01*
X101582404Y-64703549D01*
X101584293Y-64702891D01*
X101585569Y-64703727D01*
G37*
G36*
X116825569Y-64703727D02*
G01*
X116864194Y-64760215D01*
X116927988Y-64787174D01*
X116996234Y-64775364D01*
X117047391Y-64728413D01*
X117055044Y-64711655D01*
X117056673Y-64710495D01*
X117058492Y-64711326D01*
X117058742Y-64713170D01*
X117042752Y-64757101D01*
X117020091Y-64936478D01*
X117037734Y-65116411D01*
X117062508Y-65190886D01*
X117062106Y-65192845D01*
X117060208Y-65193476D01*
X117058959Y-65192646D01*
X117019806Y-65135385D01*
X116956012Y-65108426D01*
X116887766Y-65120236D01*
X116836609Y-65167187D01*
X116833333Y-65174361D01*
X116831704Y-65175521D01*
X116829885Y-65174690D01*
X116829644Y-65172820D01*
X116838508Y-65149485D01*
X116863685Y-64970345D01*
X116863998Y-64947900D01*
X116843833Y-64768126D01*
X116822029Y-64705514D01*
X116822404Y-64703549D01*
X116824293Y-64702891D01*
X116825569Y-64703727D01*
G37*
G36*
X101585569Y-62163727D02*
G01*
X101624194Y-62220215D01*
X101687988Y-62247174D01*
X101756234Y-62235364D01*
X101807391Y-62188413D01*
X101815044Y-62171655D01*
X101816673Y-62170495D01*
X101818492Y-62171326D01*
X101818742Y-62173170D01*
X101802752Y-62217101D01*
X101780091Y-62396478D01*
X101797734Y-62576411D01*
X101822508Y-62650886D01*
X101822106Y-62652845D01*
X101820208Y-62653476D01*
X101818959Y-62652646D01*
X101779806Y-62595385D01*
X101716012Y-62568426D01*
X101647766Y-62580236D01*
X101596609Y-62627187D01*
X101593333Y-62634361D01*
X101591704Y-62635521D01*
X101589885Y-62634690D01*
X101589644Y-62632820D01*
X101598508Y-62609485D01*
X101623685Y-62430345D01*
X101623998Y-62407900D01*
X101603833Y-62228126D01*
X101582029Y-62165514D01*
X101582404Y-62163549D01*
X101584293Y-62162891D01*
X101585569Y-62163727D01*
G37*
G36*
X116825569Y-62163727D02*
G01*
X116864194Y-62220215D01*
X116927988Y-62247174D01*
X116996234Y-62235364D01*
X117047391Y-62188413D01*
X117055044Y-62171655D01*
X117056673Y-62170495D01*
X117058492Y-62171326D01*
X117058742Y-62173170D01*
X117042752Y-62217101D01*
X117020091Y-62396478D01*
X117037734Y-62576411D01*
X117062508Y-62650886D01*
X117062106Y-62652845D01*
X117060208Y-62653476D01*
X117058959Y-62652646D01*
X117019806Y-62595385D01*
X116956012Y-62568426D01*
X116887766Y-62580236D01*
X116836609Y-62627187D01*
X116833333Y-62634361D01*
X116831704Y-62635521D01*
X116829885Y-62634690D01*
X116829644Y-62632820D01*
X116838508Y-62609485D01*
X116863685Y-62430345D01*
X116863998Y-62407900D01*
X116843833Y-62228126D01*
X116822029Y-62165514D01*
X116822404Y-62163549D01*
X116824293Y-62162891D01*
X116825569Y-62163727D01*
G37*
G36*
X116825569Y-59623727D02*
G01*
X116864194Y-59680215D01*
X116927988Y-59707174D01*
X116996234Y-59695364D01*
X117047391Y-59648413D01*
X117055044Y-59631655D01*
X117056673Y-59630495D01*
X117058492Y-59631326D01*
X117058742Y-59633170D01*
X117042752Y-59677101D01*
X117020091Y-59856478D01*
X117037734Y-60036411D01*
X117062508Y-60110886D01*
X117062106Y-60112845D01*
X117060208Y-60113476D01*
X117058959Y-60112646D01*
X117019806Y-60055385D01*
X116956012Y-60028426D01*
X116887766Y-60040236D01*
X116836609Y-60087187D01*
X116833333Y-60094361D01*
X116831704Y-60095521D01*
X116829885Y-60094690D01*
X116829644Y-60092820D01*
X116838508Y-60069485D01*
X116863685Y-59890345D01*
X116863998Y-59867900D01*
X116843833Y-59688126D01*
X116822029Y-59625514D01*
X116822404Y-59623549D01*
X116824293Y-59622891D01*
X116825569Y-59623727D01*
G37*
G36*
X101585569Y-59623727D02*
G01*
X101624194Y-59680215D01*
X101687988Y-59707174D01*
X101756234Y-59695364D01*
X101807391Y-59648413D01*
X101815044Y-59631655D01*
X101816673Y-59630495D01*
X101818492Y-59631326D01*
X101818742Y-59633170D01*
X101802752Y-59677101D01*
X101780091Y-59856478D01*
X101797734Y-60036411D01*
X101822508Y-60110886D01*
X101822106Y-60112845D01*
X101820208Y-60113476D01*
X101818959Y-60112646D01*
X101779806Y-60055385D01*
X101716012Y-60028426D01*
X101647766Y-60040236D01*
X101596609Y-60087187D01*
X101593333Y-60094361D01*
X101591704Y-60095521D01*
X101589885Y-60094690D01*
X101589644Y-60092820D01*
X101598508Y-60069485D01*
X101623685Y-59890345D01*
X101623998Y-59867900D01*
X101603833Y-59688126D01*
X101582029Y-59625514D01*
X101582404Y-59623549D01*
X101584293Y-59622891D01*
X101585569Y-59623727D01*
G37*
G36*
X95838032Y-56824125D02*
G01*
X95838600Y-56825522D01*
X95838600Y-56851696D01*
X95858256Y-57038710D01*
X95916333Y-57217452D01*
X96010304Y-57380214D01*
X96117394Y-57499150D01*
X96117810Y-57501106D01*
X96116324Y-57502444D01*
X96114633Y-57502029D01*
X96092223Y-57483490D01*
X96028308Y-57456047D01*
X95959996Y-57467467D01*
X95908696Y-57514014D01*
X95890525Y-57578620D01*
X95889094Y-57580016D01*
X95887168Y-57579475D01*
X95886600Y-57578078D01*
X95886600Y-57551904D01*
X95866944Y-57364890D01*
X95808867Y-57186148D01*
X95714896Y-57023386D01*
X95607806Y-56904450D01*
X95607390Y-56902494D01*
X95608876Y-56901156D01*
X95610567Y-56901571D01*
X95632977Y-56920110D01*
X95696892Y-56947553D01*
X95765204Y-56936133D01*
X95816504Y-56889586D01*
X95834675Y-56824980D01*
X95836106Y-56823584D01*
X95838032Y-56824125D01*
G37*
G36*
X91690519Y-56825515D02*
G01*
X91710196Y-56892530D01*
X91762539Y-56937885D01*
X91831092Y-56947742D01*
X91894290Y-56918880D01*
X91904758Y-56908243D01*
X91904930Y-56908087D01*
X91918846Y-56896898D01*
X91920822Y-56896592D01*
X91922075Y-56898151D01*
X91921585Y-56899795D01*
X91810304Y-57023386D01*
X91716333Y-57186148D01*
X91658256Y-57364890D01*
X91638600Y-57551904D01*
X91638600Y-57577522D01*
X91637600Y-57579254D01*
X91635600Y-57579254D01*
X91634681Y-57578085D01*
X91615004Y-57511070D01*
X91562661Y-57465715D01*
X91494108Y-57455858D01*
X91430910Y-57484720D01*
X91420442Y-57495357D01*
X91420270Y-57495513D01*
X91406354Y-57506702D01*
X91404378Y-57507008D01*
X91403125Y-57505449D01*
X91403615Y-57503805D01*
X91514896Y-57380214D01*
X91608867Y-57217452D01*
X91666944Y-57038710D01*
X91686600Y-56851696D01*
X91686600Y-56826078D01*
X91687600Y-56824346D01*
X91689600Y-56824346D01*
X91690519Y-56825515D01*
G37*
G36*
X116825569Y-57083727D02*
G01*
X116864194Y-57140215D01*
X116927988Y-57167174D01*
X116996234Y-57155364D01*
X117047391Y-57108413D01*
X117055044Y-57091655D01*
X117056673Y-57090495D01*
X117058492Y-57091326D01*
X117058742Y-57093170D01*
X117042752Y-57137101D01*
X117020091Y-57316478D01*
X117037734Y-57496411D01*
X117062508Y-57570886D01*
X117062106Y-57572845D01*
X117060208Y-57573476D01*
X117058959Y-57572646D01*
X117019806Y-57515385D01*
X116956012Y-57488426D01*
X116887766Y-57500236D01*
X116836609Y-57547187D01*
X116833333Y-57554361D01*
X116831704Y-57555521D01*
X116829885Y-57554690D01*
X116829644Y-57552820D01*
X116838508Y-57529485D01*
X116863685Y-57350345D01*
X116863998Y-57327900D01*
X116843833Y-57148126D01*
X116822029Y-57085514D01*
X116822404Y-57083549D01*
X116824293Y-57082891D01*
X116825569Y-57083727D01*
G37*
G36*
X101585569Y-57083727D02*
G01*
X101624194Y-57140215D01*
X101687988Y-57167174D01*
X101756234Y-57155364D01*
X101807391Y-57108413D01*
X101815044Y-57091655D01*
X101816673Y-57090495D01*
X101818492Y-57091326D01*
X101818742Y-57093170D01*
X101802752Y-57137101D01*
X101780091Y-57316478D01*
X101797734Y-57496411D01*
X101822508Y-57570886D01*
X101822106Y-57572845D01*
X101820208Y-57573476D01*
X101818959Y-57572646D01*
X101779806Y-57515385D01*
X101716012Y-57488426D01*
X101647766Y-57500236D01*
X101596609Y-57547187D01*
X101593333Y-57554361D01*
X101591704Y-57555521D01*
X101589885Y-57554690D01*
X101589644Y-57552820D01*
X101598508Y-57529485D01*
X101623685Y-57350345D01*
X101623998Y-57327900D01*
X101603833Y-57148126D01*
X101582029Y-57085514D01*
X101582404Y-57083549D01*
X101584293Y-57082891D01*
X101585569Y-57083727D01*
G37*
G36*
X101585569Y-54543727D02*
G01*
X101624194Y-54600215D01*
X101687988Y-54627174D01*
X101756234Y-54615364D01*
X101807391Y-54568413D01*
X101815044Y-54551655D01*
X101816673Y-54550495D01*
X101818492Y-54551326D01*
X101818742Y-54553170D01*
X101802752Y-54597101D01*
X101780091Y-54776478D01*
X101797734Y-54956411D01*
X101822508Y-55030886D01*
X101822106Y-55032845D01*
X101820208Y-55033476D01*
X101818959Y-55032646D01*
X101779806Y-54975385D01*
X101716012Y-54948426D01*
X101647766Y-54960236D01*
X101596609Y-55007187D01*
X101593333Y-55014361D01*
X101591704Y-55015521D01*
X101589885Y-55014690D01*
X101589644Y-55012820D01*
X101598508Y-54989485D01*
X101623685Y-54810345D01*
X101623998Y-54787900D01*
X101603833Y-54608126D01*
X101582029Y-54545514D01*
X101582404Y-54543549D01*
X101584293Y-54542891D01*
X101585569Y-54543727D01*
G37*
G36*
X116825569Y-54543727D02*
G01*
X116864194Y-54600215D01*
X116927988Y-54627174D01*
X116996234Y-54615364D01*
X117047391Y-54568413D01*
X117055044Y-54551655D01*
X117056673Y-54550495D01*
X117058492Y-54551326D01*
X117058742Y-54553170D01*
X117042752Y-54597101D01*
X117020091Y-54776478D01*
X117037734Y-54956411D01*
X117062508Y-55030886D01*
X117062106Y-55032845D01*
X117060208Y-55033476D01*
X117058959Y-55032646D01*
X117019806Y-54975385D01*
X116956012Y-54948426D01*
X116887766Y-54960236D01*
X116836609Y-55007187D01*
X116833333Y-55014361D01*
X116831704Y-55015521D01*
X116829885Y-55014690D01*
X116829644Y-55012820D01*
X116838508Y-54989485D01*
X116863685Y-54810345D01*
X116863998Y-54787900D01*
X116843833Y-54608126D01*
X116822029Y-54545514D01*
X116822404Y-54543549D01*
X116824293Y-54542891D01*
X116825569Y-54543727D01*
G37*
G36*
X116825569Y-52003727D02*
G01*
X116864194Y-52060215D01*
X116927988Y-52087174D01*
X116996234Y-52075364D01*
X117047391Y-52028413D01*
X117055044Y-52011655D01*
X117056673Y-52010495D01*
X117058492Y-52011326D01*
X117058742Y-52013170D01*
X117042752Y-52057101D01*
X117020091Y-52236478D01*
X117037734Y-52416411D01*
X117062508Y-52490886D01*
X117062106Y-52492845D01*
X117060208Y-52493476D01*
X117058959Y-52492646D01*
X117019806Y-52435385D01*
X116956012Y-52408426D01*
X116887766Y-52420236D01*
X116836609Y-52467187D01*
X116833333Y-52474361D01*
X116831704Y-52475521D01*
X116829885Y-52474690D01*
X116829644Y-52472820D01*
X116838508Y-52449485D01*
X116863685Y-52270345D01*
X116863998Y-52247900D01*
X116843833Y-52068126D01*
X116822029Y-52005514D01*
X116822404Y-52003549D01*
X116824293Y-52002891D01*
X116825569Y-52003727D01*
G37*
G36*
X101585569Y-52003727D02*
G01*
X101624194Y-52060215D01*
X101687988Y-52087174D01*
X101756234Y-52075364D01*
X101807391Y-52028413D01*
X101815044Y-52011655D01*
X101816673Y-52010495D01*
X101818492Y-52011326D01*
X101818742Y-52013170D01*
X101802752Y-52057101D01*
X101780091Y-52236478D01*
X101797734Y-52416411D01*
X101822508Y-52490886D01*
X101822106Y-52492845D01*
X101820208Y-52493476D01*
X101818959Y-52492646D01*
X101779806Y-52435385D01*
X101716012Y-52408426D01*
X101647766Y-52420236D01*
X101596609Y-52467187D01*
X101593333Y-52474361D01*
X101591704Y-52475521D01*
X101589885Y-52474690D01*
X101589644Y-52472820D01*
X101598508Y-52449485D01*
X101623685Y-52270345D01*
X101623998Y-52247900D01*
X101603833Y-52068126D01*
X101582029Y-52005514D01*
X101582404Y-52003549D01*
X101584293Y-52002891D01*
X101585569Y-52003727D01*
G37*
G36*
X101585569Y-49463727D02*
G01*
X101624194Y-49520215D01*
X101687988Y-49547174D01*
X101756234Y-49535364D01*
X101807391Y-49488413D01*
X101815044Y-49471655D01*
X101816673Y-49470495D01*
X101818492Y-49471326D01*
X101818742Y-49473170D01*
X101802752Y-49517101D01*
X101780091Y-49696478D01*
X101797734Y-49876411D01*
X101822508Y-49950886D01*
X101822106Y-49952845D01*
X101820208Y-49953476D01*
X101818959Y-49952646D01*
X101779806Y-49895385D01*
X101716012Y-49868426D01*
X101647766Y-49880236D01*
X101596609Y-49927187D01*
X101593333Y-49934361D01*
X101591704Y-49935521D01*
X101589885Y-49934690D01*
X101589644Y-49932820D01*
X101598508Y-49909485D01*
X101623685Y-49730345D01*
X101623998Y-49707900D01*
X101603833Y-49528126D01*
X101582029Y-49465514D01*
X101582404Y-49463549D01*
X101584293Y-49462891D01*
X101585569Y-49463727D01*
G37*
G36*
X116825569Y-49463727D02*
G01*
X116864194Y-49520215D01*
X116927988Y-49547174D01*
X116996234Y-49535364D01*
X117047391Y-49488413D01*
X117055044Y-49471655D01*
X117056673Y-49470495D01*
X117058492Y-49471326D01*
X117058742Y-49473170D01*
X117042752Y-49517101D01*
X117020091Y-49696478D01*
X117037734Y-49876411D01*
X117062508Y-49950886D01*
X117062106Y-49952845D01*
X117060208Y-49953476D01*
X117058959Y-49952646D01*
X117019806Y-49895385D01*
X116956012Y-49868426D01*
X116887766Y-49880236D01*
X116836609Y-49927187D01*
X116833333Y-49934361D01*
X116831704Y-49935521D01*
X116829885Y-49934690D01*
X116829644Y-49932820D01*
X116838508Y-49909485D01*
X116863685Y-49730345D01*
X116863998Y-49707900D01*
X116843833Y-49528126D01*
X116822029Y-49465514D01*
X116822404Y-49463549D01*
X116824293Y-49462891D01*
X116825569Y-49463727D01*
G37*
G36*
X101585569Y-46923727D02*
G01*
X101624194Y-46980215D01*
X101687988Y-47007174D01*
X101756234Y-46995364D01*
X101807391Y-46948413D01*
X101815044Y-46931655D01*
X101816673Y-46930495D01*
X101818492Y-46931326D01*
X101818742Y-46933170D01*
X101802752Y-46977101D01*
X101780091Y-47156478D01*
X101797734Y-47336411D01*
X101822508Y-47410886D01*
X101822106Y-47412845D01*
X101820208Y-47413476D01*
X101818959Y-47412646D01*
X101779806Y-47355385D01*
X101716012Y-47328426D01*
X101647766Y-47340236D01*
X101596609Y-47387187D01*
X101593333Y-47394361D01*
X101591704Y-47395521D01*
X101589885Y-47394690D01*
X101589644Y-47392820D01*
X101598508Y-47369485D01*
X101623685Y-47190345D01*
X101623998Y-47167900D01*
X101603833Y-46988126D01*
X101582029Y-46925514D01*
X101582404Y-46923549D01*
X101584293Y-46922891D01*
X101585569Y-46923727D01*
G37*
G36*
X116825569Y-46923727D02*
G01*
X116864194Y-46980215D01*
X116927988Y-47007174D01*
X116996234Y-46995364D01*
X117047391Y-46948413D01*
X117055044Y-46931655D01*
X117056673Y-46930495D01*
X117058492Y-46931326D01*
X117058742Y-46933170D01*
X117042752Y-46977101D01*
X117020091Y-47156478D01*
X117037734Y-47336411D01*
X117062508Y-47410886D01*
X117062106Y-47412845D01*
X117060208Y-47413476D01*
X117058959Y-47412646D01*
X117019806Y-47355385D01*
X116956012Y-47328426D01*
X116887766Y-47340236D01*
X116836609Y-47387187D01*
X116833333Y-47394361D01*
X116831704Y-47395521D01*
X116829885Y-47394690D01*
X116829644Y-47392820D01*
X116838508Y-47369485D01*
X116863685Y-47190345D01*
X116863998Y-47167900D01*
X116843833Y-46988126D01*
X116822029Y-46925514D01*
X116822404Y-46923549D01*
X116824293Y-46922891D01*
X116825569Y-46923727D01*
G37*
M02*
